<?xml version="1.0" encoding="UTF-8" standalone="no"?>
<!DOCTYPE svg PUBLIC "-//W3C//DTD SVG 1.1//EN" "http://www.w3.org/Graphics/SVG/1.1/DTD/svg11.dtd">
<!-- Created with Vectornator (http://vectornator.io/) -->
<svg height="100%" stroke-miterlimit="10" style="fill-rule:nonzero;clip-rule:evenodd;stroke-linecap:round;stroke-linejoin:round;" version="1.1" viewBox="0 0 512 512" width="100%" xml:space="preserve" xmlns="http://www.w3.org/2000/svg" xmlns:vectornator="http://vectornator.io" xmlns:xlink="http://www.w3.org/1999/xlink">
<defs>
<linearGradient gradientTransform="matrix(4.21519 0 0 4.21519 121.428 109.481)" gradientUnits="userSpaceOnUse" id="LinearGradient" x1="16.5225" x2="50.8111" y1="78.4805" y2="62.2395">
<stop offset="0" stop-color="#d83333"/>
<stop offset="1" stop-color="#f041ff"/>
</linearGradient>
</defs>
<g id="Ebene-1" vectornator:layerName="Ebene 1">
<path d="M2.84217e-14 95C2.84217e-14 42.5329 42.5329 0 95 0L417 0C469.467 0 512 42.5329 512 95L512 417C512 469.467 469.467 512 417 512L95 512C42.5329 512 2.84217e-14 469.467 2.84217e-14 417L2.84217e-14 95Z" fill="#161616" fill-rule="nonzero" opacity="1" stroke="none" vectornator:layerName="Rechteck 1"/>
</g>
<g id="Ebene-2" vectornator:layerName="Ebene 2">
<g opacity="1" vectornator:layerName="path">
<clipPath clip-rule="nonzero" id="ClipPath">
<path d="M121.39 109.5L121.39 442.5L387.764 442.5C387.778 433.026 387.819 417.927 387.815 413.7C387.803 393.25 387.607 377.726 387.035 362.658C386.914 359.462 386.59 356.81 385.683 350.665C385.596 350.078 385.548 349.816 385.5 349.494C384.502 342.694 384.096 338.748 384.096 334.197C384.096 331.179 385.645 328.632 387.894 326.965C387.822 320.254 388.079 313.379 388.779 303.94C388.906 302.22 389.01 300.797 389.247 297.775C389.973 288.489 390.266 284.477 390.47 279.487C390.659 274.829 390.637 269.739 390.521 263.85C386.812 260.635 384.381 256.014 384.381 250.713C384.381 249.254 384.377 248.118 384.381 245.431C384.401 234.462 384.315 228.165 384.122 222.174C381.062 213.127 377.818 204.253 374.314 195.507C373.573 193.658 366.229 174.373 365.624 172.848C365.641 172.889 365.736 173.068 365.754 173.108C362.383 165.662 359.953 157.651 358.756 149.148C358.322 145.913 358.345 145.984 357.976 140.459C357.934 139.513 358.005 139.003 357.976 138.247C355.279 129.989 354.368 121.734 355.764 113.168C355.975 111.88 356.369 110.665 356.832 109.5L121.39 109.5Z"/>
</clipPath>
<g clip-path="url(#ClipPath)">
<path d="M206.94 391.248C191.957 377.587 187.584 348.882 193.826 328.087C204.65 341.198 219.645 345.351 235.179 347.696C259.159 351.314 282.71 349.961 304.986 339.027C307.534 337.776 309.889 336.111 312.674 334.426C314.764 340.475 315.308 346.581 314.578 352.797C312.802 367.934 305.251 379.627 293.239 388.491C288.437 392.036 283.353 395.206 278.393 398.549C263.153 408.824 259.03 420.871 264.757 438.396C264.893 438.823 265.014 439.25 265.322 440.291C257.542 436.818 251.857 431.761 247.527 425.111C242.953 418.093 240.777 410.329 240.662 401.927C240.605 397.84 240.605 393.715 240.054 389.685C238.708 379.859 234.084 375.46 225.372 375.207C216.431 374.946 209.359 380.46 207.484 389.142C207.34 389.808 207.133 390.466 206.926 391.24L206.94 391.248Z" fill="url(#LinearGradient)" fill-rule="nonzero" opacity="1" stroke="none" vectornator:layerName="path"/>
<path d="M210.823 109.5C205.901 109.5 202.468 113.332 200.158 119.386C199.994 119.789 124.53 324.597 124.53 324.597C124.53 324.597 168.963 303.005 213.452 303.005L246.907 199.462C248.163 194.454 251.847 191.033 255.987 191.033C260.127 191.033 263.836 194.455 265.093 199.462L298.679 303.005C351.369 303.005 387.47 324.597 387.47 324.597C387.47 324.597 312.12 119.797 311.972 119.386C309.809 113.332 306.098 109.5 301.176 109.5L210.823 109.5Z" fill="#ffffff" fill-rule="nonzero" opacity="1" stroke="none" vectornator:layerName="Kurve 4"/>
</g>
</g>
</g>
</svg>
