<?xml version="1.0" encoding="UTF-8" standalone="no"?>
<!DOCTYPE svg PUBLIC "-//W3C//DTD SVG 1.1//EN" "http://www.w3.org/Graphics/SVG/1.1/DTD/svg11.dtd">
<!-- Created with Vectornator (http://vectornator.io/) -->
<svg height="100%" stroke-miterlimit="10" style="fill-rule:nonzero;clip-rule:evenodd;stroke-linecap:round;stroke-linejoin:round;" version="1.1" viewBox="0 0 512 512" width="100%" xml:space="preserve" xmlns="http://www.w3.org/2000/svg" xmlns:vectornator="http://vectornator.io" xmlns:xlink="http://www.w3.org/1999/xlink">
<defs/>
<g id="Ebene-1" vectornator:layerName="Ebene 1">
<path d="M2.84217e-14 95C2.84217e-14 42.5329 42.5329 0 95 0L417 0C469.467 0 512 42.5329 512 95L512 417C512 469.467 469.467 512 417 512L95 512C42.5329 512 2.84217e-14 469.467 2.84217e-14 417L2.84217e-14 95Z" fill="#161616" fill-rule="nonzero" opacity="1" stroke="none" vectornator:layerName="Rechteck 1"/>
</g>
<g id="Ebene-2" vectornator:layerName="Ebene 2">
<g opacity="1" vectornator:layerName="g">
<path d="M256 56C247.571 56 239.16 58.2434 231.656 62.7188L105.344 137.688C90.1531 146.853 80.908 163.321 81 181.062L81 331C80.916 348.733 90.161 365.184 105.344 374.344L231.625 449.281C246.634 458.227 265.334 458.227 280.344 449.281L406.625 374.344C421.826 365.185 431.087 348.715 431 330.969L431 181.062C431.092 163.321 421.847 146.853 406.656 137.688L280.375 62.7188C272.871 58.2434 264.429 56 256 56ZM256 64.9062C262.902 64.9062 269.794 66.7402 275.938 70.4062L402.125 145.375C412.525 151.675 419.603 162.238 421.5 174.25C417.303 165.323 407.875 162.866 396.875 169.188L277.5 243.125C262.607 251.798 251.65 261.578 251.625 279.531L251.625 426.719C251.625 437.465 255.949 444.421 262.625 446.469C260.438 446.869 258.223 447.105 256 447.125C248.979 447.12 242.069 445.212 236.031 441.625L109.781 366.688C97.3026 359.126 89.6967 345.559 89.75 330.969L89.75 181.062C89.6913 166.47 97.2985 152.934 109.781 145.375L236.062 70.4062C242.207 66.7402 249.098 64.9063 256 64.9062Z" fill="#ffffff" fill-rule="nonzero" opacity="1" stroke="none"/>
<path d="M406.644 137.681L280.371 62.713C265.363 53.7623 246.655 53.7623 231.647 62.713L105.35 137.681C90.1597 146.846 80.9104 163.328 81.0024 181.069L81.0024 330.985C80.9184 348.719 90.1677 365.188 105.35 374.348L231.625 449.291C246.635 458.236 265.34 458.236 280.349 449.291L406.624 374.348C421.826 365.19 431.084 348.707 430.998 330.96L430.998 181.076C431.09 163.335 421.84 146.853 406.65 137.688L406.644 137.681ZM236.047 441.626L109.773 366.683C97.2944 359.122 89.6944 345.571 89.7477 330.98L89.7477 181.067C89.6891 166.475 97.2904 152.922 109.773 145.364L236.048 70.3957C248.336 63.0637 263.657 63.0637 275.945 70.3957L402.116 145.364C412.516 151.664 419.612 162.228 421.51 174.24C417.312 165.313 407.882 162.861 396.882 169.183L277.513 243.113C262.62 251.787 251.647 261.571 251.621 279.524L251.621 426.732C251.621 437.479 255.944 444.431 262.62 446.479C260.433 446.879 258.217 447.091 255.995 447.111C248.973 447.106 242.083 445.211 236.045 441.624L236.047 441.626Z" fill="#ffffff" fill-rule="nonzero" opacity="1" stroke="none" vectornator:layerName="path"/>
<path d="M373.547 345.475C373.547 345.475 360.446 353.311 352.582 358.014C344.719 362.718 342.093 364.288 342.093 364.288C341.251 364.626 340.685 365.428 340.652 366.336L340.652 374.604C340.652 375.615 341.335 376.019 342.169 375.539L374.104 356.12C374.886 355.535 375.26 354.549 375.064 353.592L375.064 346.335C375.039 345.399 374.306 344.995 373.547 345.476L373.547 345.475Z" fill="#288900" fill-rule="nonzero" opacity="1" stroke="none" vectornator:layerName="path"/>
<path d="M306.597 276.22C307.609 275.715 308.444 276.22 308.469 277.663L308.571 288.635C312.352 286.917 316.572 286.405 320.656 287.169C321.44 287.372 321.769 288.433 321.465 289.697L319.063 299.331C318.881 300.057 318.505 300.721 317.976 301.252C317.791 301.436 317.577 301.589 317.344 301.708C317.059 301.863 316.728 301.916 316.408 301.859C312.427 300.977 308.259 301.647 304.752 303.731C299.627 306.04 296.276 311.08 296.131 316.7C296.131 321.757 298.659 323.148 307.483 323.3C319.139 323.503 324.196 328.584 324.323 340.341C324.045 352.615 318.387 364.144 308.848 371.872L309.051 382.643C309.032 383.98 308.337 385.219 307.205 385.93L300.833 389.596C299.821 390.103 298.987 389.596 298.961 388.18L298.961 377.587C293.501 379.862 287.963 380.394 284.424 378.978C283.767 378.724 283.463 377.739 283.741 376.6L286.043 366.866C286.217 366.096 286.612 365.392 287.18 364.843C287.36 364.671 287.564 364.526 287.787 364.414C288.116 364.266 288.493 364.266 288.824 364.414C293.331 365.635 298.139 365.027 302.199 362.719C308.059 359.894 311.867 354.049 312.085 347.548C312.085 342.087 309.076 339.812 301.972 339.76C292.792 339.76 284.272 337.991 284.096 324.589C284.217 317.892 289.309 305.754 289.309 305.754C289.309 305.754 294.988 297.718 298.912 294.603L298.457 283.579C298.452 282.221 299.151 280.959 300.303 280.24L306.597 276.22Z" fill="#288900" fill-rule="nonzero" opacity="1" stroke="none" vectornator:layerName="path"/>
</g>
</g>
</svg>
