<?xml version="1.0" encoding="UTF-8" standalone="no"?>
<!DOCTYPE svg PUBLIC "-//W3C//DTD SVG 1.1//EN" "http://www.w3.org/Graphics/SVG/1.1/DTD/svg11.dtd">
<!-- Created with Vectornator (http://vectornator.io/) -->
<svg height="100%" stroke-miterlimit="10" style="fill-rule:nonzero;clip-rule:evenodd;stroke-linecap:round;stroke-linejoin:round;" version="1.1" viewBox="0 0 512 512" width="100%" xml:space="preserve" xmlns="http://www.w3.org/2000/svg" xmlns:vectornator="http://vectornator.io" xmlns:xlink="http://www.w3.org/1999/xlink">
<defs/>
<g id="Ebene-1" vectornator:layerName="Ebene 1">
<path d="M2.84217e-14 95C2.84217e-14 42.5329 42.5329 0 95 0L417 0C469.467 0 512 42.5329 512 95L512 417C512 469.467 469.467 512 417 512L95 512C42.5329 512 2.84217e-14 469.467 2.84217e-14 417L2.84217e-14 95Z" fill="#7952b3" fill-rule="nonzero" opacity="1" stroke="none" vectornator:layerName="Rechteck 1"/>
</g>
<g id="Ebene-2" vectornator:layerName="Ebene 2">
<path d="M139.081 96.6781C116.258 96.6781 99.3695 116.655 100.126 138.319C100.852 159.132 99.9086 186.088 93.1227 208.071C86.3125 230.116 74.8031 244.085 56 245.878L56 266.122C74.8031 267.919 86.3125 281.881 93.1219 303.929C99.9086 325.912 100.851 352.868 100.125 373.681C99.3687 395.342 116.257 415.322 139.084 415.322L372.949 415.322C395.773 415.322 412.658 395.345 411.902 373.681C411.176 352.868 412.119 325.912 418.905 303.929C425.715 281.881 437.196 267.913 456 266.122L456 245.878C437.197 244.081 425.716 230.119 418.905 208.071C412.118 186.091 411.176 159.132 411.902 138.319C412.658 116.658 395.773 96.6781 372.949 96.6781L139.078 96.6781L139.081 96.6781ZM327.187 292.824C327.187 322.655 304.936 340.746 268.01 340.746L205.152 340.746C201.408 340.746 198.373 337.711 198.373 333.966L198.373 178.034C198.373 174.29 201.408 171.255 205.152 171.255L267.652 171.255C298.442 171.255 318.649 187.933 318.649 213.539C318.649 231.512 305.055 247.602 287.737 250.42L287.737 251.358C311.312 253.944 327.187 270.272 327.187 292.824ZM261.156 192.746L225.316 192.746L225.316 243.371L255.502 243.371C278.838 243.371 291.705 233.974 291.705 217.178C291.703 201.437 280.641 192.746 261.156 192.746ZM225.316 263.458L225.316 319.248L262.475 319.248C286.772 319.248 299.641 309.498 299.641 291.177C299.641 272.855 286.411 263.455 260.913 263.455L225.316 263.455L225.316 263.458Z" fill="#fafafa" fill-rule="evenodd" opacity="1" stroke="none" vectornator:layerName="path"/>
</g>
</svg>
