<?xml version="1.0" encoding="UTF-8" standalone="no"?>
<!DOCTYPE svg PUBLIC "-//W3C//DTD SVG 1.1//EN" "http://www.w3.org/Graphics/SVG/1.1/DTD/svg11.dtd">
<!-- Created with Vectornator (http://vectornator.io/) -->
<svg height="100%" stroke-miterlimit="10" style="fill-rule:nonzero;clip-rule:evenodd;stroke-linecap:round;stroke-linejoin:round;" version="1.1" viewBox="0 0 512 512" width="100%" xml:space="preserve" xmlns="http://www.w3.org/2000/svg" xmlns:vectornator="http://vectornator.io" xmlns:xlink="http://www.w3.org/1999/xlink">
<defs/>
<g id="Ebene-1" vectornator:layerName="Ebene 1">
<path d="M2.84217e-14 95C2.84217e-14 42.5329 42.5329 0 95 0L417 0C469.467 0 512 42.5329 512 95L512 417C512 469.467 469.467 512 417 512L95 512C42.5329 512 2.84217e-14 469.467 2.84217e-14 417L2.84217e-14 95Z" fill="#242628" fill-rule="nonzero" opacity="1" stroke="none" vectornator:layerName="Rechteck 1"/>
<g opacity="1" vectornator:layerName="g">
<g opacity="1" vectornator:layerName="g">
<path d="M431.933 268.944C431.933 345.4 353.165 407.378 256.001 407.378C158.835 407.378 80.0667 345.4 80.0667 268.944C80.0667 221.542 110.227 179.67 156.572 154.838C202.918 130.007 231.771 104.572 256.001 104.572C280.229 104.572 300.938 125.332 355.428 154.838C401.773 179.67 431.933 221.542 431.933 268.944Z" fill="#fbf0df" fill-rule="nonzero" opacity="1" stroke="none" vectornator:layerName="path"/>
<path d="M431.933 268.944C431.909 259.123 430.556 249.349 427.912 239.89C414.19 407.278 210.007 415.32 129.73 365.255C165.817 393.226 210.349 408.081 256.001 407.378C353.015 407.378 431.933 345.298 431.933 268.944Z" fill="#f6dece" fill-rule="nonzero" opacity="1" stroke="none" vectornator:layerName="path"/>
<path d="M188.291 145.639C210.76 132.168 240.618 106.884 269.974 106.834C265.458 105.374 260.746 104.611 256.001 104.572C243.836 104.572 230.867 110.855 214.53 120.306C208.85 123.623 202.968 127.293 196.736 131.112C185.023 138.351 171.603 146.545 156.522 154.738C108.668 180.625 80.0667 223.302 80.0667 268.944C80.0667 270.955 80.0667 272.965 80.0667 274.926C110.528 167.305 165.872 159.111 188.291 145.639Z" fill="#fffefc" fill-rule="nonzero" opacity="1" stroke="none" vectornator:layerName="path"/>
<path d="M241.523 117.289C241.665 141.307 231.332 164.194 213.223 179.972C211.816 181.229 212.921 183.641 214.731 182.938C231.671 176.353 254.542 156.648 244.891 116.887C244.489 114.625 241.523 115.228 241.523 117.289ZM252.933 117.289C265.381 137.597 268.336 162.329 261.027 184.998C260.424 186.757 262.586 188.266 263.791 186.809C274.799 172.733 284.4 144.786 255.649 114.625C254.19 113.318 251.928 115.329 252.933 117.088L252.933 117.289ZM266.807 116.435C286.295 130.231 298.854 151.79 301.24 175.549C301.135 176.428 301.737 177.234 302.61 177.382C303.483 177.53 304.318 176.966 304.507 176.101C309.132 158.558 306.518 128.65 268.466 113.117C266.455 112.312 265.148 115.028 266.807 116.233L266.807 116.435ZM174.015 168.712C197.186 161.79 216.321 145.341 226.644 123.472C227.55 121.663 230.414 122.366 229.962 124.377C221.266 164.59 192.162 172.985 174.065 171.878C172.155 171.93 172.205 169.266 174.015 168.712Z" fill="#ccbea7" fill-rule="nonzero" opacity="1" stroke="none" vectornator:layerName="path"/>
<path d="M256.001 419.995C152.048 419.995 67.5 352.235 67.5 268.944C67.5 218.677 98.565 171.778 150.591 143.679C165.671 135.637 178.59 127.543 190.1 120.456C196.435 116.535 202.416 112.866 208.196 109.448C225.84 98.9919 240.92 92.005 256.001 92.005C271.08 92.005 284.25 98.0367 300.738 107.789C305.764 110.653 310.791 113.771 316.169 117.188C328.685 124.93 342.811 133.676 361.409 143.679C413.435 171.778 444.5 218.627 444.5 268.944C444.5 352.235 359.952 419.995 256.001 419.995ZM256.001 104.572C243.836 104.572 230.867 110.855 214.53 120.306C208.85 123.623 202.968 127.293 196.736 131.112C185.023 138.351 171.603 146.545 156.522 154.738C108.668 180.625 80.0667 223.302 80.0667 268.944C80.0667 345.298 158.985 407.428 256.001 407.428C353.015 407.428 431.933 345.298 431.933 268.944C431.933 223.302 403.332 180.625 355.428 154.838C336.427 144.786 321.598 135.335 309.585 127.896C304.105 124.527 299.079 121.411 294.504 118.647C279.274 109.598 268.164 104.572 256.001 104.572Z" fill="#000000" fill-rule="nonzero" opacity="1" stroke="none" vectornator:layerName="path"/>
</g>
<g opacity="1" vectornator:layerName="g">
<path d="M291.439 305.639C289.18 314.887 284.04 323.178 276.76 329.314C271.295 334.612 264.221 337.937 256.654 338.765C248.86 338.068 241.537 334.735 235.894 329.314C228.688 323.15 223.62 314.862 221.417 305.639C221.269 304.529 221.642 303.414 222.429 302.617C223.216 301.821 224.326 301.433 225.438 301.567L287.467 301.567C288.571 301.45 289.666 301.844 290.44 302.639C291.216 303.433 291.583 304.538 291.439 305.639L291.439 305.639Z" fill="#b71422" fill-rule="nonzero" opacity="1" stroke="none" vectornator:layerName="path"/>
<path d="M235.894 329.716C241.525 335.141 248.822 338.505 256.603 339.267C264.367 338.494 271.644 335.13 277.263 329.716C279.06 328.042 280.739 326.244 282.29 324.338C276.031 317.237 267.118 313.036 257.659 312.726C247.493 312.967 238.095 318.193 232.526 326.7C233.682 327.755 234.687 328.762 235.894 329.716Z" fill="#ff6164" fill-rule="nonzero" opacity="1" stroke="none" vectornator:layerName="path"/>
<path d="M236.697 325.745C241.746 319.219 249.509 315.366 257.76 315.29C265.287 315.512 272.46 318.542 277.867 323.784C279.022 322.529 280.129 321.222 281.184 319.915C274.789 313.824 266.337 310.361 257.508 310.212C247.954 310.296 238.937 314.647 232.928 322.075C234.117 323.367 235.375 324.592 236.697 325.745L236.697 325.745Z" fill="#000000" fill-rule="nonzero" opacity="1" stroke="none" vectornator:layerName="path"/>
<path d="M256.453 341.78C248.076 341.046 240.194 337.504 234.083 331.726C226.303 325.146 220.826 316.252 218.451 306.343C218.106 304.555 218.587 302.708 219.758 301.316C221.154 299.63 223.251 298.684 225.438 298.752L287.467 298.752C289.65 298.706 291.738 299.648 293.147 301.316C294.308 302.714 294.77 304.563 294.404 306.343L294.404 306.343C292.029 316.252 286.552 325.146 278.77 331.726C272.674 337.493 264.811 341.035 256.453 341.78L256.453 341.78ZM225.438 304.582C224.634 304.582 224.432 304.935 224.382 305.036C226.507 313.629 231.313 321.323 238.106 327.002C243.071 331.895 249.528 334.99 256.453 335.799C263.36 335 269.809 331.942 274.799 327.102C281.57 321.415 286.358 313.722 288.473 305.136C288.249 304.808 287.861 304.634 287.467 304.684L225.438 304.582Z" fill="#000000" fill-rule="nonzero" opacity="1" stroke="none" vectornator:layerName="path"/>
</g>
<g opacity="1" vectornator:layerName="g">
<path d="M303.1 291.464C303.1 281.914 316.265 274.172 332.506 274.172C348.747 274.172 361.912 281.914 361.912 291.464C361.912 301.013 348.747 308.755 332.506 308.755C316.265 308.755 303.1 301.013 303.1 291.464Z" fill="#febbd0" fill-rule="nonzero" opacity="1" stroke="none" vectornator:layerName="ellipse"/>
<path d="M150.943 291.464C150.943 281.914 164.108 274.172 180.349 274.172C196.59 274.172 209.755 281.914 209.755 291.464C209.755 301.013 196.59 308.755 180.349 308.755C164.108 308.755 150.943 301.013 150.943 291.464Z" fill="#febbd0" fill-rule="nonzero" opacity="1" stroke="none" vectornator:layerName="ellipse"/>
<path d="M194.172 284.527C205.38 284.547 215.493 277.812 219.797 267.463C224.1 257.116 221.742 245.194 213.825 237.263C205.908 229.331 193.991 226.952 183.635 231.236C173.28 235.52 166.525 245.622 166.525 256.829C166.525 272.107 178.895 284.499 194.172 284.527L194.172 284.527ZM318.683 284.527C329.903 284.608 340.064 277.912 344.415 267.569C348.765 257.225 346.444 245.28 338.539 237.317C330.634 229.354 318.707 226.947 308.332 231.223C297.957 235.498 291.187 245.609 291.187 256.829C291.159 272.059 303.453 284.443 318.683 284.527L318.683 284.527Z" fill="#000000" fill-rule="nonzero" opacity="1" stroke="none" vectornator:layerName="path"/>
<path d="M185.627 258.59C189.84 258.61 193.649 256.086 195.275 252.2C196.902 248.314 196.024 243.83 193.053 240.844C190.081 237.858 185.601 236.959 181.707 238.566C177.812 240.174 175.272 243.971 175.272 248.184C175.272 253.911 179.9 258.561 185.627 258.59ZM310.137 258.59C314.35 258.61 318.16 256.086 319.786 252.2C321.412 248.314 320.535 243.83 317.563 240.844C314.591 237.858 310.112 236.959 306.217 238.566C302.323 240.174 299.783 243.971 299.783 248.184C299.781 253.872 304.349 258.506 310.037 258.59L310.137 258.59Z" fill="#ffffff" fill-rule="nonzero" opacity="1" stroke="none" vectornator:layerName="path"/>
</g>
</g>
</g>
</svg>
