<?xml version="1.0" encoding="UTF-8" standalone="no"?>
<!DOCTYPE svg PUBLIC "-//W3C//DTD SVG 1.1//EN" "http://www.w3.org/Graphics/SVG/1.1/DTD/svg11.dtd">
<!-- Created with Vectornator (http://vectornator.io/) -->
<svg height="100%" stroke-miterlimit="10" style="fill-rule:nonzero;clip-rule:evenodd;stroke-linecap:round;stroke-linejoin:round;" version="1.1" viewBox="0 0 512 512" width="100%" xml:space="preserve" xmlns="http://www.w3.org/2000/svg" xmlns:vectornator="http://vectornator.io" xmlns:xlink="http://www.w3.org/1999/xlink">
<defs/>
<g id="Ebene-1" vectornator:layerName="Ebene 1">
<path d="M2.84217e-14 95C2.84217e-14 42.5329 42.5329 0 95 0L417 0C469.467 0 512 42.5329 512 95L512 417C512 469.467 469.467 512 417 512L95 512C42.5329 512 2.84217e-14 469.467 2.84217e-14 417L2.84217e-14 95Z" fill="#242628" fill-rule="nonzero" opacity="1" stroke="none" vectornator:layerName="Rechteck 1"/>
<g opacity="1" vectornator:layerName="centos-1.svg">
<path d="M229.769 243.84L241.814 255.818L229.769 267.792L144.986 267.792L144.986 307.692L93.2824 255.818L144.986 204.811L144.986 243.84L229.77 243.84L229.769 243.84ZM267.036 141.948L370.052 141.948L370.052 244.965L267.036 244.965L267.036 141.948Z" fill="#932279" fill-rule="nonzero" opacity="1" stroke="none" vectornator:layerName="path"/>
<path d="M268.16 229.769L256.186 241.814L244.21 229.769L244.21 144.986L204.308 144.986L256.186 93.2824L307.187 144.986L268.16 144.986L268.16 229.77L268.16 229.769ZM267.038 267.036L370.052 267.036L370.052 370.053L267.036 370.053L267.036 267.036L267.038 267.036Z" fill="#efa724" fill-rule="nonzero" opacity="1" stroke="none" vectornator:layerName="path"/>
<path d="M282.233 268.16L270.186 256.186L282.233 244.21L367.014 244.21L367.014 204.308L418.72 256.186L367.014 307.187L367.014 268.16L282.233 268.16ZM141.948 267.038L244.964 267.038L244.964 370.054L141.948 370.054L141.948 267.038Z" fill="#262577" fill-rule="nonzero" opacity="1" stroke="none" vectornator:layerName="path"/>
<path d="M243.84 282.233L255.814 270.186L267.792 282.233L267.792 367.016L307.692 367.016L255.814 418.72L204.814 367.016L243.84 367.016L243.84 282.233ZM141.948 141.948L244.964 141.948L244.964 244.965L141.948 244.965L141.948 141.948Z" fill="#9ccd2a" fill-rule="nonzero" opacity="1" stroke="none" vectornator:layerName="path"/>
<path d="M138.269 138.269L248.642 138.269L248.642 248.642L138.269 248.642L138.269 138.269ZM145.626 241.286L241.283 241.286L241.283 145.629L145.626 145.629L145.626 241.286ZM263.36 138.269L373.734 138.269L373.734 248.642L263.36 248.642L263.36 138.269ZM270.717 241.286L366.374 241.286L366.374 145.629L270.717 145.629L270.717 241.286ZM263.36 263.36L373.734 263.36L373.734 373.736L263.36 373.736L263.36 263.358L263.36 263.36ZM270.717 366.374L366.374 366.374L366.374 270.717L270.717 270.717L270.717 366.374ZM138.269 263.36L248.642 263.36L248.642 373.736L138.269 373.736L138.269 263.358L138.269 263.36ZM145.626 366.374L241.283 366.374L241.283 270.717L145.626 270.717L145.626 366.374Z" fill="#ffffff" fill-rule="nonzero" opacity="1" stroke="none" vectornator:layerName="path"/>
<path d="M167.549 334.049L89.5 256L167.548 177.954L245.596 256L167.55 334.049L167.549 334.049ZM99.9074 256L167.549 323.641L235.188 256L167.546 188.361L99.9074 256ZM256 245.595L177.954 167.549L256 89.5L334.046 167.549L256 245.595ZM188.361 167.549L256 235.188L323.641 167.549L256 99.9074L188.361 167.549ZM344.454 334.049L266.407 256L344.454 177.954L422.5 256L344.454 334.049ZM276.812 256L344.454 323.641L412.093 256L344.454 188.361L276.812 256ZM256 422.5L177.954 344.454L256 266.407L334.046 344.454L256 422.5ZM188.361 344.454L256 412.093L323.641 344.454L256 276.815L188.361 344.454Z" fill="#ffffff" fill-rule="nonzero" opacity="1" stroke="none" vectornator:layerName="path"/>
</g>
</g>
</svg>
