<?xml version="1.0" encoding="UTF-8" standalone="no"?>
<!DOCTYPE svg PUBLIC "-//W3C//DTD SVG 1.1//EN" "http://www.w3.org/Graphics/SVG/1.1/DTD/svg11.dtd">
<!-- Created with Vectornator (http://vectornator.io/) -->
<svg height="100%" stroke-miterlimit="10" style="fill-rule:nonzero;clip-rule:evenodd;stroke-linecap:round;stroke-linejoin:round;" version="1.1" viewBox="0 0 512 512" width="100%" xml:space="preserve" xmlns="http://www.w3.org/2000/svg" xmlns:vectornator="http://vectornator.io" xmlns:xlink="http://www.w3.org/1999/xlink">
<defs/>
<g id="Ebene-1" vectornator:layerName="Ebene 1">
<path d="M2.84217e-14 95C2.84217e-14 42.5329 42.5329 0 95 0L417 0C469.467 0 512 42.5329 512 95L512 417C512 469.467 469.467 512 417 512L95 512C42.5329 512 2.84217e-14 469.467 2.84217e-14 417L2.84217e-14 95Z" fill="#242628" fill-rule="nonzero" opacity="1" stroke="none" vectornator:layerName="Rechteck 1"/>
<g opacity="1" vectornator:layerName="cloudflare.svg">
<path d="M456 324.594C456 293.188 430.531 267.562 398.969 267.562C386.312 267.562 374.594 271.781 365.063 278.813C366.313 272.875 366.938 266.625 366.938 260.375C366.938 207.875 324.438 165.375 271.938 165.375C230.219 165.375 194.75 192.406 181.938 229.75C174.75 224.438 166 221.156 156.313 221.156C132.719 221.156 113.656 240.219 113.656 263.812C113.656 267.406 114.125 271 114.906 274.438C82.25 275.531 56 302.406 56 335.375C56 339.281 56.3125 343.031 57.0938 346.625L451.625 346.625C454.437 339.75 456 332.406 456 324.594Z" fill="#ff9900" fill-rule="nonzero" opacity="1" stroke="none" vectornator:layerName="path"/>
<path d="M355.688 260.375C355.688 306.625 318.031 335.844 271.781 335.844C225.531 335.844 188.188 306.625 188.188 260.375C188.188 214.125 225.688 176.625 271.938 176.625C318.188 176.625 355.688 214.125 355.688 260.375" fill="#ff9900" fill-rule="nonzero" opacity="1" stroke="none" vectornator:layerName="path"/>
<path d="M342.875 260.844C342.875 289.125 310.844 312.094 271.469 312.094C231.938 312.094 200.063 289.125 200.063 260.844C200.063 232.562 232.094 209.594 271.469 209.594C311 209.75 342.875 232.562 342.875 260.844" fill="#ff9900" fill-rule="nonzero" opacity="1" stroke="none" vectornator:layerName="path"/>
<path d="M124.906 264.125C124.906 246.607 139.107 232.406 156.625 232.406C174.143 232.406 188.344 246.607 188.344 264.125C188.344 281.643 174.143 295.844 156.625 295.844C139.107 295.844 124.906 281.643 124.906 264.125Z" fill="#ff9900" fill-rule="nonzero" opacity="1" stroke="none" vectornator:layerName="circle"/>
<path d="M182.25 252.094C187.563 261.312 180.844 275.375 167.25 283.188C153.656 291 138.188 289.906 132.875 280.688C127.563 271.469 134.281 257.406 147.875 249.594C161.625 241.625 176.938 242.875 182.25 252.094" fill="#ff9900" fill-rule="nonzero" opacity="1" stroke="none" vectornator:layerName="path"/>
<path d="M166.625 335.219C166.625 307.719 144.281 285.375 116.781 285.375C89.2813 285.375 66.9375 307.719 66.9375 335.219L66.9375 335.531L166.625 335.531L166.625 335.219Z" fill="#ff9900" fill-rule="nonzero" opacity="1" stroke="none" vectornator:layerName="path"/>
<path d="M444.906 324.125C444.906 298.969 424.594 278.656 399.438 278.656C374.281 278.656 353.969 298.969 353.969 324.125C353.969 327.719 354.438 331.156 355.219 334.438L443.813 334.438C444.594 331 444.906 327.562 444.906 324.125Z" fill="#ff9900" fill-rule="nonzero" opacity="1" stroke="none" vectornator:layerName="path"/>
<path d="M446.937 336L445.219 332.562L443.344 329.438L440.688 325.375L438.031 321.938L434.906 318.031L431.625 314.594L427.875 311L424.438 308.031L420.375 305.219L416.469 302.875L412.094 300.375L408.5 298.5L404.75 296.938L401.312 296L397.875 295.375L394.594 294.75L390.531 294.438L132.875 294.906L128.813 295.062L124.594 295.375L120.063 295.844L116.313 296.625L111.469 297.719L108.188 298.812L104.594 300.219L101 301.469L96.4688 303.812L93.1875 305.375L88.8125 308.188L84.9063 311.312L80.6875 314.594L77.0938 318.188L74.2813 321.625L71.3125 325.531L69.125 329.438L67.4063 332.875L66.4688 336L65.8438 338.656L448.031 338.656C448.031 338.656 446.938 336 446.937 336Z" fill="#ff9900" fill-rule="nonzero" opacity="1" stroke="none" vectornator:layerName="path"/>
<path d="M372.563 271.312L407.094 316.469L405.844 317.406L365.531 281.156L210.688 309.281L210.531 307.875L354.438 274.75L275.219 247.875L276.156 246.625L372.563 271.312Z" fill="#ff9900" fill-rule="nonzero" opacity="1" stroke="none" vectornator:layerName="path"/>
</g>
</g>
</svg>
