<?xml version="1.0" encoding="UTF-8" standalone="no"?>
<!DOCTYPE svg PUBLIC "-//W3C//DTD SVG 1.1//EN" "http://www.w3.org/Graphics/SVG/1.1/DTD/svg11.dtd">
<!-- Created with Vectornator (http://vectornator.io/) -->
<svg height="100%" stroke-miterlimit="10" style="fill-rule:nonzero;clip-rule:evenodd;stroke-linecap:round;stroke-linejoin:round;" version="1.1" viewBox="0 0 512 512" width="100%" xml:space="preserve" xmlns="http://www.w3.org/2000/svg" xmlns:vectornator="http://vectornator.io" xmlns:xlink="http://www.w3.org/1999/xlink">
<defs/>
<g id="Ebene-1" vectornator:layerName="Ebene 1">
<path d="M2.84217e-14 95C2.84217e-14 42.5329 42.5329 0 95 0L417 0C469.467 0 512 42.5329 512 95L512 417C512 469.467 469.467 512 417 512L95 512C42.5329 512 2.84217e-14 469.467 2.84217e-14 417L2.84217e-14 95Z" fill="#0c0824" fill-rule="nonzero" opacity="1" stroke="none" vectornator:layerName="Rechteck 1"/>
<path d="M422.251 202.781C422.174 202.378 422.108 201.975 422 201.579C421.932 201.341 421.852 201.117 421.776 200.883C421.667 200.532 421.544 200.185 421.408 199.842C421.309 199.606 421.197 199.377 421.089 199.148C420.94 198.825 420.777 198.508 420.6 198.198C420.475 197.969 420.331 197.753 420.193 197.535C419.86 197.017 419.494 196.521 419.098 196.049C418.871 195.783 418.635 195.524 418.39 195.274C418.202 195.085 418.013 194.897 417.815 194.713C417.555 194.476 417.284 194.25 417.003 194.037C416.789 193.871 416.578 193.699 416.353 193.547C416.274 193.489 416.201 193.422 416.116 193.367L263.934 91.905C259.129 88.6983 252.867 88.6983 248.063 91.905L95.8693 193.365C95.7848 193.418 95.7185 193.486 95.6326 193.544C95.4089 193.7 95.1981 193.867 94.9822 194.033C94.7058 194.25 94.4352 194.474 94.1705 194.706C93.974 194.885 93.784 195.072 93.6008 195.265C93.3497 195.517 93.1169 195.772 92.8879 196.042C92.7188 196.243 92.5562 196.445 92.3988 196.67C92.1842 196.952 91.9865 197.24 91.7939 197.54C91.6548 197.76 91.5156 197.975 91.3855 198.203C91.2109 198.51 91.0495 198.825 90.9016 199.145C90.7936 199.374 90.6779 199.607 90.5829 199.84C90.4437 200.181 90.3227 200.531 90.2109 200.881C90.1354 201.115 90.0548 201.342 89.991 201.553C89.887 201.947 89.8115 202.347 89.74 202.755C89.701 202.962 89.6502 203.163 89.6229 203.374C89.5423 203.992 89.498 204.611 89.498 205.243L89.498 306.726C89.498 307.353 89.5423 307.982 89.632 308.596C89.6645 308.821 89.7231 308.999 89.7673 309.215C89.8389 309.618 89.9013 310.021 90.0366 310.426C90.099 310.65 90.1706 310.875 90.2603 311.12C90.3722 311.479 90.484 311.838 90.6193 312.166C90.713 312.39 90.8431 312.614 90.9328 312.839C91.0811 313.152 91.2476 313.466 91.4271 313.794C91.552 314.017 91.6951 314.242 91.8304 314.448C92.0229 314.763 92.2336 315.032 92.4574 315.3C92.6147 315.525 92.7721 315.703 92.9517 315.919C93.1793 316.188 93.3991 316.458 93.6684 316.696C93.8518 316.874 94.0274 317.099 94.2512 317.233C94.5113 317.458 94.7897 317.682 95.0576 317.914C95.2736 318.094 95.5077 318.229 95.6859 318.404C95.7718 318.448 95.8212 318.538 95.911 318.578L248.063 420.092C250.406 421.674 253.172 422.513 256 422.5C258.825 422.494 261.585 421.657 263.937 420.093L416.131 318.631C416.215 318.579 416.287 318.515 416.367 318.457C416.591 318.301 416.802 318.134 417.018 317.969C417.296 317.748 417.569 317.52 417.829 317.288C418.026 317.112 418.215 316.919 418.403 316.731C418.835 316.295 419.235 315.829 419.6 315.336C419.816 315.054 420.014 314.763 420.206 314.466C420.345 314.251 420.484 314.032 420.615 313.812C420.794 313.497 420.95 313.18 421.102 312.857C421.21 312.628 421.323 312.399 421.421 312.166C421.56 311.82 421.677 311.47 421.789 311.12C421.865 310.888 421.945 310.659 422.013 310.426C422.117 310.032 422.188 309.627 422.264 309.224C422.3 309.017 422.355 308.815 422.376 308.605C422.458 307.987 422.502 307.368 422.502 306.735L422.502 205.269C422.502 204.637 422.453 204.018 422.376 203.399C422.341 203.179 422.273 203.001 422.229 202.781L422.251 202.781ZM255.996 289.85L205.389 256.002L255.996 222.149L306.606 256.002L255.996 289.85ZM241.69 197.292L179.652 238.787L129.576 205.286L241.691 130.545L241.691 197.292L241.69 197.292ZM153.916 255.997L118.122 279.939L118.122 232.055L153.916 255.997ZM179.652 273.226L241.691 314.716L241.691 381.462L129.576 306.712L179.654 273.217L179.654 273.226L179.652 273.226ZM270.305 314.708L332.342 273.218L382.424 306.712L270.305 381.453L270.305 314.707L270.305 314.708ZM358.079 256.006L393.878 232.059L393.878 279.948L358.08 255.997L358.08 256.006L358.079 256.006ZM332.342 238.786L270.305 197.296L270.305 130.545L382.424 205.288L332.344 238.786L332.342 238.786Z" fill="#e3e3e3" fill-rule="nonzero" opacity="1" stroke="none" vectornator:layerName="path"/>
</g>
</svg>
