<?xml version="1.0" encoding="UTF-8" standalone="no"?>
<!DOCTYPE svg PUBLIC "-//W3C//DTD SVG 1.1//EN" "http://www.w3.org/Graphics/SVG/1.1/DTD/svg11.dtd">
<!-- Created with Vectornator (http://vectornator.io/) -->
<svg height="100%" stroke-miterlimit="10" style="fill-rule:nonzero;clip-rule:evenodd;stroke-linecap:round;stroke-linejoin:round;" version="1.1" viewBox="0 0 512 512" width="100%" xml:space="preserve" xmlns="http://www.w3.org/2000/svg" xmlns:vectornator="http://vectornator.io" xmlns:xlink="http://www.w3.org/1999/xlink">
<defs/>
<g id="Ebene-1" vectornator:layerName="Ebene 1">
<path d="M2.84217e-14 95C2.84217e-14 42.5329 42.5329 0 95 0L417 0C469.467 0 512 42.5329 512 95L512 417C512 469.467 469.467 512 417 512L95 512C42.5329 512 2.84217e-14 469.467 2.84217e-14 417L2.84217e-14 95Z" fill="#390091" fill-rule="nonzero" opacity="1" stroke="none" vectornator:layerName="Rechteck 1"/>
<g opacity="1" vectornator:layerName="c--4.svg">
<path d="M247.002 114.998C169.129 114.998 106 178.13 106 256C106 281.371 112.749 305.157 124.475 325.724C124.556 325.868 124.615 326.025 124.697 326.168C130.78 336.75 138.205 346.454 146.724 355.079C155.245 363.704 164.869 371.253 175.369 377.462C185.865 383.67 197.235 388.562 209.253 391.895C221.274 395.229 233.921 397.002 247.002 397.002L248.601 397.002C274.378 396.722 298.48 389.5 319.169 377.151C329.513 370.977 339.004 363.517 347.413 354.99C355.821 346.462 363.143 336.872 369.174 326.434L307.889 290.951C295.77 312.01 273.041 326.212 247.002 326.212C220.903 326.212 198.174 311.945 186.071 290.818C185.989 290.673 185.932 290.519 185.849 290.373C179.931 279.879 176.777 268.054 176.79 256C176.79 217.225 208.227 185.788 247.002 185.788L247.801 185.788C273.231 186.072 295.399 199.912 307.489 220.383L368.819 185.032C344.369 143.157 298.989 114.998 247.002 114.998Z" fill="#a179dc" fill-rule="nonzero" opacity="1" stroke="none" vectornator:layerName="path"/>
<path d="M345.992 215.453L345.992 235.438L326.008 235.438L326.008 245.43L345.992 245.43L345.992 265.415L326.008 265.415L326.008 275.407L345.992 275.407L345.992 295.437L355.984 295.437L355.984 275.407L376.014 275.407L376.014 295.437L386.006 295.437L386.006 275.407L405.991 275.407L405.991 265.415L386.006 265.415L386.006 245.43L405.991 245.43L405.991 235.438L386.006 235.438L386.006 215.453L376.014 215.453L376.014 235.438L355.984 235.438L355.984 215.453L345.992 215.453Z" fill="#a179dc" fill-rule="nonzero" opacity="1" stroke="none" vectornator:layerName="path"/>
<path d="M185.849 290.373L124.475 325.724C124.556 325.868 124.615 326.025 124.697 326.168C130.78 336.75 138.205 346.454 146.724 355.079C155.245 363.704 164.869 371.253 175.369 377.462C185.865 383.67 197.235 388.562 209.253 391.895C221.274 395.229 233.921 397.002 247.002 397.002L248.601 397.002C274.378 396.722 298.48 389.5 319.169 377.151C329.513 370.977 339.005 363.517 347.413 354.99C355.821 346.462 363.143 336.872 369.174 326.434L307.889 290.951C295.77 312.01 273.041 326.212 247.002 326.212C220.903 326.212 198.174 311.945 186.071 290.818C185.989 290.673 185.932 290.518 185.849 290.373Z" fill="#280068" fill-rule="nonzero" opacity="1" stroke="none" vectornator:layerName="path"/>
<path d="M345.992 215.453L345.992 235.438L326.008 235.438L326.008 245.43L345.992 245.43L345.992 265.415L326.008 265.415L326.008 275.407L345.992 275.407L345.992 295.437L355.984 295.437L355.984 275.407L376.014 275.407L376.014 295.437L386.006 295.437L386.006 275.407L405.991 275.407L405.991 265.415L386.006 265.415L386.006 245.43L405.991 245.43L405.991 235.438L386.006 235.438L386.006 215.453L376.014 215.453L376.014 235.438L355.984 235.438L355.984 215.453L345.992 215.453Z" fill="#390091" fill-rule="nonzero" opacity="1" stroke="none" vectornator:layerName="path"/>
<g opacity="1" vectornator:layerName="g">
<path d="M356.005 215.434L356.005 235.432L376.003 235.432L376.003 215.434L386.001 215.434L386.001 235.432L406 235.432L406 245.431L386.001 245.431L386.001 265.428L406 265.428L406 275.427L386.001 275.427L386.001 295.425L376.003 295.425L376.003 275.427L356.005 275.427L356.005 295.425L346.006 295.425L346.006 275.427L326.011 275.427L326.011 265.428L346.006 265.428L346.006 245.431L326.011 245.431L326.011 235.432L346.006 235.432L346.006 215.434L356.005 215.434ZM376.003 245.429L356.005 245.429L356.005 265.428L376.003 265.428L376.003 245.429Z" fill="#ffffff" fill-rule="nonzero" opacity="1" stroke="none" vectornator:layerName="path"/>
<path d="M247.015 115.002C299.174 115.002 344.714 143.329 369.106 185.435L368.869 185.031L307.497 220.365C295.408 199.894 273.243 186.078 247.813 185.794L247.013 185.788C208.238 185.788 176.802 217.223 176.802 255.998C176.79 268.219 179.982 280.23 186.062 290.831C198.164 311.96 220.915 326.209 247.015 326.209C273.274 326.209 296.154 311.779 308.194 290.426L307.901 290.937L369.179 326.437C345.053 368.186 300.137 396.427 248.585 396.989L247.015 396.998C194.688 396.998 149.019 368.495 124.688 326.167C112.81 305.502 106.015 281.546 106.015 255.998C106.015 178.128 169.139 115 247.013 115L247.015 115.002Z" fill="#ffffff" fill-rule="nonzero" opacity="1" stroke="none" vectornator:layerName="path"/>
</g>
</g>
</g>
</svg>
