<?xml version="1.0" encoding="UTF-8" standalone="no"?>
<!DOCTYPE svg PUBLIC "-//W3C//DTD SVG 1.1//EN" "http://www.w3.org/Graphics/SVG/1.1/DTD/svg11.dtd">
<!-- Created with Vectornator (http://vectornator.io/) -->
<svg height="100%" stroke-miterlimit="10" style="fill-rule:nonzero;clip-rule:evenodd;stroke-linecap:round;stroke-linejoin:round;" version="1.1" viewBox="0 0 512 512" width="100%" xml:space="preserve" xmlns="http://www.w3.org/2000/svg" xmlns:vectornator="http://vectornator.io" xmlns:xlink="http://www.w3.org/1999/xlink">
<defs/>
<g id="Ebene-1" vectornator:layerName="Ebene 1">
<path d="M2.84217e-14 95C2.84217e-14 42.5329 42.5329 0 95 0L417 0C469.467 0 512 42.5329 512 95L512 417C512 469.467 469.467 512 417 512L95 512C42.5329 512 2.84217e-14 469.467 2.84217e-14 417L2.84217e-14 95Z" fill="#242628" fill-rule="nonzero" opacity="1" stroke="none" vectornator:layerName="Rechteck 1"/>
<g opacity="1" vectornator:layerName="g">
<path d="M287.372 267.332C280.744 267.424 288.626 270.747 297.278 272.079C299.531 270.321 301.698 268.455 303.77 266.487C298.382 267.808 292.897 267.838 287.372 267.333M322.946 258.465C326.893 253.018 329.77 247.054 330.785 240.886C329.899 245.283 327.512 249.078 325.266 253.084C312.877 260.884 324.101 248.451 325.259 243.727C311.937 260.494 323.428 253.782 322.946 258.466M336.076 224.295C336.878 212.361 333.728 216.134 332.668 220.689C333.905 221.33 334.882 229.102 336.076 224.297M262.24 61.1601C265.776 61.795 269.881 62.2809 269.306 63.1254C273.176 62.2772 274.053 61.4958 262.24 61.1601M269.306 63.1254L266.806 63.6429L269.133 63.4359L269.306 63.1254" fill="#a80030" fill-rule="nonzero" opacity="1" stroke="none" vectornator:layerName="path"/>
<path d="M379.603 228.822C379.997 239.541 376.468 244.741 373.285 253.947L367.556 256.81C362.868 265.912 368.011 262.59 364.653 269.83C357.336 276.335 342.447 290.19 337.682 291.455C334.203 291.376 340.038 287.349 340.802 285.771C331.006 292.499 332.942 295.869 317.959 299.956L317.521 298.983C280.57 316.365 229.243 281.917 229.918 234.911C229.523 237.895 228.796 237.15 227.978 238.357C226.071 214.172 239.147 189.88 261.199 179.963C282.769 169.284 308.057 173.667 323.507 188.066C315.019 176.949 298.127 165.164 278.106 166.267C258.496 166.577 240.15 179.041 234.027 192.569C223.98 198.895 222.815 216.953 218.436 220.258C212.546 263.548 229.516 282.252 258.222 304.253C262.741 307.3 259.495 307.762 260.108 310.08C250.569 305.613 241.835 298.872 234.654 290.617C238.464 296.194 242.576 301.616 247.892 305.876C238.899 302.829 226.887 284.084 223.379 283.322C238.88 311.076 286.273 331.997 311.087 321.619C299.606 322.041 285.018 321.853 272.117 317.085C266.698 314.296 259.33 308.52 260.645 307.44C294.511 320.091 329.496 317.021 358.8 293.53C366.255 287.725 374.399 277.848 376.752 277.711C373.208 283.041 377.358 280.274 374.635 284.982C382.063 273.002 371.408 280.105 382.313 264.294L386.341 269.84C384.844 259.896 398.69 247.821 397.285 232.094C400.461 227.284 400.829 237.269 397.458 248.334C402.136 236.058 398.69 234.085 399.893 223.957C401.192 227.361 402.896 230.98 403.769 234.573C400.722 222.71 406.897 214.596 408.424 207.702C406.918 207.036 403.721 212.948 402.99 198.936C403.098 192.849 404.684 195.745 405.296 194.248C404.101 193.561 400.967 188.896 399.06 179.946C400.442 177.845 402.754 185.399 404.636 185.709C403.426 178.593 401.342 173.168 401.257 167.709C395.761 156.224 399.313 169.24 394.854 162.779C389.005 144.532 399.708 158.544 400.432 150.252C409.298 163.099 414.354 183.009 416.674 191.256C414.905 181.201 412.042 171.46 408.549 162.036C411.242 163.169 404.212 141.348 412.049 155.801C403.677 124.994 376.217 96.2102 350.955 82.7041C354.047 85.5315 357.948 89.0848 356.547 89.6414C343.984 82.1613 346.194 81.5782 344.394 78.4175C334.159 74.2534 333.488 78.7533 326.708 78.4251C307.418 68.1933 303.701 69.2814 285.948 62.8717L286.756 66.6458C273.976 62.3882 271.865 68.2602 258.053 66.6584C257.212 66.0021 262.479 64.2841 266.813 63.6543C254.457 65.2826 255.036 61.2181 242.945 64.1036C245.925 62.0121 249.076 60.6287 252.255 58.8514C242.179 59.4636 228.199 64.7158 232.514 59.9395C216.079 67.2719 186.89 77.5655 170.51 92.9245L169.992 89.4824C162.488 98.4948 137.262 116.394 135.252 128.063L133.245 128.531C129.34 135.145 126.813 142.639 123.715 149.444C118.607 158.149 116.228 152.794 116.955 154.159C106.907 174.529 101.916 191.647 97.6048 205.685C100.678 210.277 97.6793 233.328 98.8418 251.778C93.7953 342.896 162.79 431.365 238.206 451.792C249.26 455.745 265.698 455.594 279.681 456C263.184 451.282 261.051 453.499 244.982 447.896C233.388 442.437 230.847 436.204 222.638 429.079L225.887 434.822C209.783 429.123 216.521 427.769 203.421 423.62L206.893 419.087C201.673 418.692 193.067 410.289 190.714 405.639L185.005 405.864C178.145 397.399 174.489 391.297 174.756 386.574L172.91 389.859C170.819 386.271 147.672 358.114 159.681 364.669C157.449 362.629 154.484 361.349 151.268 355.506L153.713 352.71C147.933 345.276 143.076 335.744 143.444 332.569C146.528 336.733 148.668 337.51 150.784 338.223C136.189 302.01 135.371 336.228 124.316 301.361L126.655 301.173C124.863 298.473 123.775 295.541 122.332 292.665L123.351 282.52C112.842 270.371 120.41 230.862 121.927 209.193C122.977 200.382 130.697 191.001 136.569 176.292L132.992 175.676C139.829 163.748 172.037 127.771 186.953 129.623C194.178 120.548 185.518 129.59 184.105 127.303C199.975 110.879 204.966 115.699 215.678 112.746C227.229 105.889 205.763 115.419 211.24 110.13C231.208 105.029 225.392 98.534 251.442 95.9451C254.191 97.509 245.067 98.361 242.776 100.389C259.413 92.2492 295.427 94.1009 318.819 104.908C345.962 117.593 376.457 155.088 377.66 190.368L379.028 190.736C378.334 204.76 381.174 220.977 376.253 235.874L379.603 228.822" fill="#a80030" fill-rule="nonzero" opacity="1" stroke="none" vectornator:layerName="path"/>
<path d="M215.028 276.431L214.099 281.079C218.453 286.995 221.911 293.405 227.472 298.031C223.471 290.218 220.498 286.991 215.028 276.431M225.326 276.026C223.02 273.476 221.656 270.409 220.13 267.351C221.59 272.724 224.58 277.343 227.366 282.038L225.326 276.026M407.546 236.421L406.573 238.862C404.788 251.542 400.933 264.09 395.023 275.723C401.553 263.448 405.776 250.024 407.546 236.421M263.549 57.9817C268.03 56.3395 274.565 57.0805 279.32 56C273.123 56.52 266.957 56.8293 260.866 57.6157L263.549 57.9817M106.221 141.64C107.254 151.2 99.0286 154.911 108.043 148.607C112.875 137.723 106.155 145.602 106.221 141.64M95.6281 185.885C97.7045 179.512 98.0807 175.684 98.8746 171.996C93.1352 179.332 96.234 180.894 95.6281 185.885" fill="#a80030" fill-rule="nonzero" opacity="1" stroke="none" vectornator:layerName="path"/>
</g>
</g>
</svg>
