<?xml version="1.0" encoding="UTF-8" standalone="no"?>
<!DOCTYPE svg PUBLIC "-//W3C//DTD SVG 1.1//EN" "http://www.w3.org/Graphics/SVG/1.1/DTD/svg11.dtd">
<!-- Created with Vectornator (http://vectornator.io/) -->
<svg height="100%" stroke-miterlimit="10" style="fill-rule:nonzero;clip-rule:evenodd;stroke-linecap:round;stroke-linejoin:round;" version="1.1" viewBox="0 0 512 512" width="100%" xml:space="preserve" xmlns="http://www.w3.org/2000/svg" xmlns:vectornator="http://vectornator.io" xmlns:xlink="http://www.w3.org/1999/xlink">
<defs>
<linearGradient gradientTransform="matrix(1.57185 0 0 1.57185 55.8609 176.381)" gradientUnits="userSpaceOnUse" id="LinearGradient" x1="122.742" x2="122.742" y1="33.3854" y2="154.689">
<stop offset="0" stop-color="#0994dc"/>
<stop offset="0.35" stop-color="#66cef5"/>
<stop offset="0.846" stop-color="#127bca"/>
<stop offset="1" stop-color="#127bca"/>
</linearGradient>
<linearGradient gradientTransform="matrix(1.57185 0 0 1.57185 55.8609 176.381)" gradientUnits="userSpaceOnUse" id="LinearGradient_2" x1="127.368" x2="127.368" y1="30.315" y2="154.708">
<stop offset="0" stop-color="#0e76bc"/>
<stop offset="0.36" stop-color="#36aee8"/>
<stop offset="0.846" stop-color="#00adef"/>
<stop offset="1" stop-color="#00adef"/>
</linearGradient>
<linearGradient gradientTransform="matrix(1.57185 0 0 1.57185 55.8609 176.381)" gradientUnits="userSpaceOnUse" id="LinearGradient_3" x1="152.369" x2="152.369" y1="127.799" y2="28.8189">
<stop offset="0" stop-color="#1c63b7"/>
<stop offset="0.5" stop-color="#33bdf2"/>
<stop offset="1" stop-color="#33bdf2" stop-opacity="0.42"/>
</linearGradient>
<linearGradient gradientTransform="matrix(1.57185 0 0 1.57185 55.8609 176.381)" gradientUnits="userSpaceOnUse" id="LinearGradient_4" x1="145.864" x2="145.864" y1="17.7101" y2="146.864">
<stop offset="0" stop-color="#166ab8"/>
<stop offset="0.4" stop-color="#36aee8"/>
<stop offset="0.846" stop-color="#0798dd"/>
<stop offset="1" stop-color="#0798dd"/>
</linearGradient>
<linearGradient gradientTransform="matrix(1.57185 0 0 1.57185 55.8609 176.381)" gradientUnits="userSpaceOnUse" id="LinearGradient_5" x1="135.683" x2="135.683" y1="18.3884" y2="155.727">
<stop offset="0" stop-color="#124379"/>
<stop offset="0.39" stop-color="#1487cb"/>
<stop offset="0.78" stop-color="#165197"/>
<stop offset="1" stop-color="#165197"/>
</linearGradient>
<linearGradient gradientTransform="matrix(1.57185 0 0 1.57185 55.8609 176.381)" gradientUnits="userSpaceOnUse" id="LinearGradient_6" x1="80.5219" x2="99.9409" y1="60.5485" y2="60.5485">
<stop offset="0" stop-color="#33bdf2" stop-opacity="0.698"/>
<stop offset="1" stop-color="#1dacd8"/>
</linearGradient>
<linearGradient gradientTransform="matrix(1.57185 0 0 1.57185 55.8609 176.381)" gradientUnits="userSpaceOnUse" id="LinearGradient_7" x1="226.354" x2="226.354" y1="125.318" y2="28.8977">
<stop offset="0" stop-color="#136ab4"/>
<stop offset="0.6" stop-color="#59caf5" stop-opacity="0.549"/>
<stop offset="1" stop-color="#59caf5" stop-opacity="0.235"/>
</linearGradient>
<linearGradient gradientTransform="matrix(1.57185 0 0 1.57185 55.8609 176.381)" gradientUnits="userSpaceOnUse" id="LinearGradient_8" x1="11.6171" x2="83.6391" y1="83.5882" y2="83.5882">
<stop offset="0" stop-color="#05a1e6" stop-opacity="0.247"/>
<stop offset="1" stop-color="#05a1e6"/>
</linearGradient>
<linearGradient gradientTransform="matrix(1.57185 0 0 1.57185 55.8609 176.381)" gradientUnits="userSpaceOnUse" id="LinearGradient_9" x1="51.5054" x2="51.5054" y1="127.747" y2="29.0199">
<stop offset="0" stop-color="#318ed5"/>
<stop offset="1" stop-color="#38a7e4"/>
</linearGradient>
<linearGradient gradientTransform="matrix(1.57185 0 0 1.57185 55.8609 176.381)" gradientUnits="userSpaceOnUse" id="LinearGradient_10" x1="57.7204" x2="57.7204" y1="128.093" y2="32.127">
<stop offset="0" stop-color="#05a1e6"/>
<stop offset="1" stop-color="#05a1e6" stop-opacity="0.549"/>
</linearGradient>
<linearGradient gradientTransform="matrix(1.57185 0 0 1.57185 55.8609 176.381)" gradientUnits="userSpaceOnUse" id="LinearGradient_11" x1="62.8799" x2="62.8799" y1="132.99" y2="51.8958">
<stop offset="0" stop-color="#1959a6"/>
<stop offset="0.5" stop-color="#05a1e6"/>
<stop offset="0.918" stop-color="#7ec5ea"/>
<stop offset="1" stop-color="#7ec5ea"/>
</linearGradient>
<linearGradient gradientTransform="matrix(1.57185 0 0 1.57185 55.8609 176.381)" gradientUnits="userSpaceOnUse" id="LinearGradient_12" x1="65.9876" x2="50.4834" y1="127.811" y2="39.8815">
<stop offset="0" stop-color="#165096"/>
<stop offset="1" stop-color="#0d82ca"/>
</linearGradient>
<linearGradient gradientTransform="matrix(1.57185 0 0 1.57185 55.8609 176.381)" gradientUnits="userSpaceOnUse" id="LinearGradient_13" x1="209.844" x2="209.844" y1="78.0836" y2="32.1328">
<stop offset="0" stop-color="#05a1e6"/>
<stop offset="0.874" stop-color="#0495d6"/>
<stop offset="1" stop-color="#0495d6"/>
</linearGradient>
<linearGradient gradientTransform="matrix(1.57185 0 0 1.57185 55.8609 176.381)" gradientUnits="userSpaceOnUse" id="LinearGradient_14" x1="231.442" x2="212.758" y1="27.8857" y2="133.846">
<stop offset="0" stop-color="#38a7e4" stop-opacity="0.329"/>
<stop offset="0.962" stop-color="#0e88d3"/>
<stop offset="1" stop-color="#0e88d3"/>
</linearGradient>
<linearGradient gradientTransform="matrix(1.57185 0 0 1.57185 55.8609 176.381)" gradientUnits="userSpaceOnUse" id="LinearGradient_15" x1="214.716" x2="214.716" y1="31.6033" y2="131.851">
<stop offset="0" stop-color="#168cd4"/>
<stop offset="0.5" stop-color="#1c87cc"/>
<stop offset="1" stop-color="#154b8d"/>
</linearGradient>
<linearGradient gradientTransform="matrix(1.57185 0 0 -1.57185 55.8609 189.806)" gradientUnits="userSpaceOnUse" id="LinearGradient_16" x1="86.8502" x2="109.942" y1="42.7652" y2="33.1857">
<stop offset="0" stop-color="#97d6ee"/>
<stop offset="0.703" stop-color="#55c1ea"/>
<stop offset="1" stop-color="#55c1ea"/>
</linearGradient>
<linearGradient gradientTransform="matrix(1.57185 0 0 -1.57185 55.8609 194.891)" gradientUnits="userSpaceOnUse" id="LinearGradient_17" x1="100.202" x2="118.439" y1="34.5002" y2="42.7679">
<stop offset="0" stop-color="#7accec"/>
<stop offset="1" stop-color="#3fb7ed"/>
</linearGradient>
<linearGradient gradientTransform="matrix(1.57185 0 0 1.57185 55.8609 176.381)" gradientUnits="userSpaceOnUse" id="LinearGradient_18" x1="201.145" x2="201.145" y1="37.1475" y2="135.198">
<stop offset="0" stop-color="#1da7e7"/>
<stop offset="1" stop-color="#37abe7" stop-opacity="0"/>
</linearGradient>
</defs>
<g id="Ebene-1" vectornator:layerName="Ebene 1">
<path d="M2.84217e-14 95C2.84217e-14 42.5329 42.5329 0 95 0L417 0C469.467 0 512 42.5329 512 95L512 417C512 469.467 469.467 512 417 512L95 512C42.5329 512 2.84217e-14 469.467 2.84217e-14 417L2.84217e-14 95Z" fill="#363636" fill-rule="nonzero" opacity="1" stroke="none" vectornator:layerName="Rechteck 1"/>
</g>
<g id="Ebene-2" vectornator:layerName="Ebene 2">
<g opacity="1" vectornator:layerName="netframework-1.svg">
<g opacity="1" vectornator:layerName="g">
<path d="M194.97 208.901C209.374 252.954 214.832 331.54 256.957 331.54C260.164 331.54 263.405 331.226 266.657 330.606C228.364 321.678 223.824 243.947 200.459 203.694C198.595 205.393 196.764 207.13 194.968 208.901" fill="url(#LinearGradient)" fill-rule="nonzero" opacity="1" stroke="none" vectornator:layerName="path"/>
<path d="M200.459 203.694C223.826 243.947 228.364 321.678 266.657 330.606C269.666 330.055 272.68 329.218 275.702 328.164C241.33 311.324 231.83 235.841 205.292 199.503C203.654 200.869 202.043 202.267 200.459 203.695" fill="url(#LinearGradient_2)" fill-rule="nonzero" opacity="1" stroke="none" vectornator:layerName="path"/>
<path d="M234.126 179.753C230.926 179.753 227.678 180.067 224.42 180.686C215.896 182.293 207.238 185.963 198.508 191.516C200.892 193.869 203.161 196.562 205.295 199.501C214.173 192.134 222.994 186.691 231.781 183.418C234.988 182.218 238.294 181.299 241.66 180.672C239.197 180.053 236.666 179.744 234.126 179.753" fill="#14559a" fill-rule="nonzero" opacity="1" stroke="none" vectornator:layerName="path"/>
<path d="M302.533 312.64C306.195 309.715 309.722 306.624 313.102 303.377C298.465 259.529 293.226 179.819 250.805 179.819C247.771 179.819 244.711 180.102 241.657 180.667C280.298 190.278 285.247 274.347 302.535 312.64" fill="url(#LinearGradient_3)" fill-rule="nonzero" opacity="1" stroke="none" vectornator:layerName="path"/>
<path d="M241.658 180.669C239.195 180.05 236.664 179.742 234.125 179.751L250.807 179.812C247.773 179.812 244.713 180.095 241.658 180.667" fill="#3092c4" fill-rule="nonzero" opacity="1" stroke="none" vectornator:layerName="path"/>
<path d="M301.793 321.955C300.134 320.374 298.559 318.638 297.01 316.787C289.873 321.839 282.765 325.671 275.702 328.164C278.223 329.402 280.893 330.312 283.646 330.87C285.874 331.322 288.142 331.546 290.416 331.54C298.341 331.54 304.61 330.602 309.944 328.043C307.007 326.455 304.312 324.396 301.793 321.955" fill="#1969bc" fill-rule="nonzero" opacity="1" stroke="none" vectornator:layerName="path"/>
<path d="M231.778 183.424C266.387 201.526 269.395 283.501 297.011 316.787C298.891 315.459 300.73 314.076 302.528 312.64C285.241 274.347 280.298 190.271 241.665 180.667C238.296 181.302 234.988 182.224 231.778 183.424" fill="url(#LinearGradient_4)" fill-rule="nonzero" opacity="1" stroke="none" vectornator:layerName="path"/>
<path d="M205.292 199.503C231.828 235.841 241.33 311.323 275.702 328.164C282.767 325.671 289.877 321.839 297.011 316.787C269.395 283.501 266.387 201.526 231.778 183.424C222.991 186.691 214.17 192.134 205.292 199.501" fill="url(#LinearGradient_5)" fill-rule="nonzero" opacity="1" stroke="none" vectornator:layerName="path"/>
<path d="M177.991 207.84C173.831 217.244 169.583 229.605 164.446 245.741C174.661 231.349 184.844 218.947 194.97 208.903C193.575 204.615 192.078 200.661 190.463 197.137C186.116 200.478 181.953 204.051 177.992 207.842" fill="url(#LinearGradient_6)" fill-rule="nonzero" opacity="1" stroke="none" vectornator:layerName="path"/>
<path d="M194.151 194.424C192.908 195.309 191.68 196.213 190.466 197.137C192.081 200.66 193.572 204.613 194.967 208.901C196.765 207.133 198.595 205.397 200.455 203.694C198.495 200.325 196.413 197.214 194.151 194.424" fill="#2b74b1" fill-rule="nonzero" opacity="1" stroke="none" vectornator:layerName="path"/>
<path d="M198.506 191.518C197.033 192.454 195.58 193.423 194.149 194.423C196.413 197.213 198.495 200.323 200.462 203.698C202.043 202.264 203.655 200.865 205.297 199.501C203.162 196.564 200.892 193.869 198.506 191.516" fill="#125a9e" fill-rule="nonzero" opacity="1" stroke="none" vectornator:layerName="path"/>
<path d="M434.578 176.398C415.004 251.886 374.12 312.517 339.843 327.804L339.78 327.804C339.156 328.087 338.538 328.344 337.928 328.594C337.843 328.646 337.766 328.653 337.702 328.682C337.522 328.755 337.356 328.811 337.175 328.884C337.09 328.934 337.015 328.951 336.938 328.981C336.649 329.085 336.366 329.171 336.083 329.284C335.96 329.336 335.845 329.368 335.729 329.409C335.59 329.462 335.448 329.508 335.305 329.547C335.176 329.597 335.041 329.635 334.893 329.692C334.77 329.742 334.641 329.764 334.527 329.814C334.275 329.886 334.046 329.948 333.794 330.034C333.69 330.034 333.594 330.091 333.486 330.119C333.33 330.169 333.156 330.206 332.989 330.253C332.875 330.303 332.779 330.32 332.656 330.345C332.483 330.396 332.29 330.443 332.115 330.484L331.46 330.628C333.03 331.207 334.691 331.499 336.364 331.49C368.867 331.49 401.637 273.243 455.861 176.381L434.57 176.381L434.578 176.398Z" fill="url(#LinearGradient_7)" fill-rule="nonzero" opacity="1" stroke="none" vectornator:layerName="path"/>
<path d="M157.388 182.816C157.409 182.816 157.435 182.766 157.446 182.766C157.473 182.766 157.513 182.766 157.525 182.716L157.566 182.716C157.745 182.653 157.912 182.582 158.093 182.514C158.14 182.514 158.163 182.514 158.196 182.464C158.242 182.464 158.286 182.412 158.331 182.406C158.523 182.345 158.717 182.272 158.897 182.206L158.927 182.206C159.358 182.077 159.757 181.917 160.174 181.768C160.233 181.768 160.29 181.717 160.361 181.717C160.534 181.661 160.714 181.6 160.895 181.559C160.978 181.507 161.062 181.507 161.139 181.48C161.324 181.425 161.505 181.362 161.678 181.321C161.757 181.321 161.826 181.269 161.884 181.265C162.481 181.1 163.074 180.946 163.671 180.803C163.754 180.803 163.825 180.751 163.915 180.746C164.088 180.696 164.249 180.667 164.437 180.642C164.514 180.592 164.603 180.592 164.693 180.565C164.866 180.515 165.034 180.509 165.221 180.468L165.342 180.468C165.703 180.394 166.07 180.334 166.43 180.267L166.648 180.267C166.821 180.216 166.975 180.21 167.15 180.179C167.244 180.179 167.341 180.128 167.432 180.128C167.593 180.128 167.753 180.076 167.913 180.056C167.998 180.056 168.08 180.056 168.178 180.004C168.556 179.954 168.948 179.933 169.347 179.902C168.198 179.786 167.044 179.726 165.889 179.721C129.287 179.721 78.8555 247.636 56.1391 335.588L60.5167 335.588C67.7865 322.623 74.3176 310.358 80.2906 298.844C96.1993 236.547 128.605 194.063 157.39 182.807" fill="url(#LinearGradient_8)" fill-rule="nonzero" opacity="1" stroke="none" vectornator:layerName="path"/>
<path d="M177.992 207.84C181.953 204.05 186.116 200.476 190.463 197.136C189.579 195.169 188.587 193.253 187.492 191.395C184.144 195.459 181.084 200.82 177.992 207.84" fill="#0d82ca" fill-rule="nonzero" opacity="1" stroke="none" vectornator:layerName="path"/>
<path d="M180.999 183.332C183.39 185.337 185.531 188.094 187.491 191.4C188.109 190.641 188.733 189.94 189.382 189.284C186.662 186.746 183.723 184.663 180.535 183.094C180.664 183.165 180.793 183.223 180.927 183.28C180.927 183.28 180.977 183.33 180.999 183.33" fill="#0d82ca" fill-rule="nonzero" opacity="1" stroke="none" vectornator:layerName="path"/>
<path d="M80.2875 298.852C113.664 234.536 129.477 193.832 157.388 182.813C128.609 194.077 96.1977 236.561 80.289 298.852" fill="url(#LinearGradient_9)" fill-rule="nonzero" opacity="1" stroke="none" vectornator:layerName="path"/>
<path d="M189.379 189.283C188.729 189.945 188.113 190.639 187.489 191.398C188.585 193.256 189.578 195.172 190.466 197.137C191.679 196.214 192.907 195.31 194.149 194.426C192.681 192.602 191.087 190.884 189.379 189.283" fill="#127bca" fill-rule="nonzero" opacity="1" stroke="none" vectornator:layerName="path"/>
<path d="M95.4401 335.306C95.2342 335.358 95.0283 335.358 94.8349 335.378L94.7202 335.378C94.5457 335.378 94.365 335.43 94.2046 335.43L94.1213 335.43C93.7032 335.481 93.2914 335.481 92.8937 335.512L92.7648 335.512C126.545 334.567 141.986 317.654 149.65 293.124C155.474 274.527 160.255 258.861 164.448 245.715C150.298 265.631 136.085 289.37 121.795 315.965C114.904 328.781 104.426 334.135 95.4385 335.283" fill="url(#LinearGradient_10)" fill-rule="nonzero" opacity="1" stroke="none" vectornator:layerName="path"/>
<path d="M95.4401 335.294C104.426 334.149 114.904 328.802 121.795 315.976C136.085 289.389 150.306 265.643 164.44 245.728C169.583 229.585 173.827 217.23 177.992 207.826C149.817 234.645 121.531 279.238 95.4385 335.281" fill="url(#LinearGradient_11)" fill-rule="nonzero" opacity="1" stroke="none" vectornator:layerName="path"/>
<path d="M80.2875 298.853C74.3144 310.366 67.7834 322.631 60.5136 335.597L73.2471 335.597C74.8552 323.221 77.2063 310.953 80.2875 298.86" fill="#05a1e6" fill-rule="nonzero" opacity="1" stroke="none" vectornator:layerName="path"/>
<path d="M168.176 180.037C168.072 180.037 167.995 180.087 167.906 180.087C167.752 180.139 167.591 180.139 167.429 180.155C167.335 180.155 167.244 180.155 167.146 180.207C166.973 180.257 166.813 180.262 166.645 180.295C166.568 180.295 166.491 180.295 166.426 180.345C166.06 180.407 165.7 180.474 165.342 180.535L165.219 180.535C165.032 180.587 164.864 180.614 164.691 180.639C164.602 180.689 164.512 180.689 164.427 180.71C164.254 180.762 164.081 180.782 163.913 180.814C163.823 180.864 163.753 180.864 163.669 180.869C163.072 181.013 162.48 181.167 161.882 181.332C161.819 181.332 161.753 181.383 161.676 181.394C161.497 181.444 161.323 181.496 161.136 181.552C161.059 181.604 160.969 181.604 160.892 181.625C160.713 181.674 160.535 181.727 160.358 181.783C160.288 181.783 160.23 181.834 160.166 181.834C159.754 181.988 159.348 182.143 158.924 182.271C158.745 182.327 158.552 182.4 158.358 182.467C158.281 182.518 158.212 182.53 158.122 182.565C157.942 182.621 157.761 182.694 157.594 182.76C157.531 182.811 157.465 182.816 157.421 182.843C129.51 193.862 113.696 234.565 80.3205 298.88C77.2365 310.973 74.886 323.242 73.2817 335.619L75.0689 335.619C80.102 335.619 81.5229 335.567 87.3136 335.567L92.9267 335.567C93.3244 335.517 93.7362 335.517 94.1528 335.484L94.2314 335.484C94.4043 335.484 94.5772 335.434 94.7453 335.434L94.868 335.434C95.0534 335.434 95.2656 335.383 95.4715 335.361C121.564 279.318 149.848 234.725 178.025 207.906C181.122 200.888 184.176 195.526 187.519 191.469C185.564 188.165 183.423 185.402 181.032 183.396C178.641 181.391 180.968 183.396 180.963 183.344C180.826 183.289 180.699 183.222 180.564 183.156C180.429 183.082 180.312 183.025 180.171 182.954C180.039 182.899 179.911 182.837 179.786 182.769C179.619 182.717 179.484 182.645 179.336 182.579C179.213 182.527 179.105 182.475 178.982 182.425C178.733 182.328 178.487 182.225 178.244 182.115C178.134 182.065 178.031 182.037 177.929 181.997C177.742 181.929 177.557 181.856 177.374 181.777C177.285 181.725 177.183 181.714 177.079 181.678C176.816 181.59 176.559 181.497 176.315 181.416L176.251 181.416C175.955 181.318 175.666 181.246 175.364 181.164C175.293 181.112 175.235 181.112 175.164 181.101C174.9 181.031 174.669 180.96 174.419 180.892C174.356 180.892 174.297 180.84 174.246 180.84C173.632 180.683 173.011 180.548 172.387 180.435C172.324 180.435 172.26 180.383 172.195 180.383C171.929 180.33 171.661 180.287 171.392 180.254C171.326 180.204 171.288 180.204 171.232 180.204C170.915 180.155 170.597 180.114 170.279 180.08L170.112 180.08C169.855 180.029 169.617 180.025 169.38 179.998C168.974 180.048 168.589 180.07 168.209 180.106" fill="url(#LinearGradient_12)" fill-rule="nonzero" opacity="1" stroke="none" vectornator:layerName="path"/>
<path d="M358.118 218.189C351.697 238.76 346.496 255.73 341.971 269.692C359.591 245.445 376.948 214.942 393.476 179.742C374.197 185.796 363.911 199.657 358.118 218.189" fill="url(#LinearGradient_13)" fill-rule="nonzero" opacity="1" stroke="none" vectornator:layerName="path"/>
<path d="M342.53 326.518C341.631 326.977 340.731 327.412 339.843 327.804C374.12 312.517 415.004 251.886 434.578 176.398L430.611 176.398C385.64 256.732 371.176 310.512 342.53 326.518" fill="url(#LinearGradient_14)" fill-rule="nonzero" opacity="1" stroke="none" vectornator:layerName="path"/>
<path d="M320.149 319.77C327.606 310.667 333.681 295.194 341.974 269.692C332.408 282.833 322.779 294.127 313.142 303.339C313.142 303.39 313.142 303.39 313.091 303.421C315.194 309.721 317.502 315.281 320.13 319.768" fill="#079ae1" fill-rule="nonzero" opacity="1" stroke="none" vectornator:layerName="path"/>
<path d="M320.149 319.77C317.61 322.867 314.922 325.227 311.934 326.975C311.277 327.356 310.616 327.714 309.941 328.044C313.185 329.801 316.734 330.919 320.399 331.34C320.965 331.397 321.524 331.449 322.109 331.49L322.213 331.49C322.475 331.49 322.753 331.49 323.036 331.54L325.825 331.54C325.927 331.54 326.034 331.54 326.138 331.49C326.337 331.49 326.549 331.49 326.754 331.438L327.059 331.438C327.269 331.438 327.5 331.388 327.727 331.366L327.779 331.366C327.845 331.366 327.917 331.315 327.983 331.315C328.219 331.263 328.467 331.243 328.698 331.207L328.909 331.207C329.17 331.156 329.442 331.123 329.71 331.073L329.841 331.073C330.38 330.969 330.907 330.869 331.441 330.734C327.018 329.115 323.315 325.295 320.127 319.856" fill="#1969bc" fill-rule="nonzero" opacity="1" stroke="none" vectornator:layerName="path"/>
<path d="M256.957 331.54C260.165 331.54 263.405 331.226 266.659 330.602C269.667 330.056 272.682 329.218 275.703 328.165C278.223 329.403 280.89 330.312 283.641 330.872C285.871 331.323 288.142 331.546 290.417 331.54L256.957 331.54Z" fill="#1e5cb3" fill-rule="nonzero" opacity="1" stroke="none" vectornator:layerName="path"/>
<path d="M290.417 331.54C298.338 331.54 304.611 330.602 309.94 328.043C313.183 329.8 316.734 330.92 320.399 331.342C320.965 331.397 321.524 331.449 322.109 331.49L322.213 331.49C322.475 331.49 322.753 331.49 323.036 331.542L323.997 331.542L290.395 331.542L290.417 331.54Z" fill="#1e5cb3" fill-rule="nonzero" opacity="1" stroke="none" vectornator:layerName="path"/>
<path d="M324.016 331.54L325.848 331.54C325.958 331.54 326.059 331.54 326.163 331.49C326.362 331.49 326.575 331.49 326.787 331.438L327.09 331.438C327.301 331.438 327.532 331.388 327.752 331.367L327.808 331.367C327.876 331.367 327.942 331.317 328.01 331.317C328.245 331.265 328.492 331.245 328.723 331.207C328.8 331.207 328.862 331.207 328.943 331.156C329.206 331.106 329.478 331.079 329.748 331.029L329.877 331.029C330.416 330.925 330.943 330.823 331.477 330.69C333.047 331.268 334.708 331.56 336.381 331.551L324.027 331.601L324.016 331.54Z" fill="#1d60b5" fill-rule="nonzero" opacity="1" stroke="none" vectornator:layerName="path"/>
<path d="M313.112 303.423L313.112 303.371C309.732 306.617 306.206 309.708 302.544 312.634C300.743 314.068 298.902 315.451 297.022 316.78C298.57 318.632 300.147 320.367 301.805 321.95C304.325 324.391 307.018 326.449 309.955 328.036C310.625 327.706 311.293 327.348 311.942 326.969C314.938 325.221 317.624 322.862 320.163 319.764C317.535 315.276 315.227 309.716 313.124 303.416" fill="#175fab" fill-rule="nonzero" opacity="1" stroke="none" vectornator:layerName="path"/>
<path d="M418.05 176.398L398.086 176.398C397.008 176.45 395.959 176.486 394.925 176.552C394.436 177.601 393.935 178.649 393.452 179.704C376.926 214.904 359.569 245.407 341.949 269.655C333.662 295.155 327.582 310.628 320.125 319.731C323.313 325.169 327.023 328.994 331.432 330.614C331.56 330.562 331.664 330.562 331.779 330.536L331.851 330.536C331.928 330.536 332.012 330.485 332.095 330.485C332.274 330.433 332.467 330.402 332.648 330.347C332.763 330.295 332.859 330.29 332.975 330.253C333.143 330.202 333.316 330.166 333.47 330.125C333.574 330.073 333.676 330.058 333.778 330.037C334.036 329.954 334.267 329.893 334.512 329.816C334.627 329.765 334.75 329.721 334.879 329.692C335.02 329.641 335.162 329.605 335.29 329.544C335.438 329.492 335.586 329.465 335.715 329.41C335.83 329.358 335.951 329.327 336.061 329.281C336.35 329.178 336.633 329.091 336.922 328.978C337.001 328.978 337.078 328.906 337.161 328.89C337.334 328.818 337.515 328.761 337.688 328.684C337.75 328.632 337.829 328.627 337.912 328.601C338.517 328.349 339.14 328.091 339.764 327.81L339.828 327.81C340.734 327.407 341.628 326.978 342.51 326.524C371.16 310.518 385.626 256.739 430.597 176.405L418.036 176.405L418.05 176.398Z" fill="url(#LinearGradient_15)" fill-rule="nonzero" opacity="1" stroke="none" vectornator:layerName="path"/>
<path d="M169.349 179.929C169.419 179.929 169.482 179.929 169.553 179.979C169.726 179.979 169.899 179.979 170.073 180.036L170.246 180.036C170.562 180.086 170.878 180.114 171.199 180.16C171.257 180.16 171.309 180.16 171.359 180.21C171.623 180.26 171.893 180.304 172.162 180.344C172.222 180.344 172.297 180.396 172.362 180.396C172.98 180.518 173.61 180.647 174.213 180.806C174.272 180.806 174.33 180.858 174.38 180.858C174.638 180.919 174.869 180.996 175.127 181.068C175.205 181.068 175.262 181.119 175.331 181.131C175.634 181.208 175.917 181.285 176.213 181.383C176.225 181.383 176.244 181.383 176.277 181.433C176.529 181.51 176.785 181.607 177.049 181.695C177.153 181.746 177.249 181.768 177.345 181.793C177.525 181.871 177.725 181.947 177.898 182.019C178.002 182.019 178.102 182.092 178.212 182.129C178.45 182.236 178.699 182.334 178.945 182.436C179.074 182.488 179.182 182.546 179.306 182.591C179.448 182.664 179.594 182.73 179.748 182.78C179.877 182.843 180.018 182.909 180.141 182.966C180.276 183.039 180.403 183.094 180.534 183.167C183.722 184.735 186.659 186.824 189.379 189.358C190.352 188.333 191.401 187.381 192.514 186.51C186.568 182.291 179.833 179.886 172.06 179.886C171.161 179.886 170.26 179.938 169.347 180.006" fill="#7dcbec" fill-rule="nonzero" opacity="1" stroke="none" vectornator:layerName="path"/>
<path d="M189.379 189.283C191.087 190.884 192.681 192.602 194.149 194.426C195.579 193.423 197.031 192.453 198.506 191.518C196.656 189.655 194.649 187.954 192.508 186.433C191.394 187.302 190.348 188.254 189.377 189.281" fill="#5ec5ed" fill-rule="nonzero" opacity="1" stroke="none" vectornator:layerName="path"/>
<path d="M169.345 179.927C170.257 179.85 171.158 179.817 172.058 179.817C179.83 179.817 186.567 182.222 192.513 186.435C198.788 181.483 206.372 179.754 216.908 179.754L165.886 179.754C167.065 179.754 168.214 179.825 169.345 179.927" fill="url(#LinearGradient_16)" fill-rule="nonzero" opacity="1" stroke="none" vectornator:layerName="path"/>
<path d="M216.908 179.754C206.372 179.754 198.788 181.483 192.513 186.435C194.651 187.956 196.655 189.657 198.505 191.518C207.24 185.965 215.893 182.286 224.425 180.68C227.622 180.072 230.869 179.762 234.123 179.754L216.908 179.754Z" fill="url(#LinearGradient_17)" fill-rule="nonzero" opacity="1" stroke="none" vectornator:layerName="path"/>
<path d="M341.971 269.705C346.502 255.731 351.691 238.766 358.125 218.189C363.925 199.649 374.189 185.79 393.468 179.742C393.977 178.706 394.458 177.638 394.953 176.592C363.526 178.475 348.837 194.462 341.444 218.137C328.517 259.471 320.686 286.264 313.146 303.338C322.777 294.133 332.406 282.832 341.971 269.705" fill="url(#LinearGradient_18)" fill-rule="nonzero" opacity="1" stroke="none" vectornator:layerName="path"/>
</g>
</g>
</g>
</svg>
