<?xml version="1.0" encoding="UTF-8" standalone="no"?>
<!DOCTYPE svg PUBLIC "-//W3C//DTD SVG 1.1//EN" "http://www.w3.org/Graphics/SVG/1.1/DTD/svg11.dtd">
<!-- Created with Vectornator (http://vectornator.io/) -->
<svg height="100%" stroke-miterlimit="10" style="fill-rule:nonzero;clip-rule:evenodd;stroke-linecap:round;stroke-linejoin:round;" version="1.1" viewBox="0 0 512 512" width="100%" xml:space="preserve" xmlns="http://www.w3.org/2000/svg" xmlns:vectornator="http://vectornator.io" xmlns:xlink="http://www.w3.org/1999/xlink">
<defs>
<linearGradient gradientTransform="matrix(0.810621 0 0 1.24987 125.73 56)" gradientUnits="userSpaceOnUse" id="LinearGradient" x1="167.517" x2="160.31" y1="24.393" y2="320.034">
<stop offset="0" stop-color="#d9d8dc"/>
<stop offset="1" stop-color="#ffffff" stop-opacity="0.385"/>
</linearGradient>
<linearGradient gradientTransform="matrix(0.713747 0 0 1.41949 125.73 56)" gradientUnits="userSpaceOnUse" id="LinearGradient_2" x1="199.036" x2="140.071" y1="21.413" y2="278.408">
<stop offset="0" stop-color="#8d67af" stop-opacity="0.672"/>
<stop offset="1" stop-color="#9f8daf"/>
</linearGradient>
<linearGradient gradientTransform="matrix(0.766684 0 0 1.32162 125.73 56)" gradientUnits="userSpaceOnUse" id="LinearGradient_3" x1="206.428" x2="206.428" y1="100.918" y2="294.312">
<stop offset="0" stop-color="#26053d" stop-opacity="0.762"/>
<stop offset="1" stop-color="#b7b4b4" stop-opacity="0.278"/>
</linearGradient>
<linearGradient gradientTransform="matrix(1.15487 0 0 0.877371 125.73 56)" gradientUnits="userSpaceOnUse" id="LinearGradient_4" x1="23.483" x2="112.931" y1="171.718" y2="351.723">
<stop offset="0" stop-color="#91739f" stop-opacity="0.46"/>
<stop offset="1" stop-color="#32054f" stop-opacity="0.54"/>
</linearGradient>
<linearGradient gradientTransform="matrix(0.886496 0 0 1.14293 125.73 56)" gradientUnits="userSpaceOnUse" id="LinearGradient_5" x1="226.781" x2="67.804" y1="317.252" y2="147.413">
<stop offset="0" stop-color="#463d49" stop-opacity="0.331"/>
<stop offset="1" stop-color="#340a50" stop-opacity="0.821"/>
</linearGradient>
<linearGradient gradientTransform="matrix(0.66231 0 0 1.52987 125.73 56)" gradientUnits="userSpaceOnUse" id="LinearGradient_6" x1="248.016" x2="200.705" y1="88.755" y2="255.005">
<stop offset="0" stop-color="#715383" stop-opacity="0.145"/>
<stop offset="1" stop-color="#f4f4f4" stop-opacity="0.234"/>
</linearGradient>
<linearGradient gradientTransform="matrix(0.57331 0 0 1.7673 125.73 56)" gradientUnits="userSpaceOnUse" id="LinearGradient_7" x1="307.564" x2="156.451" y1="109.963" y2="81.527">
<stop offset="0" stop-color="#a5a1a8" stop-opacity="0.356"/>
<stop offset="1" stop-color="#370c50" stop-opacity="0.582"/>
</linearGradient>
</defs>
<g id="Ebene-1" vectornator:layerName="Ebene 1">
<path d="M2.84217e-14 95C2.84217e-14 42.5329 42.5329 0 95 0L417 0C469.467 0 512 42.5329 512 95L512 417C512 469.467 469.467 512 417 512L95 512C42.5329 512 2.84217e-14 469.467 2.84217e-14 417L2.84217e-14 95Z" fill="#0c0824" fill-rule="nonzero" opacity="1" stroke="none" vectornator:layerName="Rechteck 1"/>
</g>
<g id="Ebene-2" vectornator:layerName="Ebene 2">
<g opacity="1" vectornator:layerName="g">
<path d="M267.129 57.0062C238.067 67.3062 210.011 97.3748 182.967 147.2C142.405 221.949 90.0051 328.161 162.155 412.261C195.53 451.161 250.642 474.123 322.967 437.761C381.073 408.542 397.235 324.699 376.373 285.305C333.342 204.037 289.685 183.993 277.998 133.593C270.204 99.9936 266.579 74.4687 267.123 57.0062L267.129 57.0062Z" fill="url(#LinearGradient)" fill-rule="evenodd" opacity="1" stroke="none" vectornator:layerName="path"/>
<path d="M267.129 56C237.917 66.4062 209.867 96.4748 182.967 146.193C142.624 220.781 90.0051 327.155 162.155 411.255C195.53 450.154 249.936 462.723 280.123 439.655C299.804 424.611 313.185 410.273 320.898 380.061C329.485 346.424 322.898 301.13 318.379 280.33C312.667 253.999 310.798 225.105 312.773 193.643C312.251 193.01 311.731 192.377 311.21 191.743C295.498 172.506 283.373 155.756 277.998 132.587C270.204 98.9873 266.579 73.4624 267.123 56L267.129 56Z" fill="url(#LinearGradient_2)" fill-rule="evenodd" opacity="1" stroke="none" vectornator:layerName="path"/>
<path d="M242.942 69.0874C215.736 90.5873 195.505 126.65 182.255 177.274C162.38 253.218 160.23 323.249 167.242 363.986C180.83 442.948 251.279 472.923 323.535 436.173C368.004 413.548 386.529 364.999 385.548 312.299C384.529 257.724 279.079 195.881 260.404 150.343C247.954 119.981 242.136 92.8936 242.942 69.0874Z" fill="url(#LinearGradient_3)" fill-rule="evenodd" opacity="1" stroke="none" vectornator:layerName="path"/>
<path d="M311.917 211.462C344.541 253.305 351.654 282.436 333.248 298.849C305.648 323.468 238.142 339.53 196.148 309.749C168.148 289.893 157.555 247.305 164.367 181.974C152.96 205.738 143.167 230.243 135.055 255.324C127.067 280.086 124.73 305.999 128.055 333.061C138.067 353.311 162.399 366.83 201.055 373.63C259.054 383.83 313.929 378.786 350.76 360.224C375.316 347.849 386.929 335.524 385.604 323.261C386.485 305.149 380.904 287.911 368.848 271.537C356.785 255.162 337.81 235.143 311.91 211.456L311.917 211.462Z" fill="url(#LinearGradient_4)" fill-rule="evenodd" opacity="1" stroke="none" vectornator:layerName="path"/>
<path d="M184.417 169.681C184.142 199.899 191.911 228.624 207.723 255.868C231.442 296.718 259.129 337.08 300.56 370.542C328.185 392.855 350.254 400.055 366.773 392.167C353.21 416.448 338.773 428.348 323.492 427.861C300.56 427.136 272.604 417.111 227.804 363.28C197.942 327.393 177.511 293.443 166.517 261.437C168.261 248.737 170.111 236.093 172.061 223.499C174.017 210.899 178.136 192.962 184.411 169.681L184.417 169.681Z" fill="url(#LinearGradient_5)" fill-rule="evenodd" opacity="1" stroke="none" vectornator:layerName="path"/>
<path d="M254.486 211.149C257.023 235.774 266.598 275.149 254.486 301.368C242.373 327.586 186.423 374.949 201.861 416.68C217.311 458.398 254.948 449.036 278.56 429.805C302.173 410.573 314.81 379.305 317.61 357.317C320.41 335.33 310.91 293.024 307.817 256.218C305.754 231.687 307.154 210.656 312.01 193.112L304.779 184.012L262.192 171.399C255.367 181.493 252.798 194.743 254.486 211.149Z" fill="url(#LinearGradient_6)" fill-rule="evenodd" opacity="1" stroke="none" vectornator:layerName="path"/>
<path d="M269.686 89.2186C255.904 95.0436 242.848 106.581 230.511 123.837C212.011 149.718 202.586 165.237 209.561 216.543C214.211 250.749 217.542 282.218 219.548 310.949L279.192 137.656C277.204 129.72 275.38 121.743 273.723 113.731C272.101 105.608 270.754 97.4327 269.686 89.2186Z" fill="url(#LinearGradient_7)" fill-rule="evenodd" opacity="1" stroke="none" vectornator:layerName="path"/>
<path d="M279.079 137.312C263.936 146.15 252.204 164.25 243.879 191.624C235.561 218.999 227.942 257.268 221.036 306.436C230.248 275.162 236.361 252.518 239.367 238.487C243.879 217.449 245.423 187.693 257.411 167.493C265.398 154.025 272.623 143.968 279.079 137.306L279.079 137.312Z" fill="#330a4c" fill-opacity="0.316" fill-rule="evenodd" opacity="1" stroke="none" vectornator:layerName="path"/>
<path d="M208.973 430.611C233.886 434.173 246.917 437.336 248.061 440.111C249.773 444.261 244.904 448.061 231.073 445.504C221.855 443.804 214.486 438.836 208.973 430.611Z" fill="#ffffff" fill-rule="evenodd" opacity="1" stroke="none" vectornator:layerName="path"/>
<path d="M221.492 89.2186C207.786 105.594 195.911 122.95 185.867 141.287C175.823 159.625 168.636 173.318 164.33 182.343C162.992 189.074 162.342 199.006 162.374 212.137C162.405 225.274 163.542 239.88 165.78 255.949C167.69 224.735 173.748 193.915 183.792 164.3C193.842 134.675 206.405 109.644 221.492 89.2186Z" fill="#ededed" fill-opacity="0.603" fill-rule="evenodd" opacity="1" stroke="none" vectornator:layerName="path"/>
</g>
</g>
</svg>
