<?xml version="1.0" encoding="UTF-8" standalone="no"?>
<!DOCTYPE svg PUBLIC "-//W3C//DTD SVG 1.1//EN" "http://www.w3.org/Graphics/SVG/1.1/DTD/svg11.dtd">
<!-- Created with Vectornator (http://vectornator.io/) -->
<svg height="100%" stroke-miterlimit="10" style="fill-rule:nonzero;clip-rule:evenodd;stroke-linecap:round;stroke-linejoin:round;" version="1.1" viewBox="0 0 512 512" width="100%" xml:space="preserve" xmlns="http://www.w3.org/2000/svg" xmlns:vectornator="http://vectornator.io" xmlns:xlink="http://www.w3.org/1999/xlink">
<defs>
<linearGradient gradientTransform="matrix(1.11 0 0 1.11 -28.154 -28.1549)" gradientUnits="userSpaceOnUse" id="LinearGradient" x1="143.674" x2="368.315" y1="255.995" y2="255.995">
<stop offset="0" stop-color="#8381c5"/>
<stop offset="0.566394" stop-color="#7e55b3" stop-opacity="0.996078"/>
<stop offset="1" stop-color="#a52ecb" stop-opacity="0.992157"/>
</linearGradient>
</defs>
<g id="Ebene-1" vectornator:layerName="Ebene 1">
<path d="M2.84217e-14 95C2.84217e-14 42.5329 42.5329 0 95 0L417 0C469.467 0 512 42.5329 512 95L512 417C512 469.467 469.467 512 417 512L95 512C42.5329 512 2.84217e-14 469.467 2.84217e-14 417L2.84217e-14 95Z" fill="#7e54b3" fill-rule="nonzero" opacity="1" stroke="none" vectornator:layerName="Rechteck 1"/>
</g>
<g id="Ohne-Titel" vectornator:layerName="Ohne Titel">
<path d="M312.2 108.722C309.444 108.751 306.668 109.017 303.909 109.52C283.125 113.309 233.008 127.869 233.008 127.869C294.932 127.334 305.316 128.37 309.945 134.842C312.679 138.664 308.7 143.904 292.185 146.601C274.206 149.537 236.824 153.053 236.824 153.053C200.97 155.182 175.717 155.33 168.143 171.368C163.194 181.845 173.408 191.099 177.89 196.898C196.83 217.961 224.209 229.325 241.819 237.69C243.13 238.313 245.894 239.171 247.959 239.945C256.328 243.083 267.869 246.778 267.869 246.778C258.503 246.263 249.734 246.469 241.229 246.986C197.855 249.624 165.564 264.51 145.353 281.396C118.012 306.686 130.13 336.824 186.145 355.385C219.23 366.347 235.619 371.484 284.97 367.04C314.038 365.473 318.639 366.424 318.929 368.809C319.337 372.167 286.612 380.491 277.686 383.065C254.978 389.615 195.462 402.842 195.164 402.907C195.164 402.907 212.271 404.119 234.292 402.178C243.209 401.392 277.07 398.086 302.383 392.535C302.383 392.535 333.255 385.924 349.766 379.839C367.043 373.473 376.441 368.071 380.673 360.414C380.488 358.846 381.98 353.281 374.013 349.939C353.644 341.395 330.015 342.917 283.27 341.926C231.432 340.145 214.202 331.501 205.015 324.513C199.021 319.689 199.465 309.023 212.057 297.283C214.34 295.155 217.069 293.006 220.209 290.831C221.411 289.986 222.615 289.145 223.955 288.299C225.145 287.557 226.367 286.819 227.666 286.079C230.905 284.213 234.373 282.366 238.385 280.529C241.508 279.018 246.44 277.251 251.982 275.43C257.418 273.644 263.771 271.86 270.436 269.984C270.71 269.907 270.924 269.819 271.199 269.741C298.961 261.963 331.937 254.34 331.937 254.34C322.266 249.56 308.782 243.191 296.035 237.135C282.921 230.904 274.786 226.996 265.649 222.67C260.617 220.288 252.487 216.449 250.387 215.421C241.948 211.29 228.443 205.047 225.516 197.522C222.197 190.298 233.367 184.076 239.599 182.294C259.67 176.505 288.008 172.916 313.795 172.512C326.757 172.309 328.85 171.472 328.85 171.472C346.735 168.505 358.522 156.267 353.617 136.888C349.763 119.58 331.492 108.522 312.2 108.722Z" fill="#211f46" fill-opacity="0.996078" fill-rule="nonzero" opacity="0.405" stroke="#0a0b1b" stroke-linecap="butt" stroke-linejoin="miter" stroke-width="8.42112"/>
<path d="M312.2 108.722C309.444 108.751 306.668 109.017 303.909 109.52C283.125 113.309 233.008 127.869 233.008 127.869C294.932 127.334 305.316 128.37 309.945 134.842C312.679 138.664 308.7 143.904 292.185 146.601C274.206 149.537 236.824 153.053 236.824 153.053C200.97 155.182 175.717 155.33 168.143 171.368C163.194 181.845 173.408 191.099 177.89 196.898C196.83 217.961 224.209 229.325 241.819 237.69C243.13 238.313 245.894 239.171 247.959 239.945C256.328 243.083 267.869 246.778 267.869 246.778C258.503 246.263 249.734 246.469 241.229 246.986C197.855 249.624 165.564 264.51 145.353 281.396C118.012 306.686 130.13 336.824 186.145 355.385C219.23 366.347 235.619 371.484 284.97 367.04C314.038 365.473 318.639 366.424 318.929 368.809C319.337 372.167 286.612 380.491 277.686 383.065C254.978 389.615 195.462 402.842 195.164 402.907C195.164 402.907 212.271 404.119 234.292 402.178C243.209 401.392 277.07 398.086 302.383 392.535C302.383 392.535 333.255 385.924 349.766 379.839C367.043 373.473 376.441 368.071 380.673 360.414C380.488 358.846 381.98 353.281 374.013 349.939C353.644 341.395 330.015 342.917 283.27 341.926C231.432 340.145 214.202 331.501 205.015 324.513C199.021 319.689 199.465 309.023 212.057 297.283C214.34 295.155 217.069 293.006 220.209 290.831C221.411 289.986 222.615 289.145 223.955 288.299C225.145 287.557 226.367 286.819 227.666 286.079C230.905 284.213 234.373 282.366 238.385 280.529C241.508 279.018 246.44 277.251 251.982 275.43C257.418 273.644 263.771 271.86 270.436 269.984C270.71 269.907 270.924 269.819 271.199 269.741C298.961 261.963 331.937 254.34 331.937 254.34C322.266 249.56 308.782 243.191 296.035 237.135C282.921 230.904 274.786 226.996 265.649 222.67C260.617 220.288 252.487 216.449 250.387 215.421C241.948 211.29 228.443 205.047 225.516 197.522C222.197 190.298 233.367 184.076 239.599 182.294C259.67 176.505 288.008 172.916 313.795 172.512C326.757 172.309 328.85 171.472 328.85 171.472C346.735 168.505 358.522 156.267 353.617 136.888C349.763 119.58 331.492 108.522 312.2 108.722Z" fill="url(#LinearGradient)" fill-rule="nonzero" opacity="1" stroke="none"/>
<path d="M195.166 402.911C195.166 402.911 212.283 404.122 234.303 402.181C243.221 401.395 277.078 398.069 302.392 392.518C302.392 392.518 333.255 385.913 349.766 379.828C367.043 373.461 376.444 368.058 380.676 360.401C380.491 358.832 381.979 353.269 374.011 349.927C353.642 341.384 330.019 342.929 283.274 341.938C231.436 340.157 214.192 331.48 205.006 324.491C196.197 317.402 200.626 297.789 238.37 280.512C257.383 271.312 331.914 254.334 331.914 254.334C306.813 241.927 260.008 220.116 250.387 215.406C241.948 211.275 228.444 205.055 225.517 197.53C222.198 190.306 233.355 184.082 239.587 182.3C259.658 176.511 287.992 172.913 313.779 172.509C326.741 172.306 328.845 171.472 328.845 171.472C346.73 168.505 358.504 156.268 353.599 136.889C349.195 117.108 325.969 105.485 303.897 109.509C283.112 113.298 233.015 127.85 233.015 127.85C294.939 127.314 305.303 128.348 309.932 134.819C312.665 138.641 308.69 143.882 292.175 146.579C274.195 149.516 236.821 153.052 236.821 153.052C200.967 155.181 175.712 155.324 168.137 171.361C163.189 181.838 173.415 191.101 177.897 196.899C196.837 217.962 224.194 229.322 241.804 237.688C248.429 240.835 267.87 246.779 267.87 246.779C210.741 243.637 169.531 261.18 145.357 281.377C118.016 306.666 130.111 336.811 186.126 355.371C219.21 366.334 235.618 371.49 284.969 367.046C314.037 365.479 318.619 366.411 318.909 368.796C319.317 372.155 286.623 380.496 277.697 383.071C254.989 389.621 195.464 402.846 195.166 402.911Z" fill="#ffffff" fill-rule="evenodd" opacity="1" stroke="#000000" stroke-linecap="butt" stroke-linejoin="miter" stroke-width="0" vectornator:layerName="path"/>
</g>
<g id="g4806" vectornator:layerName="g4806" visibility="hidden">
<path d="M272.564 218.694C267.105 223.734 261.213 229.463 254.873 235.968C263.243 239.106 274.784 242.802 274.784 242.801C265.418 242.286 256.649 242.492 248.144 243.01C236.408 255.378 223.594 269.595 209.745 285.745L209.051 286.3C208.981 286.233 214.77 290.319 218.971 293.306C221.254 291.178 223.983 289.029 227.123 286.855C228.326 286.009 229.529 285.168 230.869 284.322C232.06 283.58 233.281 282.843 234.581 282.102C237.819 280.236 241.287 278.389 245.299 276.552C248.422 275.041 253.355 273.274 258.897 271.453C264.333 269.667 270.685 267.883 277.35 266.007C277.625 265.93 277.838 265.842 278.114 265.765C287.073 254.709 295.8 243.487 302.95 233.158C289.836 226.927 281.701 223.02 272.564 218.694Z" fill="#050505" fill-rule="nonzero" opacity="1" stroke="none"/>
</g>
<g id="Ohne-Titel_2" vectornator:layerName="Ohne Titel"/>
</svg>
