<?xml version="1.0" encoding="UTF-8" standalone="no"?>
<!DOCTYPE svg PUBLIC "-//W3C//DTD SVG 1.1//EN" "http://www.w3.org/Graphics/SVG/1.1/DTD/svg11.dtd">
<!-- Created with Vectornator (http://vectornator.io/) -->
<svg height="100%" stroke-miterlimit="10" style="fill-rule:nonzero;clip-rule:evenodd;stroke-linecap:round;stroke-linejoin:round;" version="1.1" viewBox="0 0 512 512" width="100%" xml:space="preserve" xmlns="http://www.w3.org/2000/svg" xmlns:vectornator="http://vectornator.io" xmlns:xlink="http://www.w3.org/1999/xlink">
<defs/>
<g id="Ebene-1" vectornator:layerName="Ebene 1">
<path d="M2.84217e-14 95C2.84217e-14 42.5329 42.5329 0 95 0L417 0C469.467 0 512 42.5329 512 95L512 417C512 469.467 469.467 512 417 512L95 512C42.5329 512 2.84217e-14 469.467 2.84217e-14 417L2.84217e-14 95Z" fill="#232531" fill-rule="nonzero" opacity="1" stroke="none" vectornator:layerName="Rechteck 1"/>
<g opacity="1" vectornator:layerName="ember-tomster-1.svg">
<path d="M146.191 358.276L147.129 355.932L147.285 355.619C148.067 353.743 148.848 351.711 149.63 349.836C150.568 347.335 151.506 344.677 152.443 342.176C153.069 340.77 153.538 339.363 154.007 337.8C155.257 334.361 156.976 329.828 159.008 325.451C160.259 322.794 161.197 320.918 162.291 319.199C163.541 317.167 164.792 315.291 166.199 313.416L167.293 311.852L169.012 310.758C169.169 310.602 169.481 310.446 169.794 310.289C170.575 309.82 171.513 309.508 172.138 309.195C173.233 308.726 174.639 308.257 176.202 307.788C178.391 307.163 180.892 306.538 183.862 305.913C188.238 304.975 192.928 304.037 198.867 303.099C207.777 301.692 217.312 300.442 228.722 299.191C248.886 297.003 269.05 295.44 288.433 294.502C298.749 294.033 306.564 293.877 313.911 293.877L318.6 293.877C323.446 294.033 329.073 294.19 334.231 294.971C336.107 295.284 337.826 295.596 339.077 296.065C339.546 296.222 340.015 296.378 340.171 296.534L341.734 297.159L342.985 298.254L344.391 299.66C346.111 301.38 347.986 303.412 349.862 305.756C355.802 313.259 361.116 322.325 365.806 332.642C370.339 342.645 373.152 351.555 374.872 360.308L377.216 372.657L348.455 372.657L346.736 364.372C344.86 355.619 321.258 332.485 309.534 327.952C308.284 327.483 303.282 326.077 287.807 326.077C255.92 326.077 210.903 331.704 204.494 333.111C196.835 336.706 185.112 351.711 178.391 366.717L175.577 372.813" fill="#ffffff" fill-rule="nonzero" opacity="1" stroke="none" vectornator:layerName="path"/>
<path d="M341.578 312.634C340.171 310.758 338.608 309.039 336.889 307.476L335.794 306.382C335.794 306.382 335.638 306.382 335.482 306.225C334.7 305.913 333.606 305.756 332.512 305.6C327.979 304.975 323.133 304.819 318.288 304.662C308.44 304.506 298.593 304.819 288.745 305.287C269.05 306.225 249.199 307.788 229.66 309.977C219.813 311.071 209.965 312.321 200.274 313.884C195.429 314.666 190.583 315.448 185.894 316.542C183.549 317.011 181.204 317.636 179.016 318.261C177.922 318.574 176.828 318.886 175.89 319.355C175.421 319.512 174.952 319.668 174.796 319.981C174.796 319.981 174.639 319.981 174.639 320.137C173.545 321.7 172.451 323.263 171.357 324.982C170.263 326.702 169.481 328.578 168.543 330.453C166.824 334.205 165.261 338.112 163.854 342.02C162.447 345.928 160.884 349.992 159.477 354.056C158.696 356.088 157.914 358.12 156.976 360.152C156.664 361.09 156.195 362.028 155.726 362.966L169.012 362.966C176.202 346.866 189.801 328.421 201.056 323.888C204.182 322.638 254.513 316.385 287.807 316.385C300.156 316.385 308.597 317.323 313.286 319.043C326.885 324.357 354.083 349.523 356.896 363.122L364.555 363.122C362.992 354.525 359.866 346.084 356.271 337.956C352.207 328.578 347.361 319.981 341.578 312.634" fill="#ba8449" fill-rule="nonzero" opacity="1" stroke="none" vectornator:layerName="path"/>
<path d="M355.958 372.813L354.395 364.372C352.988 357.338 350.644 349.836 346.892 341.551C342.828 332.798 338.452 325.139 333.45 319.043C332.512 317.792 331.574 316.698 330.636 315.76C326.728 315.135 322.195 315.135 318.131 314.979L313.755 314.979C306.721 314.979 299.218 315.135 289.214 315.604C270.144 316.542 250.606 318.105 230.754 320.293C219.656 321.544 210.434 322.794 201.994 324.045C196.523 324.826 192.146 325.764 188.238 326.546C185.737 327.171 183.862 327.64 182.142 328.109C181.83 328.109 181.673 328.265 181.517 328.265C181.204 328.89 180.735 329.359 180.423 329.984C179.641 331.235 179.016 332.642 177.922 334.517C176.202 338.112 174.796 341.864 173.545 345.146C172.92 346.553 172.451 347.96 171.982 349.367C171.044 352.024 170.106 354.681 169.012 357.338C168.231 359.371 167.293 361.403 166.511 363.591L166.355 363.903C166.042 364.841 165.573 365.779 165.261 366.561L162.447 372.813L144.159 372.813L141.502 371.563L141.189 371.406C134.937 367.811 134.937 362.497 135.093 360.308L135.093 359.839L135.406 358.433L135.875 356.713C136.187 355.619 136.5 354.369 136.812 353.274C137.438 350.93 138.219 348.741 139.001 346.553C140.408 342.489 142.127 338.112 144.159 333.423C146.347 328.578 148.379 324.357 150.724 320.449C151.818 318.417 153.069 316.385 154.632 314.041C156.039 311.852 157.602 309.664 159.165 307.632C160.572 305.913 161.822 304.819 162.76 304.193L162.916 304.193C163.854 303.412 164.792 302.943 165.261 302.787C166.668 302.005 167.762 301.536 168.543 301.223C170.419 300.442 172.138 299.973 173.545 299.504C176.671 298.566 179.641 297.941 181.83 297.472C186.363 296.534 191.208 295.596 197.304 294.658C206.37 293.252 215.905 292.157 227.628 290.907C247.948 288.875 268.269 287.312 287.964 286.53C297.342 286.218 304.689 285.905 311.41 285.905L318.6 285.905C323.602 286.061 329.229 286.218 335.325 287.156L335.482 287.156C336.889 287.468 339.077 287.781 341.578 288.562L341.734 288.562C342.359 288.875 343.297 289.188 344.391 289.657C345.173 290.125 345.798 290.438 346.267 290.751L347.049 291.376L347.674 291.845L348.299 292.47L350.018 294.19C352.051 296.222 353.926 298.41 355.958 301.067C362.211 309.195 367.681 318.574 372.683 329.672C375.028 334.83 377.06 339.988 378.623 344.99C380.343 350.461 381.593 355.619 382.531 360.621L384.407 372.657L355.958 372.657C355.958 372.657 355.958 372.813 355.958 372.813Z" fill="#ffffff" fill-rule="nonzero" opacity="1" stroke="none" vectornator:layerName="path"/>
<path d="M156.195 372.813L163.072 357.964C168.856 345.615 182.767 322.95 198.242 316.542L198.555 316.385C203.713 314.51 255.92 308.414 287.807 308.414C305.627 308.414 312.348 310.133 315.787 311.54C331.887 317.792 359.866 344.209 363.617 359.839L366.744 372.657L156.195 372.657L156.195 372.813Z" fill="#ffffff" fill-rule="nonzero" opacity="1" stroke="none" vectornator:layerName="path"/>
<path d="M345.486 372.813L343.61 364.841C341.89 357.495 319.851 335.455 308.44 330.922C307.346 330.453 302.813 329.203 287.807 329.203C257.171 329.203 212.779 334.674 205.589 336.08C199.649 339.05 188.864 351.711 181.83 366.717L179.016 372.657L153.069 372.657L159.634 358.12C167.293 340.926 182.455 319.668 197.304 313.728C203.088 311.384 255.92 305.444 287.964 305.444C301.875 305.444 311.254 306.538 317.037 308.726C333.137 314.979 363.305 342.176 367.056 360.308L369.557 372.813C369.557 372.813 345.486 372.813 345.486 372.813Z" fill="#ffffff" fill-rule="nonzero" opacity="1" stroke="none" vectornator:layerName="path"/>
<path d="M357.521 372.813L354.551 370C343.297 359.527 340.171 337.8 343.61 328.89C345.954 322.95 350.956 320.918 354.708 320.918C355.802 320.918 356.74 321.075 357.678 321.387C359.71 321.231 364.399 317.323 365.806 315.135C367.994 311.071 372.214 308.57 377.373 308.57C385.032 308.57 397.537 314.666 401.601 320.449C403.945 323.732 404.57 327.64 403.32 331.079C403.164 331.391 403.007 332.016 402.695 332.798C398.474 345.459 393.004 360.934 388.627 368.124L385.657 372.969L357.521 372.813Z" fill="#ffffff" fill-rule="nonzero" opacity="1" stroke="none" vectornator:layerName="path"/>
<path d="M356.583 372.813L366.275 357.026C370.964 349.367 374.246 343.114 376.435 338.269C370.964 342.176 363.305 344.521 351.894 345.146L351.582 344.834L351.425 345.928C344.704 345.928 339.233 340.457 338.921 333.736C338.764 330.453 340.015 327.171 342.203 324.67C344.391 322.169 347.518 320.762 350.8 320.606C362.054 320.137 363.461 317.48 365.493 313.572C368.307 308.257 374.403 305.131 382.375 305.131C384.407 305.131 386.439 305.287 388.314 305.756C398.162 307.945 404.57 315.448 405.039 325.139C405.508 334.986 400.037 349.367 389.096 367.811L386.126 372.813C386.126 372.813 356.583 372.813 356.583 372.813Z" fill="#ffffff" fill-rule="nonzero" opacity="1" stroke="none" vectornator:layerName="path"/>
<path d="M397.693 342.02C385.032 342.02 371.277 333.736 364.243 325.608C357.834 318.261 357.209 311.696 357.834 307.476C358.616 302.318 362.836 297.159 370.495 297.159C371.902 297.159 373.309 297.316 374.559 297.472C375.81 291.845 378.779 280.122 390.815 280.122L392.535 280.122C398.318 280.747 402.695 284.342 404.414 289.813C406.29 288.875 408.478 288.093 410.979 288.093C414.731 288.093 418.326 289.657 420.983 292.47C425.203 297.003 426.141 303.255 423.484 309.195C426.297 310.915 428.486 313.572 429.424 317.011C430.674 321.387 429.893 326.077 427.079 329.828C421.608 337.487 408.947 341.082 398.943 341.395C398.318 342.02 398.005 342.02 397.693 342.02M385.188 84.5786C373.778 91.7689 361.273 108.181 345.954 130.69C343.61 134.285 339.702 136.161 335.325 136.161C329.698 136.161 322.508 132.722 314.224 126.001C301.094 115.372 300.781 109.432 300.625 107.087C300.312 100.835 305.001 95.5203 311.566 94.895C324.227 93.8009 334.7 86.1417 344.86 78.7952C355.02 71.4486 364.399 64.7273 375.653 64.7273C377.842 64.7273 380.186 65.04 382.375 65.5089" fill="#ffffff" fill-rule="nonzero" opacity="1" stroke="none" vectornator:layerName="path"/>
<path d="M312.504 105.368C343.141 102.554 361.116 70.8234 379.717 75.669C367.213 83.4845 354.864 99.1154 337.514 124.75C333.293 130.846 304.064 106.149 312.504 105.368" fill="#fff8ee" fill-rule="nonzero" opacity="1" stroke="none" vectornator:layerName="path"/>
<path d="M113.991 90.831C121.65 83.7971 131.967 80.202 144.628 80.202C155.57 80.202 168.543 82.8592 183.08 88.1737C186.988 89.5805 192.146 89.8931 196.054 89.8931L201.837 89.8931C205.432 89.8931 213.091 89.8931 216.374 96.9271C217.468 99.5843 218.875 105.055 214.655 111.464C209.496 119.436 195.897 127.876 182.767 127.876L182.142 127.876C175.108 127.72 168.543 123.969 160.884 119.748C151.349 114.434 140.564 108.338 127.747 108.338C126.027 108.338 124.151 108.494 122.432 108.65M349.706 166.641C344.079 166.641 333.45 164.296 326.728 148.353C322.977 139.912 321.726 130.377 321.726 125.063C321.726 114.121 327.51 111.151 331.105 110.37C333.606 107.869 338.295 101.46 341.734 96.6145C355.958 77.2321 366.275 64.571 378.31 64.571C380.343 64.571 382.218 64.8836 384.094 65.6652C400.194 72.0739 408.009 85.6728 405.352 102.867C403.476 115.528 395.505 130.534 383.781 144.289C378.31 150.697 364.086 165.703 351.425 166.641L349.706 166.641" fill="#ffffff" fill-rule="nonzero" opacity="1" stroke="none" vectornator:layerName="path"/>
<path d="M164.948 172.581C163.541 172.581 162.135 172.581 160.884 172.268C140.877 168.986 115.867 148.822 106.488 128.033C100.08 113.808 102.893 104.117 106.488 98.4902C112.272 89.2679 120.869 84.4223 131.498 84.4223C144.315 84.4223 157.133 91.4562 168.387 97.5523C172.764 99.8969 179.016 103.336 181.673 103.961C182.611 103.648 183.549 103.492 184.643 103.492C188.707 103.492 192.459 105.68 194.647 109.432C199.805 118.498 196.679 142.882 188.551 156.95C182.924 167.266 174.483 172.581 164.948 172.581Z" fill="#ffffff" fill-rule="nonzero" opacity="1" stroke="none" vectornator:layerName="path"/>
<path d="M234.662 347.022C187.769 347.022 141.345 324.045 125.871 307.319C109.771 289.969 103.988 270.274 108.364 248.703C112.116 231.041 121.963 215.253 130.56 201.185C136.5 191.494 142.127 182.428 143.69 175.863C162.76 91.6126 210.591 80.8272 250.137 80.8272C252.638 80.8272 255.295 80.8272 258.265 80.9835C342.516 83.4845 350.956 124.125 355.958 148.509C356.896 153.042 357.834 157.262 358.928 160.076C387.22 229.477 391.909 271.056 374.559 299.191C357.521 326.858 320.163 340.457 245.76 346.553C242.165 346.866 238.414 347.022 234.662 347.022Z" fill="#ffffff" fill-rule="nonzero" opacity="1" stroke="none" vectornator:layerName="path"/>
<path d="M232.943 347.178C185.112 347.178 140.877 323.419 126.027 307.319C109.927 289.969 104.144 270.274 108.521 248.703C112.272 231.041 122.119 215.253 130.716 201.185C136.656 191.494 142.283 182.428 143.846 175.863C162.916 91.6126 210.747 80.8272 250.293 80.8272C252.794 80.8272 255.451 80.8272 258.421 80.9835C342.672 83.4845 351.113 124.125 356.115 148.509C357.052 153.042 357.99 157.262 359.084 160.076C386.908 228.383 391.44 269.649 374.403 297.785C354.864 330.141 308.909 340.613 246.073 346.553C241.696 347.022 237.319 347.178 232.943 347.178" fill="#ffffff" fill-rule="nonzero" opacity="1" stroke="none" vectornator:layerName="path"/>
<path d="M354.708 288.406C355.333 286.999 355.958 285.436 356.583 284.029C362.992 268.711 367.838 255.268 360.179 246.671C351.113 236.668 312.817 218.536 278.741 202.592C213.56 171.799 173.233 151.948 167.449 132.253C166.042 127.251 166.668 122.093 169.325 117.716C180.579 100.053 211.997 81.1398 254.982 81.1398L256.233 81.1398C296.717 81.4524 326.103 93.1756 343.766 115.684C358.772 134.754 362.054 157.106 364.555 173.362C365.337 178.833 366.431 185.867 367.525 187.743C398.162 240.419 384.094 279.34 372.996 297.628C372.996 297.628 354.708 288.406 354.708 288.406Z" fill="#ffffff" fill-rule="nonzero" opacity="1" stroke="none" vectornator:layerName="path"/>
<path d="M322.664 227.758C306.877 227.758 280.461 223.85 271.395 215.097C264.205 208.219 261.547 196.809 258.734 185.711C257.64 181.022 255.764 173.519 254.045 170.08L253.888 170.08C253.263 171.799 252.481 173.988 251.856 175.707C247.636 187.587 241.696 203.999 229.348 212.909C224.033 216.816 204.807 220.255 189.958 220.255C175.108 220.255 163.854 217.129 156.351 210.72C145.566 201.654 137.438 184.929 131.967 161.014C131.654 160.858 131.498 160.701 131.185 160.545C128.684 158.826 125.402 156.794 123.683 153.198C120.869 147.571 121.963 137.568 124.933 132.253C127.121 128.345 130.873 125.844 134.937 125.532L136.344 125.532C138.532 125.532 140.72 125.844 143.221 126.313C145.722 126.782 148.692 127.251 151.193 127.251L152.6 127.251C167.449 125.063 181.361 124.125 194.022 124.125C224.815 124.125 241.071 130.377 247.167 132.878C247.636 133.035 248.105 133.191 248.417 133.347C250.137 133.816 253.419 134.441 256.858 134.441C258.109 134.441 259.359 134.441 260.453 134.129C274.365 131.94 287.651 131.003 299.843 131.003C332.356 131.003 349.55 138.349 357.052 141.632C357.678 141.944 358.303 142.257 358.772 142.257L359.397 142.257C361.429 142.257 364.399 141.632 366.9 141.163C368.776 140.694 370.651 140.381 372.371 140.068L373.778 140.068C378.623 140.068 383 142.882 385.657 147.571C388.627 153.042 390.659 164.453 386.439 171.018C383.625 175.394 379.092 177.426 375.341 179.146C374.872 179.302 374.246 179.615 373.778 179.927C372.527 182.116 370.339 186.492 368.463 190.087C362.992 200.716 356.896 212.909 351.269 219.474C346.267 225.101 336.889 227.758 322.664 227.758" fill="#ffffff" fill-rule="nonzero" opacity="1" stroke="none" vectornator:layerName="path"/>
<g opacity="0.3" vectornator:layerName="path">
<clipPath clip-rule="nonzero" id="ClipPath">
<path d="M122.119 132.722L387.064 132.722L387.064 225.257L122.119 225.257L122.119 132.722Z"/>
</clipPath>
<g clip-path="url(#ClipPath)">
<path d="M316.378 225.227C303.873 225.227 286.21 223.352 273.549 214.442C266.359 209.284 263.076 198.967 258.543 182.399C257.293 177.709 255.417 171.144 254.01 167.862C253.229 169.738 252.291 172.238 251.509 174.271C246.82 186.932 240.411 204.126 228.688 211.316C222.592 215.067 203.679 218.506 188.985 218.506C173.198 218.506 161.788 214.911 155.223 208.033C138.498 190.527 135.215 173.802 133.183 163.954C132.87 162.547 132.558 160.672 132.245 159.577C122.398 154.419 121.772 146.76 121.929 143.478C122.398 137.382 127.087 132.849 132.87 132.849C136.778 132.849 139.279 134.724 141.155 135.975C141.311 136.131 141.467 136.287 141.78 136.287C141.936 136.287 142.405 136.444 142.562 136.6C145.063 137.382 152.409 139.414 153.972 148.948C154.285 150.668 156.786 160.672 160.85 171.144C167.258 187.869 171.791 190.683 172.26 190.839C177.575 192.715 183.827 193.653 190.861 193.653C202.428 193.653 212.119 191.152 216.027 189.901C218.372 186.306 223.061 176.928 226.343 170.519C236.191 150.98 237.91 148.011 242.131 145.822C244.475 144.572 247.289 143.946 250.884 143.946C255.573 143.946 262.295 145.041 265.421 146.447C272.611 149.574 276.362 158.952 284.803 183.18C286.366 187.557 288.242 193.184 289.492 195.998C295.745 198.967 309.969 200.999 324.818 200.999C329.039 200.999 332.165 200.843 334.197 200.687C335.604 197.717 337.636 193.497 339.355 189.901C351.235 164.579 353.11 161.609 356.08 159.265C361.238 155.357 370.304 152.7 375.463 152.7C382.34 152.7 386.092 157.233 387.029 161.609C388.749 170.675 379.839 174.114 376.869 175.208C376.088 175.521 374.994 175.99 374.212 176.303C373.118 178.178 371.086 182.242 369.523 185.525C356.705 210.534 352.485 217.412 347.639 220.382C341.7 223.664 327.319 225.227 316.378 225.227" fill="#ffffff" fill-rule="nonzero" opacity="1" stroke="none" vectornator:layerName="path"/>
</g>
</g>
<g opacity="0.3" vectornator:layerName="path">
<clipPath clip-rule="nonzero" id="ClipPath_2">
<path d="M126.027 126.001L178.234 126.001L178.234 151.323L126.027 151.323L126.027 126.001Z"/>
</clipPath>
<g clip-path="url(#ClipPath_2)">
<path d="M151.643 151.191C149.767 151.191 146.172 150.879 138.982 148.534C137.106 147.909 135.387 147.284 134.293 146.815C131.948 145.877 125.852 143.532 125.852 136.342L125.852 125.869L136.169 125.869C137.575 125.869 138.513 126.182 139.295 126.338C141.483 126.651 148.517 127.12 150.862 127.276L152.268 127.432C154.144 127.432 159.928 126.651 162.428 126.338C165.555 125.869 166.493 125.713 167.743 125.713L176.653 125.713L178.059 134.466C178.685 138.843 176.34 144.314 170.557 146.033C170.244 146.19 169.15 146.502 168.212 146.815C162.741 148.847 157.27 150.723 152.581 150.879C152.268 151.191 151.956 151.191 151.643 151.191" fill="#ffffff" fill-rule="nonzero" opacity="1" stroke="none" vectornator:layerName="path"/>
</g>
</g>
<g opacity="0.3" vectornator:layerName="path">
<clipPath clip-rule="nonzero" id="ClipPath_3">
<path d="M338.608 139.443L378.31 139.443L378.31 166.328L338.608 166.328L338.608 139.443Z"/>
</clipPath>
<g clip-path="url(#ClipPath_3)">
<path d="M358.128 166.188C354.689 166.188 351.25 164.781 346.561 161.498C342.028 158.372 338.589 155.246 338.589 149.775L338.589 139.303L348.749 139.303C350.156 139.303 351.563 139.615 352.97 140.24C354.064 140.709 358.284 142.116 360.16 142.585C360.785 142.585 362.036 142.272 364.537 141.803C365.787 141.491 366.569 141.491 367.663 141.491L376.572 141.491L377.979 150.244C378.604 154.465 376.729 159.779 370.945 161.811L369.069 162.749C366.256 164.156 362.973 165.719 359.691 166.344C359.378 166.188 358.753 166.188 358.128 166.188" fill="#ffffff" fill-rule="nonzero" opacity="1" stroke="none" vectornator:layerName="path"/>
</g>
</g>
<path d="M324.071 395.791L285.619 395.791L285.619 362.497L324.071 362.497L324.071 395.791Z" fill="#ffffff" fill-rule="nonzero" opacity="1" stroke="none" vectornator:layerName="path"/>
<path d="M341.578 312.634C340.171 310.758 338.608 309.039 336.889 307.476L335.794 306.382C335.794 306.382 335.638 306.382 335.482 306.225C334.7 305.913 333.606 305.756 332.512 305.6C327.979 304.975 323.133 304.819 318.288 304.662C308.44 304.506 298.593 304.819 288.745 305.287C269.05 306.225 249.199 307.788 229.66 309.977C219.813 311.071 209.965 312.321 200.274 313.884C195.429 314.666 190.583 315.448 185.894 316.542C183.549 317.011 181.204 317.636 179.016 318.261C177.922 318.574 176.828 318.886 175.89 319.355C175.421 319.512 174.952 319.668 174.796 319.981C174.796 319.981 174.639 319.981 174.639 320.137C173.545 321.7 172.451 323.263 171.357 324.982C170.263 326.702 169.481 328.578 168.543 330.453C166.824 334.205 165.261 338.112 163.854 342.02C162.447 345.928 160.884 349.992 159.477 354.056C158.696 356.088 157.914 358.12 156.976 360.152C156.664 361.09 156.195 362.028 155.726 362.966L169.012 362.966C176.202 346.866 189.801 328.421 201.056 323.888C204.182 322.638 254.513 316.385 287.807 316.385C300.156 316.385 308.597 317.323 313.286 319.043C326.885 324.357 354.083 349.523 356.896 363.122L364.555 363.122C362.992 354.525 359.866 346.084 356.271 337.956C352.207 328.578 347.361 319.981 341.578 312.634" fill="#ba8449" fill-rule="nonzero" opacity="1" stroke="none" vectornator:layerName="path"/>
<path d="M363.461 334.048C359.241 324.67 354.395 315.76 347.986 307.632C346.423 305.6 344.704 303.568 342.828 301.692L341.421 300.286L341.109 299.973L340.953 299.817L340.64 299.504C340.327 299.348 340.015 299.191 339.858 299.035C339.389 298.722 338.921 298.566 338.452 298.41C336.732 297.785 335.482 297.628 334.075 297.316C328.76 296.534 323.759 296.378 318.757 296.222C308.597 296.065 298.749 296.222 288.745 296.69C268.738 297.472 248.886 299.035 229.035 301.067C219.188 302.161 209.184 303.255 199.18 304.819C194.178 305.6 189.332 306.382 184.331 307.476C181.83 308.101 179.329 308.57 176.828 309.352C175.577 309.664 174.327 310.133 172.92 310.758C172.295 311.071 171.513 311.384 170.732 311.852C170.419 312.165 169.95 312.321 169.481 312.634C169.012 312.947 168.543 313.416 167.918 314.197C166.511 315.917 165.104 317.949 163.854 319.824C162.604 321.7 161.353 323.732 160.259 325.764C158.071 329.672 156.039 333.736 154.163 337.8C152.443 341.864 150.724 345.928 149.317 350.148C148.536 352.18 147.91 354.212 147.442 356.401C147.129 357.495 146.816 358.433 146.504 359.527L146.035 361.09L145.878 361.871C145.878 362.028 146.191 362.184 146.816 362.653L156.039 362.653C156.507 361.715 156.82 360.777 157.289 359.839C158.071 357.807 159.008 355.775 159.79 353.9C161.353 349.836 162.76 345.928 164.167 341.864C165.573 337.956 167.137 333.892 168.856 330.297C169.794 328.421 170.732 326.702 171.669 324.826C172.764 323.107 173.702 321.544 174.952 319.981C174.952 319.981 175.108 319.981 175.108 319.824C175.421 319.668 175.89 319.512 176.202 319.199C177.14 318.886 178.234 318.417 179.329 318.105C181.517 317.48 183.862 316.854 186.206 316.385C190.896 315.291 195.741 314.51 200.587 313.728C210.278 312.165 220.125 310.915 229.973 309.82C249.668 307.632 269.363 306.069 289.058 305.131C298.905 304.662 308.753 304.35 318.6 304.506C323.446 304.662 328.448 304.819 332.824 305.444C333.919 305.6 335.013 305.913 335.794 306.069C335.951 306.069 336.107 306.069 336.107 306.225L337.201 307.319C338.921 309.039 340.327 310.758 341.89 312.478C347.674 319.824 352.519 328.421 356.583 337.175C360.179 345.303 363.305 353.743 364.868 362.34L372.683 362.34C371.902 357.495 370.651 352.806 369.245 348.273C367.369 343.427 365.493 338.738 363.461 334.048" fill="#895b2e" fill-rule="nonzero" opacity="1" stroke="none" vectornator:layerName="path"/>
<path d="M312.192 321.387C308.128 319.824 299.843 318.886 287.964 318.886C254.513 318.886 205.12 325.139 202.462 326.233C192.302 330.297 179.641 347.491 172.607 362.497L353.77 362.497C350.8 350.774 325.634 326.702 312.192 321.387" fill="#fff8ee" fill-rule="nonzero" opacity="1" stroke="none" vectornator:layerName="path"/>
<path d="M313.286 318.417C308.753 316.698 300.156 315.76 287.807 315.76C254.513 315.76 204.182 322.013 201.056 323.263C189.645 327.952 176.202 346.241 169.012 362.34L172.451 362.34C179.485 347.491 192.146 330.297 202.306 326.077C204.963 324.982 254.357 318.73 287.807 318.73C299.687 318.73 307.971 319.512 312.035 321.231C325.478 326.389 350.644 350.617 353.614 362.34L356.74 362.34C354.083 348.898 326.885 323.732 313.286 318.417" fill="#e5d0ae" fill-rule="nonzero" opacity="1" stroke="none" vectornator:layerName="path"/>
<path d="M375.184 319.824C373.309 323.732 363.461 333.736 355.177 331.391C350.8 330.141 351.582 353.274 361.585 362.497L379.717 362.497C384.719 354.525 392.535 330.141 393.473 327.64C394.567 324.67 377.06 315.917 375.184 319.824" fill="#ba8449" fill-rule="nonzero" opacity="1" stroke="none" vectornator:layerName="path"/>
<path d="M394.41 325.608C394.098 320.606 391.128 317.011 385.813 315.76C381.593 314.822 375.966 315.604 374.559 318.261C371.745 323.576 368.307 329.984 351.269 330.922C350.175 330.922 349.237 332.016 349.237 333.111C349.237 334.205 350.331 335.143 351.425 335.143C369.245 334.361 374.403 327.483 378.154 320.449C378.936 319.824 383.156 319.043 386.595 320.449C389.096 321.544 390.19 323.263 390.346 325.92C390.815 335.611 380.655 353.587 375.184 362.653L380.03 362.653C386.126 352.024 394.879 335.611 394.41 325.608" fill="#895b2e" fill-rule="nonzero" opacity="1" stroke="none" vectornator:layerName="path"/>
<g opacity="0.15" vectornator:layerName="path">
<clipPath clip-rule="nonzero" id="ClipPath_4">
<path d="M358.147 322.638L394.879 322.638L394.879 365.31L358.147 365.31L358.147 322.638Z"/>
</clipPath>
<g clip-path="url(#ClipPath_4)">
<path d="M359.295 362.966C370.393 360.308 380.241 349.21 381.022 333.423C381.179 330.453 375.083 324.826 375.083 323.263C375.083 321.7 393.684 323.576 394.621 327.952C395.403 332.329 383.054 358.745 378.834 363.122C374.77 367.342 352.73 364.529 359.295 362.966" fill="#e3ab5e" fill-rule="nonzero" opacity="1" stroke="none" vectornator:layerName="path"/>
</g>
</g>
<path d="M367.994 309.039C366.587 318.73 385.501 332.016 398.318 331.704C408.947 331.391 420.983 326.389 419.264 320.449C417.544 314.353 407.228 321.544 406.29 317.323C405.508 313.259 418.326 305.6 413.167 299.973C408.322 294.815 402.695 308.101 397.068 306.225C391.44 304.35 398.162 291.376 391.128 290.594C382.843 289.813 385.97 308.257 379.717 308.57C375.341 309.039 368.463 305.913 367.994 309.039" fill="#fcd4c3" fill-rule="nonzero" opacity="1" stroke="none" vectornator:layerName="path"/>
<path d="M367.994 309.039C366.587 318.73 385.501 332.016 398.318 331.704C408.947 331.391 420.983 326.389 419.264 320.449C417.544 314.353 407.228 321.544 406.29 317.323C405.508 313.259 418.326 305.6 413.167 299.973C408.322 294.815 402.695 308.101 397.068 306.225C391.44 304.35 398.162 291.376 391.128 290.594C382.843 289.813 385.97 308.257 379.717 308.57C375.341 309.039 368.463 305.913 367.994 309.039Z" fill="none" opacity="1" stroke="#f8a38f" stroke-linecap="butt" stroke-linejoin="miter" stroke-width="2" vectornator:layerName="path"/>
<g opacity="0.5" vectornator:layerName="path">
<clipPath clip-rule="nonzero" id="ClipPath_5">
<path d="M373.309 301.223L385.501 301.223L385.501 311.227L373.309 311.227L373.309 301.223Z"/>
</clipPath>
<g clip-path="url(#ClipPath_5)">
<path d="M373.368 308.948C375.4 310.511 382.747 312.543 383.841 309.886C385.091 307.229 386.029 301.914 385.248 301.133C384.622 303.634 383.841 308.323 381.183 309.417C379.151 310.199 374.775 309.261 373.368 308.948" fill="#fcd4c3" fill-rule="nonzero" opacity="1" stroke="none" vectornator:layerName="path"/>
</g>
</g>
<g opacity="0.5" vectornator:layerName="path">
<clipPath clip-rule="nonzero" id="ClipPath_6">
<path d="M393.16 298.722L405.196 298.722L405.196 309.977L393.16 309.977L393.16 298.722Z"/>
</clipPath>
<g clip-path="url(#ClipPath_6)">
<path d="M393.565 298.632C393.252 300.351 391.845 308.479 396.066 309.573C399.661 310.511 402.318 308.323 405.132 303.79C403.569 305.197 399.661 308.636 396.691 307.385C393.721 305.978 393.408 302.852 393.565 298.632" fill="#fcd4c3" fill-rule="nonzero" opacity="1" stroke="none" vectornator:layerName="path"/>
</g>
</g>
<g opacity="0.25" vectornator:layerName="path">
<clipPath clip-rule="nonzero" id="ClipPath_7">
<path d="M375.341 317.167L400.037 317.167L400.037 330.61L375.341 330.61L375.341 317.167Z"/>
</clipPath>
<g clip-path="url(#ClipPath_7)">
<path d="M375.459 320.54C396.717 310.067 401.094 327.105 400 330.544C391.559 331.951 376.71 323.197 375.459 320.54" fill="#fcd4c3" fill-rule="nonzero" opacity="1" stroke="none" vectornator:layerName="path"/>
</g>
</g>
<g opacity="0.5" vectornator:layerName="path">
<clipPath clip-rule="nonzero" id="ClipPath_8">
<path d="M404.258 313.884L413.167 313.884L413.167 321.7L404.258 321.7L404.258 313.884Z"/>
</clipPath>
<g clip-path="url(#ClipPath_8)">
<path d="M406.37 313.878C402.774 317.942 404.494 321.225 406.839 321.694C409.808 322.319 413.716 319.193 413.091 319.193C412.309 319.193 406.526 321.068 405.432 318.255C404.65 316.067 405.901 314.816 406.37 313.878" fill="#fcd4c3" fill-rule="nonzero" opacity="1" stroke="none" vectornator:layerName="path"/>
</g>
</g>
<g opacity="0.15" vectornator:layerName="path">
<clipPath clip-rule="nonzero" id="ClipPath_9">
<path d="M159.008 300.911L360.491 300.911L360.491 357.964L159.008 357.964L159.008 300.911Z"/>
</clipPath>
<g clip-path="url(#ClipPath_9)">
<path d="M163.595 341.029C231.902 380.263 367.422 340.404 360.232 327.587C350.697 310.549 346.945 299.92 326 300.858C305.211 301.952 171.41 312.581 165.939 316.645C160.625 320.865 154.685 335.871 163.595 341.029" fill="#e3ab5e" fill-rule="nonzero" opacity="1" stroke="none" vectornator:layerName="path"/>
</g>
</g>
<path d="M312.504 105.368C343.141 102.554 361.116 70.8234 379.717 75.669C367.213 83.4845 354.864 99.1154 337.514 124.75C333.293 130.846 304.064 106.149 312.504 105.368" fill="#fff8ee" fill-rule="nonzero" opacity="1" stroke="none" vectornator:layerName="path"/>
<path d="M312.504 105.368C343.141 102.554 361.116 70.8234 379.717 75.669C367.213 83.4845 354.864 99.1154 337.514 124.75C333.293 130.846 304.064 106.149 312.504 105.368Z" fill="none" opacity="1" stroke="#e5d0ae" stroke-linecap="round" stroke-linejoin="round" stroke-width="3" vectornator:layerName="path"/>
<path d="M121.025 98.4902C134.78 85.6728 159.634 90.6747 179.641 97.8649C191.052 101.929 205.901 98.6465 206.839 100.991C209.34 106.462 194.491 117.716 182.299 117.404C170.263 117.247 150.099 94.5824 121.025 98.4902" fill="#ba8449" fill-rule="nonzero" opacity="1" stroke="none" vectornator:layerName="path"/>
<path d="M121.025 98.4902C134.78 85.6728 159.634 90.6747 179.641 97.8649C191.052 101.929 205.901 98.6465 206.839 100.991C209.34 106.462 194.491 117.716 182.299 117.404C170.263 117.247 150.099 94.5824 121.025 98.4902Z" fill="none" opacity="1" stroke="#895b2e" stroke-linecap="round" stroke-linejoin="round" stroke-width="2" vectornator:layerName="path"/>
<path d="M333.45 120.53C340.484 122.562 367.213 70.1982 380.186 75.3564C421.452 91.7689 367.681 154.918 350.644 156.325C333.45 157.575 329.542 119.279 333.45 120.53" fill="#fcd4c3" fill-rule="nonzero" opacity="1" stroke="none" vectornator:layerName="path"/>
<path d="M333.45 120.53C340.484 122.562 367.213 70.1982 380.186 75.3564C421.452 91.7689 367.681 154.918 350.644 156.325C333.45 157.575 329.542 119.279 333.45 120.53Z" fill="none" opacity="1" stroke="#f8a38f" stroke-linecap="butt" stroke-linejoin="miter" stroke-width="2" vectornator:layerName="path"/>
<path d="M184.331 114.277C172.92 119.279 132.436 76.9195 115.398 104.117C104.144 122.093 138.219 158.357 162.604 162.264C186.988 166.172 190.27 111.62 184.331 114.277" fill="#fcd4c3" fill-rule="nonzero" opacity="1" stroke="none" vectornator:layerName="path"/>
<path d="M184.331 114.277C172.92 119.279 132.436 76.9195 115.398 104.117C104.144 122.093 138.219 158.357 162.604 162.264C186.988 166.172 190.27 111.62 184.331 114.277Z" fill="none" opacity="1" stroke="#f8a38f" stroke-linecap="butt" stroke-linejoin="miter" stroke-width="2" vectornator:layerName="path"/>
<g opacity="1" vectornator:layerName="path">
<clipPath clip-rule="nonzero" id="ClipPath_10">
<path d="M337.826 85.5165L365.962 85.5165L365.962 155.23L337.826 155.23L337.826 85.5165Z"/>
</clipPath>
<g clip-path="url(#ClipPath_10)">
<path d="M365.285 85.5165C363.097 92.7067 344.652 111.308 347.153 127.251C348.091 133.191 354.344 150.697 357.001 150.072C359.658 149.447 366.379 145.227 365.754 146.165C365.129 147.102 356.376 153.511 353.093 155.23C349.811 153.511 335.899 121.155 337.931 119.436C344.027 113.965 362.628 85.8291 365.285 85.5165" fill="#fcd4c3" fill-rule="nonzero" opacity="1" stroke="none" vectornator:layerName="path"/>
</g>
</g>
<g opacity="1" vectornator:layerName="path">
<clipPath clip-rule="nonzero" id="ClipPath_11">
<path d="M116.023 95.9892L185.112 95.9892L185.112 145.383L116.023 145.383L116.023 95.9892Z"/>
</clipPath>
<g clip-path="url(#ClipPath_11)">
<path d="M115.919 105.211C128.423 97.5523 151.245 100.835 164.531 113.808C169.22 118.498 170.627 134.129 159.998 144.758C155.778 148.978 185.007 129.752 185.164 124.125C185.164 118.498 183.288 116.935 178.911 115.372C162.811 109.432 145.93 95.6766 131.237 95.9892C121.702 96.1455 117.325 102.711 115.919 105.211" fill="#fcd4c3" fill-rule="nonzero" opacity="1" stroke="none" vectornator:layerName="path"/>
</g>
</g>
<g opacity="0.25" vectornator:layerName="path">
<clipPath clip-rule="nonzero" id="ClipPath_12">
<path d="M338.764 81.4524L379.717 81.4524L379.717 150.541L338.764 150.541L338.764 81.4524Z"/>
</clipPath>
<g clip-path="url(#ClipPath_12)">
<path d="M370.339 81.4134C398.787 97.0443 352.988 120.803 356.427 150.346C350.487 149.721 335.794 121.116 339.389 118.615C344.391 115.176 365.493 80.1629 370.339 81.4134" fill="#fcd4c3" fill-rule="nonzero" opacity="1" stroke="none" vectornator:layerName="path"/>
</g>
</g>
<path d="M150.88 177.426C151.349 175.394 151.662 173.206 151.662 171.174C151.818 168.986 151.975 166.797 152.443 164.765C152.6 163.671 152.912 162.577 153.381 161.639C153.85 160.701 154.163 159.607 154.475 158.669C155.257 156.637 156.039 154.605 156.976 152.73C160.572 144.758 164.636 137.255 169.637 130.221C174.639 123.187 180.11 116.622 186.363 110.995C192.615 105.211 199.961 100.522 207.777 97.396C215.592 94.1135 224.033 92.0815 232.474 91.1436C240.915 90.0495 249.355 89.8931 257.796 90.0495C266.237 90.2058 274.677 90.6747 283.118 91.7689C291.559 92.863 299.999 94.7387 308.128 97.7086C312.192 99.2717 316.099 100.991 319.851 103.179C323.602 105.368 327.197 108.025 330.48 111.151C333.762 114.121 336.576 117.716 338.921 121.468C341.265 125.219 342.985 129.283 344.548 133.503C345.954 137.568 347.049 141.788 347.986 146.008C348.924 150.229 349.55 154.293 350.487 158.2C350.956 160.076 351.582 161.952 352.207 163.827C352.988 165.703 353.77 167.735 354.395 169.767C355.802 173.675 357.365 177.739 358.772 181.647C364.243 197.59 369.088 213.846 372.058 230.415C373.465 238.7 374.559 247.14 374.715 255.581C374.872 264.022 374.09 272.463 371.745 280.591C371.12 282.623 370.495 284.655 369.713 286.53C368.932 288.406 367.838 290.282 367.213 292.314C366.9 293.408 366.587 294.346 366.118 295.284C365.649 296.222 365.024 297.159 364.399 298.097C363.305 299.817 361.898 301.692 360.491 303.255C355.02 309.82 347.986 315.135 340.484 319.199C332.981 323.263 324.853 326.389 316.725 328.734C308.44 331.079 300.312 332.954 291.871 334.517C283.431 336.08 275.146 337.175 266.862 338.269L254.201 339.676L247.948 340.301C245.916 340.457 243.728 340.613 241.54 340.77C224.346 341.708 207.152 339.207 190.739 334.674C182.455 332.329 174.483 329.515 166.668 326.077C158.852 322.638 151.193 318.73 144.003 314.041C140.408 311.696 136.812 309.039 133.53 306.069C132.748 305.287 131.811 304.506 131.029 303.724C130.248 302.943 129.622 302.005 128.841 301.223C127.434 299.504 126.027 297.785 124.777 296.065C119.931 288.875 116.023 280.434 114.773 271.681C113.366 262.771 114.617 253.705 117.118 245.421C119.618 236.98 123.526 229.321 127.59 221.818C131.811 214.472 136.344 207.281 140.72 200.248C142.909 196.652 144.941 193.057 146.816 189.462C148.536 184.773 150.099 181.178 150.88 177.426ZM157.133 178.833C156.039 183.21 154.163 187.274 152.131 191.182C150.099 195.089 147.91 198.684 145.722 202.28C141.345 209.47 136.812 216.504 132.905 223.694C128.997 230.884 125.402 238.387 123.214 246.046C121.025 253.705 120.087 261.677 121.338 269.493C122.588 277.152 125.871 284.498 130.56 290.907C131.654 292.47 133.061 294.033 134.312 295.596C134.937 296.378 135.718 297.159 136.344 297.785C136.969 298.566 137.75 299.191 138.376 299.817C141.189 302.474 144.472 304.819 147.91 307.163C154.788 311.54 161.978 315.448 169.637 318.73C177.14 322.013 184.956 324.826 192.928 327.014C200.899 329.203 208.871 330.922 216.999 332.016C225.127 333.111 233.255 333.423 241.383 333.111L247.48 332.642L253.732 332.016C257.796 331.704 262.016 331.235 266.237 330.766C274.521 329.984 282.805 328.89 290.934 327.483C299.218 326.077 307.19 324.514 315.162 322.325C323.133 320.137 330.949 317.636 338.452 314.353C345.798 310.915 352.988 306.694 358.772 300.911C360.179 299.504 361.585 297.941 362.836 296.378C363.461 295.596 364.086 294.658 364.712 293.877C365.337 293.095 366.118 292.314 366.744 291.376C368.15 289.657 368.776 287.781 369.713 285.905C370.495 284.029 371.12 281.997 371.589 279.965C373.621 271.837 374.09 263.397 373.621 255.112C372.996 246.828 371.589 238.543 369.557 230.415C365.649 214.159 359.866 198.528 353.77 183.054C352.207 179.146 350.644 175.238 349.081 171.487L346.58 165.703C345.798 163.671 345.017 161.483 344.391 159.451C343.297 155.23 342.516 151.166 341.578 147.102C340.796 143.038 339.702 139.131 338.452 135.379C335.794 127.72 331.887 120.842 326.103 115.372C320.476 109.901 313.442 105.68 305.939 102.554C298.436 99.428 290.308 97.396 282.18 95.9892C274.052 94.5824 265.768 93.8009 257.483 93.332C249.199 93.0193 240.758 92.863 232.474 93.8009C224.189 94.7387 216.061 96.4581 208.402 99.7406C200.743 102.867 193.709 107.4 187.769 113.027C181.673 118.654 176.828 125.532 173.233 132.722C169.481 140.068 166.824 147.884 164.479 155.699C163.854 157.575 163.385 159.607 162.916 161.639C162.604 162.577 162.447 163.671 162.135 164.609C161.978 165.078 161.978 165.703 161.822 166.172C161.666 166.641 161.509 167.11 161.197 167.579C160.415 169.455 159.477 171.33 158.54 173.206C158.227 174.925 157.602 176.801 157.133 178.833Z" fill="#e5d0ae" fill-rule="nonzero" opacity="1" stroke="none" vectornator:layerName="path"/>
<path d="M154.007 178.208C147.442 207.281 90.076 253.236 133.686 300.286C148.536 316.229 196.679 340.77 244.979 336.237C370.651 324.357 402.382 294.033 349.393 163.984C340.796 142.882 350.487 94.1135 258.109 91.2999C219.344 90.2058 172.764 95.5203 154.007 178.208" fill="#fff8ee" fill-rule="nonzero" opacity="1" stroke="none" vectornator:layerName="path"/>
<path d="M175.734 121.311C179.798 115.059 185.112 109.901 191.052 105.68C196.992 101.46 203.713 98.3339 210.434 95.8329C224.189 90.831 238.57 88.9553 252.95 88.4864C267.331 88.1737 281.868 89.2679 295.935 92.863C302.969 94.7387 309.847 97.2397 316.412 100.835C322.977 104.43 329.073 108.807 334.231 114.277C339.389 119.748 343.61 125.844 346.892 132.566C350.175 139.287 352.519 146.321 354.239 153.355C355.958 160.545 357.052 167.579 357.99 174.613C358.459 178.208 358.928 181.647 359.71 184.929C360.022 186.649 360.491 188.212 360.96 189.462L361.429 190.4L361.585 190.556L361.742 190.713L362.054 191.338L363.461 193.683C370.339 206.344 375.497 220.255 377.373 234.792C378.31 241.982 378.467 249.329 377.685 256.675C376.904 263.865 375.028 271.056 372.214 277.777C370.808 281.06 369.245 284.342 367.369 287.625L365.962 289.969C365.493 290.751 365.024 291.376 364.399 292.314C364.243 292.47 364.243 292.626 364.086 292.783C363.617 292.47 364.712 293.877 361.585 292.783C360.804 291.376 361.273 291.689 361.116 291.376C361.116 290.907 361.273 290.751 361.273 290.438L361.742 289.031L362.523 286.53C364.712 279.809 366.587 273.088 367.369 266.054C367.681 262.615 367.838 259.176 367.369 255.581C366.9 252.142 365.962 248.86 364.243 246.046C363.774 245.265 363.305 244.639 362.68 244.014C362.054 243.389 361.585 242.764 360.96 242.138C359.71 240.888 358.459 239.794 357.052 238.7C354.239 236.511 351.269 234.792 348.143 233.229C341.734 230.415 334.7 229.321 327.823 229.634C320.789 229.946 313.911 231.353 307.19 233.229C303.751 234.167 300.468 235.261 297.03 236.355C295.31 236.98 293.591 237.449 291.871 237.918C290.934 238.231 290.152 238.387 289.058 238.543C288.12 238.7 287.338 238.856 286.401 238.856C279.21 239.638 272.176 240.106 264.83 239.95C257.64 239.794 250.449 239.012 243.259 237.449C236.225 235.886 229.191 233.541 222.626 230.572C216.061 227.445 209.809 223.694 204.182 219.005C198.555 214.315 193.553 209.001 189.176 203.217C180.423 191.494 174.639 177.895 171.826 163.671C170.419 156.481 169.794 149.291 170.106 141.944C170.263 138.349 170.732 134.598 171.513 131.003C172.451 128.189 173.702 124.594 175.734 121.311ZM178.86 123.343C177.14 126.157 176.046 129.283 175.265 132.722C174.483 136.004 174.17 139.443 173.858 142.882C173.545 149.76 174.327 156.794 175.734 163.515C178.703 177.114 184.487 190.087 192.928 201.029C197.148 206.5 201.994 211.502 207.308 215.879C212.623 220.255 218.562 224.007 224.815 226.976C231.067 229.946 237.632 232.135 244.51 233.698C251.231 235.261 258.265 236.199 265.143 236.355C272.176 236.668 279.054 236.355 286.088 235.573L288.745 235.261C289.527 235.105 290.308 234.948 291.246 234.792C292.966 234.323 294.529 233.854 296.248 233.385C299.687 232.447 303.126 231.353 306.564 230.572C313.442 228.852 320.632 227.602 327.979 227.602C335.169 227.602 342.516 228.852 349.081 231.978C352.363 233.541 355.489 235.417 358.303 237.606C359.71 238.7 361.116 239.95 362.367 241.201L364.243 243.076C364.868 243.702 365.493 244.483 365.962 245.265C367.994 248.391 369.088 251.986 369.557 255.737C370.026 259.489 370.026 263.084 369.713 266.679C369.088 273.869 367.525 280.903 365.493 287.781L364.712 290.282L364.399 291.532C364.399 291.689 364.243 292.001 364.399 292.001C364.243 291.845 364.712 292.314 364.086 290.907C361.116 289.813 362.211 291.22 361.898 290.751C362.211 290.125 362.68 289.344 363.148 288.562C363.617 287.781 363.93 286.999 364.399 286.218C365.962 283.092 367.369 279.965 368.619 276.683C373.309 263.709 374.246 249.485 371.902 235.886C370.808 229.008 368.776 222.444 366.275 216.035C363.774 209.626 360.804 203.374 357.365 197.278L356.115 195.089L355.802 194.464L355.646 194.152L355.489 193.839C355.177 193.37 355.02 192.901 354.864 192.432C354.083 190.556 353.614 188.524 353.145 186.805C352.363 183.21 351.738 179.615 351.269 176.176C350.175 169.142 349.237 162.264 347.518 155.543C345.954 148.822 343.766 142.257 340.796 136.161C337.826 130.065 334.231 124.438 329.542 119.436C320.476 109.588 307.971 103.023 294.685 99.1154C281.399 95.2077 267.331 93.9572 253.263 93.9572C239.351 93.9572 225.284 95.6766 212.154 100.053C205.589 102.242 199.336 105.211 193.553 109.119C187.613 112.871 182.611 117.56 178.86 123.343Z" fill="#e5bfa1" fill-rule="nonzero" opacity="1" stroke="none" vectornator:layerName="path"/>
<path d="M173.858 120.53C176.202 116.778 179.016 113.808 181.83 110.995C184.799 108.181 187.926 105.837 191.208 103.648C197.773 99.2717 204.807 95.8329 212.154 93.1756C226.847 88.0174 242.321 85.9854 257.64 86.298C272.802 86.767 288.12 88.6427 302.813 93.9572C310.16 96.6145 317.194 100.053 323.602 104.743C330.011 109.276 335.638 114.903 340.327 121.311C344.86 127.72 348.299 134.754 350.956 142.1C353.457 149.447 355.177 156.95 356.427 164.296C357.052 168.048 357.521 171.643 358.147 175.394C358.772 178.989 359.241 182.741 359.866 186.023C360.179 187.743 360.648 189.306 361.273 190.556L361.429 190.869L361.585 191.182L361.898 191.807L362.523 193.057L363.93 195.558C365.649 198.841 367.369 202.28 368.932 205.718C371.902 212.596 374.403 219.943 376.122 227.445C377.842 234.792 378.623 242.451 378.623 250.11C378.467 265.429 374.246 280.591 366.275 293.564C365.649 294.502 364.399 294.971 363.461 294.346C362.523 293.721 362.211 292.626 362.523 291.845C364.712 286.218 367.056 280.903 368.776 275.432C370.651 269.962 371.902 264.334 371.902 258.864C371.902 253.393 370.495 248.078 367.213 243.858C367.056 243.545 366.744 243.233 366.587 243.076L366.275 242.764L365.962 242.295L364.555 240.888C363.617 239.95 362.523 239.012 361.429 238.231C359.241 236.511 356.74 234.948 354.395 233.385C344.548 227.289 334.075 221.975 323.446 216.66C312.817 211.502 302.032 206.5 291.402 201.654C269.832 191.807 248.261 181.959 227.003 171.33C216.374 165.86 205.901 160.389 195.585 153.824C190.114 149.916 185.112 146.477 180.267 142.1C177.922 139.912 175.577 137.411 173.702 133.972C172.764 132.253 171.982 130.221 171.826 127.72C171.826 126.47 171.826 125.219 172.138 123.969C172.295 123.343 172.451 122.718 172.764 122.093C172.92 121.624 173.389 120.686 173.545 120.53C173.545 120.53 173.858 120.53 173.858 120.53ZM182.611 125.844C182.299 126.313 182.455 126.157 182.299 126.313C182.299 126.47 182.299 126.47 182.142 126.626L182.142 127.251C182.142 127.72 182.455 128.502 182.767 129.439C183.705 131.315 185.425 133.347 187.3 135.067C191.208 138.818 195.741 142.257 200.587 145.383C210.122 151.792 220.438 157.419 230.911 163.046C251.7 173.988 273.114 184.148 294.372 194.464C305.001 199.622 315.63 204.937 326.259 210.251C336.889 215.722 347.361 221.193 357.521 227.914C360.022 229.634 362.523 231.353 364.868 233.385C366.118 234.323 367.213 235.417 368.463 236.511C369.088 237.137 369.557 237.606 370.182 238.387L370.495 238.856L370.964 239.325C371.277 239.638 371.433 239.95 371.745 240.263C373.621 242.92 375.028 245.89 375.966 249.016C376.904 252.142 377.06 255.425 377.06 258.551C376.904 264.803 375.184 270.899 373.152 276.683C371.12 282.466 368.619 287.781 366.275 293.252L362.523 291.376C369.87 278.871 373.309 264.491 373.152 250.11C372.84 235.73 369.088 221.506 362.992 208.376C361.429 205.093 359.866 201.811 357.99 198.684L355.177 193.683C354.083 191.651 353.614 189.619 353.145 187.743C352.207 183.835 351.582 180.24 350.956 176.489C350.331 172.737 349.706 169.142 349.081 165.703C347.674 158.513 345.954 151.635 343.453 144.914C340.953 138.349 337.67 131.94 333.606 126.47C329.542 120.842 324.384 115.997 318.757 112.089C312.973 108.181 306.721 105.055 299.999 102.867C286.557 98.3339 272.176 96.7708 257.796 96.6145C250.606 96.6145 243.572 96.9271 236.538 98.1775C229.504 99.2717 222.626 100.991 216.061 103.336C209.496 105.68 203.088 108.65 197.304 112.402C194.334 114.277 191.677 116.309 189.176 118.654C186.675 120.999 184.331 123.343 182.611 125.844Z" fill="#895b2e" fill-rule="nonzero" opacity="1" stroke="none" vectornator:layerName="path"/>
<path d="M177.297 122.249C160.103 148.822 180.579 250.892 288.589 237.137C299.999 235.73 337.983 215.41 363.617 243.858C377.529 259.489 358.772 299.035 363.617 290.751C369.088 281.685 390.034 246.671 358.616 192.745C348.612 175.394 365.181 92.0815 257.014 90.9873C215.592 90.831 188.707 104.586 177.297 122.249" fill="#ba8449" fill-rule="nonzero" opacity="1" stroke="none" vectornator:layerName="path"/>
<g opacity="0.15" vectornator:layerName="path">
<clipPath clip-rule="nonzero" id="ClipPath_13">
<path d="M152.131 116.466L335.482 116.466L335.482 291.376L152.131 291.376L152.131 116.466Z"/>
</clipPath>
<g clip-path="url(#ClipPath_13)">
<path d="M174.433 128.709C205.539 108.702 299.637 110.109 329.648 158.096C349.656 189.983 313.079 268.763 299.481 278.766C286.038 288.77 267.281 297.524 217.887 285.644C175.996 275.64 238.989 236.719 189.908 231.092C145.047 225.934 140.514 150.593 174.433 128.709" fill="#e3ab5e" fill-rule="nonzero" opacity="1" stroke="none" vectornator:layerName="path"/>
</g>
</g>
<g opacity="0.25" vectornator:layerName="path">
<clipPath clip-rule="nonzero" id="ClipPath_14">
<path d="M240.915 201.811L261.391 201.811L261.391 210.408L240.915 210.408L240.915 201.811Z"/>
</clipPath>
<g clip-path="url(#ClipPath_14)">
<path d="M261.391 206.134C261.391 208.479 256.858 210.511 251.231 210.511C245.604 210.511 241.071 208.635 241.071 206.134C241.071 203.79 245.604 201.758 251.231 201.758C256.858 201.914 261.391 203.79 261.391 206.134" fill="#e3ab5e" fill-rule="nonzero" opacity="1" stroke="none" vectornator:layerName="path"/>
</g>
</g>
<path d="M243.415 193.37C245.76 191.807 258.265 192.276 259.828 193.995C261.391 195.558 264.83 202.123 260.922 204.937C259.515 205.875 259.515 201.967 256.389 202.592C252.638 203.374 254.67 208.219 251.7 208.219C247.167 208.063 251.544 202.905 247.636 202.28C244.666 201.654 244.041 204.624 242.634 204.312C238.101 203.374 240.133 195.558 243.415 193.37" fill="#f8a38f" fill-rule="nonzero" opacity="1" stroke="none" vectornator:layerName="path"/>
<g opacity="1" vectornator:layerName="path">
<clipPath clip-rule="nonzero" id="ClipPath_15">
<path d="M239.977 192.432L262.642 192.432L262.642 207.907L239.977 207.907L239.977 192.432Z"/>
</clipPath>
<g clip-path="url(#ClipPath_15)">
<path d="M250.168 192.44C247.198 192.44 244.385 192.753 243.447 193.378C240.164 195.566 238.132 203.382 242.509 204.163L242.665 204.163C243.759 204.163 244.385 201.975 246.729 201.975L247.511 201.975C251.419 202.6 247.198 207.915 251.575 207.915C254.388 207.915 252.356 203.225 256.264 202.444L256.889 202.444C259.078 202.444 259.39 204.945 260.328 204.945C260.484 204.945 260.641 204.945 260.797 204.788C264.861 201.975 261.422 195.41 259.703 193.847C258.921 193.065 254.388 192.44 250.168 192.44M250.168 193.534C254.857 193.534 258.452 194.159 259.078 194.628C260.016 195.566 261.891 199.005 261.579 201.506C261.422 202.444 261.11 203.225 260.484 203.694C260.484 203.538 260.328 203.538 260.172 203.382C259.547 202.6 258.609 201.35 256.889 201.35C256.577 201.35 256.264 201.35 256.108 201.506C253.451 202.131 252.982 204.163 252.513 205.57C252.2 206.977 252.044 206.977 251.575 206.977C250.324 206.977 250.324 206.664 250.324 205.257C250.324 203.851 250.324 201.662 247.511 201.193L246.573 201.193C244.854 201.193 243.759 202.287 242.978 202.913C242.822 203.069 242.509 203.382 242.353 203.382C241.727 203.225 241.102 202.913 240.789 201.662C240.321 199.474 241.884 195.722 243.603 194.472C244.541 193.847 246.729 193.534 250.168 193.534" fill="#f8a38f" fill-rule="nonzero" opacity="1" stroke="none" vectornator:layerName="path"/>
</g>
</g>
<g opacity="0.25" vectornator:layerName="path">
<clipPath clip-rule="nonzero" id="ClipPath_16">
<path d="M171.513 210.72L347.986 210.72L347.986 310.915L171.513 310.915L171.513 210.72Z"/>
</clipPath>
<g clip-path="url(#ClipPath_16)">
<path d="M347.672 234.401C352.362 264.413 314.847 302.083 264.359 309.899C213.871 317.558 176.67 272.541 171.981 242.373C167.291 212.362 198.241 223.772 248.728 216.113C299.216 208.454 342.983 204.39 347.672 234.401" fill="#f7e8d0" fill-rule="nonzero" opacity="1" stroke="none" vectornator:layerName="path"/>
</g>
</g>
<g opacity="0.5" vectornator:layerName="path">
<clipPath clip-rule="nonzero" id="ClipPath_17">
<path d="M180.735 212.283L327.041 212.283L327.041 286.53L180.735 286.53L180.735 212.283Z"/>
</clipPath>
<g clip-path="url(#ClipPath_17)">
<path d="M215.928 280.086C214.522 277.897 213.74 275.24 212.959 272.739L210.614 265.236C209.051 260.234 207.331 255.233 204.987 250.543C202.642 245.854 199.672 241.477 195.921 238.195C192.169 234.912 187.636 232.724 182.791 231.786C181.071 231.161 180.29 229.441 180.915 227.878C181.54 226.315 183.104 225.534 184.51 225.846C195.765 228.504 207.488 229.754 219.055 229.91C230.622 230.067 242.501 229.441 254.224 228.035C265.947 226.628 277.514 224.596 288.925 221.939C300.336 219.281 311.746 216.155 322.844 212.404C324.564 211.779 326.283 212.716 326.752 214.279C327.221 215.53 326.752 216.78 325.814 217.562C325.501 217.875 324.876 218.344 324.407 218.812C323.938 219.281 323.469 219.907 323 220.376C322.063 221.47 321.125 222.72 320.187 223.971C318.311 226.472 316.592 228.973 315.029 231.63C311.59 236.788 308.464 242.103 305.494 247.573C302.524 253.044 299.554 258.515 296.897 263.986C295.49 266.799 294.239 269.613 293.145 272.427C292.52 273.833 292.051 275.24 291.426 276.803C291.113 277.585 290.957 278.21 290.801 278.992L290.801 279.304C290.801 279.46 290.801 279.46 290.644 279.617C290.644 279.773 290.488 279.929 290.332 279.929C290.175 280.086 290.019 280.242 289.707 280.398C289.394 280.711 288.925 280.867 288.612 281.024C285.642 282.274 282.516 282.899 279.546 283.525C276.577 284.15 273.45 284.619 270.324 284.931C264.072 285.713 257.976 286.338 251.723 286.494C245.471 286.807 239.219 286.807 233.123 286.182C229.996 285.869 226.87 285.4 223.9 284.619C222.337 284.15 220.93 283.681 219.524 282.899C218.117 282.274 216.866 281.336 215.928 280.086M216.085 279.929C216.866 281.18 218.273 282.118 219.68 282.743C221.087 283.368 222.493 283.837 224.057 284.306C227.026 285.088 230.153 285.557 233.279 285.713C239.531 286.182 245.627 286.182 251.88 285.869C258.132 285.557 264.228 284.775 270.324 283.993C273.294 283.525 276.42 283.056 279.39 282.274C282.36 281.492 285.486 280.867 288.143 279.617C288.456 279.46 288.769 279.304 289.081 278.992C289.394 278.835 289.55 278.679 289.55 278.523C289.707 277.741 289.863 276.96 290.175 276.178C290.644 274.615 291.113 273.208 291.582 271.645C292.676 268.675 293.771 265.862 295.021 262.892C297.522 257.108 300.023 251.481 302.68 245.854C305.337 240.227 308.151 234.6 311.121 229.129C312.528 226.315 314.091 223.658 315.81 220.844C316.592 219.438 317.53 218.031 318.467 216.78C318.936 216.155 319.405 215.374 319.874 214.748C320.499 214.123 320.968 213.342 321.75 212.716L324.72 218.031C313.309 221.939 301.899 225.065 290.175 227.722C278.452 230.379 266.729 232.568 254.85 233.974C242.97 235.381 230.934 236.163 218.898 235.85C206.863 235.538 194.827 234.131 182.947 231.317L184.667 225.065C189.825 228.191 194.514 231.161 198.109 235.381C201.704 239.602 204.205 244.447 206.237 249.449C208.113 254.451 209.676 259.609 210.927 264.611C211.552 267.112 212.333 269.769 212.959 272.27C213.896 275.24 214.678 277.741 216.085 279.929" fill="#d8cab2" fill-rule="nonzero" opacity="1" stroke="none" vectornator:layerName="path"/>
</g>
</g>
<g opacity="0.5" vectornator:layerName="path">
<clipPath clip-rule="nonzero" id="ClipPath_18">
<path d="M182.299 213.846L325.478 213.846L325.478 286.53L182.299 286.53L182.299 213.846Z"/>
</clipPath>
<g clip-path="url(#ClipPath_18)">
<path d="M215.955 280.103C214.548 277.915 213.767 275.414 212.985 272.913C212.204 270.412 211.578 267.911 210.797 265.41C209.234 260.408 207.671 255.406 205.326 250.56C203.138 245.871 200.168 241.494 196.573 238.056C192.821 234.461 188.288 231.96 183.443 230.865L183.443 230.709C182.661 230.397 182.192 229.459 182.505 228.677C182.817 227.896 183.599 227.427 184.381 227.583C195.791 230.24 207.514 231.491 219.394 231.647C231.273 231.803 242.997 231.178 254.72 229.771C266.443 228.365 278.01 226.176 289.577 223.675C301.144 221.018 312.554 217.892 323.652 214.14C324.434 213.828 325.372 214.297 325.684 215.078C325.841 215.703 325.684 216.329 325.215 216.798C324.277 217.579 323.183 218.83 322.245 219.924C321.308 221.018 320.37 222.425 319.432 223.519C317.712 226.02 315.993 228.677 314.43 231.334C311.147 236.493 308.021 241.963 305.051 247.434C302.082 252.905 299.268 258.376 296.767 264.003L293.016 272.444C292.39 273.851 291.921 275.257 291.452 276.82C291.14 277.602 290.984 278.227 290.827 279.009C290.671 279.634 290.202 279.79 289.889 280.103C289.577 280.416 289.108 280.572 288.795 280.728C285.825 281.979 282.699 282.604 279.729 283.229C276.759 283.854 273.633 284.323 270.507 284.792C264.411 285.574 258.159 286.199 251.906 286.512C245.654 286.824 239.401 286.824 233.305 286.199C230.179 285.886 227.053 285.417 224.083 284.636C222.52 284.167 221.113 283.698 219.706 283.073C218.143 282.291 216.737 281.353 215.955 280.103M215.955 279.947C216.737 281.197 218.143 282.135 219.55 282.916C220.957 283.542 222.364 284.011 223.927 284.48C226.897 285.261 230.023 285.73 233.149 285.886C239.401 286.512 245.498 286.355 251.75 286.043C258.002 285.73 264.098 285.105 270.351 284.167C273.321 283.698 276.447 283.229 279.573 282.448C282.543 281.822 285.669 281.041 288.326 279.79C288.639 279.634 288.952 279.478 289.264 279.165C289.577 279.009 289.889 278.696 289.889 278.54C290.046 277.758 290.202 276.977 290.515 276.195C290.984 274.632 291.452 273.225 292.078 271.819C293.172 268.849 294.422 266.035 295.673 263.221C298.174 257.438 300.831 251.967 303.645 246.34C306.458 240.713 309.272 235.242 312.398 229.771C313.961 226.958 315.524 224.3 317.244 221.8C318.025 220.393 318.963 219.142 319.901 217.892C320.839 216.641 321.777 215.391 323.183 214.14L324.746 216.954C313.492 220.862 301.925 223.988 290.358 226.645C278.791 229.302 267.068 231.334 255.189 232.897C243.309 234.304 231.43 235.086 219.394 234.773C207.514 234.461 195.479 233.21 183.755 230.553L184.537 227.583C189.695 229.615 194.384 232.741 197.979 236.805C201.575 240.869 204.232 245.559 206.264 250.404C208.296 255.25 209.859 260.252 211.266 265.41C211.891 267.911 212.673 270.412 213.454 273.069C213.767 275.257 214.548 277.758 215.955 279.947" fill="#d8cab2" fill-rule="nonzero" opacity="1" stroke="none" vectornator:layerName="path"/>
</g>
</g>
<path d="M216.061 279.965C224.033 292.47 289.214 283.873 290.308 278.871C293.122 266.21 316.568 221.506 324.071 215.253C310.629 219.943 240.758 242.295 184.018 228.696C209.496 237.293 209.809 270.274 216.061 279.965" fill="#333333" fill-rule="nonzero" opacity="1" stroke="none" vectornator:layerName="path"/>
<g opacity="1" vectornator:layerName="path">
<clipPath clip-rule="nonzero" id="ClipPath_19">
<path d="M183.862 215.41L323.915 215.41L323.915 286.374L183.862 286.374L183.862 215.41Z"/>
</clipPath>
<g clip-path="url(#ClipPath_19)">
<path d="M323.837 215.488C313.364 219.083 269.285 233.307 223.642 233.307C210.2 233.307 196.757 232.057 183.783 229.087C209.418 237.371 209.731 270.509 215.983 280.2C218.953 284.889 230.364 286.609 243.337 286.609C264.283 286.609 289.449 282.232 290.23 279.106C293.044 266.288 316.334 221.584 323.837 215.488M315.083 221.584C304.923 236.902 290.23 266.445 287.26 277.543C283.353 279.731 263.189 283.482 243.337 283.482C227.394 283.482 220.204 280.825 218.64 278.48C217.077 276.136 215.827 271.759 214.576 266.757C211.919 257.222 208.168 244.092 199.258 235.026C207.074 235.964 215.202 236.433 223.799 236.433C261 236.277 297.42 226.898 315.083 221.584" fill="#333333" fill-rule="nonzero" opacity="1" stroke="none" vectornator:layerName="path"/>
</g>
</g>
<path d="M242.79 286.53C229.348 286.53 220.594 284.655 217.156 280.903C216.843 280.591 216.843 278.715 218.406 275.12C222.157 266.523 233.724 251.83 253.732 250.579C255.139 250.579 256.389 250.423 257.64 250.423C281.086 250.423 295.154 262.302 295.154 264.334C294.841 264.96 294.529 265.898 294.06 267.148C292.809 270.118 290.934 274.807 289.214 279.809C287.182 281.841 263.736 286.53 242.79 286.53" fill="#fcd4c3" fill-rule="nonzero" opacity="1" stroke="none" vectornator:layerName="path"/>
<path d="M257.64 249.641C256.233 249.641 254.982 249.641 253.576 249.798C226.221 251.517 213.56 278.559 216.374 281.841C220.438 286.218 230.911 287.781 242.79 287.781C263.892 287.781 289.37 282.935 290.152 280.591C292.497 273.557 295.154 267.773 296.248 264.96C297.186 262.146 281.399 249.485 257.64 249.641M257.64 251.673C278.585 251.673 292.653 261.677 294.06 264.647C293.747 265.272 293.434 266.054 293.122 266.992C291.871 269.962 289.996 274.338 288.276 279.34C284.994 281.216 263.11 285.436 242.79 285.436C230.129 285.436 221.376 283.56 218.093 280.278C217.937 279.184 219.031 274.807 222.939 269.336C226.378 264.334 236.382 252.611 253.732 251.673L257.64 251.673" fill="#f8a38f" fill-rule="nonzero" opacity="1" stroke="none" vectornator:layerName="path"/>
<g opacity="1" vectornator:layerName="path">
<clipPath clip-rule="nonzero" id="ClipPath_20">
<path d="M216.843 249.016L295.31 249.016L295.31 281.372L216.843 281.372L216.843 249.016Z"/>
</clipPath>
<g clip-path="url(#ClipPath_20)">
<path d="M216.818 280.148C214.942 288.589 266.681 247.167 294.504 267.018C300.287 259.359 269.494 246.385 251.519 249.355C236.357 252.013 220.726 261.704 216.818 280.148" fill="#fcd4c3" fill-rule="nonzero" opacity="1" stroke="none" vectornator:layerName="path"/>
</g>
</g>
<path d="M227.316 235.573C229.973 240.263 234.818 263.084 236.851 263.553C238.883 264.022 251.7 267.617 253.419 266.835C255.295 266.054 255.139 261.677 257.014 262.928C258.578 264.022 259.359 266.054 260.922 265.272C263.736 263.865 272.02 258.707 273.427 256.519C274.677 254.174 274.521 241.201 273.427 230.884C268.112 233.385 236.694 236.668 227.316 235.573" fill="#fff7e3" fill-rule="nonzero" opacity="1" stroke="none" vectornator:layerName="path"/>
<g opacity="1" vectornator:layerName="path">
<clipPath clip-rule="nonzero" id="ClipPath_21">
<path d="M227.316 231.041L274.365 231.041L274.365 267.304L227.316 267.304L227.316 231.041Z"/>
</clipPath>
<g clip-path="url(#ClipPath_21)">
<path d="M273.505 230.962C268.816 232.994 244.275 235.808 231.927 235.808C230.051 235.808 228.644 235.808 227.394 235.652C230.051 240.341 234.897 263.162 236.929 263.631C238.804 264.1 249.433 267.07 252.716 267.07C253.029 267.07 253.341 267.07 253.497 266.914C255.061 266.288 255.217 262.849 256.467 262.849C256.624 262.849 256.936 262.849 257.093 263.162C258.499 263.944 259.125 265.663 260.375 265.663C260.531 265.663 260.844 265.663 261 265.507C263.814 264.1 272.098 258.942 273.505 256.753C274.912 254.409 274.599 241.435 273.505 230.962M272.724 232.369C273.661 242.998 273.661 254.252 272.724 256.128C271.629 258.004 264.126 262.849 260.688 264.569L260.531 264.569C260.219 264.569 259.75 264.1 259.437 263.631C258.968 263.162 258.499 262.693 257.874 262.224C257.405 261.912 257.093 261.755 256.624 261.755C255.217 261.755 254.748 263.162 254.279 264.256C253.966 264.881 253.654 265.819 253.185 265.976L252.716 265.976C250.059 265.976 242.087 263.787 238.804 263.006C238.179 262.849 237.71 262.693 237.398 262.693C236.46 261.599 234.428 254.252 232.865 248.938C231.458 244.092 230.207 239.559 229.113 236.902L232.083 236.902C243.806 236.902 265.69 234.401 272.724 232.369" fill="#ffdc99" fill-rule="nonzero" opacity="1" stroke="none" vectornator:layerName="path"/>
</g>
</g>
<g opacity="1" vectornator:layerName="path">
<clipPath clip-rule="nonzero" id="ClipPath_22">
<path d="M227.472 230.415L273.896 230.415L273.896 246.515L227.472 246.515L227.472 230.415Z"/>
</clipPath>
<g clip-path="url(#ClipPath_22)">
<path d="M230.99 246.593C230.209 238.153 269.13 235.339 273.976 236.121C273.976 234.089 273.663 232.838 273.663 230.493C267.254 233.776 232.241 237.215 227.552 235.808C228.021 236.746 229.74 241.435 230.99 246.593" fill="#eadcbe" fill-rule="nonzero" opacity="1" stroke="none" vectornator:layerName="path"/>
</g>
</g>
<g opacity="1" vectornator:layerName="path">
<clipPath clip-rule="nonzero" id="ClipPath_23">
<path d="M249.512 240.263L258.109 240.263L258.109 263.24L249.512 263.24L249.512 240.263Z"/>
</clipPath>
<g clip-path="url(#ClipPath_23)">
<path d="M250.384 240.213C251.165 242.088 251.947 243.808 252.572 245.684L254.448 251.311L256.167 256.938L257.887 262.565L255.229 263.347L253.979 257.563L252.572 251.78L251.165 246.153C250.54 244.277 250.071 242.401 249.446 240.682L250.384 240.213Z" fill="#ffdc99" fill-rule="nonzero" opacity="1" stroke="none" vectornator:layerName="path"/>
</g>
</g>
<g opacity="0.4" vectornator:layerName="path">
<clipPath clip-rule="nonzero" id="ClipPath_24">
<path d="M116.805 95.9892L178.391 95.9892L178.391 151.792L116.805 151.792L116.805 95.9892Z"/>
</clipPath>
<g clip-path="url(#ClipPath_24)">
<path d="M118.812 107.894C139.445 113.208 136.162 148.847 148.354 151.66C160.703 154.474 176.803 122.274 178.366 115.24C154.607 105.08 143.509 93.2007 126.471 96.6395C120.844 97.7336 113.028 106.331 118.812 107.894" fill="#fcd4c3" fill-rule="nonzero" opacity="1" stroke="none" vectornator:layerName="path"/>
</g>
</g>
<g opacity="0.5" vectornator:layerName="path">
<clipPath clip-rule="nonzero" id="ClipPath_25">
<path d="M149.317 154.136L358.303 154.136L358.303 220.568L149.317 220.568L149.317 154.136Z"/>
</clipPath>
<g clip-path="url(#ClipPath_25)">
<path d="M175.995 212.179C201.942 214.211 223.356 215.305 231.015 207.333C238.675 199.361 241.488 164.035 253.993 164.973C264.622 165.755 268.217 211.71 275.095 212.96C281.972 214.367 330.585 227.653 342.777 215.149C354.813 202.644 360.44 194.828 357.626 187.325C354.813 179.823 283.692 155.595 269.155 154.188C254.618 152.781 156.456 165.13 153.955 171.226C151.454 177.478 148.797 176.54 149.266 183.105C150.204 195.766 150.047 210.147 175.995 212.179" fill="#e3ab5e" fill-rule="nonzero" opacity="1" stroke="none" vectornator:layerName="path"/>
</g>
</g>
<path d="M248.73 159.92C250.606 159.92 257.952 159.295 259.672 160.701C269.05 168.048 268.738 198.216 278.585 207.594C287.338 216.035 335.169 222.131 343.453 212.596C351.738 203.061 363.93 173.988 366.744 171.799C369.557 169.767 375.81 168.204 377.685 165.234C379.561 162.421 377.998 149.603 373.621 150.229C369.245 150.854 360.96 153.511 355.802 152.104C350.644 150.541 325.478 134.754 262.173 144.289C256.077 145.227 249.98 144.289 245.76 143.195C241.54 142.1 217.781 128.345 154.163 137.411C147.91 138.349 139.157 135.535 136.031 135.848C132.905 136.161 131.967 146.008 133.217 148.509C134.468 151.01 141.033 153.198 141.814 156.325C142.596 159.451 148.379 190.087 163.385 202.749C179.329 216.191 219.969 206.813 223.564 204.312C239.664 192.901 243.259 159.92 248.73 159.92" fill="#333333" fill-rule="nonzero" opacity="1" stroke="none" vectornator:layerName="path"/>
<g opacity="1" vectornator:layerName="path">
<clipPath clip-rule="nonzero" id="ClipPath_26">
<path d="M132.436 134.441L378.31 134.441L378.31 217.442L132.436 217.442L132.436 134.441Z"/>
</clipPath>
<g clip-path="url(#ClipPath_26)">
<path d="M193.925 134.477C182.827 134.477 169.541 135.259 153.91 137.603C152.972 137.76 152.034 137.76 151.096 137.76C145.625 137.76 139.217 136.04 136.247 136.04L135.778 136.04C132.652 136.353 131.714 146.2 132.964 148.701C134.215 151.359 140.78 153.391 141.561 156.517C142.343 159.643 148.126 190.28 163.132 202.941C169.384 208.255 179.701 209.975 190.017 209.975C205.648 209.975 221.123 206.067 223.311 204.504C239.567 192.937 243.319 159.956 248.789 159.956C249.571 159.956 251.603 159.799 253.479 159.799C255.98 159.799 258.637 159.956 259.575 160.581C268.953 167.927 268.641 198.095 278.488 207.474C284.115 212.788 305.686 217.321 322.567 217.321C332.102 217.321 340.23 215.914 343.2 212.476C351.485 202.941 363.677 173.867 366.49 171.679C369.304 169.491 375.556 168.084 377.432 165.114C379.151 162.3 377.745 150.108 373.524 150.108L373.212 150.108C369.773 150.577 363.833 152.297 358.988 152.297C357.737 152.297 356.487 152.14 355.392 151.828C351.328 150.577 335.541 141.042 299.59 141.042C288.805 141.042 276.3 141.824 261.763 144.012C260.044 144.325 258.168 144.325 256.605 144.325C252.385 144.325 248.477 143.7 245.507 142.918C242.381 142.605 228 134.477 193.925 134.477M193.925 137.603C222.217 137.603 236.754 143.231 242.068 145.419C243.162 145.888 243.944 146.2 244.725 146.357C247.539 146.982 251.759 147.92 256.605 147.92C258.481 147.92 260.513 147.764 262.232 147.451C275.518 145.419 288.023 144.481 299.59 144.481C329.289 144.481 344.763 151.046 351.485 154.016C352.891 154.641 353.829 154.954 354.611 155.266C356.018 155.735 357.424 155.892 359.144 155.892C362.583 155.892 366.334 155.11 369.46 154.485C370.867 154.172 372.274 153.86 373.368 153.703C374.775 155.266 375.713 162.144 374.931 164.02C374.306 164.958 371.649 166.208 369.773 166.99C367.897 167.771 366.178 168.553 364.927 169.491C363.208 170.741 361.488 174.024 356.487 184.027C351.641 193.562 345.701 205.442 341.168 210.6C339.605 212.476 333.978 214.351 322.724 214.351C306.311 214.351 285.366 209.975 280.677 205.442C276.3 201.378 274.112 191.843 271.923 182.621C269.422 172.304 267.078 162.613 261.607 158.236C260.2 157.142 258.012 156.673 253.635 156.673L248.789 156.673C244.413 156.673 242.537 161.831 239.255 171.21C235.659 181.526 230.501 195.438 221.592 201.847C219.56 203.097 204.866 206.849 190.017 206.849C178.607 206.849 170.009 204.66 165.164 200.596C159.224 195.594 150.94 183.871 145 157.142C144.844 156.517 144.687 156.048 144.687 155.735C143.906 152.765 141.092 151.046 138.748 149.483C137.81 148.858 136.247 147.764 135.934 147.295C135.309 145.888 135.934 140.73 136.872 139.01C137.966 139.01 139.529 139.323 141.249 139.635C144.218 140.104 147.97 140.73 151.409 140.73C152.503 140.73 153.753 140.73 154.691 140.417C168.603 138.698 181.889 137.603 193.925 137.603" fill="#1a1a1a" fill-rule="nonzero" opacity="1" stroke="none" vectornator:layerName="path"/>
</g>
</g>
<g opacity="0.5" vectornator:layerName="path">
<clipPath clip-rule="nonzero" id="ClipPath_27">
<path d="M156.351 145.852L235.287 145.852L235.287 199.31L156.351 199.31L156.351 145.852Z"/>
</clipPath>
<g clip-path="url(#ClipPath_27)">
<path d="M159.165 156.872C157.758 158.747 156.82 186.414 168.543 193.917C176.202 198.919 208.715 197.825 215.28 194.23C225.44 188.446 235.444 162.186 232.63 158.435C227.941 152.182 194.178 143.898 168.856 150.463C165.73 151.088 160.884 154.527 159.165 156.872Z" fill="none" opacity="1" stroke="#333333" stroke-linecap="butt" stroke-linejoin="miter" stroke-width="4" vectornator:layerName="path"/>
</g>
</g>
<path d="M159.165 156.794C157.758 158.669 156.82 186.336 168.543 193.839C176.202 198.841 208.715 197.747 215.28 194.152C225.44 188.368 235.444 162.108 232.63 158.357C227.941 152.104 194.178 143.82 168.856 150.385C165.73 151.166 160.884 154.449 159.165 156.794" fill="#ffffff" fill-rule="nonzero" opacity="1" stroke="none" vectornator:layerName="path"/>
<g opacity="0.5" vectornator:layerName="path">
<clipPath clip-rule="nonzero" id="ClipPath_28">
<path d="M274.208 153.198L352.519 153.198L352.519 207.907L274.208 207.907L274.208 153.198Z"/>
</clipPath>
<g clip-path="url(#ClipPath_28)">
<path d="M350.165 168.928C351.416 170.96 348.602 198.47 336.098 204.566C327.813 208.474 295.77 203.16 289.83 198.783C280.451 191.749 273.886 164.395 277.169 160.956C282.64 155.329 317.184 151.578 341.412 161.269C344.382 162.363 348.759 166.427 350.165 168.928Z" fill="none" opacity="1" stroke="#333333" stroke-linecap="butt" stroke-linejoin="miter" stroke-width="4" vectornator:layerName="path"/>
</g>
</g>
<path d="M350.175 168.986C351.425 171.018 348.612 198.528 336.107 204.624C327.823 208.532 295.779 203.217 289.839 198.841C280.461 191.807 273.896 164.453 277.178 161.014C282.649 155.387 317.194 151.635 341.421 161.327C344.391 162.421 348.612 166.328 350.175 168.986" fill="#ffffff" fill-rule="nonzero" opacity="1" stroke="none" vectornator:layerName="path"/>
<path d="M196.21 173.675C195.429 179.771 192.302 184.304 189.332 183.835C186.363 183.366 184.799 178.208 185.581 172.112C186.363 166.016 189.489 161.483 192.459 161.952C195.429 162.421 196.992 167.579 196.21 173.675M320.789 180.553C321.414 186.649 319.538 191.807 316.725 192.119C313.755 192.432 310.941 187.743 310.316 181.647C309.691 175.551 311.566 170.392 314.38 170.08C317.194 169.924 320.007 174.613 320.789 180.553" fill="#000000" fill-rule="nonzero" opacity="1" stroke="none" vectornator:layerName="path"/>
<g opacity="0.3" vectornator:layerName="path">
<clipPath clip-rule="nonzero" id="ClipPath_29">
<path d="M132.436 143.038L376.747 143.038L376.747 214.941L132.436 214.941L132.436 143.038Z"/>
</clipPath>
<g clip-path="url(#ClipPath_29)">
<path d="M136.148 144.836C139.743 147.181 143.026 145.774 143.807 150.463C144.589 155.152 155.374 195.793 168.817 200.482C190.856 208.141 218.68 200.638 222.431 198.294C226.182 195.949 243.845 156.403 246.815 154.84C249.785 153.277 259.164 154.996 261.196 155.934C267.292 158.591 278.546 201.42 281.516 203.608C295.115 213.143 338.725 212.362 340.757 209.861C342.945 207.203 359.202 169.845 362.172 167.657C366.392 164.375 376.239 162.186 376.552 163.593C376.865 165 368.58 166.407 366.079 169.376C363.578 172.503 347.166 208.298 342.008 211.424C336.849 214.55 298.71 219.708 279.328 206.109C270.105 199.544 266.51 160.623 259.164 158.435C254.474 157.028 250.879 157.184 247.44 158.122C242.907 161.092 236.499 194.23 222.9 202.514C217.429 205.797 175.069 214.081 162.408 200.795C138.805 176.098 145.996 154.058 138.337 150.932C133.178 148.744 132.084 145.93 132.084 144.054C132.553 142.022 134.272 143.585 136.148 144.836" fill="#333333" fill-rule="nonzero" opacity="1" stroke="none" vectornator:layerName="path"/>
</g>
</g>
<g opacity="0.3" vectornator:layerName="path">
<clipPath clip-rule="nonzero" id="ClipPath_30">
<path d="M136.344 136.161L167.918 136.161L167.918 140.85L136.344 140.85L136.344 136.161Z"/>
</clipPath>
<g clip-path="url(#ClipPath_30)">
<path d="M136.578 136.551C134.077 135.614 147.207 141.084 152.053 140.772C156.898 140.459 165.026 137.02 167.684 136.239C170.028 135.457 155.491 138.115 151.896 137.958C148.301 137.802 137.985 137.02 136.578 136.551" fill="#333333" fill-rule="nonzero" opacity="1" stroke="none" vectornator:layerName="path"/>
</g>
</g>
<g opacity="0.3" vectornator:layerName="path">
<clipPath clip-rule="nonzero" id="ClipPath_31">
<path d="M237.945 143.82L271.864 143.82L271.864 152.104L237.945 152.104L237.945 143.82Z"/>
</clipPath>
<g clip-path="url(#ClipPath_31)">
<path d="M237.945 143.898C242.478 145.93 244.51 151.088 248.886 151.557C253.263 152.026 258.578 152.808 261.078 151.401C263.579 149.994 269.832 146.712 271.551 146.399C273.427 146.086 257.952 148.431 252.169 147.962C246.385 147.337 239.664 144.054 237.945 143.898" fill="#333333" fill-rule="nonzero" opacity="1" stroke="none" vectornator:layerName="path"/>
</g>
</g>
<g opacity="0.3" vectornator:layerName="path">
<clipPath clip-rule="nonzero" id="ClipPath_32">
<path d="M348.612 149.916L367.838 149.916L367.838 156.012L348.612 156.012L348.612 149.916Z"/>
</clipPath>
<g clip-path="url(#ClipPath_32)">
<path d="M348.885 149.877C347.01 149.095 355.763 156.129 358.42 155.817C361.077 155.504 365.767 152.534 367.799 151.753C369.362 151.127 361.546 153.316 359.202 152.847C356.857 152.69 350.761 150.658 348.885 149.877" fill="#333333" fill-rule="nonzero" opacity="1" stroke="none" vectornator:layerName="path"/>
</g>
</g>
<g opacity="0.3" vectornator:layerName="path">
<clipPath clip-rule="nonzero" id="ClipPath_33">
<path d="M153.069 144.914L198.242 144.914L198.242 189.619L153.069 189.619L153.069 144.914Z"/>
</clipPath>
<g clip-path="url(#ClipPath_33)">
<path d="M154.241 152.769C165.808 141.358 193.318 145.266 198.32 146.204C165.339 148.548 164.714 151.049 158.93 156.833C158.149 161.366 157.055 176.371 162.213 189.501C156.429 186.375 150.333 156.676 154.241 152.769" fill="#333333" fill-rule="nonzero" opacity="1" stroke="none" vectornator:layerName="path"/>
</g>
</g>
<g opacity="0.3" vectornator:layerName="path">
<clipPath clip-rule="nonzero" id="ClipPath_34">
<path d="M313.755 152.73L357.209 152.73L357.209 200.404L313.755 200.404L313.755 152.73Z"/>
</clipPath>
<g clip-path="url(#ClipPath_34)">
<path d="M356.521 165.075C346.517 152.257 318.85 152.414 313.692 152.883C346.048 159.604 346.361 162.105 351.363 168.67C351.675 173.203 350.738 188.209 344.016 200.557C349.956 198.056 359.803 169.295 356.521 165.075" fill="#333333" fill-rule="nonzero" opacity="1" stroke="none" vectornator:layerName="path"/>
</g>
</g>
<g opacity="1" vectornator:layerName="path">
<clipPath clip-rule="nonzero" id="ClipPath_35">
<path d="M158.54 148.04L233.255 148.04L233.255 191.025L158.54 191.025L158.54 148.04Z"/>
</clipPath>
<g clip-path="url(#ClipPath_35)">
<path d="M159.496 175.824C160.59 162.382 161.841 151.44 188.57 150.658C209.984 150.033 227.022 155.035 229.366 160.193C230.93 163.476 229.679 177.856 219.05 190.986C225.928 184.89 236.869 160.662 232.18 157.692C214.83 146.594 180.285 146.282 167.468 150.815C165.123 151.596 161.372 154.254 158.871 157.067C158.402 160.506 158.402 173.949 159.496 175.824" fill="#d0dddc" fill-rule="nonzero" opacity="1" stroke="none" vectornator:layerName="path"/>
</g>
</g>
<g opacity="1" vectornator:layerName="path">
<clipPath clip-rule="nonzero" id="ClipPath_36">
<path d="M160.103 176.489L215.123 176.489L215.123 198.216L160.103 198.216L160.103 176.489Z"/>
</clipPath>
<g clip-path="url(#ClipPath_36)">
<path d="M160.234 176.801C164.298 203.061 212.285 195.089 215.098 193.995C214.942 195.402 189.933 202.436 168.987 194.308C160.547 191.182 159.921 173.831 160.234 176.801" fill="#d0dddc" fill-rule="nonzero" opacity="1" stroke="none" vectornator:layerName="path"/>
</g>
</g>
<g opacity="1" vectornator:layerName="path">
<clipPath clip-rule="nonzero" id="ClipPath_37">
<path d="M276.397 155.387L350.956 155.387L350.956 195.246L276.397 195.246L276.397 155.387Z"/>
</clipPath>
<g clip-path="url(#ClipPath_37)">
<path d="M347.919 187.566C348.544 173.967 348.544 163.182 322.285 159.118C301.183 155.835 283.676 158.649 280.55 163.495C278.674 166.464 278.049 181.001 287.115 195.382C281.019 188.348 273.047 163.182 278.205 160.681C296.806 151.771 331.194 155.679 343.23 161.775C345.418 162.869 349.013 165.839 351.045 169.122C350.889 172.404 349.326 185.847 347.919 187.566" fill="#d0dddc" fill-rule="nonzero" opacity="1" stroke="none" vectornator:layerName="path"/>
</g>
</g>
<g opacity="1" vectornator:layerName="path">
<clipPath clip-rule="nonzero" id="ClipPath_38">
<path d="M290.465 188.055L347.205 188.055L347.205 206.344L290.465 206.344L290.465 188.055Z"/>
</clipPath>
<g clip-path="url(#ClipPath_38)">
<path d="M347.022 188.388C339.832 213.867 293.095 200.112 290.438 198.705C290.438 200.112 314.353 210.115 336.237 204.801C344.99 202.613 347.96 185.418 347.022 188.388" fill="#d0dddc" fill-rule="nonzero" opacity="1" stroke="none" vectornator:layerName="path"/>
</g>
</g>
<g opacity="0.25" vectornator:layerName="path">
<clipPath clip-rule="nonzero" id="ClipPath_39">
<path d="M192.146 164.296L195.272 164.296L195.272 167.423L192.146 167.423L192.146 164.296Z"/>
</clipPath>
<g clip-path="url(#ClipPath_39)">
<path d="M195.389 165.86C195.389 165.078 194.764 164.296 193.826 164.296C192.888 164.296 192.263 164.922 192.263 165.86C192.263 166.797 192.888 167.423 193.826 167.423C194.764 167.423 195.389 166.797 195.389 165.86" fill="#ffffff" fill-rule="nonzero" opacity="1" stroke="none" vectornator:layerName="path"/>
</g>
</g>
<g opacity="0.25" vectornator:layerName="path">
<clipPath clip-rule="nonzero" id="ClipPath_40">
<path d="M315.63 171.643L318.757 171.643L318.757 174.769L315.63 174.769L315.63 171.643Z"/>
</clipPath>
<g clip-path="url(#ClipPath_40)">
<path d="M318.874 173.206C318.874 172.425 318.249 171.643 317.311 171.643C316.529 171.643 315.748 172.268 315.748 173.206C315.748 174.144 316.373 174.769 317.311 174.769C318.092 174.769 318.874 173.988 318.874 173.206" fill="#ffffff" fill-rule="nonzero" opacity="1" stroke="none" vectornator:layerName="path"/>
</g>
</g>
<g opacity="0.1" vectornator:layerName="path">
<clipPath clip-rule="nonzero" id="ClipPath_41">
<path d="M136.969 139.131L238.257 139.131L238.257 153.98L136.969 153.98L136.969 139.131Z"/>
</clipPath>
<g clip-path="url(#ClipPath_41)">
<path d="M137.008 143.156C140.759 147.376 143.104 147.845 148.106 147.22C196.718 140.967 223.603 141.124 236.89 153.472C239.703 156.129 238.14 145.5 232.826 144.093C191.872 133.308 162.174 142.999 155.921 143.781C149.513 144.719 144.98 143.312 137.008 143.156" fill="#d0dddc" fill-rule="nonzero" opacity="1" stroke="none" vectornator:layerName="path"/>
</g>
</g>
<g opacity="0.1" vectornator:layerName="path">
<clipPath clip-rule="nonzero" id="ClipPath_42">
<path d="M270.926 144.133L345.798 144.133L345.798 158.513L270.926 158.513L270.926 144.133Z"/>
</clipPath>
<g clip-path="url(#ClipPath_42)">
<path d="M271.434 149.408C270.34 150.502 270.809 161.756 276.123 157.536C291.442 145.344 323.485 148.157 345.837 155.66C342.242 148.626 316.138 143.781 301.445 143.937C294.411 144.25 274.404 146.282 271.434 149.408" fill="#d0dddc" fill-rule="nonzero" opacity="1" stroke="none" vectornator:layerName="path"/>
</g>
</g>
<path d="M363.93 158.357C363.93 158.826 361.429 159.138 358.459 159.138C355.489 159.138 352.988 158.826 352.988 158.357C352.988 157.888 355.489 157.575 358.459 157.575C361.585 157.575 363.93 158.044 363.93 158.357M153.225 144.914C153.225 145.383 150.724 145.383 147.754 144.914C144.784 144.445 142.44 143.664 142.596 143.195C142.752 142.726 145.097 142.726 148.067 143.195C151.037 143.507 153.381 144.289 153.225 144.914" fill="#d0dddc" fill-rule="nonzero" opacity="1" stroke="none" vectornator:layerName="path"/>
<path d="M455.902 395.378C454.965 385.843 447.931 381.623 441.522 381.623C438.552 381.623 436.207 382.404 435.27 382.873L434.019 383.498L432.925 384.28C431.362 385.374 428.705 387.094 426.36 387.875C426.204 385.999 426.36 383.498 426.673 381.31L426.673 380.997C428.392 364.272 424.953 354.425 416.2 351.924C414.793 351.455 413.23 351.299 411.667 351.299C406.352 351.299 401.663 353.8 398.693 355.988C396.192 352.705 391.816 350.986 386.501 350.986C378.529 350.986 372.121 354.738 369.776 360.677C369.463 361.303 369.151 362.24 368.838 363.491C364.149 353.174 354.614 349.267 345.704 349.267C337.264 349.267 329.136 352.549 326.166 354.894C326.009 355.05 325.853 355.05 325.697 355.206C317.725 360.834 311.473 368.024 307.096 376.621C304.908 369.274 300.218 362.24 291.934 357.082L291.778 356.926C291.465 356.77 291.309 356.613 291.152 356.613C299.437 342.076 306.627 322.694 302.25 304.25C297.561 284.555 285.994 281.741 279.585 281.741C276.928 281.741 274.115 282.21 271.301 283.148L270.988 283.148C258.796 287.993 253.482 295.184 252.231 296.903C250.981 298.779 237.695 319.099 234.412 348.798C234.099 352.08 233.631 355.519 233.318 358.958C231.442 356.301 228.316 353.8 223.47 352.393C221.907 351.924 220.344 351.768 218.781 351.768C212.06 351.768 206.589 355.832 203.619 358.645C201.118 354.894 197.054 352.549 192.521 352.393L191.427 352.393C184.237 352.393 178.61 355.519 174.389 359.114C171.732 354.425 166.73 351.455 160.947 351.455L158.602 351.455C150.63 351.455 144.378 355.206 141.877 361.459C141.721 361.928 141.408 362.553 141.252 363.335C134.999 355.519 127.028 351.924 116.242 351.924L115.148 351.924C108.427 352.08 91.8579 354.894 81.5415 377.871C79.9784 381.466 78.7279 385.062 77.7901 388.5C75.6017 387.406 73.4134 387.25 72.0066 387.25C66.6921 387.25 62.6281 390.22 60.7524 393.19C59.1893 395.534 54.1874 403.662 56.6883 411.79C58.0951 416.167 61.065 419.45 65.4416 421.169C69.3494 422.732 74.195 424.139 77.7901 425.233C79.9784 430.391 84.0425 436.175 91.2327 441.646C96.2346 445.553 102.8 447.429 110.302 447.429C123.12 447.429 135.468 441.958 136.719 441.333L137.188 441.02L137.344 440.864C139.845 443.365 142.971 445.241 147.035 446.022C148.286 446.335 149.849 446.491 151.724 446.491C158.602 446.491 163.448 442.896 167.981 436.331C171.576 442.114 178.297 445.241 186.112 445.241C186.581 445.241 186.894 445.553 187.519 445.553C191.583 445.553 196.898 444.146 201.118 437.113C204.713 443.521 211.278 447.273 219.094 447.273C225.971 447.273 232.067 444.459 233.162 443.834L233.474 443.678C235.819 442.427 237.695 441.333 239.258 440.551C244.416 443.365 252.231 446.335 261.923 446.335C263.642 446.335 265.205 446.335 266.924 446.022L267.862 446.022C288.183 441.958 301.469 437.113 309.441 433.361C314.911 439.614 323.821 445.553 336.326 446.491C337.733 446.647 339.139 446.647 340.546 446.647C350.863 446.647 359.147 443.678 365.243 440.551C367.119 442.583 369.62 444.459 372.746 445.71C374.622 446.491 376.654 446.804 378.529 446.804C391.19 446.804 397.13 431.798 398.693 426.64L401.663 418.512C404.32 421.325 407.759 423.67 412.136 424.92C414.48 425.546 417.138 426.015 419.639 426.015C433.55 426.015 446.993 416.167 449.025 414.448C452.62 410.853 456.684 404.288 455.902 395.378" fill="#ffffff" fill-rule="nonzero" opacity="1" stroke="none" vectornator:layerName="path"/>
<path d="M328.213 399.562C328.213 399.562 326.494 393.31 333.059 381.43C339.624 369.551 344.626 375.96 344.626 375.96C344.626 375.96 350.253 382.056 343.844 391.122C337.436 400.188 328.213 399.562 328.213 399.562M278.038 408.159C270.535 427.698 252.403 419.726 252.403 419.726C252.403 419.726 250.371 412.692 256.311 393.154C262.251 373.615 276.006 381.274 276.006 381.274C276.006 381.274 285.541 388.621 278.038 408.159M264.439 326.097C264.439 326.097 275.693 296.554 278.507 310.935C281.321 325.315 254.748 367.988 254.748 367.988C255.061 358.453 264.439 326.097 264.439 326.097M102.659 399.562C103.128 380.649 115.476 372.365 119.853 376.429C124.23 380.493 122.667 389.559 114.382 395.029C106.41 400.657 102.659 399.562 102.659 399.562M445.445 396.436C444.82 390.027 439.037 392.372 439.037 392.372C439.037 392.372 429.814 399.562 421.686 398.781C413.558 397.999 416.216 379.867 416.216 379.867C416.216 379.867 417.935 363.142 413.246 361.735C408.4 360.329 402.617 366.112 402.617 366.112C402.617 366.112 395.27 374.24 391.831 384.557L390.893 384.869C390.893 384.869 391.988 366.737 390.737 362.517C389.799 360.485 381.046 360.641 379.639 364.236C378.232 367.832 371.198 393.31 370.729 404.095C370.729 404.095 356.974 415.662 345.095 417.694C333.059 419.57 330.245 412.067 330.245 412.067C330.245 412.067 362.758 403.001 361.664 377.054C360.569 351.106 335.404 360.641 332.59 362.83C329.776 364.862 315.24 373.771 310.863 398.156C310.707 398.937 310.394 402.689 310.394 402.689C310.394 402.689 297.733 411.129 290.855 413.318C290.855 413.318 310.394 380.336 286.479 365.331C275.693 358.766 266.94 372.521 266.94 372.521C266.94 372.521 299.296 336.57 292.106 306.089C288.667 291.553 281.477 289.989 274.756 292.334C264.595 296.398 260.844 302.182 260.844 302.182C260.844 302.182 247.714 321.095 244.744 349.387C241.774 377.679 237.241 411.598 237.241 411.598C237.241 411.598 230.989 417.694 225.362 418.007C219.578 418.319 222.236 400.969 222.236 400.969C222.236 400.969 226.612 374.553 226.3 370.02C225.987 365.487 225.674 363.142 220.36 361.579C215.202 360.016 209.418 366.737 209.418 366.737C209.418 366.737 194.256 389.715 193.006 393.154L192.224 394.56L191.443 393.623C191.443 393.623 202.072 362.361 191.912 361.892C181.751 361.423 175.03 372.99 175.03 372.99C175.03 372.99 163.463 392.528 162.994 394.717L162.213 393.779C162.213 393.779 167.058 371.114 166.121 365.487C165.183 359.86 159.868 361.11 159.868 361.11C159.868 361.11 153.147 360.329 151.427 364.705C149.708 369.082 143.299 397.53 142.518 406.596C142.518 406.596 125.793 418.632 114.851 418.632C103.909 418.788 105.004 411.598 105.004 411.598C105.004 411.598 145.331 397.843 134.39 370.489C129.388 363.455 123.761 361.267 115.633 361.423C107.504 361.579 97.9696 366.581 91.4046 381.118C88.2784 388.152 87.028 394.717 87.028 399.719C87.028 399.719 79.5251 401.125 75.6174 397.999C71.7096 394.873 69.5213 397.999 69.5213 397.999C69.5213 397.999 62.8 407.534 69.365 410.035C75.93 412.536 85.9338 415.037 85.9338 415.037C86.8717 419.101 89.5289 425.979 97.5007 431.918C109.38 440.984 132.358 430.512 132.358 430.512L141.736 424.884C141.736 424.884 142.049 433.325 148.926 434.576C155.804 435.826 158.618 434.419 170.653 405.502C177.687 390.653 178.156 391.434 178.156 391.434L178.938 391.278C178.938 391.278 173.467 419.57 175.655 427.229C177.844 434.888 186.753 434.107 186.753 434.107C186.753 434.107 191.755 435.826 195.663 421.758C199.727 407.69 207.23 392.997 207.23 392.997L208.168 392.997C208.168 392.997 204.885 421.289 209.887 430.512C215.045 439.734 228.175 433.325 228.175 433.325C228.175 433.325 237.398 428.48 238.804 427.073C238.804 427.073 249.746 436.295 265.221 434.576C299.765 427.698 312.113 418.476 312.113 418.476C312.113 418.476 318.053 433.481 336.498 434.888C357.599 436.451 369.01 423.165 369.01 423.165C369.01 423.165 368.854 431.762 376.2 434.732C383.547 437.702 388.549 421.758 388.549 421.758L400.897 388.777L401.991 388.777C401.991 388.777 402.617 409.879 414.809 413.318C427.001 416.756 442.788 404.564 442.788 404.564C442.788 404.564 446.227 402.845 445.445 396.436" fill="#e24b31" fill-rule="nonzero" opacity="1" stroke="none" vectornator:layerName="path"/>
</g>
</g>
</svg>
