<?xml version="1.0" encoding="UTF-8" standalone="no"?>
<!DOCTYPE svg PUBLIC "-//W3C//DTD SVG 1.1//EN" "http://www.w3.org/Graphics/SVG/1.1/DTD/svg11.dtd">
<!-- Created with Vectornator (http://vectornator.io/) -->
<svg height="100%" stroke-miterlimit="10" style="fill-rule:nonzero;clip-rule:evenodd;stroke-linecap:round;stroke-linejoin:round;" version="1.1" viewBox="0 0 512 512" width="100%" xml:space="preserve" xmlns="http://www.w3.org/2000/svg" xmlns:vectornator="http://vectornator.io" xmlns:xlink="http://www.w3.org/1999/xlink">
<defs/>
<g id="Ebene-1" vectornator:layerName="Ebene 1">
<path d="M2.84217e-14 95C2.84217e-14 42.5329 42.5329 0 95 0L417 0C469.467 0 512 42.5329 512 95L512 417C512 469.467 469.467 512 417 512L95 512C42.5329 512 2.84217e-14 469.467 2.84217e-14 417L2.84217e-14 95Z" fill="#242628" fill-rule="nonzero" opacity="1" stroke="none" vectornator:layerName="Rechteck 1"/>
</g>
<g id="Ebene-2" vectornator:layerName="Ebene 2">
<g opacity="1" vectornator:layerName="eslint-1.svg">
<path d="M190.915 214.543L254.094 178.066C255.676 177.153 257.624 177.153 259.206 178.066L322.385 214.543C323.966 215.456 324.94 217.143 324.941 218.969L324.941 291.922C324.941 293.747 323.966 295.435 322.385 296.349L259.206 332.826C257.624 333.739 255.676 333.739 254.094 332.826L190.915 296.349C189.334 295.436 188.359 293.749 188.359 291.922L188.359 218.968C188.36 217.142 189.335 215.456 190.915 214.541" fill="#8080f2" fill-rule="nonzero" opacity="1" stroke="none" vectornator:layerName="path"/>
<path d="M420.441 249.467L344.873 118.001C342.128 113.248 337.058 109.741 331.569 109.741L180.432 109.741C174.943 109.741 169.87 113.248 167.125 118.001L91.5585 249.177C88.8138 253.932 88.8138 259.932 91.5585 264.687L167.125 395.076C169.87 399.829 174.943 402.259 180.432 402.259L331.567 402.259C337.057 402.259 342.128 399.902 344.872 395.147L420.44 264.546C423.187 259.794 423.187 254.221 420.44 249.467L420.441 249.467ZM357.867 312.686C357.867 314.617 356.704 316.406 355.028 317.374L258.772 372.908C257.085 373.874 255.013 373.874 253.327 372.908L156.996 317.374C155.322 316.406 154.15 314.619 154.15 312.684L154.15 201.613C154.15 199.679 155.305 197.893 156.98 196.925L253.232 141.389C254.917 140.421 256.99 140.421 258.675 141.389L355.011 196.925C356.688 197.893 357.867 199.679 357.867 201.613L357.867 312.684L357.867 312.686Z" fill="#4b32c3" fill-rule="nonzero" opacity="1" stroke="none" vectornator:layerName="path"/>
</g>
</g>
</svg>
