<?xml version="1.0" encoding="UTF-8" standalone="no"?>
<!DOCTYPE svg PUBLIC "-//W3C//DTD SVG 1.1//EN" "http://www.w3.org/Graphics/SVG/1.1/DTD/svg11.dtd">
<!-- Created with Vectornator (http://vectornator.io/) -->
<svg height="100%" stroke-miterlimit="10" style="fill-rule:nonzero;clip-rule:evenodd;stroke-linecap:round;stroke-linejoin:round;" version="1.1" viewBox="0 0 512 512" width="100%" xml:space="preserve" xmlns="http://www.w3.org/2000/svg" xmlns:vectornator="http://vectornator.io" xmlns:xlink="http://www.w3.org/1999/xlink">
<defs/>
<g id="Ebene-1" vectornator:layerName="Ebene 1">
<path d="M2.84217e-14 95C2.84217e-14 42.5329 42.5329 0 95 0L417 0C469.467 0 512 42.5329 512 95L512 417C512 469.467 469.467 512 417 512L95 512C42.5329 512 2.84217e-14 469.467 2.84217e-14 417L2.84217e-14 95Z" fill="#242628" fill-rule="nonzero" opacity="1" stroke="none" vectornator:layerName="Rechteck 1"/>
</g>
<g id="Ebene-2" vectornator:layerName="Ebene 2">
<path d="M431 352.262C418.269 355.5 410.394 352.405 403.328 341.795L353.081 272.276L345.819 262.651L287.139 342.025C280.434 351.573 273.402 355.73 260.889 352.35L336.03 251.484L266.073 160.375C278.105 158.034 286.417 159.226 293.8 170L345.917 240.383L398.417 170.383C405.144 160.834 412.373 157.203 424.448 160.725L397.323 196.687L360.573 244.539C356.198 250.008 356.8 253.748 360.825 259.031L431 352.262ZM81.0875 249.8L87.2344 219.569C103.969 159.74 172.547 134.88 219.841 171.848C247.48 193.592 254.348 224.348 252.981 258.801L97.1875 258.801C94.8469 320.817 139.483 358.245 196.391 339.148C216.352 332.444 228.109 316.814 233.994 297.258C236.98 287.458 241.923 285.926 251.133 288.726C246.43 313.183 235.82 333.614 213.398 346.4C179.897 365.54 132.078 359.35 106.922 332.75C91.9375 317.317 85.7469 297.761 82.9688 276.848C82.5312 273.392 81.6562 270.1 81 266.786C81.0583 261.127 81.0875 255.469 81.0875 249.811L81.0875 249.8ZM97.4719 245.644L238.259 245.644C237.341 200.8 209.417 168.95 171.256 168.676C129.366 168.348 99.2875 199.444 97.4719 245.644Z" fill="#ffffff" fill-rule="nonzero" opacity="1" stroke="none" vectornator:layerName="path"/>
</g>
</svg>
