<?xml version="1.0" encoding="UTF-8" standalone="no"?>
<!DOCTYPE svg PUBLIC "-//W3C//DTD SVG 1.1//EN" "http://www.w3.org/Graphics/SVG/1.1/DTD/svg11.dtd">
<!-- Created with Vectornator (http://vectornator.io/) -->
<svg height="100%" stroke-miterlimit="10" style="fill-rule:nonzero;clip-rule:evenodd;stroke-linecap:round;stroke-linejoin:round;" version="1.1" viewBox="0 0 512 512" width="100%" xml:space="preserve" xmlns="http://www.w3.org/2000/svg" xmlns:vectornator="http://vectornator.io" xmlns:xlink="http://www.w3.org/1999/xlink">
<defs/>
<g id="Ebene-1" vectornator:layerName="Ebene 1">
<path d="M2.84217e-14 95C2.84217e-14 42.5329 42.5329 0 95 0L417 0C469.467 0 512 42.5329 512 95L512 417C512 469.467 469.467 512 417 512L95 512C42.5329 512 2.84217e-14 469.467 2.84217e-14 417L2.84217e-14 95Z" fill="#232531" fill-rule="nonzero" opacity="1" stroke="none" vectornator:layerName="Rechteck 1"/>
</g>
<g id="Ebene-2" vectornator:layerName="Ebene 2">
<g opacity="1" vectornator:layerName="figma-5.svg">
<path d="M255.937 256.063C255.937 225.47 280.739 200.542 311.458 200.542C342.051 200.542 366.979 225.344 366.979 256.063C366.979 286.656 342.177 311.584 311.458 311.584C280.865 311.584 255.937 286.656 255.937 256.063Z" fill="#1abcfe" fill-rule="nonzero" opacity="1" stroke="none" vectornator:layerName="path"/>
<path d="M145.021 366.979C145.021 336.386 169.823 311.458 200.542 311.458L256.063 311.458L256.063 366.979C256.063 397.572 231.261 422.5 200.542 422.5C169.823 422.5 145.021 397.698 145.021 366.979Z" fill="#0acf83" fill-rule="nonzero" opacity="1" stroke="none" vectornator:layerName="path"/>
<path d="M255.937 89.6259L255.937 200.542L311.458 200.542C342.051 200.542 366.979 175.74 366.979 145.021C366.979 114.428 342.177 89.5 311.458 89.5L255.937 89.5L255.937 89.6259Z" fill="#ff7262" fill-rule="nonzero" opacity="1" stroke="none" vectornator:layerName="path"/>
<path d="M145.021 145.147C145.021 175.74 169.823 200.668 200.542 200.668L256.063 200.668L256.063 89.6259L200.542 89.6259C169.823 89.6259 145.021 114.428 145.021 145.147Z" fill="#f24e1e" fill-rule="nonzero" opacity="1" stroke="none" vectornator:layerName="path"/>
<path d="M145.021 256.063C145.021 286.656 169.823 311.584 200.542 311.584L256.063 311.584L256.063 200.542L200.542 200.542C169.823 200.542 145.021 225.47 145.021 256.063Z" fill="#a259ff" fill-rule="nonzero" opacity="1" stroke="none" vectornator:layerName="path"/>
</g>
</g>
</svg>
