<?xml version="1.0" encoding="UTF-8" standalone="no"?>
<!DOCTYPE svg PUBLIC "-//W3C//DTD SVG 1.1//EN" "http://www.w3.org/Graphics/SVG/1.1/DTD/svg11.dtd">
<!-- Created with Vectornator (http://vectornator.io/) -->
<svg height="100%" stroke-miterlimit="10" style="fill-rule:nonzero;clip-rule:evenodd;stroke-linecap:round;stroke-linejoin:round;" version="1.1" viewBox="0 0 512 512" width="100%" xml:space="preserve" xmlns="http://www.w3.org/2000/svg" xmlns:vectornator="http://vectornator.io" xmlns:xlink="http://www.w3.org/1999/xlink">
<defs/>
<g id="Ebene-1" vectornator:layerName="Ebene 1">
<path d="M2.84217e-14 95C2.84217e-14 42.5329 42.5329 0 95 0L417 0C469.467 0 512 42.5329 512 95L512 417C512 469.467 469.467 512 417 512L95 512C42.5329 512 2.84217e-14 469.467 2.84217e-14 417L2.84217e-14 95Z" fill="#232531" fill-rule="nonzero" opacity="1" stroke="none" vectornator:layerName="Rechteck 1"/>
</g>
<g id="Ebene-2" vectornator:layerName="Ebene 2">
<g opacity="1" vectornator:layerName="file_type_firebase_icon_130606.svg">
<path d="M134.687 358.284L136.709 355.466L232.094 174.52L232.296 172.605L190.253 93.6328C188.675 90.6712 185.379 89.0508 182.07 89.6091C178.761 90.1674 176.18 92.7792 175.66 96.0947L134.687 358.284Z" fill="#ffc24a" fill-rule="nonzero" opacity="1" stroke="none" vectornator:layerName="path"/>
<path d="M135.877 356.144L137.399 353.17L231.797 174.103L189.861 94.8221C188.44 91.9902 185.323 90.4338 182.206 91.0006C179.089 91.5673 176.718 94.1214 176.386 97.2722L135.877 356.144Z" fill="#ffa712" fill-rule="nonzero" opacity="1" stroke="none" vectornator:layerName="path"/>
<path d="M262.946 232.333L294.249 200.221L262.934 140.505C261.53 137.886 258.799 136.252 255.828 136.252C252.856 136.252 250.126 137.886 248.721 140.505L231.987 172.403L231.987 175.126L262.946 232.333Z" fill="#f4bd62" fill-rule="nonzero" opacity="1" stroke="none" vectornator:layerName="path"/>
<path d="M262.387 231.025L292.822 199.865L262.387 141.825C261.369 139.258 258.939 137.529 256.181 137.408C253.423 137.288 250.851 138.798 249.613 141.266L232.796 173.723L232.296 175.376L262.387 231.025Z" fill="#ffa50e" fill-rule="nonzero" opacity="1" stroke="none" vectornator:layerName="path"/>
<path d="M134.711 358.296L135.627 357.369L138.945 356.025L260.971 234.451L262.518 230.24L232.082 172.224L134.711 358.296Z" fill="#f6820c" fill-rule="nonzero" opacity="1" stroke="none" vectornator:layerName="polygon"/>
<path d="M266.847 419.607L377.313 358.011L345.748 163.78C345.286 160.989 343.303 158.689 340.61 157.822C337.917 156.955 334.965 157.667 332.962 159.665L134.687 358.284L244.499 419.595C251.441 423.468 259.893 423.468 266.835 419.595" fill="#fde068" fill-rule="nonzero" opacity="1" stroke="none" vectornator:layerName="path"/>
<path d="M376.302 357.5L344.998 164.731C344.885 162.053 343.169 159.707 340.651 158.788C338.133 157.869 335.309 158.558 333.497 160.533L135.877 357.916L244.475 418.572C251.362 422.414 259.746 422.414 266.633 418.572L376.302 357.5Z" fill="#fcca3f" fill-rule="nonzero" opacity="1" stroke="none" vectornator:layerName="path"/>
<path d="M266.847 417.751C259.905 421.625 251.452 421.625 244.511 417.751L135.591 357.357L134.687 358.284L244.499 419.595C251.441 423.468 259.893 423.468 266.835 419.595L377.313 358.011L377.039 356.346L266.847 417.751Z" fill="#eeab37" fill-rule="nonzero" opacity="1" stroke="none" vectornator:layerName="path"/>
</g>
</g>
</svg>
