<?xml version="1.0" encoding="UTF-8" standalone="no"?>
<!DOCTYPE svg PUBLIC "-//W3C//DTD SVG 1.1//EN" "http://www.w3.org/Graphics/SVG/1.1/DTD/svg11.dtd">
<!-- Created with Vectornator (http://vectornator.io/) -->
<svg height="100%" stroke-miterlimit="10" style="fill-rule:nonzero;clip-rule:evenodd;stroke-linecap:round;stroke-linejoin:round;" version="1.1" viewBox="0 0 512 512" width="100%" xml:space="preserve" xmlns="http://www.w3.org/2000/svg" xmlns:vectornator="http://vectornator.io" xmlns:xlink="http://www.w3.org/1999/xlink">
<defs>
<linearGradient gradientTransform="matrix(61.4993 -61.5015 -8.58524 -8.58493 146926 -113122)" gradientUnits="userSpaceOnUse" id="LinearGradient" x1="-2115" x2="-2115" y1="1930.74" y2="1929.74">
<stop offset="0.2" stop-color="#000000" stop-opacity="0.15"/>
<stop offset="0.85" stop-color="#616161" stop-opacity="0.01"/>
</linearGradient>
<linearGradient gradientTransform="matrix(91.3897 0 0 -61.5887 193562 120253)" gradientUnits="userSpaceOnUse" id="LinearGradient_2" x1="-2115.27" x2="-2114.27" y1="1946.36" y2="1946.36">
<stop offset="0.2" stop-color="#000000" stop-opacity="0.55"/>
<stop offset="0.85" stop-color="#616161" stop-opacity="0.01"/>
</linearGradient>
</defs>
<g id="Ebene-1" vectornator:layerName="Ebene 1">
<path d="M2.84217e-14 95C2.84217e-14 42.5329 42.5329 0 95 0L417 0C469.467 0 512 42.5329 512 95L512 417C512 469.467 469.467 512 417 512L95 512C42.5329 512 2.84217e-14 469.467 2.84217e-14 417L2.84217e-14 95Z" fill="#232531" fill-rule="nonzero" opacity="1" stroke="none" vectornator:layerName="Rechteck 1"/>
</g>
<g id="Ebene-2" vectornator:layerName="Ebene 2">
<g opacity="1" vectornator:layerName="flutter.svg">
<path d="M156.008 317.58L94.4124 255.984L294.412 56L417.588 56M417.588 240.544L294.412 240.544L248.272 286.685L309.868 348.28" fill="#42a5f5" fill-opacity="0.8" fill-rule="nonzero" opacity="1" stroke="none" vectornator:layerName="path"/>
<path d="M248.272 409.86L294.412 456L417.588 456L309.868 348.28" fill="#0d47a1" fill-rule="nonzero" opacity="1" stroke="none" vectornator:layerName="path"/>
<path d="M186.822 348.313L248.321 286.798L309.819 348.296L248.321 409.811L186.822 348.313Z" fill="#42a5f5" fill-rule="nonzero" opacity="1" stroke="none" vectornator:layerName="path"/>
<path d="M248.321 409.811L309.819 348.313L318.404 356.897L256.905 418.396L248.321 409.811Z" fill="url(#LinearGradient)" fill-rule="nonzero" opacity="1" stroke="none" vectornator:layerName="path"/>
<path d="M248.272 409.86L339.663 378.286L309.868 348.264" fill="url(#LinearGradient_2)" fill-rule="nonzero" opacity="1" stroke="none" vectornator:layerName="path"/>
</g>
</g>
</svg>
