<?xml version="1.0" encoding="UTF-8" standalone="no"?>
<!DOCTYPE svg PUBLIC "-//W3C//DTD SVG 1.1//EN" "http://www.w3.org/Graphics/SVG/1.1/DTD/svg11.dtd">
<!-- Created with Vectornator (http://vectornator.io/) -->
<svg height="100%" stroke-miterlimit="10" style="fill-rule:nonzero;clip-rule:evenodd;stroke-linecap:round;stroke-linejoin:round;" version="1.1" viewBox="0 0 512 512" width="100%" xml:space="preserve" xmlns="http://www.w3.org/2000/svg" xmlns:vectornator="http://vectornator.io" xmlns:xlink="http://www.w3.org/1999/xlink">
<defs/>
<g id="Ebene-1" vectornator:layerName="Ebene 1">
<path d="M2.84217e-14 95C2.84217e-14 42.5329 42.5329 0 95 0L417 0C469.467 0 512 42.5329 512 95L512 417C512 469.467 469.467 512 417 512L95 512C42.5329 512 2.84217e-14 469.467 2.84217e-14 417L2.84217e-14 95Z" fill="#de4c36" fill-rule="nonzero" opacity="1" stroke="none" vectornator:layerName="Rechteck 1"/>
<path d="M416.223 241.166L270.83 95.78C262.461 87.4067 248.881 87.4067 240.503 95.78L210.311 125.972L248.61 164.271C257.511 161.264 267.717 163.281 274.811 170.376C281.94 177.516 283.943 187.809 280.863 196.738L317.773 233.65C326.703 230.573 337.007 232.564 344.139 239.708C354.107 249.672 354.107 265.821 344.139 275.792C334.168 285.764 318.019 285.764 308.043 275.792C300.545 268.286 298.693 257.275 302.489 248.038L268.067 213.616L268.063 304.2C270.558 305.434 272.837 307.064 274.811 309.026C284.779 318.99 284.779 335.141 274.811 345.12C264.841 355.086 248.683 355.086 238.727 345.12C228.759 335.141 228.759 318.992 238.727 309.027C241.116 306.638 243.955 304.745 247.079 303.459L247.079 212.03C243.95 210.753 241.11 208.859 238.727 206.462C231.174 198.92 229.359 187.838 233.228 178.565L195.474 140.806L95.7801 240.493C87.4029 248.874 87.4029 262.456 95.7801 270.831L241.176 416.219C249.547 424.594 263.125 424.594 271.506 416.219L416.222 271.506C424.596 263.129 424.596 249.539 416.222 241.166" fill="#ffffff" fill-rule="nonzero" opacity="1" stroke="none" vectornator:layerName="path"/>
</g>
</svg>
