<?xml version="1.0" encoding="UTF-8" standalone="no"?>
<!DOCTYPE svg PUBLIC "-//W3C//DTD SVG 1.1//EN" "http://www.w3.org/Graphics/SVG/1.1/DTD/svg11.dtd">
<!-- Created with Vectornator (http://vectornator.io/) -->
<svg height="100%" stroke-miterlimit="10" style="fill-rule:nonzero;clip-rule:evenodd;stroke-linecap:round;stroke-linejoin:round;" version="1.1" viewBox="0 0 512 512" width="100%" xml:space="preserve" xmlns="http://www.w3.org/2000/svg" xmlns:vectornator="http://vectornator.io" xmlns:xlink="http://www.w3.org/1999/xlink">
<defs/>
<g id="Ebene-1" vectornator:layerName="Ebene 1">
<path d="M2.84217e-14 95C2.84217e-14 42.5329 42.5329 0 95 0L417 0C469.467 0 512 42.5329 512 95L512 417C512 469.467 469.467 512 417 512L95 512C42.5329 512 2.84217e-14 469.467 2.84217e-14 417L2.84217e-14 95Z" fill="#e24329" fill-rule="nonzero" opacity="1" stroke="none" vectornator:layerName="Rechteck 1"/>
<g opacity="1" vectornator:layerName="gitlab-3.svg">
<path d="M455.868 247.601C456.327 258.494 455.033 269.345 452.028 279.82C449.065 290.296 444.391 300.187 438.214 309.16C432.078 318.139 424.523 326.06 415.844 332.615L415.636 332.782L332.208 395.3L291.182 426.393L266.183 445.257C264.723 446.384 263.095 447.219 261.384 447.803C259.673 448.387 257.836 448.679 256 448.679C254.205 448.679 252.369 448.387 250.658 447.803C248.947 447.219 247.319 446.384 245.858 445.257L220.859 426.393L179.834 395.3L96.9069 333.157L96.4061 332.823L96.2392 332.657C87.5166 326.104 79.9626 318.175 73.7858 309.202C67.6091 300.229 62.9348 290.296 59.9299 279.82C56.925 269.345 55.6312 258.452 56.0903 247.559C56.5911 236.666 58.803 225.941 62.6844 215.757L63.2269 214.297L117.774 72.1896C118.053 71.494 118.386 70.8262 118.776 70.1863C119.138 69.5464 119.569 68.9482 120.07 68.3917C120.543 67.8074 121.057 67.2649 121.614 66.764C122.17 66.2911 122.755 65.8459 123.367 65.4285C124.661 64.6356 125.996 64.0513 127.457 63.7174C128.876 63.3418 130.378 63.1749 131.839 63.2583C133.341 63.3418 134.802 63.6339 136.179 64.1765C137.557 64.6773 138.892 65.4285 140.061 66.3467C140.617 66.8197 141.16 67.3205 141.688 67.8492C142.189 68.4056 142.634 69.0038 143.024 69.6437C143.441 70.2559 143.803 70.9097 144.109 71.6053C144.415 72.273 144.665 72.9686 144.86 73.692L181.629 186.251L330.455 186.251L367.223 73.692C367.418 72.9686 367.682 72.273 368.016 71.6053C368.322 70.9375 368.684 70.2837 369.101 69.6437C369.491 69.0316 369.936 68.4474 370.437 67.8909C370.938 67.3344 371.48 66.8197 372.065 66.3467C373.233 65.4285 374.527 64.719 375.904 64.1765C377.323 63.6757 378.784 63.3835 380.245 63.3001C381.747 63.2166 383.208 63.3418 384.668 63.7174C386.087 64.093 387.465 64.6773 388.717 65.4703C389.357 65.8598 389.955 66.305 390.511 66.8058C391.068 67.2788 391.582 67.8074 392.055 68.3917C392.528 68.976 392.96 69.5881 393.349 70.228C393.711 70.868 394.031 71.5357 394.309 72.2313L448.773 214.38L449.316 215.841C453.197 225.982 455.409 236.708 455.868 247.601Z" fill="#161616" fill-rule="nonzero" opacity="1" stroke="none" vectornator:layerName="path"/>
<path d="M455.91 247.643C456.369 258.494 455.075 269.387 452.07 279.862C449.065 290.337 444.391 300.27 438.214 309.243C432.037 318.216 424.483 326.146 415.803 332.698L415.594 332.865L332.166 395.384C332.166 395.384 296.733 368.632 256 337.79L375.57 247.309C380.954 243.261 386.588 239.546 392.389 236.124C398.19 232.66 404.2 229.572 410.335 226.817C416.512 224.063 422.814 221.6 429.199 219.555C435.627 217.468 442.137 215.757 448.773 214.38L449.316 215.841C453.197 226.024 455.409 236.75 455.91 247.643Z" fill="#161616" fill-rule="nonzero" opacity="1" stroke="none" vectornator:layerName="path"/>
<path d="M256 337.79C296.733 368.548 332.208 395.384 332.208 395.384L291.182 426.476L266.183 445.34C264.723 446.467 263.095 447.302 261.384 447.886C259.673 448.471 257.836 448.763 256 448.763C254.205 448.763 252.369 448.471 250.658 447.886C248.947 447.302 247.319 446.467 245.858 445.34L220.859 426.476L179.834 395.384C179.834 395.384 215.267 368.548 256 337.79Z" fill="#161616" fill-rule="nonzero" opacity="1" stroke="none" vectornator:layerName="path"/>
<path d="M256 337.706C215.225 368.548 179.834 395.3 179.834 395.3L96.9069 333.157L96.4061 332.823L96.2392 332.657C87.5166 326.104 79.9626 318.175 73.7858 309.202C67.6091 300.229 62.9348 290.296 59.9299 279.82C56.925 269.345 55.6312 258.452 56.0903 247.559C56.5911 236.666 58.803 225.941 62.6844 215.757L63.2269 214.297C69.8628 215.674 76.3734 217.385 82.8005 219.472C89.186 221.558 95.4879 223.979 101.665 226.775C107.8 229.53 113.81 232.66 119.611 236.082C125.412 239.504 131.004 243.261 136.43 247.309L256 337.706Z" fill="#161616" fill-rule="nonzero" opacity="1" stroke="none" vectornator:layerName="path"/>
</g>
</g>
</svg>
