<?xml version="1.0" encoding="UTF-8" standalone="no"?>
<!DOCTYPE svg PUBLIC "-//W3C//DTD SVG 1.1//EN" "http://www.w3.org/Graphics/SVG/1.1/DTD/svg11.dtd">
<!-- Created with Vectornator (http://vectornator.io/) -->
<svg height="100%" stroke-miterlimit="10" style="fill-rule:nonzero;clip-rule:evenodd;stroke-linecap:round;stroke-linejoin:round;" version="1.1" viewBox="0 0 512 512" width="100%" xml:space="preserve" xmlns="http://www.w3.org/2000/svg" xmlns:vectornator="http://vectornator.io" xmlns:xlink="http://www.w3.org/1999/xlink">
<defs/>
<clipPath id="ArtboardFrame">
<rect height="512" width="512" x="0" y="0"/>
</clipPath>
<g clip-path="url(#ArtboardFrame)" id="Ebene-1" vectornator:layerName="Ebene 1">
<path d="M2.84217e-14 95C2.84217e-14 42.5329 42.5329 0 95 0L417 0C469.467 0 512 42.5329 512 95L512 417C512 469.467 469.467 512 417 512L95 512C42.5329 512 2.84217e-14 469.467 2.84217e-14 417L2.84217e-14 95Z" fill="#232531" fill-rule="nonzero" opacity="1" stroke="none" vectornator:layerName="Rechteck 1"/>
<g opacity="1" vectornator:layerName="go-8.svg">
<path d="M76.5 508.719C76.5127 509.333 76.5523 509.949 76.5625 510.562C76.6802 517.666 76.6758 524.743 76.4062 531.75C76.4039 531.809 76.4086 531.878 76.4062 531.938C76.4007 531.968 76.3807 532.001 76.375 532.031C75.9055 534.52 75.2573 535.51 73.4062 536.25C71.9075 536.749 69.9037 537.252 66.9062 539.25C64.6582 540.749 61.7745 542.351 58.8438 543.594C57.3763 544.218 55.8972 544.75 54.4688 545.125C53.0534 545.492 51.677 545.719 50.4375 545.719C47.5879 545.719 43.9174 544.645 43.125 537.688C45.0934 537.174 47.4959 536.177 49.4375 533.75C49.9371 532.751 49.4371 531.75 48.9375 531.25C48.4379 531 47.9371 531 47.5 531.125C47.0629 531.25 46.6873 531.5 46.4375 531.75C45.4384 533.249 43.4358 533.751 41.4375 534.75C41.4375 534.75 41.3788 534.778 41.375 534.781C41.3183 534.836 40.9058 535.25 40.4375 535.25C40.04 535.25 39.8016 535.497 39.5938 535.75C40.0422 536.079 40.3487 536.471 40.9375 536.75C40.9722 537.357 41.1766 537.703 41.25 538.25C43.2893 553.452 59.6907 546.023 67.4062 540.719C71.8909 537.43 74.5764 537.704 76.125 536.219C77.164 535.222 77.7057 533.463 77.9062 529.25C78.4058 522.256 78.9062 515.744 78.9062 508.75C78.1163 508.681 77.2981 508.754 76.5 508.719Z" fill="#f6d2a2" fill-rule="nonzero" opacity="1" stroke="none"/>
<path d="M76.4375 507.25C76.4491 507.739 76.4899 508.23 76.5 508.719C76.5127 509.333 76.5523 509.949 76.5625 510.562C77.0187 510.635 77.3311 510.558 77.9062 510.75C77.9063 515.246 77.9058 520.254 77.4062 524.75C76.9067 526.249 76.9062 527.751 76.9062 529.25C76.7814 530.749 76.5624 531.079 76.4062 531.938C76.4059 531.947 76.4067 531.959 76.4062 531.969C76.3981 531.991 76.379 532.01 76.375 532.031C75.9055 534.52 75.2573 535.51 73.4062 536.25C71.9075 536.749 69.9037 537.252 66.9062 539.25C64.6582 540.749 61.7745 542.351 58.8438 543.594C57.3763 544.218 55.8972 544.75 54.4688 545.125C53.0534 545.492 51.677 545.719 50.4375 545.719C47.5879 545.719 43.9174 544.645 43.125 537.688C43.0839 537.327 42.9621 537.144 42.9375 536.75L42.9375 536L42.9375 535.75L42.8125 535.688L41.9375 535.25C41.6843 535.123 41.5961 534.923 41.375 534.781C41.3183 534.836 40.9059 535.25 40.4375 535.25C40.04 535.25 39.8016 535.496 39.5938 535.75C39.279 536.133 39.1367 536.648 39.4375 537.25C39.4375 537.75 40.4379 538.25 40.9375 538.25L41.25 538.25C43.2893 553.452 59.6907 546.024 67.4062 540.719C71.8909 537.43 74.5764 537.704 76.125 536.219C76.0909 536.927 76.0368 537.725 76 538.438C77.1929 537.785 78.0702 536.848 78.6875 535.406C79.2728 534.039 79.7061 532.253 79.9062 529.25C80.4058 527.751 80.4063 526.249 80.4062 524.75C80.4292 524.52 80.4466 524.265 80.4688 524.031C80.4689 524.021 80.4686 524.01 80.4688 524C80.9421 519.2 81.3818 513.981 80.9062 508.75L80.9062 507.25L80.375 507.25L79 507.25L76.4688 507.25L76.4375 507.25Z" fill="#000000" fill-rule="nonzero" opacity="1" stroke="none"/>
<path d="M40.9357 536.738C43.4335 535.739 46.431 535.239 47.9297 532.741" fill="#c6b198" fill-rule="evenodd" opacity="1" stroke="none" vectornator:layerName="path"/>
<path d="M40.9357 538.236C40.4361 538.236 39.437 537.737 39.437 537.237C38.9374 536.238 39.437 535.239 40.4361 535.239C40.9357 535.239 41.4353 534.739 41.4353 534.739C43.4335 533.74 45.4318 533.241 46.431 531.742C46.9305 531.242 47.9297 530.743 48.9288 531.242C49.4284 531.742 49.9279 532.741 49.4284 533.74C47.4301 536.238 44.9322 537.237 42.934 537.737L41.9348 538.236L40.9357 538.236Z" fill="#000000" fill-rule="nonzero" opacity="1" stroke="none" vectornator:layerName="path"/>
<path d="M81.9003 325.42C13.959 306.437 64.4154 220.011 118.868 255.481L81.9003 325.42Z" fill="#6ad7e5" fill-rule="evenodd" opacity="1" stroke="none" vectornator:layerName="path"/>
<path d="M82.8995 327.418L81.4008 326.919C46.431 316.927 46.9305 291.949 47.9297 284.456C50.4275 265.472 68.412 245.489 92.3913 245.489C101.883 245.489 110.875 248.487 119.868 254.481L121.366 255.481L82.8995 327.418ZM92.3913 248.986C69.9107 248.986 53.4249 267.47 50.9271 284.955C48.4292 302.94 59.4197 316.927 80.9012 323.422L116.371 255.98C108.877 251.484 100.884 248.986 92.3913 248.986Z" fill="#000000" fill-rule="nonzero" opacity="1" stroke="none" vectornator:layerName="path"/>
<path d="M383.14 248.986C436.594 211.518 485.552 296.445 423.106 317.927L383.14 248.986Z" fill="#6ad7e5" fill-rule="evenodd" opacity="1" stroke="none" vectornator:layerName="path"/>
<path d="M422.606 319.925L381.142 248.487L382.641 247.487C392.132 240.993 401.624 237.496 411.116 237.496C434.096 237.496 450.582 256.48 454.079 274.964C455.578 282.457 457.076 307.935 424.105 318.926L422.606 319.925ZM385.638 249.985L424.105 316.428C443.588 309.434 453.579 294.447 450.582 276.462C447.585 259.477 432.098 241.992 411.116 241.992C402.623 241.493 394.131 243.99 385.638 249.985Z" fill="#000000" fill-rule="nonzero" opacity="1" stroke="none" vectornator:layerName="path"/>
<path d="M395.13 754.55C408.618 763.042 433.597 788.52 413.114 801.009C393.631 818.994 382.641 781.027 365.156 776.031C372.649 766.04 382.141 756.548 395.13 754.55" fill="#f6d2a2" fill-rule="evenodd" opacity="1" stroke="none" vectornator:layerName="path"/>
<path d="M402.623 807.504C394.63 807.504 387.636 799.511 381.642 792.017C376.146 786.022 370.651 779.528 364.656 777.53L362.158 777.03L363.657 775.032C369.652 766.539 379.643 755.549 394.63 753.051L395.13 753.051L395.629 753.55C404.122 759.046 422.606 774.532 422.107 789.02C422.107 794.515 419.109 799.011 413.614 802.508C410.117 806.005 406.62 807.504 402.623 807.504ZM367.654 775.032C373.648 777.53 378.644 784.024 383.64 789.519C389.635 797.013 395.629 803.507 402.124 803.507C405.121 803.507 408.119 802.009 411.116 799.011L411.616 799.011C416.112 796.014 418.61 792.517 418.61 788.021C418.61 776.531 404.122 762.043 394.131 755.549C385.138 758.047 376.146 764.041 367.654 775.032ZM413.114 802.508C412.615 802.508 412.115 802.009 411.616 801.509C410.616 799.511 409.617 797.013 409.118 795.015C407.619 791.018 406.12 787.022 403.123 784.024C402.623 783.525 402.623 782.525 403.123 781.526C403.623 781.027 404.622 781.027 405.621 781.526C409.118 785.023 411.116 789.519 412.615 794.016L415.113 800.01C415.612 801.009 415.113 802.009 414.613 802.508L413.114 802.508Z" fill="#000000" fill-rule="nonzero" opacity="1" stroke="none" vectornator:layerName="path"/>
<path d="M151.34 783.525C135.354 786.022 126.362 800.51 112.874 808.003C100.384 815.497 95.3887 805.506 94.3895 803.507C92.3913 802.508 92.3913 804.506 89.3939 801.509C77.9038 783.025 101.384 769.537 113.873 760.544C131.358 756.548 142.348 771.535 151.34 783.525" fill="#f6d2a2" fill-rule="evenodd" opacity="1" stroke="none" vectornator:layerName="path"/>
<path d="M104.381 812C97.8865 812 94.3895 806.505 93.3904 804.506L92.8908 804.506C91.3921 804.506 90.393 804.007 88.3947 802.009L88.3947 801.509C77.4042 784.024 96.3878 770.536 108.877 761.544L113.373 758.546L114.372 758.546C116.371 758.047 117.869 758.047 119.868 758.047C134.855 758.047 144.346 771.035 152.34 781.526L154.837 785.023L151.84 785.523C142.348 787.022 135.354 793.016 128.36 799.011C123.864 803.008 119.368 806.505 114.372 809.502C110.376 811.001 107.378 812 104.381 812ZM93.3904 801.509C93.89 801.509 94.3895 801.509 95.3887 802.009L95.8882 802.009L96.3878 802.508C97.387 804.007 99.8848 808.503 104.88 808.503C107.378 808.503 109.876 807.504 112.374 806.005C117.37 803.507 121.866 799.511 125.862 796.014C132.357 790.519 139.351 784.524 148.343 782.026C140.849 772.035 131.857 761.044 119.368 761.044C117.869 761.044 116.371 761.044 114.872 761.544L110.875 764.541C97.8865 773.533 81.9003 785.023 91.3921 800.01C91.8917 801.009 92.3913 801.509 93.3904 801.509ZM94.3895 805.006C93.3904 805.006 92.3913 804.007 92.8908 803.008C93.3904 798.012 95.8882 794.515 98.3861 790.519C99.8848 788.52 100.884 786.522 101.883 784.524C102.383 783.525 103.382 783.525 103.881 783.525C104.88 784.024 104.88 785.023 104.88 785.523C103.881 788.021 102.383 790.019 100.884 792.017C98.3861 795.514 96.3878 798.512 95.8882 802.508C95.8882 804.506 95.3887 805.006 94.3895 805.006Z" fill="#000000" fill-rule="nonzero" opacity="1" stroke="none" vectornator:layerName="path"/>
<path d="M84.8977 301.94C75.9055 297.444 69.4111 290.95 74.9064 280.459C79.9021 270.967 89.3939 271.966 98.3861 276.462L84.8977 301.94ZM409.118 292.948C418.11 288.452 424.604 281.958 419.109 271.467C414.113 261.975 404.622 262.974 395.629 267.47L409.118 292.948Z" fill="#000000" fill-rule="evenodd" opacity="1" stroke="none" vectornator:layerName="path"/>
<path d="M436.719 506.219C435.343 506.238 433.948 506.132 432.594 506.25C432.594 513.244 433.094 519.756 433.594 526.75C433.916 533.52 435.238 534.093 438.031 535.094C438.43 535.237 438.72 535.35 439.188 535.531C439.444 535.631 439.784 535.88 440.062 536C441.231 536.505 442.505 537.085 444.094 538.25C451.717 543.491 467.802 550.736 470.156 536.25C470.27 535.548 470.517 535.058 470.562 534.25C471.065 534.012 471.316 533.678 471.719 533.406C471.649 533.363 471.638 533.288 471.562 533.25C471.563 533.25 471.062 532.75 470.562 532.75C470.456 532.697 470.356 532.676 470.25 532.625C470.172 532.666 470.144 532.71 470.062 532.75L469.062 533.25L469.062 533.406L463.562 530.25C464.771 532.264 466.953 532.962 469.062 533.688L469.062 534.25C469.027 534.825 468.852 535.12 468.781 535.625C467.872 542.138 464.345 543.219 461.562 543.219C460.306 543.219 458.938 543.004 457.5 542.625C453.219 541.508 448.466 538.998 445.094 536.75C442.729 535.568 441.335 534.936 439.969 534.375C439.868 528.672 439.532 522.953 439.094 517.25C438.872 514.139 438.88 510.973 438.719 507.844C438.704 507.552 438.671 507.26 438.656 506.969C438.641 506.719 438.637 506.468 438.625 506.219C438.28 506.212 437.938 506.219 437.594 506.219C437.301 506.218 437.01 506.215 436.719 506.219Z" fill="#f6d2a2" fill-rule="nonzero" opacity="1" stroke="none"/>
<path d="M431.094 504.75L431.094 506.25C430.594 511.745 431.094 517.254 431.594 522.25C432.093 523.749 432.094 525.251 432.094 526.75C432.593 534.244 433.597 535.252 437.594 536.75C437.738 536.798 437.98 536.974 438.125 537.031C438.452 537.16 438.967 537.512 439.312 537.688C439.558 537.813 439.892 538.008 440.156 538.156C441.072 538.671 441.762 538.951 443.094 539.75C445.592 541.249 454.069 546.719 461.562 546.719C465.059 546.719 471.563 545.241 472.562 535.25C473.024 534.788 472.57 533.933 471.719 533.406C471.649 533.363 471.638 533.288 471.562 533.25C471.563 533.25 471.062 532.75 470.562 532.75C470.456 532.697 470.356 532.676 470.25 532.625C470.172 532.666 470.144 532.71 470.062 532.75L469.062 533.25L469.062 533.406L470.562 534.25C470.078 534.056 469.57 533.862 469.062 533.688L469.062 534.25C469.027 534.825 468.852 535.12 468.781 535.625C467.872 542.138 464.345 543.219 461.562 543.219C460.306 543.219 458.938 543.004 457.5 542.625C453.219 541.508 448.466 538.998 445.094 536.75C442.729 535.568 441.335 534.936 439.969 534.375C439.735 534.279 439.306 534.046 439.094 533.969C438.973 533.925 438.708 533.788 438.594 533.75C438.328 533.644 438.16 533.561 437.938 533.469C436.065 532.695 435.54 532.107 435.094 526.75C434.594 525.251 434.594 523.749 434.594 522.25C434.094 517.754 434.094 512.746 434.094 508.25C435.204 508.25 436.017 508.172 436.781 507.969C437.049 507.898 437.334 507.88 437.594 507.75C437.615 507.75 437.635 507.75 437.656 507.75C438.012 507.75 438.363 507.836 438.719 507.844C438.691 507.303 438.651 506.76 438.625 506.219C438.602 505.75 438.584 505.281 438.562 504.812C438.237 504.804 437.921 504.75 437.594 504.75L437.531 504.75L436.656 504.75L431.094 504.75Z" fill="#000000" fill-rule="nonzero" opacity="1" stroke="none"/>
<path d="M470.565 534.24C468.067 533.241 465.069 532.741 463.571 530.243" fill="#c6b198" fill-rule="evenodd" opacity="1" stroke="none" vectornator:layerName="path"/>
<path d="M463.562 530.25C464.771 532.264 466.953 532.962 469.062 533.688L469.062 534.25C469.027 534.825 468.852 535.12 468.781 535.625C468.88 535.663 468.964 535.711 469.062 535.75L470.062 536.25L470.156 536.25L470.562 536.25C471.062 536.25 472.063 535.75 472.562 535.25C472.789 535.024 472.763 534.682 472.625 534.344C472.463 534.006 472.144 533.67 471.719 533.406C471.649 533.363 471.638 533.288 471.562 533.25C471.563 533.25 471.062 532.75 470.562 532.75C470.456 532.697 470.356 532.676 470.25 532.625C470.172 532.666 470.144 532.71 470.062 532.75L469.062 533.25L469.062 533.406L463.562 530.25Z" fill="#000000" fill-rule="nonzero" opacity="1" stroke="none"/>
<path d="M249.256 213.517C317.197 213.517 380.642 223.009 414.113 288.452C444.088 361.389 433.097 440.321 438.093 517.754C442.089 584.197 450.582 660.631 420.108 722.078C387.636 786.522 306.706 803.008 240.264 800.51C187.809 798.512 124.863 781.526 94.8891 733.568C60.4189 677.616 76.4051 594.188 78.9029 531.742C81.9003 457.806 58.9202 383.37 83.399 311.432C107.878 235.997 175.819 219.012 249.256 213.517" fill="#6ad7e5" fill-rule="evenodd" opacity="1" stroke="none" vectornator:layerName="path"/>
<path d="M251.754 802.508L239.264 802.508C218.782 802.009 187.809 798.512 157.335 786.022C127.861 774.033 106.379 757.047 92.3913 734.567C64.4154 689.106 69.4111 626.66 73.9072 571.208C74.9064 557.22 75.9055 544.231 76.4051 531.742C77.4042 505.764 75.4059 478.788 72.9081 453.31C68.9115 406.35 64.915 357.892 80.4016 310.933C92.3913 275.963 113.873 250.984 146.345 234.998C171.823 222.509 203.296 215.515 248.257 212.018C315.199 211.518 381.642 221.01 415.113 287.453C437.094 340.907 437.094 398.357 437.593 453.809C437.593 474.791 437.593 496.273 439.092 517.254C439.591 523.749 440.091 530.243 440.091 536.738C444.088 597.685 448.584 666.626 420.608 722.577C406.62 751.053 382.141 772.035 348.67 785.523C321.693 796.513 287.723 802.508 251.754 802.508ZM249.256 215.015C178.817 220.511 109.876 235.997 84.3982 311.932C68.9115 358.392 72.9081 406.35 76.9046 452.81C78.9029 478.788 81.4008 505.265 80.4016 531.742C79.9021 544.231 78.9029 557.22 77.9038 571.208C73.4077 626.16 68.412 688.107 95.8882 732.569C107.378 751.053 144.346 795.015 239.764 798.512L252.253 798.512C362.658 798.512 403.623 749.554 418.61 720.579C446.086 665.626 441.59 596.686 438.093 536.238C437.593 529.744 437.094 523.249 437.094 516.755C436.094 495.773 435.595 474.292 435.595 453.31C435.095 398.357 435.095 340.907 413.614 287.952C398.627 258.478 376.146 238.495 345.173 227.005C313.201 216.514 277.232 215.015 249.256 215.015Z" fill="#000000" fill-rule="nonzero" opacity="1" stroke="none" vectornator:layerName="path"/>
<path d="M261.245 304.438C273.235 375.377 389.135 356.393 372.649 284.955C357.662 221.01 257.249 238.995 261.245 304.438" fill="#ffffff" fill-rule="evenodd" opacity="1" stroke="none" vectornator:layerName="path"/>
<path d="M316.198 350.898C293.717 350.898 265.242 338.908 259.247 304.938C258.248 288.952 263.244 274.464 273.735 263.474C285.225 250.984 302.71 243.99 320.694 243.99C341.676 243.99 366.654 254.981 373.648 285.455C377.645 302.44 374.648 317.427 365.156 329.417C354.665 342.405 336.181 350.898 316.198 350.898ZM262.744 304.438C265.242 318.426 271.736 329.417 282.227 337.41C291.22 344.404 303.709 347.901 316.198 347.901C334.682 347.901 352.667 339.908 362.658 327.418C371.65 316.428 374.148 301.94 370.651 285.954C364.157 257.479 340.677 247.487 320.694 247.487C303.709 247.487 287.223 254.481 276.233 265.971C266.741 275.963 261.745 289.451 262.744 304.438Z" fill="#000000" fill-rule="nonzero" opacity="1" stroke="none" vectornator:layerName="path"/>
<path d="M122.865 315.928C138.851 377.375 237.266 361.889 233.769 299.942C229.273 226.006 107.378 239.994 122.865 315.928" fill="#ffffff" fill-rule="evenodd" opacity="1" stroke="none" vectornator:layerName="path"/>
<path d="M175.32 356.893C153.838 356.893 128.86 346.402 120.867 316.428C117.37 298.943 120.867 282.957 130.858 270.967C141.849 257.479 159.833 249.486 179.316 249.486C205.294 249.486 232.77 264.972 234.768 299.942C235.767 314.43 231.271 327.418 221.28 337.909C210.789 349.399 193.304 356.893 175.32 356.893ZM179.316 252.983C160.832 252.983 143.847 260.476 133.356 272.965C123.864 284.456 120.867 298.943 124.364 315.429C131.358 343.405 155.337 353.396 175.32 353.396C192.305 353.396 208.791 346.902 219.282 335.412C228.274 325.92 232.77 313.43 231.771 299.942C230.772 278.461 216.284 252.983 179.316 252.983Z" fill="#000000" fill-rule="nonzero" opacity="1" stroke="none" vectornator:layerName="path"/>
<path d="M275.233 389.365C275.233 398.357 277.232 408.848 275.733 418.839C273.235 423.336 268.739 423.835 264.742 425.334C259.247 424.335 254.751 420.838 252.253 415.842C250.755 404.852 252.753 393.861 253.252 382.871L275.233 389.365Z" fill="#ffffff" fill-rule="evenodd" opacity="1" stroke="none" vectornator:layerName="path"/>
<path d="M264.742 427.332C258.248 426.333 253.252 422.336 250.755 416.841C249.755 408.848 250.255 401.355 250.755 393.861C251.254 390.364 251.254 386.867 251.254 383.37L251.254 381.372L276.732 389.365L276.732 390.364C276.732 393.361 277.232 396.359 277.232 399.856C277.731 406.35 278.231 413.344 277.232 419.839L277.232 420.338C275.233 424.335 271.736 425.334 268.239 426.833C267.24 426.333 266.241 426.833 264.742 427.332ZM253.752 415.342C255.75 419.839 259.747 422.836 264.243 423.835C265.242 423.336 266.241 423.336 266.741 422.836C269.738 421.837 272.236 420.838 273.735 418.34C274.734 412.345 274.234 405.851 273.735 399.356C273.735 396.359 273.235 393.361 273.235 390.864L254.252 384.869C254.252 387.866 253.752 390.864 253.752 393.361C253.252 401.355 252.753 408.349 253.752 415.342Z" fill="#000000" fill-rule="nonzero" opacity="1" stroke="none" vectornator:layerName="path"/>
<g opacity="1" vectornator:layerName="g">
<path d="M166.827 305.937C166.827 315.928 159.333 323.921 150.341 323.921C141.349 323.921 133.855 315.928 133.855 305.937C133.855 295.946 141.349 287.952 150.341 287.952C159.333 287.952 166.827 295.946 166.827 305.937" fill="#000000" fill-rule="evenodd" opacity="1" stroke="none" vectornator:layerName="path"/>
<path d="M161.332 309.934C161.332 312.431 159.333 314.43 157.335 314.43C155.337 314.43 153.339 312.431 153.339 309.934C153.339 307.436 155.337 305.437 157.335 305.437C159.833 305.437 161.332 307.436 161.332 309.934" fill="#ffffff" fill-rule="evenodd" opacity="1" stroke="none" vectornator:layerName="path"/>
<path d="M306.207 301.441C306.207 311.432 298.713 319.425 289.721 319.425C280.729 319.425 273.235 311.432 273.235 301.441C273.235 291.449 280.729 283.456 289.721 283.456C298.713 283.456 306.207 291.449 306.207 301.441" fill="#000000" fill-rule="evenodd" opacity="1" stroke="none" vectornator:layerName="path"/>
<path d="M301.211 305.437C301.211 307.935 299.712 309.934 297.214 309.934C295.216 309.934 293.218 307.935 293.218 305.437C293.218 302.94 294.717 300.941 297.214 300.941C299.213 300.941 301.211 302.94 301.211 305.437M227.275 388.366C219.781 405.851 231.271 441.32 251.254 415.342C249.755 404.352 251.754 393.361 252.253 382.371L227.275 388.366Z" fill="#ffffff" fill-rule="evenodd" opacity="1" stroke="none" vectornator:layerName="path"/>
</g>
<path d="M237.766 426.333C234.269 426.333 230.772 424.335 228.274 420.338C222.779 412.345 221.78 397.358 225.776 387.866L226.276 386.867L253.752 379.873L253.752 381.871L253.252 392.862C252.753 400.355 252.253 407.349 253.252 414.843L253.252 415.342L252.753 415.842C247.757 422.836 242.761 426.333 237.766 426.333ZM228.774 389.864C225.776 398.357 226.775 411.846 231.271 418.34C233.27 421.337 235.268 422.836 237.766 422.836C241.263 422.836 245.259 419.839 249.256 414.843C248.257 407.349 248.756 399.856 249.755 392.862L250.255 384.369L228.774 389.864Z" fill="#000000" fill-rule="nonzero" opacity="1" stroke="none" vectornator:layerName="path"/>
<path d="M229.773 354.395C216.284 355.394 205.294 371.88 212.288 384.369C221.78 401.355 242.262 382.871 255.251 384.369C270.238 384.869 282.227 400.355 294.217 387.367C307.705 372.879 288.222 358.891 273.735 352.397L229.773 354.395Z" fill="#f6d2a2" fill-rule="evenodd" opacity="1" stroke="none" vectornator:layerName="path"/>
<path d="M283.726 394.361C279.23 394.361 274.734 392.362 270.238 390.364C265.742 388.366 260.746 386.368 255.251 386.368L253.752 386.368C249.755 386.368 245.259 387.866 240.264 389.864C234.768 391.863 229.273 393.361 224.277 393.361C218.283 393.361 213.786 390.864 210.789 385.368C207.292 379.374 207.792 372.38 211.289 365.885C215.285 358.392 222.279 353.896 229.773 352.896L274.234 350.898L274.734 350.898C285.724 355.394 298.214 363.887 300.711 373.878C301.711 378.874 300.212 383.87 296.215 388.366C292.219 392.862 288.222 394.361 283.726 394.361ZM255.75 383.37C261.245 383.37 266.741 385.868 271.736 387.866C276.233 389.864 280.229 391.363 284.226 391.363C287.723 391.363 290.72 389.864 293.717 386.867C297.214 383.37 298.214 379.374 297.714 375.377C295.716 366.884 283.726 358.891 274.234 354.895L230.772 356.893C224.277 357.393 218.283 361.889 214.786 367.883C211.788 373.379 211.788 379.374 214.286 384.369C216.784 388.865 219.781 390.864 224.777 390.864C229.273 390.864 234.269 388.865 239.264 387.367C244.76 385.368 249.256 383.87 254.252 383.87C254.252 382.871 254.751 382.871 255.75 383.37Z" fill="#231f20" fill-rule="nonzero" opacity="1" stroke="none" vectornator:layerName="path"/>
<path d="M228.274 353.896C227.275 330.416 272.236 327.418 277.232 346.902C282.727 366.884 230.272 371.38 228.274 353.896" fill="#000000" fill-rule="evenodd" opacity="1" stroke="none" vectornator:layerName="path"/>
</g>
</g>
</svg>
