<?xml version="1.0" encoding="UTF-8" standalone="no"?>
<!DOCTYPE svg PUBLIC "-//W3C//DTD SVG 1.1//EN" "http://www.w3.org/Graphics/SVG/1.1/DTD/svg11.dtd">
<!-- Created with Vectornator (http://vectornator.io/) -->
<svg height="100%" stroke-miterlimit="10" style="fill-rule:nonzero;clip-rule:evenodd;stroke-linecap:round;stroke-linejoin:round;" version="1.1" viewBox="0 0 512 512" width="100%" xml:space="preserve" xmlns="http://www.w3.org/2000/svg" xmlns:vectornator="http://vectornator.io" xmlns:xlink="http://www.w3.org/1999/xlink">
<defs/>
<g id="Ebene-1" vectornator:layerName="Ebene 1">
<path d="M2.84217e-14 95C2.84217e-14 42.5329 42.5329 0 95 0L417 0C469.467 0 512 42.5329 512 95L512 417C512 469.467 469.467 512 417 512L95 512C42.5329 512 2.84217e-14 469.467 2.84217e-14 417L2.84217e-14 95Z" fill="#d34a47" fill-rule="nonzero" opacity="1" stroke="none" vectornator:layerName="Rechteck 1"/>
<g opacity="1" vectornator:layerName="gulp.svg">
<path d="M311.018 467.434L315.336 395.492L327.257 375.142C327.257 375.142 300.124 386.242 254.698 386.242C209.272 386.242 182.55 375.347 182.55 375.347L195.911 397.546L200.637 467.434C200.637 474.927 225.346 481 255.828 481C286.308 481 311.018 474.927 311.018 467.434M297.399 131.476L306.461 95.6558L356.646 42.85L343.419 31.5842L290.288 87.8355L279.766 130.631C271.847 130.365 263.924 130.234 256.001 130.235C200.045 130.235 154.683 136.612 154.683 144.477C154.683 152.343 200.045 158.719 256.001 158.719C311.956 158.719 357.317 152.343 357.317 144.477C357.317 138.686 332.715 133.701 297.399 131.476" fill="#ffffff" fill-rule="nonzero" opacity="1" stroke="none" vectornator:layerName="path"/>
<path d="M292.128 151.535C292.128 151.535 290.165 151.975 284.392 152C278.617 152.024 274.517 151.963 272.883 150.475C272.444 150.076 272.204 149.282 272.206 148.745C272.211 147.723 272.937 147.121 273.861 146.744L274.735 148.115C274.355 148.247 274.138 148.402 274.137 148.567C274.134 149.344 280.042 149.875 284.56 149.818C289.08 149.762 294.541 149.39 294.545 148.625C294.545 148.393 294.133 148.175 293.414 148.003L294.284 146.641C295.456 147.005 296.478 147.707 296.475 148.923C296.464 150.99 293.834 151.304 292.128 151.535" fill="#ffffff" fill-rule="nonzero" opacity="1" stroke="none" vectornator:layerName="path"/>
<path d="M356.547 42.9543C357.809 41.4968 355.894 37.7688 352.27 34.6288C348.645 31.4903 344.683 30.1267 343.419 31.5842C342.156 33.0417 344.072 36.7696 347.697 39.9081C351.321 43.0473 355.284 44.4125 356.547 42.9543M308.604 291.709C307.415 280.266 333.634 263.693 326.905 263.162C312.42 263.99 305.211 280.138 297.923 297.05C295.252 303.248 286.113 329.678 280.12 326.424C274.128 323.172 287.888 301.438 291.745 288.531C287.295 291.794 270.974 304.474 266.768 292.599C260.006 298.342 245.556 301.454 247.186 286.368C243.589 292.74 235.514 301.637 225.823 297.94C213.096 293.086 233.198 252.544 238.196 254.589C243.196 256.634 237.188 265.869 235.614 269.456C232.153 277.348 228.156 287.271 230.826 289.302C235.402 292.781 247.852 276.138 248.129 275.772C250.457 272.695 257.092 252.569 262.438 254.88C267.785 257.191 249.102 283.765 256.088 289.038C257.496 290.103 263.261 288.382 266.768 284.588C269.037 282.134 268.256 276.698 275.82 258.661C283.383 240.625 290.124 218.163 295.311 219.874C300.498 221.585 296.222 233.113 294.362 237.411C285.63 257.581 270.53 290.905 277.651 288.382C284.772 285.86 288.48 285.712 295.453 277.552C302.426 269.392 302.105 255.951 306.752 256.237C311.402 256.523 310.621 260.833 309.494 264.114C314.068 258.88 331.177 247.855 335.308 258.774C340.201 271.701 310.83 290.373 318.153 289.421C325.293 288.493 336.86 281.166 341.799 274.505L355.393 152.287C355.393 152.287 341.714 163.608 254.685 163.608C167.655 163.608 155.391 152.523 155.391 152.523L166.965 264.079C173.108 246.619 187.696 211.302 210.691 212.488C221.151 213.027 235.114 233.168 223.153 233.851C218.09 234.139 217.576 223.797 211.581 222.279C207.255 221.182 201.232 224.699 197.339 228.51C189.576 236.108 172.88 266.083 175.086 281.028C177.896 300.081 201.377 274.407 205.35 266.785C208.148 261.416 210.038 245.508 216.158 247.177C222.278 248.846 215.624 265.263 211.188 279.778C206.205 296.077 203.585 313.269 197.339 311.292C191.092 309.315 201.267 288.275 200.899 284.588C195.028 290.005 184.212 303.719 170.374 296.931L177.562 366.206C177.562 366.206 196.665 381.3 254.213 381.3C311.761 381.3 331.572 366.442 331.572 366.442L340.497 286.205C333.195 293.315 310.084 305.942 308.604 291.709" fill="#ffffff" fill-rule="nonzero" opacity="1" stroke="none" vectornator:layerName="path"/>
</g>
</g>
</svg>
