<?xml version="1.0" encoding="UTF-8" standalone="no"?>
<!DOCTYPE svg PUBLIC "-//W3C//DTD SVG 1.1//EN" "http://www.w3.org/Graphics/SVG/1.1/DTD/svg11.dtd">
<!-- Created with Vectornator (http://vectornator.io/) -->
<svg height="100%" stroke-miterlimit="10" style="fill-rule:nonzero;clip-rule:evenodd;stroke-linecap:round;stroke-linejoin:round;" version="1.1" viewBox="0 0 512 512" width="100%" xml:space="preserve" xmlns="http://www.w3.org/2000/svg" xmlns:vectornator="http://vectornator.io" xmlns:xlink="http://www.w3.org/1999/xlink">
<defs/>
<g id="Ebene-1" vectornator:layerName="Ebene 1">
<path d="M2.84217e-14 95C2.84217e-14 42.5329 42.5329 0 95 0L417 0C469.467 0 512 42.5329 512 95L512 417C512 469.467 469.467 512 417 512L95 512C42.5329 512 2.84217e-14 469.467 2.84217e-14 417L2.84217e-14 95Z" fill="#6762a5" fill-rule="nonzero" opacity="1" stroke="none" vectornator:layerName="Rechteck 1"/>
<g opacity="1" vectornator:layerName="heroku-4.svg">
<path d="M198.851 56L136.955 56.3907C136.955 56.3906 136.925 259.606 137.258 258.662C326.744 184.907 312.531 237.263 312.531 237.263L312.531 455.984L372.214 455.984L372.214 238C372.214 117.937 198.851 186.217 198.851 186.217L198.851 56Z" fill="#6762a5" fill-rule="nonzero" opacity="1" stroke="none"/>
<path d="M138.04 331.063L138.04 455.637L200.327 393.35L138.04 331.063Z" fill="#6762a5" fill-rule="nonzero" opacity="1" stroke="none"/>
<path d="M327.159 56.3907C327.159 56.3907 305.787 105.934 282.147 134.825L347.82 134.825C383.461 88.6828 395.073 56.3907 395.045 56.3907L327.159 56.3907Z" fill="#6762a5" fill-rule="nonzero" opacity="1" stroke="none"/>
<path d="M312.531 456L312.531 237.263C312.531 237.263 326.754 184.926 137.269 258.681C136.935 259.625 136.935 56.3889 136.935 56.3889L198.856 56L198.856 186.203C198.856 186.203 372.202 117.921 372.202 237.985L372.202 456L312.531 456ZM347.811 134.811L282.14 134.811C305.781 105.92 327.171 56.3889 327.171 56.3889L395.064 56.3889C395.092 56.3889 383.453 88.6689 347.811 134.811ZM138.047 455.639L138.047 331.075L200.329 393.357L138.047 455.639Z" fill="#ffffff" fill-rule="nonzero" opacity="1" stroke="none" vectornator:layerName="path"/>
</g>
</g>
</svg>
