<?xml version="1.0" encoding="UTF-8" standalone="no"?>
<!DOCTYPE svg PUBLIC "-//W3C//DTD SVG 1.1//EN" "http://www.w3.org/Graphics/SVG/1.1/DTD/svg11.dtd">
<!-- Created with Vectornator (http://vectornator.io/) -->
<svg height="100%" stroke-miterlimit="10" style="fill-rule:nonzero;clip-rule:evenodd;stroke-linecap:round;stroke-linejoin:round;" version="1.1" viewBox="0 0 512 512" width="100%" xml:space="preserve" xmlns="http://www.w3.org/2000/svg" xmlns:vectornator="http://vectornator.io" xmlns:xlink="http://www.w3.org/1999/xlink">
<defs>
<linearGradient gradientTransform="matrix(1.5625 0 0 1.5625 56 56)" gradientUnits="userSpaceOnUse" id="LinearGradient" x1="2.8" x2="121.76" y1="146.6" y2="146.6">
<stop offset="0.26" stop-color="#f97a12"/>
<stop offset="0.46" stop-color="#b07b58"/>
<stop offset="0.72" stop-color="#577bae"/>
<stop offset="0.91" stop-color="#1e7ce5"/>
<stop offset="1" stop-color="#087cfa"/>
</linearGradient>
<linearGradient gradientTransform="matrix(1.5625 0 0 1.5625 56 56)" gradientUnits="userSpaceOnUse" id="LinearGradient_2" x1="94.1603" x2="290.4" y1="91.0408" y2="199.6">
<stop offset="0" stop-color="#f97a12"/>
<stop offset="0.07" stop-color="#cb7a3e"/>
<stop offset="0.15" stop-color="#9e7b6a"/>
<stop offset="0.24" stop-color="#757b91"/>
<stop offset="0.33" stop-color="#537bb1"/>
<stop offset="0.43" stop-color="#387ccc"/>
<stop offset="0.54" stop-color="#237ce0"/>
<stop offset="0.66" stop-color="#147cef"/>
<stop offset="0.79" stop-color="#0b7cf7"/>
<stop offset="1" stop-color="#087cfa"/>
</linearGradient>
<linearGradient gradientTransform="matrix(1.5625 0 0 1.5625 56 56)" gradientUnits="userSpaceOnUse" id="LinearGradient_3" x1="231.2" x2="176.6" y1="156.879" y2="-6.35994">
<stop offset="0" stop-color="#fe315d"/>
<stop offset="0.08" stop-color="#cb417e"/>
<stop offset="0.16" stop-color="#9e4e9b"/>
<stop offset="0.25" stop-color="#755bb4"/>
<stop offset="0.34" stop-color="#5365ca"/>
<stop offset="0.44" stop-color="#386ddb"/>
<stop offset="0.54" stop-color="#2374e9"/>
<stop offset="0.66" stop-color="#1478f3"/>
<stop offset="0.79" stop-color="#0b7bf8"/>
<stop offset="1" stop-color="#087cfa"/>
</linearGradient>
<linearGradient gradientTransform="matrix(1.5625 0 0 1.5625 56 56)" gradientUnits="userSpaceOnUse" id="LinearGradient_4" x1="39.28" x2="203.121" y1="60.1212" y2="331.159">
<stop offset="0" stop-color="#fe315d"/>
<stop offset="0.04" stop-color="#f63462"/>
<stop offset="0.1" stop-color="#df3a71"/>
<stop offset="0.17" stop-color="#c24383"/>
<stop offset="0.29" stop-color="#ad4a91"/>
<stop offset="0.55" stop-color="#755bb4"/>
<stop offset="0.92" stop-color="#1d76ed"/>
<stop offset="1" stop-color="#087cfa"/>
</linearGradient>
</defs>
<g id="Ebene-1" vectornator:layerName="Ebene 1">
<path d="M2.84217e-14 95C2.84217e-14 42.5329 42.5329 0 95 0L417 0C469.467 0 512 42.5329 512 95L512 417C512 469.467 469.467 512 417 512L95 512C42.5329 512 2.84217e-14 469.467 2.84217e-14 417L2.84217e-14 95Z" fill="#232531" fill-rule="nonzero" opacity="1" stroke="none" vectornator:layerName="Rechteck 1"/>
<g opacity="1" vectornator:layerName="intellij-idea-1.svg">
<path d="M157.25 367.875L60.375 291.625L108.5 202.25L246.625 256L157.25 367.875Z" fill="url(#LinearGradient)" fill-rule="nonzero" opacity="1" stroke="none" vectornator:layerName="path"/>
<path d="M456 162.875L448.5 394.125L294.75 456L202.25 396L337.25 256L278.5 126L331.625 62.25L456 162.875Z" fill="url(#LinearGradient_2)" fill-rule="nonzero" opacity="1" stroke="none" vectornator:layerName="path"/>
<path d="M456 162.875L334.125 306.625L278.5 126L331.625 62.25L456 162.875Z" fill="url(#LinearGradient_3)" fill-rule="nonzero" opacity="1" stroke="none" vectornator:layerName="path"/>
<path d="M248.5 387.875L88.5 446L114.125 356L147.25 244.75L56 214.125L114.125 56L239.125 71L362.875 212.25L248.5 387.875Z" fill="url(#LinearGradient_4)" fill-rule="nonzero" opacity="1" stroke="none" vectornator:layerName="path"/>
<path d="M131 131L381 131L381 381L131 381L131 131Z" fill="#000000" fill-rule="nonzero" opacity="1" stroke="none" vectornator:layerName="path"/>
<path d="M154.75 334.125L248.5 334.125L248.5 349.75L154.75 349.75L154.75 334.125ZM221.625 182.25L221.625 163.5L170.375 163.5L170.375 182.25L184.75 182.25L184.75 247.875L170.375 247.875L170.375 267.25L221.625 267.25L221.625 247.875L207.25 247.875L207.25 182.25C207.25 182.25 221.625 182.25 221.625 182.25ZM271.625 268.5C264.49 268.822 257.39 267.316 251 264.125C245.772 261.241 241.113 257.428 237.25 252.875L251.625 236.625C254.221 239.477 257.16 241.996 260.375 244.125C263.4 245.899 266.871 246.766 270.375 246.625C274.228 246.919 277.976 245.28 280.375 242.25C283.27 238.522 284.613 233.82 284.125 229.125L284.125 162.25L307.25 162.25L307.25 229.75C307.487 235.278 306.638 240.799 304.75 246C303.101 251.277 300.082 256.021 296 259.75C288.917 265.009 280.436 268.053 271.625 268.5Z" fill="#ffffff" fill-rule="nonzero" opacity="1" stroke="none" vectornator:layerName="path"/>
</g>
</g>
</svg>
