<?xml version="1.0" encoding="UTF-8" standalone="no"?>
<!DOCTYPE svg PUBLIC "-//W3C//DTD SVG 1.1//EN" "http://www.w3.org/Graphics/SVG/1.1/DTD/svg11.dtd">
<!-- Created with Vectornator (http://vectornator.io/) -->
<svg height="100%" stroke-miterlimit="10" style="fill-rule:nonzero;clip-rule:evenodd;stroke-linecap:round;stroke-linejoin:round;" version="1.1" viewBox="0 0 512 512" width="100%" xml:space="preserve" xmlns="http://www.w3.org/2000/svg" xmlns:vectornator="http://vectornator.io" xmlns:xlink="http://www.w3.org/1999/xlink">
<defs/>
<g id="Ebene-1" vectornator:layerName="Ebene 1">
<path d="M0 95C0 42.5329 42.5329 0 95 0L417 0C469.467 0 512 42.5329 512 95L512 417C512 469.467 469.467 512 417 512L95 512C42.5329 512 0 469.467 0 417L0 95Z" fill="#f0db4f" fill-rule="nonzero" opacity="1" stroke="none" vectornator:layerName="Rechteck 1"/>
<g opacity="1" vectornator:layerName="logo-javascript.svg">
<path d="M263.686 268.399C263.686 300.719 263.53 332.799 263.53 365.118C263.53 385.689 264.595 404.558 261.249 410.337C255.774 421.706 241.588 420.292 235.124 418.087C228.546 414.855 225.221 410.244 221.343 403.743C220.278 401.879 219.485 400.452 219.218 400.337C209.067 406.535 198.932 412.764 188.78 418.962C193.837 429.342 201.3 438.357 210.843 444.212C225.102 452.768 244.272 455.406 264.311 450.805C277.353 447.003 288.605 439.126 294.499 427.149C303.016 411.445 301.17 392.426 301.093 371.399C301.284 337.103 301.093 302.81 301.093 268.399L263.686 268.399Z" fill="#323330" fill-rule="nonzero" opacity="1" stroke="none" vectornator:layerName="path"/>
<path d="M384.218 266.024C380.302 266.519 376.353 267.061 372.436 267.555C361.144 270.407 350.373 276.327 344.061 284.274C325.126 305.757 330.551 343.392 353.593 358.868C376.293 375.902 409.616 379.781 413.874 395.712C418.019 415.218 399.551 421.517 381.186 419.274C367.649 416.461 360.105 409.564 351.968 397.055C336.987 405.724 336.992 405.728 321.593 414.587C325.243 422.572 329.096 426.197 335.218 433.118C364.192 462.509 436.682 461.073 449.686 416.587C450.218 415.065 453.719 404.852 450.905 389.149C447.978 370.898 436.09 355.571 400.843 341.274C388.6 335.647 374.943 331.615 370.874 322.337C369.429 316.937 369.242 313.919 370.155 310.649C372.778 300.04 385.43 296.732 395.468 299.774C401.932 301.941 408.061 306.922 411.749 314.868C429.011 303.69 428.977 303.768 441.03 296.087C436.62 289.243 434.263 286.076 431.374 283.149C420.993 271.552 406.842 265.568 384.218 266.024Z" fill="#323330" fill-rule="nonzero" opacity="1" stroke="none" vectornator:layerName="path"/>
<path d="M450.917 389.156C447.99 370.905 436.088 355.582 400.841 341.285C388.598 335.658 374.948 331.628 370.879 322.35C369.434 316.95 369.244 313.909 370.157 310.639C372.78 300.03 385.442 296.722 395.48 299.764C401.944 301.931 408.066 306.913 411.754 314.859C429.016 303.681 428.978 303.757 441.031 296.076C436.621 289.232 434.263 286.076 431.374 283.149C420.993 271.552 406.849 265.582 384.225 266.038C380.309 266.533 376.355 267.065 372.438 267.559C361.146 270.411 350.385 276.342 344.073 284.289C325.138 305.772 330.537 343.376 353.579 358.852C376.279 375.886 409.625 379.765 413.883 395.696C418.028 415.202 399.549 421.513 381.184 419.27C367.647 416.457 360.119 409.574 351.982 397.065C337.001 405.734 337.001 405.734 321.602 414.593C325.252 422.578 329.092 426.19 335.214 433.111C364.188 462.502 436.697 461.057 449.701 416.571C450.233 415.049 453.731 404.859 450.917 389.156ZM301.107 268.395L263.693 268.395C263.693 300.715 263.541 332.806 263.541 365.125C263.541 385.696 264.606 404.555 261.26 410.334C255.785 421.703 241.602 420.296 235.138 418.091C228.56 414.859 225.214 410.258 221.336 403.757C220.271 401.893 219.473 400.449 219.206 400.334C209.055 406.532 198.94 412.768 188.788 418.966C193.845 429.346 201.298 438.357 210.841 444.212C225.1 452.768 244.263 455.391 264.302 450.79C277.344 446.988 288.598 439.118 294.492 427.141C303.009 411.437 301.184 392.426 301.107 371.399C301.298 337.103 301.107 302.806 301.107 268.395Z" fill="#323330" fill-rule="nonzero" opacity="1" stroke="none" vectornator:layerName="path"/>
</g>
</g>
</svg>
