<?xml version="1.0" encoding="UTF-8" standalone="no"?>
<!DOCTYPE svg PUBLIC "-//W3C//DTD SVG 1.1//EN" "http://www.w3.org/Graphics/SVG/1.1/DTD/svg11.dtd">
<!-- Created with Vectornator (http://vectornator.io/) -->
<svg height="100%" stroke-miterlimit="10" style="fill-rule:nonzero;clip-rule:evenodd;stroke-linecap:round;stroke-linejoin:round;" version="1.1" viewBox="0 0 512 512" width="100%" xml:space="preserve" xmlns="http://www.w3.org/2000/svg" xmlns:vectornator="http://vectornator.io" xmlns:xlink="http://www.w3.org/1999/xlink">
<defs/>
<g id="Ebene-1" vectornator:layerName="Ebene 1">
<path d="M2.84217e-14 95C2.84217e-14 42.5329 42.5329 0 95 0L417 0C469.467 0 512 42.5329 512 95L512 417C512 469.467 469.467 512 417 512L95 512C42.5329 512 2.84217e-14 469.467 2.84217e-14 417L2.84217e-14 95Z" fill="#1266a9" fill-rule="nonzero" opacity="1" stroke="none" vectornator:layerName="Rechteck 1"/>
<g opacity="1" vectornator:layerName="jquery-4.svg">
<path d="M71.7548 331.582C72.1548 332.486 72.607 333.321 73.094 334.156C73.3201 334.643 73.6331 335.147 73.9114 335.599C74.3635 336.504 74.8505 337.373 75.3201 338.243L78.0505 342.834C78.5548 343.686 79.0418 344.521 79.6157 345.356C80.5722 346.991 81.7027 348.591 82.694 350.226C83.1461 350.904 83.5635 351.582 84.0679 352.26C85.9809 355.234 87.72 357.704 89.5809 360.104C90.9026 361.895 92.2244 363.652 93.6505 365.408C94.12 366.069 94.6418 366.73 95.1287 367.391L98.9722 372.052C99.4418 372.591 99.9113 373.217 100.416 373.773C102.12 375.825 103.929 377.808 105.737 379.825C105.737 379.86 105.79 379.895 105.824 379.947C108.068 382.765 110.485 385.269 113.129 387.495L113.198 387.565C114.59 388.991 115.981 390.399 117.459 391.791L119.216 393.478C121.146 395.286 123.076 397.078 125.111 398.817C125.146 398.817 125.163 398.852 125.198 398.869L126.19 399.738C127.963 401.286 129.755 402.817 131.581 404.243L133.755 406.069C135.233 407.252 136.763 408.365 138.276 409.53L140.642 411.338C142.259 412.556 143.981 413.738 145.633 414.921C146.242 415.356 146.85 415.791 147.476 416.191L147.981 416.591L152.868 419.791L154.955 421.182C157.511 422.817 160.05 424.347 162.589 425.878C163.32 426.243 164.05 426.643 164.729 427.06C166.607 428.138 168.555 429.234 170.45 430.225C171.494 430.817 172.572 431.321 173.65 431.86C174.955 432.591 176.311 433.304 177.702 434.034C178.085 434.156 178.398 434.278 178.711 434.451L178.781 434.382C179.355 434.643 179.894 434.921 180.45 435.199C182.537 436.243 184.711 437.234 186.972 438.208C187.389 438.382 187.842 438.556 188.294 438.799C190.798 439.895 193.302 440.938 195.894 441.947C196.485 442.121 197.111 442.417 197.72 442.643C200.068 443.53 202.485 444.434 204.885 445.286L205.755 445.599C208.415 446.504 211.042 447.373 213.755 448.191C214.381 448.364 215.024 448.591 215.685 448.764C218.45 449.599 221.128 450.591 223.928 451.112C402.589 483.512 454.502 344.226 454.502 344.226C410.885 400.747 333.476 415.651 260.172 399.06C257.459 398.434 254.746 397.565 251.998 396.765C248.12 395.667 244.274 394.455 240.468 393.13L242.12 393.634L241.041 393.217C238.676 392.417 236.398 391.53 234.085 390.643C233.519 390.403 232.945 390.182 232.363 389.982L232.172 389.93C229.615 388.904 227.128 387.86 224.659 386.765C224.12 386.591 223.668 386.347 223.128 386.139C220.203 384.864 217.304 383.53 214.433 382.139L216.833 383.199C216.207 382.923 215.592 382.621 214.989 382.295C213.355 381.53 211.72 380.66 210.12 379.843C208.901 379.265 207.701 378.651 206.52 377.999L206.868 378.173C204.902 377.13 202.937 375.999 200.955 374.939C200.363 374.521 199.685 374.173 199.007 373.791C196.06 372.078 193.149 370.304 190.276 368.469L191.372 369.13C190.636 368.675 189.917 368.194 189.215 367.686L189.32 367.756C187.451 366.608 185.618 365.401 183.824 364.139C183.233 363.756 182.694 363.339 182.085 362.921C180.211 361.642 178.367 360.32 176.555 358.956L176.972 359.252C176.242 358.66 175.459 358.104 174.676 357.53C173.146 356.33 171.598 355.182 170.068 353.93L168.016 352.295C165.828 350.555 163.683 348.763 161.581 346.921L161.563 346.904L155.529 341.426L153.789 339.791C152.363 338.347 150.903 336.973 149.442 335.547L147.755 333.808C145.954 332.025 144.197 330.198 142.485 328.33L142.381 328.208L142.085 327.965C140.244 325.942 138.429 323.896 136.642 321.826C136.172 321.286 135.737 320.713 135.25 320.139L131.303 315.356C129.523 313.121 127.784 310.854 126.085 308.556L125.39 307.582C84.7287 252.347 70.0157 176.122 102.555 113.582L73.8244 149.913C36.868 202.765 41.4419 271.495 69.7027 327.617C70.3462 328.991 71.0592 330.278 71.7548 331.582Z" fill="#ffffff" fill-rule="nonzero" opacity="1" stroke="none" vectornator:layerName="path"/>
<path d="M196.224 255.443L196.033 255.165L195.876 254.956L196.224 255.443Z" fill="#ffffff" fill-rule="nonzero" opacity="1" stroke="none" vectornator:layerName="path"/>
<path d="M215.668 278.26L217.233 279.826C219.215 281.739 221.25 283.6 223.32 285.46L223.581 285.687C225.668 287.53 228.015 289.46 230.433 291.339L230.798 291.617C231.389 292.017 231.894 292.487 232.468 292.887C234.902 294.765 237.355 296.556 239.911 298.347L240.172 298.504C241.25 299.286 242.398 300 243.615 300.765C244.102 301.078 244.659 301.495 245.181 301.808C247.024 302.991 248.833 304.086 250.694 305.217C250.989 305.339 251.25 305.495 251.528 305.617C253.094 306.573 254.798 307.495 256.433 308.33C257.007 308.678 257.563 308.939 258.154 309.269C259.32 309.843 260.468 310.452 261.581 311.043L262.137 311.286C264.485 312.434 266.885 313.513 269.233 314.573C269.824 314.8 270.328 314.991 270.833 315.234C272.763 316.069 274.728 316.869 276.659 317.6C277.528 317.895 278.346 318.243 279.163 318.504C280.937 319.165 282.798 319.773 284.554 320.382L286.989 321.165C289.528 321.947 292.102 322.973 294.798 323.391C432.763 346.104 464.693 240.417 464.693 240.417C435.945 281.582 380.311 301.2 321.024 285.878C318.064 285.131 315.13 284.29 312.224 283.356L313.215 283.634C312.38 283.408 311.65 283.147 310.85 282.904C309.041 282.278 307.18 281.669 305.424 281.026L302.92 280.087C300.972 279.304 298.989 278.573 297.094 277.739C296.502 277.478 295.963 277.304 295.511 277.043C293.076 275.947 290.624 274.869 288.241 273.721L284.659 271.86L282.589 270.817C280.989 269.982 279.511 269.113 277.981 268.226C277.59 268.042 277.213 267.833 276.85 267.6L276.902 267.617C275.059 266.469 273.146 265.356 271.372 264.191C270.781 263.86 270.241 263.46 269.685 263.113L266.068 260.765C263.563 259.026 261.111 257.165 258.624 255.356C258.068 254.852 257.528 254.434 256.989 253.982C230.92 233.582 210.363 205.704 200.607 174.139C190.329 141.322 192.589 104.522 210.346 74.6608L188.52 105.409C161.72 143.687 163.233 194.852 184.102 235.339C187.911 242.817 191.772 249.13 196.033 255.147C199.998 260.817 204.381 267.46 209.668 272.017C211.546 274.156 213.563 276.191 215.668 278.26Z" fill="#ffffff" fill-rule="nonzero" opacity="1" stroke="none" vectornator:layerName="path"/>
<path d="M89.6679 360.208L89.5983 360.104L89.4766 359.947L89.6679 360.208ZM161.981 347.269L162.155 347.391L162.189 347.443L161.981 347.269Z" fill="#ffffff" fill-rule="nonzero" opacity="1" stroke="none" vectornator:layerName="path"/>
<path d="M284.972 72.1217C269.163 95.1999 267.65 123.861 278.537 149.304C290.102 176.33 313.737 197.548 341.285 207.6C342.415 208.034 343.511 208.4 344.676 208.817L346.206 209.287C347.806 209.791 349.424 210.382 351.076 210.748C427.267 225.374 447.893 171.826 453.441 163.948C435.302 189.861 404.885 196.087 367.563 187.061C364.318 186.269 361.124 185.282 357.998 184.104L358.572 184.295C354.682 182.949 350.873 181.382 347.163 179.6L347.824 179.895C340.693 176.417 334.572 172.661 328.885 168.348C295.528 143.13 274.902 95.113 296.676 56L284.972 72.1217Z" fill="#ffffff" fill-rule="nonzero" opacity="1" stroke="none" vectornator:layerName="path"/>
</g>
</g>
</svg>
