<?xml version="1.0" encoding="UTF-8" standalone="no"?>
<!DOCTYPE svg PUBLIC "-//W3C//DTD SVG 1.1//EN" "http://www.w3.org/Graphics/SVG/1.1/DTD/svg11.dtd">
<!-- Created with Vectornator (http://vectornator.io/) -->
<svg height="100%" stroke-miterlimit="10" style="fill-rule:nonzero;clip-rule:evenodd;stroke-linecap:round;stroke-linejoin:round;" version="1.1" viewBox="0 0 512 512" width="100%" xml:space="preserve" xmlns="http://www.w3.org/2000/svg" xmlns:vectornator="http://vectornator.io" xmlns:xlink="http://www.w3.org/1999/xlink">
<defs>
<linearGradient gradientTransform="matrix(0.913819 0 0 0.913819 13.6714 19.8599)" gradientUnits="userSpaceOnUse" id="LinearGradient" x1="194.594" x2="313.271" y1="356.761" y2="238.084">
<stop offset="0" stop-color="#249eff"/>
<stop offset="1" stop-color="#2777ff"/>
</linearGradient>
</defs>
<g id="Ebene-1" vectornator:layerName="Ebene 1">
<path d="M2.84217e-14 95C2.84217e-14 42.5329 42.5329 0 95 0L417 0C469.467 0 512 42.5329 512 95L512 417C512 469.467 469.467 512 417 512L95 512C42.5329 512 2.84217e-14 469.467 2.84217e-14 417L2.84217e-14 95Z" fill="#28334c" fill-rule="nonzero" opacity="1" stroke="none" vectornator:layerName="Rechteck 1"/>
<g opacity="1" vectornator:layerName="kali-1.svg">
<g opacity="1" vectornator:layerName="g">
<path d="M94.8368 256C94.8368 164.288 169.184 89.9407 260.896 89.9407C352.608 89.9407 426.955 164.288 426.955 256C426.955 347.712 352.608 422.059 260.896 422.059C169.184 422.059 94.8368 347.712 94.8368 256Z" fill="url(#LinearGradient)" fill-rule="nonzero" opacity="1" stroke="none" vectornator:layerName="circle"/>
<path d="M426.791 251.413C425.025 341.791 351.292 414.156 260.896 414.228C171.007 414.173 97.4796 342.602 95.0013 252.747C94.9368 253.829 94.8829 254.912 94.8396 255.995C94.8396 347.707 169.187 422.055 260.899 422.055C352.611 422.055 426.958 347.707 426.958 255.995C426.925 254.466 426.871 252.937 426.795 251.409L426.791 251.413Z" fill="#000000" fill-rule="nonzero" opacity="0.3" stroke="none" vectornator:layerName="path"/>
<path d="M260.896 89.9416C169.184 89.9416 94.8368 164.289 94.8368 256.001C94.8697 257.528 94.9236 259.054 94.9986 260.579C96.7694 170.204 170.501 97.8453 260.893 97.7731C350.779 97.8278 424.305 169.393 426.788 259.245C426.853 258.165 426.907 257.085 426.951 256.005C426.951 164.293 352.604 89.9453 260.892 89.9453L260.896 89.9416Z" fill="#ffffff" fill-rule="nonzero" opacity="0.1" stroke="none" vectornator:layerName="path"/>
</g>
<path d="M92.7003 142.887C65.8139 142.918 48.0539 145.082 47.9067 145.101L47.8053 145.11C46.0499 145.311 46.2728 147.926 48.0374 147.828C48.0374 147.828 145.798 143.209 224.158 174.703C226.954 186.665 234.337 204.998 238.699 214.743C232.761 218.819 226.391 222.955 221.15 229.519C215.649 236.41 211.491 245.92 210.385 260.461C208.139 289.956 233.436 315.777 264.723 316.573C293.736 318.117 313.462 318.331 337.475 330.776C348.689 336.985 359.134 349.747 366.935 365.335C374.739 380.932 379.918 399.333 380.848 416.687C380.935 418.393 383.441 418.423 383.571 416.722C383.575 416.669 383.569 416.596 383.573 416.543C384.581 403.256 382.618 382.686 374.652 363.121C367.981 346.73 356.957 331.128 340.009 321.341C364.367 327.993 378.311 340.355 386.327 351.65C395.525 364.611 396.882 376.146 396.875 376.082C397.069 377.713 399.448 377.676 399.59 376.039C399.59 376.039 400.799 361.9 391.043 346.322C381.286 330.742 360.575 313.713 317.395 307.377C306.456 305.772 292.654 304.539 278.666 304.504L278.644 304.504C244.795 304.951 227.73 285.658 225.073 265.867C223.745 255.973 226.069 245.951 231.817 238.184C237.565 230.418 246.713 224.857 259.317 223.872L259.323 223.872C280.018 222.164 305.26 233.356 330.081 244.906C330.057 247.775 330.311 250.668 332.407 253.288C333.811 255.042 336.343 256.261 338.92 257.479C341.497 258.695 344.149 259.798 345.201 260.402C347.593 261.774 355.571 266.893 360.275 273.015C360.878 273.802 362.093 273.703 362.561 272.828C362.586 272.782 363.301 271.957 364.245 271.168C365.188 270.378 366.386 269.479 367.552 268.639C369.884 266.959 372.092 265.521 372.092 265.521C373.241 264.772 372.691 262.985 371.319 263.014C371.319 263.014 370.984 263.032 369.912 262.827C368.842 262.623 367.139 262.193 364.715 261.287C362.485 260.454 359.822 258.649 357.767 257.018C356.896 256.328 356.049 255.606 355.231 254.853C355.157 254.784 355.125 254.751 355.058 254.687C355.71 254.1 355.8 253.161 355.668 252.57C355.533 251.967 355.271 251.478 354.976 251.001C354.387 250.049 353.638 249.201 353.12 248.683L353.118 248.681C353.193 248.756 352.964 248.489 352.734 248.153C352.503 247.815 352.205 247.358 351.87 246.833C351.094 245.603 350.331 244.365 349.58 243.12C347.983 240.481 346.541 238.027 346.401 237.794C346.399 237.79 346.054 237.063 345.384 236.615C345.279 236.545 345.164 236.49 345.043 236.452C344.287 236.208 343.687 236.265 342.91 236.305C342.09 236.354 341.271 236.433 340.456 236.541C339.091 236.715 338.244 236.87 337.874 236.934C336.951 236.447 329.734 232.449 327.082 224.305C326.593 222.811 324.382 223.192 324.421 224.764C324.436 225.298 323.626 226.893 323.802 229.306C320.596 227.374 317.837 224.304 315.435 217.981C314.994 216.815 313.348 216.802 312.89 217.961C311.969 220.275 311.914 222.211 312.101 223.712C309.055 222.28 304.069 219.128 302.982 212.865C302.749 211.525 300.914 211.314 300.382 212.566C299.487 214.677 299.406 216.425 299.557 217.833C293.882 215.399 278.25 209.706 254.922 209.581C250.42 209.167 246.842 206.913 243.903 203.535C240.964 200.156 238.731 195.652 237.151 190.988C235.571 186.324 234.636 181.503 234.213 177.526C233.79 173.549 233.969 170.261 234.263 169.318C234.46 168.689 234.18 168.009 233.598 167.702C233.598 167.702 205.071 152.695 149.303 146.099C128.393 143.625 108.902 142.869 92.7031 142.887L92.7003 142.887ZM157.826 172.606C149.329 172.67 140.208 172.987 130.624 173.668C79.4262 177.306 27.8831 195.194 27.8831 195.194C26.2346 195.764 26.972 198.236 28.6635 197.808C28.6635 197.808 133.789 171.422 221.607 186.888C221.685 186.902 221.763 186.91 221.842 186.91L221.846 186.91C222.28 186.91 222.687 186.704 222.945 186.355C223.202 186.005 223.278 185.555 223.149 185.141L220.853 177.734C220.703 177.245 220.291 176.882 219.788 176.793C219.788 176.793 194.644 172.33 157.828 172.606L157.818 172.606L157.826 172.606ZM220.25 188.382C211.214 188.344 183.41 189.482 141.647 202.55C89.236 218.949 59.4053 242.263 59.4053 242.263C58.0912 243.302 59.4446 245.338 60.9113 244.528C60.9113 244.528 138.516 201.247 225.911 198.791C226.341 198.779 226.741 198.564 226.989 198.211C227.236 197.858 227.302 197.409 227.167 196.999L224.656 189.397C224.482 188.87 224.005 188.501 223.451 188.464C223.451 188.464 222.338 188.391 220.253 188.382L220.25 188.382ZM277.392 188.255C276.054 188.275 275.541 190.009 276.653 190.754L276.655 190.754C276.735 190.807 276.821 190.852 276.911 190.888C300.878 200.632 321.665 213.511 337.779 231.215L337.823 231.262L337.825 231.264C338.103 231.542 338.487 231.686 338.879 231.66L342.79 231.405C343.898 231.331 344.459 230.034 343.753 229.175C343.753 229.175 321.11 201.736 277.939 188.363L277.924 188.355C277.902 188.347 277.881 188.339 277.858 188.332L277.821 188.32C277.682 188.276 277.538 188.254 277.392 188.256L277.392 188.255ZM345.636 246.031C346.42 246.189 347.899 249.099 349.258 251.177C349.377 251.346 349.498 251.526 349.613 251.668C349.613 251.68 349.615 251.69 349.623 251.701C349.777 251.921 349.93 252.147 350.077 252.33C350.151 252.765 350.275 253.03 349.258 252.821C349.172 252.374 349.026 252.245 349.026 252.245C349.026 252.245 346.571 250.785 345.818 249.749C345.065 248.713 344.934 246.902 345.301 246.215C345.39 246.061 345.503 246.006 345.636 246.032L345.636 246.031Z" fill="#000000" fill-rule="nonzero" opacity="0.3" stroke="none" vectornator:layerName="path"/>
<g opacity="1" vectornator:layerName="g">
<path d="M92.7022 138.766C65.7774 138.797 47.9707 140.978 47.9707 140.978C47.9707 140.978 146.416 136.253 225.279 168.182C227.96 180.173 236.026 200.144 240.37 209.742C227.94 218.337 213.924 226.42 211.742 255.08C209.56 283.739 234.2 308.947 264.755 309.724C293.769 311.269 313.816 311.49 338.114 324.088C361.307 336.912 380.325 375.987 382.206 411.131C384.239 385.056 374.453 328.983 328.791 311.954C392.599 323.12 398.225 370.414 398.227 370.433C398.227 370.433 402.983 315.829 317.192 303.239C306.317 301.643 292.567 300.415 278.658 300.38C209.897 301.289 207.389 221.073 259.205 217.023C280.678 215.251 306.317 226.835 331.384 238.509C331.29 241.622 331.42 244.388 333.465 246.945C335.51 249.5 343.364 252.288 345.875 253.728C348.384 255.168 356.424 260.281 361.351 266.694C362.421 264.696 371.342 258.888 371.342 258.888C371.342 258.888 369.205 258.933 364.233 257.076C359.259 255.217 353.358 249.593 353.217 249.268C353.079 248.943 352.984 248.431 354.147 248.199C355.03 247.456 353.032 245.039 352.148 244.157C351.266 243.273 345.363 233.237 345.224 233.005C345.085 232.772 345.038 232.539 344.62 232.26C343.319 231.841 337.602 232.864 337.602 232.864C337.602 232.864 328.81 228.546 325.78 219.236C325.824 220.867 324.272 222.648 325.78 226.395C321.196 224.456 317.259 221.148 314.154 212.976C312.305 217.623 314.154 220.579 314.154 220.579C314.154 220.579 303.361 217.563 301.634 207.608C299.738 212.076 301.634 214.765 301.634 214.765C301.634 214.765 284.035 205.583 254.795 205.449C235.22 203.654 231.144 169.216 232.958 163.419C232.958 163.419 204.722 148.538 149.14 141.963C128.296 139.498 108.858 138.743 92.7022 138.762L92.7022 138.766ZM157.836 168.484C149.364 168.548 140.272 168.865 130.719 169.544C79.7725 173.165 28.3345 190.997 28.3345 190.997C28.3345 190.997 133.588 164.515 221.854 180.058L221.856 180.058L219.56 172.651C219.56 172.651 194.546 168.208 157.839 168.484L157.836 168.484ZM220.243 184.26C211.333 184.222 183.672 185.343 142.053 198.365C89.852 214.699 60.246 237.852 60.246 237.852C60.246 237.852 138.049 194.409 225.867 191.941L223.354 184.34C223.354 184.34 222.297 184.27 220.241 184.261L220.243 184.26ZM277.411 184.132C301.517 193.932 322.498 206.915 338.787 224.81L338.789 224.812L342.7 224.556C342.7 224.556 320.294 197.374 277.41 184.133L277.411 184.132ZM343.856 236.388L348.654 239.921C349.254 238.88 351.679 245.464 353.152 247.293C353.215 247.659 350.702 250.594 349.847 250.418C349.775 250.043 345.872 248.915 345.872 248.915C345.872 248.915 341.437 246.236 340.805 245.365C340.173 244.494 343.547 236.965 343.856 236.388Z" fill="#ffffff" fill-rule="nonzero" opacity="1" stroke="#ffffff" stroke-linecap="butt" stroke-linejoin="round" stroke-width="2.986" vectornator:layerName="path"/>
<path d="M92.7022 138.766C65.7774 138.797 47.9707 140.978 47.9707 140.978C47.9707 140.978 146.416 136.253 225.279 168.182C227.96 180.173 236.026 200.144 240.37 209.742C227.94 218.337 213.924 226.42 211.742 255.08C209.56 283.739 234.2 308.947 264.755 309.724C293.769 311.269 313.816 311.49 338.114 324.088C361.307 336.912 380.325 375.987 382.206 411.131C384.239 385.056 374.453 328.983 328.791 311.954C392.599 323.12 398.225 370.414 398.227 370.433C398.227 370.433 402.983 315.829 317.192 303.239C306.317 301.643 292.567 300.415 278.658 300.38C209.897 301.289 207.389 221.073 259.205 217.023C280.678 215.251 306.317 226.835 331.384 238.509C331.29 241.622 331.42 244.388 333.465 246.945C335.51 249.5 343.364 252.288 345.875 253.728C348.384 255.168 356.424 260.281 361.351 266.694C362.421 264.696 371.342 258.888 371.342 258.888C371.342 258.888 369.205 258.933 364.233 257.076C359.259 255.217 353.358 249.593 353.217 249.268C353.079 248.943 352.984 248.431 354.147 248.199C355.03 247.456 353.032 245.039 352.148 244.157C351.266 243.273 345.363 233.237 345.224 233.005C345.085 232.772 345.038 232.539 344.62 232.26C343.319 231.841 337.602 232.864 337.602 232.864C337.602 232.864 328.81 228.546 325.78 219.236C325.824 220.867 324.272 222.648 325.78 226.395C321.196 224.456 317.259 221.148 314.154 212.976C312.305 217.623 314.154 220.579 314.154 220.579C314.154 220.579 303.361 217.563 301.634 207.608C299.738 212.076 301.634 214.765 301.634 214.765C301.634 214.765 284.035 205.583 254.795 205.449C235.22 203.654 231.144 169.216 232.958 163.419C232.958 163.419 204.722 148.538 149.14 141.963C128.296 139.498 108.858 138.743 92.7022 138.762L92.7022 138.766ZM157.836 168.484C149.364 168.548 140.272 168.865 130.719 169.544C79.7725 173.165 28.3345 190.997 28.3345 190.997C28.3345 190.997 133.588 164.515 221.854 180.058L221.856 180.058L219.56 172.651C219.56 172.651 194.546 168.484 157.839 168.484L157.836 168.484ZM220.243 184.26C211.333 184.222 183.672 185.343 142.053 198.365C89.852 214.699 60.246 237.852 60.246 237.852C60.246 237.852 138.049 194.409 225.867 191.941L223.354 184.34C223.354 184.34 222.297 184.27 220.241 184.261L220.243 184.26ZM277.411 184.132C301.517 193.932 322.498 206.915 338.787 224.81L338.789 224.812L342.7 224.556C342.7 224.556 320.294 197.374 277.411 184.133L277.411 184.132ZM345.638 240.544C346.422 240.702 347.903 243.61 349.261 245.688C349.379 245.858 349.502 246.037 349.616 246.179L349.622 246.213C349.775 246.432 349.93 246.66 350.077 246.842C350.15 247.277 350.274 247.542 349.257 247.332C349.172 246.885 349.025 246.757 349.025 246.757C349.025 246.757 346.57 245.296 345.817 244.26C345.064 243.225 344.931 241.414 345.299 240.726C345.388 240.571 345.503 240.516 345.637 240.544L345.638 240.544Z" fill="#ffffff" fill-rule="nonzero" opacity="1" stroke="none" vectornator:layerName="path"/>
</g>
</g>
</g>
</svg>
