<?xml version="1.0" encoding="UTF-8" standalone="no"?>
<!DOCTYPE svg PUBLIC "-//W3C//DTD SVG 1.1//EN" "http://www.w3.org/Graphics/SVG/1.1/DTD/svg11.dtd">
<!-- Created with Vectornator (http://vectornator.io/) -->
<svg height="100%" stroke-miterlimit="10" style="fill-rule:nonzero;clip-rule:evenodd;stroke-linecap:round;stroke-linejoin:round;" version="1.1" viewBox="0 0 512 512" width="100%" xml:space="preserve" xmlns="http://www.w3.org/2000/svg" xmlns:vectornator="http://vectornator.io" xmlns:xlink="http://www.w3.org/1999/xlink">
<defs/>
<g id="Ebene-1" vectornator:layerName="Ebene 1">
<path d="M2.84217e-14 95C2.84217e-14 42.5329 42.5329 0 95 0L417 0C469.467 0 512 42.5329 512 95L512 417C512 469.467 469.467 512 417 512L95 512C42.5329 512 2.84217e-14 469.467 2.84217e-14 417L2.84217e-14 95Z" fill="#326de6" fill-rule="nonzero" opacity="1" stroke="none" vectornator:layerName="Rechteck 1"/>
<g opacity="1" vectornator:layerName="kubernets.svg">
<path d="M183.71 444.547C174.399 444.547 165.606 440.41 159.657 432.909L69.1359 320.401C63.1868 312.9 60.8598 303.332 63.1868 294.019L95.5163 153.58C97.585 144.269 103.792 136.768 112.329 132.63L243.199 70.0383C247.337 67.9712 251.993 66.9361 256.649 66.9361C261.304 66.9361 265.958 67.9696 270.097 70.0398L400.969 132.372C409.503 136.509 415.711 144.01 417.78 153.321L450.109 293.761C452.179 303.072 450.109 312.642 444.162 320.143L353.637 432.65C347.688 439.892 338.895 444.289 329.584 444.289L183.714 444.547L183.71 444.547Z" fill="#326de6" fill-rule="nonzero" opacity="1" stroke="none" vectornator:layerName="path"/>
<path d="M256.387 73.402C260.009 73.402 263.63 74.1771 266.992 75.729L397.864 138.061C404.588 141.423 409.76 147.631 411.312 154.873L443.642 295.313C445.452 302.814 443.642 310.573 438.728 316.521L348.205 429.03C343.549 434.977 336.307 438.34 328.807 438.34L183.71 438.34C176.209 438.34 168.968 434.977 164.313 429.03L73.79 316.521C69.1344 310.573 67.3225 302.814 68.876 295.313L101.206 154.873C103.016 147.372 107.93 141.165 114.654 138.061L245.527 75.4722C248.889 74.1787 252.768 73.4036 256.389 73.4036L256.387 73.402ZM256.387 61.2453C250.956 61.2453 245.526 62.5388 240.352 64.8659L109.482 127.458C99.1353 132.372 91.8942 141.423 89.3072 152.545L56.9777 292.986C54.3923 304.107 56.9777 315.487 64.2203 324.54L154.743 437.048C161.727 445.841 172.33 450.755 183.452 450.755L328.547 450.755C339.669 450.755 350.274 445.841 357.256 437.048L447.781 324.539C455.022 315.746 457.609 304.107 455.022 292.984L422.692 152.545C420.107 141.423 412.864 132.372 402.519 127.458L272.164 64.8643C267.25 62.5388 261.82 61.2453 256.387 61.2453Z" fill="#ffffff" fill-rule="nonzero" opacity="1" stroke="none" vectornator:layerName="path"/>
<path d="M387.517 284.191C387.259 284.191 387.259 284.191 387.517 284.191L387.259 284.191C387 284.191 386.742 284.191 386.742 283.933C386.225 283.933 385.708 283.675 385.19 283.675C383.38 283.416 381.828 283.158 380.276 283.158C379.499 283.158 378.724 283.158 377.689 282.898L377.431 282.898C372 282.381 367.603 281.864 363.464 280.571C361.654 279.794 361.137 278.761 360.618 277.726C360.618 277.467 360.36 277.467 360.36 277.209L356.998 276.175C358.586 264.008 357.973 251.655 355.188 239.705C352.364 227.656 347.462 216.191 340.704 205.824L343.291 203.497L343.291 202.98C343.291 201.687 343.549 200.393 344.583 199.1C347.687 196.254 351.567 193.927 356.223 191.082C356.998 190.565 357.773 190.307 358.55 189.788C360.102 189.013 361.395 188.238 362.947 187.203C363.205 186.944 363.722 186.686 364.241 186.169C364.499 185.909 364.757 185.909 364.757 185.651C368.378 182.547 369.155 177.375 366.568 174.011C365.274 172.201 362.947 171.167 360.618 171.167C358.551 171.167 356.74 171.942 354.929 173.236L354.412 173.753C353.896 174.011 353.636 174.529 353.119 174.788C351.825 176.081 350.79 177.115 349.757 178.408C349.24 178.925 348.723 179.702 347.947 180.219C344.324 184.099 340.962 187.203 337.6 189.53C336.825 190.047 336.05 190.307 335.273 190.307C334.756 190.307 334.238 190.307 333.721 190.047L333.205 190.047L330.099 192.117C326.737 188.496 323.117 185.393 319.496 182.289C303.906 170.103 285.143 162.651 265.44 160.821L265.182 157.459L264.665 156.942C263.888 156.165 262.855 155.39 262.595 153.58C262.336 149.441 262.855 144.785 263.371 139.613L263.371 139.355C263.371 138.578 263.63 137.544 263.888 136.768C264.147 135.217 264.405 133.664 264.665 131.854L264.665 129.526C264.665 124.871 261.043 120.992 256.647 120.992C254.577 120.992 252.508 122.025 250.956 123.577C249.406 125.129 248.629 127.198 248.629 129.526L248.629 131.595C248.629 133.405 248.888 134.957 249.405 136.509C249.663 137.286 249.663 138.061 249.921 139.096L249.921 139.355C250.438 144.527 251.215 149.183 250.698 153.321C250.44 155.132 249.405 155.907 248.629 156.684L248.113 157.2L247.853 160.563C243.197 161.079 238.541 161.596 233.886 162.631C213.971 167.028 196.384 177.116 182.677 191.599L180.09 189.788L179.573 189.788C179.056 189.788 178.538 190.047 178.021 190.047C177.244 190.047 176.469 189.788 175.693 189.272C172.33 186.944 168.968 183.581 165.348 179.702C164.831 179.185 164.314 178.408 163.538 177.892C162.502 176.598 161.467 175.563 160.174 174.271C159.915 174.011 159.399 173.754 158.882 173.236C158.623 172.978 158.365 172.978 158.365 172.719C156.763 171.395 154.753 170.664 152.674 170.649C150.346 170.649 148.019 171.684 146.725 173.494C144.138 176.856 144.915 182.029 148.535 185.133C148.794 185.133 148.794 185.393 149.052 185.393C149.569 185.651 149.829 186.168 150.346 186.426C151.898 187.46 153.191 188.236 154.743 189.013C155.52 189.272 156.295 189.788 157.072 190.307C161.726 193.15 165.606 195.479 168.71 198.324C170.003 199.616 170.003 200.91 170.003 202.203L170.003 202.72L172.589 205.049C172.072 205.824 171.555 206.342 171.295 207.117C158.364 227.55 153.45 251.604 156.812 275.398L153.45 276.432C153.45 276.692 153.191 276.692 153.191 276.949C152.674 277.984 151.898 279.019 150.346 279.794C146.467 281.088 141.811 281.606 136.38 282.123L136.12 282.123C135.345 282.123 134.31 282.123 133.535 282.381C131.983 282.381 130.431 282.64 128.621 282.898C128.104 282.898 127.587 283.158 127.069 283.158C126.811 283.158 126.552 283.158 126.292 283.416C121.637 284.45 118.791 288.847 119.568 292.984C120.345 296.606 123.707 298.935 127.844 298.935C128.621 298.935 129.138 298.935 129.915 298.675C130.173 298.675 130.431 298.675 130.431 298.417C130.948 298.417 131.465 298.158 131.982 298.158C133.793 297.642 135.087 297.125 136.639 296.348C137.414 296.09 138.189 295.571 138.966 295.315L139.224 295.315C144.138 293.503 148.535 291.951 152.674 291.434L153.191 291.434C154.743 291.434 155.778 292.209 156.553 292.728C156.812 292.728 156.812 292.986 157.07 292.986L160.692 292.469C166.9 311.607 178.796 328.678 194.574 341.093C198.194 343.936 201.815 346.265 205.695 348.594L204.143 351.954C204.143 352.214 204.402 352.214 204.402 352.471C204.918 353.506 205.435 354.8 204.918 356.61C203.368 360.49 201.039 364.369 198.194 368.767L198.194 369.025C197.677 369.802 197.161 370.318 196.644 371.094C195.609 372.387 194.832 373.681 193.797 375.232C193.538 375.491 193.28 376.008 193.022 376.526C193.022 376.784 192.763 377.043 192.763 377.043C190.695 381.44 192.247 386.354 196.125 388.164C197.159 388.681 198.194 388.941 199.229 388.941C202.333 388.941 205.437 386.871 206.989 384.025C206.989 383.767 207.247 383.509 207.247 383.509C207.505 382.992 207.764 382.475 208.022 382.215C208.799 380.405 209.057 379.111 209.574 377.559L210.351 375.232C212.161 370.06 213.454 365.921 215.782 362.301C216.815 360.749 218.11 360.49 219.144 359.972C219.402 359.972 219.402 359.972 219.66 359.714L221.472 356.352C232.852 360.749 245.267 363.076 257.681 363.076C265.182 363.076 272.941 362.301 280.184 360.49C284.741 359.471 289.232 358.175 293.632 356.61L295.183 359.455C295.443 359.455 295.443 359.455 295.701 359.714C296.994 359.972 298.028 360.49 299.063 362.042C301.132 365.663 302.684 370.06 304.494 374.974L304.494 375.232L305.271 377.559C305.787 379.111 306.046 380.663 306.821 382.215C307.081 382.732 307.339 382.992 307.598 383.509C307.598 383.767 307.858 384.025 307.858 384.025C309.408 387.129 312.512 388.941 315.615 388.941C316.651 388.941 317.686 388.681 318.719 388.164C320.53 387.131 322.081 385.577 322.6 383.509C323.117 381.44 323.117 379.111 322.083 377.043C322.083 376.784 321.823 376.784 321.823 376.526C321.565 376.009 321.306 375.492 321.048 375.232C320.271 373.681 319.238 372.387 318.202 371.094C317.686 370.318 317.169 369.802 316.652 369.026L316.652 368.767C313.805 364.369 311.218 360.49 309.926 356.61C309.41 354.8 309.926 353.766 310.185 352.473C310.185 352.214 310.443 352.214 310.443 351.956L309.15 348.852C322.858 340.834 334.496 329.453 343.291 315.487C347.947 308.245 351.567 300.227 354.153 292.209L357.256 292.726C357.516 292.726 357.516 292.468 357.773 292.468C358.808 291.951 359.585 291.176 361.137 291.176L361.654 291.176C365.792 291.692 370.188 293.243 375.104 295.055L375.362 295.055C376.137 295.313 376.912 295.83 377.689 296.088C379.241 296.865 380.534 297.382 382.345 297.9C382.862 297.9 383.378 298.158 383.897 298.158C384.155 298.158 384.413 298.158 384.672 298.417C385.449 298.675 385.965 298.675 386.742 298.675C390.621 298.675 393.983 296.09 395.018 292.728C395.018 289.624 392.173 285.485 387.517 284.193L387.517 284.191ZM267.767 271.518L256.387 276.95L245.007 271.518L242.163 259.363L249.921 249.535L262.595 249.535L270.354 259.363L267.769 271.518L267.767 271.518ZM335.273 244.621C337.279 253.173 337.891 261.994 337.083 270.741L297.511 259.363C293.891 258.329 291.822 254.707 292.597 251.087C292.856 250.052 293.374 249.017 294.149 248.241L325.445 220.049C329.841 227.292 333.203 235.568 335.273 244.619L335.273 244.621ZM313.03 204.532L279.149 228.585C276.303 230.396 272.423 229.877 270.096 227.033C269.321 226.257 269.062 225.222 268.802 224.188L266.475 182.029C284.09 184.057 300.498 191.989 313.03 204.532ZM238.025 183.321C240.87 182.804 243.455 182.287 246.301 181.77L243.974 223.151C243.715 226.772 240.87 229.876 236.99 229.876C235.956 229.876 234.662 229.617 233.886 229.1L199.488 204.532C210.092 193.927 223.283 186.685 238.025 183.322L238.025 183.321ZM187.073 220.048L217.85 247.463C220.696 249.792 220.954 254.187 218.627 257.033C217.85 258.066 216.817 258.843 215.523 259.103L175.434 270.741C173.882 253.154 177.761 235.308 187.073 220.048ZM180.088 290.139L221.214 283.155C224.576 282.896 227.68 285.225 228.455 288.587C228.713 290.137 228.713 291.433 228.197 292.726L212.419 330.745C197.936 321.433 186.297 307.208 180.09 290.139L180.088 290.139ZM274.493 341.608C268.544 342.901 262.595 343.677 256.387 343.677C247.336 343.677 238.541 342.126 230.267 339.539L250.698 302.554C252.767 300.225 256.129 299.192 258.974 300.744C260.182 301.484 261.236 302.449 262.078 303.588L281.992 339.539C279.665 340.314 277.078 340.833 274.491 341.608L274.493 341.608ZM324.927 305.658C318.461 316.003 309.925 324.279 300.098 330.745L283.804 291.689C283.028 288.587 284.321 285.225 287.425 283.672C288.458 283.155 289.752 282.896 291.045 282.896L332.428 289.881C330.876 295.57 328.289 300.744 324.927 305.658Z" fill="#ffffff" fill-rule="nonzero" opacity="1" stroke="none" vectornator:layerName="path"/>
</g>
</g>
</svg>
