<?xml version="1.0" encoding="UTF-8" standalone="no"?>
<!DOCTYPE svg PUBLIC "-//W3C//DTD SVG 1.1//EN" "http://www.w3.org/Graphics/SVG/1.1/DTD/svg11.dtd">
<!-- Created with Vectornator (http://vectornator.io/) -->
<svg height="100%" stroke-miterlimit="10" style="fill-rule:nonzero;clip-rule:evenodd;stroke-linecap:round;stroke-linejoin:round;" version="1.1" viewBox="0 0 512 512" width="100%" xml:space="preserve" xmlns="http://www.w3.org/2000/svg" xmlns:vectornator="http://vectornator.io" xmlns:xlink="http://www.w3.org/1999/xlink">
<defs/>
<g id="Ebene-1" vectornator:layerName="Ebene 1">
<path d="M2.84217e-14 95C2.84217e-14 42.5329 42.5329 0 95 0L417 0C469.467 0 512 42.5329 512 95L512 417C512 469.467 469.467 512 417 512L95 512C42.5329 512 2.84217e-14 469.467 2.84217e-14 417L2.84217e-14 95Z" fill="#242628" fill-rule="nonzero" opacity="1" stroke="none" vectornator:layerName="Rechteck 1"/>
<path d="M450.059 146.49C450.203 147.024 450.277 147.574 450.278 148.126L450.278 233.985C450.278 236.228 449.078 238.3 447.132 239.416L375.069 280.905L375.069 363.141C375.069 365.379 373.88 367.445 371.939 368.572L221.514 455.166C221.17 455.362 220.794 455.487 220.418 455.62C220.278 455.667 220.145 455.753 219.996 455.792C218.944 456.069 217.839 456.069 216.788 455.792C216.615 455.745 216.459 455.651 216.295 455.589C215.95 455.464 215.59 455.354 215.262 455.166L64.8676 368.572C62.923 367.455 61.7234 365.384 61.7219 363.141L61.7219 105.564C61.7219 105.001 61.8001 104.453 61.941 103.921C61.9879 103.741 62.0975 103.577 62.1601 103.397C62.2775 103.068 62.387 102.732 62.5592 102.426C62.6766 102.223 62.8487 102.059 62.9896 101.871C63.1696 101.62 63.3339 101.362 63.5452 101.143C63.7252 100.963 63.9599 100.83 64.1634 100.673C64.3903 100.486 64.5938 100.282 64.852 100.134L64.8598 100.134L140.061 56.8363C141.998 55.7212 144.383 55.7212 146.321 56.8363L221.522 100.134L221.537 100.134C221.788 100.29 221.999 100.486 222.226 100.666C222.43 100.822 222.657 100.963 222.836 101.135C223.056 101.362 223.212 101.62 223.4 101.871C223.533 102.059 223.713 102.223 223.822 102.426C224.002 102.739 224.104 103.068 224.229 103.397C224.292 103.577 224.402 103.741 224.448 103.929C224.593 104.462 224.666 105.012 224.668 105.564L224.668 266.444L287.332 230.362L287.332 148.118C287.332 147.57 287.411 147.015 287.552 146.49C287.606 146.303 287.708 146.138 287.771 145.958C287.896 145.63 288.005 145.293 288.178 144.988C288.295 144.785 288.467 144.62 288.6 144.432C288.788 144.182 288.944 143.924 289.164 143.705C289.343 143.525 289.57 143.392 289.774 143.235C290.009 143.047 290.212 142.844 290.463 142.695L290.47 142.695L365.679 99.398C367.616 98.2813 370.002 98.2813 371.939 99.398L447.14 142.695C447.406 142.852 447.61 143.047 447.844 143.227C448.04 143.384 448.267 143.525 448.447 143.697C448.666 143.924 448.823 144.182 449.01 144.432C449.151 144.62 449.323 144.785 449.433 144.988C449.613 145.293 449.715 145.63 449.84 145.958C449.91 146.138 450.012 146.303 450.059 146.49ZM437.742 230.362L437.742 158.964L411.426 174.114L375.069 195.046L375.069 266.444L437.75 230.362L437.742 230.362ZM362.541 359.518L362.541 288.073L326.78 308.497L224.66 366.78L224.66 438.898L362.541 359.518ZM74.258 116.402L74.258 359.518L212.124 438.89L212.124 366.788L140.1 326.026L140.076 326.01L140.045 325.994C139.802 325.854 139.599 325.65 139.372 325.478C139.176 325.321 138.95 325.196 138.777 325.024L138.762 325.001C138.558 324.805 138.417 324.562 138.245 324.343C138.089 324.132 137.901 323.952 137.776 323.733L137.768 323.709C137.627 323.475 137.541 323.193 137.439 322.927C137.338 322.692 137.204 322.473 137.142 322.223L137.142 322.215C137.064 321.918 137.048 321.604 137.017 321.299C136.985 321.065 136.923 320.83 136.923 320.595L136.923 152.485L100.574 131.544L74.258 116.41L74.258 116.402ZM143.199 69.4976L80.5417 105.564L143.183 141.631L205.832 105.556L143.183 69.4976L143.199 69.4976ZM175.783 294.584L212.132 273.659L212.132 116.402L185.815 131.552L149.459 152.485L149.459 309.741L175.783 294.584ZM368.809 112.059L306.16 148.126L368.809 184.193L431.451 148.118L368.809 112.059ZM362.541 195.046L326.185 174.114L299.868 158.964L299.868 230.362L336.217 251.287L362.541 266.444L362.541 195.046ZM218.384 355.942L310.276 303.481L356.21 277.266L293.608 241.223L221.53 282.721L155.836 320.54L218.384 355.942Z" fill="#ff2d20" fill-rule="nonzero" opacity="1" stroke="none" vectornator:layerName="path"/>
</g>
</svg>
