<?xml version="1.0" encoding="UTF-8" standalone="no"?>
<!DOCTYPE svg PUBLIC "-//W3C//DTD SVG 1.1//EN" "http://www.w3.org/Graphics/SVG/1.1/DTD/svg11.dtd">
<!-- Created with Vectornator (http://vectornator.io/) -->
<svg height="100%" stroke-miterlimit="10" style="fill-rule:nonzero;clip-rule:evenodd;stroke-linecap:round;stroke-linejoin:round;" version="1.1" viewBox="0 0 512 512" width="100%" xml:space="preserve" xmlns="http://www.w3.org/2000/svg" xmlns:vectornator="http://vectornator.io" xmlns:xlink="http://www.w3.org/1999/xlink">
<defs>
<linearGradient gradientTransform="matrix(1.47266 0 0 1.47266 67.5 87.0126)" gradientUnits="userSpaceOnUse" id="LinearGradient" x1="42.5393" x2="170.652" y1="45.7567" y2="153.902">
<stop offset="0" stop-color="#c7f994"/>
<stop offset="1" stop-color="#87cf3e"/>
</linearGradient>
<linearGradient gradientTransform="matrix(1.47266 0 0 1.47266 67.5 87.0126)" gradientUnits="userSpaceOnUse" id="LinearGradient_2" x1="66.2423" x2="162.813" y1="191.182" y2="100.521">
<stop offset="0" stop-color="#3d3d3d"/>
<stop offset="1" stop-color="#000000" stop-opacity="0.114"/>
</linearGradient>
</defs>
<g id="Ebene-1" vectornator:layerName="Ebene 1">
<path d="M2.84217e-14 95C2.84217e-14 42.5329 42.5329 0 95 0L417 0C469.467 0 512 42.5329 512 95L512 417C512 469.467 469.467 512 417 512L95 512C42.5329 512 2.84217e-14 469.467 2.84217e-14 417L2.84217e-14 95Z" fill="#363636" fill-rule="nonzero" opacity="1" stroke="none" vectornator:layerName="Rechteck 1"/>
<g opacity="1" vectornator:layerName="linux-mint.svg">
<path d="M112.008 301.801L111.946 229.385L111.946 207.699L67.5 207.699L67.5 87.0126L254.928 87.8962L313.558 88.0214C383.727 88.0214 444.5 141.104 444.5 211.21L444.5 424.987L242.949 424.987C172.845 424.987 112.008 371.842 112.008 301.8L112.008 301.801Z" fill="#000000" fill-rule="nonzero" opacity="0.26" stroke="none" vectornator:layerName="path"/>
<path d="M417.576 369.081L417.576 213.655C417.576 161.729 372.038 119.636 315.853 119.636L257.536 119.636L257.536 119.511L99.8189 118.822L99.8189 175.531L124.029 175.531C140.929 175.531 143.915 187.197 143.915 203.345L144.039 303.602C144.039 355.528 189.577 397.619 245.7 397.619L384.269 397.619C402.032 397.619 417.577 386.369 417.577 369.079L417.576 369.081Z" fill="url(#LinearGradient)" fill-rule="nonzero" opacity="1" stroke="none" vectornator:layerName="path"/>
<path d="M403.823 382.211C368.386 357.792 343.289 329.74 322.147 292.606C280.473 215.621 290.217 177.404 187.017 168.393C157.234 168.393 137.412 161.802 106.063 161.802L106.063 172.718C106.063 172.718 118.451 179.006 129.34 179.006C145.578 179.006 148.395 190.269 148.395 205.784L148.498 301.874C148.498 351.766 192.316 392.202 246.239 392.202L379.308 392.202C389.076 392.202 397.851 388.352 403.823 382.211Z" fill="url(#LinearGradient_2)" fill-rule="nonzero" opacity="0.175" stroke="none" vectornator:layerName="path"/>
<path d="M280.495 177.898C267.849 177.898 256.615 182.592 247.586 191.711C238.564 200.827 233.826 212.205 233.826 225.046L233.826 289.958L263.268 289.958L263.268 225.044C263.268 220.123 264.873 216.275 268.388 212.724C271.913 209.163 275.648 207.551 280.495 207.551C285.445 207.551 289.121 209.156 292.656 212.724C296.169 216.274 297.776 220.123 297.776 225.044L297.776 289.956L327.218 289.956L327.218 225.044C327.218 220.123 328.823 216.275 332.338 212.724C335.872 209.155 339.55 207.551 344.499 207.551C349.347 207.551 353.08 209.163 356.606 212.724C360.12 216.274 361.727 220.123 361.727 225.044L361.887 300.889C361.887 317.069 346.478 330.705 326.685 330.705L231.746 330.332C216.471 330.332 203.424 315.463 203.424 296.357L203.424 153.531L175.583 153.531L175.583 301.851C175.583 317.588 181.341 331.389 192.543 342.548C202.118 351.998 213.633 357.591 226.572 358.974L226.572 359.508L332.285 359.508C348.528 359.508 362.8 353.468 374.315 341.747L374.368 341.747C384.159 331.687 389.884 319.632 391.274 306.065L391.168 225.046C391.168 212.205 386.43 200.827 377.407 191.711C368.38 182.592 357.143 177.898 344.499 177.898C332.086 177.898 321.226 182.513 312.444 190.965C303.688 182.526 292.902 177.898 280.495 177.898Z" fill="#000000" fill-opacity="0.08" fill-rule="nonzero" opacity="1" stroke="none" vectornator:layerName="path"/>
<path d="M278.144 178.671C265.499 178.671 254.262 183.365 245.235 192.484C236.212 201.6 231.474 212.978 231.474 225.819L231.474 290.729L260.916 290.729L260.916 225.819C260.916 220.897 262.521 217.049 266.036 213.499C269.562 209.938 273.297 208.325 278.144 208.325C283.092 208.325 286.771 209.931 290.304 213.499C293.82 217.048 295.425 220.897 295.425 225.819L295.425 290.729L324.866 290.729L324.866 225.819C324.866 220.897 326.471 217.049 329.986 213.499C333.521 209.93 337.198 208.325 342.147 208.325C346.996 208.325 350.729 209.938 354.254 213.499C357.769 217.048 359.374 220.897 359.374 225.819L359.536 301.664C359.536 317.844 344.127 331.479 324.333 331.479L229.393 331.106C214.119 331.106 201.073 316.238 201.073 297.132L201.073 154.304L173.231 154.304L173.231 302.624C173.231 318.361 178.989 332.161 190.192 343.32C199.767 352.771 211.283 358.897 224.22 360.282L329.933 360.282C346.177 360.282 360.45 354.24 371.963 342.52L372.016 342.52C381.809 332.458 387.532 320.405 388.924 306.837L388.817 225.819C388.817 212.978 384.08 201.599 375.056 192.484C366.028 183.365 354.792 178.671 342.147 178.671C329.736 178.671 318.875 183.286 310.092 191.737C301.336 183.299 290.55 178.671 278.144 178.671Z" fill="#ffffff" fill-rule="nonzero" opacity="1" stroke="none" vectornator:layerName="path"/>
<path d="M260.83 331.204L260.83 360.282L329.984 360.282C346.228 360.282 360.416 354.224 371.929 342.501L372.027 342.501C381.821 332.441 387.532 320.411 388.924 306.843L388.924 290.341L359.552 290.341L359.552 301.636C359.552 317.817 344.179 331.402 324.386 331.402L260.83 331.204Z" fill="#52a800" fill-rule="nonzero" opacity="0.3" stroke="none" vectornator:layerName="path"/>
<path d="M244.779 419.144C177.854 419.144 119.778 368.409 119.778 301.546L119.719 220.358L119.719 199.656L77.2873 199.656L77.2873 96.5039L256.21 97.3463L312.181 97.4656C379.164 97.4656 437.18 148.139 437.18 215.063L437.18 419.144L244.779 419.144ZM409.919 364.4L409.919 215.063C409.919 165.172 366.166 124.73 312.181 124.73L256.152 124.73L256.152 124.61L104.612 123.947L104.612 172.395L121.588 172.395C133.113 172.395 146.981 183.224 146.981 199.117L147.102 301.486C147.102 351.378 190.854 391.82 244.777 391.82L377.915 391.82C394.984 391.82 409.919 381.011 409.919 364.4Z" fill="#ffffff" fill-rule="nonzero" opacity="1" stroke="none" vectornator:layerName="path"/>
</g>
</g>
</svg>
