<?xml version="1.0" encoding="UTF-8" standalone="no"?>
<!DOCTYPE svg PUBLIC "-//W3C//DTD SVG 1.1//EN" "http://www.w3.org/Graphics/SVG/1.1/DTD/svg11.dtd">
<!-- Created with Vectornator (http://vectornator.io/) -->
<svg height="100%" stroke-miterlimit="10" style="fill-rule:nonzero;clip-rule:evenodd;stroke-linecap:round;stroke-linejoin:round;" version="1.1" viewBox="0 0 512 512" width="100%" xml:space="preserve" xmlns="http://www.w3.org/2000/svg" xmlns:vectornator="http://vectornator.io" xmlns:xlink="http://www.w3.org/1999/xlink">
<defs/>
<g id="Ebene-1" vectornator:layerName="Ebene 1">
<path d="M2.84217e-14 95C2.84217e-14 42.5329 42.5329 0 95 0L417 0C469.467 0 512 42.5329 512 95L512 417C512 469.467 469.467 512 417 512L95 512C42.5329 512 2.84217e-14 469.467 2.84217e-14 417L2.84217e-14 95Z" fill="#00007d" fill-rule="nonzero" opacity="1" stroke="none" vectornator:layerName="Rechteck 1"/>
<g opacity="1" vectornator:layerName="lua-5.svg">
<path d="M408.98 256.03C408.98 171.565 340.428 103.013 255.963 103.013C171.5 103.013 102.949 171.565 102.949 256.03C102.949 340.493 171.5 409.044 255.965 409.044C340.428 409.044 408.98 340.493 408.98 256.028" fill="#ffffff" fill-rule="nonzero" opacity="1" stroke="none" vectornator:layerName="path"/>
<path d="M364.178 192.633C364.178 167.894 344.1 147.814 319.362 147.814C294.623 147.814 274.543 167.894 274.543 192.633C274.543 217.371 294.623 237.449 319.362 237.449C344.1 237.449 364.178 217.371 364.178 192.633" fill="#00007d" fill-rule="nonzero" opacity="1" stroke="none" vectornator:layerName="path"/>
<path d="M453.796 103.013C453.796 78.2747 433.718 58.1967 408.98 58.1967C384.241 58.1967 364.163 78.2747 364.163 103.013C364.163 127.754 384.241 147.832 408.98 147.832C433.718 147.832 453.796 127.754 453.796 103.013" fill="#ffffff" fill-rule="nonzero" opacity="1" stroke="none" vectornator:layerName="path"/>
<path d="M151.633 233.722L165.015 233.722L165.015 320.735L214.572 320.735L214.572 332.502L151.633 332.502L151.633 233.722M238.712 260.486L238.712 308.295C238.712 311.97 239.28 314.975 240.416 317.305C242.511 321.609 246.418 323.762 252.137 323.762C260.346 323.762 265.933 319.994 268.902 312.465C270.518 308.429 271.326 302.893 271.326 295.854L271.326 260.486L283.427 260.486L283.427 332.502L271.998 332.502L272.133 321.878C270.591 324.613 268.677 326.92 266.388 328.804C261.859 332.569 256.36 334.453 249.894 334.453C239.82 334.453 232.958 331.023 229.309 324.164C227.33 320.49 226.339 315.581 226.339 309.438L226.339 260.486L238.712 260.486M341.797 288.919C344.576 288.561 346.436 287.398 347.379 285.428C347.914 284.349 348.184 282.796 348.184 280.77C348.184 276.631 346.718 273.627 343.788 271.76C340.856 269.891 336.663 268.958 331.207 268.958C324.898 268.958 320.423 270.67 317.784 274.094C316.307 275.986 315.345 278.803 314.898 282.541L303.602 282.541C303.826 273.639 306.702 267.448 312.232 263.963C317.761 260.479 324.176 258.738 331.474 258.738C339.935 258.738 346.81 260.351 352.093 263.578C357.331 266.807 359.951 271.827 359.951 278.642L359.951 320.133C359.951 321.387 360.209 322.397 360.725 323.157C361.239 323.918 362.327 324.298 363.986 324.298C364.524 324.298 365.128 324.266 365.8 324.198C366.474 324.131 367.191 324.031 367.953 323.897L367.953 332.84C366.07 333.376 364.635 333.712 363.65 333.846C362.663 333.981 361.317 334.05 359.616 334.05C355.447 334.05 352.42 332.569 350.537 329.611C349.551 328.043 348.857 325.824 348.453 322.955C345.986 326.184 342.445 328.984 337.828 331.361C333.211 333.734 328.122 334.922 322.564 334.922C315.883 334.922 310.427 332.896 306.191 328.845C301.954 324.794 299.836 319.722 299.836 313.632C299.836 306.963 301.921 301.791 306.09 298.12C310.259 294.449 315.727 292.186 322.497 291.334L341.796 288.919L341.797 288.919ZM316.31 321.615C318.866 323.629 321.891 324.635 325.389 324.635C329.646 324.635 333.769 323.65 337.761 321.681C344.485 318.414 347.847 313.066 347.847 305.635L347.847 295.901C346.371 296.846 344.469 297.632 342.143 298.262C339.817 298.892 337.535 299.341 335.298 299.608L327.983 300.549C323.599 301.131 320.301 302.049 318.092 303.301C314.349 305.402 312.479 308.758 312.479 313.364C312.479 316.853 313.755 319.602 316.31 321.615Z" fill="#00007d" fill-rule="nonzero" opacity="1" stroke="none" vectornator:layerName="path"/>
<path d="M263.08 456L262.921 451.411C268.593 451.213 274.314 450.766 279.92 450.082L280.477 454.638C274.739 455.339 268.885 455.795 263.08 455.998L263.08 456ZM245.629 455.859C239.833 455.562 233.989 455.007 228.257 454.211L228.887 449.665C234.488 450.442 240.2 450.983 245.863 451.274L245.629 455.858L245.629 455.859ZM297.692 451.766L296.738 447.276C302.281 446.1 307.834 444.665 313.247 443.008L314.592 447.396C309.024 449.099 303.385 450.557 297.691 451.766L297.692 451.766ZM211.092 451.056C205.443 449.76 199.783 448.195 194.267 446.408L195.682 442.041C201.092 443.794 206.575 445.309 212.117 446.582L211.092 451.056ZM331.041 441.56L329.316 437.306C334.585 435.17 339.758 432.805 344.82 430.218L346.908 434.307C341.727 436.954 336.433 439.374 331.041 441.56ZM177.907 440.295C172.548 438.018 167.29 435.508 162.149 432.773L164.307 428.721C169.31 431.385 174.491 433.857 179.702 436.069C179.702 436.069 177.907 440.295 177.907 440.295ZM362.087 425.692L359.648 421.802C364.466 418.78 369.151 415.551 373.691 412.124L376.458 415.788C371.812 419.294 367.017 422.598 362.087 425.691L362.087 425.692ZM147.11 423.904C142.23 420.729 137.489 417.345 132.901 413.761L135.728 410.144C140.211 413.647 144.843 416.954 149.612 420.056C149.612 420.056 147.11 423.904 147.11 423.904ZM389.916 404.675L386.842 401.266C391.051 397.472 395.144 393.449 399.006 389.307L402.363 392.439C398.391 396.694 394.238 400.777 389.915 404.675L389.916 404.675ZM119.624 402.426C115.367 398.457 111.282 394.306 107.382 389.984L110.791 386.91C114.602 391.133 118.594 395.189 122.754 399.068L119.624 402.426ZM413.703 379.168L410.087 376.341C413.591 371.86 416.9 367.229 420.004 362.461L423.851 364.966C420.675 369.844 417.289 374.583 413.703 379.168ZM96.2616 376.532C92.7524 371.889 89.4462 367.095 86.3523 362.166L90.2407 359.727C93.2645 364.543 96.4956 369.226 99.9248 373.763L96.2616 376.531L96.2616 376.532ZM432.729 349.93L428.678 347.772C431.343 342.769 433.818 337.589 436.034 332.38L440.258 334.176C437.978 339.534 435.466 344.791 432.729 349.93ZM77.7314 346.994C75.0812 341.813 72.6582 336.519 70.4691 331.128L74.7217 329.402C76.86 334.669 79.2272 339.841 81.8167 344.902C81.8167 344.902 77.7314 346.994 77.7314 346.994ZM446.378 317.819L442.012 316.401C443.768 310.993 445.286 305.51 446.562 299.969L451.035 300.998C449.729 306.67 448.175 312.283 446.378 317.819ZM64.6264 314.68C62.921 309.115 61.4604 303.477 60.2487 297.784L64.739 296.83C65.9228 302.391 67.3495 307.899 69.0151 313.335L64.6264 314.68ZM454.203 283.833L449.656 283.2C450.436 277.602 450.98 271.891 451.271 266.225L455.857 266.463C455.556 272.274 455.004 278.069 454.203 283.833ZM57.3673 280.571C56.6606 274.795 56.2037 268.991 55.9977 263.175L60.5864 263.012C60.785 268.683 61.2368 274.402 61.9232 280.012L57.3673 280.571ZM451.415 249.169C451.218 243.509 450.768 237.787 450.077 232.165L454.633 231.605C455.339 237.36 455.801 243.217 456.002 249.01L451.415 249.169ZM60.7146 245.956L56.1305 245.725C56.4245 239.928 56.9748 234.082 57.7675 228.352L62.3156 228.98C61.5401 234.581 61.0023 240.292 60.7146 245.956ZM447.261 215.342C446.077 209.778 444.652 204.268 442.99 198.827L447.38 197.486C449.081 203.053 450.54 208.692 451.751 214.387L447.261 215.342ZM65.3894 212.209L60.9148 211.183C62.2151 205.51 63.7634 199.895 65.5551 194.357L69.9234 195.772C68.1728 201.182 66.66 206.666 65.3894 212.209ZM437.297 182.745C435.174 177.492 432.794 172.27 430.222 167.223L434.312 165.139C436.955 170.327 439.37 175.628 441.553 181.026L437.297 182.745ZM75.8865 179.789L71.6604 177.997C73.9345 172.636 76.4416 167.377 79.1745 162.234L83.227 164.39C80.5573 169.414 78.1081 174.552 75.8865 179.789ZM91.8854 149.692L88.0362 147.191C91.2082 142.309 94.59 137.567 98.1721 132.977L101.79 135.802C98.2899 140.287 94.9853 144.921 91.8854 149.691L91.8854 149.692ZM112.861 122.824L109.499 119.697C113.467 115.437 117.616 111.35 121.935 107.447L125.012 110.856C120.792 114.669 116.737 118.662 112.861 122.824ZM138.153 99.9818L135.383 96.3233C140.025 92.8119 144.816 89.5032 149.745 86.4063L152.187 90.293C147.371 93.3189 142.689 96.5521 138.153 99.9834L138.153 99.9818ZM362.501 92.0097L362.251 91.8487L364.746 87.9963L364.988 88.1527L362.501 92.0097ZM347.542 83.2121C342.515 80.5503 337.374 78.1079 332.135 75.892L333.922 71.6644C339.284 73.9319 344.545 76.4316 349.69 79.1565L347.542 83.2121ZM167.007 81.8613L164.912 77.7759C170.091 75.1228 175.384 72.6971 180.775 70.5058L182.502 74.7585C177.236 76.8996 172.066 79.2694 167.007 81.8613ZM316.149 69.943C310.736 68.194 305.25 66.6812 299.706 65.4089L300.732 60.9343C306.382 62.2288 312.045 63.7907 317.562 65.5747C317.562 65.5747 316.149 69.943 316.149 69.943ZM198.568 69.0393L197.221 64.6507C202.786 62.9431 208.423 61.4798 214.116 60.2651L215.072 64.7538C209.511 65.9409 204.005 67.3708 198.568 69.0393ZM282.93 62.3227C277.317 61.5409 271.604 61 265.948 60.7123L266.182 56.1282C271.97 56.4221 277.819 56.9772 283.563 57.7761L282.93 62.3227ZM231.889 61.9333L231.326 57.3774C237.064 56.6707 242.918 56.2079 248.723 56L248.887 60.5872C243.213 60.7905 237.496 61.2439 231.889 61.9333Z" fill="#929292" fill-rule="nonzero" opacity="1" stroke="none" vectornator:layerName="path"/>
</g>
</g>
</svg>
