<?xml version="1.0" encoding="UTF-8" standalone="no"?>
<!DOCTYPE svg PUBLIC "-//W3C//DTD SVG 1.1//EN" "http://www.w3.org/Graphics/SVG/1.1/DTD/svg11.dtd">
<!-- Created with Vectornator (http://vectornator.io/) -->
<svg height="100%" stroke-miterlimit="10" style="fill-rule:nonzero;clip-rule:evenodd;stroke-linecap:round;stroke-linejoin:round;" version="1.1" viewBox="0 0 512 512" width="100%" xml:space="preserve" xmlns="http://www.w3.org/2000/svg" xmlns:vectornator="http://vectornator.io" xmlns:xlink="http://www.w3.org/1999/xlink">
<defs/>
<g id="Ebene-1" vectornator:layerName="Ebene 1">
<path d="M2.84217e-14 95C2.84217e-14 42.5329 42.5329 0 95 0L417 0C469.467 0 512 42.5329 512 95L512 417C512 469.467 469.467 512 417 512L95 512C42.5329 512 2.84217e-14 469.467 2.84217e-14 417L2.84217e-14 95Z" fill="#363636" fill-rule="nonzero" opacity="1" stroke="none" vectornator:layerName="Rechteck 1"/>
<g opacity="1" vectornator:layerName="mongodb-icon-1.svg">
<path d="M254.748 57.0925L265.422 77.141C267.822 80.8407 270.422 84.1154 273.484 87.1652C282.462 96.0311 290.831 105.494 298.532 115.488C316.619 139.236 328.818 165.609 337.53 194.132C342.754 211.556 345.591 229.43 345.804 247.503C346.679 301.537 328.155 347.933 290.808 386.493C284.733 392.607 278.17 398.217 271.185 403.266C267.485 403.266 265.735 400.429 264.21 397.817C261.433 392.973 259.585 387.653 258.76 382.131C257.448 375.594 256.586 369.057 257.011 362.307L257.011 359.257C256.711 358.607 253.448 58.6298 254.748 57.0925Z" fill="#599636" fill-rule="nonzero" opacity="1" stroke="none" vectornator:layerName="path"/>
<path d="M254.748 56.43C254.311 55.5551 253.873 56.2175 253.436 56.6425C253.648 61.0172 252.123 64.9169 249.736 68.6416C247.111 72.3413 243.637 75.1786 240.149 78.2284C220.776 95.0021 205.527 115.263 193.315 137.924C177.067 168.422 168.692 201.107 166.317 235.517C165.23 247.928 170.242 291.725 174.154 304.361C184.829 337.909 204.002 366.019 228.838 390.417C234.937 396.292 241.462 401.742 248.211 406.979C250.174 406.979 250.386 405.229 250.836 403.929C251.696 401.147 252.352 398.307 252.798 395.43L257.173 362.757L254.748 56.43Z" fill="#6cac48" fill-rule="nonzero" opacity="1" stroke="none" vectornator:layerName="path"/>
<path d="M265.422 416.54C265.86 411.541 268.26 407.391 270.872 403.254C268.247 402.167 266.297 400.004 264.773 397.592C263.458 395.308 262.369 392.901 261.523 390.405C258.473 381.256 257.823 371.656 256.948 362.307L256.948 356.645C255.861 357.52 255.636 364.919 255.636 366.019C255 375.901 253.688 385.727 251.711 395.43C251.061 399.354 250.624 403.266 248.211 406.754C248.211 407.191 248.211 407.629 248.424 408.279C252.348 419.828 253.423 431.589 254.086 443.576L254.086 447.951C254.086 453.175 253.873 452.075 258.211 453.825C259.96 454.475 261.91 454.7 263.66 456C264.973 456 265.185 454.913 265.185 454.038L264.535 446.851L264.535 426.802C264.323 423.302 264.973 419.828 265.41 416.553L265.422 416.54Z" fill="#c2bfbf" fill-rule="nonzero" opacity="1" stroke="none" vectornator:layerName="path"/>
</g>
</g>
</svg>
