<?xml version="1.0" encoding="UTF-8" standalone="no"?>
<!DOCTYPE svg PUBLIC "-//W3C//DTD SVG 1.1//EN" "http://www.w3.org/Graphics/SVG/1.1/DTD/svg11.dtd">
<!-- Created with Vectornator (http://vectornator.io/) -->
<svg height="100%" stroke-miterlimit="10" style="fill-rule:nonzero;clip-rule:evenodd;stroke-linecap:round;stroke-linejoin:round;" version="1.1" viewBox="0 0 512 512" width="100%" xml:space="preserve" xmlns="http://www.w3.org/2000/svg" xmlns:vectornator="http://vectornator.io" xmlns:xlink="http://www.w3.org/1999/xlink">
<defs/>
<g id="Ebene-1" vectornator:layerName="Ebene 1">
<path d="M2.84217e-14 95C2.84217e-14 42.5329 42.5329 0 95 0L417 0C469.467 0 512 42.5329 512 95L512 417C512 469.467 469.467 512 417 512L95 512C42.5329 512 2.84217e-14 469.467 2.84217e-14 417L2.84217e-14 95Z" fill="#e0234e" fill-rule="nonzero" opacity="1" stroke="none" vectornator:layerName="Rechteck 1"/>
<path d="M285.574 90.1533C283.166 90.1533 280.931 90.6696 278.866 91.3577C283.253 94.2815 285.66 98.1516 286.865 102.537C286.951 103.14 287.123 103.569 287.208 104.171C287.295 104.687 287.381 105.202 287.381 105.719C287.724 113.287 285.402 114.232 283.768 118.705C281.274 124.467 281.962 130.658 284.972 135.646C285.231 136.248 285.574 136.936 286.005 137.537C282.737 115.781 300.882 112.513 304.236 105.719C304.494 99.7845 299.591 95.8293 295.723 93.0771C292.023 90.8413 288.669 90.1533 285.574 90.1533ZM312.922 95.0547C312.576 97.0337 312.836 96.5173 312.749 97.5487C312.664 98.2367 312.664 99.0965 312.578 99.7845C312.406 100.473 312.234 101.161 311.976 101.849C311.803 102.537 311.546 103.225 311.288 103.913C310.943 104.601 310.687 105.204 310.343 105.89C310.084 106.235 309.912 106.578 309.654 106.923L309.138 107.696C308.708 108.299 308.278 108.901 307.848 109.417C307.332 109.933 306.903 110.535 306.3 110.965L306.3 111.051C305.784 111.481 305.269 111.996 304.666 112.427C302.86 113.802 300.796 114.835 298.903 116.124C298.302 116.554 297.7 116.899 297.184 117.415C296.582 117.845 296.066 118.275 295.551 118.79C294.948 119.306 294.518 119.823 294.002 120.424C293.572 120.941 293.057 121.542 292.712 122.145C292.283 122.747 291.853 123.348 291.508 123.951C291.165 124.639 290.906 125.241 290.563 125.929C290.305 126.617 290.047 127.22 289.875 127.906C289.645 128.615 289.444 129.332 289.272 130.057C289.187 130.4 289.187 130.83 289.101 131.175C289.014 131.518 289.014 131.863 288.929 132.206C288.929 132.894 288.842 133.669 288.842 134.357C288.842 134.872 288.842 135.388 288.929 135.905C288.929 136.593 289.015 137.281 289.187 138.054C289.274 138.742 289.445 139.43 289.617 140.118C289.875 140.806 290.047 141.494 290.305 142.181C290.478 142.612 290.735 143.042 290.906 143.386L271.128 135.732C267.774 134.787 264.505 133.926 261.152 133.152L255.734 131.862C250.559 130.83 245.335 130.055 240.083 129.541C239.91 129.541 239.824 129.454 239.652 129.454C234.493 128.938 229.418 128.681 224.259 128.681C220.475 128.681 216.691 128.852 212.993 129.111C207.747 129.454 202.501 130.142 197.256 131.002C195.965 131.175 194.674 131.432 193.386 131.69C190.719 132.206 188.14 132.808 185.646 133.411L181.776 134.442C180.485 134.958 179.282 135.56 178.077 136.076L175.24 137.367C175.067 137.452 174.895 137.452 174.81 137.537C173.95 137.967 173.176 138.312 172.401 138.742C172.145 138.828 171.972 138.915 171.8 139C170.855 139.43 169.909 139.945 169.134 140.376C168.533 140.634 167.93 140.978 167.415 141.236C167.157 141.409 166.812 141.581 166.64 141.666C165.866 142.096 165.092 142.525 164.404 142.957C163.63 143.385 162.942 143.816 162.34 144.246C161.739 144.676 161.136 145.019 160.621 145.449C160.534 145.536 160.448 145.536 160.363 145.622C159.846 145.966 159.245 146.395 158.728 146.825L158.555 146.998L157.267 148.03C157.094 148.115 156.921 148.288 156.751 148.373C156.321 148.718 155.891 149.148 155.46 149.491C155.375 149.664 155.203 149.749 155.117 149.836C154.6 150.352 154.085 150.781 153.569 151.297C153.482 151.297 153.482 151.383 153.396 151.47C152.881 151.9 152.364 152.415 151.848 152.931C151.763 153.018 151.763 153.104 151.676 153.104C151.225 153.542 150.795 154.001 150.387 154.479C150.214 154.652 149.957 154.824 149.785 154.995C149.355 155.512 148.839 156.027 148.323 156.543C148.236 156.716 148.065 156.801 147.979 156.973C147.291 157.661 146.688 158.349 146 159.037L145.744 159.295C144.367 160.756 142.905 162.219 141.357 163.509C139.832 164.869 138.224 166.133 136.541 167.292C134.873 168.462 133.151 169.553 131.381 170.561C129.626 171.524 127.817 172.385 125.963 173.141C124.134 173.918 122.269 174.606 120.374 175.204C116.762 175.979 113.064 177.44 109.882 177.698C109.194 177.698 108.42 177.871 107.732 177.956C106.958 178.129 106.27 178.301 105.582 178.472L103.519 179.247C102.83 179.504 102.142 179.849 101.454 180.192C100.852 180.622 100.164 180.966 99.5624 181.396C98.9595 181.826 98.358 182.341 97.8416 182.859C97.2401 183.289 96.6386 183.89 96.1222 184.407C95.6058 185.008 95.0908 185.525 94.6596 186.126C94.2298 186.814 93.7147 187.417 93.3701 188.104C92.9402 188.707 92.5103 189.395 92.167 190.083C91.821 190.856 91.4789 191.544 91.2208 192.318C90.9493 193.059 90.6911 193.804 90.4462 194.554C90.2745 195.242 90.1029 195.93 90.0164 196.617C90.0164 196.705 89.9299 196.79 89.9299 196.877C89.7582 197.65 89.7582 198.682 89.6717 199.198C89.5865 199.8 89.5 200.315 89.5 200.918C89.5 201.262 89.5 201.691 89.5865 202.036C89.673 202.638 89.7595 203.154 89.9312 203.67C90.1029 204.185 90.2745 204.702 90.5327 205.218L90.5327 205.303C90.7909 205.82 91.1343 206.336 91.4776 206.852C91.8236 207.367 92.167 207.884 92.5955 208.4C93.0267 208.83 93.5431 209.345 94.0594 209.776C94.5745 210.291 95.0908 210.721 95.6924 211.152C97.7565 212.958 98.2728 213.56 100.938 214.936C101.368 215.194 101.798 215.366 102.315 215.624C102.401 215.624 102.486 215.709 102.573 215.709C102.573 215.882 102.573 215.967 102.658 216.14C102.744 216.828 102.916 217.516 103.089 218.203C103.253 218.911 103.483 219.602 103.776 220.267C104.034 220.784 104.207 221.3 104.464 221.816C104.55 221.988 104.637 222.16 104.722 222.246C105.067 222.934 105.41 223.536 105.755 224.137L107.044 225.943C107.474 226.46 107.989 227.061 108.507 227.577C109.022 228.094 109.538 228.522 110.14 229.04C110.14 229.04 110.226 229.125 110.313 229.125C110.828 229.555 111.344 229.986 111.861 230.33C112.462 230.759 113.064 231.104 113.752 231.448C114.355 231.792 115.043 232.136 115.731 232.392C116.246 232.652 116.849 232.824 117.45 232.995C117.537 233.082 117.622 233.082 117.793 233.168C118.139 233.253 118.568 233.34 118.911 233.425C118.654 238.07 118.568 242.455 119.257 244.003C120.029 245.723 123.814 240.477 127.598 234.458C127.081 240.391 126.738 247.358 127.598 249.42C128.544 251.571 133.704 244.864 138.175 237.467C199.148 223.364 254.789 265.503 260.637 325.013C259.519 315.725 248.08 310.565 242.834 311.855C240.255 318.219 235.869 326.389 228.817 331.463C229.433 325.721 229.142 319.917 227.957 314.264C226.066 322.176 222.367 329.571 217.293 335.935C209.124 336.537 200.954 332.581 196.654 326.646C196.31 326.389 196.225 325.874 195.966 325.528C195.708 324.926 195.45 324.325 195.278 323.723C195.027 323.147 194.854 322.539 194.762 321.917C194.676 321.314 194.676 320.713 194.676 320.025L194.676 318.734C194.762 318.132 194.934 317.531 195.105 316.929C195.278 316.327 195.45 315.725 195.708 315.123C196.052 314.521 196.31 313.919 196.74 313.318C198.202 309.189 198.202 305.836 195.537 303.858C195.02 303.52 194.473 303.232 193.902 302.997C193.558 302.912 193.128 302.74 192.784 302.654C192.526 302.567 192.355 302.481 192.096 302.395C191.493 302.222 190.892 302.051 190.29 301.966C189.703 301.796 189.096 301.709 188.484 301.707C187.882 301.621 187.194 301.534 186.592 301.534C186.162 301.534 185.732 301.622 185.301 301.622C184.614 301.622 184.013 301.707 183.411 301.879C182.808 301.966 182.207 302.052 181.604 302.224C181.003 302.397 180.4 302.568 179.798 302.825C179.197 303.083 178.68 303.342 178.079 303.6C177.562 303.858 177.046 304.201 176.444 304.46C156.407 317.531 168.361 348.147 182.034 357.005C176.874 357.95 171.628 359.067 170.167 360.185L169.994 360.358C173.694 362.594 177.562 364.487 181.604 366.121C187.108 367.925 192.956 369.56 195.537 370.248L195.537 370.334C202.662 371.795 209.947 372.316 217.208 371.882C255.304 369.216 286.521 340.235 292.197 302.052C292.37 302.825 292.542 303.513 292.714 304.288C292.972 305.836 293.315 307.469 293.487 309.104L293.487 309.189C293.66 309.964 293.745 310.738 293.832 311.425L293.832 311.771C293.918 312.543 294.005 313.318 294.005 314.007C294.09 314.952 294.175 315.897 294.175 316.844L294.175 318.22C294.175 318.65 294.262 319.165 294.262 319.595C294.262 320.111 294.175 320.628 294.175 321.144L294.175 322.347C294.175 322.95 294.089 323.465 294.089 324.068C294.089 324.411 294.089 324.756 294.003 325.186C294.003 325.787 293.917 326.389 293.917 327.077C293.83 327.335 293.83 327.593 293.83 327.852C293.745 328.54 293.659 329.142 293.572 329.829C293.572 330.087 293.572 330.345 293.487 330.604C293.4 331.463 293.229 332.238 293.142 333.098L293.142 333.269C292.971 334.044 292.799 334.904 292.626 335.678L292.626 335.935L292.111 338.257C292.111 338.344 292.024 338.515 292.024 338.602C291.851 339.375 291.68 340.15 291.423 340.923L291.423 341.181C291.165 342.042 290.906 342.815 290.735 343.59C290.648 343.675 290.648 343.762 290.648 343.762L289.874 346.341C289.53 347.202 289.272 347.975 288.929 348.835C288.584 349.696 288.326 350.555 287.983 351.329C287.638 352.19 287.295 352.963 286.95 353.823L286.865 353.823C286.519 354.597 286.177 355.457 285.747 356.231C285.66 356.49 285.574 356.661 285.489 356.833C285.402 356.92 285.402 357.006 285.316 357.091C279.726 368.357 271.471 378.246 261.15 385.986C260.462 386.416 259.774 386.931 259.088 387.449C258.915 387.62 258.656 387.706 258.485 387.879C257.883 388.308 257.28 388.738 256.594 389.168L256.851 389.685L256.937 389.685L260.549 389.168L260.635 389.168C262.871 388.823 265.107 388.394 267.343 387.964C267.944 387.877 268.634 387.706 269.235 387.534C269.665 387.447 270.008 387.362 270.438 387.276C271.041 387.191 271.643 387.018 272.244 386.932C272.761 386.759 273.277 386.674 273.793 386.503C282.393 384.438 290.735 381.6 298.733 378.246C285.059 396.908 266.74 411.957 245.327 421.847C255.218 421.159 265.107 419.526 274.653 416.774C309.311 406.54 338.464 383.234 355.92 351.845C352.377 371.756 344.478 390.638 332.788 407.141C341.122 401.644 348.822 395.241 355.749 388.05C375.012 367.927 387.654 342.386 391.954 314.952C394.887 328.562 395.728 342.54 394.448 356.403C456.538 269.803 399.607 180.022 375.786 156.373C375.7 156.2 375.614 156.115 375.614 155.943C375.529 156.028 375.529 156.028 375.529 156.115C375.529 156.028 375.529 156.028 375.442 155.942C375.442 156.974 375.356 158.006 375.269 159.038C375.012 161.016 374.754 162.908 374.409 164.801C373.98 166.692 373.465 168.584 372.948 170.476C372.336 172.338 371.648 174.174 370.885 175.98C370.094 177.762 369.233 179.512 368.304 181.226C367.359 182.859 366.326 184.58 365.208 186.127C364.102 187.727 362.925 189.277 361.681 190.772C360.392 192.32 359.017 193.696 357.641 195.071C356.831 195.812 355.999 196.529 355.147 197.221C354.459 197.823 353.856 198.339 353.168 198.941C351.62 200.145 350.073 201.263 348.353 202.294C346.719 203.327 344.999 204.358 343.279 205.22C341.473 206.079 339.667 206.852 337.862 207.627C336.055 208.315 334.162 208.918 332.271 209.433C330.37 209.945 328.447 210.376 326.509 210.724C324.531 211.067 322.554 211.239 320.661 211.411C319.285 211.497 317.909 211.584 316.533 211.584C314.555 211.584 312.578 211.411 310.685 211.238C308.708 211.067 306.73 210.809 304.838 210.379C302.86 210.033 300.968 209.518 299.075 208.917L298.99 208.917C300.882 208.744 302.774 208.572 304.666 208.229C306.606 207.889 308.529 207.459 310.428 206.938C312.32 206.427 314.185 205.825 316.018 205.133C317.909 204.445 319.715 203.585 321.434 202.724C323.242 201.864 324.876 200.918 326.595 199.887C328.23 198.769 329.863 197.651 331.412 196.447C332.952 195.249 334.417 193.956 335.797 192.577C337.259 191.286 338.549 189.824 339.838 188.363C341.096 186.857 342.3 185.308 343.45 183.719C343.623 183.462 343.795 183.117 343.967 182.859C344.826 181.483 345.686 180.107 346.461 178.731C347.407 177.026 348.268 175.276 349.041 173.486C349.818 171.686 350.506 169.849 351.104 167.982C351.707 166.176 352.137 164.283 352.567 162.392C352.911 160.414 353.255 158.522 353.426 156.63C353.599 154.652 353.771 152.674 353.771 150.782C353.771 149.406 353.684 148.03 353.598 146.654C353.428 144.676 353.169 142.785 352.911 140.891C352.572 138.951 352.141 137.029 351.62 135.13C351.019 133.324 350.417 131.433 349.729 129.627C349.041 127.821 348.181 126.015 347.32 124.294C346.375 122.575 345.429 120.856 344.397 119.221C343.299 117.61 342.152 116.032 340.958 114.492C339.663 113.008 338.344 111.546 337.001 110.105C336.277 109.367 335.531 108.651 334.765 107.956C330.913 104.964 326.924 102.151 322.812 99.5277C322.21 99.183 321.694 98.9261 321.091 98.6679C318.254 96.862 315.588 95.9158 312.922 95.0561L312.922 95.0547Z" fill="#ffffff" fill-rule="evenodd" opacity="1" stroke="none" vectornator:layerName="path"/>
</g>
</svg>
