<?xml version="1.0" encoding="UTF-8" standalone="no"?>
<!DOCTYPE svg PUBLIC "-//W3C//DTD SVG 1.1//EN" "http://www.w3.org/Graphics/SVG/1.1/DTD/svg11.dtd">
<!-- Created with Vectornator (http://vectornator.io/) -->
<svg height="100%" stroke-miterlimit="10" style="fill-rule:nonzero;clip-rule:evenodd;stroke-linecap:round;stroke-linejoin:round;" version="1.1" viewBox="0 0 512 512" width="100%" xml:space="preserve" xmlns="http://www.w3.org/2000/svg" xmlns:vectornator="http://vectornator.io" xmlns:xlink="http://www.w3.org/1999/xlink">
<defs/>
<g id="Ebene-1" vectornator:layerName="Ebene 1">
<path d="M2.84217e-14 95C2.84217e-14 42.5329 42.5329 0 95 0L417 0C469.467 0 512 42.5329 512 95L512 417C512 469.467 469.467 512 417 512L95 512C42.5329 512 2.84217e-14 469.467 2.84217e-14 417L2.84217e-14 95Z" fill="#25c7b7" fill-rule="nonzero" opacity="1" stroke="none" vectornator:layerName="Rechteck 1"/>
<path d="M295.209 314.869L197.109 294.37C196.698 295.164 196.241 295.934 195.74 296.674L285.046 426.95L290.434 421.569L305.627 327.086C300.42 324.887 296.558 320.357 295.209 314.868L295.209 314.869ZM259.422 186.631C255.747 192.268 249.403 195.999 242.178 195.999C241.066 195.999 239.985 195.887 238.922 195.718L194.184 265.719L313.71 214.282C313.673 213.801 313.566 213.351 313.566 212.857C313.566 211.851 313.704 210.876 313.866 209.913L259.422 186.632L259.422 186.631ZM262.672 173.875L320.585 198.637C322.43 197.194 324.541 196.128 326.797 195.499L336.316 136.313L300.052 100.049L259.234 163.92C261.235 166.879 262.42 170.313 262.672 173.876L262.672 173.875ZM384.021 184.018L347.678 147.669L339.778 196.743C341.781 197.75 343.58 199.119 345.085 200.781L384.021 184.018ZM296.946 301.943C299.836 296.698 305.176 293.264 311.148 292.812L321.585 227.894C320.766 227.35 320.035 226.7 319.316 226.032L199.102 277.768C199.409 279.025 199.621 280.306 199.721 281.637C199.721 281.637 296.946 301.943 296.946 301.943ZM393.921 193.924L351.872 212.018L455.622 256.375L455.997 256L393.921 193.924ZM318.779 327.282L306.141 405.849L379.522 332.469L326.666 321.432C324.639 324.084 321.905 326.112 318.779 327.282ZM176.147 307.082C173.49 307.082 170.947 306.626 168.565 305.818L144.191 343.963L134.772 334.55L157.859 298.426C157.288 297.717 156.756 296.978 156.266 296.212L114.441 314.219L104.527 304.305L150.308 284.6L67.542 267.325L56.2219 256L59.8031 252.419L155.247 272.343C156.344 270.261 157.75 268.357 159.416 266.694L113.091 199.124L122.447 189.768L170.845 260.369C172.583 259.965 174.361 259.758 176.145 259.75C178.189 259.75 180.17 260.037 182.064 260.525L227.352 189.662C223.665 185.837 221.606 180.731 221.608 175.418C221.608 173.793 221.815 172.218 222.171 170.706L165.672 146.55L175.583 136.638L229.113 159.531C234.633 154.981 242.126 153.638 248.883 155.988L290.639 90.637L256.003 56L56.0031 256L256.003 456L275.684 436.319L185.709 305.055C182.698 306.39 179.44 307.081 176.147 307.082ZM334.316 230.693L323.697 296.687C327.447 299.7 329.813 304.105 330.254 308.894L390.521 321.476L445.708 266.289L346.097 223.701C343.247 227.495 339.012 230.009 334.316 230.694L334.316 230.693Z" fill="#ffffff" fill-rule="nonzero" opacity="1" stroke="none" vectornator:layerName="path"/>
</g>
</svg>
