<?xml version="1.0" encoding="UTF-8" standalone="no"?>
<!DOCTYPE svg PUBLIC "-//W3C//DTD SVG 1.1//EN" "http://www.w3.org/Graphics/SVG/1.1/DTD/svg11.dtd">
<!-- Created with Vectornator (http://vectornator.io/) -->
<svg height="100%" stroke-miterlimit="10" style="fill-rule:nonzero;clip-rule:evenodd;stroke-linecap:round;stroke-linejoin:round;" version="1.1" viewBox="0 0 512 512" width="100%" xml:space="preserve" xmlns="http://www.w3.org/2000/svg" xmlns:vectornator="http://vectornator.io" xmlns:xlink="http://www.w3.org/1999/xlink">
<defs>
<radialGradient cx="208.078" cy="241.422" gradientTransform="matrix(1.31689 0 0 1.31689 -83.5318 -63.7784)" gradientUnits="userSpaceOnUse" id="RadialGradient" r="55.4219">
<stop offset="0" stop-color="#34364e" stop-opacity="0.98"/>
<stop offset="1" stop-color="#0c0824"/>
</radialGradient>
<radialGradient cx="321.328" cy="266.078" gradientTransform="matrix(1.31689 0 0 1.31689 -83.5318 -63.7784)" gradientUnits="userSpaceOnUse" id="RadialGradient_2" r="41.6719">
<stop offset="0" stop-color="#34364e" stop-opacity="0.98"/>
<stop offset="1" stop-color="#0c0824"/>
</radialGradient>
</defs>
<g id="Ebene-1" vectornator:layerName="Ebene 1">
<path d="M2.84217e-14 95C2.84217e-14 42.5329 42.5329 0 95 0L417 0C469.467 0 512 42.5329 512 95L512 417C512 469.467 469.467 512 417 512L95 512C42.5329 512 2.84217e-14 469.467 2.84217e-14 417L2.84217e-14 95Z" fill="#0c0825" fill-rule="nonzero" opacity="1" stroke="none" vectornator:layerName="Rechteck 1"/>
<g opacity="1" vectornator:layerName="photoshop-cc-4.svg">
<path d="M178.982 133.097C157.254 133.097 136.405 133.55 122.356 134.208C121.479 134.208 120.257 134.482 119.27 134.949C118.784 135.177 118.351 135.462 118.035 135.772C117.719 136.091 117.5 136.458 117.5 136.842L117.5 372.566C117.5 374.541 118.378 375.199 120.134 375.199L153.715 375.199C155.69 375.199 156.348 374.321 156.348 372.566L156.348 288.284C162.274 288.284 165.128 288.696 173.468 288.696C185.868 288.696 197.685 287.201 208.448 284.087C213.829 282.53 218.967 280.584 223.757 278.202C228.535 275.825 232.982 272.994 237.049 269.766C239.087 268.147 241.057 266.419 242.893 264.58C246.572 260.895 249.826 256.784 252.605 252.193C253.993 249.904 255.25 247.512 256.391 244.992C260.952 234.909 263.469 222.961 263.469 209.024C263.469 187.734 257.529 168.776 244.004 155.114C242.32 153.413 240.535 151.747 238.613 150.217C238.604 150.21 238.58 150.223 238.572 150.217C226.991 141.009 211.028 135.001 189.97 133.467C189.957 133.466 189.942 133.468 189.929 133.467C186.416 133.213 182.782 133.097 178.982 133.097ZM177.666 167.995C206.856 167.995 224.168 182.056 224.168 209.929C224.168 244.827 200.054 253.798 174.373 253.798C165.595 253.798 161.644 253.825 156.595 253.387L156.595 168.653C160.546 168.433 168.886 167.995 177.666 167.995Z" fill="url(#RadialGradient)" fill-rule="nonzero" opacity="1" stroke="none"/>
<path d="M345.322 194.332C306.914 194.332 284.745 217.831 284.745 246.144C284.745 271.385 297.696 286.529 328.861 301.453C351.03 312.867 356.104 319.89 356.104 327.791C356.104 337.668 348.834 344.911 331.495 344.911C317.009 344.911 301.206 340.946 287.379 331.948C285.842 330.849 284.745 331.522 284.745 333.717L284.745 365.981C284.745 367.738 284.978 368.821 286.515 369.479C295.952 374.965 312.4 378.903 331.495 378.903C367.709 378.903 394.5 360.028 394.5 324.91C394.5 301.426 383.731 285.418 349.273 268.737C326.007 256.666 322.071 251.165 322.071 243.263C322.071 236.02 327.983 227.255 345.322 227.255C359.588 227.255 373.855 230.987 383.512 237.131C385.707 237.79 386.804 236.706 386.804 234.95L386.804 204.868C386.804 203.332 386.379 201.563 384.623 200.464C377.38 197.173 364.197 194.332 345.322 194.332Z" fill="url(#RadialGradient_2)" fill-rule="nonzero" opacity="1" stroke="none"/>
<path d="M178.982 133.097C157.254 133.097 136.405 133.55 122.356 134.208C121.479 134.208 120.257 134.482 119.27 134.949C118.784 135.177 118.351 135.462 118.035 135.772C117.719 136.091 117.5 136.458 117.5 136.842L117.5 372.566C117.5 374.541 118.378 375.199 120.134 375.199L153.715 375.199C155.69 375.199 156.348 374.321 156.348 372.566L156.348 288.284C162.274 288.284 165.128 288.696 173.468 288.696C185.868 288.696 197.685 287.201 208.448 284.087C213.829 282.53 218.967 280.584 223.757 278.202C228.535 275.825 232.982 272.994 237.049 269.766C239.087 268.147 241.057 266.419 242.893 264.58C246.572 260.895 249.826 256.784 252.605 252.193C253.993 249.904 255.25 247.512 256.391 244.992C260.952 234.909 263.469 222.961 263.469 209.024C263.469 187.734 257.529 168.776 244.004 155.114C242.32 153.413 240.535 151.747 238.613 150.217C238.604 150.21 238.58 150.223 238.572 150.217C226.991 141.009 211.029 135.001 189.97 133.467C189.957 133.466 189.942 133.468 189.929 133.467C186.416 133.213 182.782 133.097 178.982 133.097ZM177.666 167.995C206.856 167.995 224.168 182.056 224.168 209.929C224.168 244.827 200.054 253.798 174.373 253.798C165.595 253.798 161.644 253.825 156.595 253.387L156.595 168.653C160.546 168.433 168.886 167.995 177.666 167.995Z" fill="#31c5f0" fill-rule="nonzero" opacity="1" stroke="none"/>
<path d="M345.322 194.332C306.914 194.332 284.745 217.831 284.745 246.144C284.745 271.385 297.696 286.529 328.861 301.453C351.03 312.867 356.104 319.89 356.104 327.791C356.104 337.668 348.834 344.911 331.495 344.911C317.009 344.911 301.206 340.946 287.379 331.948C285.842 330.849 284.745 331.522 284.745 333.717L284.745 365.981C284.745 367.738 284.978 368.821 286.515 369.479C295.952 374.965 312.4 378.903 331.495 378.903C367.709 378.903 394.5 360.028 394.5 324.91C394.5 301.426 383.731 285.418 349.273 268.737C326.007 256.666 322.071 251.165 322.071 243.263C322.071 236.02 327.983 227.255 345.322 227.255C359.588 227.255 373.855 230.987 383.512 237.131C385.707 237.79 386.804 236.706 386.804 234.95L386.804 204.868C386.804 203.332 386.379 201.563 384.623 200.464C377.38 197.173 364.197 194.332 345.322 194.332Z" fill="#31c5f0" fill-rule="nonzero" opacity="1" stroke="none"/>
</g>
</g>
</svg>
