<?xml version="1.0" encoding="UTF-8" standalone="no"?>
<!DOCTYPE svg PUBLIC "-//W3C//DTD SVG 1.1//EN" "http://www.w3.org/Graphics/SVG/1.1/DTD/svg11.dtd">
<!-- Created with Vectornator (http://vectornator.io/) -->
<svg height="100%" stroke-miterlimit="10" style="fill-rule:nonzero;clip-rule:evenodd;stroke-linecap:round;stroke-linejoin:round;" version="1.1" viewBox="0 0 512 512" width="100%" xml:space="preserve" xmlns="http://www.w3.org/2000/svg" xmlns:vectornator="http://vectornator.io" xmlns:xlink="http://www.w3.org/1999/xlink">
<defs/>
<g id="Ebene-1" vectornator:layerName="Ebene 1">
<path d="M2.84217e-14 95C2.84217e-14 42.5329 42.5329 0 95 0L417 0C469.467 0 512 42.5329 512 95L512 417C512 469.467 469.467 512 417 512L95 512C42.5329 512 2.84217e-14 469.467 2.84217e-14 417L2.84217e-14 95Z" fill="#232531" fill-rule="nonzero" opacity="1" stroke="none" vectornator:layerName="Rechteck 1"/>
<g opacity="1" vectornator:layerName="g">
<path d="M56 256C56 198.502 145.543 151.891 256 151.891C366.457 151.891 456 198.502 456 256C456 313.498 366.457 360.109 256 360.109C145.543 360.109 56 313.498 56 256Z" fill="#8993be" fill-rule="evenodd" opacity="1" stroke="none" vectornator:layerName="ellipse"/>
<path d="M112.164 317.644L134.083 206.684L184.766 206.684C206.683 208.055 217.642 219.013 217.642 238.192C217.642 271.069 191.616 290.247 168.327 288.877L143.672 288.877L138.192 317.644L112.164 317.644ZM149.15 268.33L156 227.233L173.808 227.233C183.397 227.233 190.245 231.342 190.245 239.561C188.877 262.85 177.917 266.959 165.589 268.33L149.152 268.33L149.15 268.33ZM212.55 288.877L234.467 177.919L260.495 177.919L255.016 206.684L279.672 206.684C301.591 208.055 309.809 219.013 307.07 232.713L297.481 288.877L270.084 288.877L279.673 238.192C281.042 231.342 281.042 227.233 271.455 227.233L250.906 227.233L238.578 288.877L212.55 288.877ZM295.727 317.644L317.644 206.684L368.328 206.684C390.247 208.055 401.206 219.013 401.206 238.192C401.206 271.069 375.178 290.247 351.891 288.877L327.233 288.877L321.753 317.644C321.753 317.644 295.727 317.644 295.727 317.644ZM332.711 268.33L339.561 227.233L357.37 227.233C366.959 227.233 373.808 231.342 373.808 239.561C372.439 262.85 361.48 266.959 349.152 268.33L332.713 268.33L332.711 268.33Z" fill="#232531" fill-rule="evenodd" opacity="1" stroke="none" vectornator:layerName="path"/>
</g>
</g>
<g id="Ebene-2" vectornator:layerName="Ebene 2"/>
</svg>
