<?xml version="1.0" encoding="UTF-8" standalone="no"?>
<!DOCTYPE svg PUBLIC "-//W3C//DTD SVG 1.1//EN" "http://www.w3.org/Graphics/SVG/1.1/DTD/svg11.dtd">
<!-- Created with Vectornator (http://vectornator.io/) -->
<svg height="100%" stroke-miterlimit="10" style="fill-rule:nonzero;clip-rule:evenodd;stroke-linecap:round;stroke-linejoin:round;" version="1.1" viewBox="0 0 512 512" width="100%" xml:space="preserve" xmlns="http://www.w3.org/2000/svg" xmlns:vectornator="http://vectornator.io" xmlns:xlink="http://www.w3.org/1999/xlink">
<defs>
<linearGradient gradientTransform="matrix(1.30393 0 0 1.30393 89.3109 90.2719)" gradientUnits="userSpaceOnUse" id="LinearGradient" x1="24.6871" x2="150.968" y1="22.9226" y2="148.502">
<stop offset="0" stop-color="#387eb8"/>
<stop offset="1" stop-color="#366994"/>
</linearGradient>
<linearGradient gradientTransform="matrix(1.30393 0 0 1.30393 89.3109 90.2719)" gradientUnits="userSpaceOnUse" id="LinearGradient_2" x1="102.369" x2="237.994" y1="103.381" y2="232.164">
<stop offset="0" stop-color="#ffe052"/>
<stop offset="1" stop-color="#ffc331"/>
</linearGradient>
</defs>
<g id="Ebene-1" vectornator:layerName="Ebene 1">
<path d="M2.84217e-14 95C2.84217e-14 42.5329 42.5329 0 95 0L417 0C469.467 0 512 42.5329 512 95L512 417C512 469.467 469.467 512 417 512L95 512C42.5329 512 2.84217e-14 469.467 2.84217e-14 417L2.84217e-14 95Z" fill="#242628" fill-rule="nonzero" opacity="1" stroke="none" vectornator:layerName="Rechteck 1"/>
</g>
<g id="Ebene-2" vectornator:layerName="Ebene 2">
<g opacity="1" vectornator:layerName="python-5.svg">
<path d="M254.8 90.3658C170.264 90.3658 175.542 127.026 175.542 127.026L175.636 165.007L256.308 165.007L256.308 176.409L143.595 176.409C143.595 176.409 89.5 170.274 89.5 255.571C89.5 340.87 136.715 337.845 136.715 337.845L164.893 337.845L164.893 298.263C164.893 298.263 163.374 251.048 211.355 251.048L291.366 251.048C291.366 251.048 336.319 251.774 336.319 207.602L336.319 134.566C336.319 134.566 343.147 90.3658 254.8 90.3658ZM210.318 115.907C214.168 115.904 217.862 117.432 220.584 120.154C223.306 122.876 224.834 126.57 224.831 130.42C224.834 134.27 223.306 137.963 220.584 140.686C217.862 143.408 214.168 144.936 210.318 144.933C206.468 144.936 202.775 143.408 200.052 140.686C197.33 137.963 195.802 134.27 195.805 130.42C195.802 126.57 197.33 122.876 200.052 120.154C202.775 117.432 206.468 115.904 210.318 115.907Z" fill="url(#LinearGradient)" fill-rule="nonzero" opacity="1" stroke="none" vectornator:layerName="path"/>
<path d="M257.201 421.634C341.737 421.634 336.459 384.974 336.459 384.974L336.365 346.995L255.692 346.995L255.692 335.592L368.405 335.592C368.405 335.592 422.5 341.727 422.5 256.428C422.5 171.13 375.285 174.155 375.285 174.155L347.107 174.155L347.107 213.736C347.107 213.736 348.626 260.951 300.645 260.951L220.634 260.951C220.634 260.951 175.681 260.225 175.681 304.398L175.681 377.435C175.681 377.435 168.855 421.634 257.2 421.634L257.201 421.634ZM301.683 396.095C297.833 396.099 294.14 394.571 291.417 391.849C288.695 389.126 287.167 385.433 287.17 381.583C287.167 377.732 288.694 374.039 291.417 371.316C294.139 368.593 297.833 367.065 301.683 367.069C305.533 367.065 309.227 368.593 311.949 371.316C314.671 374.038 316.199 377.731 316.196 381.581C316.199 385.431 314.671 389.125 311.949 391.847C309.227 394.57 305.533 396.098 301.683 396.094L301.683 396.095Z" fill="url(#LinearGradient_2)" fill-rule="nonzero" opacity="1" stroke="none" vectornator:layerName="path"/>
</g>
</g>
</svg>
