<?xml version="1.0" encoding="UTF-8" standalone="no"?>
<!DOCTYPE svg PUBLIC "-//W3C//DTD SVG 1.1//EN" "http://www.w3.org/Graphics/SVG/1.1/DTD/svg11.dtd">
<!-- Created with Vectornator (http://vectornator.io/) -->
<svg height="100%" stroke-miterlimit="10" style="fill-rule:nonzero;clip-rule:evenodd;stroke-linecap:round;stroke-linejoin:round;" version="1.1" viewBox="0 0 512 512" width="100%" xml:space="preserve" xmlns="http://www.w3.org/2000/svg" xmlns:vectornator="http://vectornator.io" xmlns:xlink="http://www.w3.org/1999/xlink">
<defs/>
<g id="Ebene-1" vectornator:layerName="Ebene 1">
<path d="M2.84217e-14 95C2.84217e-14 42.5329 42.5329 0 95 0L417 0C469.467 0 512 42.5329 512 95L512 417C512 469.467 469.467 512 417 512L95 512C42.5329 512 2.84217e-14 469.467 2.84217e-14 417L2.84217e-14 95Z" fill="#242628" fill-rule="nonzero" opacity="1" stroke="none" vectornator:layerName="Rechteck 1"/>
<g opacity="1" vectornator:layerName="g">
<path d="M435.37 217.12C435.37 193.155 405.359 170.444 359.345 156.36C369.964 109.461 365.245 72.1491 344.449 60.2032C339.656 57.4011 334.053 56.0737 327.932 56.0737L327.932 72.5178C331.324 72.5178 334.053 73.1814 336.338 74.4349C346.367 80.1866 350.718 102.087 347.325 130.256C346.515 137.187 345.188 144.487 343.565 151.935C329.111 148.396 313.331 145.667 296.74 143.898C286.786 130.256 276.462 117.867 266.064 107.028C290.103 84.6847 312.668 72.4439 328.006 72.4439L328.006 56C307.727 56 281.181 70.453 254.341 95.5244C227.498 70.6004 200.953 56.295 180.675 56.295L180.675 72.7389C195.939 72.7389 218.576 84.906 242.615 107.102C232.292 117.941 221.968 130.256 212.16 143.898C195.495 145.667 179.715 148.396 165.263 152.009C163.566 144.635 162.313 137.482 161.427 130.624C157.963 102.456 162.239 80.5553 172.195 74.7299C174.406 73.4025 177.281 72.8127 180.675 72.8127L180.675 56.3687C174.48 56.3687 168.875 57.696 164.009 60.4982C143.288 72.4439 138.643 109.682 149.334 156.433C103.469 170.591 73.6041 193.23 73.6041 217.12C73.6041 241.087 103.616 263.799 149.629 277.882C139.011 324.781 143.73 362.092 164.526 374.039C169.319 376.84 174.922 378.167 181.117 378.167C201.395 378.167 227.942 363.715 254.782 338.644C281.623 363.568 308.17 377.874 328.448 377.874C334.641 377.874 340.246 376.547 345.114 373.743C365.834 361.797 370.48 324.559 359.787 277.809C405.506 263.725 435.37 241.013 435.37 217.12ZM339.362 167.937C336.633 177.45 333.242 187.256 329.406 197.063C326.384 191.165 323.213 185.266 319.747 179.366C316.355 173.467 312.741 167.716 309.128 162.111C319.599 163.66 329.701 165.577 339.362 167.937ZM305.588 246.469C299.837 256.425 293.939 265.863 287.818 274.639C276.83 275.597 265.696 276.113 254.487 276.113C243.352 276.113 232.217 275.597 221.305 274.711C215.184 265.936 209.21 256.572 203.459 246.69C197.855 237.031 192.768 227.223 188.121 217.343C192.694 207.461 197.855 197.579 203.387 187.92C209.138 177.966 215.036 168.527 221.157 159.752C232.145 158.793 243.278 158.277 254.487 158.277C265.622 158.277 276.757 158.793 287.67 159.678C293.79 168.453 299.764 177.817 305.515 187.699C311.12 197.358 316.207 207.166 320.853 217.048C316.207 226.928 311.12 236.81 305.588 246.469ZM329.406 236.884C333.277 246.494 336.674 256.288 339.583 266.231C329.922 268.591 319.747 270.582 309.202 272.131C312.815 266.454 316.428 260.628 319.821 254.654C323.213 248.756 326.384 242.782 329.406 236.884ZM254.634 315.564C247.776 308.484 240.919 300.594 234.135 291.967C240.772 292.262 247.555 292.483 254.413 292.483C261.345 292.483 268.203 292.336 274.914 291.967C268.584 300.192 261.814 308.07 254.634 315.564ZM199.772 272.131C189.302 270.582 179.199 268.665 169.54 266.305C172.267 256.793 175.66 246.985 179.494 237.178C182.518 243.077 185.689 248.977 189.153 254.875C192.619 260.775 196.159 266.526 199.772 272.131ZM254.266 118.679C261.124 125.758 267.982 133.648 274.765 142.275C268.129 141.98 261.345 141.759 254.487 141.759C247.555 141.759 240.698 141.907 233.988 142.275C240.317 134.05 247.087 126.173 254.266 118.679ZM199.698 162.111C196.085 167.789 192.473 173.615 189.081 179.587C185.689 185.486 182.518 191.386 179.494 197.284C175.623 187.675 172.227 177.88 169.319 167.937C178.978 165.651 189.153 163.66 199.698 162.111ZM132.964 254.433C106.861 243.298 89.9743 228.699 89.9743 217.12C89.9743 205.544 106.861 190.87 132.964 179.809C139.306 177.08 146.238 174.647 153.391 172.361C157.594 186.814 163.124 201.857 169.982 217.269C163.198 232.607 157.74 247.575 153.612 261.955C146.312 259.668 139.38 257.162 132.964 254.433ZM172.636 359.807C162.608 354.056 158.256 332.155 161.65 303.986C162.461 297.055 163.787 289.754 165.409 282.306C179.864 285.846 195.643 288.575 212.235 290.344C222.189 303.986 232.513 316.374 242.91 327.213C218.871 349.558 196.306 361.797 180.968 361.797C177.651 361.725 174.849 361.06 172.636 359.807ZM347.547 303.618C351.012 331.786 346.736 353.686 336.78 359.512C334.569 360.839 331.693 361.43 328.3 361.43C313.036 361.43 290.398 349.262 266.359 327.067C276.683 316.227 287.007 303.913 296.814 290.27C313.48 288.501 329.26 285.772 343.712 282.159C345.409 289.607 346.736 296.76 347.547 303.618ZM375.936 254.433C369.595 257.162 362.663 259.596 355.51 261.881C351.307 247.429 345.776 232.386 338.919 216.974C345.704 201.636 351.16 186.667 355.289 172.287C362.59 174.573 369.52 177.08 376.01 179.809C402.114 190.943 419 205.544 419 217.12C418.926 228.699 402.04 243.372 375.936 254.433Z" fill="#61dafb" fill-rule="nonzero" opacity="1" stroke="none" vectornator:layerName="path"/>
<path d="M254.413 250.82C273.026 250.82 288.113 235.733 288.113 217.12C288.113 198.509 273.026 183.422 254.413 183.422C235.802 183.422 220.715 198.509 220.715 217.12C220.715 235.733 235.802 250.82 254.413 250.82ZM90.0312 436.19L78.907 436.19L78.907 455.349L72.6293 455.349L72.6293 407.989L88.3073 407.989C93.6416 407.989 97.7401 409.205 100.602 411.633C103.486 414.06 104.929 417.596 104.929 422.236C104.929 425.186 104.126 427.755 102.522 429.946C100.939 432.136 98.7268 433.773 95.8861 434.856L107.01 454.958L107.01 455.349L100.31 455.349L90.0312 436.19ZM78.907 431.084L88.5025 431.084C91.6034 431.084 94.0645 430.281 95.8861 428.676C97.7292 427.072 98.6508 424.925 98.6508 422.236C98.6508 419.309 97.7726 417.065 96.0162 415.503C94.2814 413.942 91.766 413.15 88.4699 413.129L78.907 413.129L78.907 431.084ZM127.373 456C122.602 456 118.72 454.439 115.727 451.316C112.735 448.171 111.239 443.975 111.239 438.728L111.239 437.621C111.239 434.131 111.9 431.019 113.223 428.287C114.567 425.532 116.432 423.385 118.817 421.847C121.225 420.285 123.827 419.503 126.624 419.503C131.2 419.503 134.756 421.011 137.292 424.025C139.83 427.039 141.098 431.354 141.098 436.97L141.098 439.475L117.256 439.475C117.343 442.946 118.351 445.754 120.281 447.901C122.233 450.024 124.705 451.088 127.698 451.088C129.823 451.088 131.622 450.654 133.096 449.787C134.572 448.92 135.861 447.77 136.968 446.339L140.643 449.202C137.693 453.733 133.271 456 127.373 456ZM126.624 424.448C124.195 424.448 122.157 425.337 120.509 427.115C118.861 428.872 117.842 431.344 117.451 434.531L135.081 434.531L135.081 434.076C134.908 431.019 134.084 428.655 132.61 426.984C131.134 425.294 129.139 424.448 126.624 424.448ZM169.82 455.349C169.472 454.655 169.19 453.419 168.974 451.64C166.176 454.546 162.837 456 158.956 456C155.486 456 152.635 455.024 150.401 453.072C148.19 451.098 147.084 448.605 147.084 445.591C147.084 441.927 148.472 439.086 151.247 437.069C154.044 435.029 157.97 434.01 163.022 434.01L168.877 434.01L168.877 431.247C168.877 429.143 168.247 427.473 166.991 426.238C165.733 424.979 163.878 424.351 161.427 424.351C159.28 424.351 157.481 424.892 156.029 425.977C154.576 427.06 153.849 428.373 153.849 429.913L147.799 429.913C147.799 428.157 148.418 426.465 149.653 424.838C150.911 423.19 152.602 421.889 154.728 420.935C156.875 419.982 159.226 419.503 161.785 419.503C165.841 419.503 169.017 420.522 171.316 422.562C173.614 424.579 174.806 427.365 174.894 430.92L174.894 447.119C174.894 450.351 175.306 452.92 176.13 454.828L176.13 455.349L169.82 455.349ZM159.834 450.763C161.721 450.763 163.51 450.275 165.202 449.299C166.892 448.323 168.117 447.055 168.877 445.493L168.877 438.273L164.159 438.273C156.787 438.273 153.1 440.43 153.1 444.745C153.1 446.631 153.73 448.107 154.987 449.169C156.245 450.231 157.861 450.763 159.834 450.763ZM198.443 451.088C200.59 451.088 202.466 450.437 204.071 449.136C205.675 447.835 206.564 446.209 206.737 444.257L212.431 444.257C212.322 446.273 211.628 448.193 210.348 450.015C209.069 451.837 207.355 453.289 205.209 454.373C203.083 455.458 200.829 456 198.443 456C193.652 456 189.834 454.406 186.993 451.218C184.175 448.008 182.766 443.628 182.766 438.077L182.766 437.069C182.766 433.643 183.394 430.596 184.652 427.929C185.91 425.261 187.709 423.19 190.052 421.716C192.415 420.241 195.201 419.503 198.41 419.503C202.358 419.503 205.632 420.686 208.234 423.05C210.858 425.413 212.256 428.482 212.431 432.254L206.737 432.254C206.564 429.977 205.697 428.112 204.135 426.66C202.597 425.186 200.687 424.448 198.41 424.448C195.353 424.448 192.979 425.553 191.287 427.766C189.618 429.956 188.782 433.133 188.782 437.297L188.782 438.434C188.782 442.489 189.618 445.612 191.287 447.802C192.957 449.993 195.343 451.088 198.443 451.088ZM227.36 411.633L227.36 420.155L233.931 420.155L233.931 424.806L227.36 424.806L227.36 446.631C227.36 448.041 227.653 449.103 228.239 449.818C228.824 450.512 229.822 450.86 231.231 450.86C231.924 450.86 232.879 450.73 234.092 450.47L234.092 455.349C232.509 455.782 230.971 456 229.474 456C226.786 456 224.758 455.185 223.391 453.56C222.026 451.934 221.343 449.624 221.343 446.631L221.343 424.806L214.934 424.806L214.934 420.155L221.343 420.155L221.343 411.633L227.36 411.633ZM294.854 455.349L288.575 455.349L264.734 418.854L264.734 455.349L258.456 455.349L258.456 407.989L264.734 407.989L288.641 444.647L288.641 407.989L294.854 407.989L294.854 455.349ZM326.73 455.349C326.382 454.655 326.1 453.419 325.884 451.64C323.086 454.546 319.747 456 315.866 456C312.396 456 309.544 455.024 307.311 453.072C305.1 451.098 303.994 448.605 303.994 445.591C303.994 441.927 305.38 439.086 308.157 437.069C310.954 435.029 314.88 434.01 319.932 434.01L325.787 434.01L325.787 431.247C325.787 429.143 325.157 427.473 323.899 426.238C322.643 424.979 320.788 424.351 318.337 424.351C316.19 424.351 314.391 424.892 312.939 425.977C311.486 427.06 310.759 428.373 310.759 429.913L304.709 429.913C304.709 428.157 305.328 426.465 306.563 424.838C307.821 423.19 309.512 421.889 311.638 420.935C313.785 419.982 316.136 419.503 318.695 419.503C322.75 419.503 325.927 420.522 328.226 422.562C330.524 424.579 331.716 427.365 331.804 430.92L331.804 447.119C331.804 450.351 332.216 452.92 333.04 454.828L333.04 455.349L326.73 455.349ZM316.744 450.763C318.631 450.763 320.42 450.275 322.112 449.299C323.802 448.323 325.027 447.055 325.787 445.493L325.787 438.273L321.069 438.273C313.697 438.273 310.01 440.43 310.01 444.745C310.01 446.631 310.64 448.107 311.897 449.169C313.155 450.231 314.771 450.763 316.744 450.763ZM349.401 411.633L349.401 420.155L355.972 420.155L355.972 424.806L349.401 424.806L349.401 446.631C349.401 448.041 349.694 449.103 350.28 449.818C350.865 450.512 351.862 450.86 353.272 450.86C353.965 450.86 354.92 450.73 356.135 450.47L356.135 455.349C354.55 455.782 353.012 456 351.515 456C348.827 456 346.799 455.185 345.432 453.56C344.067 451.934 343.384 449.624 343.384 446.631L343.384 424.806L336.976 424.806L336.976 420.155L343.384 420.155L343.384 411.633L349.401 411.633ZM369.568 455.349L363.55 455.349L363.55 420.155L369.568 420.155L369.568 455.349ZM363.062 410.819C363.062 409.844 363.355 409.02 363.941 408.347C364.547 407.674 365.436 407.34 366.607 407.34C367.779 407.34 368.668 407.674 369.275 408.347C369.882 409.02 370.185 409.844 370.185 410.819C370.185 411.795 369.882 412.608 369.275 413.259C368.668 413.909 367.779 414.235 366.607 414.235C365.436 414.235 364.547 413.909 363.941 413.259C363.355 412.608 363.062 411.795 363.062 410.819ZM390.841 447.185L399.557 420.155L405.705 420.155L393.085 455.349L388.498 455.349L375.748 420.155L381.895 420.155L390.841 447.185ZM425.644 456C420.873 456 416.992 454.439 413.999 451.316C411.007 448.171 409.511 443.975 409.511 438.728L409.511 437.621C409.511 434.131 410.172 431.019 411.495 428.287C412.838 425.532 414.703 423.385 417.089 421.847C419.497 420.285 422.099 419.503 424.895 419.503C429.471 419.503 433.027 421.011 435.565 424.025C438.101 427.039 439.371 431.354 439.371 436.97L439.371 439.475L415.528 439.475C415.615 442.946 416.623 445.754 418.553 447.901C420.504 450.024 422.977 451.088 425.969 451.088C428.094 451.088 429.895 450.654 431.369 449.787C432.843 448.92 434.134 447.77 435.24 446.339L438.916 449.202C435.966 453.733 431.542 456 425.644 456ZM424.895 424.448C422.468 424.448 420.428 425.337 418.781 427.115C417.132 428.872 416.113 431.344 415.724 434.531L433.352 434.531L433.352 434.076C433.179 431.019 432.355 428.655 430.881 426.984C429.406 425.294 427.411 424.448 424.895 424.448Z" fill="#61dafb" fill-rule="nonzero" opacity="1" stroke="none" vectornator:layerName="path"/>
</g>
</g>
</svg>
