<?xml version="1.0" encoding="UTF-8" standalone="no"?>
<!DOCTYPE svg PUBLIC "-//W3C//DTD SVG 1.1//EN" "http://www.w3.org/Graphics/SVG/1.1/DTD/svg11.dtd">
<!-- Created with Vectornator (http://vectornator.io/) -->
<svg height="100%" stroke-miterlimit="10" style="fill-rule:nonzero;clip-rule:evenodd;stroke-linecap:round;stroke-linejoin:round;" version="1.1" viewBox="0 0 512 512" width="100%" xml:space="preserve" xmlns="http://www.w3.org/2000/svg" xmlns:vectornator="http://vectornator.io" xmlns:xlink="http://www.w3.org/1999/xlink">
<defs/>
<g id="Ebene-1" vectornator:layerName="Ebene 1">
<path d="M2.84217e-14 95C2.84217e-14 42.5329 42.5329 0 95 0L417 0C469.467 0 512 42.5329 512 95L512 417C512 469.467 469.467 512 417 512L95 512C42.5329 512 2.84217e-14 469.467 2.84217e-14 417L2.84217e-14 95Z" fill="#764abc" fill-rule="nonzero" opacity="1" stroke="none" vectornator:layerName="Rechteck 1"/>
<path d="M328.722 317.005C342.634 315.565 353.188 303.572 352.708 289.178C352.229 274.786 340.234 263.271 325.842 263.271L324.884 263.271C310.01 263.751 298.496 276.225 298.976 291.097C299.457 298.294 302.334 304.531 306.652 308.849C290.341 340.994 265.394 364.502 227.974 384.173C202.547 397.606 176.162 402.403 149.776 399.046C128.187 396.167 111.395 386.572 100.839 370.738C85.4885 347.23 84.0498 321.803 97.0032 296.375C106.119 278.144 120.51 264.711 129.626 257.993C127.707 251.757 124.828 241.202 123.388 233.527C53.8249 283.902 61.0218 352.029 82.1309 384.173C97.9619 408.162 130.106 423.034 165.607 423.034C175.201 423.034 184.796 422.074 194.392 419.677C255.799 407.681 302.335 371.219 328.722 317.005ZM413.157 257.515C376.696 214.816 322.965 191.307 261.556 191.307L253.881 191.307C249.563 182.672 240.447 176.913 230.373 176.913L229.413 176.913C214.541 177.394 203.029 189.867 203.508 204.74C203.987 219.133 215.981 230.648 230.373 230.648L231.332 230.648C241.886 230.168 251.002 223.451 254.84 214.335L263.475 214.335C299.937 214.335 334.478 224.89 365.663 245.52C389.649 261.353 406.921 281.983 416.515 306.93C424.671 327.081 424.191 346.751 415.555 363.543C402.122 388.97 379.575 402.884 349.831 402.884C330.64 402.884 312.411 397.125 302.814 392.808C297.538 397.606 287.942 405.281 281.225 410.081C301.856 419.675 322.965 424.953 343.113 424.953C389.17 424.953 423.232 399.525 436.185 374.097C450.098 346.27 449.137 298.294 413.157 257.515ZM169.445 325.16C169.924 339.554 181.918 351.067 196.311 351.067L197.27 351.067C212.143 350.588 223.656 338.114 223.176 323.241C222.698 308.847 210.703 297.334 196.311 297.334L195.352 297.334C194.392 297.334 192.952 297.334 191.994 297.812C172.324 265.189 164.169 229.687 167.047 191.306C168.965 162.52 178.56 137.571 195.352 116.941C209.263 99.1897 236.129 90.5539 254.361 90.0753C305.214 89.1151 326.801 152.444 328.241 177.872C334.478 179.311 345.032 182.67 352.229 185.069C346.472 107.348 298.496 67.0474 252.442 67.0474C209.263 67.0474 169.445 98.2323 153.613 144.289C131.545 205.7 145.937 264.711 172.803 311.248C170.405 314.606 168.965 319.884 169.445 325.162L169.445 325.16Z" fill="#ffffff" fill-rule="nonzero" opacity="1" stroke="none" vectornator:layerName="path"/>
</g>
</svg>
