<?xml version="1.0" encoding="UTF-8" standalone="no"?>
<!DOCTYPE svg PUBLIC "-//W3C//DTD SVG 1.1//EN" "http://www.w3.org/Graphics/SVG/1.1/DTD/svg11.dtd">
<!-- Created with Vectornator (http://vectornator.io/) -->
<svg height="100%" stroke-miterlimit="10" style="fill-rule:nonzero;clip-rule:evenodd;stroke-linecap:round;stroke-linejoin:round;" version="1.1" viewBox="0 0 512 512" width="100%" xml:space="preserve" xmlns="http://www.w3.org/2000/svg" xmlns:vectornator="http://vectornator.io" xmlns:xlink="http://www.w3.org/1999/xlink">
<defs/>
<g id="Ebene-1" vectornator:layerName="Ebene 1">
<path d="M2.84217e-14 95C2.84217e-14 42.5329 42.5329 0 95 0L417 0C469.467 0 512 42.5329 512 95L512 417C512 469.467 469.467 512 417 512L95 512C42.5329 512 2.84217e-14 469.467 2.84217e-14 417L2.84217e-14 95Z" fill="#56347c" fill-rule="nonzero" opacity="1" stroke="none" vectornator:layerName="Rechteck 1"/>
</g>
<g id="g5374" vectornator:layerName="g5374">
<path d="M33.0343 144.517L478.966 144.517L478.966 144.517L478.966 367.483L478.966 367.483L33.0343 367.483L33.0343 367.483L33.0343 144.517L33.0343 144.517Z" fill="#56347c" fill-rule="nonzero" opacity="1" stroke="none" vectornator:layerName="rect"/>
<path d="M184.594 251.024L184.594 271.938C184.594 272.578 184.166 272.746 183.639 272.31L172.966 263.474C172.44 263.038 172.011 262.168 172.011 261.528L172.011 258.895L168.676 256.183C165.099 253.275 162.234 247.37 162.234 243.049C162.234 238.728 165.118 237.602 168.676 240.535L172.011 243.247L172.011 240.614C172.011 239.974 172.44 239.806 172.966 240.242L183.639 249.078C184.167 249.513 184.594 250.384 184.594 251.024ZM168.867 244.375C166.984 242.823 165.457 243.419 165.457 245.706C165.457 247.993 166.984 251.105 168.867 252.657L172.011 255.212L172.011 246.93L168.867 244.375L168.867 244.375Z" fill="#ffffff" fill-rule="nonzero" opacity="1" stroke="none" vectornator:layerName="path"/>
<path d="M183.784 297.116C183.806 297.099 183.828 297.082 183.849 297.064C183.919 297.006 183.985 296.944 184.045 296.876C184.052 296.868 184.06 296.861 184.067 296.853C184.13 296.778 184.185 296.697 184.235 296.614C184.249 296.59 184.26 296.566 184.273 296.542C184.311 296.472 184.343 296.399 184.37 296.325C184.377 296.305 184.385 296.287 184.392 296.266C184.422 296.174 184.444 296.078 184.458 295.981C184.462 295.957 184.461 295.933 184.464 295.908C184.468 295.861 184.475 295.815 184.476 295.768L184.489 294.969L157.047 272.475L157.162 204.641L156.39 204.059C156.383 204.053 156.376 204.051 156.369 204.046C156.314 204.005 156.253 203.973 156.193 203.939C156.154 203.916 156.117 203.89 156.076 203.871C156.025 203.847 155.971 203.832 155.917 203.814C155.864 203.795 155.81 203.773 155.756 203.759C155.713 203.749 155.668 203.747 155.623 203.738C155.555 203.727 155.486 203.715 155.418 203.713C155.411 203.712 155.403 203.711 155.395 203.71C155.354 203.709 155.316 203.718 155.276 203.719C155.211 203.722 155.147 203.724 155.083 203.734C155.027 203.743 154.976 203.759 154.923 203.772C154.867 203.787 154.813 203.799 154.76 203.819C154.707 203.838 154.659 203.864 154.609 203.887C154.557 203.911 154.506 203.934 154.459 203.964C154.433 203.979 154.408 203.996 154.383 204.014C154.321 204.037 154.258 204.055 154.198 204.086L136.102 213.153L139.883 216.153L140.03 269.044L112.465 246.353L112.448 218.807L112.431 194.097C112.431 194.08 112.427 194.063 112.425 194.045C112.424 193.984 112.416 193.924 112.407 193.863C112.4 193.809 112.393 193.754 112.381 193.701C112.369 193.651 112.352 193.602 112.335 193.553C112.315 193.492 112.294 193.431 112.266 193.372C112.259 193.357 112.257 193.342 112.249 193.327C112.235 193.298 112.214 193.274 112.198 193.245C112.164 193.189 112.132 193.134 112.093 193.082C112.062 193.04 112.027 193 111.993 192.961C111.955 192.917 111.916 192.876 111.874 192.836C111.834 192.799 111.792 192.765 111.748 192.733C111.703 192.699 111.658 192.666 111.609 192.635C111.563 192.607 111.517 192.582 111.469 192.56C111.417 192.535 111.366 192.51 111.31 192.489C111.259 192.47 111.207 192.455 111.155 192.441C111.102 192.427 111.048 192.413 110.992 192.403C110.932 192.392 110.87 192.388 110.808 192.384C110.774 192.383 110.742 192.374 110.707 192.374C110.69 192.374 110.673 192.379 110.656 192.379C110.594 192.381 110.531 192.389 110.469 192.398C110.416 192.406 110.363 192.413 110.312 192.425C110.26 192.438 110.21 192.456 110.158 192.473C110.099 192.492 110.04 192.513 109.985 192.539C109.969 192.548 109.953 192.551 109.938 192.558L87.2194 203.935C87.1891 203.95 87.1636 203.972 87.1345 203.989C87.0804 204.02 87.0263 204.052 86.9763 204.089C86.9315 204.121 86.8908 204.156 86.8507 204.192C86.8082 204.23 86.7675 204.267 86.7297 204.308C86.692 204.349 86.6571 204.393 86.6239 204.437C86.5908 204.481 86.5577 204.525 86.5292 204.573C86.5013 204.619 86.4757 204.667 86.4519 204.715C86.4269 204.767 86.4031 204.818 86.3822 204.872C86.3624 204.923 86.3479 204.975 86.3334 205.027C86.3183 205.082 86.3055 205.134 86.2963 205.192C86.287 205.251 86.2818 205.311 86.2778 205.372C86.2749 205.407 86.2668 205.441 86.2674 205.477L86.302 258.593C86.3014 258.603 86.3061 258.613 86.3055 258.623C86.3061 258.648 86.3044 258.67 86.305 258.695C86.3062 258.709 86.3085 258.722 86.3097 258.736C86.3167 258.814 86.3278 258.891 86.3453 258.967C86.3488 258.983 86.3523 258.998 86.3558 259.014C86.3616 259.035 86.3686 259.054 86.3744 259.075C86.403 259.172 86.4362 259.268 86.4817 259.358C86.4823 259.36 86.4828 259.361 86.4834 259.362L86.484 259.363L86.4846 259.364C86.4852 259.365 86.4857 259.367 86.4863 259.368C86.5318 259.459 86.5888 259.543 86.6494 259.624C86.6622 259.641 86.6738 259.658 86.6866 259.675C86.6971 259.687 86.7076 259.699 86.7181 259.711C86.7682 259.771 86.8235 259.826 86.8811 259.877C86.8916 259.887 86.9015 259.898 86.9119 259.907C86.93 259.923 86.9504 259.934 86.9684 259.95C86.976 259.956 86.9818 259.965 86.9905 259.971L111.683 280.511L111.121 294.558C111.12 294.585 111.123 294.611 111.123 294.638C111.123 294.666 111.122 294.694 111.123 294.723C111.125 294.734 111.125 294.745 111.126 294.756C111.129 294.8 111.136 294.843 111.143 294.886C111.147 294.912 111.15 294.938 111.154 294.965C111.16 294.993 111.167 295.021 111.174 295.048C111.179 295.067 111.184 295.085 111.191 295.104C111.193 295.112 111.196 295.123 111.199 295.132C111.205 295.149 111.208 295.168 111.214 295.185C111.239 295.258 111.267 295.329 111.301 295.397L111.302 295.399L111.302 295.4C111.303 295.401 111.304 295.402 111.304 295.403C111.35 295.494 111.406 295.578 111.467 295.659C111.477 295.673 111.486 295.688 111.497 295.701C111.505 295.711 111.515 295.72 111.523 295.73C111.584 295.802 111.648 295.871 111.719 295.933C111.727 295.939 111.736 295.945 111.743 295.952C111.748 295.955 111.752 295.959 111.757 295.962C111.764 295.967 111.768 295.974 111.775 295.979L139.714 318.111C140.239 318.524 140.955 318.598 141.553 318.298L183.525 297.28C183.532 297.277 183.537 297.271 183.544 297.268C183.63 297.224 183.709 297.172 183.784 297.116ZM101.144 250.096L92.4445 243.374L92.448 249.152L96.879 252.23L89.5624 255.894L89.5319 206.629L100.965 200.904L101.086 213.468L92.9622 206.978L92.9657 212.756L101.129 219.243L101.256 225.455L92.8745 218.759L92.8781 224.536L101.299 231.235L101.264 237.976L93.0015 231.375L93.005 237.152L101.307 243.754L101.358 249.989L101.144 250.096ZM119.181 281.821L91.2881 258.884L110.562 249.232L138.455 272.17L119.181 281.821ZM104.549 199.109L108.399 197.181L108.816 246.254L104.966 248.182L104.549 199.109Z" fill="#ffffff" fill-rule="nonzero" opacity="1" stroke="none" vectornator:layerName="path"/>
<path d="M124.533 241.877L117.655 236.493L117.649 228.131L124.527 233.516L124.533 241.877Z" fill="#ffffff" fill-rule="nonzero" opacity="1" stroke="none" vectornator:layerName="polygon"/>
<path d="M124.527 218.523L124.532 226.883L117.653 221.5L117.649 213.138L124.527 218.523Z" fill="#ffffff" fill-rule="nonzero" opacity="1" stroke="none" vectornator:layerName="polygon"/>
<path d="M130.269 222.932C132.935 226.326 135.659 232.955 135.659 239.08C135.659 245.202 132.935 247.291 130.269 246.239C130.269 243.731 130.269 225.159 130.269 222.932Z" fill="#ffffff" fill-rule="nonzero" opacity="1" stroke="none" vectornator:layerName="path"/>
<path d="M212.129 296.301L230.212 296.301L230.212 231.791L252.082 231.791L252.082 216.641L190.26 216.641L190.26 231.791L212.129 231.791L212.129 296.301" fill="#ffffff" fill-rule="nonzero" opacity="1" stroke="none" vectornator:layerName="path"/>
<path d="M247.981 279.441C247.981 289.704 254.945 297.767 265.941 297.767C272.783 297.767 278.526 294.591 283.657 290.07L284.024 290.07L285.368 296.301L300.029 296.301L300.029 261.603C300.029 243.032 291.477 234.235 275.96 234.235C266.43 234.235 257.756 237.534 250.058 242.176L256.412 254.028C262.276 250.607 267.408 248.53 272.539 248.53C279.014 248.53 281.702 251.951 282.069 257.326C258.122 259.77 247.981 266.734 247.981 279.441M265.086 278.097C265.086 273.454 269.24 269.789 282.069 268.078L282.069 278.708C278.892 281.884 276.204 283.839 272.05 283.839C267.774 283.839 265.086 282.006 265.086 278.097" fill="#ffffff" fill-rule="nonzero" opacity="1" stroke="none" vectornator:layerName="path"/>
<path d="M322.858 226.782C328.967 226.782 333.243 222.872 333.243 217.374C333.243 211.876 328.967 208.089 322.858 208.089C316.872 208.089 312.473 211.876 312.473 217.374C312.473 222.872 316.872 226.782 322.858 226.782M313.939 296.301L331.9 296.301L331.9 235.701L313.939 235.701L313.939 296.301" fill="#ffffff" fill-rule="nonzero" opacity="1" stroke="none" vectornator:layerName="path"/>
<path d="M347.586 277.486C347.586 289.704 351.74 297.767 364.08 297.767C368.112 297.767 371.166 297.156 373.121 296.301L370.922 282.984C369.945 283.228 369.456 283.228 368.723 283.228C367.257 283.228 365.546 282.006 365.546 278.219L365.546 210.654L347.586 210.654L347.586 277.486" fill="#ffffff" fill-rule="nonzero" opacity="1" stroke="none" vectornator:layerName="path"/>
<path d="M377.05 289.337C383.159 294.346 392.322 297.767 400.264 297.767C416.513 297.767 425.188 289.215 425.188 278.219C425.188 267.101 416.513 262.824 408.816 260.014C402.585 257.693 396.965 256.227 396.965 252.317C396.965 249.263 399.164 247.552 403.807 247.552C408.083 247.552 412.237 249.507 416.636 252.684L424.699 241.932C419.446 238.022 412.604 234.235 403.318 234.235C389.268 234.235 380.104 241.932 380.104 253.172C380.104 263.191 388.779 268.2 396.11 271.01C402.341 273.454 408.45 275.287 408.45 279.318C408.45 282.495 406.128 284.45 400.752 284.45C395.621 284.45 390.612 282.251 385.114 278.097L377.05 289.337" fill="#ffffff" fill-rule="nonzero" opacity="1" stroke="none" vectornator:layerName="path"/>
</g>
</svg>
