<?xml version="1.0" encoding="UTF-8" standalone="no"?>
<!DOCTYPE svg PUBLIC "-//W3C//DTD SVG 1.1//EN" "http://www.w3.org/Graphics/SVG/1.1/DTD/svg11.dtd">
<!-- Created with Vectornator (http://vectornator.io/) -->
<svg height="100%" stroke-miterlimit="10" style="fill-rule:nonzero;clip-rule:evenodd;stroke-linecap:round;stroke-linejoin:round;" version="1.1" viewBox="0 0 512 512" width="100%" xml:space="preserve" xmlns="http://www.w3.org/2000/svg" xmlns:vectornator="http://vectornator.io" xmlns:xlink="http://www.w3.org/1999/xlink">
<defs>
<linearGradient gradientTransform="matrix(0.157033 0 0 -0.157033 81 419.105)" gradientUnits="userSpaceOnUse" id="LinearGradient" x1="198.099" x2="942.234" y1="1683.07" y2="394.261">
<stop offset="0" stop-color="#5a62c3"/>
<stop offset="0.5" stop-color="#4d55bd"/>
<stop offset="1" stop-color="#3940ab"/>
</linearGradient>
</defs>
<g id="Ebene-1" vectornator:layerName="Ebene 1">
<path d="M2.84217e-14 95C2.84217e-14 42.5329 42.5329 0 95 0L417 0C469.467 0 512 42.5329 512 95L512 417C512 469.467 469.467 512 417 512L95 512C42.5329 512 2.84217e-14 469.467 2.84217e-14 417L2.84217e-14 95Z" fill="#242628" fill-rule="nonzero" opacity="1" stroke="none" vectornator:layerName="Rechteck 1"/>
</g>
<g id="Ebene-2" vectornator:layerName="Ebene 2">
<g opacity="1" vectornator:layerName="Microsoft_Office_Teams_(2018–present).svg">
<path d="M325.129 215.302L415.535 215.302C424.076 215.302 431 222.226 431 230.767L431 230.767L431 313.115C431 344.506 405.553 369.953 374.162 369.953L374.162 369.953L373.893 369.953C342.502 369.958 317.051 344.514 317.046 313.123C317.046 313.12 317.046 313.118 317.046 313.115L317.046 223.385C317.047 218.921 320.665 215.302 325.129 215.302L325.129 215.302Z" fill="#5059c9" fill-rule="nonzero" opacity="1" stroke="none" vectornator:layerName="path"/>
<path d="M349.605 162.395C349.605 142.166 366.004 125.767 386.233 125.767C406.462 125.767 422.861 142.166 422.861 162.395C422.861 182.624 406.462 199.023 386.233 199.023C366.004 199.023 349.605 182.624 349.605 162.395Z" fill="#5059c9" fill-rule="nonzero" opacity="1" stroke="none" vectornator:layerName="circle"/>
<path d="M219.372 146.116C219.372 116.897 243.059 93.2092 272.279 93.2092C301.499 93.2092 325.186 116.897 325.186 146.116C325.186 175.336 301.499 199.023 272.279 199.023C243.059 199.023 219.372 175.336 219.372 146.116Z" fill="#7b83eb" fill-rule="nonzero" opacity="1" stroke="none" vectornator:layerName="circle"/>
<path d="M342.824 215.302L193.594 215.302C185.155 215.511 178.479 222.515 178.674 230.955L178.674 324.877C177.496 375.523 217.565 417.551 268.209 418.791C318.854 417.551 358.923 375.523 357.744 324.877L357.744 230.955C357.94 222.515 351.264 215.511 342.824 215.302Z" fill="#7b83eb" fill-rule="nonzero" opacity="1" stroke="none" vectornator:layerName="path"/>
<path d="M276.349 215.302L276.349 346.919C276.308 352.954 272.651 358.376 267.07 360.674C265.293 361.426 263.383 361.813 261.454 361.814L185.837 361.814C184.779 359.128 183.802 356.442 182.988 353.674C180.139 344.335 178.685 334.625 178.674 324.86L178.674 230.93C178.479 222.504 185.144 215.511 193.57 215.302L276.349 215.302Z" fill="#000000" fill-rule="nonzero" opacity="0.1" stroke="none" vectornator:layerName="path"/>
<path d="M268.209 215.302L268.209 355.058C268.209 356.988 267.822 358.897 267.07 360.674C264.772 366.255 259.35 369.913 253.314 369.953L189.663 369.953C188.279 367.267 186.977 364.581 185.837 361.814C184.698 359.047 183.802 356.442 182.988 353.674C180.139 344.335 178.685 334.625 178.674 324.86L178.674 230.93C178.479 222.504 185.144 215.511 193.57 215.302L268.209 215.302Z" fill="#000000" fill-rule="nonzero" opacity="0.2" stroke="none" vectornator:layerName="path"/>
<path d="M268.209 215.302L268.209 338.779C268.147 346.98 261.515 353.612 253.314 353.674L182.988 353.674C180.139 344.335 178.685 334.625 178.674 324.86L178.674 230.93C178.479 222.504 185.144 215.511 193.57 215.302L268.209 215.302Z" fill="#000000" fill-rule="nonzero" opacity="0.2" stroke="none" vectornator:layerName="path"/>
<path d="M260.07 215.302L260.07 338.779C260.008 346.98 253.375 353.612 245.174 353.674L182.988 353.674C180.139 344.335 178.685 334.625 178.674 324.86L178.674 230.93C178.479 222.504 185.144 215.511 193.57 215.302L260.07 215.302Z" fill="#000000" fill-rule="nonzero" opacity="0.2" stroke="none" vectornator:layerName="path"/>
<path d="M276.349 173.221L276.349 198.86C274.965 198.942 273.663 199.023 272.279 199.023C270.895 199.023 269.593 198.942 268.209 198.86C265.462 198.678 262.737 198.242 260.07 197.558C243.587 193.655 229.97 182.095 223.442 166.465C222.319 163.84 221.447 161.115 220.837 158.326L261.453 158.326C269.667 158.357 276.318 165.007 276.349 173.221Z" fill="#000000" fill-rule="nonzero" opacity="0.1" stroke="none" vectornator:layerName="path"/>
<path d="M268.209 181.36L268.209 198.86C265.462 198.678 262.737 198.242 260.07 197.558C243.587 193.655 229.97 182.095 223.442 166.465L253.314 166.465C261.527 166.496 268.178 173.147 268.209 181.36Z" fill="#000000" fill-rule="nonzero" opacity="0.2" stroke="none" vectornator:layerName="path"/>
<path d="M268.209 181.36L268.209 198.86C265.462 198.678 262.737 198.242 260.07 197.558C243.587 193.655 229.97 182.095 223.442 166.465L253.314 166.465C261.527 166.496 268.178 173.147 268.209 181.36Z" fill="#000000" fill-rule="nonzero" opacity="0.2" stroke="none" vectornator:layerName="path"/>
<path d="M260.07 181.36L260.07 197.558C243.587 193.655 229.97 182.095 223.442 166.465L245.174 166.465C253.388 166.496 260.038 173.147 260.07 181.36Z" fill="#000000" fill-rule="nonzero" opacity="0.2" stroke="none" vectornator:layerName="path"/>
<path d="M95.9197 166.465L245.15 166.465C253.39 166.465 260.07 173.145 260.07 181.385L260.07 330.615C260.07 338.855 253.39 345.535 245.15 345.535L95.9197 345.535C87.6797 345.535 81 338.855 81 330.615L81 181.385C81 173.145 87.6799 166.465 95.9197 166.465Z" fill="url(#LinearGradient)" fill-rule="nonzero" opacity="1" stroke="none" vectornator:layerName="path"/>
<path d="M209.8 223.263L179.969 223.263L179.969 304.495L160.963 304.495L160.963 223.263L131.27 223.263L131.27 207.505L209.8 207.505L209.8 223.263Z" fill="#ffffff" fill-rule="nonzero" opacity="1" stroke="none" vectornator:layerName="path"/>
</g>
</g>
</svg>
