<?xml version="1.0" encoding="UTF-8" standalone="no"?>
<!DOCTYPE svg PUBLIC "-//W3C//DTD SVG 1.1//EN" "http://www.w3.org/Graphics/SVG/1.1/DTD/svg11.dtd">
<!-- Created with Vectornator (http://vectornator.io/) -->
<svg height="100%" stroke-miterlimit="10" style="fill-rule:nonzero;clip-rule:evenodd;stroke-linecap:round;stroke-linejoin:round;" version="1.1" viewBox="0 0 512 512" width="100%" xml:space="preserve" xmlns="http://www.w3.org/2000/svg" xmlns:vectornator="http://vectornator.io" xmlns:xlink="http://www.w3.org/1999/xlink">
<defs/>
<g id="Ebene-1" vectornator:layerName="Ebene 1">
<path d="M0 95C0 42.5329 42.5329 0 95 0L417 0C469.467 0 512 42.5329 512 95L512 417C512 469.467 469.467 512 417 512L95 512C42.5329 512 0 469.467 0 417L0 95Z" fill="#017acb" fill-rule="nonzero" opacity="1" stroke="none" vectornator:layerName="Rechteck 1"/>
<g opacity="1" vectornator:layerName="typescript-2.svg">
<path d="M388.125 259.688C375.438 260.125 362.188 264.75 353.688 271.75C350.874 274.062 349.438 275.5 345.438 280.188C343.499 282.375 339.25 291.062 337.938 295.562C336.999 298.563 336.812 301.437 336.875 310.25C336.938 322.812 337.5 325.562 341.875 334C345.25 340.562 346.311 342 351.688 347.25C358.938 354.312 367.875 359.562 387.75 368.375C407 376.875 411.75 379.875 415.25 385.625C416.5 387.688 416.75 388.937 416.75 393.438C416.812 398.312 416.625 399.001 415 401.562C412.625 405.188 410.626 407.001 406.688 408.812C403.001 410.501 396.125 412.125 392.375 412.125C388.312 412.125 379.876 410.312 376.062 408.688C369.876 405.938 361.125 397.876 357.375 391.562C356.75 390.501 355.938 389.625 355.5 389.625C355.062 389.625 351.188 391.688 346.938 394.25C342.688 396.812 337.812 399.688 336.125 400.562C334.438 401.438 331.939 402.938 330.562 403.75C329.189 404.563 327.5 405.625 326.688 406C325.874 406.375 325.25 406.937 325.25 407.188C325.25 408.062 329.561 415.062 332.188 418.438C341.438 430.374 355.001 438.812 371.812 443.125C378.313 444.812 379.375 444.812 392.75 444.875C406.125 444.938 407.126 444.875 413.062 443.25C426.688 439.562 434.875 435.062 442.5 427C451.875 417.125 456.188 403.188 454.688 387.938C452.624 367.688 444.688 355.938 425.188 344.5C420.999 342 404.938 334 404.188 334C403.688 334 397.062 330.875 389.312 327.062C377.313 321.126 374.063 317.125 374 308.625C374 302.812 376 298.625 380.125 295.875C384.063 293.25 387.187 292.562 393.062 292.938C401.312 293.437 404.75 295.626 413.25 305.812C414.625 307.438 415.312 307.812 416.312 307.5C417.938 307 442.875 290.375 443.5 289.438C444.438 287.874 434.876 276.125 428.562 271.125C420.188 264.438 411.5 261.312 398.75 260.25C394.312 259.937 389.562 259.688 388.125 259.688Z" fill="#017acb" fill-rule="nonzero" opacity="1" stroke="none"/>
<path d="M190.438 261.938L174 262.125L174 295.25L225.875 295.25L225.875 442.562L230.125 442.938C235.438 443.499 260.125 443.5 262 443L263.375 442.625L263.375 295.25L315.25 295.25L315.25 262.125L296.062 262.125C285.438 262.125 261.063 262.061 241.812 261.938C222.563 261.812 199.438 261.811 190.438 261.938Z" fill="#017acb" fill-rule="nonzero" opacity="1" stroke="none"/>
<path d="M296.062 262.125L315.25 262.125L315.25 295.25L263.375 295.25L263.375 442.625L262 443C260.125 443.5 235.438 443.5 230.125 442.938L225.875 442.562L225.875 295.25L174 295.25L174 262.125L190.438 261.938C199.438 261.812 222.562 261.812 241.812 261.938C261.062 262.062 285.438 262.125 296.062 262.125ZM442.5 427C434.875 435.062 426.688 439.562 413.062 443.25C407.125 444.875 406.125 444.938 392.75 444.875C379.375 444.812 378.312 444.812 371.812 443.125C355 438.812 341.438 430.375 332.188 418.438C329.562 415.062 325.25 408.062 325.25 407.188C325.25 406.938 325.875 406.375 326.688 406C327.5 405.625 329.188 404.563 330.562 403.75C331.938 402.938 334.438 401.438 336.125 400.562C337.812 399.688 342.688 396.812 346.938 394.25C351.188 391.688 355.062 389.625 355.5 389.625C355.938 389.625 356.75 390.5 357.375 391.562C361.125 397.875 369.875 405.938 376.062 408.688C379.875 410.312 388.312 412.125 392.375 412.125C396.125 412.125 403 410.5 406.687 408.812C410.625 407 412.625 405.188 415 401.562C416.625 399 416.812 398.312 416.75 393.438C416.75 388.938 416.5 387.688 415.25 385.625C411.75 379.875 407 376.875 387.75 368.375C367.875 359.562 358.938 354.312 351.688 347.25C346.312 342 345.25 340.562 341.875 334C337.5 325.562 336.938 322.812 336.875 310.25C336.812 301.437 337 298.562 337.938 295.562C339.25 291.062 343.5 282.375 345.438 280.187C349.438 275.5 350.875 274.062 353.688 271.75C362.188 264.75 375.438 260.125 388.125 259.687C389.562 259.687 394.312 259.937 398.75 260.25C411.5 261.312 420.188 264.438 428.562 271.125C434.875 276.125 444.438 287.875 443.5 289.438C442.875 290.375 417.938 307 416.312 307.5C415.312 307.812 414.625 307.437 413.25 305.812C404.75 295.625 401.312 293.437 393.063 292.937C387.188 292.562 384.063 293.25 380.125 295.875C376 298.625 374 302.812 374 308.625C374.063 317.125 377.313 321.125 389.313 327.062C397.062 330.875 403.688 334 404.188 334C404.938 334 421 342 425.188 344.5C444.688 355.938 452.625 367.688 454.688 387.937C456.188 403.187 451.875 417.125 442.5 427Z" fill="#ffffff" fill-rule="nonzero" opacity="1" stroke="none" vectornator:layerName="path"/>
</g>
</g>
</svg>
