<?xml version="1.0" encoding="UTF-8" standalone="no"?>
<!DOCTYPE svg PUBLIC "-//W3C//DTD SVG 1.1//EN" "http://www.w3.org/Graphics/SVG/1.1/DTD/svg11.dtd">
<!-- Created with Vectornator (http://vectornator.io/) -->
<svg height="100%" stroke-miterlimit="10" style="fill-rule:nonzero;clip-rule:evenodd;stroke-linecap:round;stroke-linejoin:round;" version="1.1" viewBox="0 0 512 512" width="100%" xml:space="preserve" xmlns="http://www.w3.org/2000/svg" xmlns:vectornator="http://vectornator.io" xmlns:xlink="http://www.w3.org/1999/xlink">
<defs/>
<g id="Ebene-1" vectornator:layerName="Ebene 1">
<path d="M2.84217e-14 95C2.84217e-14 42.5329 42.5329 0 95 0L417 0C469.467 0 512 42.5329 512 95L512 417C512 469.467 469.467 512 417 512L95 512C42.5329 512 2.84217e-14 469.467 2.84217e-14 417L2.84217e-14 95Z" fill="#2489ca" fill-rule="nonzero" opacity="1" stroke="none" vectornator:layerName="Rechteck 1"/>
</g>
<g id="Ebene-2" vectornator:layerName="Ebene 2">
<g opacity="1" vectornator:layerName="visual-studio-code-1.svg">
<path d="M71.0868 199.576C71.0868 199.576 61.9045 192.957 72.9233 184.119L98.5955 161.163C98.5955 161.163 105.941 153.435 113.708 160.168L350.612 339.53L350.612 425.537C350.612 425.537 350.497 439.043 333.166 437.551L71.0868 199.576Z" fill="#e3e3e3" fill-rule="nonzero" opacity="1" stroke="none" vectornator:layerName="path"/>
<path d="M132.149 255.014L71.0868 310.529C71.0868 310.529 64.8123 315.196 71.0868 323.537L99.4373 349.324C99.4373 349.324 106.171 356.555 116.118 348.329L180.854 299.242L132.149 255.014Z" fill="#e3e3e3" fill-rule="nonzero" opacity="1" stroke="none" vectornator:layerName="path"/>
<path d="M239.353 255.473L351.339 169.963L350.612 84.4141C350.612 84.4141 345.829 65.7434 329.875 75.4613L180.854 211.092L239.353 255.473Z" fill="#e3e3e3" fill-rule="nonzero" opacity="1" stroke="none" vectornator:layerName="path"/>
<path d="M333.166 437.666C339.67 444.323 347.551 442.142 347.551 442.142L434.821 399.138C445.993 391.524 444.425 382.074 444.425 382.074L444.425 125.275C444.425 113.989 432.87 110.086 432.87 110.086L357.231 73.6249C340.703 63.4095 329.875 75.4613 329.875 75.4613C329.875 75.4613 343.802 65.4373 350.612 84.4141L350.612 423.969C350.612 426.302 350.115 428.598 349.12 430.664C347.13 434.681 342.807 438.431 332.439 436.862L333.166 437.666Z" fill="#e3e3e3" fill-rule="nonzero" opacity="1" stroke="none" vectornator:layerName="path"/>
</g>
</g>
</svg>
