<?xml version="1.0" encoding="UTF-8"?><svg id="a" xmlns="http://www.w3.org/2000/svg" viewBox="0 0 128 128"><defs><style>.b{fill:#fff;}.c{fill:#222;}</style></defs><rect class="c" x="0" y="0" width="128" height="128" rx="25" ry="25" transform="translate(128 0) rotate(90)"/><path class="b" d="m52.41,24.16c.84,0,1.5.47,1.86,1.24.25.54.36,1.22.37,2.08v.06s0,61.54,0,61.54c0,1.14-.12,2.03-.39,2.7-.36.93-1.05,1.53-2,1.55h-7.14c-.96,0-1.65-.62-2.01-1.57-.25-.67-.36-1.55-.37-2.69v-51.45s-1.91.48-1.91.48l-.76.19-.22.05-.11.03h-.05s-.02.01-.02.01h-.01s0,0,0,0h0s0,0,0,0h0s0,0,0,0h0s.01-.01.01-.01c0,0,0,0,0-.01h0s-.02,0-.02,0c-.81.03-1.48-.4-1.84-1.14-.26-.53-.37-1.2-.38-2.05v-.06s0-4.46,0-4.46c0-.8.13-1.47.42-2.02.33-.62.86-1.05,1.53-1.23h.04s.05-.02.05-.02l12.28-3.16c.17-.04.37-.07.58-.07h.06s.05,0,.05,0Zm20.51-1.81c.88,0,1.58.49,1.97,1.31.28.59.4,1.34.41,2.3v.07s0,18.09,0,18.09v.04h5.28c.83,0,1.51.43,1.91,1.16l.02.03.02.04c.29.57.42,1.29.42,2.2v.06s0,2.51,0,2.51c0,.92-.13,1.66-.43,2.23-.39.75-1.07,1.19-1.91,1.2h-.04s-5.29,0-5.29,0v23.9s0,.19,0,.19v.18s0,.18,0,.18v.09s0,.22,0,.22h0v.22s.02.21.02.21h0v.21s.01.08.01.08v.16s.02.16.02.16v.16s.02.16.02.16v.08s.02.15.02.15v.07h0v.07s.02.15.02.15c0,.05.01.1.02.14v.07s.02.14.02.14c.04.29.08.57.12.82l.02.09v.06s.03.11.03.11c0,.04.02.07.02.11v.05s.04.11.04.11l.02.1v.05s.04.1.04.1c.03.13.07.25.1.36l.03.1c.15.45.32.79.49,1.01.33.4.62.65.84.75l.07.03c.26.1.63.16,1.1.17h.05s3.3,0,3.3,0c.79,0,1.47.31,1.92.93.37.51.53,1.16.54,1.94v.05s0,2.79,0,2.79c0,.86-.17,1.57-.56,2.13-.45.64-1.15.98-1.95.99h-.04s-4.73,0-4.73,0c-1.31,0-2.46-.09-3.45-.28-1.07-.2-2.15-.64-3.26-1.32-1.16-.71-2.11-1.67-2.85-2.89-.72-1.18-1.28-2.78-1.7-4.8-.41-1.96-.62-4.25-.63-6.85v-.14s0-23.57,0-23.57h-2.18c-.82,0-1.5-.42-1.91-1.14l-.02-.03-.02-.03c-.29-.56-.42-1.28-.43-2.17v-2.58c0-.93.13-1.68.42-2.26.39-.76,1.07-1.21,1.91-1.23h.04s2.18,0,2.18,0v-.07s.84-18.11.84-18.11v-.08c.06-.94.22-1.67.49-2.24.38-.79,1.04-1.28,1.88-1.29h4.69Zm39.07,21.78c.78,0,1.39.46,1.7,1.18.21.48.3,1.09.3,1.85,0,.03,0,.06,0,.08v.04s0,.09,0,.09v.05s0,.09,0,.09v.05s-.01.1-.01.1c0,.08-.01.16-.02.25v.07s-.02.11-.02.11v.12s-.03.12-.03.12v.09s-8.3,43.13-8.3,43.13l-.02.11-.04.22-.04.22-.06.33-.04.22-.06.32-.04.21-.04.21-.04.21-.04.21-.04.2-.07.3-.04.2-.04.2-.04.19-.04.19-.04.19-.04.19-.05.19-.05.18-.05.18-.05.18-.05.18-.05.17-.05.17-.05.17-.05.17-.05.17-.05.16-.05.16-.05.16-.05.16-.05.16-.05.15-.05.15-.05.15-.05.15-.02.07-.05.14-.02.07h0l-.02.07-.06.17h0l-.06.17-.03.07-.05.13-.05.13c-.02.06-.05.11-.07.17l-.06.15-.06.15c-.11.26-.22.51-.33.74l-.05.1-.06.13-.07.13c-.72,1.43-1.53,2.47-2.45,3.13-1.15.82-2.63,1.24-4.41,1.29h-.08s-.49,0-.49,0c-2.79,0-4.83-.77-6.01-2.39l-.04-.05-.03-.04-.02-.02c-.34-.43-.5-1.01-.57-1.83v-.05s-.01-.1-.01-.1v-.05h0v-.05s0-.11,0-.11v-.06h0v-.06s0-.14,0-.14h0v-.15s0-.06,0-.06v-.12s0-.14,0-.14v-.07s0-.15,0-.15v-.07h0v-.07s0-.14,0-.14v-.07h0v-.07s0-.14,0-.14v-.13s.01-.13.01-.13c0-.04,0-.09,0-.13v-.06s.02-.12.02-.12v-.12c.07-.54.15-1,.28-1.39.33-1.01.97-1.68,1.95-1.7h.04s.04,0,.04,0h.03s.03,0,.03,0h.03s.05,0,.05,0h.05s.07.02.07.02h.06s.06.03.06.03l.11.03.15.04.2.05.21.06.28.08.66.19.19.06.17.05.16.05.15.04.14.04.1.03.1.03.12.03.11.03.08.02.07.02h.07s.08.03.08.03h.05s.04.02.04.02h.03s.02,0,.02,0h.02s0,0,0,0h.02s.02,0,.03,0c.03-.01.08-.05.14-.1.18-.17.38-.48.59-.92.26-.57.45-1.3.56-2.2v-.08s.03-.13.03-.13v-.14s.02-.07.02-.07h0v-.07s.02-.14.02-.14c.04-.47.06-.97.06-1.51v-.12s0-.04,0-.04v-.03s0-.05,0-.05v-.08s-.02-.09-.02-.09v-.1s-.02-.06-.02-.06l-.02-.12-.02-.13-.03-.18-.03-.2-.04-.22-.04-.24-.06-.31-.06-.34-.08-.43-.11-.53-.1-.5-.13-.61-.13-.64-9.13-37.93-.02-.11v-.11s-.03-.1-.03-.1v-.1s-.03-.12-.03-.12h0v-.12s-.02-.04-.02-.04v-.09s-.01-.08-.01-.08v-.04s0-.08,0-.08v-.08s0-.04,0-.04v-.07s0-.04,0-.04h0v-.1c0-.67.08-1.22.27-1.66.29-.69.85-1.15,1.6-1.16h.04s5.63,0,5.63,0c.75,0,1.42.28,1.94.81.47.49.76,1.23.94,2.26v.06s.03.1.03.1l4.95,26.21,3.87-26.03v-.05c.15-1.04.38-1.82.78-2.35l.02-.03.02-.03c.48-.6,1.15-.94,1.91-.95h3.94ZM29.02,24.24c.84,0,1.5.47,1.86,1.24.25.54.36,1.22.37,2.08v.06s0,61.47,0,61.47c0,1.18-.12,2.09-.39,2.78-.36.93-1.05,1.53-2,1.55h-7.15c-.96,0-1.65-.61-2.01-1.56-.25-.67-.36-1.55-.37-2.69v-51.45s-1.37.35-1.37.35l-1.08.27-.26.06-.11.03-.09.02h-.05s-.04.01-.04.01h-.05c-.84.06-1.54-.37-1.92-1.13-.26-.53-.37-1.2-.38-2.05v-.06s0-4.46,0-4.46c0-.8.13-1.47.42-2.02.33-.62.86-1.05,1.53-1.23h.04s.05-.02.05-.02l12.29-3.17c.17-.04.37-.07.58-.07h.06s.05,0,.05,0Z"/></svg>