<?xml version="1.0" encoding="UTF-8" standalone="no"?>
<!DOCTYPE svg PUBLIC "-//W3C//DTD SVG 1.1//EN" "http://www.w3.org/Graphics/SVG/1.1/DTD/svg11.dtd">
<!-- Created with Vectornator (http://vectornator.io/) -->
<svg height="100%" stroke-miterlimit="10" style="fill-rule:nonzero;clip-rule:evenodd;stroke-linecap:round;stroke-linejoin:round;" version="1.1" viewBox="0 0 512 512" width="100%" xml:space="preserve" xmlns="http://www.w3.org/2000/svg" xmlns:vectornator="http://vectornator.io" xmlns:xlink="http://www.w3.org/1999/xlink">
<defs>
<linearGradient gradientTransform="matrix(1 0 0 1 0 0)" gradientUnits="userSpaceOnUse" id="LinearGradient" x1="255.552" x2="256.935" y1="-0.297185" y2="511.897">
<stop offset="0" stop-color="#3897f1"/>
<stop offset="1" stop-color="#1b2c89"/>
</linearGradient>
</defs>
<g id="Ebene-1" vectornator:layerName="Ebene 1">
<path d="M2.84217e-14 95C2.84217e-14 42.5329 42.5329 0 95 0L417 0C469.467 0 512 42.5329 512 95L512 417C512 469.467 469.467 512 417 512L95 512C42.5329 512 2.84217e-14 469.467 2.84217e-14 417L2.84217e-14 95Z" fill="url(#LinearGradient)" fill-rule="nonzero" opacity="1" stroke="none" vectornator:layerName="Rechteck 1"/>
<path d="M434.187 253.419C436.496 250.956 439.919 249.65 443.269 249.65C453.473 249.65 456 256.575 456 265.424L456 285.89C456 286.431 455.628 286.811 455.107 286.811L448.703 286.811C448.185 286.811 447.736 286.431 447.736 285.89L447.736 266.273C447.736 260.965 447.064 257.347 441.332 257.347C434.115 257.347 434.115 264.267 434.115 270.198L434.115 285.89C434.115 286.431 433.666 286.811 433.148 286.811L426.744 286.811C426.221 286.811 425.777 286.431 425.777 285.89L425.777 251.572C425.777 251.187 426.221 250.725 426.744 250.725L433.148 250.725C433.666 250.725 434.115 251.187 434.115 251.572C434.115 251.572 434.187 253.419 434.187 253.419ZM421.233 267.653C421.233 278.503 413.043 286.811 402.545 286.811C392.123 286.811 383.857 278.503 383.857 267.653C383.857 256.88 392.126 248.493 402.545 248.493C413.041 248.493 421.233 256.88 421.233 267.653M392.195 267.653C392.195 273.652 396.81 278.732 402.542 278.732C408.425 278.732 413.041 273.652 413.041 267.653C413.041 261.65 408.425 256.649 402.542 256.649C396.81 256.649 392.195 261.652 392.195 267.653M371.716 270.116C371.716 273.041 371.495 277.888 374.843 278.66C376.706 278.891 377.825 278.429 378.941 277.965C378.941 277.965 379.315 277.811 379.533 277.811C380.054 277.811 380.501 278.193 380.501 278.657L380.501 285.197C380.501 285.431 380.206 285.892 379.834 285.967L379.905 285.967C378.346 286.662 376.255 286.811 374.615 286.811C365.681 286.811 363.444 280.351 363.444 272.428C363.444 272.428 363.449 258.573 363.449 258.573L357.494 258.573C356.974 258.573 356.527 258.342 356.527 257.801L356.527 251.572C356.527 251.187 356.974 250.725 357.494 250.725L358.831 250.725C363.449 250.725 363.449 247.259 363.449 245.414L363.449 241.491C363.449 240.952 363.898 240.645 364.422 240.645L370.818 240.645C371.341 240.645 371.716 240.952 371.716 241.491L371.716 250.728L379.533 250.728C380.054 250.728 380.501 251.189 380.501 251.574L380.501 257.804C380.501 258.345 380.054 258.576 379.533 258.576L371.716 258.576L371.716 270.116M328.985 270.575C329.36 275.655 332.857 279.193 337.996 279.193C342.465 279.193 344.469 276.733 346.783 272.885C347.081 272.5 347.453 272.348 347.973 272.654L353.407 275.807C353.782 276.117 354.082 276.502 353.856 276.964L353.856 276.884C350.58 283.198 344.771 286.811 337.921 286.811C327.279 286.811 320.724 278.503 320.724 267.884C320.724 256.88 326.532 248.495 337.775 248.495C349.018 248.495 354.377 257.958 354.377 268.649L354.377 269.731C354.377 270.268 353.931 270.573 353.41 270.573L328.985 270.573L328.985 270.575ZM345.89 263.345C344.846 259.423 342.013 256.036 337.772 256.036C333.826 256.036 330.627 259.574 329.583 263.345L345.89 263.345ZM315.382 285.887C315.385 286.387 314.986 286.797 314.487 286.808L308.083 286.808C307.564 286.808 307.113 286.429 307.113 285.887L307.113 227.18C307.113 226.795 307.564 226.333 308.083 226.333L314.487 226.333C314.936 226.333 315.382 226.795 315.382 227.18L315.382 285.887ZM266.573 226.023C266.573 225.641 267.019 225.179 267.54 225.179L274.019 225.179C274.539 225.179 274.981 225.641 274.981 226.023L274.981 253.419C277.741 250.34 281.313 248.493 285.628 248.493C295.832 248.493 302.156 257.419 302.156 267.422C302.156 277.736 296.199 286.816 285.325 286.816C281.382 286.816 277.58 284.812 274.901 281.964L274.901 284.735C274.901 285.271 274.455 285.656 273.936 285.656L267.533 285.656C267.012 285.656 266.565 285.271 266.565 284.735L266.573 226.023ZM293.972 267.579C293.972 261.424 290.395 256.192 284.068 256.192C278.116 256.192 274.542 261.732 274.542 267.579C274.542 273.582 277.965 279.193 284.068 279.193C290.472 279.196 293.972 273.888 293.972 267.579M223.465 272.656L217.508 286.198C217.359 286.429 216.838 286.813 216.615 286.813L209.315 286.813C208.574 286.813 208.202 286.198 208.423 285.505L234.408 226.949C234.854 226.254 235.821 226.254 236.193 226.949C244.609 245.955 253.765 266.504 262.178 285.51C262.401 286.205 262.027 286.821 261.285 286.821L253.981 286.821C253.683 286.821 253.237 286.436 253.088 286.205C251.225 281.816 249.068 277.126 247.133 272.661C247.133 272.661 223.465 272.656 223.465 272.656ZM235.3 245.032L226.89 264.495L243.716 264.495L235.3 245.032ZM64.3332 285.887C64.332 286.388 63.9312 286.797 63.4301 286.808L56.9775 286.808C56.4516 286.808 56 286.423 56 285.887L56 226.993C56 226.608 56.4516 226.146 56.9775 226.146L63.4327 226.146C63.8842 226.146 64.3358 226.608 64.3358 226.993L64.3332 285.887ZM81.2229 285.887C81.2216 286.388 80.8209 286.797 80.3198 286.808L73.8672 286.808C73.3412 286.808 72.8922 286.423 72.8922 285.887L72.8922 226.993C72.8922 226.608 73.3412 226.146 73.8672 226.146L80.3223 226.146C80.7739 226.146 81.2255 226.608 81.2255 226.993L81.2229 285.887ZM98.1126 285.887C98.1113 286.388 97.7105 286.797 97.2094 286.808L90.7543 286.808C90.2283 286.808 89.7793 286.423 89.7793 285.887L89.7793 226.993C89.7793 226.608 90.2283 226.146 90.7543 226.146L97.2094 226.146C97.6636 226.146 98.1126 226.608 98.1126 226.993L98.1126 285.887ZM115.077 285.887C115.075 286.387 114.676 286.796 114.176 286.808L107.721 286.808C107.195 286.808 106.743 286.423 106.743 285.887L106.743 226.993C106.743 226.608 107.195 226.146 107.721 226.146L114.176 226.146C114.625 226.146 115.077 226.608 115.077 226.993L115.077 285.887ZM181.509 226.067C182.032 226.067 182.41 226.534 182.41 226.993L182.41 233.633C182.41 234.174 182.035 234.636 181.509 234.636L124.233 234.636C123.859 234.636 123.41 234.174 123.41 233.633L123.41 226.993C123.41 226.531 123.861 226.067 124.233 226.067L181.509 226.067ZM181.509 243.513C182.032 243.513 182.41 243.977 182.41 244.439L182.41 251.077C182.41 251.615 182.035 252.08 181.509 252.08L124.233 252.08C123.859 252.08 123.41 251.615 123.41 251.077L123.41 244.439C123.41 243.975 123.861 243.513 124.233 243.513L181.509 243.513ZM181.509 260.877C182.032 260.877 182.41 261.342 182.41 261.803L182.41 268.438C182.41 268.985 182.035 269.449 181.509 269.449L124.233 269.449C123.859 269.449 123.41 268.985 123.41 268.438L123.41 261.803C123.41 261.337 123.861 260.877 124.233 260.877L181.509 260.877ZM181.509 278.242C182.032 278.242 182.41 278.709 182.41 279.168L182.41 285.808C182.41 286.349 182.035 286.811 181.509 286.811L124.233 286.811C123.859 286.811 123.41 286.349 123.41 285.808L123.41 279.168C123.41 278.706 123.861 278.242 124.233 278.242L181.509 278.242Z" fill="#ffffff" fill-rule="nonzero" opacity="1" stroke="none" vectornator:layerName="path"/>
</g>
</svg>
