<?xml version="1.0" encoding="UTF-8"?>
<svg id="Ebene_1" data-name="Ebene 1" xmlns="http://www.w3.org/2000/svg" viewBox="0 0 256 256">
  <defs>
    <style>
      .cls-1 {
        fill: #4ba956;
      }

      .cls-2 {
        fill: #fff;
        fill-rule: evenodd;
      }
    </style>
  </defs>
  <g id="Ebene_2" data-name="Ebene 2">
    <rect class="cls-1" width="256" height="256" rx="45" ry="45"/>
  </g>
  <path class="cls-2" d="m38.16,161.43c0,1.18,0,2.47-1.02,3.93-.86,1.12-2.2,2.03-3.98,2.03-1.45,0-2.74-.64-3.6-1.51-1.44-1.51-1.5-3.23-1.56-4.52v-55.88c.05-1.29.11-3.01,1.56-4.52.86-.86,2.16-1.51,3.6-1.51,1.78,0,3.12.92,3.98,2.04,1.02,1.45,1.02,2.74,1.02,3.92v56h0Zm16.94,0c0,1.18,0,2.47-1.02,3.93-.86,1.12-2.2,2.03-3.97,2.03-1.45,0-2.74-.64-3.61-1.51-1.45-1.51-1.5-3.23-1.55-4.52v-55.88c.05-1.29.1-3.01,1.55-4.52.86-.86,2.15-1.51,3.61-1.51,1.77,0,3.12.92,3.97,2.04,1.02,1.45,1.02,2.74,1.02,3.92v56h0Zm16.95-10.86c0,1.18,0,2.48-1.02,3.93-.86,1.14-2.2,2.04-3.98,2.04-1.45,0-2.75-.65-3.6-1.5-1.45-1.51-1.5-3.23-1.55-4.52v-55.88c.05-1.29.11-3.02,1.55-4.52.96-.95,2.25-1.5,3.6-1.51,1.78,0,3.12.92,3.98,2.04,1.02,1.45,1.02,2.75,1.02,3.93v55.99h0Zm16.94,10.86c0,1.18,0,2.47-1.02,3.93-.85,1.12-2.2,2.03-3.97,2.03-1.36,0-2.65-.55-3.6-1.51-1.45-1.51-1.51-3.23-1.56-4.52v-55.88c.05-1.29.1-3.01,1.56-4.52.95-.96,2.25-1.51,3.6-1.51,1.77,0,3.12.92,3.97,2.04,1.02,1.45,1.02,2.74,1.02,3.92v56h0Zm16.95-10.86c0,1.18,0,2.48-1.02,3.93-.86,1.14-2.21,2.04-3.99,2.04-1.45,0-2.73-.65-3.59-1.5-1.45-1.51-1.51-3.23-1.57-4.52v-55.88c.06-1.29.11-3.02,1.57-4.52.95-.95,2.24-1.5,3.59-1.51,1.78,0,3.12.92,3.99,2.04,1.02,1.45,1.02,2.75,1.02,3.93v55.99h0Zm16.94,10.86c0,1.18,0,2.47-1.03,3.93-.85,1.12-2.19,2.03-3.97,2.03-1.35,0-2.64-.55-3.59-1.51-1.45-1.51-1.51-3.23-1.56-4.52v-55.88c.06-1.29.11-3.01,1.56-4.52.95-.96,2.24-1.5,3.59-1.51,1.78,0,3.12.92,3.97,2.04,1.03,1.45,1.03,2.74,1.03,3.92v56h0Zm16.95,0c0,1.18,0,2.47-1.02,3.93-.85,1.12-2.19,2.03-3.97,2.03-1.35,0-2.64-.55-3.6-1.51-1.45-1.51-1.51-3.23-1.57-4.52v-55.88c.05-1.29.11-3.01,1.57-4.52.95-.96,2.24-1.5,3.6-1.51,1.78,0,3.12.92,3.97,2.04,1.02,1.45,1.02,2.74,1.02,3.92v56h0Zm82.19-44.98c1.19,0,2.47,0,3.92,1.02,1.13.86,2.04,2.2,2.04,3.98,0,1.36-.55,2.64-1.51,3.6-1.5,1.44-3.23,1.5-4.52,1.55h-70.65c-1.29-.05-3.02-.11-4.52-1.55-.95-.96-1.49-2.25-1.5-3.6,0-1.77.92-3.12,2.04-3.98,1.45-1.02,2.75-1.02,3.92-1.02h70.78,0Zm0-16.95c1.19,0,2.47,0,3.92,1.02,1.13.85,2.04,2.2,2.04,3.98,0,1.35-.55,2.64-1.51,3.59-1.5,1.45-3.23,1.51-4.52,1.56h-70.65c-1.29-.05-3.02-.11-4.52-1.56-.95-.96-1.49-2.24-1.5-3.59,0-1.78.92-3.12,2.04-3.98,1.45-1.02,2.75-1.02,3.92-1.02h70.78,0Zm0,50.87c1.19,0,2.47,0,3.92,1.01,1.13.86,2.04,2.21,2.04,3.97,0,1.45-.64,2.74-1.51,3.6-1.5,1.45-3.23,1.5-4.52,1.56h-70.65c-1.29-.06-3.02-.11-4.52-1.56-.95-.96-1.49-2.25-1.5-3.6,0-1.77.92-3.12,2.04-3.97,1.45-1.01,2.75-1.01,3.92-1.01h70.78,0Zm0-16.96c1.19,0,2.47,0,3.92,1.02,1.13.85,2.04,2.2,2.04,3.97,0,1.36-.55,2.65-1.51,3.61-1.5,1.44-3.23,1.51-4.52,1.56h-70.65c-1.29-.05-3.02-.11-4.52-1.56-.95-.96-1.49-2.25-1.5-3.61,0-1.78.92-3.12,2.04-3.97,1.45-1.02,2.75-1.02,3.92-1.02h70.78,0Z"/>
</svg>