<?xml version="1.0" encoding="UTF-8" standalone="yes">
<!DOCTYPE svg PUBLIC "-//W3C//DTD SVG 1.1//EN" "http://www.w3.org/Graphics/SVG/1.1/DTD/svg11.dtd">
<!-- Created with Vectornator (http://vectornator.io/) -->
<svg height="100%" stroke-miterlimit="5" style="fill-rule:nonzero;clip-rule:evenodd;stroke-linecap:round;stroke-linejoin:round;" version="1.1" viewBox="0 0 512 512" xml:space="preserve" xmlns="http://www.w3.org/2000/svg" xmlns:vectornator="http://vectornator.io" xmlns:xlink="http://www.w3.org/1999/xlink">
<defs/>
<g id="Ebene-1" vectornator:layerName="Ebene 1">
<path d="M2.84217e-14 95C2.84217e-14 42.5329 42.5329 0 95 0L417 0C469.467 0 512 42.5329 512 95L512 417C512 469.467 469.467 512 417 512L95 512C42.5329 512 2.84217e-14 469.467 2.84217e-14 417L2.84217e-14 95Z" fill="#237ed4" fill-rule="nonzero" opacity="1" stroke="none" vectornator:layerName="Rechteck 1"/>
<path d="M271.871 159.881C270.694 159.881 269.3 161.386 269.3 162.848L269.3 183.812C269.3 185.524 270.688 186.977 271.871 186.977L453.132 186.977C454.797 186.976 456 185.524 456 183.812L456 162.848C456 161.395 454.787 159.881 453.132 159.881L271.871 159.881ZM59.0655 160.178C57.4014 160.178 56 161.63 56 162.848L56 349.152C56 350.848 57.4014 352.119 59.0655 352.119L79.5352 352.119C81.1209 352.084 82.3992 350.737 82.403 349.152L82.403 162.848C82.4029 161.63 80.964 160.178 79.5352 160.178L59.0655 160.178ZM112.564 160.178C110.899 160.178 109.498 161.63 109.498 162.848L109.498 349.152C109.498 350.848 110.899 352.119 112.564 352.119L132.934 352.119C134.52 352.084 135.798 350.737 135.802 349.152L135.802 162.848C135.802 161.63 134.364 160.178 132.934 160.178L112.564 160.178ZM165.963 160.178C164.298 160.178 162.897 161.63 162.897 162.848L162.897 349.152C162.897 350.848 164.298 352.119 165.963 352.119L186.433 352.119C188.018 352.084 189.296 350.737 189.3 349.152L189.3 162.848C189.3 161.63 187.87 160.178 186.433 160.178L165.963 160.178ZM219.659 160.178C217.994 160.178 216.593 161.63 216.593 162.848L216.593 349.152C216.593 350.848 217.994 352.119 219.659 352.119L240.129 352.119C241.711 352.081 242.891 350.734 242.897 349.152L242.897 162.848C242.897 161.63 241.549 160.178 240.129 160.178L219.659 160.178ZM271.871 215.061C270.694 215.061 269.3 216.559 269.3 218.027L269.3 238.991C269.3 240.694 270.688 242.255 271.871 242.255L453.132 242.255C454.797 242.255 456 240.694 456 238.991L456 218.027C456 216.565 454.787 215.061 453.132 215.061L271.871 215.061ZM271.871 270.042C270.694 270.042 269.3 271.534 269.3 273.009L269.3 293.973C269.3 295.704 270.688 297.137 271.871 297.137L453.132 297.137C454.797 297.137 456 295.704 456 293.973L456 273.009C456 271.55 454.787 270.042 453.132 270.042L271.871 270.042ZM271.871 325.023C270.694 325.024 269.3 326.429 269.3 327.891L269.3 348.954C269.3 350.666 270.688 352.119 271.871 352.119L453.132 352.119C454.797 352.119 456 350.666 456 348.954L456 327.891C456 326.439 454.787 325.023 453.132 325.023L271.871 325.023Z" fill="#ffffff" fill-rule="nonzero" opacity="1" stroke="none" vectornator:layerName="Kurve 1"/>
</g>
</svg>
