<?xml version="1.0" encoding="UTF-8"?>
<svg id="Ebene_1" data-name="Ebene 1" xmlns="http://www.w3.org/2000/svg" viewBox="0 0 256 256">
  <defs>
    <style>
      .cls-1 {
        fill: #4ba956;
      }

      .cls-2 {
        fill: #fff;
        fill-rule: evenodd;
      }
    </style>
  </defs>
  <g id="Ebene_2" data-name="Ebene 2">
    <rect class="cls-1" width="256" height="256" rx="35" ry="35"/>
  </g>
  <path class="cls-2" d="m25.92,165.97c0,1.34,0,2.81-1.16,4.46-.98,1.27-2.5,2.31-4.52,2.31-1.65,0-3.11-.73-4.09-1.71-1.64-1.71-1.7-3.67-1.77-5.13v-63.49c.06-1.47.12-3.42,1.77-5.13.98-.98,2.45-1.71,4.09-1.71,2.02,0,3.54,1.04,4.52,2.32,1.16,1.65,1.16,3.11,1.16,4.45v63.62h0Zm19.25,0c0,1.34,0,2.81-1.16,4.46-.98,1.27-2.5,2.31-4.51,2.31-1.65,0-3.11-.73-4.1-1.71-1.65-1.71-1.7-3.67-1.76-5.13v-63.49c.06-1.47.11-3.42,1.76-5.13.98-.98,2.44-1.71,4.1-1.71,2.01,0,3.54,1.04,4.51,2.32,1.16,1.65,1.16,3.11,1.16,4.45v63.62h0Zm19.26-12.34c0,1.34,0,2.82-1.16,4.46-.98,1.29-2.5,2.32-4.52,2.32-1.65,0-3.12-.74-4.09-1.7-1.65-1.71-1.7-3.67-1.76-5.14v-63.48c.06-1.47.12-3.43,1.76-5.13,1.09-1.08,2.56-1.7,4.09-1.71,2.02,0,3.54,1.04,4.52,2.32,1.16,1.65,1.16,3.12,1.16,4.46v63.61h0Zm19.25,12.34c0,1.34,0,2.81-1.16,4.46-.97,1.27-2.5,2.31-4.51,2.31-1.54,0-3.01-.62-4.09-1.71-1.65-1.71-1.71-3.67-1.77-5.13v-63.49c.06-1.47.11-3.42,1.77-5.13,1.08-1.09,2.56-1.71,4.09-1.71,2.01,0,3.54,1.04,4.51,2.32,1.16,1.65,1.16,3.11,1.16,4.45v63.62h0Zm19.26-12.34c0,1.34,0,2.82-1.16,4.46-.98,1.29-2.51,2.32-4.53,2.32-1.65,0-3.1-.74-4.08-1.7-1.65-1.71-1.71-3.67-1.78-5.14v-63.48c.07-1.47.13-3.43,1.78-5.13,1.08-1.08,2.55-1.7,4.08-1.71,2.02,0,3.55,1.04,4.53,2.32,1.16,1.65,1.16,3.12,1.16,4.46v63.61h0Zm19.25,12.34c0,1.34,0,2.81-1.17,4.46-.97,1.27-2.49,2.31-4.51,2.31-1.53,0-3-.62-4.08-1.71-1.65-1.71-1.71-3.67-1.77-5.13v-63.49c.07-1.47.13-3.42,1.77-5.13,1.08-1.09,2.55-1.7,4.08-1.71,2.02,0,3.54,1.04,4.51,2.32,1.17,1.65,1.17,3.11,1.17,4.45v63.62h0Zm19.26,0c0,1.34,0,2.81-1.16,4.46-.97,1.27-2.49,2.31-4.51,2.31-1.53,0-3-.62-4.09-1.71-1.65-1.71-1.71-3.67-1.78-5.13v-63.49c.06-1.47.13-3.42,1.78-5.13,1.08-1.09,2.55-1.7,4.09-1.71,2.02,0,3.54,1.04,4.51,2.32,1.16,1.65,1.16,3.11,1.16,4.45v63.62h0Zm93.38-51.1c1.35,0,2.81,0,4.45,1.16,1.28.98,2.32,2.5,2.32,4.52,0,1.54-.62,3-1.71,4.09-1.7,1.64-3.67,1.7-5.13,1.76h-80.27c-1.47-.06-3.43-.12-5.14-1.76-1.08-1.09-1.69-2.56-1.7-4.09,0-2.01,1.04-3.54,2.32-4.52,1.65-1.16,3.12-1.16,4.45-1.16h80.41Zm0-19.26c1.35,0,2.81,0,4.45,1.16,1.28.97,2.32,2.5,2.32,4.52,0,1.53-.62,3-1.71,4.08-1.7,1.65-3.67,1.72-5.13,1.77h-80.27c-1.47-.06-3.43-.12-5.14-1.77-1.08-1.09-1.69-2.55-1.7-4.08,0-2.02,1.04-3.55,2.32-4.52,1.65-1.16,3.12-1.16,4.45-1.16h80.41Zm0,57.79c1.35,0,2.81,0,4.45,1.15,1.28.98,2.32,2.51,2.32,4.51,0,1.65-.73,3.11-1.71,4.09-1.7,1.65-3.67,1.7-5.13,1.77h-80.27c-1.47-.07-3.43-.13-5.14-1.77-1.08-1.09-1.69-2.56-1.7-4.09,0-2.01,1.04-3.54,2.32-4.51,1.65-1.15,3.12-1.15,4.45-1.15h80.41Zm0-19.27c1.35,0,2.81,0,4.45,1.16,1.28.97,2.32,2.5,2.32,4.51,0,1.54-.62,3.01-1.71,4.1-1.7,1.64-3.67,1.71-5.13,1.77h-80.27c-1.47-.06-3.43-.13-5.14-1.77-1.08-1.09-1.69-2.56-1.7-4.1,0-2.02,1.04-3.54,2.32-4.51,1.65-1.16,3.12-1.16,4.45-1.16h80.41Z"/>
</svg>