<?xml version="1.0" encoding="UTF-8"?>
<svg id="Ebene_1" data-name="Ebene 1" xmlns="http://www.w3.org/2000/svg" viewBox="0 0 256 256">
  <defs>
    <style>
      .cls-1 {
        fill: #fff;
      }

      .cls-2 {
        fill: #a33639;
      }
    </style>
  </defs>
  <g id="Ebene_2" data-name="Ebene 2">
    <path class="cls-2" d="m256,45v166c0,24.85-20.15,45-45,45H45c-24.85,0-45-20.15-45-45V45C0,20.15,20.15,0,45,0h166c24.85,0,45,20.15,45,45Z"/>
  </g>
  <g>
    <path class="cls-1" d="m132.56,30.26h13.59v19.82c21.96-2.8,44.91-2.59,65.98,4.86,7.93,2.7,16.57,8.89,15.8,18.34.09,34.93.09,69.89,0,104.85.8,9.57-8.07,15.71-16.09,18.39-21.09,7-43.8,7.84-65.69,4.73v24.48h-14.16c-34.62-6.32-69.33-12.09-103.99-18.18V48.49c34.85-6.09,69.73-12.02,104.56-18.23Z"/>
    <path class="cls-2" d="m146.15,56.99c20.3-2.8,41.44-2.71,61.17,3.32,5.43,2.02,12.7,4.46,13.93,10.93-.91,5.3-6.43,7.68-10.8,9.59-20.61,6.96-42.91,7.61-64.3,4.39v-28.23Z"/>
    <path class="cls-2" d="m192.7,92.36c10-1.48,20.43-3.64,28.53-10.14-.5,9.77.77,19.66-.68,29.34-4.07,4.84-10.52,6.57-16.34,8.23-18.98,4.48-38.78,4.59-58.05,2.11v-29.46c15.46,1.96,31.1,1.93,46.55-.09h-.01Zm-118.31-2.34c5.3-.39,10.57-.75,15.89-1.16,7.62,25.46,14.84,51.05,22.37,76.53-5.25-.34-10.5-.73-15.71-1.2-1.4-5.69-2.85-11.36-4.36-17.03-6.97-.04-13.95-.23-20.91-.59-1.34,5.38-2.7,10.75-4.09,16.11-4.44-.34-8.88-.66-13.32-.95,6.64-23.93,13.55-47.78,20.14-71.71h-.01Z"/>
    <path class="cls-1" d="m74.5,134.3c2.3-10.64,5.71-21.03,7.23-31.82,2.05,10.77,5.2,21.27,7.8,31.91-5.02-.02-10.02-.05-15.03-.09Z"/>
    <path class="cls-2" d="m192.84,128.71c9.98-1.48,20.34-3.64,28.39-10.11-.45,9.75.71,19.59-.64,29.28-3.98,4.86-10.43,6.59-16.23,8.25-19.02,4.52-38.89,4.64-58.21,2.18v-29.48c15.5,1.97,31.19,1.94,46.69-.11h0Zm-.09,36.37c10-1.45,20.39-3.64,28.48-10.11-.48,9.75.75,19.64-.68,29.32-6.43,7-16.64,8.3-25.48,10.09-16.24,2.47-32.75,2.53-49,.18.16-9.8.09-19.57.09-29.36,15.47,1.97,31.13,1.93,46.6-.12h-.01Z"/>
  </g>
</svg>