<?xml version="1.0" encoding="UTF-8"?><svg id="a" xmlns="http://www.w3.org/2000/svg" viewBox="0 0 128 128"><defs><style>.b{fill:#0a191c;}.c{fill:#fff;}</style></defs><rect class="b" x="0" width="128" height="128" rx="25" ry="25" transform="translate(128 128) rotate(180)"/><path class="c" d="m34.6,31.9c-1.06.87-3.11.31-4.6-1.31-.62.62-1.06,1.18-1.62,1.8,1.62,1.31,2.36,3.42,1.49,4.42-.87,1.06-2.99.87-4.6-.44-.44.62-.87,1.31-1.31,1.93,1.8,1.18,2.68,2.99,2.05,4.17s-2.68,1.31-4.6.31c-.31.75-.75,1.49-1.06,2.05,1.93.87,2.99,2.36,2.49,3.73-.44,1.18-2.36,1.62-4.29,1.06-.31.75-.44,1.49-.62,2.24,1.93.62,3.24,1.93,2.99,3.11-.31,1.31-2.05,2.05-3.98,1.8-.12.75-.12,1.62-.31,2.36,1.93.31,3.42,1.31,3.42,2.68s-1.62,2.24-3.55,2.36v2.36c1.93,0,3.55.87,3.73,2.05.12,1.18-1.18,2.49-3.11,2.8.12.75.31,1.62.44,2.36,1.93-.31,3.55.31,3.86,1.49s-.75,2.68-2.49,3.24c.31.75.44,1.49.75,2.24,1.8-.62,3.55-.12,3.98.87.44,1.18-.31,2.68-2.05,3.73.31.75.75,1.31,1.18,2.05,1.62-.87,3.42-.75,3.98.31.75,1.06,0,2.68-1.31,3.86.44.62.87,1.31,1.49,1.93,1.49-1.06,3.24-1.18,3.98-.31.87.87.44,2.68-.75,3.98.62.62,1.18,1.18,1.8,1.62,1.31-1.31,2.99-1.8,3.98-1.06s.87,2.49-.12,4.17c.62.44,1.31.87,1.93,1.31,1.18-1.49,2.68-2.24,3.73-1.62s1.31,2.36.44,4.17c.75.44,1.49.75,2.05,1.06.87-1.62,2.36-2.68,3.55-2.24,1.18.44,1.62,2.24,1.18,3.98.75.31,1.49.44,2.24.75.62-1.8,1.93-2.99,3.11-2.8,1.18.31,1.93,1.93,1.8,3.86.75.12,1.62.31,2.36.31.31-1.93,1.31-3.42,2.68-3.24,1.31,0,2.24,1.62,2.36,3.73h2.36c0-1.93.87-3.55,2.05-3.73,1.31-.12,2.49,1.31,2.99,3.24.75-.12,1.62-.31,2.36-.44-.44-1.93.31-3.73,1.49-4.17,1.31-.31,2.8.87,3.42,2.99.75-.31,1.49-.44,2.24-.75-.75-1.93-.44-3.86.75-4.42s2.99.62,3.86,2.49c.75-.31,1.49-.75,2.05-1.06-1.06-1.8-1.06-3.86,0-4.6,1.18-.75,3.11.12,4.29,1.93.62-.44,1.31-.87,1.93-1.49-1.49-1.62-1.8-3.73-.75-4.6s3.11-.31,4.6,1.31c.62-.62,1.18-1.18,1.62-1.62-1.8-1.49-2.36-3.42-1.62-4.42.87-1.06,2.99-.87,4.73.62l.12.12c.44-.62,1.06-1.31,1.49-1.93h0c-1.93-1.18-2.99-2.99-2.36-4.29.75-1.18,2.8-1.31,4.73-.12l.12.12c.44-.75.75-1.49,1.06-2.24h-.12c-2.05-.75-3.42-2.49-2.99-3.86s2.68-1.8,4.73-.87c.12,0,.12.12.31.12.31-.75.62-1.62.75-2.36h-.31c-2.24-.44-3.86-1.93-3.55-3.24.31-1.31,2.36-2.05,4.6-1.62.12,0,.31,0,.44.12.12-.87.31-1.62.44-2.49h-.44c-2.24-.12-3.98-1.31-3.98-2.68s1.93-2.49,4.17-2.36h.62v-2.49h-.44c-2.24.31-4.17-.75-4.29-2.05s1.49-2.68,3.86-2.99h.62c-.12-.87-.31-1.62-.44-2.49-.12,0-.31.12-.62.12-2.24.62-4.29,0-4.6-1.31-.44-1.31,1.06-2.99,3.24-3.55.12,0,.44-.12.62-.12-.31-.87-.62-1.62-.87-2.36-.12.12-.31.12-.62.31-2.05.87-4.17.62-4.73-.62-.62-1.31.62-3.11,2.68-3.98.31-.12.44-.12.75-.31-.44-.75-.75-1.49-1.18-2.24-.12.12-.31.31-.62.44-1.93,1.18-3.98,1.31-4.91.12-.75-1.18.12-3.11,2.05-4.42.12-.12.44-.31.62-.31-.44-.75-1.06-1.31-1.62-2.05-.12.12-.31.31-.44.44-1.62,1.49-3.86,1.93-4.73.87-.87-1.06-.31-3.11,1.31-4.6.12-.12.44-.31.62-.44-.62-.62-1.18-1.18-1.93-1.8-.12.12-.31.31-.44.62-1.49,1.8-3.42,2.49-4.6,1.62-1.06-.87-.87-2.99.62-4.73.12-.12.31-.44.44-.62-.75-.44-1.31-1.06-2.05-1.49-.12.12-.12.44-.31.62-1.18,1.93-2.99,2.99-4.29,2.36-1.18-.75-1.31-2.8-.12-4.73.12-.12.31-.44.44-.62-.75-.44-1.49-.75-2.36-1.18,0,.12-.12.44-.12.62-.75,2.05-2.49,3.42-3.86,2.99s-1.8-2.68-.87-4.73c.12-.12.12-.44.31-.62-.75-.31-1.62-.44-2.49-.75,0,.12,0,.31-.12.62-.44,2.24-1.93,3.86-3.24,3.55-1.31-.31-2.05-2.36-1.62-4.6,0-.12.12-.44.12-.62-.87-.12-1.62-.31-2.49-.31v.44c-.12,2.24-1.31,3.98-2.68,3.98s-2.49-1.93-2.36-4.17v-.44h-2.49v.44c.31,2.24-.75,4.17-2.05,4.29-1.31.12-2.68-1.49-2.99-3.86v-.44c-.75.12-1.62.31-2.36.44q0,.12.12.31c.62,2.24,0,4.29-1.31,4.6-1.31.44-2.99-1.06-3.55-3.24v-.31c-.75.31-1.49.62-2.36.87,0,0,0,.12.12.12.87,2.05.62,4.17-.62,4.73-1.31.62-3.11-.62-3.98-2.68v-.12c-.75.44-1.49.75-2.05,1.18h0c1.18,1.93,1.31,3.98.12,4.91-1.18.75-3.11-.12-4.42-2.05h0c-.62.44-1.31,1.06-1.93,1.49,1.24,1.43,1.68,3.48.62,4.35Zm-2.05,25.69c-1.8-.62-2.8-2.49-2.24-4.29.62-1.8,2.49-2.8,4.29-2.24,1.8.62,2.8,2.49,2.24,4.29-.44,1.74-2.49,2.8-4.29,2.24Zm3.11,32.41c-8.59-9.46-12.32-22.65-7.28-27.25,4.91-4.42,15.99,1.93,24.76,11.39,8.59,9.46,14.06,21.03,9.02,25.63-5.04,4.48-17.92-.44-26.5-9.77Zm36.15,8.59c-1.93.44-3.73-.75-4.17-2.68s.75-3.73,2.68-4.17,3.73.75,4.17,2.68c.31,1.99-.87,3.73-2.68,4.17Zm24.01-50.64c6.35,2.05,8.59,15.55,4.73,27.69-3.86,12.13-13.5,21.96-19.85,20.03-6.35-2.05-6.35-14.99-2.49-27.13,3.8-12.01,11.26-22.71,17.61-20.59Zm-5.47-8.03c1.31,1.49,1.18,3.55-.31,4.91s-3.55,1.18-4.91-.31-1.18-3.55.31-4.91c1.49-1.18,3.73-1,4.91.31Zm-19.41,17.79c3.55,3.86,3.24,9.77-.62,13.31-3.86,3.55-9.77,3.24-13.31-.62s-3.24-9.77.62-13.31c3.8-3.55,9.77-3.24,13.31.62Zm-15.12-31.11c12.44-2.68,25.76.75,27.25,7.28,1.49,6.53-9.77,12.88-22.21,15.68-12.44,2.68-25.32,1.62-26.69-4.91-1.49-6.66,9.21-15.37,21.65-18.04Z"/></svg>