<?xml version="1.0" encoding="UTF-8"?><svg id="a" xmlns="http://www.w3.org/2000/svg" viewBox="0 0 128 128"><defs><style>.g{fill:#99f;}.h{fill:#00005b;}</style></defs><rect class="h" x="0" y="0" width="128" height="128" rx="25" ry="25" transform="translate(128 0) rotate(90)"/><g id="b"><g id="c"><g id="d"><path id="e" class="g" d="m54.3,75.99h-16.9l-3.45,10.72c-.09.41-.45.68-.86.64h-8.54c-.5,0-.64-.27-.5-.82l14.63-41.93c.14-.45.27-.86.45-1.41.18-.95.27-1.95.27-2.95-.04-.23.14-.45.36-.5h11.77c.32,0,.55.14.59.36l16.58,46.56c.14.5,0,.73-.45.73h-9.49c-.32.05-.64-.18-.73-.5l-3.73-10.9Zm-14.26-9.04h11.54c-.27-.95-.64-2.09-1.04-3.27-.41-1.23-.82-2.54-1.23-3.91-.45-1.41-.86-2.77-1.32-4.18-.45-1.41-.86-2.73-1.23-4.04-.36-1.27-.68-2.45-1-3.54h-.09c-.41,1.95-.91,3.91-1.54,5.86-.68,2.18-1.36,4.45-2.09,6.72-.59,2.32-1.32,4.45-2,6.36h0Z"/><path id="f" class="g" d="m95.64,71.81h-14.4c.18,1.41.64,2.82,1.41,4.04.82,1.23,1.95,2.18,3.32,2.73,1.82.77,3.82,1.18,5.81,1.14,1.59-.05,3.18-.18,4.72-.5,1.41-.18,2.77-.54,4.04-1.04.23-.18.36-.09.36.36v6.95c0,.18-.04.36-.09.55-.09.14-.18.23-.32.32-1.45.64-2.95,1.09-4.54,1.36-2.14.41-4.27.59-6.45.55-3.45,0-6.36-.55-8.72-1.59-2.23-.95-4.18-2.45-5.72-4.32-1.45-1.77-2.5-3.77-3.13-5.95-.64-2.14-.95-4.36-.95-6.63,0-2.45.36-4.86,1.14-7.22.73-2.27,1.86-4.36,3.41-6.22,1.5-1.82,3.36-3.27,5.5-4.31,2.14-1.05,4.68-1.41,7.59-1.41,2.41-.05,4.81.41,7.04,1.41,1.86.82,3.5,2.04,4.77,3.63,1.18,1.54,2.14,3.27,2.73,5.18.59,1.82.86,3.68.86,5.54,0,1.09-.05,2.04-.09,2.91-.09.86-.14,1.5-.18,1.91-.05.32-.32.59-.64.59-.27,0-.77.05-1.5.09-.73.09-1.59.14-2.63.14s-2.14-.18-3.32-.18h0Zm-14.4-6.63h9.58c1.18,0,2.04,0,2.59-.04.36-.05.73-.14,1.05-.36v-.45c0-.59-.09-1.14-.27-1.68-.82-2.54-3.23-4.27-5.91-4.18-2.5-.14-4.86,1.18-6.04,3.45-.55,1.05-.86,2.14-1,3.27Z"/></g></g></g></svg>