<?xml version="1.0" encoding="UTF-8"?>
<svg id="Ebene_1" data-name="Ebene 1" xmlns="http://www.w3.org/2000/svg" viewBox="0 0 256 256">
  <defs>
    <style>
      .cls-1 {
        fill: #99f;
      }

      .cls-2 {
        fill: #00005b;
      }
    </style>
  </defs>
  <g id="Ebene_2" data-name="Ebene 2">
    <rect class="cls-2" width="256" height="256" rx="35" ry="35"/>
  </g>
  <g>
    <path class="cls-2" d="m47.27,6.12h161.46c24.48,0,44.27,19.79,44.27,44.27v155.21c0,24.48-19.79,44.27-44.27,44.27H47.27c-24.48,0-44.27-19.79-44.27-44.27V50.4C3,25.92,22.79,6.12,47.27,6.12Z"/>
    <path class="cls-1" d="m103.42,151.96h-38.75l-7.92,24.58c-.21.94-1.04,1.56-1.98,1.46h-19.58c-1.15,0-1.46-.62-1.15-1.88l33.54-96.15c.31-1.04.62-1.98,1.04-3.23.42-2.19.62-4.48.62-6.77-.1-.52.31-1.04.83-1.15h26.98c.73,0,1.25.31,1.35.83l38.02,106.25c.31,1.15,0,1.67-1.04,1.67h-21.77c-.73.1-1.46-.42-1.67-1.15l-8.54-25v.52h0Zm-32.71-20.73h26.46c-.62-2.19-1.46-4.79-2.4-7.5-.94-2.81-1.88-5.83-2.81-8.96-1.04-3.23-1.98-6.35-3.02-9.58s-1.98-6.25-2.81-9.27c-.83-2.92-1.56-5.62-2.29-8.12h-.21c-.94,4.48-2.08,8.96-3.54,13.44-1.56,5-3.12,10.21-4.79,15.42-1.35,5.31-3.02,10.21-4.58,14.58h0Zm127.08,11.35h-33.02c.42,3.23,1.46,6.46,3.23,9.27,1.88,2.81,4.48,5,7.6,6.25,4.17,1.77,8.75,2.71,13.33,2.6,3.65-.1,7.29-.42,10.83-1.15,3.23-.42,6.35-1.25,9.27-2.4.52-.42.83-.21.83.83v15.94c0,.42-.1.83-.21,1.25-.21.31-.42.52-.73.73-3.33,1.46-6.77,2.5-10.42,3.12-4.9.94-9.79,1.35-14.79,1.25-7.92,0-14.58-1.25-20-3.65-5.1-2.19-9.58-5.62-13.12-9.9-3.33-4.06-5.73-8.65-7.19-13.65-1.46-4.9-2.19-10-2.19-15.21,0-5.62.83-11.15,2.6-16.56,1.67-5.21,4.27-10,7.81-14.27,3.44-4.17,7.71-7.5,12.6-9.9s10.73-3.23,17.4-3.23c5.52-.1,11.04.94,16.15,3.23,4.27,1.88,8.02,4.69,10.94,8.33,2.71,3.54,4.9,7.5,6.25,11.88,1.35,4.17,1.98,8.44,1.98,12.71,0,2.5-.1,4.69-.21,6.67-.21,1.98-.31,3.44-.42,4.38-.1.73-.73,1.35-1.46,1.35-.62,0-1.77.1-3.44.21-1.67.21-3.65.31-6.04.31s-4.9-.42-7.6-.42h0Zm-33.02-15.21h21.98c2.71,0,4.69,0,5.94-.1.83-.1,1.67-.31,2.4-.83v-1.04c0-1.35-.21-2.6-.62-3.85-1.88-5.83-7.4-9.79-13.54-9.58-5.73-.31-11.15,2.71-13.85,7.92-1.25,2.4-1.98,4.9-2.29,7.5h0Z"/>
  </g>
</svg>