<?xml version="1.0" encoding="UTF-8" standalone="no"?>
<!DOCTYPE svg PUBLIC "-//W3C//DTD SVG 1.1//EN" "http://www.w3.org/Graphics/SVG/1.1/DTD/svg11.dtd">
<!-- Created with Vectornator (http://vectornator.io/) -->
<svg height="100%" stroke-miterlimit="10" style="fill-rule:nonzero;clip-rule:evenodd;stroke-linecap:round;stroke-linejoin:round;" version="1.1" viewBox="0 0 512 512" width="100%" xml:space="preserve" xmlns="http://www.w3.org/2000/svg" xmlns:vectornator="http://vectornator.io" xmlns:xlink="http://www.w3.org/1999/xlink">
<defs>
<linearGradient gradientTransform="matrix(1 0 0 1 0 0)" gradientUnits="userSpaceOnUse" id="LinearGradient" x1="249.909" x2="261.13" y1="-1.31433" y2="511.733">
<stop offset="0" stop-color="#3f2c51"/>
<stop offset="1" stop-color="#13002c"/>
</linearGradient>
<radialGradient cx="256" cy="256" gradientTransform="matrix(1 0 0 1 0 0)" gradientUnits="userSpaceOnUse" id="RadialGradient" r="183.334">
<stop offset="0" stop-color="#442f55" stop-opacity="0.98"/>
<stop offset="1" stop-color="#12002c"/>
</radialGradient>
</defs>
<g id="Ebene-1" vectornator:layerName="Ebene 1">
<path d="M2.84217e-14 95C2.84217e-14 42.5329 42.5329 0 95 0L417 0C469.467 0 512 42.5329 512 95L512 417C512 469.467 469.467 512 417 512L95 512C42.5329 512 2.84217e-14 469.467 2.84217e-14 417L2.84217e-14 95Z" fill="url(#LinearGradient)" fill-rule="nonzero" opacity="1" stroke="none" vectornator:layerName="Rechteck 1"/>
<g opacity="1" vectornator:layerName="after-effects-cc.svg">
<path d="M72.6664 77.6661L439.334 77.6661L439.334 434.333L72.6664 434.333L72.6664 77.6661Z" fill="url(#RadialGradient)" fill-rule="nonzero" opacity="1" stroke="none" vectornator:layerName="path"/>
<path d="M72.6664 77.6661L439.334 77.6661L439.334 434.333L72.6664 434.333L72.6664 77.6661ZM56 451L456 451L456 60.9997L56 60.9997L56 451ZM339 249C347.499 249 350.499 249 351.333 248.667C351.333 247.5 351.666 246.666 351.666 245.833C351.666 236.833 347.332 220.166 329.999 220.166C313.999 220.166 307.167 234.166 305.499 249C305.499 249 339 249 339 249ZM305.167 271.833C305.5 294.333 316.167 309.5 341.5 309.5C351.333 309.5 359.833 308.167 368.667 304.334C369.833 303.834 370.667 304.001 370.667 305.5L370.667 326.334C370.667 328 370.167 328.834 369.001 329.667C360.167 334 349.167 336 335.501 336C291.501 336 275.001 303.501 275.001 267.334C275.001 228.001 295.335 195.834 331.168 195.834C367.501 195.834 380.168 226.334 380.168 251.168C380.168 259.168 379.668 265.668 378.835 268.835C378.502 270.168 378.002 270.668 376.668 271.002C373.334 271.502 363.501 272.168 348.834 272.168L305.167 272.168L305.167 271.833ZM215.834 254.833C211.167 236.333 199.833 196 195.667 176.5L195.333 176.5C191.834 196 182.666 228.999 175.833 254.833C175.833 254.833 215.834 254.833 215.834 254.833ZM169 281.834L155.833 331.667C155.5 332.999 155 333.5 153.333 333.5L128.833 333.5C127.167 333.5 126.833 333 127.167 331L174.5 165.5C175.333 162.5 175.833 160.166 176.166 151.834C176.166 150.667 176.666 150.167 177.499 150.167L212.499 150.167C213.666 150.167 214.166 150.5 214.5 151.834L267.499 331.334C267.832 332.666 267.499 333.5 266.166 333.5L238.666 333.5C237.333 333.5 236.499 333 236.166 331.834L222.499 281.834L169 281.834L169 281.834Z" fill="#d8a1ff" fill-rule="nonzero" opacity="1" stroke="none" vectornator:layerName="path"/>
</g>
</g>
</svg>
