<?xml version="1.0" encoding="UTF-8" standalone="no"?>
<!DOCTYPE svg PUBLIC "-//W3C//DTD SVG 1.1//EN" "http://www.w3.org/Graphics/SVG/1.1/DTD/svg11.dtd">
<!-- Created with Vectornator (http://vectornator.io/) -->
<svg height="100%" stroke-miterlimit="10" style="fill-rule:nonzero;clip-rule:evenodd;stroke-linecap:round;stroke-linejoin:round;" version="1.1" viewBox="0 0 512 512" width="100%" xml:space="preserve" xmlns="http://www.w3.org/2000/svg" xmlns:vectornator="http://vectornator.io" xmlns:xlink="http://www.w3.org/1999/xlink">
<defs>
<radialGradient cx="327.578" cy="265.922" gradientTransform="matrix(1.48945 0 0 1.48945 -121.723 -106.052)" gradientUnits="userSpaceOnUse" id="RadialGradient" r="52.5781">
<stop offset="0" stop-color="#442f55" stop-opacity="0.98"/>
<stop offset="1" stop-color="#12002c"/>
</radialGradient>
<radialGradient cx="197.331" cy="241.828" gradientTransform="matrix(1.48945 0 0 1.48945 -121.723 -106.052)" gradientUnits="userSpaceOnUse" id="RadialGradient_2" r="70.288">
<stop offset="0" stop-color="#442f55" stop-opacity="0.98"/>
<stop offset="1" stop-color="#12002c"/>
</radialGradient>
</defs>
<g id="Ebene-1" vectornator:layerName="Ebene 1">
<path d="M2.84217e-14 95C2.84217e-14 42.5329 42.5329 0 95 0L417 0C469.467 0 512 42.5329 512 95L512 417C512 469.467 469.467 512 417 512L95 512C42.5329 512 2.84217e-14 469.467 2.84217e-14 417L2.84217e-14 95Z" fill="#11002d" fill-rule="nonzero" opacity="1" stroke="none" vectornator:layerName="Rechteck 1"/>
<g opacity="1" vectornator:layerName="after-effects-cc.svg">
<path d="M371.517 185.647C318.147 185.647 287.875 233.558 287.875 292.142C287.875 346.01 312.451 394.402 377.987 394.402C398.341 394.402 414.725 391.407 427.883 384.954C429.62 383.713 430.35 382.5 430.35 380.019L430.35 348.973C430.35 346.743 429.108 346.507 427.372 347.252C414.213 352.961 401.57 354.932 386.922 354.932C349.374 354.932 333.48 332.555 332.839 299.31L397.862 299.31C419.706 299.31 434.321 298.333 439.287 297.588C441.274 297.092 442.049 296.362 442.546 294.376C443.785 289.66 444.5 279.948 444.5 268.031C444.5 231.043 425.634 185.647 371.517 185.647ZM369.796 221.859C395.611 221.859 402.051 246.714 402.051 260.118C402.051 261.36 401.585 262.57 401.585 264.308C400.343 264.804 395.859 264.819 383.2 264.819L333.303 264.819C335.788 242.726 345.964 221.859 369.796 221.859Z" fill="url(#RadialGradient)" fill-rule="nonzero" opacity="1" stroke="none" vectornator:layerName="path"/>
<path d="M142.654 117.598C141.413 117.598 140.652 118.373 140.652 120.111C140.156 132.521 139.426 135.983 138.186 140.452L67.669 386.955C67.1722 389.934 67.7017 390.679 70.1828 390.679L106.674 390.679C109.157 390.679 109.903 389.917 110.398 387.934L129.994 313.739L209.68 313.739L230.02 388.213C230.515 389.949 231.756 390.679 233.744 390.679L274.703 390.679C276.687 390.679 277.201 389.451 276.704 387.467L197.763 120.111C197.266 118.124 196.523 117.598 194.785 117.598L142.654 117.598ZM169.232 156.835L169.697 156.835C175.902 185.879 192.813 245.969 199.765 273.524L140.188 273.524C150.364 235.046 164.02 185.879 169.232 156.835Z" fill="url(#RadialGradient_2)" fill-rule="nonzero" opacity="1" stroke="none" vectornator:layerName="path"/>
<path d="M142.654 117.598C141.413 117.598 140.652 118.373 140.652 120.111C140.156 132.521 139.426 135.983 138.186 140.452L67.669 386.955C67.1722 389.934 67.7017 390.679 70.1828 390.679L106.674 390.679C109.157 390.679 109.903 389.917 110.398 387.934L129.994 313.739L209.68 313.739L230.02 388.213C230.515 389.949 231.758 390.679 233.744 390.679L274.703 390.679C276.687 390.679 277.201 389.451 276.704 387.467L197.763 120.111C197.266 118.124 196.523 117.598 194.785 117.598L142.654 117.598ZM169.232 156.835L169.697 156.835C175.902 185.879 192.814 245.969 199.765 273.524L140.188 273.524C150.364 235.046 164.02 185.879 169.232 156.835Z" fill="#d8a1ff" fill-rule="nonzero" opacity="1" stroke="none" vectornator:layerName="path"/>
<path d="M371.517 185.647C318.147 185.647 287.875 233.558 287.875 292.142C287.875 346.01 312.451 394.402 377.987 394.402C398.341 394.402 414.725 391.407 427.883 384.954C429.62 383.713 430.35 382.5 430.35 380.019L430.35 348.973C430.35 346.743 429.108 346.507 427.372 347.252C414.213 352.961 401.57 354.932 386.922 354.932C349.374 354.932 333.48 332.555 332.839 299.31L397.862 299.31C419.706 299.31 434.321 298.333 439.287 297.588C441.274 297.092 442.049 296.362 442.546 294.376C443.785 289.66 444.5 279.948 444.5 268.031C444.5 231.043 425.634 185.647 371.517 185.647ZM369.796 221.859C395.611 221.859 402.051 246.714 402.051 260.118C402.051 261.36 401.585 262.57 401.585 264.308C400.343 264.804 395.859 264.819 383.2 264.819L333.303 264.819C335.788 242.726 345.964 221.859 369.796 221.859Z" fill="#d8a1ff" fill-rule="nonzero" opacity="1" stroke="none" vectornator:layerName="path"/>
</g>
</g>
</svg>
