<?xml version="1.0" encoding="UTF-8"?>
<svg id="Ebene_1" data-name="Ebene 1" xmlns="http://www.w3.org/2000/svg" viewBox="0 0 256 256">
  <defs>
    <style>
      .cls-1 {
        fill: #fff;
      }

      .cls-2 {
        fill: #3ddc84;
      }
    </style>
  </defs>
  <g id="Ebene_2" data-name="Ebene 2">
    <path class="cls-2" d="m45,0h166c24.85,0,45,20.15,45,45v166c0,24.85-20.15,45-45,45H45c-24.85,0-45-20.15-45-45V45C0,20.15,20.15,0,45,0Z"/>
  </g>
  <path class="cls-1" d="m177.08,105.68l16.67-28.84c.94-1.67.35-3.78-1.32-4.72-1.64-.92-3.71-.37-4.67,1.24l-16.86,29.18c-27.22-12.24-58.38-12.24-85.6,0l-16.86-29.18c-.98-1.64-3.11-2.18-4.75-1.19-1.61.96-2.16,3.04-1.24,4.67l16.67,28.84c-28.74,15.56-48.26,44.49-51.11,78.65h200c-2.85-34.15-22.42-63.09-50.92-78.65h0Zm-95.07,50.14c-4.59,0-8.31-3.72-8.31-8.31s3.72-8.31,8.31-8.31,8.31,3.72,8.31,8.31h0c0,4.59-3.72,8.31-8.31,8.31Zm92.08,0c-4.59,0-8.31-3.72-8.31-8.31s3.72-8.31,8.31-8.31,8.31,3.72,8.31,8.31-3.72,8.31-8.31,8.31h0Z"/>
</svg>