<?xml version="1.0" encoding="UTF-8"?>
<svg id="Ebene_1" data-name="Ebene 1" xmlns="http://www.w3.org/2000/svg" viewBox="0 0 256 280.83">
  <defs>
    <style>
      .cls-1 {
        fill: #073042;
      }

      .cls-2 {
        fill: #3870b2;
      }

      .cls-3 {
        fill: #fff;
      }

      .cls-4 {
        fill: #4285f4;
      }

      .cls-5 {
        fill: #3ddc84;
      }

      .cls-6 {
        fill: none;
      }

      .cls-7 {
        fill: #2d2d2d;
      }
    </style>
  </defs>
  <g id="Ebene_2" data-name="Ebene 2">
    <rect class="cls-7" y="12.42" width="256" height="256" rx="35" ry="35"/>
  </g>
  <g>
    <path class="cls-1" d="m109.73,74.22h-40.17c-8.09,0-14.71,6.62-14.71,14.71s6.13,14.71,14.22,14.71h41l-.34-29.42h0Z"/>
    <path class="cls-4" d="m201.17,205.28H69.54c-8.09,0-14.71-6.62-14.71-14.71v-101.67s-.04,14.76,15.68,14.76h109.17s21.49-1.85,21.49,14.18v87.45Z"/>
    <path class="cls-6" d="m131.67,134.52c-4.51,0-8.17,3.66-8.17,8.17s3.66,8.17,8.17,8.17,8.17-3.66,8.17-8.17-3.66-8.17-8.17-8.17h0Z"/>
    <g>
      <path class="cls-2" d="m139.75,153.19c3.15-2.43,5.18-6.23,5.18-10.5,0-7.15-5.69-12.98-12.78-13.24.15,0,.3-.02.45-.02.79,0,1.57.08,2.32.22v-8.42c0-1.41-1.14-2.55-2.55-2.55-1.41,0-2.55,1.14-2.55,2.55v8.34c-6.45.9-11.44,6.43-11.44,13.13,0,4.46,2.22,8.41,5.6,10.81l-24.26,51.77h15.85l11.2-23.98c2.07-4.4,8.33-4.42,10.43-.03l11.55,24.01h15.98l-25-52.09h0Zm-8.09-2.33c-4.51,0-8.17-3.66-8.17-8.17s3.66-8.17,8.17-8.17,8.17,3.66,8.17,8.17-3.66,8.17-8.17,8.17h0Z"/>
      <path class="cls-1" d="m127.28,134.52c4.51,0,8.17,3.66,8.17,8.17s-3.66,8.17-8.17,8.17-8.17-3.66-8.17-8.17,3.66-8.17,8.17-8.17h0Zm3.27-4.88v-8.42c0-1.41-1.14-2.55-2.55-2.55-1.41,0-2.55,1.14-2.55,2.55v8.34c-6.45.9-11.44,6.43-11.44,13.13,0,4.46,2.22,8.41,5.6,10.81l-30.63,65.26c-2.22,4.77,1.26,10.23,6.52,10.23,2.8,0,5.34-1.62,6.52-4.16l20.38-43.54c2.07-4.4,8.33-4.42,10.43-.03l20.84,43.31c1.2,2.49,3.72,4.06,6.48,4.07,5.3,0,8.78-5.54,6.48-10.31l-31.26-65.14c3.15-2.43,5.18-6.23,5.18-10.5,0-6.19-4.26-11.39-10-12.85"/>
      <path class="cls-3" d="m101.02,81.45h56.32v10.31h-56.32v-10.31Z"/>
      <path class="cls-5" d="m149.17,90.55c-2.11,0-3.83-1.72-3.83-3.83s1.72-3.83,3.83-3.83,3.83,1.72,3.83,3.83-1.72,3.83-3.83,3.83m-42.34,0c-2.11,0-3.83-1.72-3.83-3.83s1.72-3.83,3.83-3.83,3.83,1.72,3.83,3.83-1.72,3.83-3.83,3.83m43.71-23.07l7.66-13.26c.44-.76.18-1.74-.58-2.18-.76-.44-1.74-.18-2.18.58l-7.75,13.43c-5.93-2.71-12.59-4.21-19.69-4.21s-13.76,1.51-19.69,4.21l-7.75-13.43c-.44-.76-1.41-1.02-2.18-.58-.76.44-1.02,1.41-.58,2.18l7.66,13.26c-13.15,7.15-22.14,20.46-23.45,36.18h91.99c-1.32-15.72-10.31-29.03-23.45-36.18"/>
      <path class="cls-1" d="m187.93,131.89h-6.08c-.4,0-.73.33-.73.73l-.15,95.41c0,.4.33.73.73.73l6.23.04c7.28,0,13.24-5.96,13.24-13.24v-96.93c0,7.28-5.96,13.25-13.24,13.25h0Z"/>
    </g>
    <path class="cls-6" d="m3,0h250v280.83H3V0Z"/>
  </g>
</svg>