<?xml version="1.0" encoding="UTF-8"?>
<svg id="Ebene_1" data-name="Ebene 1" xmlns="http://www.w3.org/2000/svg" viewBox="0 0 300 256">
  <defs>
    <style>
      .cls-1 {
        fill: #fff;
      }

      .cls-2 {
        fill: none;
      }

      .cls-3 {
        fill: #3ddb85;
      }
    </style>
  </defs>
  <g id="Ebene_2" data-name="Ebene 2">
    <rect class="cls-3" x="17.56" width="256" height="256" rx="35" ry="35"/>
  </g>
  <g>
    <path class="cls-1" d="m184.34,151.47c-3.87,0-7.02-3.15-7.02-7.02s3.15-7.02,7.02-7.02,7.02,3.15,7.02,7.02-3.15,7.02-7.02,7.02m-77.58,0c-3.87,0-7.02-3.15-7.02-7.02s3.15-7.02,7.02-7.02,7.02,3.15,7.02,7.02-3.15,7.02-7.02,7.02m80.09-42.28l14.03-24.29c.8-1.4.33-3.18-1.07-3.99-1.4-.8-3.18-.33-3.99,1.07l-14.2,24.6c-10.86-4.96-23.06-7.72-36.08-7.72s-25.21,2.76-36.08,7.72l-14.2-24.6c-.81-1.39-2.59-1.87-3.99-1.07-1.4.81-1.87,2.59-1.07,3.99l14.03,24.29c-24.09,13.1-40.56,37.49-42.97,66.29h168.55c-2.41-28.81-18.89-53.19-42.97-66.3"/>
    <path class="cls-2" d="m0,95.31h300v160.69H0V95.31Z"/>
  </g>
</svg>