<?xml version="1.0" encoding="UTF-8" standalone="no"?>
<!DOCTYPE svg PUBLIC "-//W3C//DTD SVG 1.1//EN" "http://www.w3.org/Graphics/SVG/1.1/DTD/svg11.dtd">
<!-- Created with Vectornator (http://vectornator.io/) -->
<svg height="100%" stroke-miterlimit="10" style="fill-rule:nonzero;clip-rule:evenodd;stroke-linecap:round;stroke-linejoin:round;" version="1.1" viewBox="0 0 128 128" width="100%" xml:space="preserve" xmlns="http://www.w3.org/2000/svg" xmlns:vectornator="http://vectornator.io" xmlns:xlink="http://www.w3.org/1999/xlink">
<defs/>
<g id="Ebene-1" vectornator:layerName="Ebene 1">
<path d="M0 23.75C0 10.6332 10.6332 0 23.75 0L104.25 0C117.367 0 128 10.6332 128 23.75L128 104.25C128 117.367 117.367 128 104.25 128L23.75 128C10.6332 128 0 117.367 0 104.25L0 23.75Z" fill="#3ddb85" fill-rule="nonzero" opacity="1" stroke="none" vectornator:layerName="Rechteck 1"/>
<path d="M14 66.7558C14 65.6252 14.1892 64.5705 14.5678 63.5915C14.9462 62.6125 15.4761 61.7595 16.1574 61.033C16.8388 60.3062 17.6538 59.736 18.6027 59.3222C19.5514 58.9083 20.591 58.7013 21.7214 58.7013C22.5795 58.7013 23.3592 58.8275 24.0606 59.0797C24.7621 59.3323 25.441 59.746 26.0968 60.3212L26.0968 59.004L29.9425 59.004L29.9425 74.5078L26.0968 74.5078L26.0968 73.1903C25.441 73.7657 24.7621 74.1797 24.0606 74.4317C23.3592 74.6843 22.5795 74.8102 21.7214 74.8102C20.591 74.8102 19.5512 74.6035 18.6027 74.1895C17.6538 73.776 16.8388 73.2055 16.1574 72.479C15.4761 71.752 14.9462 70.8992 14.5678 69.92C14.1892 68.9412 14 67.8865 14 66.7558ZM22.2211 71.1917C22.5239 71.1917 22.8419 71.1593 23.175 71.0935C23.508 71.0277 23.8436 70.9167 24.1819 70.7605C24.5199 70.604 24.8505 70.3945 25.1735 70.132C25.4965 69.8697 25.8042 69.5468 26.0968 69.163L26.0968 64.3485C25.8042 63.965 25.4965 63.6448 25.1735 63.3873C24.8503 63.13 24.5199 62.9203 24.1817 62.7587C23.8434 62.5973 23.508 62.4838 23.1748 62.4183C22.8419 62.3525 22.5237 62.32 22.2211 62.3197C21.6256 62.3197 21.0678 62.4308 20.5481 62.6527C20.0281 62.875 19.5765 63.1855 19.1931 63.584C18.8095 63.9828 18.5092 64.4523 18.2922 64.992C18.0752 65.532 17.9667 66.12 17.9667 66.7558C17.9667 67.3918 18.0752 67.9797 18.2922 68.5198C18.5092 69.0597 18.8095 69.529 19.1931 69.9278C19.5767 70.3265 20.0283 70.6368 20.548 70.859C21.068 71.0807 21.6256 71.1917 22.2211 71.1917ZM39.5558 62.5285C37.7335 62.5418 36.1505 63.8118 36.1505 65.6963L36.1505 74.5078L32.3047 74.5078L32.3047 65.802C32.3263 62.172 35.47 58.7503 39.5005 58.7013L39.608 58.7013C43.6385 58.7503 46.7822 62.172 46.8038 65.802L46.8038 74.5078L42.958 74.5078L42.958 65.6963C42.958 63.8118 41.3753 62.5418 39.553 62.5285M48.624 66.7558C48.624 65.6252 48.8132 64.5705 49.1917 63.5915C49.5703 62.6125 50.1003 61.7595 50.7815 61.033C51.4627 60.3062 52.278 59.736 53.2268 59.3222C54.1755 58.9083 55.215 58.7013 56.3458 58.7013C57.2035 58.7013 57.9858 58.8275 58.6923 59.0797C59.399 59.3323 60.0752 59.741 60.7212 60.3062L60.7212 54.356L64.5667 54.356L64.5667 74.5078L60.7212 74.5078L60.7212 73.2055C60.0752 73.7807 59.399 74.1923 58.6923 74.4395C57.9858 74.6868 57.2035 74.8102 56.3458 74.8102C55.215 74.8102 54.1755 74.6035 53.2268 74.1895C52.278 73.776 51.4627 73.2055 50.7815 72.479C50.1003 71.7523 49.5703 70.8992 49.192 69.92C48.8132 68.9412 48.624 67.8865 48.624 66.7558ZM56.8453 71.1917C57.148 71.1917 57.466 71.1593 57.799 71.0935C58.132 71.0277 58.4678 70.9167 58.806 70.7605C59.144 70.604 59.4745 70.3945 59.7975 70.132C60.1205 69.8697 60.4282 69.5468 60.7212 69.163L60.7212 64.3485C60.4282 63.965 60.1205 63.6448 59.7975 63.3873C59.4745 63.13 59.144 62.9203 58.806 62.7587C58.4678 62.5973 58.132 62.4838 57.799 62.4183C57.466 62.3525 57.148 62.32 56.8453 62.3197C56.2497 62.3197 55.692 62.4308 55.1722 62.6527C54.6523 62.875 54.2005 63.1855 53.8173 63.584C53.4335 63.9828 53.1332 64.4523 52.9162 64.992C52.6992 65.532 52.5907 66.12 52.591 66.7558C52.591 67.3918 52.6992 67.9797 52.9162 68.5198C53.1332 69.0597 53.4335 69.529 53.8173 69.9278C54.2007 70.3265 54.6523 70.6368 55.1722 70.859C55.692 71.0807 56.2497 71.1917 56.8453 71.1917ZM82.5755 71.1917C83.1508 71.1917 83.6933 71.0833 84.203 70.8662C84.7048 70.6548 85.1582 70.3432 85.5355 69.9505C85.914 69.5567 86.2117 69.09 86.4287 68.55C86.6458 68.01 86.7542 67.412 86.7542 66.7558C86.7542 66.1098 86.6432 65.5168 86.421 64.9767C86.199 64.437 85.896 63.97 85.5127 63.5765C85.1325 63.1853 84.68 62.8715 84.1803 62.6527C83.6757 62.4308 83.1405 62.32 82.5755 62.3197C82.0002 62.3197 81.4578 62.4308 80.9477 62.6527C80.4467 62.869 79.9938 63.183 79.6155 63.5765C79.237 63.97 78.9368 64.437 78.7147 64.9767C78.4925 65.5168 78.3815 66.1098 78.3815 66.756C78.3815 67.412 78.49 68.01 78.707 68.55C78.924 69.09 79.2218 69.5567 79.6005 69.9505C79.9778 70.3432 80.431 70.6548 80.9327 70.8662C81.4425 71.0833 81.99 71.1917 82.5755 71.1917ZM82.5755 74.8102C81.4553 74.8102 80.4005 74.6085 79.411 74.2048C78.4218 73.801 77.5565 73.2385 76.8148 72.5168C76.0727 71.795 75.4873 70.942 75.0583 69.958C74.6295 68.9737 74.415 67.9065 74.415 66.7558C74.415 65.6355 74.6295 64.5858 75.0583 63.6067C75.4875 62.6277 76.0703 61.7747 76.8072 61.0483C77.5438 60.3212 78.4093 59.7485 79.4035 59.3295C80.3978 58.9108 81.4553 58.7013 82.5755 58.7013C83.6958 58.7013 84.7507 58.9108 85.7398 59.3295C86.729 59.7485 87.592 60.3212 88.3287 61.0483C89.0657 61.7747 89.6483 62.6277 90.0775 63.6067C90.5065 64.5858 90.7207 65.6355 90.7207 66.7558C90.7207 67.9065 90.5065 68.9737 90.0775 69.958C89.6485 70.942 89.063 71.795 88.3213 72.5168C87.5793 73.2385 86.7163 73.801 85.732 74.2048C84.748 74.6085 83.6958 74.8102 82.5755 74.8102ZM94.3667 57.7903C94.055 57.7903 93.7605 57.7295 93.483 57.6075C93.2108 57.4892 92.963 57.3207 92.753 57.111C92.543 56.901 92.3748 56.6532 92.2565 56.3807C92.1345 56.1022 92.0722 55.8013 92.0738 55.497C92.0738 55.1857 92.1345 54.8888 92.2565 54.6063C92.3732 54.331 92.542 54.0808 92.753 53.869C92.963 53.659 93.2108 53.4905 93.4832 53.3723C93.7618 53.2503 94.0627 53.1882 94.367 53.1897C94.6783 53.1897 94.9753 53.2505 95.2575 53.3723C95.5327 53.4892 95.7832 53.6578 95.995 53.869C96.2062 54.0808 96.3748 54.331 96.4917 54.6063C96.6135 54.8888 96.6743 55.1857 96.6743 55.4973C96.6743 55.8088 96.6135 56.1033 96.4917 56.381C96.3735 56.6532 96.205 56.901 95.995 57.111C95.7832 57.322 95.533 57.4907 95.2575 57.6075C94.9765 57.729 94.673 57.7912 94.3667 57.7903ZM92.4437 59.004L96.2892 59.004L96.2892 74.5078L92.4437 74.5078L92.4437 59.004ZM98.0575 66.7558C98.0575 65.6252 98.2468 64.5705 98.6252 63.5915C99.0037 62.6125 99.5335 61.7595 100.215 61.033C100.896 60.3062 101.711 59.736 102.66 59.3222C103.609 58.9083 104.648 58.7013 105.779 58.7013C106.637 58.7013 107.419 58.8275 108.126 59.0797C108.832 59.3323 109.508 59.741 110.154 60.3062L110.154 54.356L114 54.356L114 74.5078L110.154 74.5078L110.154 73.2055C109.508 73.7807 108.832 74.1923 108.126 74.4395C107.419 74.6868 106.637 74.8102 105.779 74.8102C104.648 74.8102 103.609 74.6035 102.66 74.1895C101.711 73.776 100.896 73.2055 100.215 72.479C99.5335 71.7523 99.0037 70.8992 98.6252 69.92C98.2468 68.9412 98.0575 67.8865 98.0575 66.7558ZM106.278 71.1917C106.581 71.1917 106.899 71.1593 107.232 71.0935C107.566 71.0277 107.901 70.9167 108.239 70.7605C108.578 70.604 108.908 70.3945 109.231 70.132C109.554 69.8697 109.862 69.5468 110.154 69.163L110.154 64.3485C109.862 63.965 109.554 63.6448 109.231 63.3873C108.908 63.13 108.578 62.9203 108.239 62.7587C107.901 62.5973 107.566 62.4838 107.232 62.4183C106.899 62.3525 106.581 62.32 106.278 62.3197C105.683 62.3197 105.125 62.4308 104.606 62.6527C104.085 62.875 103.634 63.1855 103.251 63.584C102.867 63.9828 102.567 64.4523 102.35 64.992C102.133 65.532 102.024 66.12 102.024 66.7558C102.024 67.3918 102.133 67.9797 102.35 68.5198C102.567 69.0597 102.867 69.529 103.251 69.9278C103.634 70.3265 104.086 70.6368 104.606 70.859C105.126 71.0807 105.683 71.1917 106.278 71.1917ZM74.0485 62.482C71.4712 62.482 70.3347 63.8118 70.3347 65.6963L70.3347 74.5078L66.4892 74.5078L66.4892 65.802C66.5108 62.172 68.6077 58.603 74.0485 58.603" fill="#2f2f2f" fill-rule="nonzero" opacity="1" stroke="none" vectornator:layerName="path"/>
</g>
</svg>
