<?xml version="1.0" encoding="UTF-8" standalone="no"?>
<!DOCTYPE svg PUBLIC "-//W3C//DTD SVG 1.1//EN" "http://www.w3.org/Graphics/SVG/1.1/DTD/svg11.dtd">
<!-- Created with Vectornator (http://vectornator.io/) -->
<svg height="512.0pt" stroke-miterlimit="10" style="fill-rule:nonzero;clip-rule:evenodd;stroke-linecap:round;stroke-linejoin:round;" version="1.1" viewBox="0 0 512 512" width="512.0pt" xml:space="preserve" xmlns="http://www.w3.org/2000/svg" xmlns:xlink="http://www.w3.org/1999/xlink">
<defs/>
<g id="Ebene-1">
<path d="M0 95C0 42.5329 42.5329 0 95 0L417 0C469.467 0 512 42.5329 512 95L512 417C512 469.467 469.467 512 417 512L95 512C42.5329 512 0 469.467 0 417L0 95Z" fill="#3ddb85" fill-rule="nonzero" opacity="1" stroke="none"/>
<path d="M56 267.023C56 262.501 56.757 258.282 58.271 254.366C59.785 250.45 61.9043 247.038 64.6297 244.132C67.3551 241.225 70.6154 238.944 74.4106 237.289C78.2058 235.633 82.3639 234.805 86.8856 234.805C90.3179 234.805 93.4367 235.31 96.2426 236.319C99.0485 237.329 101.764 238.984 104.387 241.285L104.387 236.016L119.77 236.016L119.77 298.031L104.387 298.031L104.387 292.761C101.764 295.063 99.0485 296.719 96.2426 297.727C93.4367 298.737 90.3179 299.241 86.8856 299.241C82.3639 299.241 78.205 298.414 74.4106 296.758C70.6154 295.104 67.3551 292.822 64.6297 289.916C61.9043 287.008 59.785 283.597 58.271 279.68C56.757 275.765 56 271.546 56 267.023ZM88.8844 284.767C90.0958 284.767 91.3674 284.637 92.7 284.374C94.0318 284.111 95.3745 283.667 96.7274 283.042C98.0796 282.416 99.402 281.578 100.694 280.528C101.986 279.479 103.217 278.187 104.387 276.652L104.387 257.394C103.217 255.86 101.986 254.579 100.694 253.549C99.4012 252.52 98.0796 251.681 96.7267 251.035C95.3737 250.389 94.0318 249.935 92.6992 249.673C91.3674 249.41 90.095 249.28 88.8844 249.279C86.5024 249.279 84.2712 249.723 82.1926 250.611C80.1124 251.5 78.3059 252.742 76.7723 254.336C75.238 255.931 74.0368 257.809 73.1687 259.968C72.3007 262.128 71.8666 264.48 71.8666 267.023C71.8666 269.567 72.3007 271.919 73.1687 274.079C74.0368 276.239 75.238 278.116 76.7723 279.711C78.3067 281.306 80.1132 282.547 82.1918 283.436C84.272 284.323 86.5024 284.767 88.8844 284.767ZM158.223 250.114C150.934 250.167 144.602 255.247 144.602 262.785L144.602 298.031L129.219 298.031L129.219 263.208C129.305 248.688 141.88 235.001 158.002 234.805L158.432 234.805C174.554 235.001 187.129 248.688 187.215 263.208L187.215 298.031L171.832 298.031L171.832 262.785C171.832 255.247 165.501 250.167 158.212 250.114M194.496 267.023C194.496 262.501 195.253 258.282 196.767 254.366C198.281 250.45 200.401 247.038 203.126 244.132C205.851 241.225 209.112 238.944 212.907 237.289C216.702 235.633 220.86 234.805 225.383 234.805C228.814 234.805 231.943 235.31 234.769 236.319C237.596 237.329 240.301 238.964 242.885 241.225L242.885 217.424L258.267 217.424L258.267 298.031L242.885 298.031L242.885 292.822C240.301 295.123 237.596 296.769 234.769 297.758C231.943 298.747 228.814 299.241 225.383 299.241C220.86 299.241 216.702 298.414 212.907 296.758C209.112 295.104 205.851 292.822 203.126 289.916C200.401 287.009 198.281 283.597 196.768 279.68C195.253 275.765 194.496 271.546 194.496 267.023ZM227.381 284.767C228.592 284.767 229.864 284.637 231.196 284.374C232.528 284.111 233.871 283.667 235.224 283.042C236.576 282.416 237.898 281.578 239.19 280.528C240.482 279.479 241.713 278.187 242.885 276.652L242.885 257.394C241.713 255.86 240.482 254.579 239.19 253.549C237.898 252.52 236.576 251.681 235.224 251.035C233.871 250.389 232.528 249.935 231.196 249.673C229.864 249.41 228.592 249.28 227.381 249.279C224.999 249.279 222.768 249.723 220.689 250.611C218.609 251.5 216.802 252.742 215.269 254.336C213.734 255.931 212.533 257.809 211.665 259.968C210.797 262.128 210.363 264.48 210.364 267.023C210.364 269.567 210.797 271.919 211.665 274.079C212.533 276.239 213.734 278.116 215.269 279.711C216.803 281.306 218.609 282.547 220.689 283.436C222.768 284.323 224.999 284.767 227.381 284.767ZM330.302 284.767C332.603 284.767 334.773 284.333 336.812 283.465C338.819 282.619 340.633 281.373 342.142 279.802C343.656 278.227 344.847 276.36 345.715 274.2C346.583 272.04 347.017 269.648 347.017 267.023C347.017 264.439 346.573 262.067 345.684 259.907C344.796 257.748 343.584 255.88 342.051 254.306C340.53 252.741 338.72 251.486 336.721 250.611C334.703 249.723 332.562 249.28 330.302 249.279C328.001 249.279 325.831 249.723 323.791 250.611C321.787 251.476 319.975 252.732 318.462 254.306C316.948 255.88 315.747 257.748 314.859 259.907C313.97 262.067 313.526 264.439 313.526 267.024C313.526 269.648 313.96 272.04 314.828 274.2C315.696 276.36 316.887 278.227 318.402 279.802C319.911 281.373 321.724 282.619 323.731 283.465C325.77 284.333 327.96 284.767 330.302 284.767ZM330.302 299.241C325.821 299.241 321.602 298.434 317.644 296.819C313.687 295.204 310.226 292.954 307.259 290.067C304.291 287.18 301.949 283.768 300.233 279.832C298.518 275.895 297.66 271.626 297.66 267.023C297.66 262.542 298.518 258.343 300.233 254.427C301.95 250.511 304.281 247.099 307.229 244.193C310.175 241.285 313.637 238.994 317.614 237.318C321.591 235.643 325.821 234.805 330.302 234.805C334.783 234.805 339.003 235.643 342.959 237.318C346.916 238.994 350.368 241.285 353.315 244.193C356.263 247.099 358.593 250.511 360.31 254.427C362.026 258.343 362.883 262.542 362.883 267.023C362.883 271.626 362.026 275.895 360.31 279.832C358.594 283.768 356.252 287.18 353.285 290.067C350.317 292.954 346.865 295.204 342.928 296.819C338.992 298.434 334.783 299.241 330.302 299.241ZM377.467 231.161C376.22 231.161 375.042 230.918 373.932 230.43C372.843 229.957 371.852 229.283 371.012 228.444C370.172 227.604 369.499 226.613 369.026 225.523C368.538 224.409 368.289 223.205 368.295 221.988C368.295 220.743 368.538 219.555 369.026 218.425C369.493 217.324 370.168 216.323 371.012 215.476C371.852 214.636 372.843 213.962 373.933 213.489C375.047 213.001 376.251 212.753 377.468 212.759C378.713 212.759 379.901 213.002 381.03 213.489C382.131 213.957 383.133 214.631 383.98 215.476C384.825 216.323 385.499 217.324 385.967 218.425C386.454 219.555 386.697 220.743 386.697 221.989C386.697 223.235 386.454 224.413 385.967 225.524C385.494 226.613 384.82 227.604 383.98 228.444C383.133 229.288 382.132 229.963 381.03 230.43C379.906 230.916 378.692 231.165 377.467 231.161ZM369.775 236.016L385.157 236.016L385.157 298.031L369.775 298.031L369.775 236.016ZM392.23 267.023C392.23 262.501 392.987 258.282 394.501 254.366C396.015 250.45 398.134 247.038 400.86 244.132C403.585 241.225 406.845 238.944 410.641 237.289C414.435 235.633 418.594 234.805 423.116 234.805C426.547 234.805 429.677 235.31 432.502 236.319C435.329 237.329 438.034 238.964 440.617 241.225L440.617 217.424L456 217.424L456 298.031L440.617 298.031L440.617 292.822C438.034 295.123 435.329 296.769 432.502 297.758C429.676 298.747 426.547 299.241 423.116 299.241C418.594 299.241 414.435 298.414 410.641 296.758C406.845 295.104 403.585 292.822 400.86 289.916C398.134 287.009 396.015 283.597 394.501 279.68C392.987 275.765 392.23 271.546 392.23 267.023ZM425.114 284.767C426.325 284.767 427.597 284.637 428.929 284.374C430.262 284.111 431.604 283.667 432.957 283.042C434.31 282.416 435.631 281.578 436.923 280.528C438.215 279.479 439.447 278.187 440.617 276.652L440.617 257.394C439.447 255.86 438.215 254.579 436.923 253.549C435.631 252.52 434.31 251.681 432.957 251.035C431.604 250.389 430.262 249.935 428.929 249.673C427.597 249.41 426.325 249.28 425.114 249.279C422.732 249.279 420.501 249.723 418.423 250.611C416.342 251.5 414.536 252.742 413.002 254.336C411.468 255.931 410.267 257.809 409.399 259.968C408.531 262.128 408.097 264.48 408.097 267.023C408.097 269.567 408.531 271.919 409.399 274.079C410.267 276.239 411.468 278.116 413.002 279.711C414.537 281.306 416.343 282.547 418.422 283.436C420.502 284.323 422.732 284.767 425.114 284.767ZM296.194 249.928C285.885 249.928 281.339 255.247 281.339 262.785L281.339 298.031L265.957 298.031L265.957 263.208C266.043 248.688 274.431 234.412 296.194 234.412" fill="#2f2f2f" fill-rule="nonzero" opacity="1" stroke="none"/>
</g>
</svg>
