<?xml version="1.0" encoding="UTF-8" standalone="no"?>
<!DOCTYPE svg PUBLIC "-//W3C//DTD SVG 1.1//EN" "http://www.w3.org/Graphics/SVG/1.1/DTD/svg11.dtd">
<!-- Created with Vectornator (http://vectornator.io/) -->
<svg height="100%" stroke-miterlimit="10" style="fill-rule:nonzero;clip-rule:evenodd;stroke-linecap:round;stroke-linejoin:round;" version="1.1" viewBox="0 0 512 512" width="100%" xml:space="preserve" xmlns="http://www.w3.org/2000/svg" xmlns:vectornator="http://vectornator.io" xmlns:xlink="http://www.w3.org/1999/xlink">
<defs>
<linearGradient gradientTransform="matrix(3.61224 0 0 3.70542 70.6342 56)" gradientUnits="userSpaceOnUse" id="LinearGradient" x1="39.4048" x2="87.2496" y1="65.1142" y2="92.5933">
<stop offset="0" stop-color="#263238" stop-opacity="0.2"/>
<stop offset="1" stop-color="#263238" stop-opacity="0.02"/>
</linearGradient>
<radialGradient cx="15.8288" cy="14.5634" gradientTransform="matrix(3.52215 0 0 3.80021 318.627 -255.121)" gradientUnits="userSpaceOnUse" id="RadialGradient" r="124.733">
<stop offset="0" stop-color="#ffffff" stop-opacity="0.1"/>
<stop offset="1" stop-color="#ffffff" stop-opacity="0"/>
</radialGradient>
</defs>
<g id="Ebene-1" vectornator:layerName="Ebene 1">
<path d="M2.84217e-14 95C2.84217e-14 42.5329 42.5329 0 95 0L417 0C469.467 0 512 42.5329 512 95L512 417C512 469.467 469.467 512 417 512L95 512C42.5329 512 2.84217e-14 469.467 2.84217e-14 417L2.84217e-14 95Z" fill="#242628" fill-rule="nonzero" opacity="1" stroke="none" vectornator:layerName="Rechteck 1"/>
<g opacity="1" vectornator:layerName="Android_Studio_Icon_3.6.svg">
<g opacity="1" vectornator:layerName="path">
<clipPath clip-rule="nonzero" id="ClipPath">
<path d="M441.366 241.366C441.366 139 358.366 56 256 56C153.634 56 70.6342 139 70.6342 241.366C70.6342 297.659 95.7561 348.049 135.366 382.024L113.122 420.537L113.122 451.122C113.122 453.805 115.317 456 118 456C118.902 456 119.732 455.756 120.463 455.341L146.927 440.073L167.585 404.317C193.854 418.61 223.976 426.732 256 426.732C288.024 426.732 318.146 418.61 344.439 404.317L365.098 440.073L391.561 455.341C392.293 455.756 393.122 456 394.024 456C396.707 456 398.902 453.805 398.902 451.122L398.902 420.537L376.659 382.024C416.244 348.049 441.366 297.659 441.366 241.366Z"/>
</clipPath>
<g clip-path="url(#ClipPath)">
<path d="M70.6342 241.366C70.6342 138.991 153.625 56 256 56C358.375 56 441.366 138.991 441.366 241.366C441.366 343.741 358.375 426.732 256 426.732C153.625 426.732 70.6342 343.741 70.6342 241.366Z" fill="#45ef8a" fill-rule="nonzero" opacity="1" stroke="none" vectornator:layerName="circle"/>
</g>
</g>
<g opacity="1" vectornator:layerName="path">
<clipPath clip-rule="nonzero" id="ClipPath_2">
<path d="M441.366 241.366C441.366 139 358.366 56 256 56C153.634 56 70.6342 139 70.6342 241.366C70.6342 297.659 95.7561 348.049 135.366 382.024L113.122 420.537L113.122 451.122C113.122 453.805 115.317 456 118 456C118.902 456 119.732 455.756 120.463 455.341L146.927 440.073L167.585 404.317C193.854 418.61 223.976 426.732 256 426.732C288.024 426.732 318.146 418.61 344.439 404.317L365.098 440.073L391.561 455.341C392.293 455.756 393.122 456 394.024 456C396.707 456 398.902 453.805 398.902 451.122L398.902 420.537L376.659 382.024C416.244 348.049 441.366 297.659 441.366 241.366Z"/>
</clipPath>
<g clip-path="url(#ClipPath_2)">
<path d="M256 424.293C357.561 424.293 440 342.61 441.293 241.366L441.366 241.366C441.366 343.732 358.366 426.732 256 426.732C153.634 426.732 70.6342 343.732 70.6342 241.366L70.7073 241.366C72 342.61 154.439 424.293 256 424.293Z" fill="#263238" fill-opacity="0.2" fill-rule="nonzero" opacity="1" stroke="none" vectornator:layerName="path"/>
</g>
</g>
<g opacity="1" vectornator:layerName="path">
<clipPath clip-rule="nonzero" id="ClipPath_3">
<path d="M441.366 241.366C441.366 139 358.366 56 256 56C153.634 56 70.6342 139 70.6342 241.366C70.6342 297.659 95.7561 348.049 135.366 382.024L113.122 420.537L113.122 451.122C113.122 453.805 115.317 456 118 456C118.902 456 119.732 455.756 120.463 455.341L146.927 440.073L167.585 404.317C193.854 418.61 223.976 426.732 256 426.732C288.024 426.732 318.146 418.61 344.439 404.317L365.098 440.073L391.561 455.341C392.293 455.756 393.122 456 394.024 456C396.707 456 398.902 453.805 398.902 451.122L398.902 420.537L376.659 382.024C416.244 348.049 441.366 297.659 441.366 241.366Z"/>
</clipPath>
<g clip-path="url(#ClipPath_3)">
<path d="M256 56C153.634 56 70.6342 139 70.6342 241.366L441.366 241.366C441.366 139 358.366 56 256 56Z" fill="#3ddc84" fill-rule="nonzero" opacity="1" stroke="none" vectornator:layerName="path"/>
</g>
</g>
<g opacity="1" vectornator:layerName="path">
<clipPath clip-rule="nonzero" id="ClipPath_4">
<path d="M441.366 241.366C441.366 139 358.366 56 256 56C153.634 56 70.6342 139 70.6342 241.366C70.6342 297.659 95.7561 348.049 135.366 382.024L113.122 420.537L113.122 451.122C113.122 453.805 115.317 456 118 456C118.902 456 119.732 455.756 120.463 455.341L146.927 440.073L167.585 404.317C193.854 418.61 223.976 426.732 256 426.732C288.024 426.732 318.146 418.61 344.439 404.317L365.098 440.073L391.561 455.341C392.293 455.756 393.122 456 394.024 456C396.707 456 398.902 453.805 398.902 451.122L398.902 420.537L376.659 382.024C416.244 348.049 441.366 297.659 441.366 241.366Z"/>
</clipPath>
<g clip-path="url(#ClipPath_4)">
<path d="M231.61 212.098C231.61 198.627 242.53 187.707 256 187.707C269.47 187.707 280.39 198.627 280.39 212.098C280.39 225.568 269.47 236.488 256 236.488C242.53 236.488 231.61 225.568 231.61 212.098Z" fill="#3ddc84" fill-rule="nonzero" opacity="1" stroke="none" vectornator:layerName="circle"/>
</g>
</g>
<g opacity="1" vectornator:layerName="path">
<clipPath clip-rule="nonzero" id="ClipPath_5">
<path d="M441.366 241.366C441.366 139 358.366 56 256 56C153.634 56 70.6342 139 70.6342 241.366C70.6342 297.659 95.7561 348.049 135.366 382.024L113.122 420.537L113.122 451.122C113.122 453.805 115.317 456 118 456C118.902 456 119.732 455.756 120.463 455.341L146.927 440.073L167.585 404.317C193.854 418.61 223.976 426.732 256 426.732C288.024 426.732 318.146 418.61 344.439 404.317L365.098 440.073L391.561 455.341C392.293 455.756 393.122 456 394.024 456C396.707 456 398.902 453.805 398.902 451.122L398.902 420.537L376.659 382.024C416.244 348.049 441.366 297.659 441.366 241.366Z"/>
</clipPath>
<g clip-path="url(#ClipPath_5)">
<path d="M441.366 241.366L70.6342 241.366L70.6342 238.927L441.366 238.927L441.366 241.366Z" fill="#263238" fill-opacity="0.05" fill-rule="nonzero" opacity="1" stroke="none" vectornator:layerName="polygon"/>
</g>
</g>
<g opacity="1" vectornator:layerName="path">
<clipPath clip-rule="nonzero" id="ClipPath_6">
<path d="M441.366 241.366C441.366 139 358.366 56 256 56C153.634 56 70.6342 139 70.6342 241.366C70.6342 297.659 95.7561 348.049 135.366 382.024L113.122 420.537L113.122 451.122C113.122 453.805 115.317 456 118 456C118.902 456 119.732 455.756 120.463 455.341L146.927 440.073L167.585 404.317C193.854 418.61 223.976 426.732 256 426.732C288.024 426.732 318.146 418.61 344.439 404.317L365.098 440.073L391.561 455.341C392.293 455.756 393.122 456 394.024 456C396.707 456 398.902 453.805 398.902 451.122L398.902 420.537L376.659 382.024C416.244 348.049 441.366 297.659 441.366 241.366Z"/>
</clipPath>
<g clip-path="url(#ClipPath_6)">
<path d="M441.366 243.805L70.6342 243.805L70.6342 241.366L441.366 241.366L441.366 243.805Z" fill="#ffffff" fill-opacity="0.05" fill-rule="nonzero" opacity="1" stroke="none" vectornator:layerName="polygon"/>
</g>
</g>
<g opacity="1" vectornator:layerName="path">
<clipPath clip-rule="nonzero" id="ClipPath_7">
<path d="M441.366 241.366C441.366 139 358.366 56 256 56C153.634 56 70.6342 139 70.6342 241.366C70.6342 297.659 95.7561 348.049 135.366 382.024L113.122 420.537L113.122 451.122C113.122 453.805 115.317 456 118 456C118.902 456 119.732 455.756 120.463 455.341L146.927 440.073L167.585 404.317C193.854 418.61 223.976 426.732 256 426.732C288.024 426.732 318.146 418.61 344.439 404.317L365.098 440.073L391.561 455.341C392.293 455.756 393.122 456 394.024 456C396.707 456 398.902 453.805 398.902 451.122L398.902 420.537L376.659 382.024C416.244 348.049 441.366 297.659 441.366 241.366Z"/>
</clipPath>
<g clip-path="url(#ClipPath_7)">
<path d="M216.561 241.366L118 456L441.366 456L441.366 290.146L275.512 124.293L236.488 153.561L216.561 241.366Z" fill="url(#LinearGradient)" fill-rule="nonzero" opacity="1" stroke="none" vectornator:layerName="polygon"/>
</g>
</g>
<g opacity="1" vectornator:layerName="path">
<clipPath clip-rule="nonzero" id="ClipPath_8">
<path d="M441.366 241.366C441.366 139 358.366 56 256 56C153.634 56 70.6342 139 70.6342 241.366C70.6342 297.659 95.7561 348.049 135.366 382.024L113.122 420.537L113.122 451.122C113.122 453.805 115.317 456 118 456C118.902 456 119.732 455.756 120.463 455.341L146.927 440.073L167.585 404.317C193.854 418.61 223.976 426.732 256 426.732C288.024 426.732 318.146 418.61 344.439 404.317L365.098 440.073L391.561 455.341C392.293 455.756 393.122 456 394.024 456C396.707 456 398.902 453.805 398.902 451.122L398.902 420.537L376.659 382.024C416.244 348.049 441.366 297.659 441.366 241.366Z"/>
</clipPath>
<g clip-path="url(#ClipPath_8)">
<path d="M256 58.439C357.561 58.439 440 140.122 441.293 241.366L441.366 241.366C441.366 139 358.366 56 256 56C153.634 56 70.6342 139 70.6342 241.366L70.7073 241.366C72 140.122 154.439 58.439 256 58.439Z" fill="#ffffff" fill-opacity="0.2" fill-rule="nonzero" opacity="1" stroke="none" vectornator:layerName="path"/>
</g>
</g>
<g opacity="1" vectornator:layerName="path">
<clipPath clip-rule="nonzero" id="ClipPath_9">
<path d="M441.366 241.366C441.366 139 358.366 56 256 56C153.634 56 70.6342 139 70.6342 241.366C70.6342 297.659 95.7561 348.049 135.366 382.024L113.122 420.537L113.122 451.122C113.122 453.805 115.317 456 118 456C118.902 456 119.732 455.756 120.463 455.341L146.927 440.073L167.585 404.317C193.854 418.61 223.976 426.732 256 426.732C288.024 426.732 318.146 418.61 344.439 404.317L365.098 440.073L391.561 455.341C392.293 455.756 393.122 456 394.024 456C396.707 456 398.902 453.805 398.902 451.122L398.902 420.537L376.659 382.024C416.244 348.049 441.366 297.659 441.366 241.366Z"/>
</clipPath>
<g clip-path="url(#ClipPath_9)">
<path d="M295.439 241.366L250.366 241.366L365.098 440.073L391.561 455.341C392.293 455.756 393.122 456 394.024 456C396.707 456 398.902 453.805 398.902 451.122L398.902 420.537L295.439 241.366Z" fill="#d7effe" fill-rule="nonzero" opacity="1" stroke="none" vectornator:layerName="path"/>
<path d="M295.439 241.366L250.366 241.366L365.098 440.073L391.561 455.341C392.293 455.756 393.122 456 394.024 456C396.707 456 398.902 453.805 398.902 451.122L398.902 420.537L295.439 241.366Z" fill="#bdbdbd" fill-rule="nonzero" opacity="0.3" stroke="none" vectornator:layerName="path"/>
<path d="M398.878 420.537L295.439 241.366L294.024 241.366L398.878 422.976L398.878 420.537Z" fill="#ffffff" fill-opacity="0.2" fill-rule="nonzero" opacity="1" stroke="none" vectornator:layerName="polygon"/>
<path d="M394 453.561C393.098 453.561 392.268 453.317 391.537 452.902L365.073 437.634L251.78 241.366L250.366 241.366L365.098 440.073L391.561 455.341C392.293 455.756 393.122 456 394.024 456C396.707 456 398.902 453.805 398.902 451.122L398.902 448.683C398.878 451.366 396.683 453.561 394 453.561Z" fill="#212121" fill-opacity="0.1" fill-rule="nonzero" opacity="1" stroke="none" vectornator:layerName="path"/>
</g>
</g>
<g opacity="1" vectornator:layerName="path">
<clipPath clip-rule="nonzero" id="ClipPath_10">
<path d="M441.366 241.366C441.366 139 358.366 56 256 56C153.634 56 70.6342 139 70.6342 241.366C70.6342 297.659 95.7561 348.049 135.366 382.024L113.122 420.537L113.122 451.122C113.122 453.805 115.317 456 118 456C118.902 456 119.732 455.756 120.463 455.341L146.927 440.073L167.585 404.317C193.854 418.61 223.976 426.732 256 426.732C288.024 426.732 318.146 418.61 344.439 404.317L365.098 440.073L391.561 455.341C392.293 455.756 393.122 456 394.024 456C396.707 456 398.902 453.805 398.902 451.122L398.902 420.537L376.659 382.024C416.244 348.049 441.366 297.659 441.366 241.366Z"/>
</clipPath>
<g clip-path="url(#ClipPath_10)">
<path d="M353.561 241.366C353.561 295.244 309.878 338.927 256 338.927C239.976 338.927 224.854 335.049 211.512 328.195L256 251.122L261.634 241.366L216.561 241.366L113.098 420.537L113.098 451.122C113.098 453.805 115.293 456 117.976 456C118.878 456 119.707 455.756 120.439 455.341L146.902 440.073L191.976 362.024C211.073 372.171 232.854 377.951 256 377.951C331.439 377.951 392.585 316.805 392.585 241.366L353.561 241.366Z" fill="#d7effe" fill-rule="nonzero" opacity="1" stroke="none" vectornator:layerName="path"/>
<path d="M216.561 241.366L113.098 420.537L113.098 422.976L217.976 241.366L216.561 241.366ZM256 338.927C239.976 338.927 224.854 335.049 211.512 328.195L211.512 330.634C224.854 337.488 239.976 341.366 256 341.366C309.878 341.366 353.561 297.683 353.561 243.805L392.512 243.805C392.537 243 392.585 242.195 392.585 241.366L353.561 241.366C353.561 295.244 309.878 338.927 256 338.927Z" fill="#ffffff" fill-opacity="0.4" fill-rule="nonzero" opacity="1" stroke="none" vectornator:layerName="path"/>
<path d="M261.634 241.366L260.22 241.366L211.488 325.756L211.488 328.195L261.634 241.366ZM392.512 241.366C391.195 315.659 330.61 375.512 256 375.512C232.854 375.512 211.073 369.732 191.976 359.585L146.902 437.634L120.439 452.902C119.707 453.317 118.878 453.561 117.976 453.561C115.293 453.561 113.098 451.366 113.098 448.683L113.098 451.122C113.098 453.805 115.293 456 117.976 456C118.878 456 119.707 455.756 120.439 455.341L146.902 440.073L191.976 362.024C211.073 372.171 232.854 377.951 256 377.951C331.439 377.951 392.585 316.805 392.585 241.366L392.512 241.366Z" fill="#212121" fill-opacity="0.1" fill-rule="nonzero" opacity="1" stroke="none" vectornator:layerName="path"/>
</g>
</g>
<g opacity="1" vectornator:layerName="path">
<clipPath clip-rule="nonzero" id="ClipPath_11">
<path d="M441.366 241.366C441.366 139 358.366 56 256 56C153.634 56 70.6342 139 70.6342 241.366C70.6342 297.659 95.7561 348.049 135.366 382.024L113.122 420.537L113.122 451.122C113.122 453.805 115.317 456 118 456C118.902 456 119.732 455.756 120.463 455.341L146.927 440.073L167.585 404.317C193.854 418.61 223.976 426.732 256 426.732C288.024 426.732 318.146 418.61 344.439 404.317L365.098 440.073L391.561 455.341C392.293 455.756 393.122 456 394.024 456C396.707 456 398.902 453.805 398.902 451.122L398.902 420.537L376.659 382.024C416.244 348.049 441.366 297.659 441.366 241.366Z"/>
</clipPath>
<g clip-path="url(#ClipPath_11)">
<path d="M299.902 153.561L275.512 153.561L275.512 124.293L236.488 124.293L236.488 153.561L212.098 153.561C204.049 153.561 197.463 160.146 197.463 168.195L197.463 241.366L245.659 289.512C248.317 292.146 251.951 293.805 256 293.805C260.049 293.805 263.707 292.171 266.341 289.512L314.537 241.366L314.537 168.195C314.537 160.146 307.951 153.561 299.902 153.561ZM256 236.488C242.537 236.488 231.61 225.561 231.61 212.098C231.61 198.634 242.537 187.707 256 187.707C269.463 187.707 280.39 198.634 280.39 212.098C280.39 225.561 269.463 236.488 256 236.488Z" fill="#073042" fill-rule="nonzero" opacity="1" stroke="none" vectornator:layerName="path"/>
</g>
</g>
<g opacity="1" vectornator:layerName="path">
<clipPath clip-rule="nonzero" id="ClipPath_12">
<path d="M441.366 241.366C441.366 139 358.366 56 256 56C153.634 56 70.6342 139 70.6342 241.366C70.6342 297.659 95.7561 348.049 135.366 382.024L113.122 420.537L113.122 451.122C113.122 453.805 115.317 456 118 456C118.902 456 119.732 455.756 120.463 455.341L146.927 440.073L167.585 404.317C193.854 418.61 223.976 426.732 256 426.732C288.024 426.732 318.146 418.61 344.439 404.317L365.098 440.073L391.561 455.341C392.293 455.756 393.122 456 394.024 456C396.707 456 398.902 453.805 398.902 451.122L398.902 420.537L376.659 382.024C416.244 348.049 441.366 297.659 441.366 241.366Z"/>
</clipPath>
<g clip-path="url(#ClipPath_12)">
<path d="M299.902 153.561L275.512 153.561L275.512 156L299.902 156C307.951 156 314.537 162.585 314.537 170.634L314.537 168.195C314.537 160.146 307.951 153.561 299.902 153.561ZM275.512 124.293L236.488 124.293L236.488 126.732L275.512 126.732L275.512 124.293ZM236.488 153.561L212.098 153.561C204.049 153.561 197.463 160.146 197.463 168.195L197.463 170.634C197.463 162.585 204.049 156 212.098 156L236.488 156L236.488 153.561ZM256 236.488C242.537 236.488 231.61 225.561 231.61 212.098L231.61 214.537C231.61 228 242.537 238.927 256 238.927C269.463 238.927 280.39 228 280.39 214.537L280.39 212.098C280.39 225.561 269.463 236.488 256 236.488Z" fill="#ffffff" fill-opacity="0.1" fill-rule="nonzero" opacity="1" stroke="none" vectornator:layerName="path"/>
</g>
</g>
<g opacity="1" vectornator:layerName="path">
<clipPath clip-rule="nonzero" id="ClipPath_13">
<path d="M441.366 241.366C441.366 139 358.366 56 256 56C153.634 56 70.6342 139 70.6342 241.366C70.6342 297.659 95.7561 348.049 135.366 382.024L113.122 420.537L113.122 451.122C113.122 453.805 115.317 456 118 456C118.902 456 119.732 455.756 120.463 455.341L146.927 440.073L167.585 404.317C193.854 418.61 223.976 426.732 256 426.732C288.024 426.732 318.146 418.61 344.439 404.317L365.098 440.073L391.561 455.341C392.293 455.756 393.122 456 394.024 456C396.707 456 398.902 453.805 398.902 451.122L398.902 420.537L376.659 382.024C416.244 348.049 441.366 297.659 441.366 241.366Z"/>
</clipPath>
<g clip-path="url(#ClipPath_13)">
<path d="M256 187.707C269.463 187.707 280.39 198.634 280.39 212.098L280.39 209.659C280.39 196.195 269.463 185.268 256 185.268C242.537 185.268 231.61 196.195 231.61 209.659L231.61 212.098C231.61 198.634 242.537 187.707 256 187.707ZM266.341 287.073C263.683 289.707 260.049 291.366 256 291.366C251.951 291.366 248.293 289.732 245.659 287.073L197.463 238.927L197.463 241.366L245.659 289.512C248.317 292.146 251.951 293.805 256 293.805C260.049 293.805 263.707 292.171 266.341 289.512L314.537 241.366L314.537 238.927L266.341 287.073Z" fill="#212121" fill-opacity="0.1" fill-rule="nonzero" opacity="1" stroke="none" vectornator:layerName="path"/>
</g>
</g>
<path d="M441.366 241.366C441.366 139 358.366 56 256 56C153.634 56 70.6342 139 70.6342 241.366C70.6342 297.659 95.7561 348.049 135.366 382.024L113.122 420.537L113.122 451.122C113.122 453.805 115.317 456 118 456C118.902 456 119.732 455.756 120.463 455.341L146.927 440.073L167.585 404.317C193.854 418.61 223.976 426.732 256 426.732C288.024 426.732 318.146 418.61 344.439 404.317L365.098 440.073L391.561 455.341C392.293 455.756 393.122 456 394.024 456C396.707 456 398.902 453.805 398.902 451.122L398.902 420.537L376.659 382.024C416.244 348.049 441.366 297.659 441.366 241.366Z" fill="url(#RadialGradient)" fill-rule="nonzero" opacity="1" stroke="none" vectornator:layerName="path"/>
</g>
</g>
</svg>
