<?xml version="1.0" encoding="UTF-8"?>
<svg id="Ebene_1" data-name="Ebene 1" xmlns="http://www.w3.org/2000/svg" viewBox="0 0 256 256">
  <defs>
    <style>
      .cls-1 {
        fill: #073042;
      }

      .cls-2 {
        fill: #3870b2;
      }

      .cls-3 {
        fill: #fff;
      }

      .cls-4 {
        fill: #4285f4;
      }

      .cls-5 {
        fill: #3ddc84;
      }

      .cls-6 {
        fill: #27282c;
      }

      .cls-7 {
        fill: none;
      }
    </style>
  </defs>
  <g id="Ebene_2" data-name="Ebene 2">
    <path class="cls-6" d="m35,0h186c19.3,0,35,15.7,35,35v186c0,19.3-15.7,35-35,35H35c-19.3,0-35-15.7-35-35V35C0,15.7,15.7,0,35,0Z"/>
  </g>
  <g>
    <path class="cls-1" d="m109.73,67.66h-40.17c-8.09,0-14.71,6.03-14.71,13.41s6.13,13.41,14.22,13.41h41l-.34-26.82h0Z"/>
    <path class="cls-4" d="m201.17,187.12H69.54c-8.09,0-14.71-6.03-14.71-13.41v-92.68s-.04,13.45,15.68,13.45h109.17s21.49-1.69,21.49,12.93v79.72Z"/>
    <path class="cls-7" d="m131.67,122.63c-4.51,0-8.17,3.33-8.17,7.45s3.66,7.45,8.17,7.45,8.17-3.33,8.17-7.45-3.66-7.45-8.17-7.45h0Z"/>
    <g>
      <path class="cls-2" d="m139.75,139.64c3.15-2.21,5.18-5.67,5.18-9.57,0-6.52-5.69-11.84-12.78-12.07.15,0,.3-.02.45-.02.79,0,1.57.08,2.32.2v-7.67c0-1.28-1.14-2.32-2.55-2.32-1.41,0-2.55,1.04-2.55,2.32v7.6c-6.45.82-11.44,5.87-11.44,11.97,0,4.07,2.22,7.66,5.6,9.86l-24.26,47.19h15.85l11.2-21.85c2.07-4.01,8.33-4.03,10.43-.03l11.55,21.88h15.98l-25-47.48h0Zm-8.09-2.12c-4.51,0-8.17-3.33-8.17-7.45s3.66-7.45,8.17-7.45,8.17,3.33,8.17,7.45-3.66,7.45-8.17,7.45h0Z"/>
      <path class="cls-1" d="m127.28,122.63c4.51,0,8.17,3.33,8.17,7.45s-3.66,7.45-8.17,7.45-8.17-3.33-8.17-7.45,3.66-7.45,8.17-7.45h0Zm3.27-4.45v-7.67c0-1.28-1.14-2.32-2.55-2.32-1.41,0-2.55,1.04-2.55,2.32v7.6c-6.45.82-11.44,5.87-11.44,11.97,0,4.07,2.22,7.66,5.6,9.86l-30.63,59.49c-2.22,4.35,1.26,9.33,6.52,9.33,2.8,0,5.34-1.48,6.52-3.79l20.38-39.69c2.07-4.01,8.33-4.03,10.43-.03l20.84,39.48c1.2,2.27,3.72,3.71,6.48,3.71,5.3,0,8.78-5.05,6.48-9.4l-31.26-59.38c3.15-2.21,5.18-5.67,5.18-9.57,0-5.64-4.26-10.38-10-11.71"/>
      <path class="cls-3" d="m101.02,74.25h56.32v9.4h-56.32v-9.4Z"/>
      <path class="cls-5" d="m149.17,82.55c-2.11,0-3.83-1.57-3.83-3.49s1.72-3.49,3.83-3.49,3.83,1.57,3.83,3.49-1.72,3.49-3.83,3.49m-42.34,0c-2.11,0-3.83-1.57-3.83-3.49s1.72-3.49,3.83-3.49,3.83,1.57,3.83,3.49-1.72,3.49-3.83,3.49m43.71-21.03l7.66-12.09c.44-.69.18-1.58-.58-1.98-.76-.4-1.74-.16-2.18.53l-7.75,12.24c-5.93-2.47-12.59-3.84-19.69-3.84s-13.76,1.37-19.69,3.84l-7.75-12.24c-.44-.69-1.41-.93-2.18-.53-.76.4-1.02,1.29-.58,1.98l7.66,12.09c-13.15,6.52-22.14,18.65-23.45,32.98h91.99c-1.32-14.33-10.31-26.46-23.45-32.98"/>
      <path class="cls-1" d="m187.93,120.23h-6.08c-.4,0-.73.3-.73.67l-.15,86.98c0,.37.33.67.73.67l6.23.03c7.28,0,13.24-5.43,13.24-12.07v-88.36c0,6.64-5.96,12.08-13.24,12.08h0Z"/>
    </g>
    <path class="cls-7" d="m3,0h250v256H3V0Z"/>
  </g>
</svg>