<?xml version="1.0" encoding="UTF-8"?>
<svg id="Ebene_1" data-name="Ebene 1" xmlns="http://www.w3.org/2000/svg" xmlns:xlink="http://www.w3.org/1999/xlink" viewBox="0 0 256 256">
  <defs>
    <style>
      .cls-1 {
        fill: #fff;
      }

      .cls-2 {
        fill: url(#Unbenannter_Verlauf_2);
      }

      .cls-3 {
        fill: url(#Unbenannter_Verlauf);
      }

      .cls-4 {
        fill: #27282c;
      }
    </style>
    <linearGradient id="Unbenannter_Verlauf" data-name="Unbenannter Verlauf" x1="279.3" y1="-207.22" x2="252.97" y2="-112.2" gradientTransform="translate(-178 -12) scale(1 -1)" gradientUnits="userSpaceOnUse">
      <stop offset="0" stop-color="#087cfa"/>
      <stop offset="1" stop-color="#6b57ff"/>
    </linearGradient>
    <linearGradient id="Unbenannter_Verlauf_2" data-name="Unbenannter Verlauf 2" x1="243.14" y1="-221.37" x2="341.17" y2="-80.35" gradientTransform="translate(-178 -12) scale(1 -1)" gradientUnits="userSpaceOnUse">
      <stop offset="0" stop-color="#087cfa"/>
      <stop offset=".39" stop-color="#097ff6"/>
      <stop offset=".96" stop-color="#3bea62"/>
    </linearGradient>
  </defs>
  <g id="Ebene_2" data-name="Ebene 2">
    <rect class="cls-4" width="256" height="256" rx="45" ry="45"/>
  </g>
  <g>
    <path class="cls-3" d="m122.51,99.83l-84.57-20.67-9.94,23.51,30.49,97.53,81.01,27.8-16.98-128.17h-.01Z"/>
    <path class="cls-2" d="m227.99,85.2l-20.33-39.8-103.73-17.4-45.45,172.19,81.01,27.8,4.35-7.12,84.15-135.66h0Z"/>
    <path d="m190.91,65.51h-124.99v124.99h124.99v-124.99Z"/>
    <path class="cls-1" d="m149.73,80.75h9.55l20.16,47.37h-10.81l-4.3-10.55h-19.89l-4.3,10.55h-10.55l20.14-47.37h0Zm10.89,27.69l-6.25-15.25-6.25,15.25h12.5Z"/>
    <path class="cls-1" d="m121.35,129.53l-5.17-4.64c-3.97,2.55-8.73,4.03-13.98,4.03-14.51,0-24.94-10.81-24.94-24.19v-.14c0-13.37,10.55-24.33,25.06-24.33s24.94,10.81,24.94,24.19v.14c0,4.97-1.55,9.61-4.17,13.51l4.84,4.1-6.57,7.33h0Zm-12.83-11.43l-7.65-6.51,6.57-7.39,7.73,6.98c.81-1.88,1.28-4.1,1.28-6.45v-.14c0-8.06-5.9-14.78-14.25-14.78s-14.11,6.59-14.11,14.65v.14c0,8.06,5.92,14.78,14.25,14.78,2.27,0,4.35-.41,6.17-1.28h.01Z"/>
    <path class="cls-1" d="m124.51,167.06h-46.88v7.81h46.88s0-7.81,0-7.81Z"/>
  </g>
</svg>