<?xml version="1.0" encoding="UTF-8"?>
<svg id="Ebene_1" data-name="Ebene 1" xmlns="http://www.w3.org/2000/svg" viewBox="0 0 256 256">
  <defs>
    <style>
      .cls-1 {
        fill: #fff;
      }

      .cls-2 {
        fill: #2091d0;
      }
    </style>
  </defs>
  <g id="Ebene_2" data-name="Ebene 2">
    <rect class="cls-2" width="256" height="256" rx="45" ry="45"/>
  </g>
  <path class="cls-1" d="m127.99,37.99c-8.01,19.64-12.84,32.49-21.76,51.55,5.47,5.79,12.18,12.54,23.08,20.17-11.71-4.82-19.71-9.66-25.69-14.68-11.42,23.82-29.3,57.74-65.59,122.96,28.52-16.47,50.64-26.62,71.24-30.48-.88-3.81-1.39-7.93-1.35-12.22l.04-.92c.45-18.27,9.96-32.32,21.22-31.36,11.26.95,20.01,16.56,19.56,34.82-.07,3.45-.47,6.75-1.15,9.82,20.38,3.99,42.26,14.11,70.39,30.36-5.54-10.21-10.51-19.42-15.22-28.19-7.45-5.78-15.21-13.29-31.07-21.42,10.9,2.83,18.7,6.1,24.78,9.74-48.08-89.53-51.98-101.43-68.47-140.11h0v-.03h-.01Z"/>
</svg>