<?xml version="1.0" encoding="UTF-8" standalone="no"?>
<!DOCTYPE svg PUBLIC "-//W3C//DTD SVG 1.1//EN" "http://www.w3.org/Graphics/SVG/1.1/DTD/svg11.dtd">
<!-- Created with Vectornator (http://vectornator.io/) -->
<svg height="100%" stroke-miterlimit="10" style="fill-rule:nonzero;clip-rule:evenodd;stroke-linecap:round;stroke-linejoin:round;" version="1.1" viewBox="0 0 512 512" width="100%" xml:space="preserve" xmlns="http://www.w3.org/2000/svg" xmlns:vectornator="http://vectornator.io" xmlns:xlink="http://www.w3.org/1999/xlink">
<defs/>
<g id="Ebene-1" vectornator:layerName="Ebene 1">
<path d="M2.84217e-14 95C2.84217e-14 42.5329 42.5329 0 95 0L417 0C469.467 0 512 42.5329 512 95L512 417C512 469.467 469.467 512 417 512L95 512C42.5329 512 2.84217e-14 469.467 2.84217e-14 417L2.84217e-14 95Z" fill="#1793d1" fill-rule="nonzero" opacity="1" stroke="none" vectornator:layerName="Rechteck 1"/>
</g>
<g id="Ebene-2" vectornator:layerName="Ebene 2">
<path d="M255.984 66.0625C239.077 107.512 228.901 134.624 210.078 174.844C221.619 187.077 235.791 201.346 258.797 217.438C234.065 207.259 217.188 197.038 204.578 186.438C180.489 236.705 142.733 308.315 66.1406 445.938C126.342 411.195 172.994 389.723 216.484 381.562C214.522 373.11 213.577 364.458 213.641 355.781L213.703 353.844C214.659 315.284 234.718 285.642 258.484 287.656C282.251 289.67 300.663 322.596 299.703 361.156C299.543 368.425 298.737 375.375 297.297 381.844C340.314 390.255 386.477 411.652 445.859 445.938C434.157 424.383 423.762 404.952 413.797 386.438C398.071 374.255 381.604 358.385 348.141 341.219C371.135 347.207 387.639 354.078 400.484 361.781C298.999 172.826 290.796 147.706 255.984 66.0625Z" fill="#161616" fill-rule="nonzero" opacity="1" stroke="none" vectornator:layerName="Kurve 1"/>
</g>
</svg>
