<?xml version="1.0" encoding="UTF-8" standalone="no"?>
<!DOCTYPE svg PUBLIC "-//W3C//DTD SVG 1.1//EN" "http://www.w3.org/Graphics/SVG/1.1/DTD/svg11.dtd">
<!-- Created with Vectornator (http://vectornator.io/) -->
<svg height="100%" stroke-miterlimit="10" style="fill-rule:nonzero;clip-rule:evenodd;stroke-linecap:round;stroke-linejoin:round;" version="1.1" viewBox="0 0 512 512" width="100%" xml:space="preserve" xmlns="http://www.w3.org/2000/svg" xmlns:vectornator="http://vectornator.io" xmlns:xlink="http://www.w3.org/1999/xlink">
<defs>
<linearGradient gradientTransform="matrix(1 0 0 1 0 0)" gradientUnits="userSpaceOnUse" id="LinearGradient" x1="257.506" x2="255.859" y1="-0.116183" y2="511.166">
<stop offset="0.000578055" stop-color="#808080"/>
<stop offset="1" stop-color="#222222"/>
</linearGradient>
</defs>
<g id="Ebene-1" vectornator:layerName="Ebene 1">
<path d="M2.84217e-14 95C2.84217e-14 42.5329 42.5329 0 95 0L417 0C469.467 0 512 42.5329 512 95L512 417C512 469.467 469.467 512 417 512L95 512C42.5329 512 2.84217e-14 469.467 2.84217e-14 417L2.84217e-14 95Z" fill="url(#LinearGradient)" fill-rule="nonzero" opacity="1" stroke="none" vectornator:layerName="Rechteck 1"/>
</g>
<g id="Ebene-2" vectornator:layerName="Ebene 2">
<path d="M255.988 105.998C242.631 138.734 234.579 160.148 219.713 191.914C228.829 201.578 240.016 212.826 258.144 225.536C238.61 217.499 225.337 209.428 215.327 201.053C196.299 240.749 166.491 297.309 106 406.002C153.589 378.557 190.403 361.638 224.794 355.17C223.317 348.825 222.478 341.963 222.544 334.807L222.6 333.284C223.35 302.82 239.201 279.396 257.971 280.989C276.741 282.583 291.331 308.575 290.576 339.039C290.462 344.541 289.82 350.02 288.659 355.4C322.638 362.046 359.1 378.927 406 406.002L380.598 359.014C368.178 349.392 355.229 336.864 328.81 323.301C346.971 328.02 359.977 333.462 370.053 339.55C289.911 190.325 283.415 170.501 255.932 105.998L255.988 105.998Z" fill="#1793d1" fill-rule="evenodd" opacity="1" stroke="none" vectornator:layerName="path"/>
</g>
</svg>
