<?xml version="1.0" encoding="UTF-8"?>
<svg id="Ebene_1" data-name="Ebene 1" xmlns="http://www.w3.org/2000/svg" viewBox="0 0 256 256">
  <defs>
    <style>
      .cls-1 {
        fill: #fff;
      }

      .cls-2 {
        fill: #2091d0;
      }
    </style>
  </defs>
  <g id="Ebene_2" data-name="Ebene 2">
    <path class="cls-2" d="m256,221c0,19.3-15.7,35-35,35H35c-19.3,0-35-15.7-35-35V35C0,15.7,15.7,0,35,0h186c19.3,0,35,15.7,35,35"/>
  </g>
  <path class="cls-1" d="m127.98,27.98c-8.9,21.83-14.27,36.11-24.19,57.29,6.08,6.44,13.54,13.94,25.65,22.42-13.02-5.36-21.91-10.74-28.55-16.32-12.69,26.47-32.56,64.18-72.9,136.66,31.7-18.3,56.28-29.59,79.18-33.88-.98-4.24-1.54-8.81-1.5-13.58l.04-1.02c.5-20.31,11.07-35.92,23.58-34.86,12.52,1.06,22.24,18.4,21.74,38.7-.08,3.83-.52,7.5-1.28,10.91,22.65,4.43,46.97,15.68,78.24,33.74-6.16-11.35-11.68-21.58-16.92-31.33-8.28-6.42-16.91-14.77-34.53-23.81,12.11,3.15,20.78,6.78,27.54,10.83-53.44-99.51-57.77-112.73-76.1-155.72h0s0,0,0,0h0Z"/>
</svg>