<?xml version="1.0" encoding="UTF-8"?>
<svg id="Ebene_1" data-name="Ebene 1" xmlns="http://www.w3.org/2000/svg" viewBox="0 0 256 256">
  <defs>
    <style>
      .cls-1 {
        fill: #fff;
      }

      .cls-2 {
        fill: #19989e;
      }
    </style>
  </defs>
  <g id="Ebene_2" data-name="Ebene 2">
    <path class="cls-2" d="m256,221c0,19.3-15.7,35-35,35H35c-19.3,0-35-15.7-35-35V35C0,15.7,15.7,0,35,0h186c19.3,0,35,15.7,35,35"/>
  </g>
  <g>
    <path class="cls-1" d="m170.96,168.12c-2.12,0-4.29-.15-6.42-.47-17.88-2.55-29.84-15.4-36.54-25.27-6.72,9.87-18.68,22.73-36.55,25.28-2.13.3-4.27.46-6.42.46-11.12,0-21.55-4.14-29.41-11.65-7.93-7.58-12.3-17.74-12.3-28.58s4.37-21,12.31-28.59c7.84-7.51,18.29-11.64,29.41-11.64,2.12,0,4.28.15,6.4.46,17.87,2.55,29.83,15.39,36.55,25.27,6.7-9.87,18.66-22.72,36.54-25.27,2.13-.31,4.29-.46,6.41-.46,11.12,0,21.56,4.14,29.4,11.64,7.93,7.59,12.3,17.74,12.3,28.59s-4.35,21-12.29,28.58c-7.86,7.51-18.29,11.65-29.4,11.65m-35.04-40.23c3.49,6.65,13.79,23.25,30.63,25.66,1.47.2,2.96.32,4.4.32,15.13,0,27.44-11.65,27.44-25.98s-12.31-25.98-27.45-25.98c-1.45,0-2.93.1-4.39.32-16.84,2.41-27.15,19-30.64,25.67m-50.87-25.98c-15.15,0-27.46,11.65-27.46,25.98s12.31,25.98,27.44,25.98c1.45,0,2.94-.11,4.41-.32,16.84-2.41,27.14-19,30.63-25.66-3.48-6.65-13.79-23.26-30.63-25.66-1.46-.22-2.94-.32-4.39-.32"/>
    <path class="cls-1" d="m73.56,123.96h25.04v8.07h-25.04v-8.07Zm108.65,0h-8.48v-8.49h-8.1v8.49h-8.47v8.07h8.47v8.49h8.1v-8.49h8.48v-8.07Z"/>
  </g>
</svg>