<?xml version="1.0" encoding="UTF-8"?>
<svg id="Ebene_1" data-name="Ebene 1" xmlns="http://www.w3.org/2000/svg" viewBox="0 0 256 256">
  <defs>
    <style>
      .cls-1 {
        fill: #fff;
      }

      .cls-2 {
        fill: #19989e;
      }
    </style>
  </defs>
  <g id="Ebene_2" data-name="Ebene 2">
    <rect class="cls-2" width="256" height="256" rx="45" ry="45"/>
  </g>
  <g>
    <path class="cls-1" d="m178.77,175.63c-2.5,0-5.07-.18-7.58-.56-21.12-3.01-35.25-18.19-43.16-29.85-7.94,11.66-22.06,26.85-43.17,29.86-2.52.35-5.04.54-7.58.54-13.13,0-25.45-4.89-34.74-13.76-9.37-8.95-14.53-20.95-14.53-33.76s5.16-24.81,14.54-33.77c9.26-8.87,21.6-13.75,34.74-13.75,2.5,0,5.06.18,7.56.54,21.11,3.01,35.24,18.18,43.17,29.85,7.91-11.66,22.04-26.84,43.16-29.85,2.52-.37,5.07-.54,7.57-.54,13.13,0,25.47,4.89,34.73,13.75,9.37,8.97,14.53,20.95,14.53,33.77s-5.14,24.81-14.52,33.76c-9.28,8.87-21.6,13.76-34.73,13.76m-41.39-47.52c4.12,7.85,16.29,27.46,36.18,30.31,1.74.24,3.5.38,5.2.38,17.87,0,32.41-13.76,32.41-30.69s-14.54-30.69-32.42-30.69c-1.71,0-3.46.12-5.19.38-19.89,2.85-32.07,22.44-36.19,30.32m-60.09-30.69c-17.9,0-32.44,13.76-32.44,30.69s14.54,30.69,32.41,30.69c1.71,0,3.47-.13,5.21-.38,19.89-2.85,32.06-22.44,36.18-30.31-4.11-7.85-16.29-27.47-36.18-30.31-1.72-.26-3.47-.38-5.19-.38"/>
    <path class="cls-1" d="m63.72,123.47h29.58v9.53h-29.58v-9.53Zm128.34,0h-10.02v-10.03h-9.57v10.03h-10v9.53h10v10.03h9.57v-10.03h10.02v-9.53Z"/>
  </g>
</svg>