<?xml version="1.0" encoding="UTF-8" standalone="no"?>
<!DOCTYPE svg PUBLIC "-//W3C//DTD SVG 1.1//EN" "http://www.w3.org/Graphics/SVG/1.1/DTD/svg11.dtd">
<!-- Created with Vectornator (http://vectornator.io/) -->
<svg height="100%" stroke-miterlimit="10" style="fill-rule:nonzero;clip-rule:evenodd;stroke-linecap:round;stroke-linejoin:round;" version="1.1" viewBox="0 0 512 512" width="100%" xml:space="preserve" xmlns="http://www.w3.org/2000/svg" xmlns:vectornator="http://vectornator.io" xmlns:xlink="http://www.w3.org/1999/xlink">
<defs/>
<g id="Ebene-1" vectornator:layerName="Ebene 1">
<path d="M2.84217e-14 95C2.84217e-14 42.5329 42.5329 0 95 0L417 0C469.467 0 512 42.5329 512 95L512 417C512 469.467 469.467 512 417 512L95 512C42.5329 512 2.84217e-14 469.467 2.84217e-14 417L2.84217e-14 95Z" fill="#00979c" fill-rule="nonzero" opacity="1" stroke="none" vectornator:layerName="Rechteck 1"/>
<g opacity="1" vectornator:layerName="g">
<path d="M162.854 185.049C115.055 181.241 74.8895 237.744 94.652 281.565C113.735 329.032 185.657 341.97 219.934 303.901C253.061 271.444 265.858 221.654 306.179 195.98C347.426 167.842 413.889 194.409 421.703 244.467C429.557 292.401 377.927 339.094 331.059 324.884C296.51 317.075 271.65 287.599 257.506 256.615C240.148 226.964 217.456 195.37 182.057 187.032C175.767 185.606 169.301 185.042 162.854 185.049Z" fill="none" opacity="1" stroke="#ffffff" stroke-linecap="butt" stroke-linejoin="miter" stroke-width="59" vectornator:layerName="path"/>
<path d="M134.696 252.93L195.035 252.93" fill="none" opacity="1" stroke="#ffffff" stroke-linecap="butt" stroke-linejoin="miter" stroke-width="25" vectornator:layerName="path"/>
<path d="M319.735 252.93L370.018 252.93M344.373 227.788L344.373 278.071" fill="none" opacity="1" stroke="#ffffff" stroke-linecap="butt" stroke-linejoin="miter" stroke-width="32" vectornator:layerName="path"/>
</g>
</g>
</svg>
