<?xml version="1.0" encoding="UTF-8"?><svg id="a" xmlns="http://www.w3.org/2000/svg" viewBox="0 0 128 128"><defs><style>.b{fill:#fff;}.c{fill:#ff5d01;}</style></defs><rect class="c" x="0" y="0" width="128" height="128" rx="25" ry="25" transform="translate(128 0) rotate(90)"/><path class="b" d="m80.28,11.76c.9,1.12,1.36,2.62,2.27,5.63l20.02,65.76c-7.4-3.84-15.45-6.61-23.93-8.1l-13.03-44.04c-.21-.72-.88-1.22-1.63-1.22s-1.42.5-1.63,1.22l-12.88,44.02c-8.52,1.49-16.61,4.26-24.04,8.11L45.55,17.37c.92-3,1.38-4.51,2.28-5.62.79-.98,1.82-1.75,3-2.22,1.33-.53,2.9-.53,6.04-.53h14.37c3.15,0,4.72,0,6.05.53,1.17.47,2.21,1.24,3,2.22Z"/><path class="b" d="m82.67,86.27c-3.3,2.82-9.89,4.75-17.47,4.75-9.31,0-17.12-2.9-19.19-6.8-.74,2.23-.91,4.79-.91,6.43,0,0-.49,8.02,5.09,13.6,0-2.9,2.35-5.25,5.25-5.25,4.97,0,4.96,4.33,4.96,7.85,0,.11,0,.21,0,.31,0,5.33,3.26,9.91,7.9,11.84-.69-1.42-1.08-3.02-1.08-4.71,0-5.09,2.99-6.98,6.46-9.18,2.76-1.75,5.83-3.7,7.95-7.6,1.1-2.04,1.73-4.37,1.73-6.85,0-1.52-.24-2.99-.68-4.37Z"/></svg>