<?xml version="1.0" encoding="UTF-8"?>
<svg id="Ebene_1" data-name="Ebene 1" xmlns="http://www.w3.org/2000/svg" xmlns:xlink="http://www.w3.org/1999/xlink" viewBox="0 0 256 256">
  <defs>
    <style>
      .cls-1 {
        fill: #fff;
      }

      .cls-2 {
        fill: url(#Unbenannter_Verlauf);
      }

      .cls-3 {
        clip-path: url(#clippath);
      }

      .cls-4 {
        fill: #27282c;
      }

      .cls-5 {
        fill: none;
      }
    </style>
    <clipPath id="clippath">
      <rect class="cls-5" x="46.98" y="28" width="162.03" height="200"/>
    </clipPath>
    <linearGradient id="Unbenannter_Verlauf" data-name="Unbenannter Verlauf" x1="96.86" y1="197.79" x2="169.26" y2="163.13" gradientUnits="userSpaceOnUse">
      <stop offset="0" stop-color="#d83333"/>
      <stop offset="1" stop-color="#f041ff"/>
    </linearGradient>
  </defs>
  <g id="Ebene_2" data-name="Ebene 2">
    <rect class="cls-4" width="256" height="256" rx="45" ry="45"/>
  </g>
  <g class="cls-3">
    <g>
      <path class="cls-2" d="m97.59,194.91c-9.81-8.85-12.68-27.45-8.59-40.92,7.09,8.49,16.91,11.19,27.08,12.7,15.71,2.34,31.13,1.47,45.72-5.62,1.67-.81,3.21-1.89,5.04-2.98,1.37,3.92,1.73,7.88,1.25,11.9-1.16,9.81-6.11,17.38-13.98,23.13-3.15,2.3-6.47,4.35-9.72,6.52-9.98,6.66-12.68,14.46-8.93,25.82.09.28.17.55.37,1.23-5.1-2.25-8.82-5.53-11.65-9.84-3-4.55-4.42-9.58-4.5-15.02-.04-2.65-.04-5.32-.4-7.93-.88-6.37-3.91-9.22-9.62-9.38-5.86-.17-10.49,3.4-11.72,9.03-.09.43-.23.86-.37,1.36h.02Z"/>
      <path class="cls-1" d="m48.24,158.11s26.83-13.04,53.74-13.04l20.29-62.62c.76-3.03,2.98-5.09,5.48-5.09s4.72,2.06,5.48,5.09l20.29,62.62c31.87,0,53.74,13.04,53.74,13.04,0,0-45.57-123.84-45.66-124.09-1.31-3.66-3.52-6.02-6.49-6.02h-54.69c-2.98,0-5.1,2.36-6.49,6.02-.1.24-45.67,124.09-45.67,124.09h-.02Z"/>
    </g>
  </g>
</svg>