<?xml version="1.0" encoding="UTF-8"?><svg id="a" xmlns="http://www.w3.org/2000/svg" viewBox="0 0 128 128"><defs><style>.b{fill:#fff;}.c{fill:#eb5424;}</style></defs><rect class="c" x="0" y="0" width="128" height="128" rx="25" ry="25" transform="translate(128 0) rotate(90)"/><path class="b" d="m90.29,94.9l-10.04-30.9,26.28-19.09h-32.48l-10.04-30.9h0s32.49,0,32.49,0l10.04,30.9h0s0,0,0,0c5.83,17.93-.17,38.32-16.25,50h0Zm-52.57,0h0s26.28,19.1,26.28,19.1l26.29-19.1-26.28-19.1-26.28,19.1h0Zm-16.25-50h0c-6.14,18.9.99,38.92,16.24,50h0s10.04-30.91,10.04-30.91l-26.27-19.09h32.48l10.04-30.9h0s-32.49,0-32.49,0l-10.04,30.9h0Z"/></svg>