<?xml version="1.0" encoding="UTF-8"?>
<svg id="Ebene_1" data-name="Ebene 1" xmlns="http://www.w3.org/2000/svg" viewBox="0 0 256 256">
  <defs>
    <style>
      .cls-1 {
        fill: #fff;
      }

      .cls-2 {
        fill: #ec1c24;
      }
    </style>
  </defs>
  <g id="Ebene_2" data-name="Ebene 2">
    <path class="cls-2" d="m45,0h166c24.85,0,45,20.15,45,45v166c0,24.85-20.15,45-45,45H45c-24.85,0-45-20.15-45-45V45C0,20.15,20.15,0,45,0Z"/>
  </g>
  <path class="cls-1" d="m117.28,101.52l29.98,29.96c4.33,4.33,11.35,4.33,15.69,0,4.33-4.33,4.34-11.35,0-15.68l-29.98-29.98c-21.45-21.45-56.12-21.8-78.02-1.09-.2.17-.4.35-.59.54-.1.1-.17.2-.27.28-.1.09-.2.18-.29.27-.19.19-.36.39-.53.58-20.72,21.91-20.36,56.58,1.09,78.03l29.98,29.97c4.34,4.33,11.35,4.33,15.69,0,4.34-4.33,4.34-11.36.01-15.69l-29.98-29.98c-13.09-13.08-13.17-34.31-.27-47.5,13.19-12.9,34.41-12.81,47.5.27h0Zm38.69-39.92c-4.33,4.33-4.33,11.35.01,15.68l29.97,29.98c13.08,13.08,13.16,34.31.26,47.5-13.19,12.89-34.41,12.81-47.49-.28l-29.98-29.97c-4.33-4.33-11.36-4.33-15.69,0-4.34,4.33-4.34,11.37,0,15.69l29.97,29.98c21.46,21.45,56.12,21.8,78.03,1.09.2-.18.39-.35.6-.54.09-.09.18-.19.27-.28.1-.09.19-.18.28-.28.19-.18.36-.38.53-.58,20.72-21.9,20.37-56.56-1.08-78.03l-29.98-29.97c-4.33-4.34-11.37-4.34-15.7,0h0Z"/>
</svg>