<?xml version="1.0" encoding="UTF-8"?>
<svg id="Ebene_1" data-name="Ebene 1" xmlns="http://www.w3.org/2000/svg" viewBox="0 0 256 256">
  <defs>
    <style>
      .cls-1 {
        fill: #27282c;
      }

      .cls-2 {
        fill: #f90;
      }
    </style>
  </defs>
  <g id="Ebene_2" data-name="Ebene 2">
    <path class="cls-2" d="m256,221c0,19.3-15.7,35-35,35H35c-19.3,0-35-15.7-35-35V35C0,15.7,15.7,0,35,0h186c19.3,0,35,15.7,35,35"/>
  </g>
  <g>
    <path class="cls-1" d="m84.37,111.64c0,2.46.27,4.45.73,5.92.53,1.47,1.2,3.06,2.12,4.79.33.53.46,1.07.46,1.53,0,.67-.4,1.33-1.26,1.99l-4.19,2.79c-.6.4-1.2.6-1.73.6-.67,0-1.33-.33-1.99-.93-.93-1-1.73-2.06-2.39-3.13-.67-1.13-1.33-2.39-2.06-3.93-5.19,6.12-11.71,9.18-19.55,9.18-5.59,0-10.04-1.6-13.31-4.79-3.26-3.19-4.92-7.45-4.92-12.77,0-5.65,1.99-10.24,6.05-13.71,4.05-3.46,9.45-5.19,16.29-5.19,2.26,0,4.59.2,7.05.53,2.46.33,4.99.86,7.65,1.47v-4.85c0-5.06-1.07-8.58-3.13-10.64-2.12-2.06-5.72-3.06-10.84-3.06-2.33,0-4.72.27-7.18.86s-4.85,1.33-7.18,2.26c-1.07.46-1.87.73-2.33.86s-.8.2-1.07.2c-.93,0-1.4-.67-1.4-2.06v-3.26c0-1.07.13-1.87.46-2.33s.93-.93,1.87-1.4c2.33-1.2,5.12-2.2,8.38-3,3.26-.86,6.72-1.26,10.37-1.26,7.92,0,13.71,1.8,17.43,5.39,3.66,3.59,5.52,9.05,5.52,16.36v21.55h.13v.03h0Zm-27,10.11c2.2,0,4.45-.4,6.85-1.2,2.39-.8,4.52-2.26,6.32-4.26,1.07-1.26,1.87-2.66,2.26-4.26.4-1.6.67-3.53.67-5.79v-2.79c-1.93-.46-3.99-.86-6.12-1.13-2.12-.27-4.19-.4-6.25-.4-4.45,0-7.72.86-9.91,2.66-2.2,1.8-3.26,4.32-3.26,7.65,0,3.13.8,5.46,2.46,7.05,1.6,1.66,3.93,2.46,6.99,2.46h0Zm53.41,7.18c-1.2,0-1.99-.2-2.52-.67-.53-.4-1-1.33-1.4-2.6l-15.64-51.42c-.4-1.33-.6-2.2-.6-2.66,0-1.07.53-1.66,1.6-1.66h6.52c1.26,0,2.12.2,2.6.67.53.4.93,1.33,1.33,2.6l11.17,44.03,10.37-44.03c.33-1.33.73-2.2,1.26-2.6.53-.4,1.47-.67,2.66-.67h5.32c1.26,0,2.12.2,2.66.67.53.4,1,1.33,1.26,2.6l10.51,44.57,11.51-44.57c.4-1.33.86-2.2,1.33-2.6.53-.4,1.4-.67,2.6-.67h6.19c1.07,0,1.66.53,1.66,1.66,0,.33-.06.67-.13,1.07s-.2.93-.46,1.66l-16.03,51.42c-.4,1.33-.86,2.2-1.4,2.6-.53.4-1.4.67-2.52.67h-5.72c-1.26,0-2.12-.2-2.66-.67-.53-.46-1-1.33-1.26-2.66l-10.31-42.91-10.24,42.83c-.33,1.33-.73,2.2-1.26,2.66s-1.47.67-2.66.67h-5.74Zm85.47,1.8c-3.46,0-6.92-.4-10.24-1.2-3.32-.8-5.92-1.66-7.65-2.66-1.07-.6-1.8-1.26-2.06-1.87-.27-.6-.4-1.26-.4-1.87v-3.4c0-1.4.53-2.06,1.53-2.06.4,0,.8.06,1.2.2.4.13,1,.4,1.66.67,2.26,1,4.72,1.8,7.32,2.33,2.66.53,5.25.8,7.92.8,4.19,0,7.45-.73,9.72-2.2,2.26-1.47,3.46-3.59,3.46-6.32,0-1.87-.6-3.4-1.8-4.66s-3.46-2.39-6.72-3.46l-9.64-3c-4.85-1.53-8.44-3.8-10.64-6.78-2.2-2.92-3.32-6.19-3.32-9.64,0-2.79.6-5.25,1.8-7.39,1.2-2.12,2.79-3.99,4.79-5.46,1.99-1.53,4.26-2.66,6.92-3.46,2.66-.8,5.46-1.13,8.38-1.13,1.47,0,3,.06,4.45.27,1.53.2,2.92.46,4.32.73,1.33.33,2.6.67,3.8,1.07s2.12.8,2.79,1.2c.93.53,1.6,1.07,1.99,1.66.4.53.6,1.26.6,2.2v3.13c0,1.4-.53,2.12-1.53,2.12-.53,0-1.4-.27-2.52-.8-3.8-1.73-8.04-2.6-12.77-2.6-3.8,0-6.78.6-8.84,1.87-2.06,1.26-3.13,3.19-3.13,5.92,0,1.87.67,3.46,1.99,4.72,1.33,1.26,3.8,2.52,7.32,3.66l9.45,3c4.79,1.53,8.25,3.66,10.31,6.38,2.06,2.73,3.06,5.86,3.06,9.32,0,2.86-.6,5.46-1.73,7.72-1.2,2.26-2.79,4.26-4.85,5.86-2.06,1.66-4.52,2.86-7.39,3.72-3,.93-6.12,1.4-9.51,1.4h0Z"/>
    <path class="cls-1" d="m208.82,163.07c-21.88,16.16-53.68,24.75-81.02,24.75-38.31,0-72.83-14.17-98.91-37.71-2.06-1.87-.2-4.39,2.26-2.92,28.2,16.36,62.99,26.27,98.97,26.27,24.27,0,50.95-5.06,75.5-15.43,3.66-1.66,6.78,2.39,3.19,5.06h0Zm9.11-10.37c-2.79-3.59-18.49-1.73-25.61-.86-2.12.27-2.46-1.6-.53-3,12.51-8.78,33.06-6.25,35.46-3.32,2.39,3-.67,23.55-12.37,33.39-1.8,1.53-3.53.73-2.73-1.26,2.66-6.59,8.58-21.42,5.79-24.94h0Z"/>
  </g>
</svg>