<?xml version="1.0" encoding="UTF-8"?>
<svg id="Ebene_1" data-name="Ebene 1" xmlns="http://www.w3.org/2000/svg" viewBox="0 0 256 256">
  <defs>
    <style>
      .cls-1 {
        fill: #252f3e;
      }

      .cls-2 {
        fill: #f90;
      }
    </style>
  </defs>
  <g id="Ebene_2" data-name="Ebene 2">
    <path class="cls-2" d="m256,221c0,19.3-15.7,35-35,35H35c-19.3,0-35-15.7-35-35V35C0,15.7,15.7,0,35,0h186c19.3,0,35,15.7,35,35"/>
  </g>
  <g>
    <path class="cls-1" d="m78.91,109.59c0,2.77.3,5.01.82,6.66.6,1.65,1.35,3.44,2.39,5.39.37.6.52,1.2.52,1.72,0,.75-.45,1.5-1.42,2.24l-4.71,3.14c-.67.45-1.35.67-1.95.67-.75,0-1.5-.37-2.24-1.05-1.05-1.12-1.95-2.32-2.69-3.52-.75-1.27-1.5-2.69-2.32-4.42-5.84,6.88-13.17,10.33-22,10.33-6.29,0-11.3-1.8-14.97-5.39-3.67-3.59-5.54-8.38-5.54-14.37,0-6.36,2.24-11.52,6.81-15.42,4.56-3.89,10.63-5.84,18.33-5.84,2.54,0,5.16.22,7.93.6,2.77.37,5.61.97,8.61,1.65v-5.46c0-5.69-1.2-9.65-3.52-11.97-2.39-2.32-6.44-3.44-12.2-3.44-2.62,0-5.31.3-8.08.97s-5.46,1.5-8.08,2.54c-1.2.52-2.1.82-2.62.97-.52.15-.9.22-1.2.22-1.05,0-1.57-.75-1.57-2.32v-3.67c0-1.2.15-2.1.52-2.62s1.05-1.05,2.1-1.57c2.62-1.35,5.76-2.47,9.43-3.37,3.67-.97,7.56-1.42,11.67-1.42,8.91,0,15.42,2.02,19.61,6.06,4.12,4.04,6.21,10.18,6.21,18.41v24.25h.15Zm-30.38,11.37c2.47,0,5.01-.45,7.71-1.35,2.69-.9,5.09-2.54,7.11-4.79,1.2-1.42,2.1-2.99,2.54-4.79.45-1.8.75-3.97.75-6.51v-3.14c-2.17-.52-4.49-.97-6.88-1.27-2.39-.3-4.71-.45-7.03-.45-5.01,0-8.68.97-11.15,2.99-2.47,2.02-3.67,4.86-3.67,8.61,0,3.52.9,6.14,2.77,7.93,1.8,1.87,4.42,2.77,7.86,2.77h0Zm60.09,8.08c-1.35,0-2.24-.22-2.84-.75-.6-.45-1.12-1.5-1.57-2.92l-17.59-57.85c-.45-1.5-.67-2.47-.67-2.99,0-1.2.6-1.87,1.8-1.87h7.33c1.42,0,2.39.22,2.92.75.6.45,1.05,1.5,1.5,2.92l12.57,49.54,11.67-49.54c.37-1.5.82-2.47,1.42-2.92.6-.45,1.65-.75,2.99-.75h5.99c1.42,0,2.39.22,2.99.75.6.45,1.12,1.5,1.42,2.92l11.82,50.14,12.95-50.14c.45-1.5.97-2.47,1.5-2.92.6-.45,1.57-.75,2.92-.75h6.96c1.2,0,1.87.6,1.87,1.87,0,.37-.07.75-.15,1.2s-.22,1.05-.52,1.87l-18.03,57.85c-.45,1.5-.97,2.47-1.57,2.92-.6.45-1.57.75-2.84.75h-6.44c-1.42,0-2.39-.22-2.99-.75-.6-.52-1.12-1.5-1.42-2.99l-11.6-48.27-11.52,48.19c-.37,1.5-.82,2.47-1.42,2.99-.6.52-1.65.75-2.99.75h-6.44Zm96.16,2.02c-3.89,0-7.78-.45-11.52-1.35-3.74-.9-6.66-1.87-8.61-2.99-1.2-.67-2.02-1.42-2.32-2.1-.3-.67-.45-1.42-.45-2.1v-3.82c0-1.57.6-2.32,1.72-2.32.45,0,.9.07,1.35.22.45.15,1.12.45,1.87.75,2.54,1.12,5.31,2.02,8.23,2.62,2.99.6,5.91.9,8.91.9,4.71,0,8.38-.82,10.93-2.47,2.54-1.65,3.89-4.04,3.89-7.11,0-2.1-.67-3.82-2.02-5.24-1.35-1.42-3.89-2.69-7.56-3.89l-10.85-3.37c-5.46-1.72-9.5-4.27-11.97-7.63-2.47-3.29-3.74-6.96-3.74-10.85,0-3.14.67-5.91,2.02-8.31,1.35-2.39,3.14-4.49,5.39-6.14,2.24-1.72,4.79-2.99,7.78-3.89,2.99-.9,6.14-1.27,9.43-1.27,1.65,0,3.37.07,5.01.3,1.72.22,3.29.52,4.86.82,1.5.37,2.92.75,4.27,1.2,1.35.45,2.39.9,3.14,1.35,1.05.6,1.8,1.2,2.24,1.87.45.6.67,1.42.67,2.47v3.52c0,1.57-.6,2.39-1.72,2.39-.6,0-1.57-.3-2.84-.9-4.27-1.95-9.05-2.92-14.37-2.92-4.27,0-7.63.67-9.95,2.1-2.32,1.42-3.52,3.59-3.52,6.66,0,2.1.75,3.89,2.24,5.31,1.5,1.42,4.27,2.84,8.23,4.12l10.63,3.37c5.39,1.72,9.28,4.12,11.6,7.18,2.32,3.07,3.44,6.59,3.44,10.48,0,3.22-.67,6.14-1.95,8.68-1.35,2.54-3.14,4.79-5.46,6.59-2.32,1.87-5.09,3.22-8.31,4.19-3.37,1.05-6.88,1.57-10.7,1.57h0Z"/>
    <path class="cls-1" d="m218.92,167.44c-24.62,18.18-60.39,27.84-91.15,27.84-43.1,0-81.94-15.94-111.28-42.43-2.32-2.1-.22-4.94,2.54-3.29,31.73,18.41,70.87,29.56,111.35,29.56,27.31,0,57.32-5.69,84.94-17.36,4.12-1.87,7.63,2.69,3.59,5.69h0Zm10.25-11.67c-3.14-4.04-20.8-1.95-28.81-.97-2.39.3-2.77-1.8-.6-3.37,14.07-9.88,37.19-7.03,39.89-3.74,2.69,3.37-.75,26.49-13.92,37.57-2.02,1.72-3.97.82-3.07-1.42,2.99-7.41,9.65-24.1,6.51-28.06h0Z"/>
  </g>
</svg>