<?xml version="1.0" encoding="UTF-8" standalone="no"?>
<!DOCTYPE svg PUBLIC "-//W3C//DTD SVG 1.1//EN" "http://www.w3.org/Graphics/SVG/1.1/DTD/svg11.dtd">
<!-- Created with Vectornator (http://vectornator.io/) -->
<svg height="100%" stroke-miterlimit="10" style="fill-rule:nonzero;clip-rule:evenodd;stroke-linecap:round;stroke-linejoin:round;" version="1.1" viewBox="0 0 512 512" width="100%" xml:space="preserve" xmlns="http://www.w3.org/2000/svg" xmlns:vectornator="http://vectornator.io" xmlns:xlink="http://www.w3.org/1999/xlink">
<defs/>
<g id="Ebene-1" vectornator:layerName="Ebene 1">
<path d="M2.84217e-14 95C2.84217e-14 42.5329 42.5329 0 95 0L417 0C469.467 0 512 42.5329 512 95L512 417C512 469.467 469.467 512 417 512L95 512C42.5329 512 2.84217e-14 469.467 2.84217e-14 417L2.84217e-14 95Z" fill="#ff9900" fill-rule="nonzero" opacity="1" stroke="none" vectornator:layerName="Rechteck 1"/>
<g opacity="1" vectornator:layerName="aws-2.svg">
<path d="M168.724 243.273C168.724 248.196 169.256 252.186 170.187 255.114C171.252 258.04 172.581 261.232 174.444 264.692C175.11 265.756 175.375 266.82 175.375 267.751C175.375 269.082 174.578 270.412 172.848 271.743L164.467 277.331C163.27 278.129 162.072 278.527 161.008 278.527C159.678 278.527 158.347 277.863 157.016 276.665C155.154 274.669 153.558 272.541 152.227 270.412C150.897 268.151 149.566 265.623 148.103 262.563C137.726 274.802 124.689 280.923 108.991 280.923C97.8162 280.923 88.9021 277.73 82.3832 271.344C75.8655 264.959 72.5393 256.443 72.5393 245.801C72.5393 234.493 76.5297 225.313 84.645 218.395C92.7603 211.478 103.536 208.019 117.24 208.019C121.762 208.019 126.418 208.418 131.34 209.084C136.263 209.748 141.319 210.812 146.64 212.01L146.64 202.298C146.64 192.187 144.512 185.136 140.387 181.013C136.13 176.889 128.946 174.893 118.703 174.893C114.046 174.893 109.256 175.425 104.335 176.622C99.4126 177.82 94.6234 179.283 89.9664 181.146C87.8378 182.077 86.2414 182.609 85.3105 182.875C84.3796 183.141 83.7141 183.275 83.182 183.275C81.3189 183.275 80.388 181.944 80.388 179.15L80.388 172.631C80.388 170.502 80.6547 168.906 81.3189 167.975C81.9844 167.044 83.182 166.113 85.0438 165.181C89.7009 162.787 95.2877 160.792 101.807 159.194C108.325 157.466 115.243 156.667 122.561 156.667C138.392 156.667 149.966 160.258 157.416 167.443C164.733 174.627 168.458 185.535 168.458 200.169L168.458 243.273L168.724 243.273ZM114.711 263.494C119.101 263.494 123.625 262.697 128.414 261.1C133.204 259.504 137.461 256.577 141.052 252.586C143.181 250.058 144.777 247.265 145.576 244.071C146.374 240.878 146.906 237.021 146.906 232.497L146.906 226.909C143.047 225.978 138.924 225.181 134.667 224.649C130.41 224.117 126.286 223.85 122.161 223.85C113.248 223.85 106.729 225.58 102.339 229.171C97.9483 232.764 95.8198 237.819 95.8198 244.471C95.8198 250.723 97.4162 255.379 100.742 258.572C103.935 261.898 108.592 263.494 114.711 263.494ZM221.539 277.863C219.145 277.863 217.548 277.463 216.484 276.532C215.42 275.733 214.488 273.871 213.69 271.344L182.426 168.507C181.629 165.846 181.229 164.117 181.229 163.186C181.229 161.057 182.293 159.86 184.422 159.86L197.459 159.86C199.987 159.86 201.716 160.258 202.647 161.191C203.713 161.988 204.51 163.851 205.309 166.378L227.659 254.448L248.412 166.378C249.077 163.718 249.876 161.988 250.94 161.191C252.005 160.392 253.866 159.86 256.262 159.86L266.904 159.86C269.432 159.86 271.161 160.258 272.226 161.191C273.29 161.988 274.221 163.851 274.753 166.378L295.773 255.512L318.788 166.378C319.587 163.718 320.517 161.988 321.448 161.191C322.513 160.392 324.242 159.86 326.638 159.86L339.01 159.86C341.138 159.86 342.335 160.924 342.335 163.186C342.335 163.851 342.203 164.517 342.069 165.314C341.936 166.113 341.671 167.177 341.138 168.64L309.076 271.476C308.278 274.137 307.348 275.867 306.283 276.665C305.219 277.463 303.489 277.995 301.227 277.995L289.786 277.995C287.259 277.995 285.529 277.596 284.465 276.665C283.4 275.733 282.469 274.005 281.937 271.344L261.316 185.535L240.829 271.211C240.164 273.871 239.366 275.601 238.301 276.532C237.237 277.463 235.375 277.863 232.98 277.863L221.539 277.863ZM392.49 281.455C385.572 281.455 378.654 280.656 372.002 279.059C365.351 277.463 360.162 275.733 356.704 273.738C354.575 272.541 353.111 271.211 352.579 270.013C352.047 268.816 351.781 267.486 351.781 266.288L351.781 259.504C351.781 256.71 352.845 255.379 354.841 255.379C355.639 255.379 356.437 255.512 357.236 255.779C358.033 256.044 359.231 256.577 360.561 257.109C365.084 259.104 370.007 260.7 375.195 261.766C380.516 262.83 385.705 263.362 391.027 263.362C399.407 263.362 405.926 261.898 410.45 258.972C414.973 256.044 417.368 251.787 417.368 246.333C417.368 242.608 416.17 239.548 413.775 237.021C411.381 234.493 406.857 232.231 400.338 230.102L381.048 224.117C371.337 221.056 364.153 216.533 359.763 210.547C355.373 204.693 353.111 198.174 353.111 191.257C353.111 185.669 354.308 180.746 356.704 176.489C359.098 172.232 362.29 168.507 366.282 165.581C370.272 162.52 374.796 160.258 380.117 158.662C385.439 157.066 391.027 156.401 396.88 156.401C399.806 156.401 402.867 156.533 405.793 156.933C408.854 157.332 411.647 157.864 414.44 158.397C417.101 159.062 419.628 159.726 422.024 160.525C424.419 161.324 426.281 162.121 427.612 162.92C429.474 163.984 430.804 165.049 431.602 166.245C432.401 167.309 432.8 168.774 432.8 170.636L432.8 176.889C432.8 179.682 431.735 181.146 429.74 181.146C428.676 181.146 426.946 180.614 424.684 179.55C417.101 176.09 408.587 174.36 399.142 174.36C391.559 174.36 385.572 175.558 381.448 178.085C377.323 180.614 375.195 184.471 375.195 189.926C375.195 193.651 376.526 196.843 379.186 199.372C381.847 201.899 386.77 204.426 393.821 206.688L412.711 212.675C422.29 215.735 429.208 219.992 433.332 225.446C437.455 230.901 439.452 237.153 439.452 244.071C439.452 249.792 438.254 254.98 435.992 259.504C433.597 264.026 430.404 268.018 426.281 271.211C422.157 274.537 417.234 276.931 411.514 278.661C405.528 280.524 399.274 281.455 392.49 281.455Z" fill="#161616" fill-rule="nonzero" opacity="1" stroke="none" vectornator:layerName="path"/>
<g opacity="1" vectornator:layerName="g">
<path d="M417.633 346.109C373.865 378.437 310.274 395.599 255.596 395.599C178.968 395.599 109.922 367.262 57.772 320.168C53.648 316.443 57.373 311.387 62.2953 314.315C118.703 347.041 188.28 366.864 260.252 366.864C308.811 366.864 362.158 356.753 411.248 335.999C418.564 332.673 424.818 340.788 417.633 346.109Z" fill="#161616" fill-rule="evenodd" opacity="1" stroke="none" vectornator:layerName="path"/>
<path d="M435.859 325.356C430.272 318.172 398.875 321.898 384.641 323.626C380.384 324.159 379.719 320.434 383.577 317.64C408.587 300.079 449.696 305.135 454.485 310.989C459.274 316.975 453.154 358.083 429.74 377.773C426.147 380.832 422.689 379.236 424.286 375.244C429.607 362.074 441.447 332.407 435.859 325.356Z" fill="#161616" fill-rule="evenodd" opacity="1" stroke="none" vectornator:layerName="path"/>
</g>
</g>
</g>
</svg>
