<?xml version="1.0" encoding="UTF-8"?>
<svg id="Ebene_1" data-name="Ebene 1" xmlns="http://www.w3.org/2000/svg" xmlns:xlink="http://www.w3.org/1999/xlink" viewBox="0 0 256 256">
  <defs>
    <style>
      .cls-1 {
        fill: url(#Unbenannter_Verlauf_2);
      }

      .cls-2 {
        fill: url(#Unbenannter_Verlauf);
      }

      .cls-3 {
        fill: #27282c;
      }

      .cls-4 {
        fill: #0078d4;
      }

      .cls-5 {
        fill: url(#Unbenannter_Verlauf_3);
      }
    </style>
    <linearGradient id="Unbenannter_Verlauf" data-name="Unbenannter Verlauf" x1="1.76" y1="1.34" x2="1.6" y2="2.02" gradientTransform="translate(-178 -268.79) scale(161.1 241.22)" gradientUnits="userSpaceOnUse">
      <stop offset="0" stop-color="#114a8b"/>
      <stop offset="1" stop-color="#0669bc"/>
    </linearGradient>
    <linearGradient id="Unbenannter_Verlauf_2" data-name="Unbenannter Verlauf 2" x1="1.38" y1="1.66" x2="1.33" y2="1.68" gradientTransform="translate(-177.98 -266.91) scale(224.69 241.21)" gradientUnits="userSpaceOnUse">
      <stop offset="0" stop-color="#000" stop-opacity=".3"/>
      <stop offset=".07" stop-color="#000" stop-opacity=".2"/>
      <stop offset=".32" stop-color="#000" stop-opacity=".1"/>
      <stop offset=".62" stop-color="#000" stop-opacity=".05"/>
      <stop offset="1" stop-color="#000" stop-opacity="0"/>
    </linearGradient>
    <linearGradient id="Unbenannter_Verlauf_3" data-name="Unbenannter Verlauf 3" x1="1.39" y1="1.32" x2="1.57" y2="1.99" gradientTransform="translate(-91.75 -268.79) scale(169.75 241.22)" gradientUnits="userSpaceOnUse">
      <stop offset="0" stop-color="#3ccbf4"/>
      <stop offset="1" stop-color="#2892df"/>
    </linearGradient>
  </defs>
  <g id="Ebene_2" data-name="Ebene 2">
    <rect class="cls-3" width="256" height="256" rx="45" ry="45"/>
  </g>
  <g>
    <path class="cls-2" d="m98.01,43.2h53.26l-55.29,163.83c-1.17,3.45-4.4,5.78-8.05,5.78h-41.45c-2.73,0-5.3-1.31-6.89-3.53s-2.02-5.07-1.15-7.66L89.96,48.98c1.16-3.45,4.4-5.78,8.05-5.78h0Z"/>
    <path class="cls-4" d="m175.41,153.08h-84.46c-1.61,0-3.05.98-3.64,2.47s-.2,3.2.97,4.29l54.27,50.66c1.58,1.47,3.66,2.29,5.82,2.29h47.83l-20.79-59.72h0Z"/>
    <path class="cls-1" d="m98.01,43.2c-3.69,0-6.96,2.37-8.07,5.89l-51.43,152.39c-.93,2.6-.54,5.49,1.05,7.74,1.59,2.26,4.18,3.59,6.94,3.59h42.52c3.22-.58,5.89-2.84,6.98-5.93l10.26-30.23,36.64,34.17c1.54,1.27,3.46,1.97,5.45,1.99h47.65l-20.9-59.72h-60.92l37.29-109.88h-53.46Z"/>
    <path class="cls-5" d="m166.04,48.97c-1.16-3.45-4.4-5.77-8.04-5.77h-59.36c3.64,0,6.87,2.32,8.04,5.77l51.52,152.64c.87,2.59.45,5.44-1.15,7.66-1.59,2.22-4.16,3.54-6.89,3.54h59.36c2.73,0,5.3-1.32,6.89-3.54s2.02-5.07,1.15-7.66l-51.52-152.64Z"/>
  </g>
</svg>