<?xml version="1.0" encoding="UTF-8"?><svg id="a" xmlns="http://www.w3.org/2000/svg" viewBox="0 0 128 128"><defs><style>.b{fill:#fff;}.c{fill:#f9dc3e;}</style></defs><rect class="c" x="0" y="0" width="128" height="128" rx="25" ry="25" transform="translate(128 0) rotate(90)"/><path d="m84.44,46.38l-.02-.24-.38.03.02.24.38-.03h0Zm2.57,6.17v.13s.28-.02.28-.02c0-.08.02-.21.08-.37l-.02-.24c-.11,0-.23.18-.33.5h0Zm-10.02,7.77c-.02-.22-.7-1.07-2.05-2.58-.02-.28.44-.69,1.39-1.23l2.71-2.36c.61-.77.97-2.02,1.07-3.76l-.03-.4c-.11-1.2-.97-2.17-2.62-2.91-.97-.66-2.73-1.02-5.26-1.09-2.1.18-4.83.93-8.21,2.25-.93.67-1.98,1.33-3.17,2l.02.2c.07,0,.19-.05.32-.14.14-.02.22.05.23.18l.2-.11h.1s0,.08,0,.08c0,.11-.72.68-2.2,1.71l.11.21h-.1s-.24-.08-.24-.08c0,.07-.1.12-.3.14v.09s.24.29.24.29c-.07,0-.19-.02-.34-.08-.34.03-.67.21-1.01.55l.14-.6c.5-2.14.84-4.03,1.02-5.67l-.02-.11c-.34-.22-.67-.53-.98-.92,0-.25,0-.4,0-.43l-.02-.09-.1.02c-1.07,1.61-3.14,4.35-6.2,8.24-2.33,2.76-3.53,4.3-3.61,4.61-.95.98-1.41,1.58-1.36,1.78-.25.16-.36.32-.32.5-.07.02-.12,0-.14-.08-.41.66-1.01,1.08-1.81,1.27l-.84.2c-.11.02-.17.11-.16.24l.02.11.32-.07.02.09-.72.28-1.27.29-.67.04c-.1.1.53,0,.28.05l-.83.2c-.5.11-.78.07-.83-.13l-.1.02c.02.09.02.15,0,.21l-.05-.2-.67.15c-.05-.31-.95-1.43-2.7-3.36-.03-.37.58-.92,1.84-1.62l3.56-3.13c.8-1.02,1.27-2.66,1.42-4.92l-.05-.53c-.14-1.59-1.29-2.88-3.46-3.87-1.28-.87-3.59-1.33-6.92-1.41-2.76.24-6.37,1.22-10.81,2.93-1.22.89-2.61,1.76-4.17,2.63l.02.28c.11,0,.24-.06.41-.16.18-.02.28.06.29.23l.28-.15h.14s0,.12,0,.12c0,.13-.96.89-2.92,2.27l.15.24h-.14s-.3-.1-.3-.1c0,.08-.13.14-.41.16l.02.15.33.36c-.11,0-.25-.02-.44-.09-.63.06-1.25.51-1.86,1.37l.15.24c.53-.49.84-.73.93-.74l.03.4c-.09,0-.23.06-.41.16l.33.5c.64-.69,1.35-1.28,2.12-1.78.38.1.58.22.59.35l.29-.02c2.1-1.55,4.17-2.67,6.22-3.36l.02.28c-.38.57-.64.86-.78.88.02.2.08.37.2.51.03.35-.9,2.71-2.79,7.06-4.3,10.12-7.9,17.61-10.84,22.46,0,.1.06.23.17.39.72-.17,1.18-.35,1.37-.52l.15-.02.02.28.27-.02.28-.15c0,.08.1.12.28.11l.02.28c.02.27-.13.67-.46,1.23-.29.33-.61,1.03-.94,2.1v.13s.28-.02.28-.02c1.17-1.31,2.06-2.59,2.66-3.84,3.41-1,6.01-1.98,7.82-2.95,1.81-.15,3.19-.63,4.14-1.42l-.02-.15-.68.2-.15.02-.02-.15c1.33-.2,2.25-.5,2.76-.9,2.59-2,4.55-3.41,5.87-4.25,2.72-2,4.49-3.95,5.3-5.84.15-.03.29-.07.46-.11.38-.02.59-.02.65-.04-.02-.07.02-.11.09-.13.61-.06.32.04.71-.05l1.02-.24c-.06.02-.09.05-.07.11l.15-.1s-.06,0-.08-.02l.17-.04-.08.05c.11.02.24,0,.37-.02l.07.3-4.66,7.4-1.03,1.29-.5,1.69.1-.02.5-.21-.16.66.05.19.14.17c-.06.02-.09.06-.07.13l.02.11.21-.05c.31-.27.44-.51.39-.73.33.06.55.08.67.05l.02.11c-.2.05-.31.21-.33.49l.02.11.11-.02c1.69-1.84,5.83-8.16,9.16-12.44-.11-.46,1.62-1.1,5.2-1.93l.11-.02c.13.56-.15,1.92-.83,4.07-.44,1.3-.65,2.01-.62,2.13-.57,1.73-.84,2.66-.8,2.81l-1.27,4.15c-.82,2.13-1.45,4.36-1.88,6.72.07-.02.19,0,.35.03l.18-.15c.02.07.07.1.14.08l-.07-.3.55-.02c.16-.04.3-.24.41-.62-.02-.56.09-.86.34-.93.34-1.33.55-2,.63-2.02.32-1.32.55-2.08.71-2.27.48-1.72.83-2.61,1.06-2.66l.05.21-.35.9c-.61,2.71-1.23,4.84-1.85,6.41l.18.78.11-.02c1.51-3.25,3.69-9.68,6.52-19.3.08-.84.49-1.5,1.21-1.97l-.16-.17-.02-.09c.33-.07.55-.2.68-.38-.02-.07-.3-.18-.85-.33l1.41-6.06c.31-.28.49-.42.54-.42l.02.31c-.07,0-.19.05-.32.14l.27.38c.49-.53,1.02-.98,1.59-1.36.29.08.44.18.46.28l.21-.02c1.61-1.18,3.18-2.02,4.74-2.53l.02.2c-.28.43-.48.65-.59.66.02.15.06.28.13.39.02.27-.67,2.06-2.1,5.37-3.27,7.68-6,13.36-8.23,17.04,0,.07.06.17.15.3.54-.13.89-.27,1.03-.4h.1s.02.2.02.2l.23-.02.2-.11c0,.06.08.08.22.07l.02.22c.02.19-.1.5-.35.93-.24.25-.48.78-.74,1.58v.11s.22-.02.22-.02c.89-.99,1.56-1.97,2.02-2.92,2.59-.76,4.57-1.5,5.93-2.23,1.39-.12,2.44-.48,3.15-1.08v-.11s-.54.15-.54.15h-.11s0-.1,0-.1c1.01-.15,1.71-.37,2.1-.67,1.97-1.51,3.45-2.59,4.46-3.23,3.14-2.28,4.6-4.48,4.42-6.58h0Zm-.54.14l.07.82c-.1.2-.2.31-.3.32l-.12-1.4c.23.08.34.16.35.26h0Zm-61.52-6.61h-.14s-.02-.24-.02-.24l.56-.05v.13c-.08,0-.22.06-.4.16h0Zm-2.74,27.39c-.33-.15-.62-.2-.87-.18l-.03-.4c-.02-.15.07-.26.27-.3.18-.02.28.11.3.37.47-.58.73-.87.78-.88l.3.12c-.1.81-.35,1.23-.75,1.26h0Zm29.25-30.6c-.14.02-.41-.41-.81-1.27l-.02-.25c.26-.02.53.4.81,1.27l.02.25h0Zm-.39-3.03l-.11.27-3.97-1.66c2.65.09,4.01.55,4.09,1.39h0Zm-16.78,14.4l-.56.05-.02-.25.56-.05.02.25h0Zm-.46-8.65h.14s.03.39.03.39c-.13,0-.3.2-.51.58l-.02-.28c.25-.3.38-.53.37-.69h0Zm-1.18,2.78l.05.53h-.14s-.05-.52-.05-.52h.14Zm-.62.99l.27-.02c-.02.44-.15.67-.37.69h-.14c.17-.28.25-.51.24-.67h0Zm-.46,1.38l.15-.02v.13s-.24.42-.24.42l-.27.02v-.13c.26-.02.38-.16.36-.43h0Zm-.46,1.24l-.08.67h-.14s-.06-.65-.06-.65l.28-.02h0Zm-4.56,12.96c-.18.91-.37,1.37-.58,1.39v-.13c-.06-.45.14-.87.58-1.26h0Zm-.84,1.81v.13c.02.18-.06.28-.24.29v-.13c-.02-.15.06-.25.24-.29h0Zm-.24,3.76l.42-.04.02.15c-.11,0-.24.06-.41.16l-.27.02c-.02-.14.07-.24.24-.29h0Zm12.02-3.71c-2.37,1.17-3.77,1.97-4.18,2.38-2.57.89-3.84,1.45-3.82,1.67-2.28.9-3.79,1.57-4.51,1.98-.17.02-.41-.05-.74-.2-.04-.46.17-.84.62-1.14.4-.03.78.02,1.15.18.42-.22,1.16-.46,2.21-.72l-.02-.28-.84.07c.11-.15.92-.53,2.45-1.15l.42-.04v.13c-.71.06-1.11.28-1.2.66.02.17.11.24.29.23.54-.34.81-.54.8-.6,1.03-.19,3.88-1.69,8.55-4.48l.02.25c0,.12-.39.46-1.19,1.05h0Zm-7.17,2.36c.68-.06,1.27-.33,1.75-.81.19-.02.3.06.31.23-.33.03-.97.31-1.91.84h-.14s-.02-.26-.02-.26h0Zm11.56-8.88l-3.58,2.84c-2.66,1.75-4.09,2.62-4.3,2.64-4.24,2.33-6.88,3.54-7.9,3.63l-.15.02c.13-.48,2.01-4.34,5.67-11.6,1.61-.14,4.14-.89,7.6-2.25l.84-.07c1.75-.15,3.05.19,3.92,1l.05.53c-.65,1.87-1.36,2.96-2.14,3.27h0Zm-7-3.94l.58-.05v.13s-.57.05-.57.05v-.13h0Zm8.1-1.37l.42-.04c.39.19.59.35.61.5v.13c-.37.03-.71-.16-1.03-.59h0Zm1.15-6.52c-.37.45-1.4,1.21-3.07,2.28-.55.05-2.61.84-6.17,2.4-.18-.08-.37-.11-.57-.1l-.02-.25c-.04-.51.19-1.15.69-1.93.28-1.46.58-2.3.91-2.5l2.97-6.67c-.03-.41.6-.73,1.9-.95l.42-.04.03.38c1.28-.2,2.07-.31,2.38-.33,2.36-.2,3.58.28,3.68,1.42l.27-.02-.06-.67.29-.02c.69.38,1.06.84,1.11,1.39.03.37-.17.84-.6,1.39-.18.02-.28-.11-.3-.37l-.29.02-.06.81c-1.19,1.79-2.06,2.71-2.6,2.75-.49.67-.79,1.01-.91,1.02h0Zm1.82,4.67c-.24-.16-.44-.24-.58-.23l-.03-.4.27-.02.59.35c.02.19-.06.28-.24.3h0Zm1.88,2.23c.26.11.41.22.45.33l-.13.03h0s-.06.02-.08.02l-.19.15-.05-.54h0Zm.18,1.12l-.02-.11.34-.08.02.11-.34.08h0Zm.82.92c.35-.06.52-.08,1.17-.23l.02.11-1.23.28c.02-.06.03-.11.04-.16h0Zm1.2.51c-.52.05-.41-.02-1.23.17l-.02-.11,1.03-.33.5-.11.05.19c-.22.05-.06.05-.32.19h0Zm1.1-.26c-.12.03-.22-.02-.28-.16l.32-.07c.14-.03.23.02.26.16l-.3.07h0Zm2.97-3.2l-.02-.11.51-.12.05.19-.54.03h0Zm3.18,19.48c.03-.15.04-.25.02-.33l.11-.02c.14-.03.22.02.25.15l.02.11-.41.1h0Zm2.23-18.64l-.23-.04c-.37.15-.67.25-.93.31l-.21.05c-.12.03-.22-.02-.27-.15l1.49-.34.49-.23.16.19c-.24.05-.41.12-.5.21h0Zm1.15-.37l-.02-.11c.07-.02.17-.07.28-.18l1.06-.24.02.11c-.56.14-1.01.28-1.33.42h0Zm.16-2.14c-.07.02-.17.08-.29.18-.02-.07-.16-.07-.44,0-.05-.2.73-.49,2.35-.86l.23-.05.05.2c-1.14.33-1.77.52-1.89.54h0Zm2.84-3.07c-.11,1.29-.57,2.02-1.37,2.21l-.02-.11-.72.28-.32.07c-.16.04-.31.03-.44,0l-.06-.28c-.02-.11,1.01-1.54,3.1-4.28l.24.04c.09.37-.05,1.06-.41,2.08h0Zm5.03-4.31h-.1s-.02-.19-.02-.19l.42-.04v.11c-.06.02-.17.06-.31.13h0Zm-2.07,20.81c-.24-.11-.46-.16-.65-.15l-.02-.31c0-.11.06-.18.2-.22.14-.02.22.08.24.29.35-.45.54-.67.59-.67l.22.09c-.08.62-.27.94-.56.97h0Zm22.21-23.23c-.11,0-.31-.32-.63-.97l-.02-.2c.2-.02.41.3.63.95l.02.23h0Zm-.29-2.32l-.1.21-3.01-1.26c2.01.07,3.05.41,3.1,1.05h0Zm-12.75,10.94l-.42.04-.02-.2.42-.03.02.2h0Zm-.35-6.57h.11s.02.3.02.3c-.11,0-.24.15-.39.44l-.02-.2c.19-.24.28-.41.27-.54h0Zm-.89,2.11l.03.4h-.11s-.03-.39-.03-.39h.11Zm-.48.76l.21-.02c-.02.34-.11.52-.27.54h-.11c.12-.22.18-.4.17-.52h0Zm-.34,1.04h.1s0,.1,0,.1l-.19.33-.21.02v-.11c.21-.02.31-.13.29-.33h0Zm-.34.94l-.07.52h-.1s-.04-.5-.04-.5l.21-.02h0Zm-3.47,9.85c-.14.68-.28,1.03-.44,1.05v-.09c-.03-.34.11-.67.44-.96h0Zm-.64,1.37v.09c.02.15-.04.23-.19.24v-.11c-.02-.11.05-.18.19-.22h0Zm-.18,2.86l.32-.02v.11c-.06,0-.18.05-.31.12l-.21.02c0-.11.06-.19.2-.22h0Zm9.12-2.82c-1.79.89-2.85,1.49-3.18,1.8-1.95.68-2.92,1.1-2.9,1.28-1.73.69-2.87,1.19-3.4,1.5-.13,0-.32-.04-.56-.15-.03-.35.13-.63.47-.84.31-.02.6.02.87.13.33-.16.89-.34,1.68-.54l-.02-.2-.67.05c.08-.11.71-.41,1.87-.88l.32-.02v.09c-.54.05-.85.21-.92.5,0,.13.09.2.23.18.41-.27.6-.42.6-.47.78-.14,2.94-1.28,6.49-3.4l.02.2c0,.09-.29.35-.9.8h0Zm-5.44,1.79c.53-.05.97-.25,1.35-.61.14-.02.22.05.23.18-.24.02-.72.23-1.45.62h-.11s-.02-.19-.02-.19h0Zm8.79-6.75l-2.71,2.18c-2.02,1.32-3.12,1.99-3.29,2.01-3.22,1.77-5.22,2.69-6,2.75h-.11c.1-.36,1.54-3.29,4.31-8.8,1.21-.11,3.13-.68,5.76-1.72l.66-.06c1.32-.11,2.32.15,2.97.77l.03.4c-.5,1.4-1.03,2.22-1.62,2.47h0Zm-5.31-2.99l.42-.04v.11s-.41.04-.41.04v-.11h0Zm6.15-1.05l.33-.02c.3.15.45.28.46.38v.09c-.28.02-.54-.12-.79-.45h0Zm.85-4.95c-.28.34-1.06.93-2.32,1.74-.42.04-1.98.64-4.68,1.81-.13-.05-.28-.06-.43-.06l-.02-.2c-.03-.39.14-.88.51-1.47.21-1.12.45-1.75.69-1.89l2.27-5.07c-.02-.3.46-.54,1.43-.73l.32-.02.02.31c.96-.15,1.56-.24,1.8-.27,1.79-.15,2.72.2,2.79,1.08l.21-.02-.04-.49.21-.02c.52.28.8.63.83,1.03.02.29-.12.65-.43,1.06-.14.02-.22-.08-.24-.29l-.21.02-.07.61c-.9,1.37-1.56,2.08-1.97,2.11-.37.5-.59.75-.7.76h0Zm.95,3.38l-.02-.31.21-.02.46.28c0,.13-.06.2-.2.22-.19-.12-.34-.18-.45-.17h0Zm-37.82,19.73l-.21.05-.18.15c.03.13.11.18.25.15.14-.03.2-.11.16-.24l-.02-.11h0Zm-.8-1.6l.02.11c.14-.03.19-.11.16-.24l-.02-.11c-.13.03-.19.11-.16.24h0Zm5.72-13.61l.24-.06-.05-.21-.24.06.05.21h0Zm73.72,6.19c-2.47.55-2.78.45-3.3.5l.02.2.23-.02h.12s-.03-.03-.03-.03l.27-.11c2.45-.27,2.73-.17,2.71-.45v-.1h0Zm-13.3,1.76l.02.2h.03l-.02-.2h-.03Zm-1.53-5.35l-.22-.07c-.18.48-.27.76-.26.84v.09c.18,0,.33-.3.48-.86h0Zm15.33,3.55l.02.2.36.06-.02-.2-.36-.06h0Zm-16.81,2.06l-.55-.06-.1.21v.11s3.3-.28,3.3-.28l-.02-.2-2.63.23h0Zm-1.49-7.21v-.11s-.12,0-.12,0l-.2.13.11.19c.15-.02.23-.09.21-.23h0Zm19.86,3.66l.15-.02c.09,0,.13-.08.12-.21l-.09-.2c-.56.05-.82.07-1.28.33v-.11s-.68.06-.68.06c-.02-.2-.07-.31-.16-.3l-.35.03c-.41.03-.6.02-.8.17,0-.07-.03-.11-.07-.11l-.39.03-.23.13c0-.07-.03-.11-.07-.11l-.14.12v-.11s-.55-.04-.55-.04h-.13s.02.21.02.21l.28.07.26-.02c.09.06.19.07.3.06l.23-.11v.09c-1.27.32-1.26.26-2.14.41-.1-.07-.17-.1-.22-.09l-.02.02c-.1,0-.15-.07-.16-.18l.45-.06s.06.03.31.08c.37-.18.38-.25.58-.27l-.02-.2c-1.25.24-.75.08-2.32.22h-.07s-.02-.19-.02-.19c2.01-.24,1.34-.11,2.03-.3,0,.07.03.11.07.11.08-.08.17-.12.28-.14h.14c.71-.07.94.07,2.34-.32v.09s.24-.11.24-.11l.21-.02c-.02-.2.29-.24.4-.24l-.02-.22c-2.45.5-3.1.36-3.78.55v-.09c-.65.11-.67.06-.84.07-.05,0-.12.05-.2.13,0-.07-.03-.11-.08-.11-.02,0-.03,0-.04,0l-2.08.34c0-.06-.03-.09-.08-.08-1.08.23-.79.27-2.23.4-.07,0-.15.04-.27.11,0-.06-.04-.09-.11-.08l-.89.07-.59.15c0-.06-.04-.09-.11-.08-.33.09-.63.15-.86.16h-.02c-.15.02.07-.04-.04-.09l-.18.11c-.26.02-.12-.02-1.02,0-1.57.2-1.4.22-1.57.23l-.59-.04c0,.06-.02.1-.09.1-.67-.09-1.01-.2-1.02-.32.09-.63.24-.96.46-.97h.11s-.1.2-.1.2h.11c.21-.12.31-.23.3-.33l-.02-.22-.21.02-.02-.2c-.02-.15,0-.29.07-.41l.48-.77.02.2.23-.02-.02-.2-.13-.19c.17-.15.3-.23.41-.24v-.11s-.32.02-.32.02l-.02-.31c.62-1.28.91-2.03.89-2.24l.22.09c.14,0,.2-.09.19-.24l-.21.02v-.09c-.02-.15,0-.3.07-.43.33-.35.49-.7.46-1.06.07,0,.1.02.11.1.28-.16.5-.59.67-1.31.5-.91,1.22-2.73,2.15-5.45,1.79-4.81,1.71-5.32,1.97-6.46l-.21.02c.02.15-.02.28-.08.41-.15-.06-.26-.09-.34-.08v-.09c-.04-.41.13-.91.52-1.49h.1s.18.69.18.69l.21-.02s.05-.33.16-.84c0-.11-.09-.17-.25-.18l-.2.13c-.02-.15,0-.53.02-1.14h-.11c-.18-.17-.27-.32-.28-.44l-1.16.11c0-.08-.05-.2-.13-.36,0-.11.25-.21.79-.32l.24.09.22-.13c0,.07.05.11.13.1l.22-.13c0,.07.05.11.13.1h.11s-.02-.24-.02-.24c-.16.02-.59.02-1.28,0l-.22.15v-.13c-5.46.45-8.55.7-9.29.77-.1,0-.48,0-1.15-.02,0,.09-.07.14-.24.15l-.24-.11-.8.2c-.19.02-.5,0-.94-.04-.12.1-.27.15-.45.17-.1,0,1.16-.07,2.33-.15-.12.1-.31.15-.57.18-.18.02-.33,0-.46-.08-.18.08-.76.21-1.72.41l-.24-.09-3.8.58c-.15-.07-.32-.1-.51-.08-.2.02-.54.09-1.02.22l-1.84.76.14.23c.09,0,.22-.06.37-.15l.65.06-.08.61c-.6.27-.95.67-1.05,1.17-.9.4-1.35.68-1.35.85v.11s.15,0,.15,0l.24-.13.28.34.04.47c.02.15-1.5,3.34-4.54,9.58-2.63,6.01-4.01,9.3-4.14,9.9-.9.25-1.42.62-1.58,1.1.02.15.28.26.8.3l.02.24-.24.39.04.47c.02.24.68.43,1.97.56,0-.08.03-.13.12-.14.02.29-.06.86-.24,1.71h.14c.54-.74.79-1.24.76-1.52h.11c.13-.02.27.13.43.45-.16.07-.73,1.36-1.71,3.88l.14.23h.14c1.19-3.03,1.94-4.7,2.25-5.02,1.57-.14,4.28-.41,8.13-.83l.24-.15c0,.08.06.12.15.11l.25-.02.24-.15c0,.08.06.12.15.11l2.92-.25c.77-.06,1.14-.3,1.1-.7,0-.11.45-.23,1.36-.36.09,0,.22.02.4.07,0-.07.45-.15,1.38-.23.02-.49.18-.75.46-.77l-.02-.24c-.26.02-.55.09-.89.2-.61-.03-1-.08-1.16-.14-.16.09-.28.14-.37.15l-2.03.07-.24.13c0-.07-.06-.11-.15-.1h-.11s-.26.14-.26.14c0-.07-.22-.13-.64-.19l-.26.15-.5.04v-.13c2.61-.28,3.9-.64,3.87-1.06.17-.02.26.06.28.24l.76-.2-.02-.24-6.26.17c0,.08-.03.13-.12.14l-.76-.06c-.2.02-.36.07-.49.17l-.28-.11c-.79.07-1.37.16-1.76.28-.54-.04-1.13-.03-1.79.02l-1.41.12-.65-.07c-.03-.41.77-2.45,2.43-6.11.48-1.23.92-2.01,1.34-2.3.09,0,.22.02.4.1l1-.34.51.08c.86-.07,1.86-.32,3.01-.74.28-.02.5,0,.65.06l.76-.18,2.27-.19c.97-.08,2.01-.29,3.15-.64l-.02-.24c-.42.04-.64-.03-.66-.2-.02-.32-.33-.45-.93-.4l-.02-.24.63-.18,1.64-.14-.02-.24c-.06,0-.4,0-1.02-.02l-.02-.25.63-.06c.17-.02.24-.1.23-.26-.85.02-1.28-.02-1.29-.13-5.95.29-8.93.35-8.94.16-.09,0-.21.07-.37.16l-.15-.24c1.58-3.35,2.5-5.04,2.77-5.06,0,.13-.06.34-.2.63v.11s.26-.02.26-.02c.63-1.49,1.15-2.27,1.59-2.3,1.87-.16-.26-.28,3.74-.91.16.07.28.11.36.1,1.57-.32,3.75-.65,6.56-.99l-.02-.24-1.49.14-.02-.24c.18-.02.32-.07.45-.17v.13c.09,0,.2-.07.35-.16.26-.02.45,0,.59.07.52-.14.94-.22,1.25-.25l.93-.09c.23-.15.33-.28.33-.4v-.11c-.24.02-.51,0-.83-.05,0-.13.06-.22.21-.26l1.74-.16.8-.2c0,.09.05.12.11.12.08,0,.2-.07.34-.16.04,0,.09,0,.13.02-.11.22-.23.54-.35.95l-.23.02c-.02-.15-.06-.29-.13-.41h-.11c-2.11,5.89-3.05,8.63-5,13.14-.36,1.15-.66,1.8-.92,1.93,0,.13.09.19.23.18.05.57-.08,1.13-.4,1.68-.9,2.6-1.5,4.02-1.81,4.28l.2,1.23c0,.13-.06.2-.19.22l-.21.02c-.03-.34-.15-.5-.37-.48h-.11c-.28.44-.49.93-.63,1.51l.21-.02c.28-.19.41-.41.39-.66l.42-.04.24.09c-.19.31-.28.55-.27.74l.11.2-.28.65v.11c.25-.02.52.06.8.23.19-.02.41-.11.64-.26.24-.02,1.15-.03,2.72-.03l.79-.27c.96,0,1.11.02,1.94-.06l.34-.03.18-.12v.11c.88-.07.93-.02,1.62.06v.11s-.47.04-.47.04l.02.2c.15-.02.28-.06.38-.15.12,0,.19.06.2.2-.19.02-.41.06-.66.15l-.21-.07c-.33.09-.26.11-.49.13l-.33-.06c0,.06-.02.1-.08.1,0,.13.08.2.2.19l.34-.03,1.78-.15.67-.15c0,.06.03.09.09.08l.32-.12.61-.05c.47-.04.46-.07,1.49-.24,0-.06.02-.09.07-.1v.09c1.67-.28,1.78-.3,2.05-.39l.02.05c.41-.1.18-.07.29-.15,0,.07.03.11.07.11l.29-.02-.02-.22h-.59s0-.02,0-.02c-.02,0-.04,0-.07.02h-.08v.02c-.4.08-.41.02-.67.05l-1.49.08v-.11s.82-.11.82-.11l.3-.02.17-.12v.11c1.18-.1,1.59.19,7-.96.29-.02.27-.27.46-.77-.1,0-.2-.02-.28-.06-.45.17-.68.09-1.54.23-.07,0-.13-.06-.15-.19v-.09s.82.02.82.02c.15-.02.46-.04.9-.29,0,.07-.16.11-.07.11h0Zm-40,.64l-.38.03c-.02-.15.19-.74.61-1.74l.25-.02c0,.24-.15.81-.48,1.73h0Zm.46-1.85v-.11c-.02-.13.07-.22.24-.26v.11c.02.15-.07.24-.24.26h0Zm5.08,3.92v.11s-.63.06-.63.06v-.11s.63-.06.63-.06h0Zm-.76-.07c0,.13-.19.28-.61.42l-.78-.06-.25.02-.02-.24,1.67-.15h0Zm5.13-23.63l-.38.03v-.13c-.02-.13.06-.22.22-.26h.14s.26.1.26.1c0,.15-.06.24-.24.26h0Zm5.81-1.14h.12s.02.23.02.23l-.35.03c0-.13.06-.22.21-.26h0Zm-1.46.51l-.58-.07v-.11c.75-.07,1-.15,1.46-.28,0,.09.09.12.24.11l.02.24-.23.02c-.18.02-.33,0-.46-.08-.14.09-.28.15-.45.16h0Zm.72,2.1v-.11s.93-.09.93-.09v.11s-.93.09-.93.09h0Zm1-.81v-.13s.45-.04.45-.04v.13s-.45.04-.45.04h0Zm.11-1.59h-.12s.11-.24.11-.24l1.04-.1v.13c-.26.02-.61.1-1.02.21h0Zm.53,2.24l-.02-.24.46-.04c.15-.02.24.06.24.22l-.68.06h0Zm2.75-3.75l-.59.16h-.11c-.28.03-.63.02-1.06-.02.76-.05,1.48-.11,1.75-.15h0Zm-.63,2.6v.11s-.8.07-.8.07v-.11s.8-.07.8-.07h0Zm1.32.63c0-.1-.16-.16-.48-.19l-.8.23-.62.02c-.14-.1-.21-.16-.22-.21l.72.04,1.61-.26.82.03v.13c-.4.04-.74.11-1.02.21h0Zm8.28-2.14c.1,0,.16,0,.19,0,.28-.28.6-.5.97-.65-.29,1.28-.75,2.23-1.37,2.85l-.46-.28c.38-.97.61-1.61.67-1.93h0Zm-1.4,2.4h.11c-.15.28-.29.44-.41.45l-.02-.31c.07,0,.18-.05.32-.14h0Zm-.9,2.15c.22-.88.43-1.37.63-1.5v.11c-.11.81-.28,1.24-.52,1.28l.04.51c-.2.28-.28.49-.28.65h-.11s-.07-.7-.07-.7c.13-.02.24-.13.31-.34h0Zm-.35,1.17c0,.12-.07.41-.24.84h-.11s-.02-.3-.02-.3c.15-.36.28-.54.37-.54h0Zm-6.56,19.03v-.09s.2-.02.2-.02l.02.31c-.11,0-.19-.06-.23-.2h0Zm9.37.24c0-.07-.04-.11-.11-.1l-.53.05v-.11s.04,0,.04,0l1.25-.11v.11c-.36.02-.58.07-.65.15h0Zm-.63-.26s.02.05,0,.06c-.02,0-.06-.03,0-.06h0Zm.07-1.46l-.7.06v-.11s.63-.06.63-.06l.55-.14c0,.06.04.09.11.08.66-.11.59-.15.91-.17.11,0,.17.06.18.19l-1.68.15h0Zm2.45-.21c-.39-.04-.41-.07-.69-.05v-.09s.62-.06.62-.06v.09c-.06,0,.18.02.07.11h0Zm.05-.11v-.09s.33-.03.33-.03v.09s-.33.03-.33.03h0Zm.76-.07v-.09s.13-.05.24-.13c.17-.02.26.1.28.23h-.51Zm.97-.12v-.11s.41-.03.41-.03v.11s-.41.03-.41.03h0Zm.58-.05c0-.12.04-.19.15-.21l.14.18c0-.06.02-.09.07-.1l.11.2-.46-.07h0Zm-6.13,2.65l-.02-.2h-.07s.02.21.02.21h.07Zm14.27-3.7c.06-.04.1-.08-.06-.11-.07.08.08.11-.08.11v.07s.06-.04.1-.06l-.09.07h0s-.17.23-.17.23l.34-.12h.04l-.02-.2h-.06Zm.59.46h-.07s.02.21.02.21l.48-.04c0-.13-.33-.17-.43-.17h0Zm-.74-.36h0v-.02s0,0,0,.02h0Z"/><path class="b" d="m86.64,51.91v.13s.28-.02.28-.02c0-.08.02-.21.08-.37l-.02-.24c-.11,0-.23.18-.33.5h0Zm-2.57-6.17l-.02-.24-.38.03.02.24.38-.03h0Zm-7.45,13.95c-.02-.22-.7-1.07-2.05-2.58-.02-.28.44-.69,1.39-1.23l2.71-2.36c.61-.77.97-2.02,1.07-3.76l-.03-.4c-.11-1.2-.97-2.17-2.62-2.91-.97-.66-2.73-1.02-5.26-1.09-2.1.18-4.83.93-8.21,2.25-.93.67-1.98,1.33-3.17,2l.02.2c.07,0,.19-.05.32-.14.14-.02.22.05.23.18l.2-.11h.1s0,.08,0,.08c0,.11-.72.68-2.2,1.71l.11.21h-.1s-.24-.08-.24-.08c0,.07-.1.12-.3.14v.09s.24.29.24.29c-.07,0-.19-.02-.34-.08-.34.03-.67.21-1.01.55l.14-.6c.5-2.14.84-4.03,1.02-5.67l-.02-.11c-.34-.22-.67-.53-.98-.92,0-.25,0-.4,0-.43l-.02-.09-.1.02c-1.07,1.61-3.14,4.35-6.2,8.24-2.33,2.76-3.53,4.3-3.61,4.61-.95.98-1.41,1.58-1.36,1.78-.25.16-.36.32-.32.5-.07.02-.12,0-.14-.08-.41.66-1.01,1.08-1.81,1.27l-.84.19c-.11.02-.17.11-.16.24l.02.11.32-.07.02.09-.71.28-1.27.29-.67.04c-.1.1.53,0,.28.05l-.83.2c-.5.11-.78.07-.83-.13l-.1.02c.02.09.02.15,0,.21l-.05-.2-.67.15c-.05-.31-.95-1.43-2.7-3.36-.03-.37.59-.92,1.84-1.62l3.56-3.13c.8-1.02,1.27-2.66,1.42-4.92l-.05-.53c-.14-1.59-1.29-2.88-3.46-3.87-1.28-.87-3.59-1.33-6.92-1.41-2.76.24-6.37,1.22-10.81,2.93-1.22.89-2.61,1.76-4.17,2.63l.02.28c.11,0,.24-.06.41-.16.18-.02.28.06.29.23l.28-.15h.14s0,.12,0,.12c0,.13-.96.89-2.92,2.27l.15.24h-.14s-.3-.1-.3-.1c0,.08-.13.14-.41.16l.02.15.32.36c-.11,0-.25-.02-.44-.09-.63.06-1.25.51-1.86,1.37l.15.24c.53-.49.84-.73.93-.74l.03.4c-.09,0-.23.06-.41.16l.33.5c.64-.69,1.35-1.28,2.12-1.78.38.1.59.22.59.35l.29-.02c2.1-1.55,4.17-2.67,6.22-3.36l.02.28c-.38.57-.64.86-.78.88.02.2.08.37.2.51.03.35-.9,2.71-2.79,7.06-4.3,10.12-7.9,17.61-10.84,22.45,0,.1.07.23.17.39.72-.17,1.18-.35,1.37-.52l.15-.02.02.28.27-.02.28-.15c0,.08.1.12.28.11l.02.28c.02.27-.13.67-.46,1.23-.29.33-.61,1.03-.94,2.1v.13s.28-.02.28-.02c1.17-1.31,2.06-2.59,2.66-3.84,3.41-1,6.01-1.98,7.82-2.95,1.81-.15,3.19-.63,4.14-1.42l-.02-.15-.68.2-.15.02-.02-.15c1.33-.2,2.25-.5,2.76-.9,2.59-2,4.55-3.41,5.87-4.25,2.72-2,4.49-3.95,5.3-5.84.15-.03.29-.07.45-.11.38-.02.59-.02.65-.04-.02-.07.02-.11.09-.13.61-.06.32.04.71-.05l1.02-.24.17-.04-.08.05c.11.02.24,0,.37-.02l.07.3-4.66,7.4-1.03,1.29-.5,1.69.1-.02.5-.21-.16.66.05.19.14.17c-.07.02-.09.06-.07.13l.02.11.21-.05c.31-.27.44-.51.39-.73.33.06.55.08.67.05l.02.11c-.2.05-.31.21-.32.49l.02.11.11-.02c1.69-1.84,5.83-8.16,9.16-12.44-.11-.46,1.62-1.1,5.2-1.93l.11-.02c.13.56-.15,1.92-.83,4.07-.44,1.3-.65,2.01-.62,2.13-.57,1.73-.84,2.66-.8,2.81l-1.27,4.15c-.82,2.13-1.45,4.36-1.88,6.72.07-.02.19,0,.35.03l.18-.15c.02.07.06.1.14.08l-.07-.3.55-.02c.16-.04.3-.24.41-.62-.02-.56.09-.86.34-.93.34-1.33.55-2,.63-2.02.32-1.32.55-2.08.71-2.27.48-1.72.83-2.61,1.06-2.66l.05.21-.35.9c-.61,2.71-1.23,4.84-1.85,6.41l.18.78.11-.02c1.51-3.25,3.69-9.68,6.52-19.3.08-.84.49-1.5,1.21-1.97l-.16-.17-.02-.09c.33-.07.55-.2.68-.38-.02-.07-.3-.18-.85-.33l1.41-6.06c.31-.28.49-.42.54-.42l.02.31c-.07,0-.19.05-.32.14l.27.38c.49-.53,1.02-.98,1.59-1.36.29.08.44.18.46.28l.21-.02c1.61-1.18,3.18-2.02,4.74-2.53l.02.2c-.28.43-.48.65-.58.66.02.15.06.28.13.39.02.27-.67,2.06-2.1,5.37-3.27,7.68-6,13.36-8.23,17.04,0,.07.06.17.15.3.54-.13.89-.27,1.03-.4h.1s.02.19.02.19l.23-.02.2-.11c0,.06.08.08.22.07l.02.22c.02.19-.1.5-.35.93-.24.25-.48.78-.74,1.58v.11s.22-.02.22-.02c.89-.99,1.56-1.97,2.02-2.92,2.59-.76,4.57-1.5,5.93-2.23,1.39-.12,2.44-.48,3.15-1.08v-.11s-.54.15-.54.15h-.11s0-.1,0-.1c1.01-.15,1.71-.37,2.1-.67,1.97-1.51,3.45-2.59,4.46-3.23,3.14-2.28,4.6-4.48,4.42-6.58h0Zm-.54.14l.07.82c-.1.2-.2.31-.3.32l-.12-1.4c.23.08.34.16.35.26h0Zm-61.52-6.61h-.14s-.02-.24-.02-.24l.56-.05v.13c-.08,0-.22.06-.4.16h0Zm-2.74,27.39c-.32-.15-.62-.2-.87-.18l-.03-.4c-.02-.15.07-.26.27-.3.18-.02.28.11.3.37.47-.58.73-.87.78-.88l.3.12c-.1.81-.35,1.23-.75,1.26h0Zm29.25-30.6c-.14.02-.41-.41-.81-1.27l-.02-.25c.26-.02.53.4.81,1.27l.02.25h0Zm-.39-3.03l-.11.27-3.97-1.66c2.65.09,4.01.55,4.09,1.39h0Zm-16.78,14.4l-.56.05-.02-.25.56-.05.02.25h0Zm-.46-8.65h.14s.03.39.03.39c-.13,0-.3.2-.51.58l-.02-.28c.25-.3.38-.53.37-.69h0Zm-1.18,2.78l.05.53h-.14s-.05-.52-.05-.52h.14Zm-.62.99l.27-.02c-.02.44-.15.67-.37.69h-.14c.17-.28.25-.51.24-.67h0Zm-.46,1.38l.15-.02v.13s-.24.42-.24.42l-.27.02v-.13c.26-.02.38-.16.36-.43h0Zm-.45,1.24l-.08.67h-.14s-.06-.65-.06-.65l.28-.02h0Zm-4.56,12.96c-.18.91-.37,1.37-.58,1.39v-.13c-.06-.45.14-.87.58-1.26h0Zm-.84,1.81v.13c.02.18-.06.28-.24.29v-.13c-.02-.15.06-.25.24-.29h0Zm-.24,3.76l.42-.04.02.15c-.11,0-.24.06-.41.16l-.27.02c-.02-.14.07-.24.24-.29h0Zm12.02-3.71c-2.37,1.17-3.77,1.97-4.18,2.38-2.57.89-3.84,1.45-3.82,1.67-2.28.9-3.79,1.57-4.51,1.98-.17.02-.41-.05-.74-.2-.04-.46.17-.84.62-1.14.4-.03.78.02,1.15.18.42-.22,1.16-.46,2.21-.72l-.02-.28-.84.07c.11-.15.92-.53,2.45-1.15l.42-.04v.13c-.71.06-1.11.28-1.2.66.02.17.11.24.29.23.54-.34.81-.54.8-.6,1.03-.19,3.88-1.69,8.55-4.48l.02.25c0,.12-.39.46-1.19,1.05h0Zm-7.17,2.36c.68-.06,1.27-.33,1.75-.81.2-.02.3.06.31.23-.33.03-.97.31-1.91.84h-.14s-.02-.26-.02-.26h0Zm11.56-8.88l-3.58,2.84c-2.66,1.75-4.09,2.62-4.31,2.64-4.24,2.33-6.88,3.54-7.9,3.63l-.15.02c.13-.48,2.01-4.34,5.67-11.6,1.61-.14,4.14-.89,7.6-2.25l.84-.07c1.75-.15,3.05.19,3.92,1l.05.53c-.64,1.86-1.36,2.95-2.13,3.27h0Zm-7-3.94l.58-.05v.13s-.57.05-.57.05v-.13h0Zm8.1-1.37l.42-.04c.39.19.59.35.61.5v.13c-.37.03-.72-.16-1.03-.59h0Zm1.15-6.52c-.37.45-1.4,1.21-3.07,2.28-.55.05-2.61.84-6.17,2.4-.18-.08-.37-.11-.57-.1l-.02-.25c-.04-.51.19-1.15.69-1.93.28-1.46.58-2.3.91-2.5l2.97-6.67c-.03-.41.6-.73,1.9-.95l.42-.04.03.38c1.28-.2,2.07-.31,2.38-.33,2.36-.2,3.58.28,3.68,1.42l.27-.02-.06-.67.29-.02c.69.38,1.06.84,1.11,1.39.03.37-.17.84-.6,1.39-.18.02-.28-.11-.3-.37l-.29.02-.06.81c-1.19,1.79-2.06,2.71-2.6,2.75-.49.67-.79,1.01-.91,1.02h0Zm1.82,4.67c-.24-.16-.44-.24-.59-.23l-.03-.4.27-.02.59.35c.02.19-.06.28-.24.3h0Zm1.88,2.23c.26.11.41.22.45.33l-.13.03h0s-.06.02-.08.02l-.2.15-.05-.54h0Zm.18,1.12l-.02-.11.34-.08.02.11-.34.08h0Zm.82.92c.35-.06.52-.08,1.17-.23l.02.11-1.23.28c.02-.06.03-.11.04-.16h0Zm1.2.51c-.52.05-.41-.02-1.23.17l-.02-.11,1.04-.33.5-.11.05.19c-.23.05-.07.05-.33.19h0Zm1.1-.26c-.12.03-.22-.02-.28-.16l.32-.07c.14-.03.23.02.26.16l-.3.07h0Zm2.97-3.2l-.02-.11.51-.12.05.2-.54.03h0Zm3.18,19.48c.03-.15.04-.25.02-.33l.11-.02c.14-.03.22.02.25.15l.02.11-.41.1h0Zm2.23-18.64l-.23-.04c-.37.15-.67.25-.93.31l-.21.05c-.12.03-.22-.02-.27-.15l1.49-.34.49-.23.16.19c-.24.05-.41.12-.5.21h0Zm1.15-.37l-.02-.11c.07-.02.17-.07.28-.18l1.06-.24.02.11c-.56.14-1.01.28-1.33.42h0Zm.16-2.14c-.07.02-.17.08-.29.18-.02-.07-.16-.07-.44,0-.05-.2.73-.49,2.35-.86l.23-.05.05.2c-1.14.33-1.77.52-1.89.54h0Zm2.84-3.07c-.11,1.29-.57,2.02-1.37,2.21l-.02-.11-.72.28-.32.07c-.16.04-.31.03-.44,0l-.07-.28c-.02-.11,1.01-1.54,3.1-4.28l.24.04c.09.37-.05,1.06-.41,2.08h0Zm5.03-4.31h-.1s-.02-.19-.02-.19l.42-.04v.11c-.07.02-.17.06-.31.13h0Zm-2.07,20.81c-.24-.11-.46-.16-.65-.15l-.02-.31c0-.11.06-.18.19-.22.14-.02.22.08.24.29.35-.45.54-.67.58-.67l.22.09c-.08.62-.27.94-.56.97h0Zm22.21-23.23c-.11,0-.31-.32-.63-.97l-.02-.2c.2-.02.41.3.63.95l.02.23h0Zm-.29-2.32l-.1.21-3.01-1.26c2.01.07,3.05.41,3.1,1.05h0Zm-12.75,10.94l-.42.04-.02-.2.42-.04.02.2h0Zm-.35-6.57h.11s.02.3.02.3c-.11,0-.24.15-.39.44l-.02-.2c.19-.24.28-.41.27-.54h0Zm-.89,2.11l.03.4h-.11s-.03-.39-.03-.39h.11Zm-.48.76l.21-.02c-.02.34-.11.52-.27.54h-.11c.12-.22.18-.4.17-.52h0Zm-.34,1.04h.1s0,.1,0,.1l-.19.33-.21.02v-.11c.21-.02.31-.13.29-.33h0Zm-.34.94l-.07.52h-.1s-.04-.5-.04-.5l.21-.02h0Zm-3.47,9.85c-.14.68-.28,1.03-.44,1.05v-.09c-.03-.34.11-.67.44-.96h0Zm-.64,1.37v.09c.02.15-.04.23-.19.24v-.11c-.02-.11.05-.18.19-.22h0Zm-.18,2.86l.33-.02v.11c-.07,0-.18.05-.31.12l-.21.02c0-.11.06-.19.19-.22h0Zm9.12-2.82c-1.79.89-2.85,1.49-3.18,1.8-1.95.68-2.92,1.1-2.9,1.28-1.73.69-2.87,1.19-3.4,1.5-.13,0-.32-.04-.56-.15-.03-.35.13-.63.47-.84.31-.02.6.02.87.13.32-.16.89-.34,1.68-.54l-.02-.2-.66.06c.08-.11.71-.41,1.87-.88l.32-.02v.09c-.54.05-.85.21-.92.5,0,.13.09.19.23.18.41-.27.6-.42.6-.47.78-.14,2.94-1.28,6.49-3.4l.02.2c0,.08-.3.34-.91.79h0Zm-5.44,1.79c.53-.05.97-.25,1.35-.61.14,0,.22.05.23.18-.24.02-.72.23-1.45.62h-.11s-.02-.19-.02-.19h0Zm8.79-6.75l-2.71,2.18c-2.02,1.32-3.12,1.99-3.29,2.01-3.22,1.77-5.22,2.69-6,2.75h-.11c.1-.36,1.54-3.29,4.31-8.8,1.21-.11,3.13-.68,5.76-1.72l.66-.06c1.32-.11,2.32.15,2.97.77l.03.4c-.5,1.4-1.03,2.22-1.62,2.47h0Zm-5.31-2.99l.42-.04v.11s-.41.04-.41.04v-.11h0Zm6.15-1.05l.33-.02c.3.15.46.28.46.38v.09c-.28.02-.54-.12-.79-.45h0Zm.85-4.95c-.28.34-1.06.93-2.32,1.74-.42.04-1.98.64-4.68,1.81-.13-.05-.28-.06-.43-.06l-.02-.2c-.03-.39.14-.88.51-1.47.21-1.12.45-1.75.69-1.89l2.27-5.07c-.02-.3.45-.54,1.43-.73l.33-.02.02.31c.96-.15,1.56-.24,1.8-.27,1.79-.15,2.72.2,2.79,1.08l.21-.02-.04-.49.21-.02c.52.28.8.63.83,1.03.02.29-.12.65-.43,1.06-.14.02-.22-.08-.24-.29l-.21.02-.06.61c-.9,1.37-1.56,2.08-1.97,2.11-.37.5-.59.75-.7.76h0Zm.95,3.38l-.02-.31.21-.02.45.28c0,.13-.06.2-.19.22-.2-.12-.34-.18-.45-.17h0Zm-37.82,19.73l-.21.05-.18.15c.03.13.11.18.25.15.14-.03.19-.11.16-.24l-.02-.11h0Zm-.8-1.6l.02.11c.14-.03.2-.11.16-.24l-.02-.11c-.13.03-.19.11-.16.24h0Zm5.75-10.81l.15-.1s-.06,0-.08-.02c-.06.02-.08.06-.07.11h0Zm-.03-2.8l.24-.06-.05-.21-.24.06.05.21h0Zm57.41,8.21l-.55-.06-.1.21v.11s3.3-.28,3.3-.28l-.02-.2-2.63.23h0Zm3.01-.25l.02.2h.03l-.02-.2h-.03Zm13.8-1.8l.02.2.36.06-.02-.2-.36-.07h0Zm-.5.04c-2.47.55-2.78.46-3.3.5l.02.2.23-.02h.12s-.03-.03-.03-.03l.27-.11c2.45-.27,2.73-.17,2.71-.45v-.1h0Zm-14.83-3.59l-.22-.07c-.18.48-.27.76-.26.84v.09c.18,0,.33-.3.48-.86h0Zm-2.97-1.6v-.11s-.12,0-.12,0l-.2.13.11.19c.15-.02.23-.09.21-.23h0Zm6.46,6.68l-.02-.2h-.06s.02.21.02.21h.07Zm13.4-3.02l.15-.02c.09,0,.13-.08.12-.21l-.09-.2c-.56.05-.82.07-1.28.33v-.11s-.68.07-.68.07c-.02-.2-.07-.31-.16-.3l-.35.03c-.41.03-.6.02-.8.17,0-.07-.03-.11-.07-.11l-.39.03-.23.13c0-.07-.03-.11-.07-.11l-.14.12v-.11s-.55-.04-.55-.04h-.13s.02.21.02.21l.28.07.26-.02c.09.06.19.07.3.06l.23-.11v.09c-1.27.32-1.26.26-2.14.41-.1-.06-.17-.1-.22-.09l-.02.02c-.1,0-.15-.07-.16-.18l.46-.06s.06.03.31.08c.37-.18.38-.25.58-.27l-.02-.2c-1.25.24-.75.08-2.32.22h-.07s-.02-.19-.02-.19c2.01-.24,1.34-.11,2.03-.3,0,.07.03.11.07.11.08-.08.17-.12.28-.14h.14c.71-.06.94.07,2.34-.32v.09s.24-.11.24-.11l.21-.02c-.02-.2.29-.24.4-.24l-.02-.22c-2.45.5-3.1.36-3.78.55v-.09c-.65.11-.67.06-.84.07-.05,0-.12.05-.2.13,0-.07-.03-.11-.08-.11-.02,0-.03,0-.04,0l-2.08.34c0-.06-.03-.09-.08-.08-1.08.23-.79.27-2.23.4-.06,0-.15.04-.27.11,0-.06-.04-.09-.11-.08l-.89.07-.59.15c0-.06-.04-.09-.11-.08-.33.09-.63.15-.86.16h-.02c-.15.02.07-.04-.04-.09l-.18.11c-.26.02-.12-.02-1.02,0-1.57.2-1.4.22-1.57.23l-.59-.04c0,.06-.02.1-.09.1-.67-.09-1.01-.2-1.02-.32.09-.63.24-.96.46-.97h.11s-.1.2-.1.2h.11c.21-.12.31-.23.3-.33l-.02-.22-.21.02-.02-.2c-.02-.15,0-.29.06-.41l.48-.77.02.2.23-.02-.02-.2-.13-.19c.17-.15.3-.23.41-.24v-.11s-.32.02-.32.02l-.02-.31c.62-1.28.91-2.03.89-2.24l.22.09c.14,0,.2-.09.2-.24l-.21.02v-.09c-.02-.15,0-.3.07-.43.33-.35.49-.7.45-1.06.07,0,.1.02.11.1.28-.16.5-.59.67-1.31.5-.91,1.22-2.73,2.15-5.45,1.79-4.81,1.71-5.32,1.97-6.46l-.21.02c.02.15-.02.28-.08.41-.15-.06-.26-.09-.34-.08v-.09c-.04-.41.13-.91.52-1.49h.1s.18.69.18.69l.21-.02s.05-.33.16-.84c0-.11-.09-.17-.25-.18l-.2.13c-.02-.15,0-.53.02-1.14h-.11c-.18-.17-.27-.32-.28-.44l-1.16.11c0-.08-.05-.2-.13-.36,0-.11.25-.21.79-.32l.24.09.22-.13c0,.07.05.11.13.1l.22-.13c0,.07.05.11.13.1h.11s-.02-.24-.02-.24c-.16.02-.59.02-1.28,0l-.22.15v-.13c-5.46.45-8.55.7-9.29.77-.1,0-.48,0-1.15-.02,0,.09-.07.14-.24.15l-.24-.11-.8.2c-.19.02-.5,0-.94-.04-.12.1-.27.15-.45.17-.1,0,1.16-.07,2.33-.15-.12.1-.31.15-.57.18-.18.02-.33,0-.46-.08-.18.08-.76.21-1.72.41l-.24-.09-3.8.59c-.15-.07-.32-.1-.51-.08-.2.02-.54.09-1.02.22l-1.84.76.14.23c.09,0,.22-.06.37-.15l.65.06-.08.61c-.6.27-.95.67-1.05,1.17-.9.4-1.35.68-1.35.85v.11s.15,0,.15,0l.24-.13.28.34.04.47c.02.15-1.5,3.34-4.54,9.58-2.63,6.01-4.01,9.3-4.14,9.9-.9.25-1.42.62-1.58,1.1.02.15.28.26.8.3l.02.24-.24.39.04.47c.02.24.68.43,1.97.56,0-.08.03-.13.12-.14.02.29-.06.86-.24,1.71h.14c.54-.74.79-1.24.76-1.52h.11c.13-.02.27.13.43.45-.16.07-.73,1.36-1.71,3.88l.14.23h.14c1.19-3.03,1.94-4.7,2.25-5.02,1.57-.14,4.28-.41,8.13-.83l.24-.15c0,.08.06.12.15.11l.25-.02.24-.15c0,.08.06.12.15.11l2.92-.25c.77-.07,1.14-.3,1.1-.7,0-.11.45-.23,1.36-.36.09,0,.22.02.4.07,0-.07.46-.15,1.38-.23.02-.49.18-.75.45-.77l-.02-.24c-.26.02-.55.09-.89.2-.61-.03-1-.08-1.16-.14-.16.09-.28.14-.37.15l-2.03.06-.24.13c0-.07-.06-.11-.15-.1h-.11s-.26.14-.26.14c0-.07-.22-.13-.64-.19l-.26.15-.5.04v-.13c2.61-.28,3.9-.64,3.87-1.06.17-.02.26.06.28.24l.76-.19-.02-.24-6.26.17c0,.08-.03.13-.12.14l-.76-.06c-.19.02-.36.07-.49.17l-.28-.11c-.79.07-1.37.16-1.76.28-.54-.04-1.13-.03-1.79.02l-1.41.12-.65-.07c-.03-.41.77-2.45,2.43-6.11.48-1.23.92-2.01,1.34-2.3.09,0,.22.02.4.1l1-.34.51.08c.86-.07,1.86-.32,3.01-.74.28-.02.5,0,.65.06l.76-.18,2.27-.2c.97-.08,2.01-.29,3.15-.64l-.02-.24c-.42.04-.64-.03-.66-.2-.02-.32-.33-.45-.93-.4l-.02-.24.63-.18,1.64-.14-.02-.24c-.07,0-.4,0-1.02-.02l-.02-.25.63-.06c.17-.02.24-.1.23-.26-.85.02-1.28-.02-1.29-.13-5.95.29-8.93.35-8.94.16-.09,0-.21.07-.37.16l-.15-.24c1.58-3.35,2.5-5.04,2.77-5.06,0,.13-.06.34-.2.63v.11s.26-.02.26-.02c.63-1.49,1.15-2.27,1.59-2.3,1.87-.16-.26-.28,3.74-.91.16.07.28.11.36.1,1.57-.32,3.75-.65,6.56-.99l-.02-.24-1.49.14-.02-.24c.18-.02.33-.07.45-.17v.13c.09,0,.2-.06.35-.16.26-.02.45,0,.59.07.52-.14.94-.22,1.25-.25l.93-.09c.23-.15.33-.28.33-.4v-.11c-.24.02-.51,0-.83-.05,0-.13.06-.22.21-.26l1.74-.16.8-.2c0,.09.05.12.11.12.08,0,.2-.06.34-.16.04,0,.09,0,.13.02-.11.22-.23.54-.35.95l-.23.02c-.02-.15-.06-.29-.13-.41h-.11c-2.11,5.89-3.05,8.63-5,13.14-.36,1.15-.66,1.8-.92,1.93,0,.13.09.19.23.18.05.57-.08,1.13-.4,1.68-.9,2.6-1.5,4.02-1.81,4.28l.2,1.23c0,.13-.06.2-.2.22l-.21.02c-.03-.34-.15-.5-.37-.48h-.11c-.28.44-.49.93-.63,1.51l.21-.02c.28-.19.41-.41.39-.66l.42-.04.24.09c-.19.31-.28.55-.27.74l.11.2-.28.65v.11c.25-.02.52.06.8.23.19-.02.41-.11.64-.26.24-.02,1.15-.03,2.72-.03l.79-.27c.96,0,1.11.02,1.94-.06l.34-.03.18-.12v.11c.88-.07.93-.02,1.62.06v.11s-.47.04-.47.04l.02.2c.15-.02.28-.06.38-.15.12,0,.19.06.2.2-.19.02-.41.06-.66.15l-.21-.07c-.33.09-.26.11-.49.13l-.33-.06c0,.06-.02.1-.08.1,0,.13.08.2.2.19l.34-.03,1.78-.15.67-.15c0,.06.03.09.09.08l.33-.12.61-.05c.47-.04.46-.07,1.49-.24,0-.06.02-.09.06-.1v.09c1.67-.28,1.78-.3,2.05-.39l.02.05c.41-.1.18-.07.29-.15,0,.07.03.11.07.11l.29-.02-.02-.22h-.59s0-.02,0-.02c-.02,0-.04,0-.07.02h-.08v.02c-.4.08-.41.02-.67.05l-1.49.08v-.11s.82-.11.82-.11l.3-.02.17-.12v.11c1.18-.1,1.59.19,7-.96.29-.02.27-.27.46-.77-.1,0-.2-.02-.28-.06-.45.17-.68.09-1.54.23-.07,0-.13-.06-.15-.19v-.09s.82.02.82.02c.15-.02.46-.04.9-.29,0,.07-.17.11-.07.11h0Zm-40,.64l-.38.03c-.02-.15.19-.74.61-1.74l.25-.02c0,.24-.15.81-.48,1.73h0Zm.46-1.85v-.11c-.02-.13.06-.22.24-.26v.11c.02.15-.07.24-.24.26h0Zm5.08,3.92v.11s-.63.06-.63.06v-.11s.63-.06.63-.06h0Zm-.76-.06c0,.13-.19.28-.61.42l-.78-.06-.25.02-.02-.24,1.67-.15h0Zm5.13-23.63l-.38.03v-.13c-.02-.13.06-.22.22-.26h.14s.26.1.26.1c0,.15-.07.24-.24.26h0Zm5.81-1.14h.12s.02.23.02.23l-.35.03c0-.13.06-.22.21-.26h0Zm-1.46.51l-.58-.07v-.11c.75-.07,1-.15,1.46-.28,0,.09.09.12.24.11l.02.24-.23.02c-.18.02-.33,0-.46-.08-.14.09-.28.15-.45.16h0Zm.72,2.1v-.11s.93-.09.93-.09v.11s-.93.09-.93.09h0Zm1-.81v-.13s.45-.04.45-.04v.13s-.45.04-.45.04h0Zm.11-1.59h-.12s.11-.24.11-.24l1.04-.1v.13c-.26.02-.61.1-1.02.21h0Zm.53,2.24l-.02-.24.46-.04c.15-.02.24.06.24.22l-.68.06h0Zm2.75-3.75l-.58.16h-.11c-.28.03-.63.02-1.06-.02.76-.05,1.48-.11,1.75-.15h0Zm-.63,2.6v.11s-.8.07-.8.07v-.11s.8-.07.8-.07h0Zm1.32.63c0-.1-.16-.16-.48-.19l-.8.23-.62.02c-.14-.1-.21-.16-.22-.21l.72.04,1.61-.26.82.03v.13c-.4.04-.74.11-1.02.21h0Zm8.28-2.14c.1,0,.16,0,.19,0,.28-.28.6-.5.97-.65-.29,1.28-.75,2.23-1.37,2.85l-.46-.28c.38-.97.61-1.61.67-1.93h0Zm-1.4,2.4h.11c-.15.28-.29.44-.41.45l-.02-.31c.07,0,.18-.05.32-.14h0Zm-.9,2.15c.22-.88.43-1.37.63-1.5v.11c-.11.81-.28,1.24-.52,1.28l.04.51c-.19.28-.28.49-.28.65h-.11s-.06-.7-.06-.7c.13-.02.24-.13.31-.34h0Zm-.35,1.17c0,.12-.07.41-.24.84h-.11s-.02-.3-.02-.3c.15-.36.28-.54.37-.54h0Zm-6.56,19.03v-.09s.2-.02.2-.02l.02.31c-.11,0-.2-.06-.23-.2h0Zm9.37.24c0-.07-.04-.11-.11-.1l-.53.05v-.11s.04,0,.04,0l1.25-.11v.11c-.36.02-.58.07-.65.15h0Zm-.63-.26s.02.05,0,.06c-.02,0-.06-.03,0-.06h0Zm.06-1.46l-.7.06v-.11s.63-.06.63-.06l.55-.14c0,.06.04.09.11.08.66-.11.59-.15.91-.17.11,0,.17.06.18.19l-1.68.15h0Zm2.45-.21c-.39-.04-.41-.07-.69-.05v-.09s.62-.06.62-.06v.09c-.06,0,.18.02.07.11h0Zm.05-.11v-.09s.33-.03.33-.03v.09s-.33.03-.33.03h0Zm.76-.07v-.09s.13-.05.24-.13c.17-.02.26.1.28.23h-.51Zm.97-.12v-.11s.41-.03.41-.03v.11s-.41.03-.41.03h0Zm.58-.05c0-.12.04-.19.15-.21l.14.18c0-.06.02-.09.06-.1l.11.2-.46-.07h0Zm7.99-.94h0v-.02s0,0,0,.02h0Zm.15-.11c.06-.04.1-.08-.06-.11-.07.08.08.11-.08.11v.07s.07-.04.1-.06l-.09.07h0s-.17.23-.17.23l.34-.12h.04l-.02-.2h-.06Zm.59.46h-.06s.02.21.02.21l.48-.04c0-.13-.32-.17-.43-.17h0Z"/></svg>