<?xml version="1.0" encoding="UTF-8" standalone="no"?>
<!DOCTYPE svg PUBLIC "-//W3C//DTD SVG 1.1//EN" "http://www.w3.org/Graphics/SVG/1.1/DTD/svg11.dtd">
<!-- Created with Vectornator (http://vectornator.io/) -->
<svg height="100%" stroke-miterlimit="10" style="fill-rule:nonzero;clip-rule:evenodd;stroke-linecap:round;stroke-linejoin:round;" version="1.1" viewBox="0 0 512 512" width="100%" xml:space="preserve" xmlns="http://www.w3.org/2000/svg" xmlns:vectornator="http://vectornator.io" xmlns:xlink="http://www.w3.org/1999/xlink">
<defs/>
<g id="Ebene-1" vectornator:layerName="Ebene 1">
<path d="M2.84217e-14 95C2.84217e-14 42.5329 42.5329 0 95 0L417 0C469.467 0 512 42.5329 512 95L512 417C512 469.467 469.467 512 417 512L95 512C42.5329 512 2.84217e-14 469.467 2.84217e-14 417L2.84217e-14 95Z" fill="#242628" fill-rule="nonzero" opacity="1" stroke="none" vectornator:layerName="Rechteck 1"/>
<g opacity="1" vectornator:layerName="babel-10.svg">
<path d="M346.882 207.327L346.877 206.394L345.369 206.374L345.373 207.305L346.882 207.327ZM354.539 232.508L354.521 233.021L355.581 233.031C355.58 232.71 355.758 232.213 356.044 231.598L356.039 230.665C355.591 230.654 355.079 231.277 354.539 232.508ZM312.281 259.073C312.303 258.208 309.961 254.601 305.262 248.189C305.274 247.1 307.248 245.656 311.184 243.893L322.731 235.687C325.417 232.899 327.303 228.138 328.393 221.369L328.42 219.796C328.473 215.046 325.443 210.921 319.272 207.385C315.707 204.428 308.976 202.315 299.072 201.076C290.792 200.962 279.777 202.825 266.056 206.703C262.169 208.953 257.774 211.153 252.869 213.301L252.854 214.104C253.144 214.1 253.604 213.984 254.148 213.685C254.696 213.675 254.989 213.962 254.97 214.473L255.807 214.139L256.192 214.144L256.189 214.497C256.18 214.915 253.091 216.89 246.899 220.358L247.263 221.229L246.877 221.224L245.958 220.779C245.961 221.067 245.529 221.217 244.727 221.203L244.723 221.556L245.533 222.793C245.244 222.797 244.811 222.625 244.229 222.342C242.878 222.337 241.504 222.908 240.067 224.114L240.842 221.813C243.612 213.637 245.685 206.354 247.022 199.995L246.968 199.572C245.717 198.58 244.531 197.241 243.474 195.595C243.603 194.611 243.66 194.039 243.641 193.908L243.58 193.548L243.189 193.606C238.363 199.49 229.214 209.445 215.708 223.466C205.502 233.381 200.195 238.929 199.79 240.11C195.684 243.59 193.672 245.737 193.784 246.552C192.734 247.09 192.257 247.686 192.347 248.402C192.054 248.437 191.873 248.323 191.837 248.03C189.991 250.45 187.471 251.871 184.249 252.29L180.863 252.727C180.409 252.778 180.154 253.073 180.133 253.618L180.186 254.041L181.456 253.878L181.517 254.238L178.609 255.041L173.532 255.695L170.906 255.595C170.485 255.939 172.977 255.769 172.001 255.897L168.679 256.339C166.662 256.588 165.596 256.323 165.484 255.508L165.092 255.565C165.122 255.922 165.127 256.179 165.042 256.395L164.93 255.581L162.261 255.927C162.189 254.699 159.093 249.957 153.002 241.705C153.02 240.228 155.65 238.335 160.857 236.057L176.01 225.186C179.527 221.486 182.01 215.241 183.492 206.453L183.506 204.366C183.583 198.075 179.563 192.599 171.451 187.874C166.76 183.97 157.902 181.26 144.884 179.68C133.972 179.53 119.46 181.98 101.419 186.971C96.302 189.967 90.5196 192.863 84.0721 195.663L84.0598 196.755C84.4771 196.763 85.0394 196.595 85.7456 196.279C86.4521 196.285 86.8025 196.64 86.8033 197.285L87.9447 196.786L88.4891 196.808L88.4706 197.32C88.452 197.833 84.3715 200.417 76.1658 205.066L76.6753 206.081L76.1318 206.06L74.9947 205.529C74.9952 205.85 74.432 206.019 73.3091 206.004L73.3154 206.584L74.4498 208.11C74.0335 208.101 73.473 207.917 72.766 207.59C70.2621 207.567 67.6667 209.109 64.9454 212.246L65.4551 213.26C67.713 211.555 69.017 210.721 69.3703 210.723L69.3427 212.296C68.9894 212.293 68.4263 212.461 67.6571 212.771L68.7658 214.874C71.4942 212.455 74.5173 210.389 77.7633 208.727C79.2209 209.258 79.9689 209.814 79.9504 210.327L81.1053 210.344C89.9184 205.08 98.4692 201.494 106.789 199.587L106.776 200.678C105.06 202.758 103.928 203.803 103.38 203.813C103.369 204.583 103.557 205.276 103.978 205.896C103.97 207.278 99.3944 216.144 90.2879 232.465C69.522 270.447 52.4825 298.387 39.1141 316.216C39.1075 316.6 39.28 317.131 39.6309 317.809C42.5291 317.421 44.381 316.898 45.2106 316.305L45.8219 316.302L45.8098 317.393L46.8696 317.401L48.0118 316.904C48.0122 317.226 48.3466 317.419 49.0842 317.428L49.0727 318.52C49.0637 319.58 48.3018 321.11 46.8106 323.18C45.536 324.371 44.0232 326.985 42.3054 331.025L42.286 331.538L43.3458 331.546C48.437 326.877 52.4038 322.193 55.2765 317.528C69.0304 314.94 79.5961 312.1 87.0364 309.013C94.1931 309.111 99.7891 307.77 103.787 305.05L103.78 304.47L101.027 305.001L100.417 305.005L100.409 304.425C105.708 304.148 109.417 303.358 111.58 301.966C122.508 295.143 130.727 290.367 136.239 287.603C147.675 280.832 155.371 273.883 159.256 266.781C159.864 266.709 160.473 266.631 161.08 266.543C162.581 266.629 163.411 266.678 163.641 266.637C163.606 266.344 163.75 266.197 164.041 266.162C166.454 266.145 165.266 266.445 166.829 266.246L170.93 265.72C170.669 265.759 170.561 265.877 170.6 266.138L171.242 265.815C171.115 265.803 171.022 265.762 170.93 265.72L171.614 265.628L171.277 265.787C171.716 265.895 172.197 265.91 172.751 265.837L172.92 267.042L151.811 294.226L147.268 298.884L144.638 305.308L145.03 305.25L147.084 304.619L146.193 307.133L146.308 307.916L146.782 308.637C146.522 308.677 146.41 308.826 146.445 309.119L146.5 309.542L147.346 309.433C148.66 308.503 149.263 307.599 149.158 306.72C150.44 307.073 151.29 307.254 151.749 307.171L151.803 307.593C150.989 307.706 150.511 308.3 150.34 309.376L150.395 309.8L150.849 309.748C158.186 303.181 176.867 280.063 191.547 264.583C191.312 262.729 198.34 260.886 212.663 259.028L213.119 258.978C213.411 261.224 211.801 266.431 208.292 274.6C206.068 279.52 204.964 282.239 205.046 282.698C202.147 289.255 200.734 292.81 200.803 293.395L194.227 309.165C190.186 317.184 186.868 325.693 184.235 334.751C184.527 334.715 184.97 334.792 185.591 335.014L186.35 334.478C186.386 334.771 186.567 334.886 186.86 334.85L186.69 333.644L188.861 333.796C189.512 333.7 190.133 332.957 190.724 331.537C190.846 329.333 191.408 328.199 192.419 328.042C194.274 322.956 195.36 320.428 195.656 320.361C197.411 315.297 198.628 312.43 199.305 311.757C201.852 305.198 203.563 301.864 204.476 301.729L204.586 302.576L202.866 305.973C199.43 316.333 196.181 324.463 193.122 330.361L193.519 333.486L193.974 333.435C201.155 321.292 212.182 296.934 227.025 260.357C227.673 257.078 229.518 254.658 232.531 253.126L231.96 252.394L231.9 252.034C233.201 251.875 234.143 251.454 234.721 250.804C234.687 250.511 233.613 249.987 231.506 249.2L239.397 226.009C240.713 225.046 241.47 224.544 241.693 224.566L241.669 225.784C241.38 225.787 240.919 225.902 240.375 226.202L241.277 227.802C243.39 225.923 245.636 224.345 248.044 223.074C249.157 223.506 249.693 223.945 249.719 224.334L250.553 224.351C257.311 220.362 263.813 217.664 270.089 216.262L270.075 217.063C268.794 218.64 267.945 219.424 267.527 219.414C267.535 219.993 267.643 220.519 267.885 220.992C267.877 222.052 264.446 228.781 257.558 241.21C241.782 270.015 228.852 291.196 218.7 304.779C218.703 305.068 218.857 305.47 219.157 306.013C221.338 305.716 222.761 305.31 223.352 304.855L223.737 304.86L223.722 305.663L224.619 305.688L225.456 305.352C225.466 305.578 225.743 305.702 226.286 305.725L226.265 306.589C226.253 307.359 225.688 308.524 224.537 310.081C223.517 310.977 222.357 312.951 221.025 315.999L221.016 316.417L221.85 316.435C225.704 312.896 228.724 309.34 230.91 305.764C241.358 303.781 249.379 301.651 255.009 299.317C260.499 299.379 264.743 298.386 267.777 296.309L267.786 295.892L265.657 296.291L265.208 296.279L265.218 295.862C269.221 295.681 272.078 295.064 273.689 294.035C281.979 288.879 288.222 285.225 292.414 283.134C305.584 275.409 312.163 267.385 312.281 259.073ZM310.127 259.406L310.095 262.648C309.634 263.406 309.18 263.779 308.795 263.773L308.86 258.252C309.72 258.659 310.134 259.021 310.127 259.406ZM71.7304 209.608L71.1862 209.586L71.189 208.59L73.4035 208.617L73.3851 209.128C73.0318 209.126 72.4717 209.263 71.7304 209.608ZM50.3687 315.821C49.1523 315.121 48.029 314.785 47.0332 314.783L47.06 313.21C47.0568 312.6 47.4479 312.221 48.227 312.137C48.9334 312.144 49.297 312.694 49.2591 313.718C51.3296 311.642 52.4614 310.598 52.6556 310.584L53.7857 311.178C53.088 314.324 51.9408 315.848 50.3687 315.821ZM176.851 207.306C176.304 207.316 175.389 205.522 174.161 202.025L174.164 201.029C175.191 201.035 176.077 202.794 176.853 206.31L176.851 207.306ZM176.5 195.284L175.951 196.291L161.033 188.255C171.372 189.634 176.539 191.978 176.5 195.284ZM105.191 245.191L102.976 245.164L102.978 244.167L105.192 244.194L105.191 245.191ZM106.77 211.122L107.313 211.144L107.286 212.715C106.773 212.697 106.03 213.395 105.057 214.776L105.069 213.684C106.172 212.605 106.77 211.764 106.77 211.122ZM101.075 221.548L101.061 223.635L100.517 223.614L100.532 221.526L101.075 221.548ZM98.2722 225.191L99.332 225.199C99.0667 226.909 98.4979 227.785 97.6321 227.762L97.0882 227.74C97.8696 226.662 98.2758 225.801 98.2722 225.191ZM95.9217 230.42L96.5323 230.417L96.5142 230.929L95.3633 232.486L94.3036 232.477L94.3228 231.965C95.3826 231.974 95.9134 231.48 95.9217 230.42ZM93.6572 235.113L93.0798 237.69L92.5355 237.669L92.569 235.069L93.6572 235.113ZM70.7711 284.101C69.7175 287.596 68.7736 289.333 67.9718 289.319L67.9905 288.806C67.9729 287.037 68.9012 285.458 70.7711 284.101ZM66.7896 290.872L66.771 291.384C66.7647 292.091 66.4055 292.474 65.7023 292.435L65.7216 291.923C65.7176 291.312 66.0736 290.962 66.7896 290.872ZM64.3741 305.512L66.0444 305.517L66.0507 306.096C65.6344 306.086 65.0712 306.256 64.3651 306.572L63.3054 306.563C63.295 306.015 63.6862 305.637 64.3733 305.512L64.3741 305.512ZM112.914 295.639C103.167 299.3 97.3842 301.876 95.6011 303.337C85.1978 305.841 79.9867 307.51 79.9966 308.379C70.7046 311.024 64.558 313.05 61.5652 314.392C60.8906 314.39 59.9608 314.04 58.7452 313.341C58.766 311.511 59.7383 310.13 61.6047 309.127C63.1768 309.153 64.6502 309.524 66.0226 310.271C67.7632 309.575 70.7538 308.908 74.96 308.297L74.9713 307.205L71.6337 307.164C72.1038 306.632 75.4341 305.452 81.6567 303.626L83.3279 303.631L83.3093 304.144C80.4514 304.117 78.8098 304.791 78.3115 306.251C78.3092 306.926 78.6628 307.25 79.3693 307.256C81.6337 306.13 82.7628 305.44 82.7529 305.213C86.8704 304.85 98.6207 300.102 118.002 291.001L118 291.998C117.985 292.478 116.293 293.659 112.914 295.639ZM83.9308 302.084C86.6267 302.126 89.0244 301.272 91.1205 299.584C91.8895 299.596 92.2759 299.922 92.2419 300.595C90.9237 300.592 88.3022 301.424 84.435 303.162L83.8907 303.141L83.9308 302.084ZM132.664 271.791L117.529 281.507C106.412 287.314 100.471 290.195 99.6688 290.18C82.1516 297.666 71.3395 301.382 67.2946 301.334L66.6841 301.338C67.3793 299.512 76.2605 285.127 93.4025 258.097C99.7568 258.181 109.977 256.238 124.031 252.233L127.369 252.274C134.271 252.348 139.262 254.192 142.32 257.71L142.305 259.797C139.034 266.864 135.811 270.851 132.664 271.791ZM106.763 253.638L109.042 253.67L109.023 254.183L106.745 254.15L106.763 253.638ZM139.024 251.405L140.696 251.41C142.15 252.294 142.882 253.01 142.89 253.589L142.87 254.101C141.394 254.083 140.102 253.184 139.024 251.405ZM146.046 226.297C144.408 227.901 140.102 230.496 133.13 234.046C130.947 234.022 122.586 236.342 108.042 241.07C107.377 240.683 106.622 240.476 105.852 240.468L105.854 239.472C105.894 237.451 107.034 235.025 109.31 232.167C110.96 226.546 112.462 223.384 113.847 222.718L128.053 197.743C128.086 196.107 130.692 195.112 135.868 194.757L137.538 194.763L137.518 196.272C142.59 196.002 145.753 195.867 146.971 195.891C156.279 196.011 160.899 198.365 160.835 202.889L161.895 202.898L161.934 200.235L163.089 200.253C165.645 202.017 166.93 203.976 166.909 206.126C166.891 207.604 165.917 209.338 164.014 211.336C163.309 211.329 162.945 210.78 162.983 209.754L161.827 209.737L161.257 212.893C155.885 219.43 152.123 222.69 150.004 222.672C147.833 225.124 146.526 226.312 146.046 226.297ZM151.359 245.302C150.468 244.57 149.732 244.209 149.156 244.183L149.184 242.612L150.244 242.62L152.431 244.22C152.454 244.96 152.098 245.31 151.359 245.302ZM157.875 254.785C158.852 255.3 159.413 255.805 159.499 256.231L158.977 256.308L159.006 256.344C158.91 256.334 158.78 256.354 158.681 256.375L157.857 256.904L157.875 254.785ZM158.139 259.246L158.086 258.823L159.453 258.637L159.508 259.061L158.139 259.246ZM160.996 263.161C162.387 263.074 163.065 263.044 165.667 262.724L165.722 263.148L160.775 263.781C160.86 263.564 160.946 263.349 160.996 263.161ZM165.508 265.633C163.453 265.622 163.923 265.411 160.605 265.821L160.549 265.398L164.721 264.494L166.707 264.241L166.822 265.024C165.943 265.129 166.58 265.192 165.508 265.633ZM169.905 265.04C169.415 265.12 169.056 264.86 168.886 264.297L170.156 264.133C170.709 264.059 171.037 264.317 171.111 264.871L169.905 265.04ZM182.795 253.657L182.741 253.234L184.793 252.956L184.908 253.738L182.795 253.657ZM187.672 331.203C187.856 330.643 187.928 330.232 187.893 329.939L188.348 329.888C188.902 329.814 189.201 330.038 189.278 330.559L189.332 330.982L187.672 331.203ZM203.633 259.034L202.758 258.786C201.268 259.217 200.019 259.51 199.01 259.636L198.164 259.744C197.674 259.824 197.311 259.595 197.17 259.067L203.126 258.308L205.125 257.606L205.687 258.402C204.745 258.501 204.049 258.721 203.633 259.034ZM208.262 258.046L208.208 257.623C208.5 257.588 208.904 257.404 209.359 257.03L213.59 256.486L213.645 256.909C211.396 257.232 209.592 257.6 208.262 258.046ZM209.728 249.739C209.435 249.775 209.029 249.992 208.513 250.326C208.479 250.034 207.905 249.977 206.798 250.124C206.687 249.309 209.851 248.499 216.329 247.662L217.239 247.56L217.354 248.342C212.769 249.205 210.215 249.692 209.728 249.739ZM222.059 238.815C221.112 243.831 219.046 246.518 215.823 246.937L215.769 246.514L212.861 247.318L211.591 247.483C210.939 247.578 210.369 247.49 209.875 247.28L209.732 246.141C209.677 245.718 214.275 240.517 223.552 230.575L224.491 230.829C224.696 232.328 223.886 234.979 222.059 238.815ZM243.43 223.901L243.045 223.896L243.061 223.094L244.731 223.099L244.723 223.515C244.43 223.551 244 223.669 243.43 223.901ZM227.234 304.597C226.324 304.056 225.483 303.78 224.745 303.771L224.769 302.552C224.778 302.136 225.062 301.874 225.618 301.769C226.166 301.76 226.446 302.172 226.428 303.007C227.969 301.392 228.821 300.576 228.981 300.592L229.806 301.027C229.247 303.415 228.389 304.615 227.234 304.597ZM323.263 222.209C322.847 222.2 322.178 220.848 321.191 218.147L321.208 217.346C322.009 217.36 322.713 218.684 323.288 221.312L323.263 222.209ZM323.021 212.994L322.556 213.784L311.272 207.683C319.107 208.718 323.044 210.49 323.021 212.994ZM268.84 250.91L267.169 250.904L267.184 250.102L268.851 250.139L268.84 250.91ZM270.024 225.029L270.473 225.041L270.448 226.26C270.031 226.25 269.466 226.773 268.75 227.826L268.765 227.025C269.589 226.175 270.008 225.509 270.024 225.029ZM265.735 232.959L265.707 234.531L265.259 234.518L265.286 232.947L265.735 232.959ZM263.564 235.733L264.397 235.75C264.17 237.078 263.751 237.743 263.139 237.747L262.691 237.734C263.256 236.891 263.549 236.213 263.564 235.733ZM261.823 239.673L262.209 239.679L262.199 240.096L261.341 241.296L260.506 241.278L260.516 240.861C261.382 240.883 261.808 240.475 261.823 239.673ZM260.121 243.232L259.632 245.24L259.247 245.234L259.286 243.214L260.121 243.232ZM242.704 280.486C241.899 283.106 241.19 284.417 240.579 284.421L240.582 284.067C240.619 282.721 241.317 281.506 242.704 280.486ZM239.657 285.615L239.653 285.968C239.661 286.547 239.375 286.84 238.799 286.815L238.808 286.399C238.817 285.981 239.1 285.721 239.657 285.615ZM237.846 296.747L239.129 296.778L239.119 297.195C238.83 297.198 238.369 297.313 237.831 297.549L236.997 297.53C237.009 297.082 237.292 296.821 237.846 296.747ZM274.679 289.249C267.334 292.023 262.931 293.965 261.507 295.044C253.603 296.96 249.653 298.239 249.65 298.915C242.604 300.947 237.956 302.446 235.733 303.479C235.22 303.46 234.506 303.197 233.596 302.657C233.605 301.276 234.352 300.225 235.771 299.53C236.989 299.555 238.119 299.827 239.125 300.377C240.462 299.867 242.726 299.384 245.924 298.899L245.939 298.096L243.31 298.028C243.673 297.615 246.236 296.712 250.971 295.317L252.253 295.348L252.25 295.701C250.068 295.677 248.795 296.194 248.426 297.314C248.408 297.827 248.701 298.113 249.249 298.102C250.944 297.21 251.768 296.681 251.787 296.491C254.895 296.253 263.802 292.637 278.535 285.678L278.52 286.48C278.518 286.833 277.239 287.735 274.679 289.249ZM252.663 294.135C254.75 294.149 256.58 293.527 258.182 292.272C258.729 292.262 259.023 292.548 259.004 293.061C258.04 293.061 256.083 293.671 253.099 294.917L252.651 294.906L252.663 294.135ZM289.717 271.105L278.275 278.583C269.836 282.984 265.282 285.167 264.607 285.165C251.317 290.852 243.132 293.672 240.02 293.62L239.571 293.609C240.095 292.214 246.868 281.285 259.89 260.787C264.673 260.844 272.406 259.33 283.122 256.278L285.721 256.311C290.952 256.38 294.735 257.783 297.037 260.486L297.01 262.058C294.526 267.34 292.108 270.345 289.717 271.105ZM270.067 257.33L271.737 257.335L271.728 257.751L270.058 257.747L270.067 257.33ZM294.564 255.613L295.847 255.644C296.967 256.334 297.521 256.903 297.512 257.32L297.509 257.673C296.386 257.657 295.392 256.981 294.564 255.613ZM299.827 236.565C298.581 237.791 295.331 239.781 290.083 242.475C288.411 242.471 282.068 244.22 271.049 247.753C270.559 247.512 269.992 247.393 269.383 247.364L269.4 246.562C269.424 245.022 270.281 243.179 271.975 241.001C273.237 236.692 274.404 234.333 275.415 233.854L286.263 214.876C286.284 213.69 288.256 212.921 292.149 212.569L293.43 212.599L293.406 213.818C297.221 213.585 299.611 213.469 300.575 213.468C307.636 213.557 311.157 215.321 311.102 218.786L311.935 218.805L311.966 216.879L312.8 216.898C314.727 218.213 315.676 219.657 315.646 221.261C315.627 222.417 314.915 223.759 313.545 225.263C312.999 225.273 312.718 224.86 312.736 224.026L311.902 224.008L311.411 226.368C307.345 231.397 304.493 233.91 302.857 233.876C301.233 235.676 300.244 236.573 299.827 236.565ZM302.238 250.172L302.262 248.953L303.096 248.972L304.77 250.23C304.752 250.742 304.468 251.004 303.922 251.013C303.205 250.46 302.654 250.18 302.238 250.172ZM146.436 312.781L145.589 312.89L144.829 313.425C144.906 313.947 145.205 314.169 145.759 314.096C146.313 314.022 146.567 313.727 146.49 313.205L146.436 312.781ZM143.907 306.2L143.961 306.623C144.515 306.549 144.769 306.254 144.693 305.731L144.638 305.308C144.117 305.385 143.862 305.682 143.907 306.2ZM171.596 255.117L172.572 254.99L172.464 254.144L171.487 254.271L171.596 255.117ZM457.955 308.001C448.066 309.205 446.895 308.703 444.843 308.66L444.828 309.463L445.725 309.487L446.205 309.502L446.087 309.395L447.179 309.084C456.862 308.984 457.938 309.477 457.949 308.385L457.955 308.001ZM405.175 309.741L405.161 310.543L405.288 310.556L405.304 309.753L405.175 309.741ZM401.272 288.176L400.442 287.804C399.556 289.612 399.095 290.692 399.095 291.012L399.092 291.366C399.763 291.4 400.482 290.315 401.272 288.176ZM459.945 308.038L459.929 308.839L461.304 309.232L461.32 308.431L459.945 308.038ZM393.304 309.559L391.165 309.09L390.701 309.879L390.692 310.297L403.687 310.493L403.703 309.691L393.304 309.559ZM390.247 280.752L390.257 280.335L389.808 280.323L388.962 280.753L389.331 281.561C389.943 281.557 390.257 281.299 390.247 280.752ZM466.634 302.788L467.246 302.784C467.599 302.786 467.787 302.516 467.805 302.004L467.531 301.205C465.317 301.179 464.288 301.173 462.409 301.982L462.417 301.567L459.752 301.559C459.766 300.757 459.585 300.321 459.232 300.318L457.851 300.31C456.246 300.279 455.489 300.14 454.634 300.665C454.63 300.376 454.548 300.239 454.389 300.223L452.848 300.199L451.907 300.62C451.903 300.33 451.821 300.194 451.66 300.178L451.073 300.602L451.082 300.185L448.965 299.814L448.453 299.796L448.438 300.597L449.492 300.991L450.517 301.028C450.845 301.286 451.22 301.387 451.669 301.399L452.604 301.043L452.6 301.396C447.482 302.142 447.536 301.922 444.041 302.154C443.685 301.862 443.411 301.706 443.216 301.719L443.148 301.776C442.768 301.706 442.571 301.429 442.58 301.013L444.384 300.967C444.511 300.98 444.595 301.117 445.562 301.405C447.063 300.847 447.155 300.567 447.925 300.579L447.941 299.777C442.946 300.246 444.981 299.805 438.786 299.737L438.497 299.74L438.512 298.938C446.498 298.766 443.805 299.045 446.584 298.55C446.588 298.84 446.67 298.976 446.83 298.992C447.149 298.724 447.549 298.572 447.966 298.558L448.51 298.58C451.3 298.631 452.17 299.265 457.795 298.28L457.792 298.633L458.727 298.276L459.561 298.294C459.576 297.492 460.798 297.484 461.215 297.493L461.236 296.628C451.433 297.616 448.973 296.826 446.224 297.325L446.227 296.972C443.669 297.167 443.592 296.967 442.952 296.936C442.758 296.949 442.457 297.08 442.106 297.366C442.104 297.078 442.019 296.94 441.829 296.921C441.734 296.911 441.698 296.941 441.666 296.937L433.388 297.465C433.377 297.24 433.295 297.104 433.101 297.116C428.781 297.587 429.91 297.86 424.194 297.808C423.937 297.814 423.575 297.907 423.1 298.15C423.091 297.924 422.976 297.784 422.687 297.787L419.19 297.729L416.81 298.071C416.8 297.846 416.686 297.706 416.396 297.709C415.057 297.93 413.888 298.039 412.959 298.011L412.895 298.005C412.317 298.012 413.198 297.875 412.771 297.639L412.029 297.983C411.002 297.978 411.559 297.872 408.056 297.557C401.839 297.712 402.497 297.873 401.826 297.84L399.549 297.453C399.56 297.679 399.417 297.826 399.161 297.8C396.587 297.192 395.291 296.644 395.306 296.164C395.903 293.717 396.634 292.504 397.5 292.525L397.948 292.538L397.484 293.327L397.933 293.339C398.804 292.977 399.228 292.601 399.233 292.215L399.255 291.349L398.421 291.332L398.436 290.529C398.433 289.919 398.582 289.386 398.849 288.964L401.026 286.127L401.012 286.929L401.908 286.953L401.924 286.151L401.487 285.369C402.212 284.862 402.753 284.594 403.169 284.604L403.18 284.187L401.961 284.163L401.985 282.945C404.901 278.156 406.337 275.342 406.356 274.508L407.18 274.943C407.725 274.965 408.011 274.672 408.036 274.096L407.202 274.077L407.204 273.724C407.204 273.138 407.373 272.563 407.69 272.069C409.131 270.83 409.871 269.522 409.886 268.077C410.144 268.07 410.258 268.211 410.262 268.5C411.438 267.974 412.465 266.372 413.38 263.635C415.706 260.267 419.213 253.417 423.93 243.118C432.799 224.973 432.712 222.94 434.14 218.582L433.307 218.563C433.312 219.142 433.131 219.671 432.827 220.155C432.276 219.875 431.844 219.704 431.523 219.704L431.525 219.351C431.558 217.715 432.42 215.841 434.174 213.7L434.558 213.707L434.987 216.513L435.821 216.532C435.808 216.337 436.139 215.278 436.783 213.317C436.792 212.899 436.5 212.614 435.865 212.519L435.02 212.949C435.013 212.369 435.192 210.877 435.525 208.5L435.108 208.491C434.477 207.721 434.184 207.114 434.199 206.633L429.605 206.627C429.604 206.306 429.493 205.813 429.235 205.177C429.244 204.76 430.303 204.447 432.444 204.242L433.333 204.684L434.243 204.26C434.246 204.549 434.392 204.692 434.714 204.692L435.623 204.268C435.627 204.558 435.773 204.701 436.095 204.7L436.511 204.71L436.539 203.78C435.896 203.781 434.21 203.614 431.547 203.253L430.631 203.74L430.649 203.229C409.123 202.861 396.9 202.645 393.976 202.645C393.59 202.639 392.098 202.459 389.462 202.133C389.46 202.486 389.123 202.645 388.48 202.646L387.598 202.141L384.4 202.627C383.662 202.618 382.425 202.463 380.725 202.102C380.21 202.436 379.614 202.602 378.908 202.597C378.523 202.591 383.483 202.793 388.097 202.93C387.582 203.264 386.83 203.414 385.801 203.409C385.095 203.403 384.5 203.248 384.019 202.911C383.287 203.16 380.978 203.444 377.114 203.833L376.226 203.392L361.106 204.205C360.562 203.863 359.902 203.701 359.133 203.689C358.331 203.674 356.966 203.827 355.07 204.154L347.581 206.431L348.033 207.377C348.386 207.379 348.915 207.239 349.554 206.949L352.078 207.424L351.523 209.779C349.064 210.596 347.541 212.02 346.963 213.955C343.276 215.164 341.415 216.104 341.349 216.772L341.34 217.19L341.884 217.211L342.889 216.796L343.87 218.243L343.847 220.105C343.854 220.684 336.663 232.601 322.337 255.861C309.691 278.388 303.003 290.74 302.264 293.012C298.634 293.648 296.454 294.878 295.66 296.728C295.665 297.339 296.673 297.857 298.695 298.218L298.699 299.15L297.624 300.586L297.6 302.448C297.601 303.412 300.106 304.4 305.115 305.41C305.116 305.089 305.294 304.914 305.646 304.916C305.628 306.071 305.09 308.267 304.029 311.505L304.574 311.526C306.957 308.871 308.14 306.996 308.151 305.905L308.6 305.916C309.113 305.935 309.597 306.561 310.111 307.865C309.449 308.058 306.719 312.895 301.919 322.415L302.372 323.359L302.917 323.381C308.768 312.007 312.346 305.742 313.677 304.62C319.873 304.688 330.61 304.66 345.855 304.533L346.866 304.055C346.867 304.376 347.042 304.555 347.395 304.557L348.391 304.56L349.403 304.082C349.403 304.403 349.578 304.581 349.931 304.583L361.453 304.729C364.502 304.775 366.025 303.994 366.053 302.423C366.062 302.006 367.891 301.704 371.539 301.552C371.892 301.555 372.391 301.701 373.069 301.993C373.066 301.704 374.908 301.597 378.567 301.639C378.852 299.739 379.558 298.781 380.65 298.793L380.645 297.86C379.617 297.854 378.446 297.996 377.067 298.308C374.692 297.945 373.184 297.602 372.569 297.315C371.898 297.602 371.402 297.747 371.048 297.744L363.067 297.21L362.062 297.624C362.058 297.334 361.88 297.189 361.527 297.185L361.079 297.173L360.009 297.582C360.006 297.291 359.201 296.987 357.567 296.6L356.491 297.104L354.5 297.066L354.519 296.555C364.876 296.457 370.076 295.558 370.112 293.891C370.787 293.894 371.106 294.246 371.103 294.921L374.17 294.454L374.166 293.522L349.565 291.757C349.565 292.079 349.386 292.253 349.034 292.251L346.067 291.7C345.297 291.687 344.638 291.847 344.092 292.179L343.019 291.655C339.906 291.603 337.577 291.758 336.002 292.084C333.918 291.716 331.592 291.517 328.992 291.484L323.439 291.416L320.922 290.878C320.956 289.242 324.898 281.566 332.809 267.89C335.167 263.238 337.185 260.386 338.953 259.405C339.307 259.407 339.804 259.585 340.475 259.941L344.523 258.992L346.496 259.509C349.897 259.558 353.906 258.991 358.557 257.781C359.681 257.796 360.501 257.942 361.08 258.256L364.142 257.853L373.128 257.974C376.945 258.03 381.133 257.609 385.724 256.682L385.721 255.751C384.05 255.746 383.219 255.375 383.222 254.699C383.25 253.449 382.091 252.821 379.748 252.78L379.745 251.848L382.265 251.391L388.746 251.488L388.742 250.555C388.485 250.561 387.183 250.4 384.774 250.065L384.776 249.07L387.28 249.093C387.956 249.095 388.273 248.805 388.273 248.162C384.921 247.927 383.251 247.601 383.263 247.152C359.855 245.987 348.154 245.052 348.162 244.313C347.809 244.311 347.31 244.486 346.636 244.806L346.126 243.79C353.599 231.292 357.884 225.032 358.944 225.04C358.924 225.553 358.588 226.355 357.904 227.412L357.896 227.829L358.892 227.832C361.923 222.219 364.291 219.4 366.022 219.444C373.405 219.533 365.115 218.229 381.014 217.332C381.623 217.68 382.055 217.852 382.376 217.852C388.642 217.22 397.332 216.763 408.443 216.516L408.47 215.587L402.561 215.547L402.59 214.618C403.296 214.624 403.89 214.457 404.406 214.124L404.387 214.636C404.709 214.636 405.176 214.457 405.787 214.132C406.816 214.138 407.569 214.308 408.081 214.648C410.172 214.31 411.858 214.156 413.08 214.148L416.774 214.161C417.723 213.677 418.186 213.208 418.202 212.728L418.212 212.311C417.279 212.315 416.235 212.147 415.017 211.801C415.035 211.289 415.324 210.964 415.945 210.865L422.818 210.904L426.016 210.417C426.012 210.77 426.16 210.914 426.414 210.939C426.735 210.938 427.203 210.76 427.813 210.435C427.969 210.482 428.16 210.501 428.316 210.549C427.817 211.368 427.216 212.561 426.578 214.136L425.681 214.112C425.678 213.501 425.572 212.944 425.332 212.439L424.884 212.426C414.325 234.646 409.57 245.005 400.179 261.941C398.331 266.321 396.904 268.718 395.832 269.158C395.813 269.671 396.106 269.956 396.654 269.947C396.623 272.193 395.897 274.338 394.441 276.379C389.898 286.213 386.991 291.547 385.681 292.447L386 297.331C385.982 297.842 385.699 298.104 385.151 298.114L384.317 298.096C384.323 296.746 383.909 296.063 383.039 296.073L382.591 296.061C381.342 297.64 380.322 299.498 379.557 301.705L380.391 301.723C381.577 301.102 382.172 300.293 382.174 299.297L383.844 299.301L384.764 299.746C383.881 300.88 383.436 301.801 383.426 302.538L383.797 303.347L382.463 305.785L382.453 306.202C383.417 306.2 384.435 306.623 385.484 307.402C386.253 307.414 387.115 307.146 388.098 306.633C389.062 306.632 392.63 306.954 398.772 307.563L401.962 306.819C405.722 307.159 406.317 307.315 409.591 307.35L410.94 307.355L411.688 306.948L411.678 307.364C415.111 307.416 415.312 307.661 417.954 308.244L417.945 308.66L416.051 308.634L416.036 309.435C416.615 309.429 417.14 309.319 417.589 309.011C418.069 309.026 418.33 309.309 418.305 309.885C417.536 309.874 416.658 309.978 415.671 310.202L414.872 309.834C413.532 310.055 413.809 310.179 412.912 310.154L411.633 309.771C411.642 309.996 411.499 310.142 411.276 310.12C411.257 310.633 411.519 310.916 412 310.931L413.348 310.936L420.378 311.023L423.076 310.712C423.086 310.938 423.168 311.074 423.394 311.065L424.714 310.714L427.121 310.759C428.982 310.784 428.962 310.654 433.035 310.413C433.029 310.156 433.134 310.07 433.328 310.057L433.326 310.411C439.96 309.944 440.379 309.921 441.464 309.675L441.541 309.875C443.202 309.655 442.269 309.658 442.747 309.385C442.751 309.674 442.833 309.811 442.991 309.827L444.147 309.844L444.168 308.98L441.848 308.717L441.823 308.651C441.724 308.672 441.661 308.666 441.562 308.688L441.244 308.657L441.237 308.72C439.646 308.885 439.637 308.659 438.608 308.653L432.753 308.394L432.763 307.977L436.053 307.853L437.24 307.874L437.956 307.463L437.946 307.881C442.568 307.953 444.077 309.259 465.719 306.842C466.873 306.86 466.873 305.896 467.8 303.995C467.41 303.984 467.031 303.856 466.712 303.631C464.896 304.125 464.004 303.716 460.578 303.922C460.287 303.926 460.091 303.649 460.045 303.131L460.048 302.777L463.284 303.194C463.895 303.19 465.082 303.211 466.931 302.399C466.902 302.686 466.25 302.782 466.634 302.788ZM309.689 289.764L308.18 289.743C308.176 289.132 309.198 286.918 311.241 283.169L312.238 283.171C312.178 284.097 311.35 286.296 309.689 289.764ZM312.221 282.687L312.23 282.271C312.249 281.758 312.603 281.439 313.319 281.351L313.309 281.766C313.28 282.375 312.928 282.693 312.221 282.687ZM330.587 300.031L330.578 300.447L328.073 300.424L328.083 300.006L330.587 300.031ZM327.621 299.479C327.602 299.991 326.782 300.489 325.069 300.896L322.036 300.372L321.041 300.369L321.037 299.437L327.621 299.479ZM356.913 208.9L355.404 208.879L355.423 208.366C355.441 207.855 355.763 207.533 356.415 207.437L356.959 207.458L357.936 207.973C357.908 208.581 357.587 208.903 356.913 208.9ZM380.109 206.701L380.589 206.716L380.56 207.645L379.179 207.637C379.199 207.125 379.487 206.8 380.109 206.701ZM374.181 208.138L371.947 207.658L371.955 207.243C374.941 207.281 375.959 207.061 377.823 206.731C377.821 207.085 378.126 207.243 378.705 207.236L378.678 208.166L377.776 208.173C377.07 208.166 376.475 208.012 375.995 207.675C375.418 207.971 374.823 208.137 374.181 208.138ZM376.196 216.66L376.206 216.244L379.9 216.256L379.89 216.673L376.196 216.66ZM380.426 213.866L380.444 213.354L382.242 213.371L382.224 213.884L380.426 213.866ZM381.458 207.67L380.978 207.655L381.489 206.709L385.6 206.731L385.582 207.244C384.522 207.234 383.126 207.385 381.458 207.67ZM382.656 216.658L382.682 215.729L384.481 215.747C385.093 215.743 385.382 216.06 385.351 216.701L382.656 216.658ZM394.902 203.026L392.546 203.435L392.131 203.426C391.039 203.414 389.641 203.243 388.003 202.92C390.982 203.022 393.836 203.08 394.902 203.026ZM391.441 212.967L391.432 213.383L388.253 213.358L388.262 212.94L391.441 212.967ZM396.354 215.928C396.359 215.543 395.78 215.228 394.552 214.978L391.313 215.557L388.885 215.412C388.382 214.976 388.121 214.694 388.107 214.5L390.893 214.936L397.295 214.543L400.496 214.988L400.478 215.501C398.871 215.502 397.506 215.657 396.354 215.928ZM429.612 210.773C429.99 210.843 430.245 210.869 430.34 210.878C431.562 209.907 432.888 209.171 434.38 208.708C432.736 213.623 430.584 217.169 427.894 219.345L426.219 218.085C428.09 214.447 429.231 212.021 429.612 210.773ZM423.207 219.62L423.656 219.631C422.937 220.716 422.337 221.267 421.887 221.255L421.913 220.036C422.199 220.065 422.632 219.915 423.207 219.62ZM418.839 227.702C420.038 224.349 421.058 222.491 421.873 222.058L421.863 222.475C421.102 225.612 420.234 227.23 419.3 227.266L419.26 229.286C418.388 230.293 417.956 231.085 417.925 231.724L417.477 231.712L417.496 228.919C418.012 228.906 418.47 228.501 418.839 227.702ZM417.015 232.148C417 232.63 416.572 233.711 415.765 235.367L415.316 235.354L415.341 234.136C416.084 232.796 416.662 232.146 417.015 232.148ZM383.944 304.131L383.947 303.779L384.781 303.798L384.756 305.016C384.308 305.004 384.014 304.717 383.944 304.131ZM420.541 308.725C420.537 308.435 420.424 308.296 420.134 308.299L418.047 308.285L418.056 307.867L418.247 307.886L423.188 307.96L423.179 308.375C421.74 308.298 420.859 308.436 420.541 308.725ZM418.192 307.464C418.374 307.578 418.269 307.664 418.166 307.718C418.075 307.678 417.957 307.569 418.192 307.464ZM419.015 301.761L416.256 301.713L416.266 301.295L418.768 301.319L420.987 300.993C420.994 301.25 421.112 301.359 421.401 301.355C424.023 301.165 423.781 301.013 425.031 301.04C425.448 301.049 425.678 301.329 425.659 301.842L419.015 301.761ZM428.676 301.883C427.164 301.573 427.081 301.436 425.99 301.425L425.992 301.071L428.465 301.091L428.461 301.444C428.204 301.452 429.121 301.607 428.676 301.883ZM428.91 301.457L428.914 301.104L430.262 301.11L430.26 301.463L428.91 301.457ZM431.895 301.496L431.898 301.142C432.124 301.133 432.458 301.005 432.903 300.728C433.578 300.731 433.884 301.211 433.897 301.727L431.895 301.496ZM435.73 301.394L435.738 300.977L437.374 301.011L437.366 301.428L435.73 301.394ZM438.009 301.427C438.024 300.947 438.243 300.679 438.664 300.657L439.134 301.411C439.125 301.185 439.233 301.067 439.427 301.054L439.765 301.858L438.009 301.427ZM412.954 309.42L412.968 308.617L412.711 308.623L412.695 309.426L412.954 309.42ZM470.302 300.484C470.572 300.35 470.715 300.203 470.12 300.048C469.802 300.338 470.397 300.493 469.759 300.462L469.761 300.751C469.831 300.694 470 300.614 470.137 300.532L469.758 300.784L469.755 300.815L469.001 301.608L470.385 301.263L470.544 301.279L470.56 300.477L470.302 300.484ZM472.445 302.528L472.188 302.535L472.172 303.337L474.066 303.363C474.084 302.852 472.859 302.569 472.445 302.528ZM469.688 300.841L469.724 300.812L469.727 300.78C469.727 300.78 469.691 300.809 469.688 300.841Z" fill="#000000" fill-rule="nonzero" opacity="1" stroke="none" vectornator:layerName="path"/>
<path d="M353.36 229.821L353.341 230.334L354.4 230.343C354.401 230.021 354.578 229.525 354.865 228.91L354.86 227.978C354.411 227.966 353.9 228.59 353.36 229.821ZM345.701 204.639L345.698 203.707L344.189 203.685L344.193 204.618L345.701 204.639ZM311.102 256.385C311.123 255.519 308.782 251.914 304.083 245.502C304.094 244.411 306.069 242.967 310.005 241.205L321.552 232.998C324.238 230.211 326.124 225.449 327.213 218.68L327.24 217.109C327.294 212.357 324.264 208.233 318.091 204.697C314.528 201.741 307.795 199.626 297.893 198.388C289.613 198.274 278.598 200.138 264.877 204.015C260.99 206.266 256.595 208.464 251.69 210.613L251.675 211.415C251.964 211.412 252.425 211.297 252.969 210.997C253.516 210.987 253.81 211.273 253.791 211.786L254.628 211.451L255.012 211.457L255.009 211.81C255 212.227 251.913 214.202 245.72 217.67L246.083 218.542L245.698 218.535L244.779 218.09C244.781 218.38 244.349 218.53 243.547 218.515L243.544 218.869L244.354 220.105C244.064 220.109 243.632 219.938 243.048 219.655C241.699 219.649 240.325 220.22 238.888 221.427L239.662 219.126C242.433 210.949 244.505 203.666 245.843 197.308L245.788 196.885C244.536 195.892 243.352 194.553 242.295 192.906C242.424 191.923 242.481 191.35 242.462 191.22L242.401 190.861L242.01 190.919C237.184 196.803 228.034 206.757 214.529 220.779C204.322 230.694 199.016 236.24 198.61 237.421C194.505 240.903 192.492 243.049 192.604 243.864C191.555 244.403 191.077 244.998 191.168 245.714C190.874 245.749 190.693 245.635 190.658 245.342C188.811 247.762 186.292 249.183 183.069 249.603L179.684 250.038C179.228 250.09 178.974 250.386 178.952 250.93L179.007 251.353L180.277 251.189L180.338 251.549L177.43 252.354L172.351 253.007L169.726 252.907C169.306 253.252 171.798 253.08 170.821 253.208L167.499 253.651C165.482 253.901 164.416 253.634 164.304 252.82L163.912 252.877C163.942 253.233 163.949 253.491 163.862 253.707L163.75 252.893L161.08 253.239C161.011 252.01 157.913 247.269 151.821 239.016C151.839 237.54 154.47 235.647 159.677 233.369L174.83 222.498C178.347 218.798 180.829 212.553 182.312 203.766L182.326 201.679C182.403 195.388 178.384 189.911 170.271 185.186C165.581 181.283 156.723 178.573 143.704 176.992C132.792 176.841 118.281 179.292 100.24 184.284C95.1221 187.278 89.3396 190.176 82.8921 192.975L82.8799 194.067C83.2972 194.076 83.8602 193.908 84.5665 193.592C85.273 193.597 85.6234 193.953 85.6234 194.596L86.7656 194.099L87.31 194.12L87.2906 194.633C87.2722 195.145 83.1915 197.729 74.9858 202.378L75.4962 203.394L74.952 203.372L73.8156 202.841C73.8161 203.162 73.2529 203.331 72.1292 203.316L72.1363 203.896L73.2698 205.423C72.8535 205.413 72.2931 205.228 71.5869 204.902C69.0822 204.878 66.4869 206.42 63.7657 209.557L64.2761 210.572C66.5339 208.868 67.8371 208.033 68.1904 208.036L68.1636 209.608C67.8104 209.605 67.2472 209.774 66.4772 210.083L67.5868 212.186C70.3153 209.766 73.3379 207.702 76.5835 206.04C78.0409 206.57 78.7898 207.127 78.7705 207.638L79.9262 207.657C88.7393 202.392 97.2889 198.806 105.608 196.9L105.598 197.991C103.88 200.07 102.748 201.115 102.201 201.124C102.189 201.895 102.378 202.588 102.798 203.209C102.79 204.589 98.2143 213.455 89.1088 229.778C68.342 267.759 51.3033 295.7 37.9343 313.527C37.9285 313.912 38.1009 314.443 38.451 315.121C41.3501 314.733 43.201 314.21 44.0315 313.617L44.6421 313.613L44.6308 314.705L45.6896 314.714L46.8318 314.217C46.8323 314.538 47.1666 314.732 47.9051 314.741L47.8928 315.832C47.8838 316.892 47.1218 318.423 45.6309 320.492C44.356 321.684 42.8432 324.298 41.1254 328.337L41.107 328.849L42.1667 328.858C47.2572 324.188 51.2248 319.504 54.0974 314.84C67.8513 312.252 78.4163 309.411 85.8568 306.325C93.0128 306.423 98.6088 305.082 102.607 302.361L102.6 301.783L99.8483 302.313L99.2365 302.317L99.2298 301.738C104.528 301.459 108.237 300.67 110.401 299.279C121.328 292.456 129.546 287.68 135.059 284.916C146.496 278.145 154.19 271.194 158.077 264.092C158.662 264.022 159.248 263.952 159.899 263.855C161.401 263.94 162.232 263.991 162.461 263.948C162.426 263.657 162.569 263.51 162.861 263.475C165.273 263.457 164.087 263.756 165.65 263.557L169.75 263.033L170.435 262.94L170.097 263.099C170.537 263.207 171.017 263.223 171.571 263.149L171.741 264.355L150.631 291.537L146.088 296.197L143.459 302.62L143.849 302.563L145.905 301.931L145.013 304.446L145.127 305.228L145.603 305.95C145.341 305.988 145.231 306.138 145.265 306.431L145.32 306.854L146.166 306.746C147.48 305.815 148.084 304.911 147.978 304.033C149.26 304.384 150.11 304.565 150.569 304.482L150.622 304.905C149.809 305.017 149.332 305.613 149.161 306.689L149.215 307.111L149.67 307.06C157.006 300.493 175.687 277.376 190.366 261.895C190.132 260.041 197.161 258.198 211.484 256.341L211.939 256.29C212.23 258.536 210.622 263.743 207.112 271.911C204.889 276.833 203.784 279.551 203.867 280.009C200.967 286.566 199.554 290.122 199.625 290.707L193.048 306.476C189.007 314.496 185.688 323.004 183.055 332.063C183.348 332.028 183.791 332.104 184.41 332.326L185.17 331.791C185.206 332.084 185.387 332.197 185.681 332.162L185.51 330.956L187.681 331.107C188.333 331.012 188.953 330.27 189.544 328.85C189.666 326.645 190.228 325.512 191.24 325.354C193.093 320.269 194.18 317.741 194.477 317.673C196.232 312.61 197.447 309.741 198.125 309.07C200.672 302.509 202.384 299.176 203.298 299.042L203.407 299.888L201.688 303.285C198.249 313.645 195.002 321.775 191.942 327.674L192.34 330.798L192.794 330.747C199.976 318.605 211.003 294.246 225.846 257.669C226.492 254.391 228.339 251.971 231.351 250.437L230.781 249.706L230.719 249.347C232.021 249.187 232.964 248.767 233.541 248.117C233.506 247.823 232.433 247.3 230.326 246.512L238.218 223.321C239.534 222.359 240.291 221.856 240.514 221.878L240.49 223.095C240.2 223.099 239.739 223.215 239.194 223.514L240.096 225.115C242.211 223.236 244.456 221.658 246.863 220.387C247.978 220.818 248.513 221.257 248.539 221.644L249.373 221.664C256.131 217.674 262.633 214.976 268.91 213.575L268.895 214.376C267.614 215.952 266.765 216.735 266.348 216.726C266.355 217.306 266.464 217.831 266.706 218.304C266.697 219.364 263.266 226.094 256.377 238.522C240.603 267.326 227.672 288.507 217.52 302.091C217.524 302.381 217.677 302.781 217.976 303.325C220.16 303.027 221.581 302.622 222.173 302.166L222.557 302.173L222.543 302.974L223.44 302.999L224.276 302.664C224.286 302.891 224.562 303.014 225.107 303.036L225.086 303.902C225.074 304.672 224.508 305.836 223.358 307.393C222.337 308.29 221.177 310.263 219.847 313.312L219.836 313.729L220.671 313.747C224.524 310.209 227.544 306.652 229.731 303.077C240.179 301.092 248.2 298.962 253.829 296.629C259.319 296.692 263.562 295.698 266.597 293.621L266.605 293.203L264.477 293.603L264.029 293.592L264.038 293.174C268.041 292.992 270.897 292.377 272.51 291.348C280.798 286.192 287.041 282.537 291.233 280.445C304.405 272.721 310.985 264.698 311.102 256.385ZM308.948 256.718L308.915 259.961C308.455 260.719 308 261.091 307.615 261.085L307.68 255.564C308.54 255.97 308.954 256.333 308.948 256.718ZM70.5504 206.921L70.0072 206.897L70.009 205.902L72.2237 205.928L72.2052 206.441C71.8519 206.439 71.2918 206.576 70.5504 206.921ZM49.189 313.132C47.9733 312.433 46.849 312.097 45.8533 312.094L45.8808 310.523C45.8768 309.912 46.268 309.532 47.0478 309.45C47.7535 309.455 48.117 310.006 48.08 311.03C50.1496 308.954 51.2816 307.909 51.4758 307.897L52.6057 308.491C51.9082 311.634 50.761 313.16 49.189 313.132ZM175.671 204.617C175.124 204.628 174.209 202.834 172.981 199.338L172.983 198.342C174.012 198.348 174.898 200.107 175.673 203.622L175.671 204.617ZM175.321 192.597L174.771 193.603L159.853 185.567C170.194 186.945 175.36 189.291 175.321 192.597ZM104.011 242.503L101.796 242.476L101.799 241.48L104.013 241.506L104.011 242.503ZM105.589 208.434L106.133 208.455L106.107 210.028C105.594 210.01 104.851 210.706 103.877 212.089L103.889 210.997C104.993 209.917 105.59 209.077 105.589 208.434ZM99.8953 218.859L99.8819 220.948L99.338 220.925L99.3524 218.838L99.8953 218.859ZM97.093 222.503L98.1528 222.511C97.8865 224.22 97.3178 225.096 96.4518 225.074L95.9079 225.053C96.6894 223.973 97.0966 223.114 97.093 222.503ZM94.7425 227.733L95.3532 227.728L95.3339 228.241L94.1841 229.799L93.124 229.79L93.1434 229.277C94.2034 229.286 94.7342 228.793 94.7425 227.733ZM92.4776 232.425L91.9007 235.003L91.3564 234.982L91.3891 232.382L92.4776 232.425ZM69.5912 281.414C68.5376 284.908 67.5944 286.646 66.7921 286.63L66.8114 286.119C66.7938 284.35 67.7212 282.771 69.5912 281.414ZM65.6096 288.184L65.5911 288.697C65.5856 289.403 65.2265 289.785 64.5232 289.747L64.5418 289.235C64.5376 288.625 64.8937 288.274 65.6096 288.184ZM63.1943 302.824L64.8645 302.829L64.8716 303.409C64.4544 303.399 63.8912 303.568 63.1852 303.883L62.1254 303.875C62.116 303.327 62.5071 302.949 63.1943 302.824ZM111.734 292.951C101.988 296.611 96.205 299.188 94.4208 300.65C84.0178 303.153 78.8067 304.822 78.8175 305.69C69.5246 308.337 63.3783 310.362 60.3854 311.704C59.7109 311.701 58.7817 311.353 57.5653 310.652C57.586 308.824 58.5585 307.442 60.4257 306.438C61.9977 306.466 63.4711 306.837 64.8435 307.583C66.5834 306.888 69.5738 306.22 73.78 305.609L73.7922 304.517L70.4539 304.476C70.9239 303.944 74.255 302.764 80.4776 300.939L82.148 300.944L82.1294 301.456C79.2723 301.43 77.6308 302.102 77.1324 303.564C77.1293 304.238 77.483 304.563 78.1896 304.567C80.4545 303.443 81.5829 302.751 81.5739 302.525C85.6907 302.163 97.4415 297.415 116.823 288.314L116.819 289.31C116.804 289.79 115.112 290.972 111.734 292.951ZM82.7517 299.397C85.4467 299.439 87.8452 298.585 89.9402 296.896C90.7115 296.907 91.0967 297.235 91.0617 297.906C89.7445 297.905 87.1234 298.737 83.2551 300.475L82.7107 300.453L82.7517 299.397ZM131.485 269.104L116.347 278.851C105.23 284.657 99.2888 287.539 98.4541 287.521C80.9375 295.006 70.1243 298.723 66.0803 298.676L65.469 298.678C66.1643 296.851 75.0464 282.468 92.1879 255.438C98.5421 255.522 108.761 253.578 122.817 249.574L126.154 249.615C133.057 249.689 138.048 251.534 141.105 255.05L141.091 257.138C137.854 264.177 134.631 268.163 131.485 269.104ZM105.583 250.95L107.862 250.983L107.844 251.495L105.565 251.462L105.583 250.95ZM137.845 248.718L139.515 248.723C140.97 249.607 141.702 250.321 141.71 250.901L141.692 251.413C140.214 251.395 138.922 250.496 137.845 248.718ZM144.865 223.609C143.229 225.214 138.922 227.807 131.951 231.357C129.766 231.334 121.406 233.655 106.862 238.382C106.197 237.994 105.443 237.787 104.672 237.779L104.675 236.784C104.715 234.764 105.855 232.338 108.131 229.478C109.781 223.857 111.283 220.696 112.667 220.03L126.873 195.055C126.907 193.419 129.512 192.424 134.689 192.07L136.359 192.074L136.338 193.583C141.411 193.315 144.573 193.179 145.792 193.203C155.1 193.322 159.719 195.676 159.656 200.202L160.716 200.21L160.755 197.547L161.91 197.565C164.467 199.329 165.75 201.288 165.73 203.439C165.711 204.915 164.736 206.651 162.836 208.648C162.129 208.642 161.765 208.091 161.804 207.067L160.648 207.049L160.078 210.206C154.706 216.743 150.944 220.001 148.824 219.984C146.654 222.435 145.347 223.624 144.865 223.609ZM150.18 242.614C149.288 241.882 148.553 241.52 147.977 241.496L148.005 239.923L149.064 239.931L151.251 241.531C151.275 242.272 150.918 242.623 150.18 242.614ZM156.695 252.097C157.672 252.612 158.233 253.118 158.319 253.544L157.798 253.621L157.826 253.656C157.731 253.647 157.6 253.665 157.502 253.688L156.678 254.217L156.695 252.097ZM156.959 256.558L156.905 256.135L158.274 255.95L158.329 256.373L156.959 256.558ZM159.818 260.473C161.208 260.386 161.885 260.357 164.488 260.036L164.543 260.459L159.595 261.094C159.681 260.877 159.767 260.661 159.818 260.473ZM164.328 262.944C162.273 262.934 162.743 262.723 159.425 263.134L159.371 262.71L163.573 261.809L165.559 261.557L165.674 262.339C164.764 262.442 165.4 262.505 164.328 262.944ZM168.726 262.353C168.236 262.432 167.876 262.173 167.706 261.609L168.976 261.445C169.53 261.372 169.858 261.629 169.932 262.183L168.726 262.353ZM181.616 250.969L181.561 250.547L183.614 250.267L183.729 251.05L181.616 250.969ZM186.492 328.515C186.676 327.954 186.749 327.545 186.713 327.251L187.168 327.2C187.723 327.127 188.021 327.35 188.098 327.871L188.153 328.294L186.492 328.515ZM202.454 256.345L201.578 256.098C200.089 256.529 198.84 256.822 197.83 256.947L196.983 257.057C196.494 257.137 196.131 256.907 195.99 256.38L201.947 255.62L203.944 254.919L204.509 255.714C203.567 255.814 202.87 256.033 202.454 256.345ZM207.082 255.358L207.028 254.935C207.322 254.9 207.724 254.715 208.18 254.342L212.411 253.797L212.466 254.221C210.216 254.544 208.411 254.912 207.082 255.358ZM208.549 247.052C208.256 247.087 207.849 247.303 207.335 247.638C207.298 247.345 206.726 247.289 205.619 247.435C205.507 246.622 208.672 245.811 215.15 244.975L216.06 244.872L216.175 245.655C211.59 246.518 209.036 247.004 208.549 247.052ZM220.88 236.128C219.933 241.142 217.867 243.83 214.643 244.25L214.589 243.827L211.681 244.631L210.412 244.794C209.759 244.89 209.19 244.801 208.697 244.593L208.552 243.452C208.499 243.03 213.095 237.83 222.372 227.888L223.31 228.141C223.515 229.64 222.706 232.292 220.88 236.128ZM242.251 221.214L241.866 221.207L241.881 220.406L243.552 220.412L243.542 220.828C243.249 220.864 242.821 220.981 242.251 221.214ZM226.055 301.909C225.144 301.369 224.304 301.092 223.565 301.084L223.59 299.865C223.6 299.448 223.881 299.187 224.439 299.081C224.986 299.072 225.266 299.485 225.248 300.319C226.79 298.704 227.642 297.889 227.801 297.904L228.625 298.34C228.068 300.727 227.21 301.927 226.055 301.909ZM322.084 219.522C321.667 219.513 320.998 218.161 320.013 215.46L320.028 214.658C320.829 214.673 321.534 215.996 322.109 218.625L322.084 219.522ZM321.841 210.307L321.377 211.096L310.091 204.996C317.926 206.031 321.864 207.803 321.841 210.307ZM267.66 248.222L265.99 248.217L266.005 247.414L267.675 247.419L267.66 248.222ZM268.845 222.341L269.293 222.353L269.269 223.571C268.852 223.562 268.286 224.085 267.571 225.139L267.586 224.338C268.409 223.486 268.829 222.82 268.845 222.341ZM264.555 230.271L264.528 231.843L264.079 231.831L264.107 230.258L264.555 230.271ZM262.383 233.044L263.217 233.063C262.99 234.39 262.57 235.056 261.96 235.058L261.511 235.046C262.076 234.203 262.368 233.525 262.383 233.044ZM260.644 236.986L261.028 236.991L261.02 237.408L260.161 238.609L259.327 238.59L259.337 238.174C260.202 238.194 260.628 237.787 260.644 236.986ZM258.941 240.544L258.452 242.552L258.068 242.547L258.107 240.526L258.941 240.544ZM241.524 277.798C240.719 280.418 240.011 281.73 239.399 281.733L239.402 281.38C239.439 280.034 240.138 278.817 241.524 277.798ZM238.478 282.928L238.474 283.281C238.482 283.859 238.195 284.152 237.619 284.127L237.629 283.711C237.637 283.294 237.92 283.032 238.478 282.928ZM236.667 294.059L237.949 294.091L237.94 294.506C237.65 294.51 237.189 294.626 236.651 294.862L235.818 294.843C235.83 294.394 236.112 294.134 236.667 294.059ZM273.498 286.56C266.154 289.336 261.751 291.276 260.327 292.356C252.424 294.272 248.473 295.551 248.471 296.226C241.424 298.259 236.776 299.758 234.554 300.791C234.041 300.773 233.327 300.509 232.417 299.969C232.426 298.588 233.172 297.537 234.592 296.843C235.81 296.867 236.94 297.14 237.946 297.689C239.281 297.179 241.546 296.697 244.744 296.21L244.76 295.408L242.16 295.375C242.522 294.961 245.085 294.059 249.82 292.665L251.102 292.695L251.099 293.048C248.917 293.024 247.644 293.541 247.275 294.662C247.257 295.173 247.55 295.459 248.098 295.45C249.793 294.558 250.617 294.028 250.636 293.838C253.744 293.6 262.651 289.984 277.384 283.025L277.369 283.827C277.337 284.145 276.059 285.046 273.498 286.56ZM251.483 291.447C253.571 291.461 255.4 290.84 257.002 289.585C257.547 289.606 257.843 289.861 257.825 290.373C256.86 290.373 254.903 290.983 251.92 292.23L251.472 292.217L251.483 291.447ZM288.538 268.417L277.096 275.894C268.658 280.295 264.102 282.479 263.428 282.477C250.137 288.164 241.953 290.984 238.84 290.933L238.392 290.92C238.915 289.526 245.687 278.596 258.71 258.1C263.493 258.156 271.228 256.641 281.942 253.591L284.542 253.623C289.773 253.693 293.555 255.096 295.857 257.798L295.831 259.37C293.347 264.651 290.927 267.657 288.538 268.417ZM268.887 254.641L270.558 254.647L270.548 255.064L268.878 255.059L268.887 254.641ZM293.384 252.925L294.666 252.956C295.787 253.645 296.342 254.215 296.332 254.631L296.33 254.985C295.206 254.97 294.213 254.293 293.384 252.925ZM298.648 233.876C297.4 235.102 294.151 237.094 288.902 239.788C287.232 239.782 280.889 241.531 269.869 245.066C269.378 244.825 268.811 244.704 268.204 244.676L268.219 243.874C268.244 242.334 269.101 240.491 270.796 238.313C272.059 234.004 273.224 231.644 274.236 231.166L285.084 212.189C285.105 211.002 287.077 210.234 290.968 209.88L292.251 209.912L292.226 211.13C296.041 210.898 298.431 210.781 299.396 210.781C306.456 210.87 309.977 212.633 309.923 216.099L310.756 216.116L310.787 214.192L311.621 214.21C313.546 215.526 314.496 216.969 314.466 218.574C314.447 219.728 313.736 221.072 312.365 222.575C311.818 222.585 311.538 222.172 311.556 221.338L310.722 221.319L310.231 223.681C306.166 228.709 303.314 231.221 301.678 231.188C300.053 232.987 299.064 233.886 298.648 233.876ZM301.058 247.484L301.083 246.265L301.917 246.285L303.591 247.543C303.572 248.054 303.289 248.317 302.742 248.326C302.026 247.773 301.475 247.493 301.058 247.484ZM145.255 310.094L144.409 310.202L143.649 310.737C143.727 311.26 144.025 311.482 144.58 311.408C145.132 311.335 145.387 311.039 145.31 310.517L145.255 310.094ZM142.727 303.512L142.781 303.935C143.335 303.862 143.59 303.565 143.513 303.044L143.459 302.62C142.936 302.696 142.682 302.993 142.727 303.512ZM169.455 263.421L170.097 263.099C169.97 263.086 169.878 263.044 169.785 263.004C169.557 263.045 169.445 263.195 169.455 263.421ZM170.417 252.43L171.393 252.301L171.284 251.455L170.307 251.583L170.417 252.43ZM392.125 306.871L389.986 306.402L389.521 307.192L389.512 307.609L402.508 307.805L402.523 307.003L392.125 306.871ZM403.996 307.052L403.981 307.854L404.108 307.867L404.123 307.065L403.996 307.052ZM458.765 305.349L458.749 306.151L460.124 306.544L460.14 305.743L458.765 305.349ZM456.776 305.312C446.887 306.518 445.715 306.015 443.664 305.973L443.647 306.774L444.546 306.8L445.026 306.815L444.908 306.708L446 306.397C455.682 306.296 456.758 306.789 456.77 305.697L456.776 305.312ZM400.094 285.488L399.263 285.117C398.377 286.924 397.916 288.003 397.917 288.325L397.912 288.678C398.585 288.712 399.302 287.627 400.094 285.488ZM389.068 278.064L389.076 277.647L388.628 277.635L387.782 278.065L388.152 278.872C388.763 278.869 389.078 278.61 389.068 278.064ZM411.773 306.731L411.789 305.929L411.531 305.936L411.515 306.737L411.773 306.731ZM465.455 300.1L466.066 300.095C466.419 300.099 466.607 299.828 466.625 299.315L466.351 298.517C464.136 298.49 463.109 298.485 461.229 299.295L461.238 298.878L458.572 298.87C458.587 298.068 458.405 297.633 458.052 297.63L456.671 297.621C455.067 297.591 454.31 297.452 453.454 297.978C453.451 297.688 453.368 297.551 453.208 297.535L451.668 297.511L450.727 297.933C450.723 297.642 450.641 297.505 450.481 297.489L449.893 297.913L449.902 297.497L447.786 297.126L447.274 297.108L447.258 297.91L448.312 298.303L449.336 298.341C449.664 298.597 450.04 298.7 450.489 298.712L451.425 298.355L451.421 298.709C446.302 299.453 446.356 299.234 442.862 299.465C442.505 299.173 442.232 299.018 442.037 299.03L441.967 299.088C441.589 299.018 441.391 298.742 441.4 298.325L443.205 298.279C443.332 298.292 443.414 298.428 444.382 298.718C445.884 298.16 445.976 297.878 446.746 297.891L446.762 297.089C441.766 297.557 443.802 297.117 437.607 297.048L437.317 297.052L437.333 296.251C445.319 296.078 442.624 296.357 445.405 295.862C445.408 296.151 445.491 296.288 445.651 296.303C445.97 296.037 446.37 295.884 446.786 295.87L447.33 295.892C450.121 295.944 450.991 296.576 456.616 295.591L456.612 295.945L457.547 295.587L458.381 295.607C458.397 294.804 459.618 294.797 460.035 294.806L460.057 293.94C450.253 294.929 447.793 294.138 445.044 294.638L445.047 294.284C442.489 294.48 442.413 294.28 441.773 294.248C441.578 294.261 441.277 294.392 440.927 294.679C440.923 294.389 440.841 294.252 440.65 294.233C440.554 294.224 440.519 294.252 440.488 294.249L432.207 294.778C432.198 294.553 432.115 294.415 431.921 294.429C427.6 294.9 428.73 295.173 423.015 295.119C422.758 295.127 422.395 295.219 421.922 295.461C421.912 295.235 421.796 295.095 421.506 295.098L418.009 295.042L415.63 295.384C415.62 295.158 415.505 295.018 415.217 295.022C413.876 295.242 412.709 295.352 411.78 295.323L411.716 295.316C411.137 295.324 412.019 295.186 411.591 294.952L410.85 295.296C409.823 295.291 410.379 295.184 406.875 294.869C400.658 295.024 401.317 295.186 400.646 295.151L398.369 294.765C398.379 294.991 398.237 295.137 397.981 295.112C395.408 294.503 394.112 293.957 394.127 293.477C394.723 291.029 395.454 289.816 396.32 289.838L396.769 289.851L396.305 290.64L396.754 290.652C397.624 290.288 398.048 289.912 398.053 289.528L398.076 288.662L397.241 288.643L397.258 287.841C397.253 287.23 397.402 286.699 397.668 286.276L399.846 283.439L399.832 284.241L400.729 284.265L400.744 283.463L400.307 282.68C401.032 282.174 401.573 281.906 401.99 281.915L401.999 281.499L400.78 281.474L400.806 280.255C403.722 275.467 405.158 272.653 405.176 271.82L406.001 272.255C406.545 272.277 406.831 271.984 406.856 271.407L406.022 271.39L406.025 271.037C406.025 270.449 406.193 269.874 406.511 269.381C407.951 268.143 408.692 266.834 408.706 265.389C408.964 265.382 409.078 265.523 409.082 265.812C410.259 265.287 411.286 263.684 412.2 260.947C414.526 257.579 418.034 250.728 422.75 240.431C431.62 222.285 431.531 220.252 432.96 215.895L432.126 215.875C432.133 216.455 431.952 216.984 431.648 217.467C431.097 217.187 430.663 217.016 430.342 217.017L430.345 216.664C430.379 215.028 431.24 213.153 432.995 211.013L433.379 211.019L433.808 213.825L434.642 213.844C434.629 213.65 434.96 212.589 435.603 210.629C435.612 210.212 435.319 209.926 434.686 209.831L433.84 210.261C433.834 209.682 434.013 208.19 434.346 205.812L433.928 205.804C433.298 205.034 433.005 204.426 433.02 203.946L428.425 203.939C428.426 203.619 428.314 203.126 428.055 202.489C428.065 202.072 429.124 201.759 431.264 201.554L432.153 201.995L433.063 201.572C433.067 201.861 433.212 202.004 433.534 202.004L434.444 201.58C434.447 201.869 434.594 202.012 434.915 202.013L435.332 202.021L435.36 201.093C434.717 201.092 433.031 200.925 430.367 200.565L429.45 201.053L429.469 200.54C407.943 200.173 395.72 199.958 392.796 199.957C392.41 199.951 390.918 199.771 388.284 199.445C388.28 199.798 387.943 199.958 387.3 199.958L386.418 199.453L383.221 199.94C382.483 199.93 381.245 199.776 379.546 199.413C379.03 199.749 378.435 199.915 377.729 199.909C377.344 199.902 382.305 200.106 386.918 200.241C386.404 200.577 385.65 200.726 384.622 200.721C383.916 200.715 383.321 200.56 382.84 200.223C382.108 200.471 379.797 200.757 375.935 201.145L375.047 200.704L359.927 201.518C359.382 201.175 358.723 201.012 357.953 201.001C357.152 200.985 355.786 201.14 353.891 201.466L346.401 203.744L346.854 204.688C347.207 204.692 347.734 204.55 348.375 204.26L350.898 204.736L350.343 207.091C347.885 207.908 346.362 209.332 345.784 211.267C342.097 212.475 340.236 213.417 340.17 214.084L340.161 214.501L340.704 214.524L341.71 214.109L342.691 215.556L342.667 217.417C342.674 217.997 335.484 229.912 321.157 253.174C308.512 275.699 301.824 288.052 301.084 290.325C297.454 290.96 295.275 292.191 294.481 294.041C294.485 294.65 295.494 295.169 297.515 295.53L297.519 296.462L296.445 297.898L296.42 299.76C296.422 300.724 298.927 301.711 303.936 302.722C303.936 302.402 304.114 302.226 304.467 302.229C304.449 303.384 303.909 305.58 302.85 308.817L303.394 308.839C305.778 306.183 306.961 304.307 306.972 303.216L307.421 303.229C307.933 303.247 308.418 303.874 308.93 305.178C308.27 305.369 305.54 310.208 300.739 319.727L301.192 320.671L301.736 320.693C307.589 309.319 311.167 303.053 312.498 301.932C318.694 302 329.43 301.973 344.676 301.845L345.687 301.367C345.686 301.689 345.862 301.866 346.216 301.87L347.212 301.872L348.223 301.393C348.224 301.715 348.399 301.892 348.752 301.896L360.274 302.042C363.323 302.087 364.846 301.306 364.873 299.734C364.883 299.317 366.712 299.017 370.359 298.864C370.712 298.867 371.212 299.014 371.89 299.305C371.886 299.015 373.728 298.91 377.388 298.952C377.672 297.051 378.377 296.093 379.469 296.105L379.466 295.172C378.439 295.167 377.266 295.307 375.886 295.621C373.512 295.257 372.003 294.914 371.39 294.628C370.717 294.915 370.221 295.059 369.868 295.056L361.888 294.521L360.882 294.936C360.879 294.646 360.701 294.5 360.347 294.498L359.898 294.485L358.83 294.893C358.826 294.604 358.021 294.299 356.388 293.913L355.31 294.416L353.322 294.379L353.34 293.867C363.697 293.769 368.896 292.871 368.933 291.203C369.608 291.206 369.927 291.559 369.923 292.233L372.991 291.767L372.987 290.834L348.385 289.069C348.385 289.39 348.207 289.566 347.854 289.563L344.888 289.012C344.117 288.999 343.459 289.159 342.912 289.491L341.839 288.966C338.727 288.915 336.397 289.069 334.822 289.396C332.738 289.029 330.412 288.829 327.812 288.797L322.26 288.728L319.743 288.189C319.776 286.553 323.718 278.878 331.631 265.202C333.988 260.551 336.006 257.698 337.774 256.716C338.127 256.72 338.623 256.897 339.295 257.252L343.342 256.305L345.315 256.821C348.718 256.869 352.727 256.304 357.378 255.093C358.501 255.109 359.322 255.255 359.902 255.569L362.962 255.165L371.948 255.284C375.767 255.342 379.955 254.921 384.545 253.995L384.54 253.063C382.87 253.058 382.04 252.686 382.042 252.012C382.07 250.761 380.912 250.132 378.569 250.092L378.565 249.161L381.085 248.704L387.566 248.799L387.563 247.868C387.304 247.873 386.003 247.713 383.594 247.377L383.597 246.381L386.101 246.404C386.775 246.408 387.093 246.118 387.093 245.475C383.743 245.238 382.071 244.912 382.084 244.463C358.675 243.3 346.974 242.364 346.983 241.626C346.63 241.623 346.131 241.799 345.456 242.117L344.946 241.103C352.42 228.604 356.705 222.343 357.764 222.353C357.745 222.865 357.409 223.667 356.756 224.728L356.748 225.144L357.744 225.146C360.775 219.534 363.143 216.716 364.874 216.759C372.257 216.848 363.967 215.544 379.867 214.646C380.475 214.996 380.907 215.167 381.228 215.166C387.494 214.535 396.184 214.079 407.295 213.832L407.322 212.902L401.414 212.863L401.442 211.933C402.148 211.939 402.743 211.773 403.259 211.439L403.24 211.95C403.561 211.951 404.028 211.772 404.639 211.447C405.668 211.452 406.421 211.624 406.933 211.963C409.024 211.625 410.711 211.471 411.932 211.463L415.626 211.476C416.575 210.992 417.039 210.524 417.054 210.043L417.064 209.626C416.131 209.63 415.087 209.463 413.869 209.116C413.887 208.604 414.176 208.279 414.797 208.181L421.67 208.219L424.868 207.732C424.865 208.086 425.012 208.229 425.266 208.254C425.587 208.254 426.055 208.075 426.665 207.75C426.823 207.798 427.012 207.817 427.168 207.865C426.67 208.682 426.069 209.877 425.431 211.452L424.534 211.427C424.53 210.817 424.425 210.259 424.185 209.753L423.736 209.741C413.179 231.961 408.422 242.319 399.032 259.255C397.183 263.636 395.756 266.033 394.684 266.474C394.665 266.985 394.958 267.271 395.506 267.262C395.476 269.509 394.749 271.654 393.293 273.695C388.75 283.527 385.843 288.863 384.533 289.761L384.853 294.646C384.834 295.158 384.551 295.419 384.003 295.429L383.169 295.411C383.175 294.061 382.761 293.377 381.893 293.388L381.444 293.375C380.194 294.955 379.174 296.814 378.41 299.02L379.244 299.038C380.429 298.418 381.024 297.609 381.026 296.612L382.696 296.617L383.616 297.062C382.733 298.196 382.289 299.116 382.28 299.853L382.649 300.662L381.315 303.1L381.305 303.517C382.27 303.516 383.288 303.938 384.336 304.717C385.105 304.729 385.968 304.462 386.95 303.948C387.915 303.948 391.483 304.269 397.624 304.878L400.816 304.133C404.574 304.475 405.169 304.63 408.443 304.665L409.792 304.67L410.54 304.262L410.53 304.68C413.964 304.73 414.164 304.975 416.807 305.559L416.797 305.976L414.903 305.949L414.889 306.751C415.467 306.744 415.993 306.635 416.441 306.326C416.921 306.342 417.182 306.624 417.157 307.201C416.388 307.189 415.51 307.294 414.523 307.517L413.724 307.15C412.384 307.37 412.662 307.494 411.764 307.469L410.485 307.085C410.494 307.311 410.351 307.457 410.128 307.435C410.11 307.948 410.371 308.231 410.852 308.246L412.2 308.252L419.231 308.337L421.928 308.027C421.938 308.252 422.02 308.39 422.247 308.38L423.567 308.029L425.973 308.075C427.834 308.098 427.814 307.968 431.888 307.729C431.881 307.472 431.986 307.385 432.18 307.372L432.178 307.725C438.812 307.259 439.231 307.236 440.316 306.99L440.394 307.191C442.054 306.97 441.122 306.974 441.599 306.7C441.603 306.989 441.685 307.125 441.843 307.141L443 307.16L443.02 306.295L440.701 306.033L440.675 305.965C440.576 305.988 440.514 305.981 440.414 306.004L440.096 305.973L440.089 306.036C438.499 306.2 438.489 305.973 437.461 305.969L431.605 305.709L431.615 305.292L434.906 305.169L436.093 305.189L436.808 304.778L436.799 305.196C441.42 305.268 442.929 306.574 464.571 304.158C465.726 304.176 465.725 303.212 466.652 301.311C466.262 301.298 465.884 301.172 465.565 300.946C463.748 301.441 462.856 301.031 459.43 301.238C459.14 301.242 458.943 300.964 458.897 300.445L458.9 300.092L462.136 300.51C462.748 300.506 463.934 300.527 465.783 299.714C465.754 300 465.071 300.094 465.455 300.1C465.455 300.1 465.456 300.1 465.455 300.1ZM308.509 287.075L307.001 287.054C306.996 286.443 308.019 284.231 310.062 280.48L311.058 280.484C310.999 281.409 310.17 283.609 308.509 287.075ZM311.042 279.999L311.052 279.583C311.07 279.071 311.422 278.752 312.138 278.662L312.13 279.079C312.102 279.687 311.747 280.006 311.042 279.999ZM329.408 297.342L329.398 297.759L326.894 297.736L326.904 297.319L329.408 297.342ZM326.441 296.791C326.423 297.304 325.602 297.801 323.89 298.209L320.857 297.684L319.861 297.681L319.858 296.749L326.441 296.791ZM355.733 206.212L354.225 206.191L354.243 205.679C354.262 205.166 354.584 204.844 355.236 204.749L355.78 204.771L356.757 205.285C356.728 205.893 356.408 206.214 355.733 206.212ZM378.929 204.012L379.409 204.029L379.381 204.957L378 204.948C378.018 204.437 378.307 204.112 378.929 204.012ZM373.001 205.45L370.767 204.971L370.776 204.554C373.761 204.593 374.78 204.372 376.643 204.044C376.641 204.397 376.946 204.556 377.525 204.549L377.497 205.477L376.597 205.485C375.891 205.479 375.296 205.324 374.815 204.986C374.239 205.283 373.644 205.449 373.001 205.45ZM375.017 213.973L375.026 213.556L378.721 213.569L378.711 213.986L375.017 213.973ZM379.246 211.179L379.265 210.666L381.063 210.684L381.044 211.196L379.246 211.179ZM380.279 204.983L379.798 204.967L380.309 204.021L384.42 204.042L384.402 204.555C383.342 204.547 381.946 204.698 380.279 204.983ZM381.476 213.971L381.504 213.042L383.302 213.059C383.912 213.056 384.202 213.373 384.171 214.014L381.476 213.971ZM393.722 200.337L391.367 200.748L390.95 200.738C389.859 200.727 388.462 200.555 386.822 200.232C389.801 200.335 392.657 200.393 393.722 200.337ZM390.262 210.278L390.252 210.695L387.073 210.669L387.083 210.253L390.262 210.278ZM395.175 213.239C395.18 212.856 394.6 212.54 393.373 212.29L390.134 212.869L387.705 212.725C387.202 212.289 386.941 212.006 386.928 211.812L389.713 212.248L396.115 211.855L399.317 212.301L399.297 212.814C397.691 212.814 396.325 212.969 395.175 213.239ZM428.432 208.086C428.811 208.156 429.065 208.181 429.161 208.191C430.382 207.219 431.708 206.482 433.2 206.02C431.556 210.934 429.405 214.482 426.714 216.657L425.039 215.398C426.912 211.76 428.052 209.334 428.432 208.086ZM422.028 216.931L422.476 216.944C421.758 218.029 421.157 218.58 420.708 218.568L420.732 217.349C421.02 217.377 421.451 217.227 422.028 216.931ZM417.659 225.014C418.859 221.662 419.879 219.804 420.693 219.37L420.684 219.786C419.923 222.924 419.055 224.542 418.119 224.578L418.08 226.599C417.209 227.604 416.777 228.397 416.745 229.037L416.297 229.025L416.317 226.23C416.833 226.218 417.29 225.813 417.659 225.014ZM415.836 229.461C415.82 229.941 415.392 231.024 414.585 232.679L414.137 232.667L414.161 231.448C414.905 230.107 415.483 229.458 415.836 229.461L415.836 229.461ZM382.765 301.444L382.767 301.091L383.601 301.11L383.577 302.328C383.127 302.316 382.835 302.03 382.765 301.444ZM419.361 306.038C419.358 305.747 419.244 305.607 418.954 305.611L416.867 305.597L416.876 305.18L417.067 305.199L422.009 305.272L421.999 305.688C420.562 305.61 419.68 305.748 419.361 306.038ZM417.012 304.777C417.195 304.891 417.089 304.977 416.987 305.03C416.895 304.989 416.777 304.881 417.012 304.777ZM417.835 299.073L415.076 299.025L415.085 298.607L417.59 298.631L419.807 298.305C419.814 298.563 419.932 298.671 420.221 298.667C422.843 298.478 422.601 298.324 423.852 298.353C424.268 298.361 424.498 298.642 424.48 299.154L417.835 299.073ZM427.495 299.196C425.984 298.885 425.901 298.749 424.809 298.736L424.813 298.383L427.286 298.404L427.282 298.757C427.025 298.763 427.942 298.918 427.495 299.196ZM427.731 298.769L427.734 298.416L429.083 298.421L429.08 298.774L427.731 298.769ZM430.716 298.808L430.719 298.455C430.945 298.446 431.279 298.317 431.724 298.04C432.398 298.043 432.704 298.523 432.717 299.038L430.716 298.808ZM434.55 298.707L434.559 298.289L436.195 298.322L436.185 298.74L434.55 298.707ZM436.828 298.739C436.844 298.258 437.063 297.992 437.484 297.968L437.955 298.722C437.946 298.496 438.053 298.378 438.247 298.366L438.586 299.171L436.828 298.739ZM468.508 298.153L468.544 298.124L468.547 298.092C468.547 298.092 468.511 298.121 468.508 298.153ZM469.122 297.795C469.392 297.662 469.536 297.516 468.94 297.361C468.623 297.65 469.218 297.805 468.578 297.774L468.582 298.064C468.651 298.006 468.821 297.927 468.957 297.844L468.579 298.095L468.576 298.127L467.822 298.921L469.206 298.576L469.365 298.592L469.38 297.789L469.122 297.795ZM471.266 299.841L471.008 299.847L470.992 300.649L472.885 300.676C472.905 300.163 471.679 299.882 471.266 299.841Z" fill="#f9dc3e" fill-rule="nonzero" opacity="1" stroke="none" vectornator:layerName="path"/>
</g>
</g>
</svg>
