<?xml version="1.0" encoding="UTF-8"?>
<svg id="Ebene_1" data-name="Ebene 1" xmlns="http://www.w3.org/2000/svg" viewBox="0 0 256 256">
  <defs>
    <style>
      .cls-1 {
        fill: #f9dc3e;
      }

      .cls-2 {
        fill: #27282c;
      }
    </style>
  </defs>
  <g id="Ebene_2" data-name="Ebene 2">
    <path class="cls-1" d="m256,221c0,19.3-15.7,35-35,35H35c-19.3,0-35-15.7-35-35V35C0,15.7,15.7,0,35,0h186c19.3,0,35,15.7,35,35"/>
  </g>
  <g>
    <path d="m170.74,91.16l-.05-.49-.8.07.05.49.8-.07h0Zm5.37,12.91l.02.27.56-.05c-.02-.17.05-.44.17-.78l-.05-.49c-.24.02-.48.37-.7,1.05h0Zm-20.94,16.26c-.03-.46-1.46-2.24-4.28-5.38-.05-.58.92-1.44,2.9-2.58l5.67-4.94c1.27-1.61,2.02-4.23,2.24-7.86l-.07-.83c-.22-2.51-2.04-4.54-5.49-6.08-2.04-1.38-5.71-2.14-11.01-2.28-4.38.37-10.11,1.94-17.16,4.71-1.94,1.39-4.14,2.79-6.62,4.18l.03.42c.15-.02.39-.1.66-.29.29-.03.46.1.48.37l.42-.22.2-.02.02.19c.02.22-1.51,1.43-4.6,3.58l.24.44-.2.02-.51-.19c.02.15-.2.25-.63.29l.02.19.49.61c-.15.02-.39-.05-.71-.17-.71.07-1.41.44-2.11,1.15l.29-1.26c1.04-4.47,1.75-8.43,2.12-11.86l-.05-.22c-.71-.46-1.41-1.1-2.06-1.92.02-.53.02-.83,0-.9l-.05-.19-.2.05c-2.24,3.36-6.56,9.1-12.96,17.22-4.87,5.78-7.39,8.99-7.54,9.63-1.99,2.06-2.94,3.3-2.84,3.72-.53.34-.75.68-.66,1.05-.15.03-.25-.02-.29-.17-.85,1.38-2.11,2.26-3.79,2.65l-1.77.41c-.24.05-.36.22-.34.51l.05.22.66-.15.05.19-1.5.58-2.65.61-1.39.08c-.2.2,1.1-.02.59.1l-1.73.41c-1.05.24-1.63.15-1.73-.27l-.2.05c.03.19.05.32.02.44l-.1-.42-1.39.32c-.1-.65-1.99-2.99-5.64-7.03-.07-.78,1.22-1.92,3.86-3.4l7.44-6.54c1.66-2.14,2.65-5.57,2.97-10.29l-.1-1.1c-.29-3.33-2.7-6.01-7.24-8.09-2.68-1.82-7.51-2.79-14.47-2.94-5.78.49-13.32,2.55-22.59,6.13-2.55,1.85-5.45,3.69-8.71,5.5l.05.58c.22-.02.51-.14.87-.34.37-.03.58.14.61.48l.58-.32.29-.02.02.27c.02.27-2,1.85-6.1,4.74l.32.51-.29.02-.63-.22c.02.17-.27.29-.87.34l.03.31.68.75c-.22.02-.53-.05-.92-.19-1.32.12-2.62,1.07-3.89,2.87l.32.51c1.1-1.02,1.75-1.53,1.94-1.55l.07.83c-.19.02-.48.14-.87.34l.7,1.05c1.34-1.44,2.82-2.68,4.43-3.72.8.2,1.22.46,1.24.73l.61-.05c4.38-3.24,8.71-5.59,13.01-7.03l.05.58c-.8,1.19-1.34,1.8-1.63,1.83.03.41.17.76.42,1.07.07.73-1.89,5.66-5.84,14.76-8.99,21.17-16.53,36.83-22.66,46.95.02.2.14.48.36.82,1.51-.36,2.46-.73,2.87-1.09l.32-.03.05.58.56-.05.58-.32c.02.17.2.25.59.22l.05.58c.05.56-.27,1.41-.95,2.58-.61.7-1.27,2.16-1.97,4.38l.02.27.56-.05c2.45-2.73,4.3-5.42,5.57-8.03,7.13-2.09,12.57-4.14,16.34-6.17,3.79-.32,6.68-1.33,8.65-2.97l-.03-.31-1.43.42-.32.03-.03-.31c2.79-.42,4.71-1.04,5.78-1.89,5.42-4.18,9.51-7.13,12.28-8.88,5.69-4.18,9.39-8.26,11.08-12.21.31-.07.61-.14.95-.22.8-.03,1.24-.05,1.36-.08-.03-.15.03-.24.19-.27,1.27-.14.66.08,1.48-.1l2.14-.49c-.14.03-.19.1-.15.24l.32-.2c-.07,0-.12-.02-.17-.03l.36-.08-.17.1c.24.03.49.02.78-.05l.15.63-9.73,15.48-2.16,2.7-1.05,3.53.2-.05,1.05-.44-.34,1.38.1.41.29.36c-.14.03-.19.12-.15.27l.05.22.44-.1c.65-.56.92-1.07.82-1.53.7.12,1.15.17,1.39.1l.05.22c-.42.1-.65.44-.68,1.02l.05.22.24-.05c3.53-3.86,12.2-17.05,19.14-26.01-.22-.97,3.4-2.31,10.87-4.04l.24-.05c.27,1.17-.31,4.01-1.73,8.51-.92,2.72-1.36,4.21-1.29,4.45-1.19,3.62-1.75,5.57-1.68,5.88l-2.65,8.68c-1.72,4.45-3.02,9.12-3.94,14.05.15-.03.39-.02.73.07l.37-.32c.03.15.14.2.29.17l-.15-.63,1.15-.03c.34-.08.63-.51.87-1.29-.05-1.17.19-1.8.71-1.94.71-2.79,1.15-4.18,1.31-4.23.66-2.77,1.15-4.35,1.48-4.74,1-3.6,1.73-5.45,2.21-5.57l.1.44-.73,1.89c-1.27,5.66-2.57,10.12-3.87,13.4l.37,1.63.24-.05c3.16-6.79,7.71-20.25,13.64-40.36.17-1.77,1.02-3.14,2.53-4.11l-.34-.36-.05-.19c.68-.15,1.15-.42,1.43-.8-.03-.15-.63-.37-1.78-.68l2.96-12.67c.65-.58,1.02-.88,1.14-.88l.05.65c-.15.02-.39.1-.66.29l.56.8c1.02-1.1,2.12-2.06,3.33-2.85.61.17.92.37.95.58l.44-.03c3.36-2.46,6.66-4.23,9.9-5.3l.03.42c-.59.9-1,1.36-1.22,1.38.03.31.12.58.27.82.05.56-1.41,4.3-4.4,11.23-6.83,16.05-12.55,27.93-17.21,35.64.02.15.12.36.31.63,1.14-.27,1.87-.56,2.16-.83l.2-.02.03.42.48-.03.42-.22c.02.12.17.17.46.15l.03.46c.03.41-.2,1.05-.73,1.94-.49.53-1,1.63-1.55,3.31l.02.22.44-.03c1.85-2.07,3.26-4.11,4.23-6.12,5.42-1.6,9.55-3.14,12.4-4.67,2.9-.25,5.1-1,6.59-2.26l-.02-.22-1.1.32-.24.02-.02-.22c2.11-.31,3.58-.78,4.38-1.41,4.11-3.16,7.22-5.42,9.33-6.74,6.56-4.77,9.61-9.36,9.24-13.76h0Zm-1.12.29l.15,1.72c-.2.42-.42.65-.63.66l-.25-2.92c.48.17.71.34.73.54h0Zm-128.62-13.83l-.29.02-.05-.53,1.17-.1.02.27c-.19.02-.48.12-.85.34h0Zm-5.72,57.26c-.68-.31-1.29-.42-1.82-.37l-.07-.83c-.03-.32.15-.54.56-.63.37-.03.59.24.63.78.99-1.21,1.53-1.82,1.63-1.83l.63.25c-.2,1.7-.73,2.57-1.56,2.63h0Zm61.17-63.99c-.29.03-.87-.87-1.7-2.65l-.05-.53c.54-.05,1.1.83,1.7,2.65l.05.53h0Zm-.82-6.34l-.24.56-8.31-3.47c5.54.19,8.39,1.15,8.54,2.9h0Zm-35.08,30.12l-1.17.1-.05-.53,1.17-.1.05.53h0Zm-.95-18.09l.29-.02.07.83c-.27.02-.63.42-1.07,1.21l-.05-.58c.53-.63.8-1.1.76-1.44h0Zm-2.46,5.81l.1,1.1-.29.02-.1-1.1.29-.02h0Zm-1.29,2.07l.56-.05c-.05.92-.31,1.41-.76,1.44l-.29.02c.36-.61.53-1.09.49-1.41h0Zm-.97,2.89l.32-.03.02.27-.53.88-.56.05-.02-.27c.56-.05.82-.34.76-.9h0Zm-.95,2.6l-.17,1.39-.29.02-.12-1.38.58-.03h0Zm-9.53,27.09c-.37,1.9-.78,2.87-1.21,2.9l-.02-.27c-.1-.93.31-1.82,1.22-2.63h0Zm-1.75,3.79l.02.27c.03.37-.14.59-.51.61l-.02-.27c-.03-.32.14-.53.51-.61h0Zm-.51,7.86l.88-.08.03.31c-.22.02-.51.14-.87.34l-.56.05c-.03-.29.15-.51.51-.61h0Zm25.14-7.76c-4.96,2.45-7.88,4.11-8.75,4.98-5.37,1.87-8.03,3.02-7.98,3.48-4.77,1.89-7.92,3.28-9.43,4.14-.36.03-.87-.1-1.55-.41-.08-.97.36-1.75,1.29-2.38.83-.07,1.63.05,2.4.37.88-.46,2.43-.97,4.62-1.51l-.05-.58-1.77.15c.22-.31,1.92-1.1,5.11-2.4l.88-.08.02.27c-1.51.14-2.34.58-2.53,1.38.03.36.24.51.61.48,1.14-.71,1.7-1.14,1.68-1.26,2.16-.41,8.12-3.53,17.89-9.36l.05.53c.02.25-.82.97-2.5,2.19h0Zm-14.98,4.93c1.43-.12,2.65-.7,3.67-1.7.41-.03.63.12.65.48-.7.07-2.04.65-3.99,1.77l-.29.02-.03-.56h0Zm24.17-18.57l-7.49,5.93c-5.57,3.65-8.56,5.49-8.99,5.52-8.87,4.88-14.39,7.41-16.53,7.59l-.32.03c.27-1,4.21-9.07,11.86-24.26,3.36-.29,8.66-1.85,15.88-4.71l1.77-.15c3.65-.32,6.39.39,8.19,2.09l.1,1.1c-1.36,3.91-2.85,6.18-4.47,6.85h0Zm-14.64-8.24l1.21-.1.02.27-1.21.1-.02-.27h0Zm16.94-2.87l.88-.08c.82.39,1.24.73,1.27,1.04l.02.27c-.78.07-1.51-.34-2.17-1.22h0Zm2.4-13.64c-.78.93-2.92,2.53-6.42,4.77-1.15.1-5.45,1.77-12.89,5.03-.37-.17-.76-.24-1.19-.2l-.05-.53c-.08-1.07.39-2.41,1.44-4.04.58-3.06,1.21-4.81,1.9-5.23l6.2-13.95c-.07-.87,1.26-1.53,3.97-1.99l.88-.08.07.8c2.67-.41,4.33-.65,4.98-.7,4.93-.42,7.49.58,7.7,2.97l.56-.05-.12-1.41.61-.05c1.44.8,2.23,1.77,2.33,2.9.07.78-.36,1.75-1.26,2.91-.37.03-.59-.24-.63-.78l-.61.05-.14,1.7c-2.5,3.74-4.31,5.66-5.44,5.76-1.02,1.41-1.65,2.11-1.9,2.12h0Zm3.8,9.77c-.51-.34-.92-.49-1.22-.48l-.07-.83.56-.05,1.24.73c.05.39-.12.59-.51.63h0Zm3.94,4.67c.54.22.87.46.93.68l-.27.07.02.02c-.05,0-.12.02-.17.03l-.41.32-.1-1.12h0Zm.37,2.34l-.05-.22.71-.17.05.22-.71.17h0Zm1.72,1.92c.73-.12,1.09-.17,2.45-.48l.05.22-2.58.59c.03-.12.07-.24.08-.34h0Zm2.51,1.07c-1.09.1-.85-.03-2.58.36l-.05-.22,2.16-.7,1.04-.24.1.41c-.46.1-.12.1-.66.39h0Zm2.29-.54c-.26.07-.46-.05-.58-.34l.66-.15c.29-.07.48.05.54.34l-.63.15h0Zm6.22-6.69l-.05-.22,1.07-.25.1.41-1.12.07h0Zm6.64,40.73c.07-.31.08-.53.05-.68l.24-.05c.29-.07.46.03.53.31l.05.22-.87.2h0Zm4.65-38.98l-.48-.08c-.76.31-1.41.53-1.94.65l-.44.1c-.25.07-.46-.03-.56-.31l3.11-.71,1.02-.48.34.39c-.49.1-.85.25-1.05.44h0Zm2.39-.76l-.05-.22c.15-.03.36-.15.58-.37l2.21-.51.05.22c-1.17.29-2.11.58-2.79.88h0Zm.34-4.47c-.15.03-.36.17-.61.37-.03-.15-.34-.15-.92-.02-.1-.42,1.53-1.02,4.91-1.8l.48-.1.1.41c-2.38.7-3.7,1.09-3.96,1.14h0Zm5.95-6.42c-.24,2.7-1.19,4.23-2.87,4.62l-.05-.22-1.5.58-.66.15c-.34.08-.65.07-.92-.02l-.14-.59c-.05-.22,2.11-3.21,6.49-8.95l.51.09c.19.78-.1,2.22-.87,4.35h0Zm10.51-9l-.2.02-.03-.42.88-.08.02.22c-.15.03-.37.12-.66.27h0Zm-4.33,43.5c-.51-.24-.97-.34-1.36-.31l-.05-.65c-.02-.22.12-.37.41-.46.29-.03.46.17.49.61.73-.93,1.14-1.41,1.22-1.41l.46.19c-.17,1.29-.56,1.97-1.17,2.02h0Zm46.44-48.58c-.22.02-.65-.66-1.31-2.04l-.03-.42c.42-.03.87.63,1.31,1.99l.03.48h0Zm-.61-4.86l-.2.44-6.29-2.63c4.2.14,6.37.87,6.49,2.19h0Zm-26.65,22.88l-.88.08-.03-.42.88-.07.03.41h0Zm-.73-13.74l.24-.02.05.65c-.22.02-.49.32-.82.92l-.03-.42c.39-.49.58-.87.56-1.12h0Zm-1.85,4.42l.07.83-.24.02-.07-.83.24-.02h0Zm-1,1.58l.44-.03c-.05.71-.24,1.09-.56,1.12l-.24.02c.25-.48.37-.85.36-1.1h0Zm-.71,2.17l.2-.02.02.22-.39.68-.44.03-.02-.22c.46-.03.66-.27.63-.7h0Zm-.71,1.97l-.15,1.09-.2.02-.08-1.07.44-.03h0Zm-7.25,20.6c-.29,1.43-.59,2.16-.92,2.19l-.02-.19c-.05-.71.25-1.39.93-2h0Zm-1.34,2.87l.02.19c.03.31-.1.48-.41.49l-.02-.22c-.02-.22.12-.37.41-.46h0Zm-.37,5.98l.68-.05.02.22c-.15.02-.39.1-.66.26l-.44.03c-.02-.24.12-.39.41-.46h0Zm19.08-5.89c-3.74,1.85-5.96,3.11-6.66,3.75-4.08,1.43-6.1,2.31-6.06,2.67-3.62,1.44-6,2.48-7.12,3.14-.27.02-.66-.08-1.17-.32-.07-.73.27-1.33.99-1.77.65-.05,1.26.03,1.82.27.68-.34,1.85-.71,3.52-1.14l-.03-.42-1.39.1c.17-.24,1.48-.85,3.91-1.83l.68-.05.02.19c-1.15.1-1.8.44-1.94,1.05.02.27.19.41.48.37.85-.56,1.26-.88,1.26-.99,1.63-.29,6.15-2.67,13.57-7.12l.03.42c.02.19-.61.73-1.89,1.66h0Zm-11.38,3.74c1.1-.1,2.04-.53,2.82-1.27.29-.03.46.1.48.37-.51.05-1.51.48-3.02,1.29l-.24.02-.03-.41h0Zm18.38-14.12l-5.66,4.55c-4.23,2.77-6.52,4.16-6.88,4.2-6.73,3.7-10.91,5.62-12.55,5.76l-.24.02c.2-.76,3.21-6.9,9.02-18.41,2.53-.22,6.54-1.43,12.04-3.6l1.38-.12c2.77-.24,4.84.31,6.2,1.61l.07.83c-1.04,2.92-2.16,4.64-3.38,5.16h0Zm-11.11-6.25l.88-.08.02.22-.88.08-.02-.22h0Zm12.86-2.19l.68-.05c.63.31.95.58.97.8l.02.19c-.59.05-1.16-.25-1.66-.93h0Zm1.78-10.34c-.59.71-2.21,1.94-4.84,3.64-.88.08-4.14,1.34-9.78,3.79-.27-.1-.58-.14-.9-.12l-.03-.42c-.07-.82.29-1.83,1.07-3.07.44-2.34.93-3.65,1.44-3.96l4.74-10.6c-.05-.63.95-1.14,2.99-1.53l.68-.05.05.65c2-.32,3.26-.51,3.77-.56,3.74-.32,5.69.42,5.84,2.26l.44-.03-.08-1.02.44-.03c1.09.59,1.66,1.31,1.73,2.16.05.61-.26,1.36-.9,2.23-.29.03-.46-.17-.49-.61l-.44.03-.14,1.27c-1.89,2.87-3.26,4.35-4.13,4.42-.76,1.04-1.24,1.56-1.46,1.58h0Zm1.99,7.07l-.05-.65.44-.03.95.58c.02.27-.12.42-.41.46-.41-.25-.71-.37-.93-.36h0Zm-79.07,41.26l-.44.1-.37.32c.07.27.24.37.53.31.29-.07.41-.24.34-.51l-.05-.22h0Zm-1.68-3.35l.05.22c.29-.07.41-.24.34-.51l-.05-.22c-.27.07-.39.24-.34.51h0Zm11.96-28.45l.51-.12-.1-.44-.51.12.1.44h0Zm154.14,12.94c-5.16,1.15-5.81.95-6.9,1.04l.03.42.48-.03.25-.02-.07-.05.56-.22c5.11-.56,5.71-.36,5.66-.93l-.02-.2h0Zm-27.81,3.69l.03.42h.07l-.03-.42h-.07Zm-3.19-11.19l-.46-.15c-.37,1-.56,1.6-.54,1.77l.02.19c.36-.02.68-.63.99-1.8h0Zm32.05,7.42l.03.42.75.14-.03-.42-.75-.14h0Zm-35.15,4.3l-1.15-.14-.2.44.02.22,6.88-.58-.03-.42-5.5.48h0Zm-3.13-15.07l-.02-.22-.24.02-.42.27.24.41c.32-.03.48-.19.44-.48h0Zm41.53,7.64l.32-.03c.19-.02.27-.17.25-.44l-.19-.41c-1.17.1-1.72.15-2.67.68l-.02-.22-1.41.14c-.03-.42-.15-.65-.34-.63l-.73.07c-.85.07-1.26.03-1.68.36-.02-.15-.07-.22-.15-.22l-.82.07-.48.27c-.02-.15-.07-.22-.15-.22l-.29.26-.02-.22-1.14-.08-.27.02.03.42.58.15.54-.03c.19.12.39.15.63.14l.48-.24.02.19c-2.67.66-2.65.54-4.48.85-.2-.14-.36-.2-.46-.19l-.03.03c-.2-.02-.32-.15-.34-.37l.95-.12c.07,0,.12.07.65.17.76-.37.8-.53,1.21-.56l-.03-.42c-2.62.51-1.56.17-4.84.46l-.15.02-.03-.42c4.21-.51,2.8-.22,4.25-.63.02.15.07.22.15.22.17-.17.36-.25.58-.29l.29-.02c1.48-.12,1.97.17,4.89-.65l.02.19.48-.24.44-.03c-.03-.42.61-.49.83-.51l-.03-.46c-5.13,1.04-6.47.75-7.9,1.16l-.02-.19c-1.34.24-1.39.14-1.73.15-.1.02-.25.1-.42.27-.02-.15-.07-.22-.17-.22-.05,0-.07.02-.08.02l-4.35.71c-.02-.12-.07-.19-.17-.17-2.26.48-1.65.56-4.67.83-.14.02-.32.08-.56.24-.02-.12-.08-.19-.24-.17l-1.85.15-1.24.31c-.02-.12-.08-.19-.24-.17-.7.19-1.31.31-1.8.34h-.03c-.31.03.15-.08-.08-.19l-.37.22c-.54.05-.25-.03-2.12-.02-3.28.41-2.92.46-3.28.48l-1.22-.08c.02.12-.05.2-.19.2-1.39-.19-2.11-.41-2.12-.66.19-1.32.51-2,.97-2.04l.24-.02-.2.44.24-.02c.44-.24.65-.46.63-.66l-.03-.46-.44.03-.03-.42c-.03-.32.02-.61.14-.85l1-1.61.03.42.48-.03-.03-.42-.27-.39c.36-.31.63-.48.85-.49l-.02-.22-.65.05-.05-.65c1.29-2.68,1.9-4.25,1.87-4.69l.46.19c.29-.02.42-.19.41-.49l-.44.03-.02-.19c-.03-.32.03-.63.17-.9.7-.73,1.02-1.46.95-2.23.14-.02.2.05.22.2.59-.34,1.05-1.24,1.39-2.73,1.05-1.9,2.55-5.71,4.5-11.4,3.74-10.06,3.58-11.13,4.11-13.5l-.44.03c.03.31-.03.59-.17.87-.31-.12-.54-.19-.71-.17l-.02-.19c-.07-.87.29-1.9,1.1-3.13l.2-.02.37,1.46.44-.03c-.02-.1.1-.68.34-1.75-.02-.22-.19-.36-.53-.37l-.42.27c-.03-.31-.02-1.1.03-2.38l-.22.02c-.37-.37-.56-.68-.58-.93l-2.43.24c-.02-.17-.1-.42-.27-.75-.02-.22.53-.44,1.65-.66l.49.19.46-.27c.02.15.1.22.27.2l.46-.27c.02.15.1.22.27.2l.22-.02-.03-.49c-.34.03-1.24.03-2.67-.02l-.46.31-.02-.27c-11.4.93-17.87,1.46-19.42,1.61-.2.02-1,0-2.41-.03.02.19-.15.29-.49.32l-.49-.22-1.66.42c-.39.03-1.05.02-1.97-.08-.25.2-.56.32-.93.36-.2.02,2.43-.14,4.87-.31-.25.2-.65.32-1.19.37-.37.03-.7-.02-.97-.17-.37.17-1.58.44-3.6.85l-.49-.19-7.95,1.22c-.31-.15-.66-.2-1.07-.17-.42.03-1.14.19-2.12.46l-3.84,1.6.29.48c.19-.02.46-.12.78-.31l1.36.12-.17,1.27c-1.26.56-1.99,1.39-2.19,2.45-1.89.83-2.82,1.43-2.82,1.78l.02.22.29-.02.51-.27.59.71.08.99c.03.31-3.14,6.98-9.5,20.03-5.5,12.57-8.39,19.45-8.66,20.69-1.89.53-2.97,1.29-3.3,2.31.03.32.59.54,1.68.63l.05.49-.49.82.08.99c.05.51,1.43.9,4.13,1.17-.02-.17.07-.27.25-.29.05.61-.12,1.8-.51,3.57l.29-.02c1.12-1.53,1.65-2.58,1.6-3.16l.24-.02c.27-.02.56.29.9.95-.34.14-1.53,2.84-3.57,8.12l.29.48.29-.02c2.5-6.32,4.06-9.82,4.71-10.48,3.28-.29,8.95-.87,17-1.73l.51-.31c.02.17.12.25.31.24l.53-.05.51-.31c.02.17.12.25.31.24l6.1-.53c1.61-.14,2.38-.63,2.31-1.46-.02-.22.93-.48,2.85-.75.19-.02.46.03.83.15-.02-.15.95-.31,2.89-.48.05-1.02.37-1.56.95-1.61l-.05-.49c-.54.05-1.15.19-1.87.42-1.27-.07-2.09-.17-2.43-.29-.34.19-.59.29-.78.31l-4.25.14-.51.27c-.02-.15-.12-.22-.31-.2l-.24.02-.54.27c-.02-.15-.46-.27-1.34-.39l-.54.32-1.05.08-.02-.27c5.47-.59,8.17-1.34,8.1-2.22.36-.03.54.14.58.49l1.6-.41-.05-.49-13.1.36c.02.17-.07.27-.25.29l-1.6-.14c-.41.03-.75.15-1.02.36l-.59-.22c-1.65.14-2.87.34-3.69.59-1.12-.08-2.36-.07-3.74.05l-2.94.25-1.36-.15c-.07-.87,1.61-5.13,5.08-12.77,1-2.58,1.92-4.2,2.8-4.81.19-.02.46.05.83.2l2.09-.71,1.07.17c1.8-.15,3.89-.66,6.29-1.55.59-.05,1.04-.02,1.36.12l1.6-.37,4.76-.41c2.02-.17,4.21-.61,6.59-1.34l-.05-.49c-.88.08-1.34-.07-1.38-.42-.05-.66-.7-.93-1.94-.83l-.05-.49,1.31-.37,3.43-.29-.05-.49c-.14.02-.83,0-2.12-.05l-.05-.53,1.33-.12c.36-.03.51-.2.48-.54-1.78.05-2.68-.03-2.7-.27-12.43.61-18.67.73-18.7.34-.19.02-.44.14-.78.34l-.32-.51c3.3-7,5.23-10.53,5.79-10.58.02.27-.12.71-.42,1.31l.02.22.53-.05c1.31-3.13,2.41-4.74,3.33-4.81,3.91-.34-.54-.59,7.81-1.9.34.15.58.22.75.2,3.28-.66,7.85-1.36,13.71-2.07l-.03-.49-3.13.29-.03-.49c.37-.03.68-.15.93-.36l.02.27c.17-.02.41-.14.71-.34.54-.05.95,0,1.24.15,1.09-.29,1.97-.46,2.62-.53l1.95-.19c.48-.31.7-.58.68-.83l-.02-.22c-.49.05-1.05.02-1.72-.1-.02-.27.12-.46.44-.54l3.64-.34,1.66-.42c.02.19.1.26.24.26.17-.02.41-.14.71-.34.08.02.19.02.27.03-.22.46-.48,1.12-.73,1.99l-.48.03c-.03-.32-.12-.61-.27-.87l-.24.02c-4.42,12.3-6.39,18.02-10.46,27.47-.75,2.41-1.38,3.75-1.92,4.04.02.27.19.41.48.37.1,1.19-.17,2.36-.83,3.52-1.89,5.44-3.14,8.41-3.79,8.95l.42,2.57c.02.27-.12.42-.41.46l-.44.03c-.07-.71-.32-1.05-.78-1l-.24.02c-.58.9-1.02,1.94-1.31,3.14l.44-.03c.59-.39.87-.85.82-1.38l.88-.08.51.19c-.41.65-.59,1.16-.56,1.55l.24.41-.58,1.36.02.22c.51-.05,1.07.12,1.66.48.41-.03.85-.22,1.34-.54.51-.05,2.41-.07,5.69-.07l1.65-.56c2-.02,2.33.03,4.06-.12l.71-.07.37-.25.02.22c1.82-.15,1.94-.03,3.36.14l.02.22-1,.08.03.42c.31-.03.58-.12.8-.31.25-.02.41.12.42.42-.41.03-.87.14-1.38.31l-.44-.15c-.7.19-.54.24-1.02.27l-.7-.14c.02.12-.05.2-.17.2.02.27.17.41.42.39l.71-.07,3.72-.32,1.41-.31c.02.12.07.19.19.17l.68-.25,1.27-.1c.99-.08.97-.15,3.11-.49-.02-.14.03-.19.14-.2l.02.19c3.48-.59,3.7-.63,4.26-.82l.05.1c.87-.2.37-.15.61-.32.02.15.07.22.15.22l.61-.05-.03-.46-1.24-.02-.02-.03c-.05.02-.09.02-.14.03h-.17v.03c-.83.17-.85.05-1.39.1l-3.11.17-.02-.22,1.73-.24.63-.05.36-.25.02.22c2.45-.2,3.31.41,14.63-2,.61-.05.56-.56.95-1.61-.2.02-.41-.03-.59-.14-.93.36-1.43.19-3.23.48-.15.02-.27-.12-.32-.39l-.02-.19,1.73.05c.32-.03.95-.08,1.89-.61,0,.15-.34.24-.14.22h0Zm-83.64,1.34l-.8.07c-.03-.32.39-1.55,1.27-3.64l.53-.05c.02.49-.31,1.7-1,3.62h0Zm.97-3.87l-.02-.22c-.02-.27.15-.46.53-.54l.02.22c.02.32-.15.51-.53.54h0Zm10.62,8.2l.02.22-1.33.12-.02-.22,1.33-.12h0Zm-1.6-.14c.02.27-.39.58-1.27.88l-1.63-.12-.53.05-.05-.49,3.48-.32h0Zm10.74-49.41l-.8.07-.02-.27c-.02-.27.14-.46.48-.54l.29-.02.54.22c.02.32-.14.51-.49.54h0Zm12.15-2.38l.25-.02.03.49-.73.07c-.02-.27.12-.46.44-.54h0Zm-3.06,1.07l-1.21-.14-.02-.22c1.58-.14,2.11-.31,3.07-.58.02.19.19.25.49.22l.03.49-.48.05c-.37.03-.7-.02-.97-.17-.29.19-.59.31-.93.34h0Zm1.51,4.4l-.02-.22,1.95-.19.02.22-1.95.19h0Zm2.09-1.7l-.02-.27.95-.08.02.27-.95.08h0Zm.22-3.33l-.25.02.22-.53,2.17-.2.02.27c-.56.05-1.29.2-2.16.44h0Zm1.1,4.69l-.03-.49.95-.08c.32-.03.49.12.51.46l-1.43.12h0Zm5.76-7.85l-1.22.34-.22.02c-.58.05-1.33.03-2.21-.05,1.58-.1,3.09-.22,3.65-.31h0Zm-1.31,5.44l.02.22-1.68.15-.02-.22,1.68-.15h0Zm2.75,1.31c-.02-.2-.34-.34-1-.41l-1.68.48-1.29.05c-.29-.2-.44-.34-.46-.44l1.5.08,3.36-.54,1.72.07.02.27c-.85.08-1.56.24-2.16.44h0Zm17.31-4.47c.2.02.34.02.39.02.59-.58,1.26-1.04,2.02-1.36-.61,2.68-1.56,4.67-2.87,5.96l-.95-.58c.8-2.02,1.27-3.36,1.41-4.04h0Zm-2.92,5.01l.24-.02c-.32.61-.61.93-.85.95l-.05-.65c.15,0,.37-.1.66-.29h0Zm-1.89,4.5c.46-1.83.9-2.87,1.31-3.14l.02.22c-.24,1.7-.61,2.6-1.1,2.67l.08,1.07c-.41.58-.59,1.02-.58,1.36l-.24.02-.14-1.48c.27-.03.49-.27.65-.71h0Zm-.73,2.45c.02.26-.15.85-.49,1.77l-.24.02-.05-.65c.32-.75.59-1.12.78-1.14h0Zm-13.71,39.78l-.02-.19.44-.03.05.65c-.24.02-.41-.12-.48-.42h0Zm19.59.51c-.02-.15-.08-.22-.24-.2l-1.1.1-.02-.22h.1l2.62-.22.02.22c-.76.03-1.22.15-1.38.32h0Zm-1.31-.54c.1.05.05.1,0,.14-.05-.02-.12-.07,0-.14h0Zm.14-3.06l-1.46.12-.02-.22,1.32-.12,1.16-.29c.02.14.08.19.24.17,1.38-.24,1.24-.31,1.9-.36.22-.02.36.12.37.39l-3.52.31h0Zm5.11-.44c-.82-.08-.87-.15-1.44-.1l-.02-.19,1.31-.12.02.19c-.14.02.36.05.14.22h0Zm.1-.24l-.02-.19.71-.07.02.19-.71.07h0Zm1.58-.14l-.02-.19c.12-.02.29-.1.51-.27.36-.03.54.2.58.48l-1.07-.02h0Zm2.02-.25l-.02-.22.87-.07.02.22-.87.07h0Zm1.21-.1c-.02-.25.08-.41.31-.44l.29.37c-.02-.12.03-.19.14-.2l.22.41-.95-.14h0Zm-12.82,5.54l-.03-.42-.14.02.03.42.14-.02h0Zm29.85-7.73c.14-.08.2-.17-.12-.22-.15.17.17.22-.17.24l.02.15s.12-.08.19-.14l-.19.15v.02l-.36.46.71-.25h.09l-.03-.42-.14.02h0Zm1.24.97l-.14.02.03.42,1-.08c-.02-.27-.68-.36-.9-.36h0Zm-1.55-.75l.02-.02v-.02s-.02.02-.02.03h0Z"/>
    <path class="cls-2" d="m175.34,102.72l.02.27.56-.05c-.02-.17.05-.44.17-.78l-.05-.49c-.24.02-.48.37-.7,1.05h0Zm-5.37-12.91l-.05-.49-.8.07.05.49.8-.07h0Zm-15.58,29.17c-.03-.46-1.46-2.24-4.28-5.38-.05-.58.92-1.44,2.9-2.58l5.67-4.94c1.27-1.61,2.02-4.23,2.24-7.86l-.07-.83c-.22-2.51-2.04-4.54-5.49-6.08-2.04-1.38-5.71-2.14-11.01-2.28-4.38.37-10.11,1.94-17.16,4.71-1.94,1.39-4.14,2.79-6.63,4.18l.03.42c.15-.02.39-.1.66-.29.29-.03.46.1.48.37l.42-.22.2-.02.02.19c.02.22-1.51,1.43-4.6,3.58l.24.44-.2.02-.51-.19c.02.15-.2.25-.63.29l.02.19.49.61c-.15.02-.39-.05-.71-.17-.71.07-1.41.44-2.11,1.15l.29-1.26c1.04-4.47,1.75-8.43,2.12-11.86l-.05-.22c-.71-.46-1.41-1.1-2.06-1.92.02-.53.02-.83,0-.9l-.05-.19-.2.05c-2.24,3.36-6.56,9.1-12.96,17.22-4.88,5.78-7.39,8.99-7.54,9.63-1.99,2.06-2.94,3.3-2.84,3.72-.53.34-.75.68-.66,1.05-.15.03-.26-.02-.29-.17-.85,1.38-2.11,2.26-3.79,2.65l-1.77.41c-.24.05-.36.22-.34.51l.05.22.66-.15.05.19-1.49.58-2.65.61-1.39.08c-.2.2,1.1-.02.59.1l-1.73.41c-1.05.24-1.63.15-1.73-.27l-.2.05c.03.19.05.32.02.44l-.1-.42-1.39.32c-.1-.65-1.99-2.99-5.64-7.03-.07-.78,1.22-1.92,3.86-3.4l7.44-6.54c1.66-2.14,2.65-5.57,2.97-10.29l-.1-1.1c-.29-3.33-2.7-6.01-7.24-8.09-2.68-1.82-7.51-2.79-14.47-2.94-5.78.49-13.32,2.55-22.59,6.13-2.55,1.85-5.45,3.69-8.71,5.5l.05.58c.22-.02.51-.14.87-.34.37-.03.58.14.61.48l.58-.32.29-.02.02.27c.02.27-2,1.85-6.1,4.74l.32.51-.29.02-.63-.22c.02.17-.27.29-.87.34l.03.31.68.75c-.22.02-.53-.05-.92-.19-1.33.12-2.62,1.07-3.89,2.87l.32.51c1.1-1.02,1.75-1.53,1.94-1.55l.07.83c-.19.02-.48.14-.87.34l.7,1.05c1.34-1.44,2.82-2.68,4.43-3.72.8.2,1.22.46,1.24.73l.61-.05c4.38-3.24,8.71-5.59,13.01-7.03l.05.58c-.8,1.19-1.34,1.8-1.63,1.83.03.41.17.76.42,1.07.07.73-1.89,5.66-5.84,14.76-8.99,21.17-16.53,36.83-22.66,46.95.02.2.14.48.36.82,1.51-.36,2.46-.73,2.87-1.09l.32-.03.05.58.56-.05.58-.32c.02.17.2.25.59.22l.05.58c.05.56-.27,1.41-.95,2.58-.61.7-1.27,2.16-1.97,4.38l.02.27.56-.05c2.45-2.73,4.3-5.42,5.57-8.03,7.13-2.09,12.57-4.14,16.34-6.17,3.79-.32,6.68-1.33,8.65-2.97l-.03-.31-1.43.42-.32.03-.03-.31c2.79-.42,4.71-1.04,5.78-1.89,5.42-4.18,9.51-7.13,12.28-8.88,5.69-4.18,9.39-8.26,11.08-12.21.31-.07.61-.14.95-.22.8-.03,1.24-.05,1.36-.08-.03-.15.03-.24.19-.27,1.27-.14.66.08,1.48-.1l2.14-.49.36-.09-.17.1c.24.03.49.02.78-.05l.15.63-9.73,15.47-2.16,2.7-1.05,3.53.2-.05,1.05-.44-.34,1.38.1.41.29.36c-.14.03-.19.12-.15.27l.05.22.44-.1c.65-.56.92-1.07.82-1.53.7.12,1.15.17,1.39.1l.05.22c-.42.1-.65.44-.68,1.02l.05.22.24-.05c3.53-3.86,12.2-17.05,19.14-26.01-.22-.97,3.4-2.31,10.87-4.04l.24-.05c.27,1.17-.31,4.01-1.73,8.51-.92,2.72-1.36,4.21-1.29,4.45-1.19,3.62-1.75,5.57-1.68,5.88l-2.65,8.68c-1.72,4.45-3.02,9.12-3.94,14.05.15-.03.39-.02.73.07l.37-.32c.03.15.14.2.29.17l-.15-.63,1.16-.03c.34-.08.63-.51.87-1.29-.05-1.17.19-1.8.71-1.94.71-2.79,1.16-4.18,1.31-4.23.66-2.77,1.15-4.35,1.48-4.74,1-3.6,1.73-5.45,2.21-5.57l.1.44-.73,1.89c-1.27,5.66-2.57,10.12-3.87,13.4l.37,1.63.24-.05c3.16-6.79,7.71-20.25,13.64-40.36.17-1.77,1.02-3.14,2.53-4.11l-.34-.36-.05-.19c.68-.15,1.16-.42,1.43-.8-.03-.15-.63-.37-1.78-.68l2.96-12.67c.65-.58,1.02-.88,1.14-.88l.05.65c-.15.02-.39.1-.66.29l.56.8c1.02-1.1,2.12-2.06,3.33-2.85.61.17.92.37.95.58l.44-.03c3.36-2.46,6.66-4.23,9.9-5.3l.03.42c-.59.9-1,1.36-1.22,1.38.03.31.12.58.27.82.05.56-1.41,4.3-4.4,11.23-6.83,16.05-12.55,27.93-17.21,35.64.02.15.12.36.31.63,1.14-.27,1.87-.56,2.16-.83l.2-.02.03.42.48-.03.42-.22c.02.12.17.17.46.15l.03.46c.03.41-.2,1.05-.73,1.94-.49.53-1,1.63-1.55,3.31l.02.22.44-.03c1.85-2.07,3.26-4.11,4.23-6.12,5.42-1.6,9.55-3.14,12.4-4.67,2.91-.25,5.1-1,6.59-2.26l-.02-.22-1.1.32-.24.02-.02-.22c2.11-.31,3.58-.78,4.38-1.41,4.11-3.16,7.22-5.42,9.33-6.74,6.56-4.77,9.61-9.36,9.24-13.76h0Zm-1.12.29l.15,1.72c-.2.42-.42.65-.63.66l-.25-2.92c.48.17.71.34.73.54h0Zm-128.62-13.83l-.29.02-.05-.53,1.17-.1.02.27c-.19.02-.48.12-.85.34h0Zm-5.72,57.26c-.68-.31-1.29-.42-1.82-.37l-.07-.83c-.03-.32.15-.54.56-.63.37-.03.59.24.63.78.99-1.21,1.53-1.82,1.63-1.83l.63.25c-.2,1.7-.73,2.57-1.56,2.63h0Zm61.17-63.99c-.29.03-.87-.87-1.7-2.65l-.05-.53c.54-.05,1.1.83,1.7,2.65l.05.53h0Zm-.82-6.34l-.24.56-8.31-3.47c5.54.19,8.39,1.16,8.54,2.91h0Zm-35.08,30.12l-1.17.1-.05-.53,1.17-.1.05.53h0Zm-.95-18.09l.29-.02.07.83c-.27.02-.63.42-1.07,1.21l-.05-.58c.53-.63.8-1.1.76-1.44h0Zm-2.46,5.81l.1,1.1-.29.02-.1-1.1.29-.02h0Zm-1.29,2.07l.56-.05c-.05.92-.31,1.41-.76,1.44l-.29.02c.36-.61.53-1.09.49-1.41h0Zm-.97,2.89l.32-.03.02.27-.53.88-.56.05-.02-.27c.56-.05.82-.34.76-.9h0Zm-.95,2.6l-.17,1.39-.29.02-.12-1.38.58-.03h0Zm-9.53,27.09c-.37,1.9-.78,2.87-1.21,2.9l-.02-.27c-.1-.93.31-1.82,1.22-2.63h0Zm-1.75,3.79l.02.27c.03.37-.14.59-.51.61l-.02-.27c-.03-.32.14-.53.51-.61h0Zm-.51,7.86l.88-.08.03.31c-.22.02-.51.14-.87.34l-.56.05c-.03-.29.15-.51.51-.61h0Zm25.14-7.76c-4.96,2.45-7.88,4.11-8.75,4.98-5.37,1.87-8.03,3.02-7.98,3.48-4.77,1.89-7.92,3.28-9.43,4.14-.36.03-.87-.1-1.55-.41-.08-.97.36-1.75,1.29-2.38.83-.07,1.63.05,2.4.37.88-.46,2.43-.97,4.62-1.51l-.05-.58-1.77.15c.22-.31,1.92-1.1,5.11-2.39l.88-.08.02.27c-1.51.14-2.34.58-2.53,1.38.03.36.24.51.61.48,1.14-.71,1.7-1.14,1.68-1.26,2.16-.41,8.12-3.53,17.89-9.36l.05.53c.02.25-.82.97-2.5,2.19h0Zm-14.98,4.93c1.43-.12,2.65-.7,3.67-1.7.41-.03.63.12.65.48-.7.07-2.04.65-3.99,1.77l-.29.02-.03-.56h0Zm24.17-18.57l-7.49,5.95c-5.57,3.65-8.56,5.49-9,5.52-8.87,4.87-14.39,7.41-16.53,7.59l-.32.03c.27-1,4.21-9.07,11.86-24.26,3.36-.29,8.66-1.85,15.88-4.71l1.77-.15c3.65-.32,6.39.39,8.19,2.09l.1,1.1c-1.34,3.89-2.84,6.17-4.45,6.83h0Zm-14.64-8.24l1.21-.1.02.27-1.21.1-.02-.27h0Zm16.94-2.87l.88-.08c.82.39,1.24.73,1.27,1.04l.02.27c-.78.07-1.51-.34-2.17-1.22h0Zm2.39-13.64c-.78.93-2.92,2.53-6.42,4.77-1.16.1-5.45,1.77-12.89,5.03-.37-.17-.76-.24-1.19-.2l-.05-.53c-.08-1.07.39-2.41,1.44-4.04.58-3.06,1.21-4.81,1.9-5.23l6.2-13.95c-.07-.87,1.26-1.53,3.97-1.99l.88-.08.07.8c2.67-.41,4.33-.65,4.98-.7,4.93-.42,7.49.58,7.7,2.97l.56-.05-.12-1.41.61-.05c1.44.8,2.22,1.77,2.33,2.9.07.78-.36,1.75-1.26,2.91-.37.03-.59-.24-.63-.78l-.61.05-.14,1.7c-2.5,3.74-4.31,5.66-5.44,5.76-1.02,1.41-1.65,2.11-1.9,2.12h0Zm3.81,9.77c-.51-.34-.92-.49-1.22-.48l-.07-.83.56-.05,1.24.73c.05.39-.12.59-.51.63h0Zm3.94,4.67c.54.22.87.46.93.68l-.27.07.02.02c-.05,0-.12.02-.17.03l-.41.32-.1-1.12h0Zm.37,2.34l-.05-.22.71-.17.05.22-.71.17h0Zm1.72,1.92c.73-.12,1.09-.17,2.45-.48l.05.22-2.58.59c.03-.12.07-.24.08-.34h0Zm2.51,1.07c-1.09.1-.85-.03-2.58.36l-.05-.22,2.17-.7,1.04-.24.1.41c-.48.1-.14.1-.68.39h0Zm2.29-.54c-.25.07-.46-.05-.58-.34l.66-.15c.29-.07.48.05.54.34l-.63.15h0Zm6.22-6.69l-.05-.22,1.07-.26.1.41-1.12.07h0Zm6.64,40.73c.07-.31.08-.53.05-.68l.24-.05c.29-.07.46.03.53.31l.05.22-.87.2h0Zm4.65-38.98l-.48-.08c-.76.31-1.41.53-1.94.65l-.44.1c-.25.07-.46-.03-.56-.31l3.11-.71,1.02-.48.34.39c-.49.1-.85.25-1.05.44h0Zm2.4-.76l-.05-.22c.15-.03.36-.15.58-.37l2.21-.51.05.22c-1.17.29-2.11.58-2.79.88h0Zm.34-4.47c-.15.03-.36.17-.61.37-.03-.15-.34-.15-.92-.02-.1-.42,1.53-1.02,4.91-1.8l.48-.1.1.41c-2.38.7-3.7,1.09-3.96,1.14h0Zm5.95-6.42c-.24,2.7-1.19,4.23-2.87,4.62l-.05-.22-1.5.58-.66.15c-.34.08-.65.07-.92-.02l-.14-.59c-.05-.22,2.11-3.21,6.49-8.95l.51.08c.19.78-.1,2.23-.87,4.35h0Zm10.51-9l-.2.02-.03-.42.88-.08.02.22c-.15.03-.37.12-.66.27h0Zm-4.33,43.5c-.51-.24-.97-.34-1.36-.31l-.05-.65c-.02-.22.12-.37.41-.46.29-.03.46.17.49.61.73-.93,1.14-1.41,1.22-1.41l.46.19c-.17,1.29-.56,1.97-1.17,2.02h0Zm46.44-48.58c-.22.02-.65-.66-1.31-2.04l-.03-.42c.42-.03.87.63,1.31,1.99l.03.48h0Zm-.61-4.86l-.2.44-6.29-2.63c4.2.14,6.37.87,6.49,2.19h0Zm-26.65,22.88l-.88.08-.03-.42.88-.08.03.42h0Zm-.73-13.74l.24-.02.05.65c-.22.02-.49.32-.82.92l-.03-.42c.39-.49.58-.87.56-1.12h0Zm-1.85,4.42l.07.83-.24.02-.07-.83.24-.02h0Zm-1,1.58l.44-.03c-.05.71-.24,1.09-.56,1.12l-.24.02c.25-.48.37-.85.36-1.1h0Zm-.71,2.17l.2-.02.02.22-.39.68-.44.03-.02-.22c.46-.03.66-.27.63-.7h0Zm-.71,1.97l-.15,1.09-.2.02-.08-1.07.44-.03h0Zm-7.25,20.6c-.29,1.43-.59,2.16-.92,2.19l-.02-.19c-.05-.71.25-1.39.93-2h0Zm-1.34,2.87l.02.19c.03.31-.1.48-.41.49l-.02-.22c-.02-.22.12-.37.41-.46h0Zm-.37,5.98l.68-.05.02.22c-.15.02-.39.1-.66.26l-.44.03c-.02-.24.12-.39.41-.46h0Zm19.08-5.89c-3.74,1.85-5.96,3.11-6.66,3.75-4.08,1.43-6.1,2.31-6.06,2.67-3.62,1.44-6,2.48-7.12,3.14-.27.02-.66-.08-1.17-.32-.07-.73.27-1.33.99-1.77.65-.05,1.26.03,1.82.27.68-.34,1.85-.71,3.52-1.14l-.03-.42-1.38.12c.17-.24,1.48-.85,3.91-1.83l.68-.05.02.19c-1.15.1-1.8.44-1.94,1.05.02.27.19.41.48.37.85-.56,1.26-.88,1.26-.99,1.63-.29,6.15-2.67,13.57-7.12l.03.42c0,.17-.63.71-1.9,1.65h0Zm-11.38,3.74c1.1-.1,2.04-.53,2.82-1.27.29-.02.46.1.48.37-.51.05-1.51.48-3.02,1.29l-.24.02-.03-.41h0Zm18.38-14.12l-5.66,4.55c-4.23,2.77-6.52,4.16-6.88,4.2-6.73,3.7-10.91,5.62-12.55,5.76l-.24.02c.2-.76,3.21-6.9,9.02-18.41,2.53-.22,6.54-1.43,12.04-3.6l1.38-.12c2.77-.24,4.84.31,6.2,1.61l.07.83c-1.04,2.92-2.16,4.64-3.38,5.16h0Zm-11.11-6.25l.88-.08.02.22-.88.08-.02-.22h0Zm12.86-2.19l.68-.05c.63.31.95.58.97.8l.02.19c-.59.05-1.15-.25-1.66-.93h0Zm1.78-10.35c-.59.71-2.21,1.94-4.84,3.64-.88.08-4.14,1.34-9.78,3.79-.27-.1-.58-.14-.9-.12l-.03-.42c-.07-.82.29-1.83,1.07-3.07.44-2.34.93-3.65,1.44-3.96l4.74-10.6c-.05-.63.95-1.14,2.99-1.53l.68-.05.05.65c2-.32,3.26-.51,3.77-.56,3.74-.32,5.69.42,5.84,2.26l.44-.03-.08-1.02.44-.03c1.09.59,1.66,1.31,1.73,2.16.05.61-.25,1.36-.9,2.23-.29.03-.46-.17-.49-.61l-.44.03-.14,1.27c-1.89,2.87-3.26,4.35-4.13,4.42-.76,1.04-1.24,1.56-1.46,1.58h0Zm1.99,7.07l-.05-.65.44-.03.95.58c.02.27-.12.42-.41.46-.41-.25-.71-.37-.93-.36h0Zm-79.07,41.26l-.44.1-.37.32c.07.27.24.37.53.31.29-.07.41-.24.34-.51l-.05-.22h0Zm-1.68-3.35l.05.22c.29-.07.41-.24.34-.51l-.05-.22c-.27.07-.39.24-.34.51h0Zm12.03-22.59l.32-.2c-.07,0-.12-.02-.17-.03-.12.03-.17.12-.15.24h0Zm-.07-5.86l.51-.12-.1-.44-.51.12.1.44h0Zm120.05,17.16l-1.16-.14-.2.44.02.22,6.88-.58-.03-.42-5.5.48h0Zm6.29-.53l.03.42h.07l-.03-.42h-.07Zm28.86-3.77l.03.42.75.14-.03-.42-.75-.14h0Zm-1.05.08c-5.16,1.16-5.81.95-6.9,1.04l.03.42.48-.03.25-.02-.07-.05.56-.22c5.11-.56,5.71-.36,5.66-.93l-.02-.2h0Zm-31-7.51l-.46-.15c-.37,1-.56,1.6-.54,1.77l.02.19c.36-.02.68-.63.99-1.8h0Zm-6.22-3.35l-.02-.22-.24.02-.42.27.24.41c.32-.03.48-.19.44-.48h0Zm13.5,13.96l-.03-.42-.14.02.03.42.14-.02h0Zm28.03-6.32l.32-.03c.19-.02.27-.17.25-.44l-.19-.41c-1.17.1-1.72.15-2.67.68l-.02-.22-1.41.14c-.03-.42-.15-.65-.34-.63l-.73.07c-.85.07-1.26.03-1.68.36-.02-.15-.07-.22-.15-.22l-.82.07-.48.27c-.02-.15-.07-.22-.15-.22l-.29.25-.02-.22-1.14-.08-.27.02.03.42.58.15.54-.03c.19.12.39.15.63.14l.48-.24.02.19c-2.67.66-2.65.54-4.48.85-.2-.14-.36-.2-.46-.19l-.03.03c-.2-.02-.32-.15-.34-.37l.95-.12c.07,0,.12.07.65.17.76-.37.8-.53,1.21-.56l-.03-.42c-2.62.51-1.56.17-4.84.46l-.15.02-.03-.42c4.21-.51,2.8-.22,4.25-.63.02.15.07.22.15.22.17-.17.36-.25.58-.29l.29-.02c1.48-.12,1.97.17,4.89-.65l.02.19.48-.24.44-.03c-.03-.42.61-.49.83-.51l-.03-.46c-5.13,1.04-6.47.75-7.9,1.16l-.02-.19c-1.34.24-1.39.14-1.73.15-.1.02-.25.1-.42.27-.02-.15-.07-.22-.17-.22-.05,0-.07.02-.08.02l-4.35.71c-.02-.12-.07-.19-.17-.17-2.26.48-1.65.56-4.67.83-.14.02-.32.08-.56.24-.02-.12-.09-.19-.24-.17l-1.85.15-1.24.31c-.02-.12-.08-.19-.24-.17-.7.19-1.31.31-1.8.34h-.03c-.31.03.15-.08-.08-.19l-.37.22c-.54.05-.25-.03-2.12-.02-3.28.41-2.92.46-3.28.48l-1.22-.08c.02.12-.05.2-.19.2-1.39-.19-2.11-.41-2.12-.66.19-1.32.51-2,.97-2.04l.24-.02-.2.44.24-.02c.44-.24.65-.46.63-.66l-.03-.46-.44.03-.03-.42c-.03-.32.02-.61.14-.85l1-1.61.03.42.48-.03-.03-.42-.27-.39c.36-.31.63-.48.85-.49l-.02-.22-.65.05-.05-.65c1.29-2.68,1.9-4.25,1.87-4.69l.46.19c.29-.02.42-.19.41-.49l-.44.03-.02-.19c-.03-.32.03-.63.17-.9.7-.73,1.02-1.46.95-2.23.14-.02.2.05.22.2.59-.34,1.05-1.24,1.39-2.73,1.05-1.9,2.55-5.71,4.5-11.4,3.74-10.06,3.58-11.13,4.11-13.5l-.44.03c.03.31-.03.59-.17.87-.31-.12-.54-.19-.71-.17l-.02-.19c-.07-.87.29-1.9,1.1-3.13l.2-.02.37,1.46.44-.03c-.02-.1.1-.68.34-1.75-.02-.22-.19-.36-.53-.37l-.42.27c-.03-.31-.02-1.1.03-2.38l-.22.02c-.37-.37-.56-.68-.58-.93l-2.43.24c-.02-.17-.1-.42-.27-.75-.02-.22.53-.44,1.65-.66l.49.19.46-.27c.02.15.1.22.27.2l.46-.27c.02.15.1.22.27.2l.22-.02-.03-.49c-.34.03-1.24.03-2.67-.02l-.46.31-.02-.27c-11.4.93-17.87,1.46-19.42,1.61-.2.02-1,0-2.41-.03.02.19-.15.29-.49.32l-.49-.22-1.66.42c-.39.03-1.05.02-1.97-.09-.25.2-.56.32-.93.36-.2.02,2.43-.14,4.88-.31-.25.2-.65.32-1.19.37-.37.03-.7-.02-.97-.17-.37.17-1.58.44-3.6.85l-.49-.19-7.95,1.22c-.31-.15-.66-.2-1.07-.17-.42.03-1.14.19-2.12.46l-3.84,1.6.29.48c.19-.02.46-.12.78-.31l1.36.12-.17,1.27c-1.26.56-1.99,1.39-2.19,2.45-1.89.83-2.82,1.43-2.82,1.78l.02.22.29-.02.51-.27.59.71.08.99c.03.31-3.14,6.98-9.5,20.03-5.5,12.57-8.39,19.45-8.66,20.69-1.89.53-2.97,1.29-3.3,2.31.03.32.59.54,1.68.63l.05.49-.49.82.08.99c.05.51,1.43.9,4.13,1.17-.02-.17.07-.27.25-.29.05.61-.12,1.8-.51,3.57l.29-.02c1.12-1.53,1.65-2.58,1.6-3.16l.24-.02c.27-.02.56.29.9.95-.34.14-1.53,2.84-3.57,8.12l.29.48.29-.02c2.5-6.32,4.06-9.82,4.71-10.48,3.28-.29,8.95-.87,17-1.73l.51-.31c.02.17.12.26.31.24l.53-.05.51-.31c.02.17.12.25.31.24l6.1-.53c1.61-.14,2.38-.63,2.31-1.46-.02-.22.93-.48,2.85-.75.19-.02.46.03.83.15-.02-.15.95-.31,2.89-.48.05-1.02.37-1.56.95-1.61l-.05-.49c-.54.05-1.16.19-1.87.42-1.27-.07-2.09-.17-2.43-.29-.34.19-.59.29-.78.31l-4.25.14-.51.27c-.02-.15-.12-.22-.31-.2l-.24.02-.54.27c-.02-.15-.46-.27-1.34-.39l-.54.32-1.05.08-.02-.27c5.47-.59,8.17-1.34,8.1-2.22.36-.03.54.14.58.49l1.6-.41-.05-.49-13.1.36c.02.17-.07.27-.25.29l-1.6-.14c-.41.03-.75.15-1.02.36l-.59-.22c-1.65.14-2.87.34-3.69.59-1.12-.08-2.36-.07-3.74.05l-2.94.25-1.36-.15c-.07-.87,1.61-5.13,5.08-12.77,1-2.58,1.92-4.2,2.8-4.81.19-.02.46.05.83.2l2.09-.71,1.07.17c1.8-.15,3.89-.66,6.29-1.55.59-.05,1.04-.02,1.36.12l1.6-.37,4.76-.41c2.02-.17,4.21-.61,6.59-1.34l-.05-.49c-.88.08-1.34-.07-1.38-.42-.05-.66-.7-.93-1.94-.83l-.05-.49,1.31-.37,3.43-.29-.05-.49c-.14.02-.83,0-2.12-.05l-.05-.53,1.32-.12c.36-.03.51-.2.48-.54-1.78.05-2.68-.03-2.7-.27-12.43.61-18.67.73-18.7.34-.19.02-.44.14-.78.34l-.32-.51c3.3-7,5.23-10.53,5.79-10.58.02.27-.12.71-.41,1.31l.02.22.53-.05c1.31-3.13,2.41-4.74,3.33-4.81,3.91-.34-.54-.59,7.81-1.9.34.15.58.22.75.2,3.28-.66,7.85-1.36,13.71-2.07l-.03-.49-3.13.29-.03-.49c.37-.03.68-.15.93-.36l.02.27c.17-.02.41-.14.71-.34.54-.05.95,0,1.24.15,1.09-.29,1.97-.46,2.62-.53l1.95-.19c.48-.31.7-.58.68-.83l-.02-.22c-.49.05-1.05.02-1.72-.1-.02-.27.12-.46.44-.54l3.64-.34,1.66-.42c.02.19.1.25.24.25.17-.02.41-.14.71-.34.09.02.19.02.27.03-.22.46-.48,1.12-.73,1.99l-.48.03c-.03-.32-.12-.61-.27-.87l-.24.02c-4.42,12.3-6.39,18.02-10.46,27.47-.75,2.41-1.38,3.75-1.92,4.04.02.27.19.41.48.37.1,1.19-.17,2.36-.83,3.52-1.89,5.44-3.14,8.41-3.79,8.95l.42,2.57c.02.27-.12.42-.41.46l-.44.03c-.07-.71-.32-1.05-.78-1l-.24.02c-.58.9-1.02,1.94-1.31,3.14l.44-.03c.59-.39.87-.85.82-1.38l.88-.08.51.19c-.41.65-.59,1.16-.56,1.55l.24.41-.58,1.36.02.22c.51-.05,1.07.12,1.66.48.41-.03.85-.22,1.34-.54.51-.05,2.41-.07,5.69-.07l1.65-.56c2-.02,2.33.03,4.06-.12l.71-.07.37-.25.02.22c1.82-.15,1.94-.03,3.36.14l.02.22-1,.08.03.42c.31-.03.58-.12.8-.31.25-.02.41.12.42.42-.41.03-.87.14-1.38.31l-.44-.15c-.7.19-.54.24-1.02.27l-.7-.14c.02.12-.05.2-.17.2.02.27.17.41.42.39l.71-.07,3.72-.32,1.41-.31c.02.12.07.19.19.17l.68-.25,1.27-.1c.99-.08.97-.15,3.11-.49-.02-.14.03-.19.14-.2l.02.19c3.48-.59,3.7-.63,4.26-.82l.05.1c.87-.2.37-.15.61-.32.02.15.07.22.15.22l.61-.05-.03-.46-1.24-.02-.02-.03c-.05.02-.08.02-.14.03h-.17v.03c-.83.17-.85.05-1.39.1l-3.11.17-.02-.22,1.73-.24.63-.05.36-.25.02.22c2.45-.2,3.31.41,14.63-2,.61-.05.56-.56.95-1.61-.2.02-.41-.03-.59-.14-.93.36-1.43.19-3.23.48-.15.02-.27-.12-.32-.39l-.02-.19,1.73.05c.32-.03.95-.08,1.89-.61,0,.15-.36.24-.15.22h0Zm-83.64,1.34l-.8.07c-.03-.32.39-1.55,1.27-3.64l.53-.05c.02.49-.31,1.7-1,3.62h0Zm.97-3.87l-.02-.22c-.02-.27.15-.46.53-.54l.02.22c.02.32-.15.51-.53.54h0Zm10.62,8.2l.02.22-1.32.12-.02-.22,1.32-.12h0Zm-1.6-.14c.02.27-.39.58-1.27.88l-1.63-.12-.53.05-.05-.49,3.48-.32h0Zm10.74-49.41l-.8.07-.02-.27c-.02-.27.14-.46.48-.54l.29-.02.54.22c.02.32-.14.51-.49.54h0Zm12.15-2.38l.25-.02.03.49-.73.07c-.02-.27.12-.46.44-.54h0Zm-3.06,1.07l-1.21-.14-.02-.22c1.58-.14,2.11-.31,3.07-.58.02.19.19.25.49.22l.03.49-.48.05c-.37.03-.7-.02-.97-.17-.29.19-.59.31-.93.34h0Zm1.51,4.4l-.02-.22,1.95-.19.02.22-1.95.19h0Zm2.09-1.7l-.02-.27.95-.08.02.27-.95.08h0Zm.22-3.33l-.26.02.22-.53,2.17-.2.02.27c-.56.05-1.29.2-2.16.44h0Zm1.1,4.69l-.03-.49.95-.08c.32-.03.49.12.51.46l-1.43.12h0Zm5.76-7.85l-1.22.34-.22.02c-.58.05-1.32.03-2.21-.05,1.58-.1,3.09-.22,3.65-.31h0Zm-1.31,5.44l.02.22-1.68.15-.02-.22,1.68-.15h0Zm2.75,1.31c-.02-.2-.34-.34-1-.41l-1.68.48-1.29.05c-.29-.2-.44-.34-.46-.44l1.5.08,3.36-.54,1.72.07.02.27c-.85.08-1.56.24-2.16.44h0Zm17.31-4.47c.2.02.34.02.39.02.59-.58,1.26-1.04,2.02-1.36-.61,2.68-1.56,4.67-2.87,5.96l-.95-.58c.8-2.02,1.27-3.36,1.41-4.04h0Zm-2.92,5.01l.24-.02c-.32.61-.61.93-.85.95l-.05-.65c.15,0,.37-.1.66-.29h0Zm-1.89,4.5c.46-1.83.9-2.87,1.31-3.14l.02.22c-.24,1.7-.61,2.6-1.1,2.67l.08,1.07c-.41.58-.59,1.02-.58,1.36l-.24.02-.14-1.48c.27-.03.49-.27.65-.71h0Zm-.73,2.45c.02.25-.15.85-.49,1.77l-.24.02-.05-.65c.32-.75.59-1.12.78-1.14h0Zm-13.71,39.78l-.02-.19.44-.03.05.65c-.24.02-.41-.12-.48-.42h0Zm19.59.51c-.02-.15-.08-.22-.24-.2l-1.1.1-.02-.22h.1l2.62-.22.02.22c-.76.03-1.22.15-1.38.32h0Zm-1.31-.54c.1.05.05.1,0,.14-.05-.02-.12-.07,0-.14h0Zm.14-3.06l-1.46.12-.02-.22,1.33-.12,1.15-.29c.02.14.08.19.24.17,1.38-.24,1.24-.31,1.9-.36.22-.02.36.12.37.39l-3.52.31h0Zm5.11-.44c-.82-.08-.87-.15-1.44-.1l-.02-.19,1.31-.12.02.19c-.14.02.36.05.14.22h0Zm.1-.24l-.02-.19.71-.07.02.19-.71.07h0Zm1.58-.14l-.02-.19c.12-.02.29-.1.51-.27.36-.03.54.2.58.48l-1.07-.02h0Zm2.02-.25l-.02-.22.87-.07.02.22-.87.07h0Zm1.21-.1c-.02-.25.08-.41.31-.44l.29.37c-.02-.12.03-.19.14-.2l.22.41-.95-.14h0Zm16.71-1.97l.02-.02v-.02s-.02.02-.02.03h0Zm.31-.22c.14-.08.2-.17-.12-.22-.15.17.17.22-.17.24l.02.15s.12-.08.19-.14l-.19.15v.02l-.36.46.71-.25h.08l-.03-.42-.14.02h0Zm1.24.97l-.14.02.03.42,1-.08c-.02-.27-.68-.36-.9-.36h0Z"/>
  </g>
</svg>