<?xml version="1.0" encoding="UTF-8"?><svg id="a" xmlns="http://www.w3.org/2000/svg" viewBox="0 0 128 128"><defs><style>.b,.c,.d{fill-rule:evenodd;}.b,.e{fill:#0372b4;}.c{fill:#fff;}.d{fill:#012b42;}</style></defs><rect class="e" x="0" y="0" width="128" height="128" rx="25" ry="25" transform="translate(128 0) rotate(90)"/><path class="c" d="m63.99,36.95v15.59l-26.93,15.73s0,17.37,0,22.65c1.78-1.02,26.9-15.49,26.9-15.49v15.5l-40.3,23.06-.08-53.93,40.4-23.11"/><polygon class="c" points="104.41 14 104.41 60.1 91.05 52.43 91.02 37.23 77.44 44.68 63.99 36.95 104.41 14"/><polygon class="d" points="63.97 90.94 63.97 75.43 90.95 90.76 90.95 68.18 63.99 52.54 63.99 36.95 104.41 60.1 104.41 113.96 63.97 90.94"/><path class="d" d="m50.45,44.64l-13.39-7.66v15.44l-13.48,7.64.05-46.06s27.5,15.55,40.36,22.94l-13.54,7.69Z"/><polygon class="d" points="44.23 64.07 63.97 75.43 50.49 83.19 37.07 75.49 37.06 68.28 44.23 64.07"/><path class="b" d="m63.97,75.52l19.89-11.45,7.1,4.11s0,5.16,0,7.38c-4.47,2.55-13.31,7.66-13.31,7.66l-13.67-7.7Z"/></svg>