<?xml version="1.0" encoding="UTF-8"?><svg id="a" xmlns="http://www.w3.org/2000/svg" viewBox="0 0 128 128"><defs><style>.b{fill:#fff;}.c{fill:#2f3a3e;}.d{fill:#3ab14a;}</style></defs><rect class="c" x="0" y="0" width="128" height="128" rx="25" ry="25" transform="translate(128 0) rotate(90)"/><path class="c" d="m101.48,34.38l-31.5-18.7c-3.74-2.23-8.41-2.23-12.15,0l-31.5,18.7c-3.79,2.29-6.1,6.4-6.07,10.82v37.4c-.02,4.42,2.29,8.53,6.07,10.82l31.5,18.69c3.74,2.23,8.41,2.23,12.15,0l31.5-18.69c3.79-2.28,6.1-6.4,6.08-10.82v-37.39c.02-4.43-2.28-8.54-6.07-10.82Z"/><path class="b" d="m101.66,34.42l-31.57-18.74c-3.75-2.24-8.43-2.24-12.18,0l-31.57,18.74c-3.8,2.29-6.11,6.41-6.09,10.85v37.48c-.02,4.43,2.29,8.55,6.09,10.84l31.57,18.74c3.75,2.24,8.43,2.24,12.18,0l31.57-18.74c3.8-2.29,6.12-6.41,6.09-10.85v-37.47c.02-4.44-2.29-8.56-6.09-10.85Zm-42.65,75.99l-31.57-18.74c-3.12-1.89-5.02-5.28-5.01-8.93v-37.48c-.01-3.65,1.89-7.04,5.01-8.93l31.57-18.74c3.07-1.83,6.9-1.83,9.97,0l31.54,18.74c2.6,1.57,4.37,4.22,4.85,7.22-1.05-2.23-3.41-2.84-6.16-1.26l-29.84,18.48c-3.72,2.17-6.47,4.61-6.47,9.1v36.8c0,2.69,1.08,4.42,2.75,4.94-.55.1-1.1.15-1.66.16-1.76,0-3.48-.48-4.99-1.37Z"/><path class="d" d="m93.3,86.29l-7.85,4.69c-.21.08-.35.28-.36.51v2.06c0,.25.17.35.38.23l7.97-4.84c.2-.15.29-.39.24-.63v-1.81c0-.23-.19-.33-.38-.21Z"/><path class="c" d="m76.6,69.01c.25-.13.46,0,.47.36l.03,2.74c.94-.43,2-.56,3.01-.37.2.05.28.32.2.63l-.6,2.4c-.05.18-.14.35-.27.48-.05.05-.1.08-.16.11-.07.04-.15.05-.23.04-.99-.22-2.03-.05-2.91.47-1.28.58-2.11,1.83-2.15,3.24,0,1.26.63,1.61,2.83,1.65,2.91.05,4.17,1.32,4.2,4.25-.07,3.06-1.48,5.94-3.86,7.87l.05,2.69c0,.33-.18.64-.46.82l-1.59.91c-.25.13-.46,0-.47-.35v-2.64c-1.36.57-2.74.7-3.63.35-.16-.06-.24-.31-.17-.59l.57-2.43c.04-.19.14-.37.28-.5.04-.04.1-.08.15-.11.08-.04.18-.04.26,0,1.12.3,2.32.15,3.34-.42,1.46-.7,2.41-2.16,2.47-3.78,0-1.36-.75-1.93-2.52-1.94-2.29,0-4.42-.44-4.46-3.78.05-2.92,1.41-5.66,3.7-7.48l-.11-2.75c0-.34.17-.65.46-.83l1.57-1Z"/></svg>