<?xml version="1.0" encoding="UTF-8"?>
<svg id="Ebene_1" data-name="Ebene 1" xmlns="http://www.w3.org/2000/svg" viewBox="0 0 256 256">
  <defs>
    <style>
      .cls-1 {
        fill: #fff;
      }

      .cls-2 {
        fill: #3ab14a;
      }

      .cls-3 {
        fill: #27282c;
      }
    </style>
  </defs>
  <g id="Ebene_2" data-name="Ebene 2">
    <path class="cls-3" d="m256,221c0,19.3-15.7,35-35,35H35c-19.3,0-35-15.7-35-35V35C0,15.7,15.7,0,35,0h186c19.3,0,35,15.7,35,35"/>
  </g>
  <g>
    <path class="cls-1" d="m203.32,68.84l-63.14-37.48c-7.5-4.48-16.86-4.48-24.36,0l-63.15,37.48c-7.6,4.58-12.22,12.82-12.17,21.69v74.96c-.04,8.87,4.58,17.1,12.17,21.68l63.14,37.47c7.5,4.47,16.86,4.47,24.36,0l63.14-37.47c7.6-4.58,12.23-12.82,12.19-21.69v-74.94c.05-8.87-4.58-17.11-12.17-21.69Zm-85.3,151.97l-63.14-37.47c-6.24-3.78-10.04-10.56-10.01-17.85v-74.96c-.03-7.3,3.77-14.07,10.01-17.85l63.14-37.48c6.14-3.67,13.8-3.67,19.95,0l63.09,37.48c5.2,3.15,8.75,8.43,9.7,14.44-2.1-4.46-6.81-5.69-12.31-2.53l-59.68,36.97c-7.45,4.34-12.93,9.23-12.95,18.2v73.6c0,5.37,2.16,8.85,5.5,9.87-1.09.2-2.2.31-3.31.32-3.51,0-6.96-.95-9.97-2.74Z"/>
    <path class="cls-2" d="m186.6,172.58l-15.69,9.39c-.42.17-.7.57-.72,1.02v4.12c0,.5.34.71.76.47l15.93-9.69c.39-.29.58-.78.48-1.26v-3.62c-.01-.47-.38-.67-.76-.43Z"/>
    <path class="cls-2" d="m153.21,138.02c.5-.25.92,0,.93.72l.05,5.47c1.89-.86,3.99-1.11,6.03-.73.39.1.56.63.4,1.26l-1.2,4.81c-.09.36-.28.69-.54.96-.09.09-.2.17-.32.23-.14.08-.31.1-.47.08-1.99-.44-4.07-.11-5.82.93-2.56,1.15-4.23,3.67-4.3,6.47,0,2.52,1.26,3.22,5.66,3.29,5.82.1,8.34,2.64,8.4,8.5-.14,6.12-2.96,11.88-7.72,15.73l.1,5.37c0,.67-.36,1.28-.92,1.64l-3.18,1.83c-.5.25-.92,0-.93-.71v-5.29c-2.72,1.14-5.49,1.4-7.25.69-.33-.13-.48-.62-.34-1.19l1.15-4.86c.09-.38.28-.73.57-1.01.09-.09.19-.16.3-.21.16-.07.35-.07.52,0,2.25.61,4.65.31,6.67-.85,2.92-1.41,4.82-4.33,4.93-7.57,0-2.72-1.5-3.86-5.05-3.89-4.58,0-8.83-.88-8.92-7.57.11-5.84,2.82-11.33,7.39-14.96l-.23-5.5c0-.68.35-1.31.92-1.67l3.14-2.01Z"/>
  </g>
</svg>