<?xml version="1.0" encoding="UTF-8"?><svg id="a" xmlns="http://www.w3.org/2000/svg" xmlns:xlink="http://www.w3.org/1999/xlink" viewBox="0 0 128 128"><defs><style>.c{fill:#fff;}.d{fill:url(#b);}</style><linearGradient id="b" x1="0" y1="64" x2="128" y2="64" gradientTransform="translate(0 128) rotate(-90)" gradientUnits="userSpaceOnUse"><stop offset=".18" stop-color="#0052cc"/><stop offset="1" stop-color="#2684ff"/></linearGradient></defs><rect class="d" x="0" y="0" width="128" height="128" rx="25" ry="25" transform="translate(128 0) rotate(90)"/><path class="c" d="m21.92,23.54c-.85-.01-1.67.36-2.22,1-.56.65-.8,1.5-.66,2.34l12.24,74.31c.31,1.88,1.93,3.26,3.84,3.27h58.72c1.43.02,2.66-1.01,2.88-2.42l12.24-75.15c.14-.84-.11-1.7-.66-2.34-.56-.65-1.37-1.01-2.22-1H21.92Zm51.54,53.71h-18.74l-5.08-26.51h28.36l-4.54,26.51Z"/></svg>