<?xml version="1.0" encoding="UTF-8"?>
<svg id="Ebene_1" data-name="Ebene 1" xmlns="http://www.w3.org/2000/svg" viewBox="0 0 256 256">
  <defs>
    <style>
      .cls-1 {
        fill: #fff;
      }

      .cls-2 {
        fill: #265787;
      }

      .cls-3 {
        fill: #ea7600;
      }

      .cls-4 {
        fill: #27282c;
      }
    </style>
  </defs>
  <g id="Ebene_2" data-name="Ebene 2">
    <path class="cls-4" d="m256,221c0,19.3-15.7,35-35,35H35c-19.3,0-35-15.7-35-35V35C0,15.7,15.7,0,35,0h186c19.3,0,35,15.7,35,35"/>
  </g>
  <g>
    <path class="cls-1" d="m104.31,137.64c.8-14.27,7.79-26.84,18.33-35.75,10.34-8.75,24.25-14.1,39.44-14.1s29.08,5.35,39.43,14.1c10.53,8.91,17.52,21.48,18.33,35.74.8,14.66-5.09,28.28-15.43,38.38-10.54,10.27-25.54,16.72-42.33,16.72s-31.82-6.44-42.35-16.72c-10.35-10.1-16.22-23.72-15.42-38.37Z"/>
    <path class="cls-2" d="m132.44,138.91c.41-7.32,4-13.77,9.41-18.35,5.3-4.49,12.44-7.24,20.24-7.24s14.92,2.75,20.23,7.24c5.41,4.57,8.99,11.02,9.41,18.34.41,7.52-2.61,14.51-7.92,19.69-5.41,5.27-13.1,8.58-21.72,8.58s-16.32-3.31-21.73-8.58c-5.31-5.18-8.32-12.17-7.91-19.69Z"/>
    <path class="cls-3" d="m85.38,153.95c.05,2.87.97,8.45,2.34,12.81,2.89,9.22,7.78,17.76,14.6,25.28,6.99,7.73,15.6,13.94,25.55,18.35,10.45,4.63,21.78,6.99,33.55,6.97,11.75-.02,23.07-2.42,33.53-7.09,9.95-4.45,18.55-10.69,25.53-18.42,6.81-7.55,11.7-16.1,14.59-25.32,1.46-4.66,2.37-9.39,2.74-14.14.36-4.68.21-9.36-.45-14.04-1.3-9.12-4.45-17.68-9.31-25.47-4.44-7.17-10.17-13.44-16.98-18.72h.02s-68.73-52.78-68.73-52.78c-.06-.05-.11-.1-.18-.14-4.51-3.46-12.09-3.45-17.05.02-5.01,3.51-5.59,9.31-1.13,12.97l-.02.02,28.66,23.31-87.37.09h-.12c-7.22,0-14.16,4.75-15.54,10.73-1.41,6.1,3.49,11.16,11,11.19v.03s44.27-.09,44.27-.09l-79.02,60.65c-.1.07-.21.15-.3.23-7.45,5.71-9.86,15.2-5.17,21.21,4.77,6.11,14.9,6.12,22.43.03l43.13-35.3s-.63,4.77-.58,7.62Zm110.82,15.96c-8.89,9.05-21.33,14.19-34.79,14.21-13.48.02-25.92-5.06-34.81-14.1-4.34-4.4-7.53-9.47-9.5-14.87-1.93-5.3-2.68-10.93-2.18-16.62.47-5.55,2.12-10.85,4.76-15.64,2.59-4.71,6.16-8.97,10.57-12.57,8.64-7.04,19.63-10.85,31.14-10.87,11.51-.02,22.5,3.76,31.15,10.78,4.4,3.59,7.97,7.83,10.56,12.53,2.65,4.79,4.29,10.07,4.78,15.63.49,5.67-.26,11.3-2.19,16.6-1.97,5.41-5.15,10.48-9.49,14.9Z"/>
  </g>
</svg>