<?xml version="1.0" encoding="UTF-8" standalone="no"?>
<!DOCTYPE svg PUBLIC "-//W3C//DTD SVG 1.1//EN" "http://www.w3.org/Graphics/SVG/1.1/DTD/svg11.dtd">
<!-- Created with Vectornator (http://vectornator.io/) -->
<svg height="100%" stroke-miterlimit="10" style="fill-rule:nonzero;clip-rule:evenodd;stroke-linecap:round;stroke-linejoin:round;" version="1.1" viewBox="0 0 512 512" width="100%" xml:space="preserve" xmlns="http://www.w3.org/2000/svg" xmlns:vectornator="http://vectornator.io" xmlns:xlink="http://www.w3.org/1999/xlink">
<defs/>
<g id="Ebene-1" vectornator:layerName="Ebene 1">
<path d="M2.84217e-14 95C2.84217e-14 42.5329 42.5329 0 95 0L417 0C469.467 0 512 42.5329 512 95L512 417C512 469.467 469.467 512 417 512L95 512C42.5329 512 2.84217e-14 469.467 2.84217e-14 417L2.84217e-14 95Z" fill="#242628" fill-rule="nonzero" opacity="1" stroke="none" vectornator:layerName="Rechteck 1"/>
</g>
<g id="Ebene-2" vectornator:layerName="Ebene 2">
<g opacity="1" vectornator:layerName="blender-2.svg">
<path d="M380.022 332.215C363.862 348.703 341.257 358.026 316.771 358.059C292.269 358.108 269.648 348.85 253.488 332.412C245.588 324.397 239.797 315.204 236.199 305.374C232.682 295.724 231.341 285.403 232.241 275.18C233.108 265.202 236.052 255.503 240.91 246.736C245.637 238.165 252.13 230.428 260.145 223.886C275.847 211.079 295.835 204.16 316.771 204.127C337.708 204.094 357.679 210.98 373.398 223.722C381.396 230.248 387.89 237.952 392.6 246.507C397.458 255.274 400.419 264.957 401.286 274.935C402.185 285.174 400.828 295.478 397.311 305.145C393.713 314.959 387.906 324.168 380.022 332.215Z" fill="#ffffff" fill-rule="nonzero" opacity="1" stroke="none" vectornator:layerName="path"/>
<path d="M264.529 276.227C265.265 262.896 271.807 251.136 281.654 242.81C291.321 234.616 304.34 229.627 318.522 229.627C332.719 229.643 345.722 234.632 355.389 242.81C365.236 251.152 371.778 262.896 372.531 276.227C373.283 289.934 367.771 302.675 358.104 312.113C348.258 321.714 334.224 327.75 318.522 327.75C302.819 327.75 288.769 321.714 278.922 312.113C269.272 302.675 263.776 289.934 264.529 276.227Z" fill="#005385" fill-rule="nonzero" opacity="1" stroke="none" vectornator:layerName="path"/>
<path d="M178.509 303.215C178.608 308.416 180.276 318.558 182.762 326.49C188.013 343.256 196.91 358.778 209.309 372.452C222.034 386.503 237.671 397.789 255.761 405.787C274.784 414.211 295.377 418.512 316.755 418.463C338.133 418.431 358.726 414.063 377.732 405.574C395.806 397.478 411.443 386.159 424.152 372.076C436.534 358.337 445.416 342.798 450.666 326.032C453.283 317.674 454.968 309.054 455.655 300.336C456.309 291.831 456.031 283.26 454.837 274.804C452.482 258.218 446.741 242.663 437.908 228.482C429.812 215.462 419.409 204.045 407.027 194.428L407.043 194.411L282.112 98.4963C282.014 98.4146 281.899 98.3164 281.801 98.2346C273.574 91.9537 259.801 91.9701 250.789 98.2837C241.662 104.663 240.632 115.213 248.728 121.87L248.695 121.886L300.807 164.282L141.936 164.446L141.723 164.446C128.605 164.462 115.978 173.082 113.476 183.959C110.924 195.049 119.838 204.242 133.496 204.307L133.48 204.356L214.003 204.192L70.3107 314.485C70.1308 314.632 69.9345 314.763 69.7709 314.894C56.2277 325.264 51.8442 342.536 60.3659 353.462C69.0349 364.569 87.4524 364.585 101.159 353.511L179.573 289.345C179.573 289.345 178.428 298.014 178.509 303.215ZM380.022 332.215C363.862 348.703 341.257 358.026 316.771 358.059C292.269 358.108 269.648 348.85 253.488 332.412C245.588 324.397 239.797 315.204 236.199 305.374C232.682 295.724 231.341 285.403 232.241 275.18C233.108 265.202 236.052 255.503 240.91 246.736C245.637 238.165 252.13 230.428 260.145 223.886C275.847 211.079 295.835 204.16 316.771 204.127C337.708 204.094 357.679 210.98 373.398 223.722C381.396 230.248 387.89 237.952 392.6 246.507C397.458 255.274 400.419 264.957 401.286 274.935C402.185 285.174 400.828 295.478 397.311 305.145C393.713 314.959 387.906 324.168 380.022 332.215Z" fill="#ff7021" fill-rule="nonzero" opacity="1" stroke="none" vectornator:layerName="path"/>
</g>
</g>
</svg>
