<?xml version="1.0" encoding="UTF-8"?>
<svg id="Ebene_1" data-name="Ebene 1" xmlns="http://www.w3.org/2000/svg" viewBox="0 0 256 256">
  <defs>
    <style>
      .cls-1 {
        fill: #fff;
      }

      .cls-2 {
        fill: #563d7c;
      }
    </style>
  </defs>
  <g id="Ebene_2" data-name="Ebene 2">
    <path class="cls-2" d="m256,221c0,19.3-15.7,35-35,35H35c-19.3,0-35-15.7-35-35V35C0,15.7,15.7,0,35,0h186c19.3,0,35,15.7,35,35"/>
  </g>
  <path class="cls-1" d="m96.19,112.77v-37.41h32.94c3.13,0,6.16.26,9.08.78s5.5,1.45,7.73,2.8c2.25,1.35,4.03,3.21,5.38,5.6s2.02,5.46,2.02,9.18c0,6.72-2.02,11.57-6.05,14.56-4.03,2.99-9.18,4.48-15.46,4.48h-35.63ZM61.01,48.03v159.97h77.52c7.17,0,14.15-.9,20.95-2.7,6.79-1.8,12.84-4.56,18.15-8.3,5.3-3.74,9.53-8.55,12.66-14.45s4.7-12.88,4.7-20.95c0-10.01-2.43-18.56-7.28-25.66s-12.21-12.06-22.08-14.9c7.17-3.43,12.59-7.85,16.25-13.22,3.66-5.38,5.5-12.1,5.5-20.16,0-7.46-1.23-13.74-3.7-18.83-2.47-5.07-5.93-9.16-10.42-12.21-4.48-3.06-9.86-5.27-16.13-6.61s-13.22-2.02-20.83-2.02H61.01v.03Zm35.18,132.64v-43.91h38.31c7.62,0,13.74,1.76,18.38,5.27,4.64,3.51,6.95,9.37,6.95,17.58,0,4.19-.71,7.62-2.13,10.3-1.41,2.7-3.33,4.82-5.71,6.38-2.39,1.57-5.15,2.7-8.3,3.36s-6.42,1-9.86,1h-37.65Z"/>
</svg>