<?xml version="1.0" encoding="UTF-8"?>
<svg id="Ebene_1" data-name="Ebene 1" xmlns="http://www.w3.org/2000/svg" viewBox="0 0 256 256">
  <defs>
    <style>
      .cls-1 {
        fill: #fff;
      }

      .cls-2 {
        fill: #563d7c;
      }
    </style>
  </defs>
  <g id="Ebene_2" data-name="Ebene 2">
    <path class="cls-2" d="m256,221c0,19.3-15.7,35-35,35H35c-19.3,0-35-15.7-35-35V35C0,15.7,15.7,0,35,0h186c19.3,0,35,15.7,35,35"/>
  </g>
  <g>
    <path class="cls-2" d="m28,202.21c0,14.24,11.55,25.79,25.79,25.79h148.42c14.24,0,25.79-11.55,25.79-25.79V53.79c0-14.24-11.55-25.79-25.79-25.79H53.79c-14.24,0-25.79,11.55-25.79,25.79v148.42Z"/>
    <path class="cls-1" d="m110.94,116.47v-28.32h24.93c2.37,0,4.66.2,6.87.59s4.16,1.1,5.85,2.12c1.7,1.02,3.05,2.43,4.07,4.24,1.02,1.81,1.53,4.13,1.53,6.95,0,5.09-1.53,8.76-4.58,11.02-3.05,2.26-6.95,3.39-11.7,3.39h-26.97Zm-26.63-49.01v121.09h58.68c5.43,0,10.71-.68,15.86-2.04,5.14-1.36,9.72-3.45,13.74-6.28,4.01-2.83,7.21-6.47,9.58-10.94s3.56-9.75,3.56-15.86c0-7.58-1.84-14.05-5.51-19.42-3.67-5.37-9.24-9.13-16.71-11.28,5.43-2.6,9.53-5.94,12.3-10.01,2.77-4.07,4.16-9.16,4.16-15.26,0-5.65-.93-10.4-2.8-14.25-1.87-3.84-4.49-6.93-7.89-9.24-3.39-2.32-7.46-3.99-12.21-5s-10.01-1.53-15.77-1.53h-56.99Zm26.63,100.4v-33.24h29c5.77,0,10.4,1.33,13.91,3.99,3.51,2.66,5.26,7.09,5.26,13.31,0,3.17-.54,5.77-1.61,7.8-1.07,2.04-2.52,3.65-4.32,4.83-1.81,1.19-3.9,2.04-6.28,2.54s-4.86.76-7.46.76h-28.49Z"/>
  </g>
</svg>