<?xml version="1.0" encoding="UTF-8"?>
<svg id="Ebene_1" data-name="Ebene 1" xmlns="http://www.w3.org/2000/svg" xmlns:xlink="http://www.w3.org/1999/xlink" viewBox="0 0 256 256">
  <defs>
    <style>
      .cls-1 {
        fill: #fff;
      }

      .cls-2 {
        fill: url(#Unbenannter_Verlauf_18);
      }

      .cls-3 {
        fill: url(#Unbenannter_Verlauf_18-2);
      }
    </style>
    <linearGradient id="Unbenannter_Verlauf_18" data-name="Unbenannter Verlauf 18" x1="0" y1="128" x2="256" y2="128" gradientUnits="userSpaceOnUse">
      <stop offset="0" stop-color="#f50"/>
      <stop offset=".41" stop-color="#f50"/>
      <stop offset=".58" stop-color="#ff2000"/>
      <stop offset="1" stop-color="#ff2000"/>
    </linearGradient>
    <linearGradient id="Unbenannter_Verlauf_18-2" data-name="Unbenannter Verlauf 18" x1="55.28" y1="122.33" x2="200.22" y2="122.33" xlink:href="#Unbenannter_Verlauf_18"/>
  </defs>
  <g id="Ebene_2" data-name="Ebene 2">
    <path class="cls-2" d="m45,0h166c24.85,0,45,20.15,45,45v166c0,24.85-20.15,45-45,45H45c-24.85,0-45-20.15-45-45V45C0,20.15,20.15,0,45,0Z"/>
  </g>
  <g id="branding">
    <g id="Logos">
      <g id="Logotypes_brave_logo-dark" data-name="Logotypes/brave/logo-dark">
        <g id="Group-5">
          <g id="Build-Icons_Stable" data-name="Build-Icons/Stable">
            <g id="Logo">
              <path id="Head" class="cls-1" d="m215.07,70.71l5.17-12.68s-6.5-7.01-14.51-15.01c-8.01-8.01-24.85-3.34-24.85-3.34l-19.18-21.68h-67.38l-19.35,21.85s-16.85-4.67-24.85,3.34c-8.01,8.01-14.51,15.01-14.51,15.01l5.17,12.68-6.5,18.68s19.35,73.06,21.52,82.06c4.5,17.51,7.51,24.35,20.18,33.36s35.53,24.35,39.36,26.69c3.67,2.34,8.51,6.34,12.68,6.34s8.84-4,12.68-6.34c3.67-2.34,26.69-17.85,39.36-26.69,12.68-8.84,15.68-15.68,20.18-33.36,2.34-9.01,21.52-82.06,21.52-82.06l-6.67-18.85h0Z"/>
              <path id="Face" class="cls-3" d="m175.54,53.69s24.69,29.86,24.69,36.36-3.17,8.01-6.34,11.34-16.85,17.85-18.51,19.68c-1.83,1.83-5.34,4.67-3.34,9.84,2.17,5,5.34,11.51,1.83,18.18-3.5,6.5-9.51,11.01-13.34,10.17-3.84-.67-13.01-5.5-16.35-7.67-3.34-2.17-13.84-10.84-13.84-14.18s11.01-9.34,13.01-10.67c2-1.33,11.18-6.67,11.34-8.67.17-2,.17-2.67-2.67-7.84-2.67-5.17-7.67-12.01-6.84-16.51.83-4.5,8.67-6.84,14.34-9.01,5.67-2.17,16.51-6.17,17.85-6.84s1-1.17-3.17-1.67c-4.17-.33-15.68-2-21.02-.5s-14.18,3.67-15.01,4.84c-.67,1.17-1.33,1.17-.67,5.34.67,4,4.67,23.68,5,27.19.33,3.5,1.17,5.84-2.67,6.67-3.67.83-10.01,2.34-12.18,2.34s-8.51-1.5-12.18-2.34-3-3.17-2.67-6.67,4.17-23.02,5-27.19c.67-4,.17-4.17-.67-5.34-.67-1.17-9.67-3.34-15.01-4.84s-16.85,0-21.02.5c-4.17.33-4.5,1-3.17,1.67,1.33.67,12.18,4.67,17.85,6.84,5.67,2.17,13.51,4.5,14.34,9.01.83,4.5-4,11.34-6.84,16.51-2.67,5.17-2.84,5.67-2.67,7.84.17,2,9.34,7.34,11.34,8.67,2,1.33,13.01,7.34,13.01,10.67s-10.51,12.01-13.84,14.18-12.34,6.84-16.35,7.67c-3.84.67-9.84-3.67-13.34-10.17-3.5-6.5-.33-13.01,1.83-18.18,2.17-5-1.5-7.84-3.34-9.84-1.83-1.83-15.34-16.35-18.51-19.68-3.17-3.34-6.17-5-6.17-11.34s24.69-36.36,24.69-36.36c0,0,20.85,4,23.68,4s8.84-2.34,14.51-4.17c5.67-1.83,9.34-1.83,9.34-1.83,0,0,3.67,0,9.34,1.83,5.67,1.83,11.68,4.17,14.51,4.17s24.18-4,24.18-4h0Zm-18.51,114.25c1.5,1,.67,2.84-.83,3.67-1.33,1-20.18,15.51-21.85,17.18-1.83,1.67-4.5,4.17-6.34,4.17s-4.5-2.67-6.34-4.17c-1.83-1.67-20.52-16.18-21.85-17.18-1.33-1-2.34-2.84-.83-3.67,1.5-1,6.34-3.34,12.84-6.84,6.67-3.5,14.84-6.34,16.18-6.34s9.51,2.84,16.18,6.34c6.5,3.5,11.34,6,12.84,6.84Z"/>
              <g id="Top-Head">
                <path id="path-3" class="cls-1" d="m180.87,39.85l-19.18-21.85h-67.38l-19.35,21.85s-16.85-4.67-24.85,3.34c0,0,22.52-2,30.19,10.51,0,0,20.85,4,23.68,4s8.84-2.34,14.51-4.17c5.67-1.83,9.34-1.83,9.34-1.83,0,0,3.67,0,9.34,1.83,5.67,1.83,11.68,4.17,14.51,4.17s23.68-4,23.68-4c7.67-12.51,30.19-10.51,30.19-10.51-7.84-8.01-24.69-3.34-24.69-3.34"/>
              </g>
            </g>
          </g>
        </g>
      </g>
    </g>
  </g>
</svg>