<?xml version="1.0" encoding="UTF-8"?><svg id="a" xmlns="http://www.w3.org/2000/svg" viewBox="0 0 128 128"><defs><style>.b{fill:#fff;}.c{fill:#f6dece;}.d{fill:#bfab95;}.e{fill:#febbd0;}.f{fill:#fbf0df;}.g{fill:#b71422;}.h{fill:#ccbea7;}.i{fill:#ff6164;}.j{fill:#fffefc;}</style></defs><rect class="d" x="0" y="0" width="128" height="128" rx="25" ry="25" transform="translate(128 0) rotate(90)"/><path class="f" d="m110.67,67.43c0,20.28-20.89,36.72-46.67,36.72s-46.67-16.44-46.67-36.72c0-12.57,8-23.68,20.29-30.27,12.29-6.59,19.95-13.33,26.37-13.33s11.92,5.51,26.37,13.33c12.29,6.59,20.29,17.69,20.29,30.27Z"/><path class="c" d="m110.67,67.43c0-2.61-.37-5.2-1.07-7.71-3.64,44.4-57.8,46.53-79.09,33.25,9.57,7.42,21.38,11.36,33.49,11.17,25.73,0,46.67-16.47,46.67-36.72Z"/><path class="j" d="m46.04,34.73c5.96-3.57,13.88-10.28,21.67-10.29-1.2-.39-2.45-.59-3.71-.6-3.23,0-6.67,1.67-11,4.17-1.51.88-3.07,1.85-4.72,2.87-3.11,1.92-6.67,4.09-10.67,6.27-12.69,6.87-20.28,18.19-20.28,30.29v1.59c8.08-28.55,22.76-30.72,28.71-34.29Z"/><path class="h" d="m60.16,27.21c.04,6.37-2.7,12.44-7.51,16.63-.37.33-.08.97.4.79,4.49-1.75,10.56-6.97,8-17.52-.11-.6-.89-.44-.89.11Zm3.03,0c3.3,5.39,4.09,11.95,2.15,17.96-.16.47.41.87.73.48,2.92-3.73,5.47-11.15-2.16-19.15-.39-.35-.99.19-.72.65v.05Zm3.68-.23c5.17,3.66,8.5,9.38,9.13,15.68-.03.23.13.45.36.49.23.04.45-.11.5-.34,1.23-4.65.53-12.59-9.56-16.71-.53-.21-.88.51-.44.83v.05Zm-24.61,13.87c6.15-1.84,11.22-6.2,13.96-12,.24-.48,1-.29.88.24-2.31,10.67-10.03,12.89-14.83,12.6-.51.01-.49-.69-.01-.84Z"/><path d="m64,107.5c-27.57,0-50-17.97-50-40.07,0-13.33,8.24-25.77,22.04-33.23,4-2.13,7.43-4.28,10.48-6.16,1.68-1.04,3.27-2.01,4.8-2.92,4.68-2.77,8.68-4.63,12.68-4.63s7.49,1.6,11.87,4.19c1.33.76,2.67,1.59,4.09,2.49,3.32,2.05,7.07,4.37,12,7.03,13.8,7.45,22.04,19.88,22.04,33.23,0,22.09-22.43,40.07-50,40.07Zm0-83.67c-3.23,0-6.67,1.67-11,4.17-1.51.88-3.07,1.85-4.72,2.87-3.11,1.92-6.67,4.09-10.67,6.27-12.69,6.87-20.28,18.19-20.28,30.29,0,20.25,20.93,36.73,46.67,36.73s46.67-16.48,46.67-36.73c0-12.11-7.59-23.43-20.29-30.27-5.04-2.67-8.97-5.17-12.16-7.15-1.45-.89-2.79-1.72-4-2.45-4.04-2.4-6.99-3.73-10.21-3.73Z"/><path class="g" d="m73.4,77.17c-.6,2.45-1.96,4.65-3.89,6.28-1.45,1.41-3.33,2.29-5.33,2.51-2.07-.18-4.01-1.07-5.51-2.51-1.91-1.64-3.26-3.83-3.84-6.28-.04-.29.06-.59.27-.8.21-.21.5-.31.8-.28h16.45c.29-.03.58.07.79.28.21.21.3.5.26.8h0Z"/><path class="i" d="m58.67,83.55c1.49,1.44,3.43,2.33,5.49,2.53,2.06-.21,3.99-1.1,5.48-2.53.48-.44.92-.92,1.33-1.43-1.66-1.88-4.02-3-6.53-3.08-2.7.06-5.19,1.45-6.67,3.71.31.28.57.55.89.8Z"/><path d="m58.88,82.5c1.34-1.73,3.4-2.75,5.59-2.77,2,.06,3.9.86,5.33,2.25.31-.33.6-.68.88-1.03-1.7-1.62-3.94-2.53-6.28-2.57-2.53.02-4.93,1.18-6.52,3.15.32.34.65.67,1,.97h0Z"/><path d="m64.12,86.75c-2.22-.19-4.31-1.13-5.93-2.67-2.06-1.75-3.52-4.1-4.15-6.73-.09-.47.04-.96.35-1.33.37-.45.93-.7,1.51-.68h16.45c.58-.01,1.13.24,1.51.68.31.37.43.86.33,1.33h0c-.63,2.63-2.08,4.99-4.15,6.73-1.62,1.53-3.7,2.47-5.92,2.67h0Zm-8.23-9.87c-.21,0-.27.09-.28.12.56,2.28,1.84,4.32,3.64,5.83,1.32,1.3,3.03,2.12,4.87,2.33,1.83-.21,3.54-1.02,4.87-2.31,1.8-1.51,3.07-3.55,3.63-5.83-.06-.09-.16-.13-.27-.12l-16.45-.03Z"/><ellipse class="e" cx="84.29" cy="73.41" rx="7.8" ry="4.59"/><ellipse class="e" cx="43.93" cy="73.41" rx="7.8" ry="4.59"/><path d="m47.6,71.57c2.97,0,5.66-1.78,6.8-4.53s.52-5.91-1.58-8.01c-2.1-2.1-5.26-2.73-8.01-1.6-2.75,1.14-4.54,3.82-4.54,6.79,0,4.05,3.28,7.34,7.33,7.35h0Zm33.03,0c2.98.02,5.67-1.75,6.83-4.5,1.15-2.74.54-5.91-1.56-8.02-2.1-2.11-5.26-2.75-8.01-1.62s-4.55,3.82-4.55,6.79c0,4.04,3.25,7.32,7.29,7.35h0Z"/><path class="b" d="m45.33,64.69c1.12,0,2.13-.66,2.56-1.69s.2-2.22-.59-3.01-1.98-1.03-3.01-.6c-1.03.43-1.71,1.43-1.71,2.55,0,1.52,1.23,2.75,2.75,2.76Zm33.03,0c1.12,0,2.13-.66,2.56-1.69.43-1.03.2-2.22-.59-3.01-.79-.79-1.98-1.03-3.01-.6-1.03.43-1.71,1.43-1.71,2.55,0,1.51,1.21,2.74,2.72,2.76h.03Z"/></svg>