<?xml version="1.0" encoding="UTF-8"?>
<svg id="Ebene_1" data-name="Ebene 1" xmlns="http://www.w3.org/2000/svg" viewBox="0 0 256 256">
  <defs>
    <style>
      .cls-1 {
        fill: #fff;
      }

      .cls-2 {
        fill: #f6dece;
      }

      .cls-3 {
        fill: #febbd0;
      }

      .cls-4 {
        fill: #fbf0df;
      }

      .cls-5 {
        fill: #27282c;
      }

      .cls-6 {
        fill: #b71422;
      }

      .cls-7 {
        fill: #ccbea7;
      }

      .cls-8 {
        fill: #ff6164;
      }

      .cls-9 {
        fill: #fffefc;
      }
    </style>
  </defs>
  <g id="Ebene_2" data-name="Ebene 2">
    <path class="cls-5" d="m256,221c0,19.3-15.7,35-35,35H35c-19.3,0-35-15.7-35-35V35C0,15.7,15.7,0,35,0h186c19.3,0,35,15.7,35,35"/>
  </g>
  <g>
    <g>
      <path class="cls-4" d="m216.61,134.52c0,38.51-39.67,69.72-88.61,69.72s-88.61-31.22-88.61-69.72c0-23.87,15.19-44.96,38.53-57.47,23.34-12.51,37.87-25.32,50.08-25.32s22.63,10.46,50.08,25.32c23.34,12.51,38.53,33.59,38.53,57.47Z"/>
      <path class="cls-2" d="m216.61,134.52c-.01-4.95-.69-9.87-2.03-14.63-6.91,84.3-109.75,88.35-150.18,63.14,18.17,14.09,40.6,21.57,63.59,21.22,48.86,0,88.61-31.27,88.61-69.72Z"/>
      <path class="cls-9" d="m93.9,72.42c11.32-6.78,26.35-19.52,41.14-19.54-2.27-.74-4.65-1.12-7.04-1.14-6.13,0-12.66,3.16-20.89,7.92-2.86,1.67-5.82,3.52-8.96,5.44-5.9,3.65-12.66,7.77-20.25,11.9-24.1,13.04-38.51,34.53-38.51,57.52v3.01c15.34-54.2,43.22-58.33,54.51-65.11Z"/>
      <path class="cls-7" d="m120.71,58.14c.07,12.1-5.13,23.62-14.25,31.57-.71.63-.15,1.85.76,1.49,8.53-3.32,20.05-13.24,15.19-33.27-.2-1.14-1.7-.84-1.7.2Zm5.75,0c6.27,10.23,7.76,22.68,4.08,34.1-.3.89.78,1.65,1.39.91,5.54-7.09,10.38-21.16-4.1-36.35-.73-.66-1.87.35-1.37,1.24v.1Zm6.99-.43c9.81,6.95,16.14,17.81,17.34,29.77-.05.44.25.85.69.92.44.07.86-.21.96-.65,2.33-8.84,1.01-23.9-18.15-31.72-1.01-.41-1.67.96-.84,1.57v.1Zm-46.73,26.33c11.67-3.49,21.31-11.77,26.51-22.78.46-.91,1.9-.56,1.67.46-4.38,20.25-19.04,24.48-28.15,23.92-.96.03-.94-1.32-.03-1.59Z"/>
      <path d="m128,210.59c-52.35,0-94.94-34.13-94.94-76.08,0-25.32,15.65-48.94,41.85-63.09,7.59-4.05,14.1-8.13,19.9-11.7,3.19-1.97,6.2-3.82,9.11-5.54,8.89-5.27,16.48-8.78,24.08-8.78s14.23,3.04,22.53,7.95c2.53,1.44,5.06,3.01,7.77,4.73,6.3,3.9,13.42,8.3,22.78,13.34,26.2,14.15,41.85,37.75,41.85,63.09,0,41.95-42.58,76.08-94.94,76.08Zm0-158.86c-6.13,0-12.66,3.16-20.89,7.92-2.86,1.67-5.82,3.52-8.96,5.44-5.9,3.65-12.66,7.77-20.25,11.9-24.1,13.04-38.51,34.53-38.51,57.52,0,38.46,39.75,69.75,88.61,69.75s88.61-31.29,88.61-69.75c0-22.99-14.41-44.48-38.53-57.47-9.57-5.06-17.04-9.82-23.09-13.57-2.76-1.7-5.29-3.27-7.59-4.66-7.67-4.56-13.27-7.09-19.39-7.09Z"/>
    </g>
    <g>
      <path class="cls-6" d="m145.85,153c-1.14,4.66-3.73,8.83-7.39,11.92-2.75,2.67-6.32,4.34-10.13,4.76-3.93-.35-7.61-2.03-10.46-4.76-3.63-3.1-6.18-7.28-7.29-11.92-.07-.56.11-1.12.51-1.52.4-.4.96-.6,1.52-.53h31.24c.56-.06,1.11.14,1.5.54.39.4.58.96.5,1.51h0Z"/>
      <path class="cls-8" d="m117.87,165.13c2.84,2.73,6.51,4.43,10.43,4.81,3.91-.39,7.58-2.08,10.41-4.81.91-.84,1.75-1.75,2.53-2.71-3.15-3.58-7.64-5.69-12.41-5.85-5.12.12-9.85,2.75-12.66,7.04.58.53,1.09,1.04,1.7,1.52Z"/>
      <path d="m118.28,163.13c2.54-3.29,6.45-5.23,10.61-5.27,3.79.11,7.4,1.64,10.13,4.28.58-.63,1.14-1.29,1.67-1.95-3.22-3.07-7.48-4.81-11.92-4.89-4.81.04-9.35,2.23-12.38,5.97.6.65,1.23,1.27,1.9,1.85h0Z"/>
      <path d="m128.23,171.2c-4.22-.37-8.19-2.15-11.27-5.06-3.92-3.31-6.68-7.79-7.87-12.78-.17-.9.07-1.83.66-2.53.7-.85,1.76-1.33,2.86-1.29h31.24c1.1-.02,2.15.45,2.86,1.29.58.7.82,1.64.63,2.53h0c-1.2,4.99-3.95,9.47-7.87,12.78-3.07,2.9-7.03,4.69-11.24,5.06h0Zm-15.62-18.73c-.41,0-.51.18-.53.23,1.07,4.33,3.49,8.2,6.91,11.06,2.5,2.46,5.75,4.02,9.24,4.43,3.48-.4,6.73-1.94,9.24-4.38,3.41-2.86,5.82-6.74,6.89-11.06-.11-.17-.31-.25-.51-.23l-31.24-.05Z"/>
    </g>
    <g>
      <ellipse class="cls-3" cx="166.53" cy="145.86" rx="14.81" ry="8.71"/>
      <ellipse class="cls-3" cx="89.9" cy="145.86" rx="14.81" ry="8.71"/>
      <path d="m96.86,142.37c5.64.01,10.74-3.38,12.91-8.59s.98-11.22-3.01-15.21c-3.99-3.99-9.99-5.19-15.2-3.04-5.22,2.16-8.62,7.25-8.62,12.89,0,7.69,6.23,13.94,13.92,13.95h0Zm62.71,0c5.65.04,10.77-3.33,12.96-8.54,2.19-5.21,1.02-11.23-2.96-15.24-3.98-4.01-9.99-5.22-15.21-3.07s-8.63,7.25-8.63,12.9c-.01,7.67,6.18,13.91,13.85,13.95h0Z"/>
      <path class="cls-1" d="m92.56,129.3c2.12.01,4.04-1.26,4.86-3.22s.38-4.22-1.12-5.72-3.75-1.96-5.71-1.15c-1.96.81-3.24,2.72-3.24,4.84,0,2.88,2.33,5.23,5.22,5.24Zm62.71,0c2.12.01,4.04-1.26,4.86-3.22.82-1.96.38-4.22-1.12-5.72-1.5-1.5-3.75-1.96-5.71-1.15-1.96.81-3.24,2.72-3.24,4.84,0,2.86,2.3,5.2,5.16,5.24h.05Z"/>
    </g>
  </g>
</svg>