<?xml version="1.0" encoding="UTF-8"?>
<svg id="Ebene_1" data-name="Ebene 1" xmlns="http://www.w3.org/2000/svg" viewBox="0 0 256 256">
  <defs>
    <style>
      .cls-1 {
        fill: #fff;
      }

      .cls-2 {
        fill: #00599c;
      }
    </style>
  </defs>
  <g id="Ebene_2" data-name="Ebene 2">
    <rect class="cls-2" width="256" height="256" rx="45" ry="45"/>
  </g>
  <path class="cls-1" d="m134.32,173.23c-16.45.02-31.6-8.91-39.55-23.31-.4-.71-.78-1.43-1.13-2.17-10.86-22.43-1.48-49.42,20.95-60.28,18.76-9.08,41.29-4.14,54.53,11.96.6.72,1.13,1.48,1.73,2.26.27.37.54.75.79,1.13l39.63-22.82c-.96-1.55-1.97-3.06-3.03-4.52-.55-.78-1.13-1.53-1.67-2.26-30.41-39.51-87.1-46.88-126.61-16.47-34.71,26.72-45.23,74.5-24.96,113.32.38.72.78,1.43,1.13,2.15,24.59,43.38,79.69,58.62,123.07,34.03,12.81-7.26,23.64-17.54,31.57-29.94l-38.74-23.42c-8.33,12.71-22.51,20.36-37.7,20.35h-.01Z"/>
</svg>