<?xml version="1.0" encoding="UTF-8" standalone="no"?>
<!DOCTYPE svg PUBLIC "-//W3C//DTD SVG 1.1//EN" "http://www.w3.org/Graphics/SVG/1.1/DTD/svg11.dtd">
<!-- Created with Vectornator (http://vectornator.io/) -->
<svg height="100%" stroke-miterlimit="10" style="fill-rule:nonzero;clip-rule:evenodd;stroke-linecap:round;stroke-linejoin:round;" version="1.1" viewBox="0 0 512 512" width="100%" xml:space="preserve" xmlns="http://www.w3.org/2000/svg" xmlns:vectornator="http://vectornator.io" xmlns:xlink="http://www.w3.org/1999/xlink">
<defs/>
<g id="Ebene-1" vectornator:layerName="Ebene 1">
<path d="M2.84217e-14 95C2.84217e-14 42.5329 42.5329 0 95 0L417 0C469.467 0 512 42.5329 512 95L512 417C512 469.467 469.467 512 417 512L95 512C42.5329 512 2.84217e-14 469.467 2.84217e-14 417L2.84217e-14 95Z" fill="#00599c" fill-rule="nonzero" opacity="1" stroke="none" vectornator:layerName="Rechteck 1"/>
<g opacity="1" vectornator:layerName="c-1.svg">
<path d="M267.503 89.5055C237.066 89.7519 206.44 98.3342 179.078 115.82C106.111 162.447 80.8804 257.088 120.962 333.847C121.673 335.185 122.392 336.525 123.04 337.842C151.924 388.803 205.378 420.885 263.934 422.432C322.492 423.982 377.607 394.769 409.144 345.406L337.444 302.046C322.028 325.554 295.777 339.72 267.663 339.707C237.236 339.749 209.224 323.2 194.526 296.559C193.787 295.25 193.103 293.93 192.448 292.564C174.018 254.501 186.929 208.672 222.545 185.868C258.16 163.064 305.209 170.513 332.064 203.18C332.08 203.199 332.102 203.214 332.118 203.233C333.206 204.554 334.168 205.914 335.26 207.335C335.762 208.024 336.292 208.702 336.752 209.412L410.049 167.224C408.264 164.353 406.408 161.564 404.456 158.861C403.432 157.419 402.37 156.011 401.366 154.653C401.351 154.633 401.329 154.619 401.313 154.599C368.3 111.752 318.208 89.095 267.503 89.5055Z" fill="#004482" fill-rule="nonzero" opacity="1" stroke="none"/>
<path d="M401.313 154.599L332.118 203.233C333.206 204.554 334.168 205.914 335.26 207.335C335.762 208.024 336.292 208.702 336.752 209.412L410.049 167.224C408.264 164.353 406.408 161.564 404.456 158.861C403.432 157.419 402.37 156.011 401.366 154.653C401.351 154.633 401.329 154.619 401.313 154.599Z" fill="#00599c" fill-rule="nonzero" opacity="1" stroke="none"/>
<path d="M267.687 339.706C237.26 339.748 209.222 323.221 194.523 296.58C193.785 295.271 193.088 293.933 192.433 292.567C174.003 254.504 186.943 208.673 222.558 185.869C258.174 163.065 305.215 170.493 332.071 203.16C333.179 204.498 334.163 205.899 335.271 207.341C335.772 208.03 336.273 208.72 336.733 209.431L410.044 167.205C408.259 164.335 406.393 161.548 404.441 158.844C403.417 157.402 402.351 156.021 401.347 154.663C348.527 86.0447 252.024 69.1745 179.057 115.803C106.091 162.431 80.8595 257.093 120.941 333.852C121.652 335.19 122.383 336.506 123.031 337.824C151.915 388.784 205.383 420.894 263.939 422.441C322.497 423.991 377.587 394.754 409.124 345.391L337.444 302.057C322.028 325.565 295.801 339.719 267.687 339.706Z" fill="#ffffff" fill-rule="nonzero" opacity="1" stroke="none" vectornator:layerName="path"/>
</g>
</g>
</svg>
