<?xml version="1.0" encoding="UTF-8"?><svg id="a" xmlns="http://www.w3.org/2000/svg" viewBox="0 0 128 128"><defs><style>.b{fill:#fff;fill-rule:evenodd;}.c{fill:#d33c44;}</style></defs><rect class="c" x="0" y="0" width="128" height="128" rx="25" ry="25" transform="translate(128 0) rotate(90)"/><path class="b" d="m14,71.81c0,8.62,22.38,15.61,49.99,15.61h0v15.6c-27.61,0-49.99-6.99-49.99-15.6h0v-15.61Zm100,0v15.61c0,3.68-4.09,7.05-10.9,9.72h0l-39.11-9.72v-15.61l39.11,9.72c6.81-2.67,10.9-6.04,10.9-9.72h0ZM63.99,24.98c27.61,0,50.01,7,50.01,15.61h0v15.62c0,3.67-4.09,7.05-10.9,9.71h0l-39.11-9.71v15.6c-27.61,0-49.99-6.99-49.99-15.6h0v-15.62c0-8.61,22.38-15.61,49.99-15.61Z"/></svg>