<?xml version="1.0" encoding="UTF-8"?><svg id="a" xmlns="http://www.w3.org/2000/svg" viewBox="0 0 128 128"><defs><style>.b{fill:#53b9ff;}.c{fill:#011830;}.d{fill:#119eff;}</style></defs><rect class="c" x="0" y="0" width="128" height="128" rx="25" ry="25" transform="translate(128 0) rotate(90)"/><polygon class="b" points="29.57 35.14 14.12 50.61 37.95 74.5 14 98.52 29.4 114 53.4 89.97 77.26 113.83 92.71 98.36 29.57 35.14"/><polygon class="d" points="68.89 74.51 53.4 89.97 77.26 113.83 92.71 98.36 68.89 74.51"/><polygon points="68.89 74.51 53.4 89.97 59.36 95.91 68.89 74.51"/><polygon class="b" points="90 53.45 114 29.42 98.54 14 74.55 37.98 50.69 14.12 35.24 29.59 98.38 92.81 113.83 77.34 90 53.45"/><polygon class="d" points="59.06 53.45 74.55 37.98 50.69 14.12 35.24 29.59 59.06 53.45"/><polygon points="59.06 53.45 74.55 37.98 68.59 32.05 59.06 53.45"/></svg>