<?xml version="1.0" encoding="UTF-8"?>
<svg id="Ebene_1" data-name="Ebene 1" xmlns="http://www.w3.org/2000/svg" viewBox="0 0 256 256">
  <defs>
    <style>
      .cls-1 {
        fill: #53b9ff;
      }

      .cls-2 {
        fill: #fff;
      }

      .cls-3 {
        fill: rgba(255, 255, 255, .2);
      }

      .cls-4 {
        fill: #dce4ff;
      }
    </style>
  </defs>
  <g id="Ebene_2" data-name="Ebene 2">
    <path class="cls-1" d="m256,221c0,19.3-15.7,35-35,35H35c-19.3,0-35-15.7-35-35V35C0,15.7,15.7,0,35,0h186c19.3,0,35,15.7,35,35"/>
  </g>
  <g>
    <polygon class="cls-2" points="66.03 76.05 38.22 103.89 81.11 146.91 38 190.14 65.72 218 108.92 174.75 151.87 217.69 179.68 189.85 66.03 76.05"/>
    <polygon class="cls-4" points="136.8 146.91 108.92 174.75 151.88 217.69 179.69 189.85 136.8 146.91"/>
    <polygon class="cls-3" points="136.8 146.91 108.92 174.75 119.65 185.43 136.8 146.91"/>
    <polygon class="cls-2" points="174.81 109 218 65.76 190.18 38 147 81.16 104.04 38.22 76.23 66.06 189.88 179.86 217.69 152.02 174.81 109"/>
    <polygon class="cls-4" points="119.11 109 147 81.16 104.04 38.22 76.23 66.06 119.11 109"/>
    <polygon class="cls-3" points="119.11 109 147 81.16 136.26 70.48 119.11 109"/>
  </g>
</svg>