<?xml version="1.0" encoding="UTF-8"?>
<svg id="Ebene_1" data-name="Ebene 1" xmlns="http://www.w3.org/2000/svg" viewBox="0 0 256 256">
  <defs>
    <style>
      .cls-1 {
        fill: #fff;
      }

      .cls-2 {
        fill: #a14f8c;
      }

      .cls-3 {
        fill: #efa724;
      }
    </style>
  </defs>
  <g id="Ebene_2" data-name="Ebene 2">
    <path class="cls-2" d="m256,221c0,19.3-15.7,35-35,35H35c-19.3,0-35-15.7-35-35V35C0,15.7,15.7,0,35,0h186c19.3,0,35,15.7,35,35"/>
  </g>
  <g id="g902">
    <circle id="ellipse894" class="cls-1" cx="128" cy="128" r="99.97" transform="translate(-53.02 128) rotate(-45)"/>
    <g id="g907">
      <path id="path896" class="cls-2" d="m128,52.34l-22.16,22.16h-31.34s0,31.34,0,31.34l-22.16,22.16,22.16,22.16v31.34s31.34,0,31.34,0l22.16,22.16,22.16-22.16h31.34s0-31.34,0-31.34l22.16-22.16-22.16-22.16-31.34-31.34-22.16-22.16Zm6.73,22.16v23.91l-6.73,6.73-6.73-6.73v-23.91h13.45Zm-39.8,10.91l16.91,16.91v9.51s-9.51,0-9.51,0l-16.91-16.91,9.51-9.51Zm-20.43,35.86h23.91l6.73,6.73-6.73,6.73h-23.91v-13.45Zm82.55,0h23.91v13.45h-23.91l-6.73-6.73,6.73-6.73Zm-54.35,22.51h9.51v9.51l-16.91,16.91-9.51-9.51,16.91-16.91Zm41.09,0h9.51s16.91,16.91,16.91,16.91l-9.51,9.51-16.91-16.91v-9.51Zm-15.79,6.54l6.73,6.73v23.91h-13.45v-23.91l6.73-6.73Z"/>
      <path id="path898" class="cls-3" d="m134.73,112.54l-6.73,5.94-6.73-5.95v8.73h-8.73l5.94,6.73-5.95,6.73h8.73v8.73l6.73-5.94,6.73,5.94v-8.73h8.73l-5.94-6.73,5.95-6.73h-8.73v-8.73Z"/>
      <path id="path900" class="cls-3" d="m150.18,74.52l10.89,10.89-16.91,16.91v9.51s9.51,0,9.51,0l16.91-16.91,10.93,10.93-.02-31.36-31.32.02Z"/>
    </g>
  </g>
</svg>