<?xml version="1.0" encoding="UTF-8"?>
<svg id="Ebene_1" data-name="Ebene 1" xmlns="http://www.w3.org/2000/svg" viewBox="0 0 256 256">
  <defs>
    <style>
      .cls-1 {
        fill: #fff;
      }

      .cls-2 {
        fill: #a14f8c;
      }

      .cls-3 {
        fill: #efa724;
      }
    </style>
  </defs>
  <g id="Ebene_2" data-name="Ebene 2">
    <rect class="cls-2" width="256" height="256" rx="45" ry="45"/>
  </g>
  <g id="g902">
    <circle id="ellipse894" class="cls-1" cx="128" cy="128" r="99.97"/>
    <g id="g907">
      <path id="path896" class="cls-2" d="m128,52.34l-22.16,22.16h-31.34v31.34l-22.16,22.16,22.16,22.16v31.34h31.34l22.16,22.16,22.16-22.16h31.34v-31.34l22.16-22.16-22.16-22.16-31.34-31.34-22.16-22.16Zm6.73,22.16v23.91l-6.73,6.73-6.73-6.73v-23.91h13.46Zm-39.8,10.91l16.91,16.91v9.51h-9.51l-16.91-16.91s9.51-9.51,9.51-9.51Zm-20.43,35.86h23.91l6.73,6.73-6.73,6.73h-23.91v-13.45h0Zm82.55,0h23.91v13.45h-23.91l-6.73-6.73,6.73-6.73h0Zm-54.35,22.51h9.51v9.51l-16.91,16.91-9.51-9.51s16.91-16.91,16.91-16.91Zm41.09,0h9.51l16.91,16.91-9.51,9.51-16.91-16.91v-9.51Zm-15.79,6.54l6.73,6.73v23.91h-13.45v-23.91l6.73-6.73h-.01Z"/>
      <path id="path898" class="cls-3" d="m134.73,112.54l-6.73,5.94-6.73-5.95v8.73h-8.73l5.94,6.73-5.95,6.73h8.73v8.73l6.73-5.94,6.73,5.94v-8.73h8.73l-5.94-6.73,5.95-6.73h-8.73v-8.73h0Z"/>
      <path id="path900" class="cls-3" d="m150.18,74.52l10.89,10.89-16.91,16.91v9.51h9.51l16.91-16.91,10.93,10.93-.02-31.36-31.32.02h.01Z"/>
    </g>
  </g>
</svg>