<?xml version="1.0" encoding="UTF-8" standalone="no"?>
<!DOCTYPE svg PUBLIC "-//W3C//DTD SVG 1.1//EN" "http://www.w3.org/Graphics/SVG/1.1/DTD/svg11.dtd">
<!-- Created with Vectornator (http://vectornator.io/) -->
<svg height="100%" stroke-miterlimit="10" style="fill-rule:nonzero;clip-rule:evenodd;stroke-linecap:round;stroke-linejoin:round;" version="1.1" viewBox="0 0 512 512" width="100%" xml:space="preserve" xmlns="http://www.w3.org/2000/svg" xmlns:vectornator="http://vectornator.io" xmlns:xlink="http://www.w3.org/1999/xlink">
<defs>
<linearGradient gradientTransform="matrix(1 0 0 1 0 0)" gradientUnits="userSpaceOnUse" id="LinearGradient" x1="257.506" x2="255.859" y1="-0.116183" y2="511.166">
<stop offset="0.000578055" stop-color="#c3a4bf"/>
<stop offset="1" stop-color="#b26f63"/>
</linearGradient>
</defs>
<g id="Ebene-1" vectornator:layerName="Ebene 1">
<path d="M2.84217e-14 95C2.84217e-14 42.5329 42.5329 0 95 0L417 0C469.467 0 512 42.5329 512 95L512 417C512 469.467 469.467 512 417 512L95 512C42.5329 512 2.84217e-14 469.467 2.84217e-14 417L2.84217e-14 95Z" fill="url(#LinearGradient)" fill-rule="nonzero" opacity="1" stroke="none" vectornator:layerName="Rechteck 1"/>
<g opacity="1" vectornator:layerName="centos-1.svg">
<path d="M224.491 241.393L238.96 255.781L224.491 270.165L122.65 270.165L122.65 318.093L60.5434 255.781L122.65 194.512L122.65 241.393L224.493 241.393L224.491 241.393ZM269.257 119.001L392.999 119.001L392.999 242.745L269.257 242.745L269.257 119.001Z" fill="#932279" fill-rule="nonzero" opacity="1" stroke="none" vectornator:layerName="path"/>
<path d="M270.607 224.491L256.223 238.96L241.838 224.491L241.838 122.65L193.907 122.65L256.223 60.5434L317.486 122.65L270.607 122.65L270.607 224.493L270.607 224.491ZM269.259 269.257L392.999 269.257L392.999 393.001L269.257 393.001L269.257 269.257L269.259 269.257Z" fill="#efa724" fill-rule="nonzero" opacity="1" stroke="none" vectornator:layerName="path"/>
<path d="M287.511 270.607L273.04 256.223L287.511 241.838L389.35 241.838L389.35 193.907L451.46 256.223L389.35 317.486L389.35 270.607L287.511 270.607ZM119.001 269.259L242.743 269.259L242.743 393.002L119.001 393.002L119.001 269.259Z" fill="#262577" fill-rule="nonzero" opacity="1" stroke="none" vectornator:layerName="path"/>
<path d="M241.393 287.511L255.777 273.04L270.165 287.511L270.165 389.353L318.093 389.353L255.777 451.46L194.515 389.353L241.393 389.353L241.393 287.511ZM119.001 119.001L242.743 119.001L242.743 242.745L119.001 242.745L119.001 119.001Z" fill="#9ccd2a" fill-rule="nonzero" opacity="1" stroke="none" vectornator:layerName="path"/>
<path d="M114.581 114.581L247.162 114.581L247.162 247.162L114.581 247.162L114.581 114.581ZM123.419 238.325L238.322 238.325L238.322 123.422L123.419 123.422L123.419 238.325ZM264.841 114.581L397.422 114.581L397.422 247.162L264.841 247.162L264.841 114.581ZM273.678 238.325L388.581 238.325L388.581 123.422L273.678 123.422L273.678 238.325ZM264.841 264.841L397.422 264.841L397.422 397.425L264.841 397.425L264.841 264.839L264.841 264.841ZM273.678 388.581L388.581 388.581L388.581 273.678L273.678 273.678L273.678 388.581ZM114.581 264.841L247.162 264.841L247.162 397.425L114.581 397.425L114.581 264.839L114.581 264.841ZM123.419 388.581L238.322 388.581L238.322 273.678L123.419 273.678L123.419 388.581Z" fill="#ffffff" fill-rule="nonzero" opacity="1" stroke="none" vectornator:layerName="path"/>
<path d="M149.752 349.752L56 256L149.751 162.251L243.503 256L149.754 349.752L149.752 349.752ZM68.5014 256L149.752 337.251L231 256L149.749 174.752L68.5014 256ZM256 243.502L162.251 149.752L256 56L349.749 149.752L256 243.502ZM174.752 149.752L256 231L337.251 149.752L256 68.5014L174.752 149.752ZM362.251 349.752L268.501 256L362.251 162.251L456 256C456 256 362.251 349.752 362.251 349.752ZM281 256L362.251 337.251L443.499 256L362.251 174.752L281 256ZM256 456L162.251 362.251L256 268.501L349.749 362.251C349.749 362.251 256 456 256 456ZM174.752 362.251L256 443.499L337.251 362.251L256 281.003C256 281.003 174.752 362.251 174.752 362.251Z" fill="#ffffff" fill-rule="nonzero" opacity="1" stroke="none" vectornator:layerName="path"/>
</g>
</g>
<g id="Ebene-2" vectornator:layerName="Ebene 2"/>
</svg>
