<?xml version="1.0" encoding="UTF-8"?>
<svg id="Ebene_1" data-name="Ebene 1" xmlns="http://www.w3.org/2000/svg" xmlns:xlink="http://www.w3.org/1999/xlink" viewBox="0 0 256 256">
  <defs>
    <style>
      .cls-1 {
        fill: #fff;
      }

      .cls-2 {
        fill: url(#Unbenannter_Verlauf_17);
      }

      .cls-3 {
        fill: #f4d911;
      }

      .cls-4 {
        fill: #bc332c;
      }

      .cls-5 {
        fill: #c6352e;
      }

      .cls-6 {
        fill: #27282c;
      }

      .cls-7 {
        fill: #7baa50;
      }

      .cls-8 {
        fill: #81b354;
      }

      .cls-9 {
        fill: #e7ce12;
      }
    </style>
    <linearGradient id="Unbenannter_Verlauf_17" data-name="Unbenannter Verlauf 17" x1="-992.51" y1="-1238.64" x2="-992.51" y2="-1226.12" gradientTransform="translate(5799.49 7170.6) scale(5.71)" gradientUnits="userSpaceOnUse">
      <stop offset="0" stop-color="#a2c0e6"/>
      <stop offset="1" stop-color="#406cb1"/>
    </linearGradient>
  </defs>
  <g id="Ebene_2" data-name="Ebene 2">
    <path class="cls-6" d="m45,0h166c24.85,0,45,20.15,45,45v166c0,24.85-20.15,45-45,45H45c-24.85,0-45-20.15-45-45V45C0,20.15,20.15,0,45,0Z"/>
  </g>
  <g>
    <path class="cls-5" d="m127.74,27.64s58.96-2.65,90.21,56.6h-95.22s-17.98-.59-33.31,21.23c-4.42,9.14-9.14,18.57-3.83,37.14-7.66-12.97-40.68-70.46-40.68-70.46,0,0,23.29-42.16,82.84-44.51Z"/>
    <path class="cls-3" d="m214.88,178.09s-27.19,52.38-94.13,49.81c8.26-14.29,47.62-82.46,47.62-82.46,0,0,9.5-15.28-1.72-39.46-5.7-8.4-11.51-17.2-30.25-21.9,15.07-.15,81.36,0,81.36,0,0,0,24.86,41.25-2.88,94h0Z"/>
    <path class="cls-8" d="m41.02,178.48s-31.77-49.74,3.94-106.42c8.25,14.3,47.59,82.48,47.59,82.48,0,0,8.48,15.87,35.03,18.24,10.12-.74,20.65-1.37,34.09-15.25-7.41,13.12-40.69,70.45-40.69,70.45,0,0-48.15.9-79.96-49.5Z"/>
    <path class="cls-7" d="m120.75,228.38l13.39-55.89s14.73-1.15,27.07-14.69c-7.66,13.48-40.46,70.58-40.46,70.58h0Z"/>
    <path class="cls-1" d="m82.88,128.63c0-24.64,19.97-44.61,44.61-44.61s44.61,19.97,44.61,44.61-19.97,44.61-44.61,44.61-44.61-19.97-44.61-44.61h0Z"/>
    <path class="cls-2" d="m90.35,128.63c0-20.51,16.63-37.14,37.15-37.14s37.14,16.63,37.14,37.14-16.63,37.15-37.14,37.15c-20.52,0-37.15-16.63-37.15-37.15h0Z"/>
    <path class="cls-9" d="m217.76,84.09l-55.15,16.17s-8.32-12.21-26.21-16.18c15.5-.05,81.36,0,81.36,0h0Z"/>
    <path class="cls-4" d="m84.51,140.6c-7.75-13.42-39.61-68.45-39.61-68.45l40.86,40.42s-4.2,8.64-2.61,20.97l1.36,7.06h0Z"/>
  </g>
</svg>