<?xml version="1.0" encoding="UTF-8"?>
<svg id="Ebene_1" data-name="Ebene 1" xmlns="http://www.w3.org/2000/svg" xmlns:xlink="http://www.w3.org/1999/xlink" viewBox="0 0 256 256">
  <defs>
    <style>
      .cls-1 {
        fill: #fff;
      }

      .cls-2 {
        fill: url(#Unbenannter_Verlauf_2);
      }

      .cls-3 {
        fill: url(#Unbenannter_Verlauf_4);
      }

      .cls-4 {
        fill: url(#Unbenannter_Verlauf);
      }

      .cls-5 {
        fill: #27282c;
      }

      .cls-6 {
        fill: url(#Unbenannter_Verlauf_3);
      }
    </style>
    <linearGradient id="Unbenannter_Verlauf" data-name="Unbenannter Verlauf" x1="2.53" y1="3.06" x2="3.43" y2="3.06" gradientTransform="translate(-96.8 -268) scale(74.4 110.8)" gradientUnits="userSpaceOnUse">
      <stop offset="0" stop-color="#ed358c"/>
      <stop offset=".16" stop-color="#e9388c"/>
      <stop offset=".3" stop-color="#de418c"/>
      <stop offset=".43" stop-color="#cc508c"/>
      <stop offset=".57" stop-color="#b2658d"/>
      <stop offset=".7" stop-color="#90808d"/>
      <stop offset=".83" stop-color="#67a18e"/>
      <stop offset=".95" stop-color="#37c78f"/>
      <stop offset="1" stop-color="#22d88f"/>
    </linearGradient>
    <linearGradient id="Unbenannter_Verlauf_2" data-name="Unbenannter Verlauf 2" x1="2.63" y1="1.71" x2="2.33" y2="2.76" gradientTransform="translate(-178 -268) scale(97.6 188)" gradientUnits="userSpaceOnUse">
      <stop offset=".09" stop-color="#22d88f"/>
      <stop offset=".9" stop-color="#029de0"/>
    </linearGradient>
    <linearGradient id="Unbenannter_Verlauf_3" data-name="Unbenannter Verlauf 3" x1="-219.02" y1="-254.12" x2="-310.53" y2="-360.37" gradientTransform="translate(-178 -258.4) scale(250.8 239.2)" gradientUnits="userSpaceOnUse">
      <stop offset=".09" stop-color="#22d88f"/>
      <stop offset=".9" stop-color="#029de0"/>
    </linearGradient>
    <linearGradient id="Unbenannter_Verlauf_4" data-name="Unbenannter Verlauf 4" x1="144.49" y1="-22.78" x2="175.58" y2="-28.22" gradientTransform="translate(-84.8 -158.8) scale(162.8 146.8)" gradientUnits="userSpaceOnUse">
      <stop offset=".09" stop-color="#22d88f"/>
      <stop offset=".9" stop-color="#029de0"/>
    </linearGradient>
  </defs>
  <g id="Ebene_2" data-name="Ebene 2">
    <rect class="cls-5" width="256" height="256" rx="35" ry="35"/>
  </g>
  <g>
    <polygon class="cls-4" points="104.87 108.93 91.44 114.56 103.63 28 149.56 53.32 104.87 108.93"/>
    <polygon class="cls-2" points="97.69 148 104.25 28 46.44 64.25 28 174.87 97.69 148"/>
    <polygon class="cls-6" points="223.94 88 198.31 35.5 149.56 53.32 113.94 92.68 28 174.87 93 222.37 174.25 148.62 223.94 88"/>
    <polygon class="cls-3" points="112.06 113.32 100.81 181.75 146.44 217.07 196.44 228 228 156.75 112.06 113.32"/>
    <rect x="65.5" y="65.5" width="125" height="125"/>
    <path class="cls-1" d="m77.38,167.07h46.87v7.81h-46.87v-7.81Zm-.93-59.07c-.16-7.17,2.62-14.11,7.7-19.18,5.08-5.08,12-7.86,19.18-7.7,9.69,0,15.63,3.13,20.31,8.12l-7.19,8.44c-4.06-3.75-8.12-5.94-13.13-5.94-8.75,0-15,7.19-15,16.25s6.25,16.25,15,16.25c5.94,0,9.69-2.5,13.75-5.94l7.19,7.19c-5.32,5.63-11.25,9.38-21.25,9.38-7.1,0-13.9-2.84-18.9-7.89-4.99-5.05-7.75-11.88-7.67-18.99h0Zm55.63-26.25h11.56v42.19h22.5v9.69h-34.06v-51.88h0Z"/>
  </g>
</svg>