<?xml version="1.0" encoding="UTF-8"?>
<svg id="Ebene_1" data-name="Ebene 1" xmlns="http://www.w3.org/2000/svg" viewBox="0 0 256 256">
  <defs>
    <style>
      .cls-1 {
        fill: #fff;
      }

      .cls-2 {
        fill: #ffe4c0;
      }

      .cls-3 {
        fill: #f4811f;
      }
    </style>
  </defs>
  <g id="Ebene_2" data-name="Ebene 2">
    <rect class="cls-3" width="256" height="256" rx="45" ry="45"/>
  </g>
  <g>
    <path class="cls-1" d="m165.76,157.42c1.24-4.15.83-8.3-1.24-10.79-2.08-2.49-4.98-4.15-8.71-4.56l-72.2-.83c-.41,0-.83-.41-1.24-.41-.41-.41-.41-.83,0-1.24.41-.83.83-1.25,1.66-1.25l72.61-.83c8.71-.41,17.84-7.47,21.16-15.77l4.15-10.79c0-.42.41-.83,0-1.25-4.56-21.16-23.65-36.93-46.06-36.93-20.75,0-38.59,13.28-44.81,31.95-4.15-2.9-9.13-4.56-14.94-4.15-9.96.83-17.84,9.13-19.09,19.09-.41,2.49,0,4.98.42,7.47-16.18.41-29.46,13.69-29.46,30.29,0,1.66,0,2.9.41,4.56,0,.83.83,1.25,1.25,1.25h133.19c.83,0,1.66-.41,1.66-1.25l1.24-4.56h0Z"/>
    <path class="cls-2" d="m188.58,110.95h-2.07c-.41,0-.83.41-1.24.83l-2.9,9.96c-1.24,4.15-.83,8.3,1.25,10.79,2.07,2.49,4.98,4.15,8.71,4.56l15.35.83c.41,0,.83.41,1.24.41.41.41.41.83,0,1.24-.41.83-.83,1.25-1.66,1.25l-15.77.83c-8.71.41-17.84,7.47-21.16,15.77l-.83,3.74c-.41.41,0,1.24.83,1.24h54.77c.83,0,1.24-.41,1.24-1.24.83-3.32,1.66-7.05,1.66-10.79,0-21.58-17.84-39.42-39.42-39.42"/>
  </g>
</svg>