<?xml version="1.0" encoding="UTF-8"?>
<svg id="Ebene_1" data-name="Ebene 1" xmlns="http://www.w3.org/2000/svg" viewBox="0 0 256 256">
  <defs>
    <style>
      .cls-1 {
        fill: #fff;
      }

      .cls-2 {
        fill: #27282c;
      }
    </style>
  </defs>
  <g id="Ebene_2" data-name="Ebene 2">
    <rect class="cls-2" width="256" height="256" rx="45" ry="45"/>
  </g>
  <path class="cls-1" d="m227.85,96.04c-.05-.24-.09-.48-.15-.72-.04-.14-.09-.28-.13-.42-.07-.21-.14-.42-.22-.62-.06-.14-.13-.28-.19-.42-.09-.19-.19-.39-.29-.57-.08-.14-.16-.27-.25-.4-.12-.18-.23-.35-.36-.52-.09-.13-.19-.25-.29-.37-.13-.16-.28-.32-.43-.47-.11-.11-.23-.23-.34-.34-.16-.14-.32-.28-.49-.41-.13-.1-.26-.2-.39-.29-.05-.04-.09-.08-.14-.11l-91.4-60.94c-2.88-1.93-6.65-1.93-9.53,0L31.83,90.38s-.09.07-.14.11c-.13.09-.26.19-.39.29-.17.13-.33.27-.49.4-.12.11-.23.22-.34.34-.15.15-.29.3-.43.47-.1.12-.2.24-.29.38-.13.17-.25.34-.36.52-.08.13-.17.26-.25.4-.11.19-.2.38-.29.57-.06.14-.13.28-.19.42-.08.2-.16.41-.22.62-.05.14-.09.28-.13.4-.06.24-.11.48-.15.72-.02.12-.05.25-.07.37-.05.37-.08.74-.08,1.12v60.95c0,.38.03.75.08,1.12.02.13.05.24.08.37.04.24.08.48.16.73.04.13.08.27.13.42.07.22.13.43.22.63.06.13.13.27.19.4.09.19.19.38.3.57.08.13.16.27.24.39.12.19.24.35.38.51.09.13.19.24.3.37.14.16.27.32.43.47.11.11.22.24.35.32.16.13.32.27.48.41.13.11.27.19.38.29.05.03.08.08.13.11l91.38,60.97c1.44.97,3.1,1.45,4.77,1.45s3.32-.48,4.77-1.45l91.41-60.94c.05-.03.09-.07.14-.11.13-.09.26-.19.39-.29.17-.13.33-.27.49-.41.12-.11.23-.22.34-.33.15-.15.29-.3.43-.47.1-.12.2-.24.29-.37.13-.17.25-.34.36-.52.08-.13.17-.26.25-.39.11-.19.2-.38.29-.57.06-.14.13-.27.19-.41.08-.21.15-.42.22-.63.05-.14.09-.28.13-.42.06-.24.11-.48.15-.72.02-.12.05-.25.07-.37.05-.37.08-.74.08-1.12v-60.94c0-.38-.03-.75-.08-1.12-.02-.13-.06-.24-.09-.37h.01Zm-99.85,52.29l-30.39-20.33,30.39-20.33,30.4,20.33-30.4,20.33h0Zm-8.59-55.59l-37.26,24.92-30.08-20.12,67.34-44.89v40.09h0Zm-52.72,35.26l-21.5,14.38v-28.76l21.5,14.38h0Zm15.46,10.35l37.26,24.92v40.09l-67.34-44.89,30.08-20.12h0Zm54.45,24.91l37.26-24.92,30.08,20.12-67.34,44.89v-40.09h0Zm52.72-35.26l21.5-14.38v28.76l-21.5-14.38h0Zm-15.46-10.34l-37.26-24.92v-40.09l67.34,44.89-30.08,20.12h0Z"/>
</svg>