<?xml version="1.0" encoding="UTF-8"?><svg id="a" xmlns="http://www.w3.org/2000/svg" viewBox="0 0 128 128"><defs><style>.b{fill:#fff;}.c{fill:#ee4323;}</style></defs><rect class="c" x="0" y="0" width="128" height="128" rx="25" ry="25" transform="translate(128 0) rotate(90)"/><path class="b" d="m49.15,113.99c-6-2.59-11.61-9.18-11.62-15.92-.02-7.35,4.64-13.59,10.43-17.69-.7,2.63-1.08,5.04.65,7.39,1.6,2.19,4.41,3.25,7.06,2.67,6.2-1.36,6.48-8.17,2.81-12.14-3.63-3.93-7.15-8.37-5.76-14.07.69-2.86,2.45-5.53,4.67-7.45-1.71,4.49,3.15,8.92,6.34,11.12,5.55,3.83,11.64,6.72,16.74,11.2,5.37,4.71,9.33,11.09,8.53,18.48-.87,8.01-7.23,13.59-14.38,16.4,15.09-3.33,30.68-15.04,31-31.78.26-13.77-9.18-24.37-20.88-30.43l-.61-.33c.32.78.43,1.44.41,2.04.11-.44.18-.89.2-1.35,0,.58-.08,1.12-.21,1.63l.02-.28c-.18.74-.47,1.43-.87,2.06l.17-.18c-2.33,3.87-8.65,4.71-11.78.7-5.02-6.45.11-13.4.82-20.23.9-8.56-4.47-16.87-11.13-21.84,3.67,5.93-1.16,13.77-5.03,18.16-3.75,4.25-8.3,7.8-12.44,11.66-4.44,4.15-8.71,8.52-12.37,13.39-7.3,9.75-11.77,22-8.49,34.16,3.28,12.15,13.81,19.88,25.69,22.62h0Z"/></svg>