<?xml version="1.0" encoding="UTF-8"?><svg id="a" xmlns="http://www.w3.org/2000/svg" viewBox="0 0 128 128"><defs><style>.b{fill:#fff;}.c{fill:#28334c;}</style></defs><rect class="c" x="0" y="0" width="128" height="128" rx="25" ry="25" transform="translate(128 0) rotate(90)"/><path class="b" d="m53.69,27.31c.09.55-.18,1-1.09,1.46-1.18-.64-3.73-1-5.82-.82-2.27.18-4.18.91-3.91,2.46.36,1.55,2.55,2.46,6.46,2.09,9.55-.82,9.46-7.28,23.47-8.55,10.92-1,17.01,2.36,17.83,6.46.64,3.18-2,6.28-9.91,6.91-7,.64-11.1-1.27-11.46-3.18-.18-1,.36-2.46,3.73-2.82.36,1.55,2.27,3.18,6.82,2.73,3.27-.27,6-1.46,5.64-3.27-.36-1.91-3.82-3-9.28-2.55-11.1,1-13.83,7.09-23.29,7.91-6.73.64-12.19-1.82-12.92-5.46-.27-1.36-.27-4.55,6.82-5.18,3.64-.27,6.55.36,6.91,1.82h0Zm-35.47,38.02c-3.09,3.91-4.46,8.46-4.18,12.92s2.46,8.1,5.91,10.92c3.64,2.82,7.55,3.64,12.01,2.82,1.73-.27,3.64-1.18,5.37-1.73-3.64,0-6.73-1.18-9.82-3.64-3.37-2.46-5.64-5.91-6.19-10.1-.82-3.91,0-7.55,2.18-10.73,2.46-3.09,5.64-4.82,9.82-5.37,4.18-.27,7.82.82,11.46,3.37-.82-1.18-2-2-3.09-3.09-3.64-2.46-7.55-3.64-12.37-2.46-4.37.91-8,3.18-11.1,7.09h0Zm48.75-21.01c-11.73,0-22.19-1.18-29.74-2.82-8.1-2-12.37-4.18-12.37-7,0-1.18.55-2.18,2.18-3.37-5.09,2-7.82,3.64-7.82,6.19.27,2.82,4.82,5.64,14.1,7.82,8.73,2.18,19.92,3.37,33.38,3.37s24.65-1.18,33.38-3.37c9.28-2.18,13.74-5.09,13.74-7.82,0-2-2-3.91-5.64-5.37.82.55,1.46,1.46,1.46,2.46,0,2.82-4.18,5.09-12.64,7-7.82,1.73-17.83,2.91-30.02,2.91h0Zm33.47,7.82c-8.73,2-19.92,3.37-33.38,3.37s-24.92-1.46-33.66-3.37c-7.82-2-12.01-4.18-13.46-6.46,1.46,9.82,4.82,19.1,9.28,27.29,3.37,5.09,6.73,9.55,10.1,14.37,1.46,2.82,2.46,5.64,3.09,8.46,2.18,3.09,5.37,5.09,9.28,6.19,4.82,1.73,9.82,2.46,14.92,2.18h.55c5.09.27,10.46-.55,15.37-2.18,3.64-1.18,6.73-3.09,9.01-6.19h.27c.55-2.82,1.46-5.64,2.82-8.46,3.37-4.82,6.73-9.28,10.1-14.37,4.46-8.1,7.55-17.37,9.28-27.29-1.82,2.55-6,4.73-13.55,6.46h0Z"/></svg>