<?xml version="1.0" encoding="UTF-8" standalone="no"?>
<!DOCTYPE svg PUBLIC "-//W3C//DTD SVG 1.1//EN" "http://www.w3.org/Graphics/SVG/1.1/DTD/svg11.dtd">
<!-- Created with Vectornator (http://vectornator.io/) -->
<svg height="100%" stroke-miterlimit="10" style="fill-rule:nonzero;clip-rule:evenodd;stroke-linecap:round;stroke-linejoin:round;" version="1.1" viewBox="0 0 512 512" width="100%" xml:space="preserve" xmlns="http://www.w3.org/2000/svg" xmlns:vectornator="http://vectornator.io" xmlns:xlink="http://www.w3.org/1999/xlink">
<defs/>
<g id="Ebene-1" vectornator:layerName="Ebene 1">
<path d="M2.84217e-14 95C2.84217e-14 42.5329 42.5329 0 95 0L417 0C469.467 0 512 42.5329 512 95L512 417C512 469.467 469.467 512 417 512L95 512C42.5329 512 2.84217e-14 469.467 2.84217e-14 417L2.84217e-14 95Z" fill="#28334c" fill-rule="nonzero" opacity="1" stroke="none" vectornator:layerName="Rechteck 1"/>
<path d="M219.926 127.595C220.244 129.505 219.289 131.097 216.105 132.689C211.967 130.46 203.052 129.186 195.73 129.823C187.77 130.46 181.085 133.007 182.041 138.419C183.314 143.831 190.955 147.016 204.645 145.741C238.072 142.876 237.754 120.272 286.783 115.815C324.986 112.314 346.315 124.094 349.181 138.419C351.409 149.561 342.177 160.387 314.479 162.616C289.965 164.844 275.639 158.158 274.365 151.472C273.728 147.97 275.639 142.876 287.418 141.603C288.693 147.016 295.378 152.746 311.296 151.154C322.757 150.198 332.307 146.06 331.034 139.693C329.761 133.007 317.663 129.186 298.561 130.779C259.721 134.28 250.171 155.611 217.06 158.477C193.501 160.705 174.399 152.107 171.852 139.375C170.898 134.599 170.898 123.457 195.73 121.228C208.464 120.272 218.652 122.5 219.926 127.595ZM95.7643 260.672C84.9403 274.361 80.1647 290.278 81.119 305.878C82.0747 321.478 89.7146 334.213 101.813 344.082C114.547 353.95 128.236 356.816 143.837 353.95C149.886 352.996 156.571 349.812 162.62 347.902C149.886 347.902 139.062 343.763 128.236 335.168C116.458 326.571 108.498 314.474 106.588 299.829C103.723 286.139 106.588 273.405 114.23 262.262C122.825 251.439 133.967 245.389 148.611 243.479C163.257 242.525 175.991 246.344 188.725 255.259C185.861 251.12 181.722 248.254 177.902 244.434C165.167 235.837 151.477 231.699 134.603 235.837C119.322 239.023 106.588 246.98 95.7643 260.672ZM266.407 187.129C225.337 187.129 188.727 182.991 162.302 177.26C133.967 170.255 119.004 162.616 119.004 152.746C119.004 148.607 120.915 145.104 126.646 140.965C108.817 147.97 99.2657 153.701 99.2657 162.616C100.221 172.484 116.14 182.353 148.611 189.994C179.175 197.635 218.334 201.773 265.452 201.773C313.524 201.773 351.728 197.635 382.291 189.994C414.764 182.353 430.363 172.166 430.363 162.616C430.363 155.611 423.359 148.925 410.625 143.831C413.49 145.741 415.719 148.925 415.719 152.427C415.719 162.297 401.073 170.255 371.466 176.941C344.086 182.991 309.067 187.129 266.407 187.129ZM383.565 214.508C353.001 221.513 313.843 226.288 266.724 226.288C218.652 226.288 179.494 221.194 148.93 214.508C121.551 207.504 106.908 199.863 101.813 191.904C106.907 226.288 118.687 258.76 134.287 287.413C146.066 305.241 157.844 320.841 169.624 337.715C174.718 347.584 178.22 357.453 180.448 367.323C188.09 378.146 199.233 385.151 212.921 388.971C229.796 395.019 247.305 397.566 265.134 396.612L267.043 396.612C284.871 397.566 303.656 394.701 320.847 388.971C333.581 384.832 344.405 378.146 352.365 367.323L353.319 367.323C355.229 357.452 358.414 347.584 363.189 337.715C374.969 320.841 386.749 305.241 398.527 287.413C414.127 259.078 424.952 226.606 431 191.904C424.633 200.819 409.988 208.459 383.565 214.508Z" fill="#ffffff" fill-rule="nonzero" opacity="1" stroke="none" vectornator:layerName="path"/>
</g>
</svg>
