<?xml version="1.0" encoding="UTF-8"?>
<svg id="Ebene_1" data-name="Ebene 1" xmlns="http://www.w3.org/2000/svg" viewBox="0 0 256 256">
  <defs>
    <style>
      .cls-1 {
        fill: #fff;
      }

      .cls-2 {
        fill: #28334c;
      }
    </style>
  </defs>
  <g id="Ebene_2" data-name="Ebene 2">
    <rect class="cls-2" width="256" height="256" rx="45" ry="45"/>
  </g>
  <path class="cls-1" d="m107.39,54.63c.18,1.09-.36,2-2.18,2.91-2.36-1.27-7.46-2-11.64-1.64-4.55.36-8.37,1.82-7.82,4.91.73,3.09,5.09,4.91,12.92,4.18,19.1-1.64,18.92-14.55,46.94-17.1,21.83-2,34.02,4.73,35.66,12.92,1.27,6.37-4,12.55-19.83,13.83-14.01,1.27-22.19-2.55-22.92-6.37-.36-2,.73-4.91,7.46-5.64.73,3.09,4.55,6.37,13.64,5.46,6.55-.55,12.01-2.91,11.28-6.55-.73-3.82-7.64-6-18.56-5.09-22.19,2-27.65,14.19-46.57,15.83-13.46,1.27-24.38-3.64-25.83-10.92-.55-2.73-.55-9.1,13.64-10.37,7.28-.55,13.1.73,13.83,3.64h-.02Zm-70.95,76.04c-6.19,7.82-8.91,16.92-8.37,25.83s4.91,16.19,11.82,21.83c7.28,5.64,15.1,7.28,24.01,5.64,3.46-.55,7.28-2.36,10.73-3.46-7.28,0-13.46-2.36-19.65-7.28-6.73-4.91-11.28-11.82-12.37-20.19-1.64-7.82,0-15.1,4.37-21.47,4.91-6.19,11.28-9.64,19.65-10.73,8.37-.55,15.65,1.64,22.92,6.73-1.64-2.36-4-4-6.19-6.19-7.28-4.91-15.1-7.28-24.74-4.91-8.73,1.82-16.01,6.37-22.19,14.19h.01Zm97.51-42.02c-23.47,0-44.39-2.36-59.49-5.64-16.19-4-24.74-8.37-24.74-14.01,0-2.36,1.09-4.37,4.37-6.73-10.19,4-15.65,7.28-15.65,12.37.55,5.64,9.64,11.28,28.2,15.65,17.46,4.37,39.84,6.73,66.77,6.73s49.3-2.36,66.77-6.73c18.56-4.37,27.47-10.19,27.47-15.65,0-4-4-7.82-11.28-10.73,1.64,1.09,2.91,2.91,2.91,4.91,0,5.64-8.37,10.19-25.29,14.01-15.65,3.46-35.66,5.82-60.03,5.82h0Zm66.95,15.65c-17.46,4-39.84,6.73-66.77,6.73s-49.85-2.91-67.31-6.73c-15.65-4-24.01-8.37-26.92-12.92,2.91,19.65,9.64,38.2,18.56,54.58,6.73,10.19,13.46,19.1,20.19,28.74,2.91,5.64,4.91,11.28,6.19,16.92,4.37,6.19,10.73,10.19,18.56,12.37,9.64,3.46,19.65,4.91,29.84,4.37h1.09c10.19.55,20.92-1.09,30.74-4.37,7.28-2.36,13.46-6.19,18.01-12.37h.55c1.09-5.64,2.91-11.28,5.64-16.92,6.73-9.64,13.46-18.56,20.19-28.74,8.91-16.19,15.1-34.75,18.56-54.58-3.64,5.09-12.01,9.46-27.11,12.92h0Z"/>
</svg>