<?xml version="1.0" encoding="UTF-8"?><svg id="Ebene_2" xmlns="http://www.w3.org/2000/svg" viewBox="0 0 128 128"><defs><style>.cls-1{fill:#fff;}.cls-2{fill:#444;}</style></defs><rect class="cls-2" x="0" y="0" width="128" height="128" rx="25" ry="25" transform="translate(128 0) rotate(90)"/><path class="cls-1" d="m104.91,111.73h-16.19l1.14-13.64h-7.95l-1.14,13.64h-33.52l-1.14-13.64h-7.95l1.14,13.64h-16.19l-9.09-59.09,22.73-36.36h54.55l22.73,36.36-9.09,59.09Zm-18.18-77.27h-14.61l.97,6.82h-18.18l.97-6.82h-14.61l-9.09,18.18,4.55,36.36h54.55l4.55-36.36-9.09-18.18Zm-7.95,42.48c-1.26,0-2.27-3.79-2.27-8.45s1.02-8.45,2.27-8.45,2.27,3.79,2.27,8.45-1.02,8.45-2.27,8.45Zm-28.69.7c-1.26,0-2.27-3.79-2.27-8.45s1.02-8.45,2.27-8.45,2.27,3.79,2.27,8.45-1.02,8.45-2.27,8.45Z"/></svg>