<?xml version="1.0" encoding="UTF-8"?>
<svg id="Ebene_1" data-name="Ebene 1" xmlns="http://www.w3.org/2000/svg" viewBox="0 0 256 256">
  <defs>
    <style>
      .cls-1 {
        fill: #fff;
      }

      .cls-2 {
        fill: #1b598e;
      }
    </style>
  </defs>
  <g id="Ebene_2" data-name="Ebene 2">
    <path class="cls-2" d="m256,221c0,19.3-15.7,35-35,35H35c-19.3,0-35-15.7-35-35V35C0,15.7,15.7,0,35,0h186c19.3,0,35,15.7,35,35"/>
  </g>
  <g>
    <path class="cls-1" d="m218,132.17h-8.5v8.5h-8.5v-8.5h-8.5v-8.5h8.5v-8.5h8.5v8.5h8.5v8.5m-31.03,0h-8.5v8.5h-8.5v-8.5h-8.5v-8.5h8.5v-8.5h8.5v8.5h8.5v8.5"/>
    <path class="cls-1" d="m144.44,146.12c-6.34,11.24-18.38,18.84-32.21,18.84s-25.72-7.5-32.09-18.63c-3.2-5.58-4.88-11.9-4.87-18.34,0-20.41,16.55-36.96,36.96-36.96,13.65,0,25.57,7.41,31.97,18.42l32.31-18.6c-12.84-22.17-36.82-37.08-64.28-37.08-41,0-74.23,33.23-74.23,74.23,0,13.45,3.58,26.06,9.83,36.94,12.81,22.28,36.85,37.29,64.4,37.29s51.68-15.07,64.47-37.42l-32.26-18.69"/>
  </g>
</svg>