<?xml version="1.0" encoding="UTF-8" standalone="no"?>
<!DOCTYPE svg PUBLIC "-//W3C//DTD SVG 1.1//EN" "http://www.w3.org/Graphics/SVG/1.1/DTD/svg11.dtd">
<!-- Created with Vectornator (http://vectornator.io/) -->
<svg height="100%" stroke-miterlimit="10" style="fill-rule:nonzero;clip-rule:evenodd;stroke-linecap:round;stroke-linejoin:round;" version="1.1" viewBox="0 0 512 512" width="100%" xml:space="preserve" xmlns="http://www.w3.org/2000/svg" xmlns:vectornator="http://vectornator.io" xmlns:xlink="http://www.w3.org/1999/xlink">
<defs/>
<g id="Ebene-1" vectornator:layerName="Ebene 1">
<path d="M2.84217e-14 95C2.84217e-14 42.5329 42.5329 0 95 0L417 0C469.467 0 512 42.5329 512 95L512 417C512 469.467 469.467 512 417 512L95 512C42.5329 512 2.84217e-14 469.467 2.84217e-14 417L2.84217e-14 95Z" fill="#1b598e" fill-rule="nonzero" opacity="1" stroke="none" vectornator:layerName="Rechteck 1"/>
<g opacity="1" vectornator:layerName="c.svg">
<path d="M222.98 100.52C153.222 100.52 94.1969 146.465 74.515 209.745C74.5099 209.761 74.52 209.784 74.515 209.799C69.9831 224.388 67.5 239.922 67.5 256C67.5 284.165 75.0113 310.601 88.1065 333.384C114.932 380.053 165.291 411.48 222.98 411.48C280.775 411.48 331.232 379.915 358.018 333.11L353.525 330.479L290.445 293.979C277.171 317.522 251.931 333.384 222.98 333.384C219.383 333.384 215.868 333.145 212.403 332.672C188.145 329.353 167.465 314.8 155.79 294.418C149.087 282.73 145.584 269.474 145.597 256C145.597 213.249 180.229 178.616 222.98 178.616C251.57 178.616 276.542 194.087 289.952 217.144L296.802 213.198L357.58 178.178C350.857 166.572 342.689 155.957 333.301 146.501C329.401 142.571 325.161 138.982 320.861 135.485C316.956 132.392 312.912 129.481 308.749 126.716C308.652 126.652 308.573 126.561 308.475 126.497C306.226 125.008 304.118 123.322 301.789 121.948C301.775 121.94 301.749 121.956 301.735 121.948C295.959 118.545 289.981 115.497 283.759 112.851C278.064 110.429 272.13 108.45 266.111 106.713C264.72 106.311 263.299 105.98 261.891 105.617C256.95 104.34 251.94 103.337 246.821 102.547C245.378 102.325 243.946 102.073 242.49 101.89C236.096 101.088 229.594 100.52 222.98 100.52Z" fill="#5c8dbc" fill-rule="nonzero" opacity="1" stroke="none" vectornator:layerName="path"/>
<path d="M343.879 229.146L343.879 246.903L326.068 246.903L326.068 264.714L343.879 264.714L343.879 282.525L361.69 282.525L361.69 264.714L379.502 264.714L379.502 246.903L361.69 246.903L361.69 229.146L343.879 229.146Z" fill="#5c8dbc" fill-rule="nonzero" opacity="1" stroke="none" vectornator:layerName="path"/>
<path d="M408.877 229.146L408.877 246.903L391.065 246.903L391.065 264.714L408.877 264.714L408.877 282.525L426.688 282.525L426.688 264.714L444.5 264.714L444.5 246.903L426.688 246.903L426.688 229.146L408.877 229.146Z" fill="#5c8dbc" fill-rule="nonzero" opacity="1" stroke="none" vectornator:layerName="path"/>
<path d="M290.445 293.979C277.171 317.522 251.931 333.384 222.98 333.384C194.207 333.384 169.133 317.711 155.79 294.418L88.1065 333.384C114.932 380.053 165.291 411.48 222.98 411.48C280.775 411.48 331.232 379.915 358.018 333.11L353.525 330.479L290.445 293.979Z" fill="#1a4674" fill-rule="nonzero" opacity="1" stroke="none" vectornator:layerName="path"/>
<path d="M343.879 229.146L343.879 246.903L326.068 246.903L326.068 264.714L343.879 264.714L343.879 282.525L361.69 282.525L361.69 264.714L379.502 264.714L379.502 246.903L361.69 246.903L361.69 229.146L343.879 229.146Z" fill="#1b598e" fill-rule="nonzero" opacity="1" stroke="none" vectornator:layerName="path"/>
<path d="M408.877 229.146L408.877 246.903L391.065 246.903L391.065 264.714L408.877 264.714L408.877 282.525L426.688 282.525L426.688 264.714L444.5 264.714L444.5 246.903L426.688 246.903L426.688 229.146L408.877 229.146Z" fill="#1b598e" fill-rule="nonzero" opacity="1" stroke="none" vectornator:layerName="path"/>
<path d="M444.485 264.732L426.677 264.732L426.677 282.541L408.868 282.541L408.868 264.732L391.062 264.732L391.062 246.926L408.868 246.926L408.868 229.12L426.677 229.12L426.677 246.926L444.485 246.926L444.485 264.732M379.511 264.732L361.705 264.732L361.705 282.541L343.899 282.541L343.899 264.732L326.091 264.732L326.091 246.926L343.899 246.926L343.899 229.12L361.705 229.12L361.705 246.926L379.511 246.926L379.511 264.732" fill="#ffffff" fill-rule="nonzero" opacity="1" stroke="none" vectornator:layerName="path"/>
<path d="M290.433 293.955C277.158 317.496 251.931 333.409 222.98 333.409C194.207 333.409 169.122 317.696 155.78 294.403C149.077 282.715 145.558 269.472 145.57 255.998C145.57 213.247 180.229 178.591 222.98 178.591C251.57 178.591 276.521 194.105 289.929 217.162L357.589 178.2C330.697 131.777 280.487 100.546 222.98 100.546C137.124 100.546 67.5268 170.146 67.5268 255.998C67.5268 284.163 75.0188 310.577 88.114 333.359C114.939 380.028 165.291 411.453 222.98 411.453C280.775 411.453 331.206 379.902 357.992 333.097L290.433 293.955" fill="#ffffff" fill-rule="nonzero" opacity="1" stroke="none" vectornator:layerName="path"/>
</g>
</g>
</svg>
