<?xml version="1.0" encoding="UTF-8"?><svg id="a" xmlns="http://www.w3.org/2000/svg" viewBox="0 0 128 128"><defs><style>.b{fill:#fff;}.c{fill:#09d3ac;}</style></defs><rect class="c" x="0" y="0" width="128" height="128" rx="25" ry="25" transform="translate(128 0) rotate(90)"/><path class="b" d="m105.33,59.19c0-5.1-6-9.62-15.22-12.38,2.22-9.37,1.25-16.83-3.17-19.35-1.08-.6-2.3-.91-3.54-.89-4.12,0-9.33,2.88-14.59,7.86-5.26-4.94-10.45-7.8-14.57-7.8-1.26-.03-2.5.28-3.6.9-4.39,2.53-5.3,9.94-3.11,19.27-9.18,2.74-15.15,7.23-15.16,12.3s6.01,9.62,15.23,12.37c-2.22,9.38-1.26,16.83,3.17,19.35,1.08.6,2.3.91,3.54.89,4.13,0,9.34-2.88,14.6-7.86,5.25,4.94,10.45,7.8,14.57,7.8,1.26.02,2.5-.29,3.6-.9,4.39-2.53,5.3-9.94,3.11-19.23,9.18-2.78,15.15-7.26,15.16-12.33Zm-33.13-23.09c6.06-5.42,9.85-6.01,11.19-6.01.62-.02,1.24.13,1.79.43,2.12,1.21,2.96,5.46,2.29,11.1-.17,1.44-.42,2.87-.74,4.28-3.07-.71-6.17-1.22-9.31-1.53-1.87-2.62-3.9-5.11-6.1-7.46.27-.27.57-.55.87-.81h0Zm-18.34,27.28c.58,1.11,1.19,2.22,1.83,3.34s1.3,2.25,2.04,3.37c-2-.29-3.95-.65-5.8-1.08.52-1.88,1.18-3.73,1.93-5.62h0Zm-2.05-14.08c1.94-.45,3.9-.81,5.87-1.08-.74,1.09-1.38,2.22-2.04,3.4s-1.25,2.22-1.82,3.34c-.75-1.92-1.42-3.81-2-5.66Zm3.85,9.87c.92-1.94,1.93-3.88,3.03-5.81,1.11-1.94,2.3-3.82,3.53-5.63,2.15-.16,4.37-.25,6.66-.24s4.44.09,6.58.26c1.23,1.79,2.4,3.7,3.51,5.59s2.13,3.86,3.05,5.79c-.91,1.94-1.92,3.88-3.02,5.81s-2.3,3.83-3.53,5.64c-2.15.17-4.37.25-6.66.25s-4.44-.1-6.58-.27c-1.23-1.79-2.41-3.65-3.52-5.59s-2.09-3.86-3.02-5.79h-.03Zm24.31-10.93c2.01.28,3.96.64,5.8,1.07-.55,1.83-1.2,3.7-1.95,5.59-.58-1.11-1.19-2.22-1.83-3.34s-1.32-2.24-1.98-3.32h-.03Zm2.04,18.43c.64-1.12,1.24-2.24,1.82-3.35.74,1.92,1.48,3.82,2,5.67-1.94.45-3.89.81-5.86,1.07.72-1.09,1.41-2.22,2.07-3.39h-.03Zm-13.19-27.25c1.33,1.42,2.64,2.96,3.92,4.61-1.26-.05-2.56-.09-3.87-.09s-2.65,0-3.94.09c1.26-1.64,2.56-3.19,3.89-4.61Zm-16.41-8.88c.56-.3,1.19-.44,1.83-.41,1.33.06,2.64.39,3.84.97,2.71,1.28,5.21,2.97,7.4,5.02l.87.79c-2.17,2.33-4.19,4.8-6.04,7.4-3.15.31-6.27.81-9.36,1.52-.33-1.44-.59-2.84-.74-4.19-.77-5.59.12-9.85,2.2-11.06v-.03Zm-3.91,37.51c-1.39-.42-2.76-.92-4.1-1.48-5.25-2.22-8.51-5.07-8.51-7.5s3.27-5.27,8.51-7.45c1.32-.55,2.66-1.02,4.02-1.44.92,3.06,2.05,6.06,3.37,8.98-1.29,2.89-2.4,5.85-3.31,8.88Zm17.01,14.13c-6.06,5.42-9.85,6-11.2,6-.62.02-1.24-.13-1.79-.43-2.12-1.21-2.96-5.46-2.29-11.1.17-1.44.42-2.86.74-4.28,3.07.71,6.17,1.22,9.31,1.52,1.86,2.62,3.9,5.11,6.1,7.46l-.87.82Zm3.38-3.34c-1.33-1.42-2.64-2.96-3.93-4.61,1.27.06,2.57.09,3.88.09s2.65,0,3.94-.08c-1.23,1.59-2.53,3.12-3.9,4.6h0Zm16.41,8.88c-.56.31-1.19.46-1.83.44-1.35,0-5.18-.59-11.21-5.99l-.87-.79c2.17-2.33,4.18-4.8,6.03-7.4,3.15-.3,6.28-.81,9.37-1.52.33,1.44.58,2.84.74,4.19.73,5.58-.12,9.84-2.23,11.04v.03Zm7.99-21.04c-1.26.52-2.6,1-4.02,1.43-.93-3.06-2.06-6.06-3.38-8.98,1.3-2.88,2.41-5.85,3.32-8.88,1.39.42,2.76.92,4.1,1.48,5.24,2.22,8.51,5.07,8.5,7.5s-3.27,5.24-8.52,7.42v.03Zm-24.47-.75c3.75,0,6.79-3.03,6.8-6.78,0-3.75-3.03-6.79-6.78-6.8-3.75,0-6.79,3.03-6.8,6.78,0,3.75,3.02,6.79,6.77,6.8,0,0,0,0,.01,0ZM23.7,18.22v81.85h90.3V18.22H23.7Zm86.77,78.33H27.23V21.75h83.24v74.8Zm-62.88-25.08c-2.22,9.38-1.26,16.83,3.17,19.35,1.08.6,2.3.91,3.54.89,4.13,0,9.34-2.88,14.6-7.86,5.25,4.94,10.45,7.8,14.57,7.8,1.26.02,2.5-.29,3.6-.9,4.39-2.53,5.3-9.94,3.11-19.23,9.18-2.75,15.15-7.23,15.16-12.3s-6-9.62-15.22-12.38c2.22-9.37,1.25-16.83-3.17-19.35-1.08-.6-2.3-.91-3.54-.89-4.12,0-9.33,2.88-14.59,7.86-5.26-4.94-10.45-7.8-14.57-7.8-1.26-.03-2.5.28-3.6.9-4.39,2.53-5.3,9.94-3.11,19.27-9.18,2.74-15.15,7.23-15.16,12.3s6.01,9.57,15.24,12.34h0Zm17.91,10.72c-6.06,5.42-9.85,6-11.2,6-.62.02-1.24-.13-1.79-.43-2.12-1.21-2.96-5.46-2.29-11.1.17-1.44.42-2.86.74-4.28,3.07.71,6.17,1.22,9.31,1.52,1.86,2.62,3.9,5.11,6.1,7.46l-.87.82Zm18.34-27.29c-.58-1.11-1.19-2.22-1.83-3.34s-1.33-2.22-2.01-3.32c2.01.28,3.96.64,5.8,1.07-.54,1.83-1.19,3.7-1.95,5.59h0Zm2.01,14.06c-1.94.45-3.89.81-5.86,1.07.7-1.09,1.38-2.22,2.04-3.39.67-1.16,1.27-2.28,1.82-3.35.78,1.96,1.45,3.84,1.98,5.7v-.04Zm-3.85-9.88c-.91,1.94-1.92,3.88-3.02,5.81s-2.3,3.83-3.53,5.64c-2.15.17-4.37.25-6.66.25s-4.44-.1-6.58-.27c-1.23-1.79-2.41-3.65-3.52-5.59s-2.12-3.86-3.05-5.79c.92-1.94,1.93-3.88,3.03-5.81,1.11-1.94,2.3-3.82,3.53-5.63,2.15-.16,4.37-.25,6.66-.24s4.44.09,6.58.26c1.23,1.79,2.4,3.7,3.51,5.59s2.14,3.9,3.06,5.83v-.04Zm-24.27,11.01c-2-.29-3.95-.65-5.8-1.08.55-1.82,1.21-3.7,1.96-5.59.58,1.11,1.19,2.22,1.83,3.34s1.27,2.21,2.01,3.33Zm-2.06-18.49c-.64,1.11-1.25,2.22-1.82,3.34-.77-1.91-1.45-3.79-2.03-5.64,1.94-.45,3.9-.81,5.87-1.08-.69,1.09-1.35,2.23-2.01,3.37h0Zm13.23,27.26c-1.33-1.42-2.64-2.96-3.93-4.61,1.27.06,2.57.09,3.88.09s2.65,0,3.94-.08c-1.27,1.64-2.57,3.18-3.89,4.6Zm16.41,8.88c-.56.31-1.19.46-1.83.44-1.35,0-5.18-.59-11.21-5.99l-.87-.79c2.17-2.33,4.18-4.8,6.03-7.4,3.15-.3,6.28-.81,9.37-1.52.33,1.44.58,2.84.74,4.19.74,5.58-.11,9.84-2.22,11.04v.03Zm3.91-37.48c1.39.42,2.76.92,4.1,1.48,5.24,2.22,8.51,5.07,8.5,7.5s-3.26,5.3-8.51,7.48c-1.26.52-2.6,1-4.02,1.43-.93-3.06-2.06-6.06-3.38-8.98,1.3-2.9,2.41-5.89,3.32-8.94v.03Zm-17.01-14.12c6.06-5.42,9.85-6.01,11.19-6.01.62-.02,1.24.13,1.79.43,2.12,1.21,2.96,5.46,2.29,11.1-.17,1.44-.42,2.87-.74,4.28-3.07-.71-6.17-1.22-9.31-1.53-1.87-2.62-3.9-5.11-6.1-7.46.28-.3.58-.58.88-.84v.03Zm-3.37,3.3c1.33,1.42,2.64,2.96,3.92,4.61-1.26-.05-2.56-.09-3.87-.09s-2.65,0-3.94.09c1.26-1.64,2.56-3.19,3.89-4.61Zm-16.41-8.88c.56-.3,1.19-.44,1.83-.41,1.33.06,2.64.39,3.84.97,2.71,1.28,5.21,2.97,7.4,5.02l.87.79c-2.17,2.33-4.19,4.8-6.04,7.4-3.15.31-6.27.81-9.36,1.52-.33-1.44-.59-2.84-.74-4.19-.77-5.59.12-9.85,2.2-11.06v-.03Zm-8,21.08c1.32-.55,2.66-1.02,4.02-1.44.92,3.06,2.05,6.06,3.37,8.98-1.3,2.88-2.41,5.85-3.32,8.88-1.39-.42-2.76-.92-4.1-1.48-5.25-2.22-8.51-5.07-8.51-7.5s3.28-5.26,8.53-7.44Zm24.41.74c-3.75,0-6.79,3.03-6.8,6.78,0,3.75,3.03,6.79,6.78,6.8,3.75,0,6.79-3.03,6.8-6.78.03-3.75-2.99-6.81-6.73-6.84-.02,0-.03,0-.05,0v.04Zm0,0c-3.75,0-6.79,3.03-6.8,6.78,0,3.75,3.03,6.79,6.78,6.8,3.75,0,6.79-3.03,6.8-6.78.03-3.75-2.99-6.81-6.73-6.84-.02,0-.03,0-.05,0v.04Zm0,0c-3.75,0-6.79,3.03-6.8,6.78,0,3.75,3.03,6.79,6.78,6.8,3.75,0,6.79-3.03,6.8-6.78.03-3.75-2.99-6.81-6.73-6.84-.02,0-.03,0-.05,0v.04Zm36.51,6.84c0-5.1-6-9.62-15.22-12.38,2.22-9.37,1.25-16.83-3.17-19.35-1.08-.6-2.3-.91-3.54-.89-4.12,0-9.33,2.88-14.59,7.86-5.26-4.94-10.45-7.8-14.57-7.8-1.26-.03-2.5.28-3.6.9-4.39,2.53-5.3,9.94-3.11,19.27-9.18,2.74-15.15,7.23-15.16,12.3s6.01,9.62,15.23,12.37c-2.22,9.38-1.26,16.83,3.17,19.35,1.08.6,2.3.91,3.54.89,4.13,0,9.34-2.88,14.6-7.86,5.25,4.94,10.45,7.8,14.57,7.8,1.26.02,2.5-.29,3.6-.9,4.39-2.53,5.3-9.94,3.11-19.23,9.18-2.8,15.15-7.28,15.16-12.35h0Zm-33.13-23.1c6.06-5.42,9.85-6.01,11.19-6.01.62-.02,1.24.13,1.79.43,2.12,1.21,2.96,5.46,2.29,11.1-.17,1.44-.42,2.87-.74,4.28-3.07-.71-6.17-1.22-9.31-1.53-1.87-2.62-3.9-5.11-6.1-7.46.27-.27.57-.55.87-.81h0Zm-18.34,27.28c.58,1.11,1.19,2.22,1.83,3.34s1.3,2.25,2.04,3.37c-2-.29-3.95-.65-5.8-1.08.52-1.88,1.18-3.73,1.93-5.62h0Zm-2.05-14.08c1.94-.45,3.9-.81,5.87-1.08-.74,1.09-1.38,2.22-2.04,3.4s-1.25,2.22-1.82,3.34c-.75-1.92-1.42-3.81-2-5.66Zm3.85,9.87c.92-1.94,1.93-3.88,3.03-5.81,1.11-1.94,2.3-3.82,3.53-5.63,2.15-.16,4.37-.25,6.66-.24s4.44.09,6.58.26c1.23,1.79,2.4,3.7,3.51,5.59s2.13,3.86,3.05,5.79c-.91,1.94-1.92,3.88-3.02,5.81s-2.3,3.83-3.53,5.64c-2.15.17-4.37.25-6.66.25s-4.44-.1-6.58-.27c-1.23-1.79-2.41-3.65-3.52-5.59s-2.09-3.86-3.02-5.79h-.03Zm24.31-10.93c2.01.28,3.96.64,5.8,1.07-.55,1.83-1.2,3.7-1.95,5.59-.58-1.11-1.19-2.22-1.83-3.34s-1.32-2.24-1.98-3.32h-.03Zm2.04,18.43c.64-1.12,1.24-2.24,1.82-3.35.74,1.92,1.48,3.82,2,5.67-1.94.45-3.89.81-5.86,1.07.72-1.09,1.41-2.22,2.07-3.39h-.03Zm-13.19-27.25c1.33,1.42,2.64,2.96,3.92,4.61-1.26-.05-2.56-.09-3.87-.09s-2.65,0-3.94.09c1.26-1.64,2.56-3.19,3.89-4.61Zm-16.41-8.88c.56-.3,1.19-.44,1.83-.41,1.33.06,2.64.39,3.84.97,2.71,1.28,5.21,2.97,7.4,5.02l.87.79c-2.17,2.33-4.19,4.8-6.04,7.4-3.15.31-6.27.81-9.36,1.52-.33-1.44-.59-2.84-.74-4.19-.77-5.59.12-9.85,2.2-11.06v-.03Zm-3.91,37.51c-1.39-.42-2.76-.92-4.1-1.48-5.25-2.22-8.51-5.07-8.51-7.5s3.27-5.27,8.51-7.45c1.32-.55,2.66-1.02,4.02-1.44.92,3.06,2.05,6.06,3.37,8.98-1.29,2.89-2.4,5.85-3.31,8.88Zm17.01,14.13c-6.06,5.42-9.85,6-11.2,6-.62.02-1.24-.13-1.79-.43-2.12-1.21-2.96-5.46-2.29-11.1.17-1.44.42-2.86.74-4.28,3.07.71,6.17,1.22,9.31,1.52,1.86,2.62,3.9,5.11,6.1,7.46l-.87.82Zm3.38-3.34c-1.33-1.42-2.64-2.96-3.93-4.61,1.27.06,2.57.09,3.88.09s2.65,0,3.94-.08c-1.23,1.59-2.53,3.12-3.9,4.6h0Zm16.41,8.88c-.56.31-1.19.46-1.83.44-1.35,0-5.18-.59-11.21-5.99l-.87-.79c2.17-2.33,4.18-4.8,6.03-7.4,3.15-.3,6.28-.81,9.37-1.52.33,1.44.58,2.84.74,4.19.73,5.58-.12,9.84-2.23,11.04v.03Zm7.99-21.04c-1.26.52-2.6,1-4.02,1.43-.93-3.06-2.06-6.06-3.38-8.98,1.3-2.88,2.41-5.85,3.32-8.88,1.39.42,2.76.92,4.1,1.48,5.24,2.22,8.51,5.07,8.5,7.5s-3.27,5.24-8.52,7.42v.03Zm-24.47-.75c3.75,0,6.79-3.03,6.8-6.78,0-3.75-3.03-6.79-6.78-6.8-3.75,0-6.79,3.03-6.8,6.78,0,3.75,3.02,6.79,6.77,6.8,0,0,0,0,.01,0Zm-51.28,40.32V24.37l-3.54,3.55v81.86h90.29l3.54-3.53H17.54Z"/></svg>