<?xml version="1.0" encoding="UTF-8"?>
<svg id="Ebene_1" data-name="Ebene 1" xmlns="http://www.w3.org/2000/svg" viewBox="0 0 256 256">
  <defs>
    <style>
      .cls-1 {
        fill: #fff;
      }

      .cls-2 {
        fill: #390091;
      }
    </style>
  </defs>
  <g id="Ebene_2" data-name="Ebene 2">
    <path class="cls-2" d="m256,221c0,19.3-15.7,35-35,35H35c-19.3,0-35-15.7-35-35V35C0,15.7,15.7,0,35,0h186c19.3,0,35,15.7,35,35"/>
  </g>
  <g>
    <path class="cls-1" d="m188,103.66v12h12v-12h6v12h12v6h-12v12h12v6h-12v12h-6v-12h-12v12h-6v-12h-12v-6h12v-12h-12v-6h12v-12h6Zm12,18h-12v12h12v-12Z"/>
    <path class="cls-1" d="m122.6,43.4c31.3,0,58.62,17,73.26,42.26l-.14-.24-36.82,21.2c-7.25-12.28-20.55-20.57-35.81-20.74h-.48c-23.27,0-42.13,18.86-42.13,42.13,0,7.33,1.91,14.54,5.56,20.9,7.26,12.68,20.91,21.23,36.57,21.23s29.49-8.66,36.71-21.47l-.18.31,36.77,21.3c-14.48,25.05-41.43,42-72.36,42.33h-.94c-31.4,0-58.8-17.1-73.4-42.5-7.13-12.4-11.2-26.77-11.2-42.1,0-46.72,37.88-84.6,84.6-84.6h0Z"/>
  </g>
</svg>