<?xml version="1.0" encoding="UTF-8"?>
<svg id="Ebene_1" data-name="Ebene 1" xmlns="http://www.w3.org/2000/svg" viewBox="0 0 256 256">
  <defs>
    <style>
      .cls-1 {
        fill: #fff;
      }

      .cls-2 {
        fill: #1c88c7;
      }
    </style>
  </defs>
  <g id="Ebene_2" data-name="Ebene 2">
    <path class="cls-2" d="m256,35v186c0,19.3-15.7,35-35,35H35c-19.3,0-35-15.7-35-35V35C0,15.7,15.7,0,35,0h186c19.3,0,35,15.7,35,35Z"/>
  </g>
  <path class="cls-1" d="m208.65,38H47.35l4.37,31.45h76.54l-75.32,32.33,4.37,30.41h110.97l-4.02,42.47-37.57,7.34-34.08-8.74-2.62-24.12h-31.28l4.19,50.16,67.11,18.7,64.31-20.45,8.21-98.04h-67.99l74.1-30.76v-30.76Z"/>
</svg>