<?xml version="1.0" encoding="UTF-8"?><svg id="Ebene_1" xmlns="http://www.w3.org/2000/svg" xmlns:xlink="http://www.w3.org/1999/xlink" viewBox="0 0 128 128"><defs><style>.cls-1{fill:url(#Unbenannter_Verlauf_6-2);}.cls-2{fill:#fff;}.cls-3{fill:url(#Unbenannter_Verlauf_4);}.cls-4{fill:#e8e8e8;}.cls-5{fill:#ccc;}.cls-6{fill:url(#Unbenannter_Verlauf_6);}.cls-7{fill:url(#Unbenannter_Verlauf_6-3);}</style><linearGradient id="Unbenannter_Verlauf_4" x1="0" y1="64" x2="128" y2="64" gradientUnits="userSpaceOnUse"><stop offset="0" stop-color="#f26d58"/><stop offset="1" stop-color="#f9a03c"/></linearGradient><linearGradient id="Unbenannter_Verlauf_6" x1="-.43" y1="129.83" x2=".22" y2="129.13" gradientTransform="translate(91.8 10599.9) scale(82.49 -81.43)" gradientUnits="userSpaceOnUse"><stop offset="0" stop-color="#f9a03c"/><stop offset="1" stop-color="#f7974e"/></linearGradient><linearGradient id="Unbenannter_Verlauf_6-2" x1="-.8" y1="131.76" x2=".46" y2="130.54" gradientTransform="translate(43.47 5363.13) scale(40.21 -40.41)" xlink:href="#Unbenannter_Verlauf_6"/><linearGradient id="Unbenannter_Verlauf_6-3" x1="-1.5" y1="132.69" x2="-.39" y2="131.41" gradientTransform="translate(96.32 5354.48) scale(41.04 -39.93)" xlink:href="#Unbenannter_Verlauf_6"/></defs><rect class="cls-3" x="0" y="0" width="128" height="128" rx="25" ry="25" transform="translate(128 0) rotate(90)"/><path class="cls-6" d="m108.86,83.14c.04-.39.07-.79.09-1.19.03-.47-28.33-27.38-28.33-27.38h-.68s28.74,30.32,28.92,28.56h0Z"/><path class="cls-1" d="m48.36,73.8c-.04.08-.08.17-.11.25-.04.09-.08.17-.12.26-.9,1.88,12.66,15.14,13.75,13.53.05-.07.1-.15.15-.22.06-.08.11-.17.16-.25.87-1.32-13.44-14.43-13.82-13.57h0Z"/><path class="cls-7" d="m67.52,92.44c-.04.08-.31.55-.56.79-.04.08,13.24,13.25,13.24,13.25h1.2s-12.47-13.49-13.87-14.04h0Z"/><path class="cls-4" d="m108.97,81.71c-.62,13.77-12.01,24.77-25.93,24.77h-1.88l-13.9-13.69c1.14-1.61,2.21-3.28,3.15-5.02h12.63c3.99,0,7.24-3.25,7.24-7.24s-3.25-7.24-7.24-7.24h-7.47c.57-3.01.88-6.11.88-9.29s-.32-6.37-.91-9.43h4.64l28.7,28.28c.03-.38.06-.76.08-1.14h0ZM26.55,21.37h-7.55v18.71h7.55c13.19,0,23.91,10.73,23.91,23.91,0,3.59-.8,6.99-2.22,10.05l13.77,13.57c4.52-6.77,7.17-14.89,7.17-23.62,0-23.5-19.12-42.63-42.63-42.63h0Z"/><path class="cls-5" d="m83.05,21.37h-30.57c7.47,4.56,13.65,11.02,17.86,18.71h12.71c3.99,0,7.24,3.25,7.24,7.24s-3.25,7.24-7.24,7.24h-2.86l28.7,28.28c.07-.77.11-1.54.11-2.32,0-6.31-2.26-12.1-6.02-16.6,3.76-4.5,6.02-10.29,6.02-16.6,0-14.31-11.64-25.96-25.95-25.96h0Z"/><path class="cls-2" d="m81.16,106.49h-28.47c5.73-3.54,10.69-8.21,14.57-13.69l13.9,13.69h0Zm-19.15-18.87l-13.77-13.57c-3.8,8.18-12.1,13.86-21.69,13.86h-7.55v18.71h7.55c14.77,0,27.81-7.56,35.46-19h0Z"/></svg>