<?xml version="1.0" encoding="UTF-8"?>
<svg id="Ebene_1" data-name="Ebene 1" xmlns="http://www.w3.org/2000/svg" viewBox="0 0 256 256">
  <defs>
    <style>
      .cls-1 {
        fill: #0079b3;
      }

      .cls-2 {
        fill: #55ddca;
      }

      .cls-3 {
        fill: #0081c6;
      }

      .cls-4 {
        fill: #27282c;
      }

      .cls-5 {
        fill: #00d2b8;
      }

      .cls-6 {
        fill: #00a4e4;
      }
    </style>
  </defs>
  <g id="Ebene_2" data-name="Ebene 2">
    <rect class="cls-4" width="256" height="256" rx="45" ry="45"/>
  </g>
  <g>
    <path class="cls-5" d="m77.33,76.73l-11.71-11.71.05,84.65.14,3.96c.06,1.86.4,3.96.98,6.14l92.8,32.72,23.2-10.28v-.03l-105.45-105.46"/>
    <path class="cls-2" d="m66.78,159.77h0s-.03-.08-.03-.11c0,.04,0,.08.02.11h.01Zm115.99,22.44l-23.2,10.28-92.79-32.72c1.77,6.8,5.7,14.44,9.92,18.63l30.28,30.11,67.33.09,8.46-26.41v.03h0Z"/>
    <path class="cls-3" d="m29.55,119.5c-3,3.2-1.51,9.8,3.32,14.67l20.82,21,13.09,4.61c-.58-2.18-.92-4.28-.98-6.14l-.14-3.96-.05-84.65-36.07,54.48h.01Z"/>
    <path class="cls-1" d="m160.34,66.11c-2.18-.56-4.27-.9-6.16-.96l-4.18-.14h-84.39l117.18,117.18h0l10.29-23.22-32.76-92.86"/>
    <path class="cls-6" d="m160.24,66.08s.08.02.11.03h0s-.06-.02-.11-.03h0Zm18.72,9.96c-4.25-4.29-11.8-8.19-18.61-9.94l32.75,92.86-10.29,23.22h0l25.15-8.03.05-68.95-29.04-29.15h0Z"/>
    <path class="cls-5" d="m155.75,53.09l-20.99-20.84c-4.85-4.81-11.46-6.31-14.65-3.32l-54.5,36.07h84.39l4.18.13c1.89.06,3.98.4,6.16.96l-4.59-13.02h0v.02Z"/>
  </g>
</svg>