<?xml version="1.0" encoding="UTF-8"?>
<svg id="Ebene_1" data-name="Ebene 1" xmlns="http://www.w3.org/2000/svg" xmlns:xlink="http://www.w3.org/1999/xlink" viewBox="0 0 256 256">
  <defs>
    <style>
      .cls-1 {
        fill: #fff;
      }

      .cls-2 {
        fill: url(#Unbenannter_Verlauf_2);
      }

      .cls-3 {
        fill: url(#Unbenannter_Verlauf_4);
      }

      .cls-4 {
        fill: url(#Unbenannter_Verlauf_8);
      }

      .cls-5 {
        fill: #9775f8;
      }

      .cls-6 {
        fill: #27282c;
      }

      .cls-7 {
        fill: url(#Unbenannter_Verlauf_3);
      }
    </style>
    <linearGradient id="Unbenannter_Verlauf_8" data-name="Unbenannter Verlauf 8" x1="16.67" y1="-5105.4" x2="17.57" y2="-5107.64" gradientTransform="translate(-178 99787.07) scale(19.53)" gradientUnits="userSpaceOnUse">
      <stop offset="0" stop-color="#9775f8"/>
      <stop offset=".95" stop-color="#22d88f"/>
    </linearGradient>
    <linearGradient id="Unbenannter_Verlauf_2" data-name="Unbenannter Verlauf 2" x1="12.72" y1="-5102.34" x2="13.88" y2="-5097.27" gradientTransform="translate(-178 99787.07) scale(19.53)" gradientUnits="userSpaceOnUse">
      <stop offset="0" stop-color="#9775f8"/>
      <stop offset=".21" stop-color="#689cce"/>
      <stop offset=".42" stop-color="#42bdac"/>
      <stop offset=".59" stop-color="#2bd197"/>
      <stop offset=".69" stop-color="#22d88f"/>
    </linearGradient>
    <linearGradient id="Unbenannter_Verlauf_3" data-name="Unbenannter Verlauf 3" x1="10.71" y1="-5102.7" x2="20.8" y2="-5097.13" gradientTransform="translate(-178 99787.07) scale(19.53)" gradientUnits="userSpaceOnUse">
      <stop offset=".08" stop-color="#22d88f"/>
      <stop offset=".72" stop-color="#9775f8"/>
    </linearGradient>
    <linearGradient id="Unbenannter_Verlauf_4" data-name="Unbenannter Verlauf 4" x1="9.91" y1="-5103.89" x2="20.05" y2="-5103.89" gradientTransform="translate(-178 99787.07) scale(19.53)" gradientUnits="userSpaceOnUse">
      <stop offset=".08" stop-color="#22d88f"/>
      <stop offset=".27" stop-color="#5ab0b4"/>
      <stop offset=".56" stop-color="#b86cf2"/>
      <stop offset="1" stop-color="#ff59e6"/>
    </linearGradient>
  </defs>
  <g id="Ebene_2" data-name="Ebene 2">
    <rect class="cls-6" width="256" height="256" rx="35" ry="35"/>
  </g>
  <g>
    <path class="cls-5" d="m226.09,50.3l14.41,92.11-54.49,31.99-10.55-52.38,50.63-71.72h0Z"/>
    <path class="cls-4" d="m226.09,50.3L145.58,15.5l-67.5,56.25,97.38,50.27,50.63-71.72Z"/>
    <path class="cls-2" d="m167.38,240.5l-93.87-126.91-28.12,18.98-27.77,83.67,149.77,24.26Z"/>
    <path class="cls-7" d="m185.3,176.52l-66.09-43.24-103.71-14.06,151.88,121.29,17.93-63.98Z"/>
    <path class="cls-3" d="m15.5,16.91v102.3l195.12,67.15,15.47-136.05L15.5,16.91Z"/>
    <g>
      <path d="m57.69,57.69h140.62v140.62H57.69V57.69Z"/>
      <path class="cls-1" d="m71.94,75.97h22.66c18.3,0,30.96,12.57,30.96,28.95v.23c0,16.38-12.64,29.11-30.96,29.11h-22.66v-58.29Zm12.81,11.6v35.16h9.84c10.55,0,17.58-7.03,17.58-17.38v-.19c0-10.32-7.03-17.58-17.58-17.58h-9.84Zm43.12,17.68v-.11c-.17-16.5,13.07-30.02,29.58-30.19.32,0,.64,0,.96,0,10.55,0,16.8,2.83,22.85,7.98l-8.07,9.74c-4.1-3.9-9.57-6.02-15.22-5.91-9.32,0-16.72,8.23-16.72,18.14v.23c0,10.65,7.31,18.47,17.58,18.47,4.29.12,8.51-1.11,12.06-3.52v-8.37h-12.81v-11.06h25.29v25.28c-6.9,5.99-15.74,9.27-24.87,9.25-18.19,0-30.62-12.73-30.62-29.95h0Zm-57.25,66.67h52.73v8.79h-52.73v-8.79Z"/>
    </g>
  </g>
</svg>