<?xml version="1.0" encoding="UTF-8"?>
<svg id="Ebene_1" data-name="Ebene 1" xmlns="http://www.w3.org/2000/svg" xmlns:xlink="http://www.w3.org/1999/xlink" viewBox="0 0 256 256">
  <defs>
    <style>
      .cls-1 {
        fill: #fff;
      }

      .cls-2 {
        fill: url(#Unbenannter_Verlauf_2);
      }

      .cls-3 {
        fill: url(#Unbenannter_Verlauf_4);
      }

      .cls-4 {
        fill: url(#Unbenannter_Verlauf);
      }

      .cls-5 {
        fill: #9775f8;
      }

      .cls-6 {
        fill: #27282c;
      }

      .cls-7 {
        fill: url(#Unbenannter_Verlauf_3);
      }
    </style>
    <linearGradient id="Unbenannter_Verlauf" data-name="Unbenannter Verlauf" x1="16.46" y1="5361.16" x2="17.26" y2="5363.15" gradientTransform="translate(-178 104786.75) scale(19.53 -19.53)" gradientUnits="userSpaceOnUse">
      <stop offset="0" stop-color="#9775f8"/>
      <stop offset=".95" stop-color="#22d88f"/>
    </linearGradient>
    <linearGradient id="Unbenannter_Verlauf_2" data-name="Unbenannter Verlauf 2" x1="13.11" y1="5358.41" x2="14.14" y2="5353.91" gradientTransform="translate(-178 104786.75) scale(19.53 -19.53)" gradientUnits="userSpaceOnUse">
      <stop offset="0" stop-color="#9775f8"/>
      <stop offset=".21" stop-color="#689cce"/>
      <stop offset=".42" stop-color="#42bdac"/>
      <stop offset=".59" stop-color="#2bd197"/>
      <stop offset=".69" stop-color="#22d88f"/>
    </linearGradient>
    <linearGradient id="Unbenannter_Verlauf_3" data-name="Unbenannter Verlauf 3" x1="11.38" y1="5358.94" x2="20.35" y2="5353.99" gradientTransform="translate(-178 104786.75) scale(19.53 -19.53)" gradientUnits="userSpaceOnUse">
      <stop offset=".08" stop-color="#22d88f"/>
      <stop offset=".72" stop-color="#9775f8"/>
    </linearGradient>
    <linearGradient id="Unbenannter_Verlauf_4" data-name="Unbenannter Verlauf 4" x1="10.55" y1="5360.07" x2="19.56" y2="5360.07" gradientTransform="translate(-178 104786.75) scale(19.53 -19.53)" gradientUnits="userSpaceOnUse">
      <stop offset=".08" stop-color="#22d88f"/>
      <stop offset=".27" stop-color="#5ab0b4"/>
      <stop offset=".56" stop-color="#b86cf2"/>
      <stop offset="1" stop-color="#ff59e6"/>
    </linearGradient>
  </defs>
  <g id="Ebene_2" data-name="Ebene 2">
    <rect class="cls-6" width="256" height="256" rx="35" ry="35"/>
  </g>
  <g>
    <path class="cls-5" d="m215.19,58.93l12.81,81.88-48.44,28.44-9.38-46.56,45-63.75h0Z"/>
    <path class="cls-4" d="m215.19,58.93l-71.56-30.93-60,50,86.56,44.68s45-63.75,45-63.75Z"/>
    <path class="cls-2" d="m163,228l-83.44-112.81-25,16.87-24.68,74.37,133.13,21.56h0Z"/>
    <path class="cls-7" d="m178.93,171.12l-58.75-38.44-92.19-12.5,135,107.81,15.94-56.87h0Z"/>
    <path class="cls-3" d="m28,29.25v90.93l173.44,59.69,13.75-120.93L28,29.25Z"/>
    <g>
      <path d="m65.5,65.5h125v125h-125v-125Z"/>
      <path class="cls-1" d="m78.17,81.75h20.14c16.27,0,27.52,11.17,27.52,25.73v.2c0,14.56-11.24,25.88-27.52,25.88h-20.14v-51.81Zm11.39,10.31v31.25h8.75c9.38,0,15.63-6.25,15.63-15.45v-.17c0-9.17-6.25-15.63-15.63-15.63h-8.75Zm38.33,15.72v-.1c-.15-14.67,11.62-26.68,26.29-26.84h.85c9.38,0,14.93,2.52,20.31,7.09l-7.17,8.66c-3.64-3.47-8.51-5.35-13.53-5.25-8.28,0-14.86,7.32-14.86,16.12v.2c0,9.47,6.5,16.42,15.63,16.42,3.81.11,7.56-.99,10.72-3.13v-7.44h-11.39v-9.83h22.48v22.47c-6.13,5.32-13.99,8.24-22.11,8.22-16.17,0-27.22-11.32-27.22-26.62h0v.02Zm-50.89,59.26h46.87v7.81h-46.87v-7.81Z"/>
    </g>
  </g>
</svg>