<?xml version="1.0" encoding="UTF-8"?>
<svg id="Ebene_1" data-name="Ebene 1" xmlns="http://www.w3.org/2000/svg" xmlns:xlink="http://www.w3.org/1999/xlink" viewBox="0 0 256 256">
  <defs>
    <style>
      .cls-1 {
        fill: #fff;
      }

      .cls-2 {
        fill: url(#Unbenannter_Verlauf_2);
      }

      .cls-3 {
        fill: url(#Unbenannter_Verlauf_4);
      }

      .cls-4 {
        fill: url(#Unbenannter_Verlauf);
      }

      .cls-5 {
        fill: #27282c;
      }

      .cls-6 {
        fill: url(#Unbenannter_Verlauf_5);
      }

      .cls-7 {
        fill: #21d789;
      }

      .cls-8 {
        fill: url(#Unbenannter_Verlauf_3);
      }
    </style>
    <linearGradient id="Unbenannter_Verlauf" data-name="Unbenannter Verlauf" x1="2.08" y1="253.7" x2="1.31" y2="253.7" gradientTransform="translate(-178 39463.2) scale(169.6 -155.2)" gradientUnits="userSpaceOnUse">
      <stop offset="0" stop-color="#21d789"/>
      <stop offset=".92" stop-color="#fcf84a"/>
    </linearGradient>
    <linearGradient id="Unbenannter_Verlauf_2" data-name="Unbenannter Verlauf 2" x1="1.87" y1="253.95" x2="1.87" y2="252.8" gradientTransform="translate(-40.67 36384.01) scale(118.67 -142.93)" gradientUnits="userSpaceOnUse">
      <stop offset="0" stop-color="#21d789"/>
      <stop offset="1" stop-color="#087cfa"/>
    </linearGradient>
    <linearGradient id="Unbenannter_Verlauf_3" data-name="Unbenannter Verlauf 3" x1="2.26" y1="253.15" x2="1.1" y2="254" gradientTransform="translate(-90 38696) scale(168 -152)" gradientUnits="userSpaceOnUse">
      <stop offset=".1" stop-color="#21d789"/>
      <stop offset=".97" stop-color="#087cfa"/>
    </linearGradient>
    <linearGradient id="Unbenannter_Verlauf_4" data-name="Unbenannter Verlauf 4" x1="1.9" y1="254.89" x2="1.55" y2="254.29" gradientTransform="translate(-175.6 65268) scale(167.2 -256)" gradientUnits="userSpaceOnUse">
      <stop offset=".23" stop-color="#21d789"/>
      <stop offset=".74" stop-color="#087cfa"/>
    </linearGradient>
    <linearGradient id="Unbenannter_Verlauf_5" data-name="Unbenannter Verlauf 5" x1="1.64" y1="254.37" x2="1.64" y2="253.66" gradientTransform="translate(-128 39718) scale(156 -156)" gradientUnits="userSpaceOnUse">
      <stop offset=".08" stop-color="#878585"/>
      <stop offset=".54" stop-color="#000"/>
    </linearGradient>
  </defs>
  <g id="Ebene_2" data-name="Ebene 2">
    <rect class="cls-5" width="256" height="256" rx="45" ry="45"/>
  </g>
  <g>
    <polygon class="cls-4" points="156.54 28 160.5 109.25 59.25 149.25 28 68.42 156.54 28"/>
    <polygon class="cls-7" points="228 75.5 140.5 113.41 156.54 28 228 75.5"/>
    <polygon class="cls-2" points="135.29 94.25 228 75.5 228 163.21 164.25 187.16 138.2 163.41 135.29 94.25"/>
    <polygon class="cls-8" points="96.75 68.62 160.71 78.52 228 162.43 163.41 187.38 138.49 162.63 96.75 68.62"/>
    <polygon class="cls-3" points="69.25 28 160.5 78.42 129.04 228 75.92 228 29.88 180.5 69.25 28"/>
    <polygon class="cls-6" points="188.93 67.07 67.07 67.07 67.07 188.93 188.93 188.93 188.93 67.07"/>
    <path class="cls-1" d="m125.96,167.95h-45.37v7.45h45.37s0-7.45,0-7.45Zm-44.84-85.26h17.82c14.45,0,24.2,9.75,24.2,22.52s-9.75,22.86-24.2,22.86l-17.82.34s0-45.72,0-45.72Zm10.09,9.41v27.24h7.73c8.07,0,13.79-5.38,13.79-13.45s-5.38-13.79-13.79-13.79h-7.73Zm36.79,29.4l5.89-7.11c4.06,3.45,8.53,5.48,13.61,5.48,4.06,0,6.7-1.63,6.7-4.27v-.2c0-2.64-1.63-3.86-9.14-5.89-9.34-2.23-15.24-4.87-15.24-14.02v-.2c0-8.33,6.7-13.81,16.04-13.81,6.7,0,12.39,2.04,17.07,5.89l-5.28,7.52c-4.06-2.84-8.12-4.47-11.98-4.47s-5.89,1.83-5.89,4.06v.2c0,3.05,2.04,4.06,9.96,6.1,9.34,2.44,14.62,5.69,14.62,13.81v.2c0,9.14-6.91,14.22-16.86,14.22-6.91-.2-14.02-2.64-19.5-7.52h0Z"/>
  </g>
</svg>