<?xml version="1.0" encoding="UTF-8"?>
<svg id="Ebene_1" data-name="Ebene 1" xmlns="http://www.w3.org/2000/svg" xmlns:xlink="http://www.w3.org/1999/xlink" viewBox="0 0 256 256">
  <defs>
    <style>
      .cls-1 {
        fill: #fff;
      }

      .cls-2 {
        fill: url(#Unbenannter_Verlauf_2);
      }

      .cls-3 {
        fill: url(#Unbenannter_Verlauf_4);
      }

      .cls-4 {
        fill: #27282c;
      }

      .cls-5 {
        fill: url(#Unbenannter_Verlauf_5);
      }

      .cls-6 {
        fill: #21d789;
      }

      .cls-7 {
        fill: url(#Unbenannter_Verlauf_3);
      }

      .cls-8 {
        fill: url(#Unbenannter_Verlauf_9);
      }
    </style>
    <linearGradient id="Unbenannter_Verlauf_9" data-name="Unbenannter Verlauf 9" x1="2.12" y1="253.73" x2="1.25" y2="253.73" gradientTransform="translate(-178 39463.2) scale(169.6 -155.2)" gradientUnits="userSpaceOnUse">
      <stop offset="0" stop-color="#21d789"/>
      <stop offset=".92" stop-color="#fcf84a"/>
    </linearGradient>
    <linearGradient id="Unbenannter_Verlauf_2" data-name="Unbenannter Verlauf 2" x1="1.93" y1="253.99" x2="1.93" y2="252.69" gradientTransform="translate(-40.67 36384.01) scale(118.67 -142.93)" gradientUnits="userSpaceOnUse">
      <stop offset="0" stop-color="#21d789"/>
      <stop offset="1" stop-color="#087cfa"/>
    </linearGradient>
    <linearGradient id="Unbenannter_Verlauf_3" data-name="Unbenannter Verlauf 3" x1="2.38" y1="253.07" x2="1.07" y2="254.03" gradientTransform="translate(-90 38696) scale(168 -152)" gradientUnits="userSpaceOnUse">
      <stop offset=".1" stop-color="#21d789"/>
      <stop offset=".97" stop-color="#087cfa"/>
    </linearGradient>
    <linearGradient id="Unbenannter_Verlauf_4" data-name="Unbenannter Verlauf 4" x1="1.91" y1="254.95" x2="1.51" y2="254.27" gradientTransform="translate(-175.6 65268) scale(167.2 -256)" gradientUnits="userSpaceOnUse">
      <stop offset=".23" stop-color="#21d789"/>
      <stop offset=".74" stop-color="#087cfa"/>
    </linearGradient>
    <linearGradient id="Unbenannter_Verlauf_5" data-name="Unbenannter Verlauf 5" x1="1.64" y1="254.44" x2="1.64" y2="253.65" gradientTransform="translate(-128 39718) scale(156 -156)" gradientUnits="userSpaceOnUse">
      <stop offset=".08" stop-color="#878585"/>
      <stop offset=".54" stop-color="#000"/>
    </linearGradient>
  </defs>
  <g id="Ebene_2" data-name="Ebene 2">
    <rect class="cls-4" width="256" height="256" rx="35" ry="35"/>
  </g>
  <g>
    <polygon class="cls-8" points="160.11 15.5 164.56 106.91 50.66 151.91 15.5 60.97 160.11 15.5"/>
    <polygon class="cls-6" points="240.5 68.94 142.06 111.59 160.11 15.5 240.5 68.94"/>
    <polygon class="cls-2" points="136.2 90.03 240.5 68.94 240.5 167.61 168.78 194.56 139.48 167.84 136.2 90.03"/>
    <polygon class="cls-7" points="92.84 61.2 164.8 72.34 240.5 166.73 167.84 194.8 139.8 166.96 92.84 61.2"/>
    <polygon class="cls-3" points="61.91 15.5 164.56 72.22 129.17 240.5 69.41 240.5 17.61 187.06 61.91 15.5"/>
    <polygon class="cls-5" points="196.55 59.45 59.45 59.45 59.45 196.55 196.55 196.55 196.55 59.45"/>
    <path class="cls-1" d="m125.71,172.94h-51.04v8.38h51.04v-8.38Zm-50.45-95.92h20.05c16.26,0,27.23,10.97,27.23,25.34s-10.97,25.72-27.23,25.72l-20.05.38v-51.44Zm11.35,10.59v30.64h8.7c9.08,0,15.51-6.05,15.51-15.13s-6.05-15.51-15.51-15.51h-8.7Zm41.39,33.07l6.63-8c4.57,3.88,9.6,6.17,15.31,6.17,4.57,0,7.54-1.83,7.54-4.8v-.23c0-2.97-1.83-4.34-10.28-6.63-10.51-2.51-17.14-5.48-17.14-15.77v-.23c0-9.37,7.54-15.54,18.05-15.54,7.54,0,13.94,2.29,19.2,6.63l-5.94,8.46c-4.57-3.2-9.14-5.03-13.48-5.03s-6.63,2.06-6.63,4.57v.23c0,3.43,2.29,4.57,11.2,6.86,10.51,2.74,16.45,6.4,16.45,15.54v.23c0,10.28-7.77,16-18.97,16-7.77-.23-15.77-2.97-21.94-8.46h0Z"/>
  </g>
</svg>