<?xml version="1.0" encoding="UTF-8"?>
<svg id="Ebene_1" data-name="Ebene 1" xmlns="http://www.w3.org/2000/svg" viewBox="0 0 256 256">
  <defs>
    <style>
      .cls-1 {
        fill: #fff;
      }

      .cls-2 {
        fill: #a80030;
      }
    </style>
  </defs>
  <g id="Ebene_2" data-name="Ebene 2">
    <rect class="cls-2" width="256" height="256" rx="45" ry="45"/>
  </g>
  <g>
    <path class="cls-1" d="m145.25,134.23c-3.65.05.69,1.88,5.45,2.61,1.31-1.03,2.51-2.07,3.57-3.08-2.96.73-5.98.74-9.02.46"/>
    <path class="cls-1" d="m164.82,129.36c2.17-3,3.75-6.28,4.31-9.67-.49,2.42-1.8,4.51-3.03,6.71-6.81,4.29-.64-2.55,0-5.15-7.33,9.22-1.01,5.53-1.27,8.11"/>
    <path class="cls-1" d="m172.04,110.56c.44-6.56-1.29-4.49-1.87-1.98.68.35,1.22,4.63,1.87,1.98"/>
    <path class="cls-1" d="m131.43,20.84c1.95.35,4.2.62,3.89,1.08,2.13-.47,2.61-.9-3.89-1.08"/>
    <path class="cls-1" d="m135.32,21.92l-1.38.28,1.28-.11.1-.17"/>
    <path class="cls-1" d="m195.98,113.05c.22,5.9-1.72,8.76-3.47,13.82l-3.15,1.57c-2.58,5.01.25,3.18-1.6,7.16-4.02,3.58-12.21,11.2-14.84,11.89-1.91-.04,1.3-2.26,1.72-3.13-5.39,3.7-4.32,5.55-12.56,7.8l-.24-.54c-20.32,9.56-48.55-9.39-48.18-35.24-.22,1.64-.62,1.23-1.07,1.89-1.05-13.3,6.14-26.66,18.27-32.12,11.86-5.87,25.77-3.46,34.27,4.46-4.67-6.11-13.96-12.6-24.97-11.99-10.79.17-20.88,7.03-24.24,14.47-5.53,3.48-6.17,13.41-8.57,15.23-3.24,23.81,6.09,34.1,21.88,46.2,2.49,1.68.7,1.93,1.04,3.21-5.25-2.46-10.05-6.16-14-10.7,2.1,3.07,4.36,6.05,7.28,8.39-4.95-1.68-11.55-11.98-13.48-12.4,8.53,15.27,34.59,26.77,48.24,21.06-6.32.23-14.34.13-21.43-2.49-2.98-1.53-7.03-4.71-6.31-5.3,18.63,6.96,37.87,5.27,53.99-7.65,4.1-3.19,8.58-8.63,9.87-8.7-1.95,2.93.33,1.41-1.16,4,4.09-6.59-1.78-2.68,4.22-11.38l2.22,3.05c-.82-5.47,6.79-12.11,6.02-20.76,1.75-2.65,1.95,2.85.1,8.93,2.57-6.75.68-7.84,1.34-13.41.71,1.87,1.65,3.86,2.13,5.84-1.68-6.52,1.72-10.99,2.56-14.78-.83-.37-2.59,2.88-2.99-4.82.06-3.35.93-1.75,1.27-2.58-.66-.38-2.38-2.94-3.43-7.86.76-1.16,2.03,3,3.07,3.17-.67-3.91-1.81-6.9-1.86-9.9-3.02-6.32-1.07.84-3.52-2.71-3.22-10.04,2.67-2.33,3.07-6.89,4.88,7.07,7.66,18.02,8.93,22.55-.97-5.53-2.55-10.89-4.47-16.07,1.48.62-2.39-11.38,1.93-3.43-4.6-16.94-19.71-32.77-33.6-40.2,1.7,1.56,3.85,3.51,3.08,3.82-6.91-4.11-5.69-4.43-6.68-6.17-5.63-2.29-6,.18-9.73,0-10.61-5.63-12.65-5.03-22.42-8.55l.44,2.08c-7.03-2.34-8.19.89-15.79,0-.46-.36,2.43-1.31,4.82-1.65-6.8.9-6.48-1.34-13.13.25,1.64-1.15,3.37-1.91,5.12-2.89-5.54.34-13.23,3.23-10.86.6-9.04,4.03-25.09,9.69-34.1,18.14l-.28-1.89c-4.13,4.96-18,14.8-19.11,21.22l-1.1.26c-2.15,3.64-3.54,7.76-5.24,11.5-2.81,4.79-4.12,1.84-3.72,2.59-5.53,11.2-8.27,20.62-10.64,28.34,1.69,2.53.04,15.2.68,25.35-2.78,50.11,35.17,98.77,76.65,110.01,6.08,2.17,15.12,2.09,22.81,2.31-9.07-2.59-10.25-1.38-19.09-4.46-6.38-3-7.77-6.43-12.29-10.35l1.79,3.16c-8.86-3.13-5.15-3.88-12.36-6.16l1.91-2.49c-2.87-.22-7.6-4.84-8.9-7.4l-3.14.12c-3.77-4.66-5.78-8.01-5.64-10.61l-1.01,1.81c-1.15-1.97-13.88-17.46-7.28-13.86-1.23-1.12-2.86-1.83-4.63-5.04l1.34-1.54c-3.18-4.09-5.85-9.33-5.65-11.08,1.7,2.29,2.87,2.72,4.04,3.11-8.03-19.92-8.48-1.1-14.56-20.27l1.29-.1c-.99-1.48-1.58-3.1-2.38-4.68l.56-5.58c-5.78-6.68-1.62-28.41-.78-40.33.58-4.85,4.82-10.01,8.05-18.1l-1.97-.34c3.76-6.56,21.47-26.35,29.68-25.33,3.97-4.99-.79-.02-1.57-1.28,8.73-9.03,11.47-6.38,17.36-8.01,6.35-3.77-5.45,1.47-2.44-1.44,10.98-2.81,7.78-6.38,22.11-7.8,1.51.86-3.51,1.33-4.77,2.44,9.15-4.48,28.96-3.46,41.82,2.49,14.93,6.98,31.7,27.6,32.36,47l.75.2c-.38,7.71,1.18,16.63-1.53,24.83l1.84-3.88"/>
    <path class="cls-1" d="m105.47,139.24l-.51,2.56c2.4,3.25,4.3,6.78,7.36,9.32-2.2-4.3-3.84-6.07-6.84-11.88"/>
    <path class="cls-1" d="m111.13,139.01c-1.27-1.4-2.02-3.09-2.86-4.77.8,2.96,2.45,5.5,3.98,8.08l-1.12-3.31"/>
    <path class="cls-1" d="m211.35,117.23l-.54,1.34c-.98,6.97-3.1,13.88-6.35,20.27,3.59-6.75,5.91-14.14,6.89-21.62"/>
    <path class="cls-1" d="m132.15,19.09c2.46-.9,6.06-.49,8.67-1.09-3.41.29-6.8.46-10.15.89l1.47.2"/>
    <path class="cls-1" d="m45.62,65.1c.57,5.26-3.96,7.3,1,3.83,2.66-5.99-1.04-1.65-1-3.83"/>
    <path class="cls-1" d="m39.8,89.44c1.14-3.51,1.35-5.61,1.79-7.64-3.16,4.03-1.45,4.9-1.79,7.64"/>
  </g>
</svg>