<?xml version="1.0" encoding="UTF-8" standalone="no"?>
<!DOCTYPE svg PUBLIC "-//W3C//DTD SVG 1.1//EN" "http://www.w3.org/Graphics/SVG/1.1/DTD/svg11.dtd">
<!-- Created with Vectornator (http://vectornator.io/) -->
<svg height="100%" stroke-miterlimit="10" style="fill-rule:nonzero;clip-rule:evenodd;stroke-linecap:round;stroke-linejoin:round;" version="1.1" viewBox="0 0 512 512" width="100%" xml:space="preserve" xmlns="http://www.w3.org/2000/svg" xmlns:vectornator="http://vectornator.io" xmlns:xlink="http://www.w3.org/1999/xlink">
<defs/>
<g id="Ebene-1" vectornator:layerName="Ebene 1">
<path d="M2.84217e-14 95C2.84217e-14 42.5329 42.5329 0 95 0L417 0C469.467 0 512 42.5329 512 95L512 417C512 469.467 469.467 512 417 512L95 512C42.5329 512 2.84217e-14 469.467 2.84217e-14 417L2.84217e-14 95Z" fill="#222222" fill-rule="nonzero" opacity="1" stroke="none" vectornator:layerName="Rechteck 1"/>
<g opacity="1" vectornator:layerName="g">
<path d="M240.259 56.1028C239.325 56.2012 236.324 56.5455 233.619 56.7915C195.153 60.825 157.277 77.1067 126.386 102.98C120.68 107.702 107.694 120.688 102.972 126.394C77.3934 156.941 62.4399 191.226 56.9307 231.807C55.7009 240.809 55.7009 271.208 56.9307 280.21C62.4399 320.791 77.3934 355.076 102.972 385.622C107.694 391.328 120.68 404.314 126.386 409.036C156.933 434.615 191.218 449.568 231.799 455.078C240.8 456.307 271.2 456.307 280.201 455.078C320.782 449.568 355.067 434.615 385.614 409.036C391.32 404.314 404.306 391.328 409.028 385.622C434.607 355.076 449.56 320.791 455.069 280.21C456.299 271.208 456.299 240.809 455.069 231.807C449.56 191.226 434.607 156.941 409.028 126.394C404.306 120.688 391.32 107.702 385.614 102.98C355.166 77.5002 320.536 62.3499 280.496 56.9882C276.168 56.398 269.871 56.152 258.214 56.0536C249.31 55.9552 241.194 56.0044 240.259 56.1028ZM242.719 77.3526C242.719 83.1078 243.112 95.6019 243.653 107.457C243.949 113.261 244.293 121.574 244.441 125.903C244.982 141.25 246.605 181.536 246.851 185.127L247.097 188.717L244.883 188.471C243.653 188.373 242.522 188.078 242.325 187.93C242.178 187.734 241.833 184.339 241.637 180.355C240.751 162.844 237.849 94.9132 237.554 84.977L237.259 74.0569L238.636 73.8602C239.374 73.7618 240.604 73.6142 241.391 73.565L242.719 73.5158L242.719 77.3526ZM289.793 76.1721C289.842 76.2213 289.99 91.0764 290.137 109.178C290.334 127.329 290.58 143.611 290.728 145.381C290.875 147.202 290.826 148.776 290.58 148.874C290.383 149.022 289.154 149.022 287.924 148.874L285.661 148.677L285.317 134.363C285.12 126.444 284.874 117.688 284.776 114.835C284.382 106.128 284.038 76.5656 284.333 75.8277C284.53 75.2867 285.071 75.2375 287.137 75.5818C288.563 75.8769 289.744 76.1229 289.793 76.1721ZM176.018 92.6505C176.313 93.0932 178.625 120.197 181.478 155.662C182.413 167.713 183.347 178.732 183.495 180.109C183.741 182.618 183.692 182.716 182.118 183.7C181.232 184.241 180.347 184.684 180.15 184.684C180.002 184.684 179.707 183.405 179.56 181.831C178.871 175.436 176.215 144.545 174.346 122.213C173.263 109.08 172.28 97.3235 172.132 96.0446C171.886 93.8802 171.935 93.6835 173.214 92.9948C174.788 92.1586 175.674 92.011 176.018 92.6505ZM311.436 102.538C312.814 103.029 312.961 103.275 313.256 106.079C313.748 110.998 313.601 134.511 313.06 134.511C311.633 134.511 308.682 132.838 308.436 131.904C308.288 131.313 308.141 124.328 308.141 116.409C308.141 100.422 307.944 101.357 311.436 102.538ZM220.584 104.849C220.584 106.178 220.928 113.507 221.322 121.23C221.715 128.952 222.158 138.741 222.354 142.971C222.699 151.53 222.797 151.235 219.501 151.432C217.878 151.481 217.878 151.481 217.78 149.022C217.681 147.644 217.436 143.365 217.14 139.43C216.894 135.494 216.304 126.985 215.911 120.492C215.517 113.999 215.025 107.555 214.878 106.178C214.583 103.718 214.632 103.62 215.96 103.128C216.747 102.833 218.124 102.587 219.01 102.587C220.584 102.538 220.584 102.538 220.584 104.849ZM357.035 111.588L358.707 112.277L359.052 118.868C359.199 122.459 359.298 130.231 359.199 136.085L359.052 146.808L356.986 145.775L354.92 144.791L354.772 128.46C354.674 119.459 354.723 111.834 354.821 111.49C355.018 110.752 355.018 110.752 357.035 111.588ZM267.215 118.032C267.51 118.327 268.199 142.184 268.248 154.285L268.297 161.565L265.985 161.22C264.657 161.073 263.575 160.925 263.526 160.876C263.378 160.778 261.903 124.328 261.903 120.787L261.903 117.147L264.411 117.442C265.838 117.639 267.068 117.885 267.215 118.032ZM380.498 121.525C381.089 122.213 381.187 132.986 381.334 192.407C381.482 260.632 381.482 262.403 380.597 262.403C380.056 262.403 379.318 262.108 378.875 261.764C378.137 261.222 378.039 255.271 377.793 196.981C377.596 161.663 377.35 129.592 377.203 125.706L376.907 118.622L378.334 119.655C379.17 120.246 380.105 121.082 380.498 121.525ZM336.375 131.608C336.621 131.805 336.867 134.609 336.916 137.806C337.162 148.677 337.212 215.329 336.966 215.526C336.867 215.624 335.982 215.378 334.998 214.984L333.227 214.247L333.227 130.576L334.605 130.871C335.342 131.067 336.129 131.363 336.375 131.608ZM200.613 134.363C200.76 135.691 201.006 138.692 201.154 141.151C201.301 143.561 201.646 149.071 201.941 153.35C202.531 162.008 202.433 162.549 199.629 162.549C198.153 162.549 197.957 162.401 197.76 160.925C197.268 158.023 195.546 133.822 195.792 133.428C196.038 133.084 198.596 132.199 199.777 132.1C200.072 132.051 200.465 133.084 200.613 134.363ZM119.254 146.906C119.795 152.12 120.877 163.04 121.664 171.157C122.5 179.273 123.189 186.159 123.189 186.455C123.189 187.045 119.401 188.914 119.008 188.521C118.762 188.275 113.843 144.742 113.843 142.774C113.843 141.594 117.63 136.626 118.122 137.167C118.27 137.265 118.762 141.643 119.254 146.906ZM312.125 152.071L313.552 152.907L313.601 163.532C313.65 169.337 313.748 175.83 313.748 177.945C313.847 182.372 313.306 183.11 310.649 182.175L309.125 181.634L309.125 177.404C309.125 175.043 308.977 168.205 308.78 162.155L308.485 151.235L309.616 151.235C310.207 151.235 311.338 151.629 312.125 152.071ZM140.848 171.157C141.733 180.601 143.16 196.538 144.094 206.573L145.767 224.773L143.848 226.692L141.979 228.61L141.635 224.724C141.438 222.56 140.454 212.525 139.421 202.392C138.388 192.259 136.913 177.551 136.175 169.73L134.797 155.564L136.716 153.793C138.437 152.17 138.634 152.12 138.979 153.006C139.175 153.498 140.011 161.663 140.848 171.157ZM104.005 177.109C105.087 186.799 107.94 212.574 110.399 234.365C112.859 256.156 115.171 277.16 115.614 281.095C116.007 285.03 116.696 290.982 117.089 294.376C117.778 300.131 117.778 300.525 116.991 301.115C115.81 302 115.318 301.902 115.318 300.869C115.318 300.426 114.876 296.688 114.335 292.654C113.449 285.915 111.974 274.504 108.678 248.876C107.989 243.711 106.661 233.43 105.727 226.003C104.743 218.575 103.316 207.508 102.529 201.408C101.742 195.309 100.414 184.881 99.5778 178.142C98.6924 171.452 98.1513 165.5 98.2989 164.86C98.6432 163.532 101.545 158.909 101.841 159.204C101.939 159.351 102.923 167.369 104.005 177.109ZM88.9529 198.309C89.6908 204.212 91.0681 214.984 92.0027 222.314C92.9373 229.594 94.1178 238.694 94.6589 242.481L95.5935 249.368L94.5605 250.253C93.9703 250.745 93.38 250.942 93.1832 250.745C92.9865 250.548 92.593 248.581 92.2978 246.416C92.0027 244.252 90.1827 231.61 88.2151 218.379L84.7227 194.276L85.854 190.931C86.4443 189.111 87.0837 187.635 87.2313 187.635C87.4281 187.635 88.1659 192.456 88.9529 198.309ZM359.003 191.865C359.691 192.554 359.79 195.604 359.79 218.182L359.79 243.711L358.412 243.711C355.412 243.711 355.461 244.449 355.264 216.509L355.117 191.078L356.691 191.078C357.527 191.078 358.609 191.423 359.003 191.865ZM251.327 200.67C262.444 202.343 272.134 205.442 281.726 210.361C287.924 213.558 290.875 215.771 297.762 222.363C307.993 232.152 314.289 240.71 320.192 252.811C328.8 270.421 332.145 286.014 336.375 327.825C338.294 346.566 340.802 380.556 341.344 394.476C341.491 398.51 341.835 405.151 342.131 409.233C342.672 417.891 343.311 416.71 335.687 420.399C325.111 425.515 314.929 429.057 301.5 432.352C285.071 436.386 274.446 437.665 258.214 437.714L246.408 437.763L246.506 432.106C246.506 429.007 246.802 421.777 247.097 416.12C248.572 388.721 248.277 354.141 246.359 334.957C245.277 323.939 243.162 310.559 241.981 307.608C241.735 306.969 242.866 306.427 247.736 304.755C256.639 301.656 264.362 297.77 265.543 295.852C267.658 292.212 263.87 286.998 259.05 286.998C258.214 286.998 255.705 287.883 253.393 288.916C242.375 293.983 220.289 299.934 207.548 301.263C198.744 302.197 185.069 301.656 175.575 299.934C170.411 299 161.163 295.507 153.44 291.523C144.537 286.899 139.077 280.751 137.454 273.471C136.568 269.535 136.814 261.665 137.946 257.238C139.175 252.368 142.619 245.285 145.767 241.153C159.786 222.707 188.709 206.721 218.37 201.113C227.814 199.342 241.194 199.145 251.327 200.67ZM403.076 202.195C404.847 202.933 405.044 203.13 405.044 204.802C405.142 218.231 404.847 248.925 404.601 250.204C404.552 250.647 401.994 250.696 400.912 250.302C400.223 250.056 400.125 247.4 400.125 225.708C400.125 210.164 400.322 201.408 400.617 201.408C400.863 201.408 401.994 201.753 403.076 202.195ZM424.572 229.2L426.343 229.938L425.998 270.667C425.605 322.562 425.556 324.086 423.687 328.563C420.637 335.892 420.784 337.368 421.079 305.198C421.178 289.113 421.424 272.831 421.522 269.044C421.621 265.256 421.719 254.582 421.768 245.285C421.768 234.07 421.916 228.462 422.26 228.462C422.555 228.462 423.588 228.807 424.572 229.2ZM128.747 241.448C129.042 245.433 128.944 245.826 127.517 248.974L125.943 252.319L125.353 247.4C124.418 239.53 124.418 239.186 126.288 238.005C127.124 237.415 128.009 237.021 128.157 237.12C128.304 237.218 128.6 239.186 128.747 241.448ZM98.3481 271.109C98.7908 275.143 102.234 301.902 104.005 315.036C106.661 335.351 106.858 338.253 105.677 337.023C105.53 336.876 104.398 330.038 103.218 321.824C95.5443 268.798 95.5935 269.142 96.233 268.748C97.5611 267.863 98.0038 268.355 98.3481 271.109ZM133.764 293.638C134.06 294.868 135.486 308.198 135.486 309.822C135.486 311.199 133.715 312.478 132.928 311.691C132.682 311.445 132.043 307.264 131.551 302.443C131.01 297.573 130.469 292.507 130.321 291.179L130.026 288.719L131.748 290.687C132.731 291.769 133.617 293.097 133.764 293.638ZM173.46 312.183C174.001 312.675 174.346 314.642 174.788 319.955C175.526 329.546 175.625 328.809 173.608 328.809C171.542 328.809 171.591 328.956 170.902 320.299C170.214 311.494 170.214 311.592 171.542 311.592C172.181 311.592 173.018 311.887 173.46 312.183ZM212.418 312.92C212.517 313.412 212.763 316.364 212.959 319.463C213.107 322.562 213.55 329.546 213.943 334.957C215.32 354.83 215.37 357.338 214.533 357.338C213.599 357.338 213.5 356.601 212.418 342.582C212.025 336.777 211.287 327.628 210.795 322.266C210.352 316.905 210.057 312.429 210.205 312.33C210.746 311.74 212.172 312.183 212.418 312.92ZM119.942 322.365C120.237 322.808 122.107 338.548 124.418 360.044C125.107 366.537 125.796 372.784 125.943 373.964L126.189 376.08L124.96 375.293C124.025 374.653 123.681 374.014 123.681 372.882C123.681 369.783 121.565 349.37 119.942 336.876C119.008 329.792 118.27 323.545 118.27 322.955C118.27 321.922 119.45 321.529 119.942 322.365ZM403.814 342.926L403.47 363.487L402.24 365.307C399.436 369.439 399.584 370.226 399.731 347.205L399.83 326.103L401.65 324.234C402.633 323.25 403.617 322.414 403.814 322.414C403.962 322.414 403.962 331.662 403.814 342.926ZM358.314 375.539C358.56 404.118 358.511 406.331 357.724 407.216C357.232 407.758 356.789 408.102 356.641 407.954C356.297 407.561 355.805 345.238 356.199 344.894C356.395 344.697 356.887 344.598 357.33 344.648C357.97 344.795 358.117 348.288 358.314 375.539ZM197.661 355.961C198.006 359.011 199.235 373.62 199.727 380.507C200.023 385.13 200.023 385.278 198.94 385.622C198.35 385.819 197.661 385.77 197.465 385.524C197.12 385.18 196.038 374.26 194.71 357.437L194.366 353.403L195.891 353.403C197.317 353.403 197.415 353.502 197.661 355.961ZM158.999 373.177C159.343 373.522 159.589 374.751 159.589 375.981C159.589 377.26 160.179 383.901 160.819 390.787C162.688 409.627 162.835 412.185 161.999 411.693C160.72 410.955 159.589 409.823 159.835 409.528C159.933 409.332 159.736 406.872 159.343 404.068C158.999 401.215 158.556 396.592 158.359 393.739C158.162 390.886 157.72 385.672 157.326 382.179C156.392 373.571 156.441 372.587 157.523 372.587C158.015 372.587 158.654 372.833 158.999 373.177ZM182.265 406.282C182.413 407.364 182.708 411.398 182.905 415.234C183.249 422.613 183.101 423.154 181.085 421.629C180.494 421.186 180.101 419.317 179.511 413.709C178.478 403.576 178.428 403.97 180.347 404.167C181.773 404.314 181.97 404.511 182.265 406.282Z" fill="#f5f5f5" fill-rule="nonzero" opacity="1" stroke="none" vectornator:layerName="path"/>
<path d="M164.705 224.232C159.589 226.446 159.195 233.381 164.016 235.841C167.508 237.612 171.05 236.775 172.87 233.726C176.313 228.118 170.706 221.625 164.705 224.232ZM198.055 228.954C193.333 231.856 193.333 238.841 198.055 241.743C202.728 244.547 208.778 240.858 208.778 235.25C208.778 229.84 202.58 226.2 198.055 228.954Z" fill="#f5f5f5" fill-rule="nonzero" opacity="1" stroke="none" vectornator:layerName="path"/>
</g>
</g>
<g id="Ebene-2" vectornator:layerName="Ebene 2"/>
</svg>
