<?xml version="1.0" encoding="UTF-8"?><svg id="a" xmlns="http://www.w3.org/2000/svg" viewBox="0 0 128 128"><defs><style>.b{fill:#fff;}.c{fill:#222;}</style></defs><rect class="c" x="0" y="0" width="128" height="128" rx="25" ry="25" transform="translate(128 0) rotate(90)"/><path class="b" d="m59.67,9.03c.26-.03,2.49-.04,4.94-.01,3.21.03,4.94.09,6.13.26,11.01,1.47,20.53,5.64,28.91,12.65,1.57,1.3,5.14,4.87,6.44,6.44,7.03,8.4,11.15,17.83,12.66,28.99.34,2.48.34,10.84,0,13.31-1.52,11.16-5.63,20.59-12.66,28.99-1.3,1.57-4.87,5.14-6.44,6.44-8.4,7.03-17.83,11.15-28.99,12.66-2.48.34-10.84.34-13.31,0-11.16-1.52-20.59-5.63-28.99-12.66-1.57-1.3-5.14-4.87-6.44-6.44-7.03-8.4-11.15-17.83-12.66-28.99-.34-2.48-.34-10.84,0-13.31,1.52-11.16,5.63-20.59,12.66-28.99,1.3-1.57,4.87-5.14,6.44-6.44,8.5-7.12,18.91-11.59,29.49-12.7.74-.07,1.57-.16,1.83-.19Zm3.04,39.76c-2.79-.42-6.47-.37-9.06.12-8.16,1.54-16.11,5.94-19.97,11.01-.87,1.14-1.81,3.08-2.15,4.42-.31,1.22-.38,3.38-.14,4.46.45,2,1.95,3.69,4.4,4.96,2.12,1.1,4.67,2.06,6.09,2.31,2.61.47,6.37.62,8.79.37,3.5-.37,9.58-2,12.61-3.4.64-.28,1.33-.53,1.56-.53,1.33,0,2.37,1.43,1.79,2.43-.32.53-2.45,1.6-4.9,2.45-1.34.46-1.65.61-1.58.78.32.81.91,4.49,1.2,7.52.53,5.28.61,14.79.2,22.32-.08,1.56-.16,3.54-.16,4.4h0l-.03,1.56h3.25c4.46-.03,7.39-.38,11.9-1.49,3.69-.91,6.49-1.88,9.4-3.29,2.1-1.01,1.92-.69,1.77-3.07-.08-1.12-.18-2.95-.22-4.06-.15-3.83-.84-13.18-1.37-18.33-1.16-11.5-2.08-15.79-4.45-20.63-1.62-3.33-3.35-5.68-6.17-8.37-1.89-1.81-2.71-2.42-4.41-3.3-2.64-1.35-5.3-2.2-8.36-2.66Zm-19.52,55.96c-.53-.05-.51-.16-.23,2.62.16,1.54.27,2.06.43,2.18.55.42.6.27.5-1.76-.05-1.06-.14-2.16-.18-2.46-.08-.49-.14-.54-.53-.58Zm-6.28-8.68c-.3,0-.31.27-.05,2.64.11.96.23,2.39.28,3.18s.18,2.06.27,2.84c.11.77.16,1.45.14,1.5-.07.08.24.39.6.6.23.14.19-.57-.32-5.75-.18-1.89-.34-3.72-.34-4.07s-.07-.68-.16-.77-.27-.16-.41-.16Zm54.95-7.68c-.12-.01-.26.01-.31.07-.11.09.03,17.23.12,17.34.04.04.16-.05.3-.2.22-.24.23-.85.16-8.71-.05-7.49-.09-8.45-.27-8.5Zm-44.35,2.41h-.46s.09,1.11.09,1.11c.37,4.63.66,7.63.76,7.72.05.07.24.08.41.03.3-.09.3-.14.22-1.41-.14-1.89-.47-5.91-.57-6.75-.07-.68-.09-.7-.49-.7h.05Zm-20.93-8.54c-.14-.23-.46-.12-.46.16,0,.16.2,1.88.46,3.83.45,3.44,1.03,9.05,1.03,9.9,0,.31.09.49.35.66h0l.34.22-.07-.58c-.04-.32-.23-2.04-.42-3.83-.64-5.91-1.15-10.24-1.23-10.36Zm78.07.01c-.05,0-.32.23-.6.5h0l-.5.51-.03,5.8c-.04,6.33-.08,6.11.69,4.98h0l.34-.5.09-5.65c.04-3.1.04-5.64,0-5.64Zm-52.64-2.61c-.07-.2-.46-.32-.61-.16-.04.03.04,1.26.16,2.73.14,1.47.34,3.99.45,5.59.3,3.86.32,4.06.58,4.06.23,0,.22-.69-.16-6.15-.11-1.49-.23-3.41-.27-4.26-.05-.85-.12-1.66-.15-1.8Zm-31.37-11.5c-.09-.76-.22-.89-.58-.65-.18.11-.19.01,1.92,14.6.32,2.26.64,4.14.68,4.18.32.34.27-.46-.46-6.05-.49-3.61-1.43-10.97-1.56-12.08Zm89.08-11.73c-.09,0-.13,1.42-.14,4.27v.36c-.01,2.56-.04,5.49-.07,6.53-.03,1.04-.09,5.52-.12,9.94-.08,8.85-.12,8.44.72,6.43.51-1.23.53-1.65.64-15.92h0l.09-11.2-.49-.2c-.27-.11-.55-.2-.64-.2Zm-68.95,22.86c-.37,0-.37-.03-.18,2.39.18,2.25.18,2.34.65,2.34h.12c.52,0,.5.16.3-2.43-.12-1.46-.22-2-.37-2.14-.12-.08-.35-.16-.53-.16Zm-11.42-6.29l.08.68c.04.34.17,1.57.31,2.82l.03.28c.14,1.33.31,2.48.38,2.54.22.22.7-.14.7-.51,0-.45-.39-4.11-.47-4.45-.04-.15-.28-.51-.55-.81h0l-.47-.54Zm-7.75-35.62c-.08-.08-.88,1.19-.97,1.56-.04.18.11,1.81.35,3.65.23,1.85.6,4.72.81,6.4.22,1.68.61,4.72.88,6.76.26,2.04.62,4.87.81,6.29.91,7.05,1.31,10.19,1.56,12.04.15,1.11.27,2.14.27,2.26,0,.28.14.31.46.07.22-.16.22-.27.03-1.85-.11-.93-.3-2.57-.41-3.65-.12-1.08-.76-6.86-1.43-12.85-.68-5.99-1.46-13.08-1.76-15.75-.3-2.68-.57-4.88-.6-4.92Zm75.65-11.16l.08,1.95c.04,1.07.11,9.89.16,19.6.07,16.03.09,17.67.3,17.82.12.09.32.18.47.18.24,0,.24-.49.2-19.25-.04-16.34-.07-19.3-.23-19.49-.11-.12-.37-.35-.6-.51h0l-.39-.28ZM28.84,58.81s-.28.08-.51.24c-.51.32-.51.42-.26,2.58h0l.16,1.35.43-.92c.39-.87.42-.97.34-2.07-.04-.62-.12-1.16-.16-1.19Zm-11.25-13.61s-.22.41-.38.91h0l-.31.92.96,6.63c.54,3.64,1.04,7.12,1.12,7.71.08.6.19,1.14.24,1.19.05.05.22,0,.38-.14h0l.28-.24-.26-1.89c-.15-1.04-.47-3.54-.73-5.55-.26-2.02-.64-4.98-.84-6.6-.22-1.61-.42-2.94-.47-2.94Zm86.18,3.79c-.08,0-.14,2.41-.14,6.68v.57c0,5.44.03,6.13.22,6.19.3.11,1,.09,1.01-.03.07-.35.15-8.79.12-12.49,0-.46-.05-.51-.54-.72-.3-.12-.61-.22-.68-.22Zm-12.08-2.84h-.43l.04,6.99c.05,7.45.04,7.49.79,7.48h.45s0-7.22,0-7.22c0-6.03-.03-6.85-.22-7.04-.11-.12-.41-.22-.64-.22h0Zm-43.63,10.42c1.24-.76,2.95.24,2.95,1.73s-1.66,2.56-2.95,1.79c-1.3-.8-1.3-2.72,0-3.52Zm-9.17-1.3c1.65-.72,3.19,1.07,2.25,2.61-.5.84-1.47,1.07-2.43.58-1.33-.68-1.22-2.58.19-3.19Zm-7.07-19.59c-.09-.24-.15-.23-.62.22h0l-.53.49.38,3.9c.2,2.15.61,6.2.89,8.98s.55,5.55.61,6.14h0l.09,1.07.51-.53.53-.53-.46-5.01c-.26-2.76-.65-7.14-.89-9.74-.23-2.61-.46-4.86-.51-4.99Zm53.42-6.17v23.01l.49.2c.27.11.51.18.54.15.07-.05.05-18.38-.01-21.37-.01-.88-.08-1.65-.15-1.7-.07-.07-.28-.15-.49-.2h0l-.38-.08Zm-24.89-15.69h-.37c-.22.03-.55.07-.76.09h0l-.38.05.08,3c.08,2.73.88,21.41,1.12,26.23.05,1.1.15,2.03.19,2.08.05.04.37.12.7.15h0l.61.07-.07-.99c-.07-.99-.51-12.07-.66-16.29-.04-1.19-.14-3.48-.22-5.07-.15-3.26-.26-6.7-.26-8.28h0v-1.06ZM26.08,31.32c-.14-.15-1.18,1.22-1.18,1.54,0,.54,1.35,12.51,1.42,12.58.11.11,1.15-.41,1.15-.57,0-.08-.19-1.97-.42-4.21-.22-2.23-.51-5.23-.66-6.67-.14-1.45-.27-2.65-.31-2.68Zm15.92-12.24c-.09-.18-.34-.14-.77.09-.35.19-.37.24-.3.84.04.35.31,3.58.61,7.2.51,6.14,1.24,14.64,1.43,16.39.04.43.12.78.16.78.05,0,.3-.12.54-.27.43-.27.45-.3.38-.99-.04-.38-.3-3.41-.55-6.72-.78-9.75-1.42-17.21-1.5-17.33Zm36.74,16.11h-.31l.08,3c.05,1.66.09,3.54.09,4.19h0v1.16l.42.15c.73.26.88.05.85-1.16,0-.58-.03-2.37-.04-3.96h0v-2.92s-.41-.23-.41-.23c-.22-.12-.53-.23-.69-.23h0Zm-30.21-5.26c-.32.03-1.03.27-1.1.37-.07.11.41,6.76.54,7.56.05.41.11.45.51.45.77,0,.8-.15.64-2.53-.08-1.18-.18-2.69-.22-3.35-.04-.68-.11-1.5-.15-1.87-.04-.35-.15-.64-.23-.62Zm17.09-4.11v1c0,.97.41,11,.45,11.02.01.01.31.05.68.09h0l.64.09v-2c-.03-3.33-.22-9.89-.3-9.97-.04-.04-.38-.11-.77-.16h0l-.69-.08Zm-11.36-3.52c0-.49-.03-.49-.43-.48-.24,0-.62.07-.84.15-.37.14-.38.16-.3.84.04.36.16,1.96.27,3.64l.02.3c.11,1.79.27,4.13.34,5.21.08,1.08.15,2.26.18,2.64q.03.68.47.66c.91-.05.88.03.78-2.33-.05-1.16-.18-3.86-.28-5.98s-.2-4.14-.2-4.5v-.14Zm18.3-7.91c-.57-.09-.72-.08-.77.07-.08.2.01,8.33.12,10.73.03.78.09,3.19.15,5.37h0l.09,3.94.62.05c.34.04.68.04.73,0,.07-.03.08-.46.04-.96-.04-.49-.11-4.96-.16-9.96-.04-4.98-.08-9.06-.09-9.08-.01-.01-.34-.08-.73-.16Zm19.22,9.9q-.55-.23-.61-.03c-.03.09-.04,2.19-.01,4.67h0l.04,4.49.57.27.57.28.04-2.95c.03-1.61,0-3.75-.04-4.73h0l-.09-1.81-.46-.19Zm-12.54-2.49c-.93-.31-.91-.56-.91,3.35v.61c0,2.12.04,3.96.08,4.12.07.26.88.72,1.27.72.15,0,.19-6.47.05-7.82-.08-.77-.12-.84-.5-.97Z"/></svg>