<?xml version="1.0" encoding="UTF-8"?>
<svg id="Ebene_1" data-name="Ebene 1" xmlns="http://www.w3.org/2000/svg" viewBox="0 0 256 256">
  <defs>
    <style>
      .cls-1 {
        fill: #fff;
      }

      .cls-2 {
        fill: #222;
      }
    </style>
  </defs>
  <g id="Ebene_2" data-name="Ebene 2">
    <rect class="cls-2" width="256" height="256" rx="45" ry="45"/>
  </g>
  <g>
    <path class="cls-1" d="m119.34,18.06c-.51.05-2.16.24-3.65.38-21.16,2.22-41.99,11.17-58.98,25.4-3.14,2.6-10.28,9.74-12.88,12.88-14.07,16.8-22.29,35.66-25.32,57.98-.68,4.95-.68,21.67,0,26.62,3.03,22.32,11.25,41.18,25.32,57.98,2.6,3.14,9.74,10.28,12.88,12.88,16.8,14.07,35.66,22.29,57.98,25.32,4.95.68,21.67.68,26.62,0,22.32-3.03,41.18-11.25,57.98-25.32,3.14-2.6,10.28-9.74,12.88-12.88,14.07-16.8,22.29-35.66,25.32-57.98.68-4.95.68-21.67,0-26.62-3.03-22.32-11.25-41.18-25.32-57.98-2.6-3.14-9.74-10.28-12.88-12.88-16.75-14.01-35.79-22.35-57.81-25.3-2.38-.32-5.84-.46-12.26-.51-4.9-.05-9.36-.03-9.87.03h0Zm1.35,11.69c0,3.17.22,10.04.51,16.56.16,3.19.35,7.76.43,10.15.3,8.44,1.19,30.6,1.33,32.57l.14,1.97-1.22-.14c-.68-.05-1.3-.22-1.41-.3-.08-.11-.27-1.97-.38-4.17-.49-9.63-2.08-46.99-2.25-52.46l-.16-6.01.76-.11c.41-.05,1.08-.14,1.52-.16l.73-.03v2.13Zm25.89-.65s.11,8.2.19,18.15c.11,9.98.24,18.94.32,19.91.08,1,.05,1.87-.08,1.92-.11.08-.78.08-1.46,0l-1.24-.11-.19-7.87c-.11-4.36-.24-9.17-.3-10.74-.22-4.79-.41-21.05-.24-21.45.11-.3.41-.32,1.54-.14.78.16,1.43.3,1.46.32h0Zm-62.58,9.06c.16.24,1.43,15.15,3,34.66.51,6.63,1.03,12.69,1.11,13.45.14,1.38.11,1.43-.76,1.97-.49.3-.97.54-1.08.54-.08,0-.24-.7-.32-1.57-.38-3.52-1.84-20.51-2.87-32.79-.6-7.22-1.14-13.69-1.22-14.39-.14-1.19-.11-1.3.6-1.68.87-.46,1.35-.54,1.54-.19h0Zm74.48,5.44c.76.27.84.41,1,1.95.27,2.71.19,15.64-.11,15.64-.78,0-2.41-.92-2.54-1.43-.08-.32-.16-4.17-.16-8.52,0-8.79-.11-8.28,1.81-7.63h0Zm-49.97,1.27c0,.73.19,4.76.41,9.01s.46,9.63.57,11.96c.19,4.71.24,4.55-1.57,4.65-.59.02-.91-.42-.95-1.33-.05-.76-.19-3.11-.35-5.28-.14-2.16-.46-6.84-.68-10.42s-.49-7.12-.57-7.87c-.16-1.35-.14-1.41.6-1.68.43-.16,1.19-.3,1.68-.3.58-.02.87.39.87,1.24h0v.02Zm75.05,3.71l.92.38.19,3.63c.08,1.97.14,6.25.08,9.47l-.08,5.9-1.14-.57-1.14-.54-.08-8.98c-.05-4.95-.03-9.14.03-9.33.07-.27.48-.26,1.22.05h0Zm-49.4,3.54c.16.16.54,13.28.57,19.94l.03,4-1.27-.19c-.73-.08-1.33-.16-1.35-.19-.08-.05-.89-20.1-.89-22.05v-2l1.38.16c.78.11,1.46.24,1.54.32h0Zm62.31,1.92c.32.38.38,6.3.46,38.99.08,37.52.08,38.5-.41,38.5-.3,0-.7-.16-.95-.35-.41-.3-.46-3.57-.6-35.63-.11-19.42-.24-37.06-.32-39.2l-.16-3.9.78.57c.46.32.97.78,1.19,1.03h.01Zm-24.27,5.55c.14.11.27,1.65.3,3.41.14,5.98.16,42.64.03,42.75-.05.05-.54-.08-1.08-.3l-.97-.41v-46.02l.76.16c.41.11.84.27.97.41h0Zm-74.67,1.52c.08.73.22,2.38.3,3.73.08,1.33.27,4.36.43,6.71.32,4.76.27,5.06-1.27,5.06-.81,0-.92-.08-1.03-.89-.27-1.6-1.22-14.91-1.08-15.12.14-.19,1.54-.68,2.19-.73.16-.03.38.54.46,1.24h0Zm-44.75,6.9c.3,2.87.89,8.87,1.33,13.34.46,4.46.84,8.25.84,8.41,0,.32-2.08,1.35-2.3,1.14-.14-.14-2.84-24.08-2.84-25.16,0-.65,2.08-3.38,2.35-3.08.08.05.35,2.46.62,5.36h0Zm106.08,2.84l.78.46.03,5.84c.03,3.19.08,6.76.08,7.93.05,2.43-.24,2.84-1.7,2.33l-.84-.3v-2.33c0-1.3-.08-5.06-.19-8.39l-.16-6.01h.62c.32,0,.95.22,1.38.46h0Zm-94.2,10.5c.49,5.19,1.27,13.96,1.79,19.48l.92,10.01-1.06,1.06-1.03,1.06-.19-2.14c-.11-1.19-.65-6.71-1.22-12.28s-1.38-13.66-1.79-17.96l-.76-7.79,1.06-.97c.95-.89,1.06-.92,1.24-.43.11.27.57,4.76,1.03,9.98v-.02Zm-20.26,3.27c.6,5.33,2.16,19.51,3.52,31.49,1.35,11.98,2.62,23.54,2.87,25.7.22,2.16.6,5.44.81,7.3.38,3.17.38,3.38-.05,3.71-.65.49-.92.43-.92-.14,0-.24-.24-2.3-.54-4.52-.49-3.71-1.3-9.98-3.11-24.08-.38-2.84-1.11-8.5-1.62-12.58-.54-4.09-1.33-10.17-1.76-13.53s-1.16-9.09-1.62-12.8c-.49-3.68-.78-6.95-.7-7.3.19-.73,1.79-3.27,1.95-3.11.05.08.6,4.49,1.19,9.85h-.02Zm-8.28,11.66c.41,3.25,1.16,9.17,1.68,13.2.51,4,1.16,9.01,1.46,11.09l.51,3.79-.57.49c-.32.27-.65.38-.76.27s-.32-1.19-.49-2.38-1.16-8.14-2.25-15.42l-1.92-13.26.62-1.84c.32-1,.68-1.81.76-1.81.11,0,.51,2.65.95,5.87h.01Zm148.53-3.54c.38.38.43,2.06.43,14.47v14.04h-.76c-1.65,0-1.62.41-1.73-14.96l-.08-13.99h.87c.46,0,1.06.19,1.27.43h0Zm-59.22,4.84c6.11.92,11.44,2.62,16.72,5.33,3.41,1.76,5.03,2.98,8.82,6.6,5.63,5.38,9.09,10.09,12.34,16.75,4.73,9.69,6.57,18.26,8.9,41.26,1.06,10.31,2.43,29,2.73,36.66.08,2.22.27,5.87.43,8.12.3,4.76.65,4.11-3.54,6.14-5.82,2.81-11.42,4.76-18.8,6.57-9.04,2.22-14.88,2.92-23.81,2.95l-6.49.03.05-3.11c0-1.7.16-5.68.32-8.79.81-15.07.65-34.09-.41-44.64-.6-6.06-1.76-13.42-2.41-15.04-.14-.35.49-.65,3.17-1.57,4.9-1.7,9.14-3.84,9.79-4.9,1.16-2-.92-4.87-3.57-4.87-.46,0-1.84.49-3.11,1.06-6.06,2.79-18.21,6.06-25.21,6.79-4.84.51-12.36.22-17.59-.73-2.84-.51-7.93-2.43-12.17-4.63-4.9-2.54-7.9-5.92-8.79-9.93-.49-2.16-.35-6.49.27-8.93.68-2.68,2.57-6.57,4.3-8.85,7.71-10.15,23.62-18.94,39.93-22.02,5.19-.97,12.55-1.08,18.13-.24h0Zm83.46.84c.97.41,1.08.51,1.08,1.43.05,7.39-.11,24.27-.24,24.97-.03.24-1.43.27-2.03.05-.38-.14-.43-1.6-.43-13.53,0-8.55.11-13.36.27-13.36.14,0,.76.19,1.35.43h0Zm11.82,14.85l.97.41-.19,22.4c-.22,28.54-.24,29.38-1.27,31.84-1.68,4.03-1.6,4.84-1.43-12.85.05-8.85.19-17.8.24-19.88s.11-7.95.14-13.07c0-6.17.08-9.25.27-9.25.16,0,.73.19,1.27.41h0Zm-162.7,6.74c.16,2.19.11,2.41-.68,4.14l-.87,1.84-.32-2.71c-.51-4.33-.51-4.52.51-5.17.46-.32.95-.54,1.03-.49s.24,1.14.32,2.38h.01Zm-16.72,16.31c.24,2.22,2.14,16.94,3.11,24.16,1.46,11.17,1.57,12.77.92,12.09-.08-.08-.7-3.84-1.35-8.36-4.22-29.16-4.19-28.97-3.84-29.19.73-.49.97-.22,1.16,1.3h0Zm19.48,12.39c.16.68.95,8.01.95,8.9,0,.76-.97,1.46-1.41,1.03-.14-.14-.49-2.43-.76-5.09-.3-2.68-.6-5.46-.68-6.2l-.16-1.35.95,1.08c.54.6,1.03,1.33,1.11,1.62h0Zm21.83,10.2c.3.27.49,1.35.73,4.27.41,5.28.46,4.87-.65,4.87s-1.11.08-1.49-4.68c-.38-4.84-.38-4.79.35-4.79.35,0,.81.16,1.06.32h0Zm21.43.41c.05.27.19,1.89.3,3.6.08,1.7.32,5.55.54,8.52.76,10.93.78,12.31.32,12.31-.51,0-.57-.41-1.16-8.12-.22-3.19-.62-8.22-.89-11.17-.24-2.95-.41-5.41-.32-5.46.3-.32,1.08-.08,1.22.32h-.01Zm-50.86,5.19c.16.24,1.19,8.9,2.46,20.72.38,3.57.76,7.01.84,7.66l.14,1.16-.68-.43c-.51-.35-.7-.7-.7-1.33,0-1.7-1.16-12.93-2.06-19.8-.51-3.9-.92-7.33-.92-7.66,0-.57.65-.78.92-.32h0Zm156.13,11.31l-.19,11.31-.68,1c-1.54,2.27-1.46,2.71-1.38-9.96l.05-11.61,1-1.03c.54-.54,1.08-1,1.19-1,.08,0,.08,5.09,0,11.28h0Zm-25.03,17.94c.14,15.72.11,16.94-.32,17.42-.27.3-.51.49-.6.41-.19-.22-.46-34.49-.24-34.68.11-.11.38-.16.62-.14.35.08.43,2,.54,16.99h0Zm-88.36-10.77c.19,1.68.87,9.71,1.14,13.5.16,2.54.16,2.62-.43,2.81-.32.11-.7.08-.81-.05-.19-.19-.78-6.2-1.52-15.45l-.19-2.22h.84c.78,0,.84.05.97,1.41h0Zm-21.26,9.47c.19.19.32.87.32,1.54s.32,4.36.68,8.14c1.03,10.36,1.11,11.77.65,11.5-.7-.41-1.33-1.03-1.19-1.19.05-.11-.05-1.46-.27-3-.19-1.57-.43-4.11-.54-5.68s-.35-4.44-.57-6.36c-.51-4.73-.49-5.28.11-5.28.27,0,.62.14.81.32h0Zm12.8,18.21c.08.6.24,2.81.35,4.92.19,4.06.11,4.36-1,3.52-.32-.24-.54-1.27-.87-4.36-.57-5.57-.6-5.36.46-5.25.78.08.89.19,1.06,1.16h0Z"/>
    <path class="cls-1" d="m77.79,110.53c-2.81,1.22-3.03,5.03-.38,6.38,1.92.97,3.87.51,4.87-1.16,1.89-3.08-1.19-6.66-4.49-5.22h0Zm18.34,2.6c-2.6,1.6-2.6,5.44,0,7.03,2.57,1.54,5.9-.49,5.9-3.57s-3.41-4.98-5.9-3.46Z"/>
  </g>
</svg>