<?xml version="1.0" encoding="UTF-8"?>
<svg id="Ebene_1" data-name="Ebene 1" xmlns="http://www.w3.org/2000/svg" viewBox="0 0 256 256">
  <defs>
    <style>
      .cls-1 {
        fill: #fff;
      }

      .cls-2 {
        fill: #00ade2;
      }
    </style>
  </defs>
  <g id="Ebene_2" data-name="Ebene 2">
    <path class="cls-2" d="m45,0h166c24.85,0,45,20.15,45,45v166c0,24.85-20.15,45-45,45H45c-24.85,0-45-20.15-45-45V45C0,20.15,20.15,0,45,0Z"/>
  </g>
  <g>
    <path class="cls-1" d="m232.18,195.22c-.22-4.36-2.13-8.36-5.36-11.28-1.78-1.61-3.86-2.74-6.08-3.42l-.41-7.95c.16-.16.34-.28.49-.46,1.92-2.11,2.89-4.83,2.74-7.68-.3-5.67-4.98-10.1-10.65-10.1h-.54c-1.51.09-2.99.5-4.33,1.2l-21.67-8.72,5.73-5.78,12.09-3.43q7.34-2.67,8.77-11.6s2.81-14.53,2.81-22.3c0-24.4-9.97-43.62-26.04-56.69l5.57-10.71c2.11-4.07-2.77-10.8-10.9-15.02-8.14-4.23-16.46-4.37-18.57-.3l-5.62,10.8c-9.97-2.99-20.79-4.59-32.15-4.6h-.08c-11.39.01-22.23,1.62-32.21,4.62l-5.63-10.82c-2.11-4.07-10.41-3.93-18.56.3-8.13,4.22-13.01,10.96-10.89,15.02l5.59,10.75c-16.05,13.07-25.99,32.27-25.99,56.65,0,7.78,2.81,22.3,2.81,22.3q1.45,8.94,8.78,11.6l12.09,3.43,5.7,5.77-21.72,8.73c-1.34-.7-2.82-1.11-4.33-1.19h-.54c-5.67-.01-10.35,4.43-10.64,10.09-.15,2.82.83,5.59,2.73,7.68.14.17.33.3.49.46l-.42,7.96c-2.22.69-4.3,1.81-6.07,3.42-3.24,2.9-5.14,6.91-5.37,11.27l-.27,5.62,11.23.56.29-5.62c.06-1.35.65-2.57,1.66-3.49.99-.9,2.3-1.36,3.64-1.28,1.33.07,2.59.66,3.48,1.66.91,1,1.36,2.28,1.3,3.63l-.29,5.63,11.25.58.27-5.61c.24-4.36-1.24-8.52-4.16-11.77-1.61-1.79-3.56-3.11-5.7-4.02l.32-6.15c3.87-1.44,6.69-5.06,6.9-9.43,0-.06,0-.11,0-.18l12.89-5.18-6.1,23.88c-.19,1.19-.43,1.63,0,3.49,0,0,9.93,27.13,10.5,28.72.59,1.58.98,2.07,3.09,2.74,1.92.54,3.88.96,5.81,1.41l2.23,7.57c.46,1.55.74,1.98,2.51,2.6,13.8,4.79,28.33,7.43,43.35,7.43h.08c15.02,0,29.54-2.65,43.35-7.43,1.78-.62,2.05-1.05,2.5-2.6.53-1.81,2.24-7.57,2.24-7.57,1.93-.46,3.9-.87,5.81-1.41,2.12-.66,2.52-1.16,3.09-2.74.58-1.59,10.51-28.72,10.51-28.72.43-1.85.19-2.29,0-3.49l-6.08-23.85,12.81,5.15c0,.07-.02.12-.02.18.23,4.37,3.06,7.97,6.92,9.43l.32,6.15c-2.15.91-4.09,2.25-5.7,4.02-2.92,3.25-4.39,7.41-4.17,11.77l.29,5.61,11.24-.58-.29-5.63c-.08-1.33.38-2.64,1.28-3.63.9-1,2.16-1.59,3.5-1.66,1.36-.05,2.63.4,3.64,1.28,1,.92,1.59,2.14,1.66,3.49l.28,5.62,11.25-.56-.31-5.62h0Z"/>
    <path class="cls-2" d="m173.7,89.81c0,5.66-4.59,10.25-10.25,10.25s-10.24-4.59-10.24-10.25,4.58-10.25,10.24-10.25,10.25,4.59,10.25,10.25Zm-80.7-29.22c-4.63,0-9.18,1.13-13.27,3.28,0-.08.04-.13.04-.2,0-3.24-2.62-5.87-5.86-5.87h0c-3.24,0-5.87,2.61-5.88,5.84,0,0,0,.02,0,.03,0,2.73,1.93,4.94,4.48,5.58-5.05,5.17-8.18,12.23-8.18,20.01,0,15.81,12.86,28.67,28.68,28.67s28.68-12.86,28.68-28.67-12.86-28.68-28.68-28.68h0Zm0,51.2c-12.42,0-22.53-10.1-22.53-22.52s10.1-22.53,22.53-22.53,22.53,10.1,22.53,22.53-10.11,22.52-22.53,22.52Zm44.27,92.56h-18.08c-4.92,0-8.93-4.07-8.93-9.07v-12.2c0-5.01,4-9.07,8.93-9.07h17.55v-9.64c0-2.61,2.12-4.71,4.73-4.71s4.73,2.1,4.73,4.71v30.9c0,5-4.01,9.07-8.93,9.07h0Zm-17.55-9.45h17.03v-11.42h-17.03v11.42h0Zm-16.47-105.09c0,5.66-4.59,10.25-10.24,10.25s-10.25-4.59-10.25-10.25,4.58-10.25,10.25-10.25,10.24,4.59,10.24,10.25Z"/>
  </g>
</svg>