<?xml version="1.0" encoding="UTF-8"?>
<svg id="Ebene_1" data-name="Ebene 1" xmlns="http://www.w3.org/2000/svg" viewBox="0 0 256 256">
  <defs>
    <style>
      .cls-1 {
        fill: #fff;
      }

      .cls-2 {
        fill: #5865f2;
      }
    </style>
  </defs>
  <g id="Ebene_2" data-name="Ebene 2">
    <rect class="cls-2" width="256" height="256" rx="45" ry="45"/>
  </g>
  <path class="cls-1" d="m201.04,61.51c23.72,34.87,35.43,74.2,31.05,119.48-.02.19-.12.37-.28.48-17.96,13.19-35.36,21.19-52.52,26.5-.27.08-.57-.02-.74-.25-3.96-5.52-7.57-11.33-10.72-17.44-.18-.36-.02-.79.36-.93,5.72-2.16,11.16-4.74,16.39-7.8.41-.24.44-.83.06-1.12-1.11-.82-2.21-1.69-3.26-2.56-.2-.16-.46-.19-.69-.08-33.96,15.68-71.17,15.68-105.54,0-.22-.1-.49-.07-.68.09-1.05.87-2.15,1.72-3.25,2.55-.38.28-.35.87.07,1.12,5.23,3,10.67,5.64,16.38,7.81.37.14.55.56.36.92-3.09,6.11-6.69,11.93-10.73,17.44-.18.22-.46.33-.74.24-17.08-5.31-34.48-13.31-52.44-26.5-.15-.12-.26-.3-.27-.49-3.66-39.17,3.8-78.83,31.02-119.48.07-.11.17-.19.28-.24,13.4-6.15,27.75-10.67,42.75-13.25.27-.04.55.08.69.33,1.85,3.28,3.97,7.49,5.4,10.93,15.81-2.41,31.87-2.41,48.01,0,1.43-3.37,3.48-7.65,5.32-10.93.13-.25.41-.38.69-.33,15.01,2.59,29.36,7.11,42.74,13.25.12.05.22.13.27.25h.02Zm-89,74.47c.17-11.58-8.28-21.16-18.87-21.16s-18.87,9.5-18.87,21.16,8.53,21.16,18.87,21.16,18.87-9.5,18.87-21.16Zm69.78,0c.17-11.58-8.28-21.16-18.87-21.16s-18.87,9.5-18.87,21.16,8.53,21.16,18.87,21.16,18.87-9.5,18.87-21.16Z"/>
</svg>