<?xml version="1.0" encoding="UTF-8" standalone="no"?>
<!DOCTYPE svg PUBLIC "-//W3C//DTD SVG 1.1//EN" "http://www.w3.org/Graphics/SVG/1.1/DTD/svg11.dtd">
<!-- Created with Vectornator (http://vectornator.io/) -->
<svg height="100%" stroke-miterlimit="10" style="fill-rule:nonzero;clip-rule:evenodd;stroke-linecap:round;stroke-linejoin:round;" version="1.1" viewBox="0 0 512 512" width="100%" xml:space="preserve" xmlns="http://www.w3.org/2000/svg" xmlns:vectornator="http://vectornator.io" xmlns:xlink="http://www.w3.org/1999/xlink">
<defs/>
<g id="Ebene-1" vectornator:layerName="Ebene 1">
<path d="M2.84217e-14 95C2.84217e-14 42.5329 42.5329 0 95 0L417 0C469.467 0 512 42.5329 512 95L512 417C512 469.467 469.467 512 417 512L95 512C42.5329 512 2.84217e-14 469.467 2.84217e-14 417L2.84217e-14 95Z" fill="#5865f2" fill-rule="nonzero" opacity="1" stroke="none" vectornator:layerName="Rechteck 1"/>
<path d="M371.828 150.564C409.436 205.858 428.009 268.229 421.066 340.032C421.037 340.336 420.879 340.615 420.629 340.798C392.149 361.711 364.556 374.402 337.35 382.819C336.916 382.95 336.446 382.791 336.18 382.423C329.895 373.678 324.184 364.458 319.181 354.776C318.894 354.206 319.156 353.519 319.747 353.294C328.817 349.877 337.442 345.781 345.738 340.932C346.391 340.549 346.433 339.612 345.829 339.162C344.068 337.855 342.324 336.482 340.655 335.108C340.343 334.854 339.923 334.804 339.569 334.975C285.71 359.846 226.711 359.846 172.216 334.975C171.862 334.817 171.441 334.871 171.137 335.121C169.472 336.494 167.724 337.855 165.98 339.162C165.377 339.612 165.426 340.549 166.084 340.932C174.38 345.689 183.005 349.877 192.062 353.311C192.649 353.536 192.928 354.206 192.637 354.776C187.742 364.47 182.031 373.69 175.629 382.436C175.35 382.79 174.892 382.952 174.459 382.819C147.382 374.402 119.789 361.711 91.3095 340.798C91.0722 340.615 90.9015 340.324 90.8766 340.02C85.074 277.911 96.8997 215.024 140.069 150.551C140.173 150.381 140.331 150.248 140.514 150.168C161.755 140.42 184.512 133.249 208.296 129.153C208.729 129.086 209.162 129.286 209.387 129.669C212.325 134.872 215.684 141.544 217.957 146.997C243.028 143.167 268.49 143.167 294.085 146.997C296.358 141.66 299.6 134.872 302.527 129.669C302.741 129.278 303.18 129.07 303.617 129.153C327.414 133.261 350.171 140.432 371.395 150.168C371.583 150.248 371.737 150.381 371.828 150.564ZM230.703 268.654C230.965 250.293 217.578 235.1 200.774 235.1C184.108 235.1 170.85 250.16 170.85 268.654C170.85 287.144 184.37 302.204 200.774 302.204C217.445 302.204 230.703 287.144 230.703 268.654ZM341.35 268.654C341.613 250.293 328.226 235.1 311.426 235.1C294.755 235.1 281.498 250.16 281.498 268.654C281.498 287.144 295.018 302.204 311.426 302.204C328.226 302.204 341.35 287.144 341.35 268.654Z" fill="#dddddd" fill-rule="nonzero" opacity="1" stroke="none" vectornator:layerName="path"/>
</g>
</svg>
