<?xml version="1.0" encoding="UTF-8"?><svg id="a" xmlns="http://www.w3.org/2000/svg" viewBox="0 0 128 128"><defs><style>.b{fill:#fff;}.c{fill:#2ba977;}</style></defs><rect class="c" x="0" y="0" width="128" height="128" rx="25" ry="25" transform="translate(128 0) rotate(90)"/><path class="b" d="m55.06,19h16.37v75.05c-8.39,1.59-14.56,2.21-21.24,2.21-20-.02-30.41-8.96-30.41-26.11s11.04-27.26,28.15-27.26c2.66,0,4.68.21,7.12.83v-24.72Zm.57,38.24c-1.92-.63-3.5-.83-5.52-.83-8.28,0-13.07,5.05-13.07,13.9s4.57,13.38,12.96,13.38c1.81,0,3.29-.1,5.63-.42v-26.03Z"/><path class="b" d="m98.21,44.9v37.57c0,12.94-.97,19.16-3.81,24.53-2.66,5.16-6.15,8.41-13.38,12l-15.19-7.16c7.23-3.36,10.73-6.33,12.96-10.86,2.34-4.63,3.08-10,3.08-24.11v-31.98h16.35Z"/><path class="b" d="m80.21,19h16.37v16.64h-16.37v-16.64h0Z"/></svg>