<?xml version="1.0" encoding="UTF-8"?>
<svg id="Ebene_1" data-name="Ebene 1" xmlns="http://www.w3.org/2000/svg" viewBox="0 0 256 256">
  <defs>
    <style>
      .cls-1 {
        fill: #fff;
      }

      .cls-2 {
        fill: #2ba977;
      }
    </style>
  </defs>
  <g id="Ebene_2" data-name="Ebene 2">
    <rect class="cls-2" width="256" height="256" rx="45" ry="45"/>
  </g>
  <g>
    <path class="cls-1" d="m109.73,33h34.38v157.6c-17.61,3.33-30.58,4.64-44.61,4.64-42-.04-63.86-18.81-63.86-54.84s23.19-57.25,59.12-57.25c5.58,0,9.82.44,14.96,1.75v-51.9h.01Zm1.2,80.3c-4.03-1.32-7.35-1.75-11.59-1.75-17.39,0-27.44,10.61-27.44,29.2s9.6,28.09,27.22,28.09c3.81,0,6.9-.21,11.82-.87v-54.67h0Z"/>
    <path class="cls-1" d="m200.35,87.38v78.91c0,27.17-2.04,40.24-8.01,51.51-5.58,10.83-12.92,17.66-28.1,25.21l-31.91-15.04c15.18-7.05,22.52-13.29,27.22-22.8,4.91-9.73,6.46-20.99,6.46-50.63v-67.16s34.34,0,34.34,0Zm-37.81-54.38h34.38v34.94h-34.38v-34.94Z"/>
  </g>
</svg>