<?xml version="1.0" encoding="UTF-8"?><svg id="a" xmlns="http://www.w3.org/2000/svg" viewBox="0 0 128 128"><defs><style>.b{fill:#fff;}.c{fill:#009cda;}</style></defs><rect class="c" x="0" y="0" width="128" height="128" rx="25" ry="25" transform="translate(128 0) rotate(90)"/><rect class="b" x="62.42" y="27.35" width="10.35" height="10.35"/><rect class="b" x="62.42" y="40.37" width="10.35" height="10.35"/><rect class="b" x="62.42" y="53.39" width="10.35" height="10.35"/><rect class="b" x="49.85" y="40.37" width="10.35" height="10.35"/><rect class="b" x="49.85" y="53.39" width="10.35" height="10.35"/><rect class="b" x="37.28" y="40.37" width="10.35" height="10.35"/><rect class="b" x="37.28" y="53.39" width="10.35" height="10.35"/><rect class="b" x="24.85" y="53.39" width="10.35" height="10.35"/><rect class="b" x="75" y="53.39" width="10.35" height="10.35"/><path class="b" d="m52.85,100.65c-38.13,0-33.7-33.58-33.7-33.58h63.66c10.74,0,14.29-3.4,14.29-3.4,0,0-6.06-7.84,1.04-17.31,7.99,4.59,7.69,11.39,7.69,11.39,0,0,8.14-2.66,13.16,1.92-2.81,9.17-15.24,8.58-15.24,8.58,0,0-11.54,32.39-50.91,32.39Z"/></svg>