<?xml version="1.0" encoding="UTF-8"?>
<svg id="Ebene_1" data-name="Ebene 1" xmlns="http://www.w3.org/2000/svg" viewBox="0 0 256 256">
  <defs>
    <style>
      .cls-1 {
        fill: #fff;
      }

      .cls-2 {
        fill: #0091e2;
      }
    </style>
  </defs>
  <g id="Ebene_2" data-name="Ebene 2">
    <path class="cls-2" d="m256,35v186c0,19.3-15.7,35-35,35H35c-19.3,0-35-15.7-35-35V35C0,15.7,15.7,0,35,0h186c19.3,0,35,15.7,35,35Z"/>
  </g>
  <g>
    <path class="cls-1" d="m233.41,109.44c-.6-.49-5.98-4.53-17.55-4.53-2.99,0-6.08.3-9.07.79-2.19-15.06-14.86-22.35-15.36-22.74l-3.09-1.77-1.99,2.86c-2.49,3.84-4.39,8.17-5.48,12.6-2.09,8.57-.8,16.64,3.59,23.53-5.28,2.95-13.86,3.64-15.66,3.74H27.19c-3.69,0-6.68,2.95-6.68,6.6-.2,12.21,1.89,24.42,6.18,35.93,4.89,12.6,12.17,21.95,21.54,27.66,10.57,6.4,27.82,10.04,47.26,10.04,8.78,0,17.55-.79,26.23-2.36,12.07-2.17,23.63-6.3,34.3-12.31,8.74-5,16.62-11.39,23.33-18.9,11.27-12.5,17.95-26.48,22.83-38.89h1.99c12.27,0,19.84-4.82,24.03-8.96,2.79-2.56,4.89-5.71,6.38-9.25l.9-2.56-2.09-1.48Z"/>
    <path class="cls-1" d="m40.36,119.88h18.95c.9,0,1.7-.69,1.7-1.67v-16.74c0-.89-.7-1.67-1.7-1.67h-18.95c-.9,0-1.7.69-1.7,1.67v16.74c.1.98.8,1.67,1.7,1.67h0Zm26.13,0h18.95c.9,0,1.7-.69,1.7-1.67v-16.74c0-.89-.7-1.67-1.7-1.67h-18.95c-.9,0-1.7.69-1.7,1.67v16.74c.1.98.8,1.67,1.7,1.67m26.62,0h18.95c.9,0,1.7-.69,1.7-1.67v-16.74c0-.89-.7-1.67-1.7-1.67h-18.95c-.9,0-1.7.69-1.7,1.67v16.74c0,.98.7,1.67,1.7,1.67Zm26.23,0h18.95c.9,0,1.7-.69,1.7-1.67v-16.74c0-.89-.7-1.67-1.7-1.67h-18.95c-.9,0-1.7.69-1.7,1.67v16.74c0,.98.8,1.67,1.7,1.67Zm-52.85-23.92h18.95c.9,0,1.7-.79,1.7-1.67v-16.74c0-.89-.7-1.67-1.7-1.67h-18.95c-.9,0-1.7.69-1.7,1.67v16.74c.1.89.8,1.67,1.7,1.67m26.62,0h18.95c.9,0,1.7-.79,1.7-1.67v-16.74c0-.89-.7-1.67-1.7-1.67h-18.95c-.9,0-1.7.69-1.7,1.67v16.74c0,.89.7,1.67,1.7,1.67m26.23,0h18.95c.9,0,1.7-.79,1.7-1.67v-16.74c0-.89-.8-1.67-1.7-1.67h-18.95c-.9,0-1.7.69-1.7,1.67v16.74c0,.89.8,1.67,1.7,1.67m0-24.02h18.95c.9,0,1.7-.69,1.7-1.67v-16.74c0-.89-.8-1.67-1.7-1.67h-18.95c-.9,0-1.7.69-1.7,1.67v16.74c0,.89.8,1.67,1.7,1.67m26.42,47.95h18.95c.9,0,1.7-.69,1.7-1.67v-16.74c0-.89-.7-1.67-1.7-1.67h-18.95c-.9,0-1.7.69-1.7,1.67v16.74c.1.98.8,1.67,1.7,1.67"/>
  </g>
</svg>