<?xml version="1.0" encoding="UTF-8" standalone="no"?>
<!DOCTYPE svg PUBLIC "-//W3C//DTD SVG 1.1//EN" "http://www.w3.org/Graphics/SVG/1.1/DTD/svg11.dtd">
<!-- Created with Vectornator (http://vectornator.io/) -->
<svg height="100%" stroke-miterlimit="10" style="fill-rule:nonzero;clip-rule:evenodd;stroke-linecap:round;stroke-linejoin:round;" version="1.1" viewBox="0 0 512 512" width="100%" xml:space="preserve" xmlns="http://www.w3.org/2000/svg" xmlns:vectornator="http://vectornator.io" xmlns:xlink="http://www.w3.org/1999/xlink">
<defs/>
<g id="Ebene-1" vectornator:layerName="Ebene 1">
<path d="M2.84217e-14 95C2.84217e-14 42.5329 42.5329 0 95 0L417 0C469.467 0 512 42.5329 512 95L512 417C512 469.467 469.467 512 417 512L95 512C42.5329 512 2.84217e-14 469.467 2.84217e-14 417L2.84217e-14 95Z" fill="#0091e2" fill-rule="nonzero" opacity="1" stroke="none" vectornator:layerName="Rechteck 1"/>
</g>
<g id="Ebene-2" vectornator:layerName="Ebene 2">
<g opacity="1" vectornator:layerName="g">
<path d="M452.105 221.474C450.992 220.558 440.973 213.048 419.454 213.048C413.888 213.048 408.136 213.598 402.571 214.514C398.49 186.49 374.929 172.936 374.001 172.203L368.251 168.906L364.54 174.218C359.902 181.361 356.377 189.421 354.337 197.663C350.441 213.598 352.852 228.618 361.015 241.438C351.183 246.934 335.228 248.216 331.889 248.399L68.4537 248.399C61.5898 248.399 56.0242 253.894 56.0242 260.671C55.6536 283.383 59.5491 306.095 67.5267 327.525C76.6166 350.97 90.1598 368.371 107.599 378.995C127.263 390.9 159.358 397.677 195.533 397.677C211.859 397.677 228.184 396.212 244.325 393.281C266.772 389.251 288.292 381.558 308.143 370.385C324.41 361.075 339.069 349.2 351.554 335.218C372.517 311.957 384.947 285.948 394.037 262.869L397.747 262.869C420.566 262.869 434.665 253.894 442.457 246.201C447.651 241.438 451.547 235.578 454.33 228.984L456 224.222L452.105 221.474Z" fill="#ffffff" fill-rule="nonzero" opacity="1" stroke="none" vectornator:layerName="path"/>
<path d="M92.943 240.889L128.191 240.889C129.861 240.889 131.345 239.607 131.345 237.776L131.345 206.638C131.345 204.989 130.046 203.524 128.191 203.524L92.943 203.524C91.2735 203.524 89.7893 204.806 89.7893 206.638L89.7893 237.776C89.9746 239.607 91.2735 240.889 92.943 240.889L92.943 240.889ZM141.548 240.889L176.797 240.889C178.467 240.889 179.951 239.607 179.951 237.776L179.951 206.638C179.951 204.989 178.652 203.524 176.797 203.524L141.548 203.524C139.878 203.524 138.394 204.806 138.394 206.638L138.394 237.776C138.58 239.607 139.879 240.889 141.548 240.889M191.081 240.889L226.329 240.889C227.999 240.889 229.483 239.607 229.483 237.776L229.483 206.638C229.483 204.989 228.184 203.524 226.329 203.524L191.081 203.524C189.411 203.524 187.927 204.806 187.927 206.638L187.927 237.776C187.927 239.607 189.226 240.889 191.081 240.889ZM239.872 240.889L275.121 240.889C276.79 240.889 278.274 239.607 278.274 237.776L278.274 206.638C278.274 204.989 276.975 203.524 275.121 203.524L239.872 203.524C238.202 203.524 236.718 204.806 236.718 206.638L236.718 237.776C236.718 239.607 238.202 240.889 239.872 240.889ZM141.548 196.381L176.796 196.381C178.466 196.381 179.95 194.916 179.95 193.267L179.95 162.129C179.95 160.481 178.651 159.015 176.796 159.015L141.548 159.015C139.878 159.015 138.394 160.297 138.394 162.129L138.394 193.267C138.58 194.915 139.879 196.381 141.548 196.381M191.081 196.381L226.329 196.381C227.999 196.381 229.483 194.916 229.483 193.267L229.483 162.129C229.483 160.481 228.184 159.015 226.329 159.015L191.081 159.015C189.411 159.015 187.927 160.297 187.927 162.129L187.927 193.267C187.927 194.915 189.226 196.381 191.081 196.381M239.872 196.381L275.121 196.381C276.79 196.381 278.274 194.916 278.274 193.267L278.274 162.129C278.274 160.481 276.789 159.015 275.121 159.015L239.872 159.015C238.202 159.015 236.718 160.297 236.718 162.129L236.718 193.267C236.718 194.915 238.202 196.381 239.872 196.381M239.872 151.689L275.121 151.689C276.79 151.689 278.274 150.407 278.274 148.575L278.274 117.438C278.274 115.789 276.789 114.323 275.121 114.323L239.872 114.323C238.202 114.323 236.718 115.606 236.718 117.438L236.718 148.575C236.718 150.224 238.202 151.689 239.872 151.689M289.034 240.889L324.282 240.889C325.952 240.889 327.436 239.607 327.436 237.776L327.436 206.638C327.436 204.989 326.138 203.524 324.282 203.524L289.034 203.524C287.364 203.524 285.88 204.806 285.88 206.638L285.88 237.776C286.066 239.607 287.365 240.889 289.034 240.889" fill="#ffffff" fill-rule="nonzero" opacity="1" stroke="none" vectornator:layerName="path"/>
</g>
</g>
</svg>
