<?xml version="1.0" encoding="UTF-8"?>
<svg id="Ebene_1" data-name="Ebene 1" xmlns="http://www.w3.org/2000/svg" xmlns:xlink="http://www.w3.org/1999/xlink" viewBox="0 0 256 256">
  <defs>
    <style>
      .cls-1 {
        fill: url(#Unbenannter_Verlauf_15);
      }

      .cls-2 {
        fill: url(#Unbenannter_Verlauf_17);
      }

      .cls-3 {
        fill: #5ec5ed;
      }

      .cls-4 {
        fill: #125a9e;
      }

      .cls-5 {
        fill: url(#Unbenannter_Verlauf_2);
      }

      .cls-6 {
        fill: #3092c4;
      }

      .cls-7 {
        fill: url(#Unbenannter_Verlauf_4);
      }

      .cls-8 {
        fill: #127bca;
      }

      .cls-9 {
        fill: #1969bc;
      }

      .cls-10 {
        fill: url(#Unbenannter_Verlauf_18);
      }

      .cls-11 {
        fill: url(#Unbenannter_Verlauf_7);
      }

      .cls-12 {
        fill: url(#Unbenannter_Verlauf_13);
      }

      .cls-13 {
        fill: url(#Unbenannter_Verlauf_14);
      }

      .cls-14 {
        fill: #0d82ca;
      }

      .cls-15 {
        fill: #175fab;
      }

      .cls-16 {
        fill: url(#Unbenannter_Verlauf_8);
      }

      .cls-17 {
        fill: url(#Unbenannter_Verlauf);
      }

      .cls-18 {
        fill: #1e5cb3;
      }

      .cls-19 {
        fill: #27282c;
      }

      .cls-20 {
        fill: #1d60b5;
      }

      .cls-21 {
        fill: #7dcbec;
      }

      .cls-22 {
        fill: url(#Unbenannter_Verlauf_6);
      }

      .cls-23 {
        fill: url(#Unbenannter_Verlauf_16);
      }

      .cls-24 {
        fill: url(#Unbenannter_Verlauf_5);
      }

      .cls-25 {
        fill: #2b74b1;
      }

      .cls-26 {
        fill: url(#Unbenannter_Verlauf_3);
      }

      .cls-27 {
        fill: #05a1e6;
      }

      .cls-28 {
        fill: #079ae1;
      }

      .cls-29 {
        fill: #14559a;
      }

      .cls-30 {
        fill: url(#Unbenannter_Verlauf_9);
      }

      .cls-31 {
        fill: url(#Unbenannter_Verlauf_11);
      }

      .cls-32 {
        fill: url(#Unbenannter_Verlauf_10);
      }

      .cls-33 {
        fill: url(#Unbenannter_Verlauf_12);
      }
    </style>
    <linearGradient id="Unbenannter_Verlauf" data-name="Unbenannter Verlauf" x1="-1.3" y1=".23" x2="-1.3" y2=".36" gradientTransform="translate(694.16 -99.05) scale(445.39 794.29)" gradientUnits="userSpaceOnUse">
      <stop offset="0" stop-color="#0994dc"/>
      <stop offset=".35" stop-color="#66cef5"/>
      <stop offset=".35" stop-color="#66cef5"/>
      <stop offset=".85" stop-color="#127bca"/>
      <stop offset=".85" stop-color="#127bca"/>
      <stop offset="1" stop-color="#127bca"/>
    </linearGradient>
    <linearGradient id="Unbenannter_Verlauf_2" data-name="Unbenannter Verlauf 2" x1="-1.31" y1=".25" x2="-1.31" y2=".39" gradientTransform="translate(728.27 -123.97) scale(467.47 814.52)" gradientUnits="userSpaceOnUse">
      <stop offset="0" stop-color="#0e76bc"/>
      <stop offset=".36" stop-color="#36aee8"/>
      <stop offset=".36" stop-color="#36aee8"/>
      <stop offset=".85" stop-color="#00adef"/>
      <stop offset=".85" stop-color="#00adef"/>
      <stop offset="1" stop-color="#00adef"/>
    </linearGradient>
    <linearGradient id="Unbenannter_Verlauf_3" data-name="Unbenannter Verlauf 3" x1="-1.9" y1=".5" x2="-1.9" y2=".4" gradientTransform="translate(984.23 -247.84) scale(443.88 825.2)" gradientUnits="userSpaceOnUse">
      <stop offset="0" stop-color="#1c63b7"/>
      <stop offset=".5" stop-color="#33bdf2"/>
      <stop offset="1" stop-color="#33bdf2" stop-opacity=".42"/>
    </linearGradient>
    <linearGradient id="Unbenannter_Verlauf_4" data-name="Unbenannter Verlauf 4" x1="-1.79" y1=".37" x2="-1.79" y2=".5" gradientTransform="translate(922.85 -240.45) scale(439.56 845.68)" gradientUnits="userSpaceOnUse">
      <stop offset="0" stop-color="#166ab8"/>
      <stop offset=".4" stop-color="#36aee8"/>
      <stop offset=".4" stop-color="#36aee8"/>
      <stop offset=".85" stop-color="#0798dd"/>
      <stop offset=".85" stop-color="#0798dd"/>
      <stop offset="1" stop-color="#0798dd"/>
    </linearGradient>
    <linearGradient id="Unbenannter_Verlauf_5" data-name="Unbenannter Verlauf 5" x1="-1.11" y1=".33" x2="-1.11" y2=".46" gradientTransform="translate(758.3 -224.67) scale(569.83 899.24)" gradientUnits="userSpaceOnUse">
      <stop offset="0" stop-color="#124379"/>
      <stop offset=".39" stop-color="#1487cb"/>
      <stop offset=".39" stop-color="#1487cb"/>
      <stop offset=".78" stop-color="#165197"/>
      <stop offset=".78" stop-color="#165197"/>
      <stop offset="1" stop-color="#165197"/>
    </linearGradient>
    <linearGradient id="Unbenannter_Verlauf_6" data-name="Unbenannter Verlauf 6" x1="-2.25" y1=".82" x2="-2.16" y2=".82" gradientTransform="translate(504.53 -138.3) scale(189.64 301.96)" gradientUnits="userSpaceOnUse">
      <stop offset="0" stop-color="#33bdf2" stop-opacity=".7"/>
      <stop offset="1" stop-color="#1dacd8"/>
    </linearGradient>
    <linearGradient id="Unbenannter_Verlauf_7" data-name="Unbenannter Verlauf 7" x1="-1.73" y1=".45" x2="-1.73" y2=".36" gradientTransform="translate(1542.16 -267.12) scale(772.88 963.66)" gradientUnits="userSpaceOnUse">
      <stop offset="0" stop-color="#136ab4"/>
      <stop offset=".6" stop-color="#59caf5" stop-opacity=".55"/>
      <stop offset="1" stop-color="#59caf5" stop-opacity=".23"/>
    </linearGradient>
    <linearGradient id="Unbenannter_Verlauf_8" data-name="Unbenannter Verlauf 8" x1=".26" y1=".39" x2=".35" y2=".39" gradientTransform="translate(-168.36 -247.45) scale(703.34 968.37)" gradientUnits="userSpaceOnUse">
      <stop offset="0" stop-color="#05a1e6" stop-opacity=".25"/>
      <stop offset="1" stop-color="#05a1e6"/>
    </linearGradient>
    <linearGradient id="Unbenannter_Verlauf_9" data-name="Unbenannter Verlauf 9" x1=".15" y1=".55" x2=".15" y2=".43" gradientTransform="translate(-18.33 -228.62) scale(479.01 720.93)" gradientUnits="userSpaceOnUse">
      <stop offset="0" stop-color="#318ed5"/>
      <stop offset="1" stop-color="#38a7e4"/>
    </linearGradient>
    <linearGradient id="Unbenannter_Verlauf_10" data-name="Unbenannter Verlauf 10" x1="0" y1="0" x2="0" y2="-.14" gradientTransform="translate(59.19 162.92) scale(445.35 557.89)" gradientUnits="userSpaceOnUse">
      <stop offset="0" stop-color="#05a1e6"/>
      <stop offset="1" stop-color="#05a1e6" stop-opacity=".55"/>
    </linearGradient>
    <linearGradient id="Unbenannter_Verlauf_11" data-name="Unbenannter Verlauf 11" x1="-.03" y1=".31" x2="-.03" y2=".22" gradientTransform="translate(75.8 -71.7) scale(512.89 791.93)" gradientUnits="userSpaceOnUse">
      <stop offset="0" stop-color="#1959a6"/>
      <stop offset=".5" stop-color="#05a1e6"/>
      <stop offset=".5" stop-color="#05a1e6"/>
      <stop offset=".92" stop-color="#7ec5ea"/>
      <stop offset="1" stop-color="#7ec5ea"/>
    </linearGradient>
    <linearGradient id="Unbenannter_Verlauf_12" data-name="Unbenannter Verlauf 12" x1=".18" y1=".43" x2=".16" y2=".35" gradientTransform="translate(-61.86 -246.66) scale(709.74 966.85)" gradientUnits="userSpaceOnUse">
      <stop offset="0" stop-color="#165096"/>
      <stop offset="1" stop-color="#0d82ca"/>
    </linearGradient>
    <linearGradient id="Unbenannter_Verlauf_13" data-name="Unbenannter Verlauf 13" x1="-4.43" y1=".66" x2="-4.43" y2=".59" gradientTransform="translate(1607.46 -247.72) scale(319.99 558.85)" gradientUnits="userSpaceOnUse">
      <stop offset="0" stop-color="#05a1e6"/>
      <stop offset=".87" stop-color="#0495d6"/>
      <stop offset="1" stop-color="#0495d6"/>
    </linearGradient>
    <linearGradient id="Unbenannter_Verlauf_14" data-name="Unbenannter Verlauf 14" x1="-2.35" y1=".37" x2="-2.38" y2=".47" gradientTransform="translate(1594.24 -266.81) scale(588.57 940.65)" gradientUnits="userSpaceOnUse">
      <stop offset="0" stop-color="#38a7e4" stop-opacity=".33"/>
      <stop offset=".96" stop-color="#0e88d3"/>
      <stop offset=".96" stop-color="#0e88d3"/>
      <stop offset="1" stop-color="#0e88d3"/>
    </linearGradient>
    <linearGradient id="Unbenannter_Verlauf_15" data-name="Unbenannter Verlauf 15" x1="-1.86" y1=".37" x2="-1.86" y2=".46" gradientTransform="translate(1471.74 -269.12) scale(686.34 958.12)" gradientUnits="userSpaceOnUse">
      <stop offset="0" stop-color="#168cd4"/>
      <stop offset=".5" stop-color="#1c87cc"/>
      <stop offset="1" stop-color="#154b8d"/>
    </linearGradient>
    <linearGradient id="Unbenannter_Verlauf_16" data-name="Unbenannter Verlauf 16" x1="-1.37" y1="-6.93" x2="-1.3" y2="-7.13" gradientTransform="translate(513.47 -206.54) scale(316.99 -41.5)" gradientUnits="userSpaceOnUse">
      <stop offset="0" stop-color="#97d6ee"/>
      <stop offset=".7" stop-color="#55c1ea"/>
      <stop offset="1" stop-color="#55c1ea"/>
    </linearGradient>
    <linearGradient id="Unbenannter_Verlauf_17" data-name="Unbenannter Verlauf 17" x1="-2.26" y1="-3.64" x2="-2.2" y2="-3.54" gradientTransform="translate(678.9 -172.92) scale(258.52 -73.09)" gradientUnits="userSpaceOnUse">
      <stop offset="0" stop-color="#7accec"/>
      <stop offset="1" stop-color="#3fb7ed"/>
    </linearGradient>
    <linearGradient id="Unbenannter_Verlauf_18" data-name="Unbenannter Verlauf 18" x1="-2.45" y1=".45" x2="-2.45" y2=".56" gradientTransform="translate(1428.38 -266.39) scale(508.25 787.45)" gradientUnits="userSpaceOnUse">
      <stop offset="0" stop-color="#1da7e7"/>
      <stop offset="1" stop-color="#37abe7" stop-opacity="0"/>
    </linearGradient>
  </defs>
  <g id="Ebene_2" data-name="Ebene 2">
    <rect class="cls-19" width="256" height="256" rx="45" ry="45"/>
  </g>
  <g>
    <path class="cls-17" d="m94.41,102.08c7.93,24.25,10.93,67.5,34.12,67.5,1.76,0,3.55-.17,5.34-.51-21.08-4.91-23.57-47.7-36.43-69.85-1.03.94-2.03,1.89-3.02,2.87"/>
    <path class="cls-5" d="m97.43,99.21c12.86,22.15,15.36,64.94,36.43,69.85,1.66-.3,3.32-.76,4.98-1.34-18.92-9.27-24.15-50.81-38.75-70.81-.9.75-1.79,1.52-2.66,2.31"/>
    <path class="cls-29" d="m115.96,86.03c-1.76,0-3.55.17-5.34.51-4.69.88-9.46,2.9-14.26,5.96,1.31,1.3,2.56,2.78,3.74,4.39,4.89-4.05,9.74-7.05,14.58-8.85,1.77-.66,3.58-1.17,5.44-1.51-1.36-.34-2.75-.51-4.15-.51"/>
    <path class="cls-26" d="m153.61,159.17c2.02-1.61,3.96-3.31,5.82-5.1-8.06-24.13-10.94-68-34.29-68-1.67,0-3.35.16-5.03.47,21.27,5.29,23.99,51.56,33.51,72.64"/>
    <path class="cls-6" d="m120.11,86.54c-1.36-.34-2.75-.51-4.15-.51l9.18.03c-1.67,0-3.35.16-5.03.47"/>
    <path class="cls-9" d="m153.2,164.3c-.91-.87-1.78-1.83-2.63-2.84-3.93,2.78-7.84,4.89-11.73,6.26,1.39.68,2.86,1.18,4.37,1.49,1.23.25,2.47.37,3.73.37,4.36,0,7.81-.52,10.75-1.92-1.62-.87-3.1-2.01-4.49-3.35"/>
    <path class="cls-7" d="m114.67,88.06c19.05,9.96,20.7,55.08,35.9,73.4,1.03-.73,2.05-1.49,3.04-2.28-9.51-21.08-12.24-67.35-33.5-72.64-1.85.35-3.67.86-5.44,1.52"/>
    <path class="cls-24" d="m100.09,96.9c14.6,20,19.83,61.54,38.75,70.81,3.89-1.37,7.8-3.48,11.73-6.26-15.2-18.32-16.86-63.44-35.9-73.4-4.84,1.8-9.69,4.79-14.58,8.85"/>
    <path class="cls-22" d="m85.06,101.49c-2.29,5.18-4.63,11.98-7.45,20.86,5.62-7.92,11.23-14.75,16.8-20.27-.77-2.36-1.59-4.54-2.48-6.48-2.39,1.84-4.68,3.81-6.86,5.89"/>
    <path class="cls-25" d="m93.96,94.11c-.68.49-1.36.98-2.03,1.49.89,1.94,1.71,4.11,2.48,6.47.99-.97,2-1.93,3.02-2.87-1.08-1.85-2.23-3.57-3.47-5.1"/>
    <path class="cls-4" d="m96.36,92.51c-.81.52-1.61,1.05-2.4,1.6,1.25,1.54,2.39,3.25,3.47,5.11.87-.79,1.76-1.56,2.66-2.31-1.17-1.62-2.42-3.1-3.74-4.39"/>
    <path class="cls-11" d="m226.29,84.19c-10.77,41.55-33.28,74.92-52.14,83.33h-.03c-.34.16-.68.3-1.02.44-.05.03-.09.03-.12.05-.1.04-.19.07-.29.11-.05.03-.09.04-.13.05-.16.06-.31.1-.47.17-.07.03-.13.05-.19.07-.08.03-.15.05-.23.08-.07.03-.15.05-.23.08-.07.03-.14.04-.2.07-.14.04-.26.07-.4.12-.06,0-.11.03-.17.05-.09.03-.18.05-.27.07-.06.03-.12.04-.18.05-.1.03-.2.05-.3.08l-.36.08c.86.32,1.78.48,2.7.47,17.89,0,35.92-32.06,65.77-85.37h-11.74Z"/>
    <path class="cls-16" d="m73.73,87.72l.03-.03s.04,0,.04-.03h.02c.1-.03.19-.07.29-.11.03,0,.04,0,.06-.03.03,0,.05-.03.07-.03.11-.03.21-.07.31-.11h.02c.24-.07.46-.16.69-.24.03,0,.06-.03.1-.03.1-.03.19-.06.29-.09.05-.03.09-.03.13-.04.1-.03.2-.06.3-.09.04,0,.08-.03.11-.03.33-.09.65-.18.98-.25.05,0,.08-.03.13-.03.1-.03.18-.04.29-.06.04-.03.09-.03.14-.04.1-.03.19-.03.29-.05h.07c.2-.04.4-.07.6-.11h.12c.1-.03.18-.03.28-.05.05,0,.11-.03.16-.03.09,0,.18-.03.26-.04.05,0,.09,0,.15-.03.21-.03.42-.04.64-.06-.63-.06-1.27-.1-1.9-.1-20.15,0-47.9,37.38-60.4,85.79h2.41c4-7.14,7.6-13.89,10.88-20.22,8.76-34.29,26.59-57.67,42.43-63.86"/>
    <path class="cls-14" d="m85.07,101.49c2.18-2.09,4.47-4.05,6.86-5.89-.49-1.08-1.03-2.14-1.63-3.16-1.84,2.24-3.53,5.19-5.23,9.05"/>
    <path class="cls-14" d="m86.72,88c1.31,1.1,2.49,2.62,3.57,4.44.34-.42.68-.8,1.04-1.16-1.5-1.4-3.11-2.54-4.87-3.41.07.04.14.07.22.1,0,0,.03.03.04.03"/>
    <path class="cls-30" d="m31.29,151.58c18.37-35.4,27.07-57.8,42.44-63.87-15.84,6.2-33.68,29.58-42.43,63.87"/>
    <path class="cls-8" d="m91.33,91.28c-.36.36-.7.75-1.04,1.16.6,1.02,1.15,2.08,1.64,3.16.67-.51,1.34-1.01,2.03-1.49-.81-1-1.69-1.95-2.63-2.83"/>
    <path class="cls-32" d="m39.63,171.65c-.11.03-.23.03-.33.04h-.06c-.1,0-.2.03-.28.03h-.05c-.23.03-.46.03-.68.04h-.07c18.59-.52,27.09-9.83,31.31-23.33,3.21-10.24,5.84-18.86,8.14-26.09-7.79,10.96-15.61,24.03-23.48,38.66-3.79,7.05-9.56,10-14.51,10.63"/>
    <path class="cls-31" d="m39.63,171.64c4.95-.63,10.71-3.57,14.51-10.63,7.86-14.63,15.69-27.7,23.47-38.66,2.83-8.88,5.17-15.68,7.46-20.86-15.51,14.76-31.08,39.3-45.44,70.15"/>
    <path class="cls-27" d="m31.29,151.59c-3.29,6.34-6.88,13.09-10.88,20.22h7.01c.89-6.81,2.18-13.56,3.87-20.22"/>
    <path class="cls-33" d="m79.66,86.19c-.06,0-.1.03-.15.03-.08.03-.17.03-.26.04-.05,0-.1,0-.16.03-.1.03-.18.03-.28.05-.04,0-.08,0-.12.03-.2.03-.4.07-.6.1h-.07c-.1.03-.2.04-.29.06-.05.03-.1.03-.15.04-.1.03-.19.04-.28.06-.05.03-.09.03-.13.03-.33.08-.65.16-.98.26-.03,0-.07.03-.11.03-.1.03-.19.06-.3.09-.04.03-.09.03-.13.04-.1.03-.2.06-.29.09-.04,0-.07.03-.11.03-.23.08-.45.17-.68.24-.1.03-.21.07-.31.11-.04.03-.08.03-.13.05-.1.03-.2.07-.29.11-.03.03-.07.03-.1.05-15.36,6.06-24.07,28.47-42.44,63.86-1.7,6.66-2.99,13.41-3.87,20.22h.98c2.77,0,3.55-.03,6.74-.03h3.09c.22-.03.45-.03.67-.05h.04c.1,0,.19-.03.28-.03h.07c.1,0,.22-.03.33-.04,14.36-30.84,29.93-55.39,45.44-70.15,1.7-3.86,3.39-6.81,5.23-9.05-1.08-1.82-2.25-3.34-3.57-4.44,0,0-.04,0-.04-.03-.08-.03-.15-.07-.22-.1-.07-.04-.14-.07-.22-.11-.07-.03-.14-.06-.21-.1-.09-.03-.17-.07-.25-.1-.07-.03-.13-.06-.19-.08-.14-.05-.27-.11-.41-.17-.06-.03-.12-.04-.17-.06-.1-.04-.2-.08-.31-.12-.05-.03-.11-.03-.16-.05-.14-.05-.29-.1-.42-.14h-.04c-.16-.05-.32-.09-.49-.14-.04-.03-.07-.03-.11-.03-.15-.04-.27-.08-.41-.12-.03,0-.07-.03-.1-.03-.34-.09-.68-.16-1.02-.22-.03,0-.07-.03-.11-.03-.15-.03-.29-.05-.44-.07-.04-.03-.06-.03-.09-.03-.17-.03-.35-.05-.52-.07h-.09c-.14-.03-.27-.03-.4-.04-.22.03-.44.04-.64.06"/>
    <path class="cls-12" d="m184.2,107.19c-3.53,11.32-6.4,20.66-8.89,28.35,9.7-13.35,19.25-30.13,28.35-49.51-10.61,3.33-16.27,10.96-19.46,21.16"/>
    <path class="cls-13" d="m175.62,166.81c-.49.25-.99.49-1.48.71,18.87-8.41,41.37-41.78,52.14-83.33h-2.18c-24.75,44.21-32.71,73.81-48.48,82.62"/>
    <path class="cls-28" d="m163.31,163.1c4.1-5.01,7.45-13.53,12.01-27.56-5.27,7.23-10.56,13.45-15.87,18.52q-3.54,3.38-.03.04c1.16,3.47,2.43,6.53,3.87,9"/>
    <path class="cls-9" d="m163.31,163.1c-1.4,1.7-2.88,3-4.52,3.97-.36.21-.72.41-1.1.59,1.79.97,3.74,1.58,5.76,1.81.31.03.62.06.94.08h.06c.14,0,.3,0,.45.03h1.54c.06,0,.12,0,.17-.03.11,0,.23,0,.34-.03h.17c.12,0,.24-.03.37-.04h.03s.08-.03.11-.03c.13-.03.27-.04.39-.06h.12c.14-.03.29-.05.44-.07h.07c.3-.06.59-.11.88-.19-2.43-.89-4.47-2.99-6.23-5.99"/>
    <path class="cls-18" d="m128.53,169.58c1.77,0,3.55-.17,5.34-.52,1.66-.3,3.32-.76,4.98-1.34,1.39.68,2.85,1.18,4.37,1.49,1.23.25,2.48.37,3.73.37h-18.42,0Z"/>
    <path class="cls-18" d="m146.94,169.58c4.36,0,7.81-.52,10.74-1.92,1.79.97,3.74,1.58,5.76,1.82.31.03.62.06.94.08h.06c.14,0,.3,0,.45.03h.53-18.49.01Z"/>
    <path class="cls-20" d="m165.43,169.58h1.01c.06,0,.12,0,.17-.03.11,0,.23,0,.34-.03h.17c.12,0,.24-.03.36-.04h.03s.07-.03.11-.03c.13-.03.27-.04.39-.06.04,0,.08,0,.12-.03.14-.03.29-.04.44-.07h.07c.3-.06.59-.11.88-.19.86.32,1.78.48,2.7.47l-6.8.03v-.03h.01Z"/>
    <path class="cls-15" d="m159.43,154.1v-.03c-1.86,1.79-3.8,3.49-5.82,5.1-.99.79-2,1.55-3.04,2.28.85,1.02,1.72,1.97,2.63,2.85,1.39,1.34,2.87,2.48,4.49,3.35.37-.18.74-.38,1.09-.59,1.65-.96,3.13-2.26,4.52-3.97-1.45-2.47-2.72-5.53-3.87-9"/>
    <path class="cls-1" d="m217.19,84.19h-10.99c-.59.03-1.17.05-1.74.08-.27.58-.55,1.15-.81,1.73-9.1,19.37-18.65,36.16-28.35,49.51-4.56,14.03-7.91,22.55-12.01,27.56,1.75,2.99,3.8,5.1,6.22,5.99.07-.03.13-.03.19-.04h.04s.09-.03.13-.03c.1-.03.21-.05.3-.08.06-.03.12-.03.18-.05.09-.03.19-.05.27-.07.06-.03.11-.04.17-.05.14-.05.27-.08.4-.12.06-.03.13-.05.2-.07.08-.03.16-.05.23-.08.08-.03.16-.04.23-.07.06-.03.13-.05.19-.07.16-.06.31-.1.47-.17.04,0,.09-.04.13-.05.1-.04.19-.07.29-.11.03-.03.08-.03.12-.05.33-.14.68-.28,1.02-.44h.04c.5-.22.99-.46,1.48-.71,15.77-8.81,23.73-38.41,48.48-82.62h-6.91.03Z"/>
    <path class="cls-21" d="m80.31,86.13s.07,0,.11.03c.1,0,.19,0,.29.03h.1c.17.03.35.04.52.07.03,0,.06,0,.09.03.15.03.29.05.44.07.03,0,.07.03.11.03.34.07.69.14,1.02.23.03,0,.06.03.09.03.14.03.27.08.41.12.04,0,.07.03.11.03.17.04.32.08.48.14,0,0,.02,0,.04.03.14.04.28.1.42.14.06.03.11.04.16.05.1.04.21.08.3.12.06,0,.11.04.17.06.13.06.27.11.4.17.07.03.13.06.2.09.08.04.16.08.24.1.07.03.15.07.22.1.07.04.14.07.22.11,1.75.86,3.37,2.01,4.87,3.41.54-.56,1.11-1.09,1.73-1.57-3.27-2.32-6.98-3.65-11.26-3.65-.5,0-.99.03-1.49.07"/>
    <path class="cls-3" d="m91.33,91.28c.94.88,1.82,1.83,2.63,2.83.79-.55,1.59-1.09,2.4-1.6-1.02-1.03-2.12-1.96-3.3-2.8-.61.48-1.19,1-1.72,1.57"/>
    <path class="cls-23" d="m80.31,86.13c.5-.04,1-.06,1.49-.06,4.28,0,7.99,1.32,11.26,3.64,3.45-2.73,7.63-3.68,13.43-3.68h-28.08c.65,0,1.28.04,1.9.1"/>
    <path class="cls-2" d="m106.48,86.04c-5.8,0-9.97.95-13.43,3.68,1.18.84,2.28,1.77,3.3,2.8,4.81-3.06,9.57-5.08,14.27-5.97,1.76-.33,3.55-.51,5.34-.51h-9.48Z"/>
    <path class="cls-10" d="m175.32,135.54c2.49-7.69,5.35-17.03,8.89-28.35,3.19-10.2,8.84-17.83,19.45-21.16.28-.57.55-1.16.82-1.73-17.3,1.04-25.38,9.84-29.45,22.87-7.11,22.75-11.42,37.5-15.57,46.89,5.3-5.07,10.6-11.29,15.86-18.51"/>
  </g>
</svg>