<?xml version="1.0" encoding="UTF-8"?><svg id="a" xmlns="http://www.w3.org/2000/svg" viewBox="0 0 128 128"><defs><style>.b{fill:#fff;}.c{fill:#009cde;}</style></defs><rect class="c" x="0" y="0" width="128" height="128" rx="25" ry="25" transform="translate(128 0) rotate(90)"/><path class="b" d="m81.3,32.4c-7.73-7.73-15.11-15.09-17.3-23.4-2.2,8.31-9.57,15.67-17.3,23.4-11.59,11.59-24.74,24.72-24.74,44.42-.08,23.22,18.69,42.11,41.91,42.18,23.22.08,42.11-18.69,42.18-41.91,0-.09,0-.18,0-.28,0-19.7-13.14-32.83-24.74-44.42m-41.47,54.21c-2.58-.09-12.09-16.49,5.56-33.95l11.68,12.76c.39.39.4,1.02,0,1.41-.03.03-.06.05-.09.08-2.79,2.86-14.67,14.77-16.14,18.89-.3.85-.75.82-1.02.81m24.17,21.61c-7.99,0-14.46-6.47-14.46-14.46h0c.05-3.51,1.33-6.88,3.6-9.55,2.61-3.19,10.85-12.16,10.85-12.16,0,0,8.12,9.1,10.83,12.13,2.36,2.63,3.66,6.05,3.63,9.58,0,7.99-6.47,14.46-14.46,14.46m27.68-23.45c-.31.68-1.02,1.82-1.97,1.85-1.7.06-1.88-.81-3.14-2.67-2.76-4.08-26.85-29.26-31.35-34.13-3.96-4.28-.56-7.3,1.02-8.88,1.98-1.98,7.76-7.77,7.76-7.77,0,0,17.25,16.36,24.43,27.54,7.18,11.18,4.71,20.85,3.25,24.05"/></svg>