<?xml version="1.0" encoding="UTF-8" standalone="no"?>
<!DOCTYPE svg PUBLIC "-//W3C//DTD SVG 1.1//EN" "http://www.w3.org/Graphics/SVG/1.1/DTD/svg11.dtd">
<!-- Created with Vectornator (http://vectornator.io/) -->
<svg height="100%" stroke-miterlimit="10" style="fill-rule:nonzero;clip-rule:evenodd;stroke-linecap:round;stroke-linejoin:round;" version="1.1" viewBox="0 0 512 512" width="100%" xml:space="preserve" xmlns="http://www.w3.org/2000/svg" xmlns:vectornator="http://vectornator.io" xmlns:xlink="http://www.w3.org/1999/xlink">
<defs>
<linearGradient gradientTransform="matrix(1.3052 0 0 1.3052 171.622 229.076)" gradientUnits="userSpaceOnUse" id="LinearGradient" x1="141.085" x2="141.085" y1="249.976" y2="77.9409">
<stop offset="0.3033" stop-color="#473788"/>
<stop offset="0.872" stop-color="#2c2255"/>
</linearGradient>
<linearGradient gradientTransform="matrix(1.3052 0 0 1.3052 171.622 229.076)" gradientUnits="userSpaceOnUse" id="LinearGradient_2" x1="141.084" x2="141.084" y1="249.988" y2="77.94">
<stop offset="0.3033" stop-color="#473788"/>
<stop offset="0.872" stop-color="#2c2255"/>
</linearGradient>
<linearGradient gradientTransform="matrix(1.3052 0 0 1.3052 171.622 229.076)" gradientUnits="userSpaceOnUse" id="LinearGradient_3" x1="141.085" x2="141.085" y1="249.979" y2="77.9472">
<stop offset="0.3033" stop-color="#473788"/>
<stop offset="0.8631" stop-color="#2c2255"/>
</linearGradient>
</defs>
<g id="Ebene-1" vectornator:layerName="Ebene 1">
<path d="M2.84217e-14 95C2.84217e-14 42.5329 42.5329 0 95 0L417 0C469.467 0 512 42.5329 512 95L512 417C512 469.467 469.467 512 417 512L95 512C42.5329 512 2.84217e-14 469.467 2.84217e-14 417L2.84217e-14 95Z" fill="#363636" fill-rule="nonzero" opacity="1" stroke="none" vectornator:layerName="Rechteck 1"/>
</g>
<g id="Ebene-2" vectornator:layerName="Ebene 2">
<g opacity="1" vectornator:layerName="eclipse-11.svg">
<path d="M181.148 299.019L130.086 299.019C136.847 322.21 149.393 342.995 167.76 361.366C197.04 390.649 232.249 405.273 273.423 405.273C281.654 405.273 289.628 404.659 297.373 403.491C328.386 398.809 355.54 384.788 378.805 361.366C397.289 343.002 409.923 322.21 416.736 299.019L181.148 299.019ZM152.993 229.669L126.318 229.669C125.324 235.619 124.675 241.623 124.376 247.648L422.482 247.648C422.178 241.514 421.512 235.529 420.528 229.669M124.376 264.344C124.678 270.482 125.339 276.465 126.318 282.323L420.533 282.323C421.535 276.373 422.188 270.37 422.491 264.344M416.743 212.969C409.936 189.714 397.299 168.831 378.805 150.333C355.601 127.13 328.526 113.209 297.612 108.526C289.607 107.315 281.521 106.711 273.424 106.717C232.251 106.717 197.039 121.261 167.761 150.334C149.388 168.831 136.834 189.714 130.079 212.969" fill="#2c2255" fill-rule="nonzero" opacity="1" stroke="none" vectornator:layerName="path"/>
<path d="M115.511 256.001C115.511 177.25 174.655 111.818 251.596 100.308C249.688 100.239 247.769 100.162 245.842 100.162C159.5 100.163 89.5 169.937 89.5 256.001C89.5 342.07 159.498 411.838 245.842 411.838C247.776 411.838 249.693 411.765 251.609 411.694C174.655 400.186 115.511 334.753 115.511 256.001Z" fill="#f7941e" fill-rule="nonzero" opacity="1" stroke="none" vectornator:layerName="path"/>
<g opacity="1" vectornator:layerName="g">
<path d="M374.877 247.644C374.39 241.571 373.357 235.553 371.792 229.665L175.07 229.665C173.503 235.553 172.469 241.571 171.982 247.644L374.877 247.644Z" fill="url(#LinearGradient)" fill-rule="nonzero" opacity="1" stroke="none" vectornator:layerName="path"/>
<path d="M374.877 264.343L171.985 264.343C172.47 270.417 173.503 276.435 175.07 282.323L371.794 282.323C373.359 276.434 374.391 270.417 374.877 264.343Z" fill="url(#LinearGradient_2)" fill-rule="nonzero" opacity="1" stroke="none" vectornator:layerName="path"/>
<path d="M273.431 357.816C314.284 357.816 349.5 333.747 365.716 299.019L181.146 299.019C197.363 333.747 232.577 357.816 273.431 357.816Z" fill="url(#LinearGradient_3)" fill-rule="nonzero" opacity="1" stroke="none" vectornator:layerName="path"/>
</g>
<path d="M156.947 264.344L422.281 264.344C422.422 261.688 422.5 259.014 422.5 256.321C422.5 253.408 422.394 250.521 422.229 247.645L124.376 247.645C124.212 250.517 124.105 253.408 124.105 256.321C124.105 259.014 124.183 261.688 124.324 264.344L156.947 264.344ZM180.551 212.969L130.076 212.969C128.417 218.406 127.347 223.985 126.318 229.669L419.585 229.669C418.572 224.029 417.232 218.453 415.572 212.969M400.41 282.321L126.316 282.321C127.315 288.001 128.454 293.575 130.085 299.019L416.548 299.019C418.186 293.534 419.503 287.959 420.494 282.321L400.41 282.321Z" fill="#ffffff" fill-rule="nonzero" opacity="1" stroke="none" vectornator:layerName="path"/>
</g>
</g>
</svg>
