<?xml version="1.0" encoding="UTF-8"?>
<svg id="Ebene_1" data-name="Ebene 1" xmlns="http://www.w3.org/2000/svg" xmlns:xlink="http://www.w3.org/1999/xlink" viewBox="0 0 256 256">
  <defs>
    <style>
      .cls-1 {
        fill: #2c2255;
      }

      .cls-2 {
        fill: url(#Unbenannter_Verlauf_2-2);
      }

      .cls-3 {
        fill: #fff;
      }

      .cls-4 {
        fill: url(#Unbenannter_Verlauf_2);
      }

      .cls-5 {
        fill: #27282c;
      }

      .cls-6 {
        fill: url(#Unbenannter_Verlauf_3);
      }

      .cls-7 {
        fill: #f7941e;
      }
    </style>
    <linearGradient id="Unbenannter_Verlauf_2" data-name="Unbenannter Verlauf 2" x1="-.2" y1="259.55" x2="-.2" y2="260.55" gradientTransform="translate(440.74 35145.2) scale(1518.09 -134.52)" gradientUnits="userSpaceOnUse">
      <stop offset=".3" stop-color="#473788"/>
      <stop offset=".87" stop-color="#2c2255"/>
    </linearGradient>
    <linearGradient id="Unbenannter_Verlauf_2-2" data-name="Unbenannter Verlauf 2" x1="-.2" y1="261.48" x2="-.2" y2="262.48" gradientTransform="translate(440.76 35407.17) scale(1518.07 -134.53)" xlink:href="#Unbenannter_Verlauf_2"/>
    <linearGradient id="Unbenannter_Verlauf_3" data-name="Unbenannter Verlauf 3" x1="-.27" y1="258.27" x2="-.27" y2="258.57" gradientTransform="translate(509.3 113846.62) scale(1380.98 -439.92)" gradientUnits="userSpaceOnUse">
      <stop offset=".3" stop-color="#473788"/>
      <stop offset=".86" stop-color="#2c2255"/>
    </linearGradient>
  </defs>
  <g id="Ebene_2" data-name="Ebene 2">
    <path class="cls-5" d="m256,35v186c0,19.3-15.7,35-35,35H35c-19.3,0-35-15.7-35-35V35C0,15.7,15.7,0,35,0h186c19.3,0,35,15.7,35,35Z"/>
  </g>
  <g>
    <path class="cls-1" d="m83.04,153.84h-30.67c4.06,13.93,11.6,26.41,22.63,37.45,17.59,17.59,38.73,26.37,63.46,26.37,4.94,0,9.73-.37,14.38-1.07,18.63-2.81,34.93-11.23,48.91-25.3,11.1-11.03,18.69-23.52,22.78-37.45H83.04Zm-16.91-41.65h-16.02c-.6,3.57-.99,7.18-1.17,10.8h179.04c-.18-3.68-.58-7.28-1.17-10.8m-177.87,20.83c.18,3.69.58,7.28,1.17,10.8h176.71c.6-3.57.99-7.18,1.18-10.8m-3.45-30.86c-4.09-13.97-11.68-26.51-22.79-37.62-13.94-13.94-30.2-22.3-48.76-25.11-4.81-.73-9.66-1.09-14.53-1.09-24.73,0-45.88,8.74-63.46,26.2-11.03,11.11-18.57,23.65-22.63,37.62"/>
    <path class="cls-7" d="m43.62,128c0-47.3,35.52-86.6,81.73-93.51-1.15-.04-2.3-.09-3.46-.09-51.86,0-93.9,41.91-93.9,93.6s42.04,93.6,93.9,93.6c1.16,0,2.31-.04,3.46-.09-46.22-6.91-81.74-46.21-81.74-93.51h0Z"/>
    <g>
      <path class="cls-4" d="m199.4,122.98c-.29-3.65-.91-7.26-1.85-10.8h-118.15c-.94,3.54-1.56,7.15-1.85,10.8h121.86Z"/>
      <path class="cls-2" d="m199.4,133.01h-121.86c.29,3.65.91,7.26,1.85,10.8h118.15c.94-3.54,1.56-7.15,1.85-10.8Z"/>
      <path class="cls-6" d="m138.47,189.15c24.54,0,45.69-14.46,55.43-35.31h-110.85c9.74,20.86,30.89,35.31,55.43,35.31Z"/>
    </g>
    <path class="cls-3" d="m68.51,133.01h159.36c.08-1.6.13-3.2.13-4.82,0-1.75-.06-3.48-.16-5.21H48.95c-.1,1.72-.16,3.46-.16,5.21,0,1.62.05,3.22.13,4.82h19.59Zm14.18-30.86h-30.32c-1,3.27-1.64,6.62-2.26,10.03h176.14c-.61-3.39-1.41-6.74-2.41-10.03m-9.11,41.65H50.11c.6,3.41,1.28,6.76,2.26,10.03h172.05c.98-3.29,1.77-6.64,2.37-10.03h-12.06Z"/>
  </g>
</svg>