<?xml version="1.0" encoding="UTF-8"?>
<svg id="Ebene_1" data-name="Ebene 1" xmlns="http://www.w3.org/2000/svg" xmlns:xlink="http://www.w3.org/1999/xlink" viewBox="0 0 256 256">
  <defs>
    <style>
      .cls-1 {
        fill: url(#Unbenannter_Verlauf_4);
        opacity: .41;
      }

      .cls-1, .cls-2 {
        isolation: isolate;
      }

      .cls-3 {
        fill: url(#Unbenannter_Verlauf_7);
      }

      .cls-2 {
        fill: url(#Unbenannter_Verlauf_2);
        opacity: .35;
      }

      .cls-4 {
        fill: #27282c;
      }

      .cls-5 {
        fill: url(#Unbenannter_Verlauf_6);
      }

      .cls-6 {
        fill: url(#Unbenannter_Verlauf_5);
      }

      .cls-7 {
        fill: url(#Unbenannter_Verlauf_3);
      }
    </style>
    <linearGradient id="Unbenannter_Verlauf_7" data-name="Unbenannter Verlauf 7" x1="20.89" y1="40.64" x2="37.16" y2="40.64" gradientTransform="translate(-105.04 -181.72) scale(8.56)" gradientUnits="userSpaceOnUse">
      <stop offset="0" stop-color="#0c59a4"/>
      <stop offset="1" stop-color="#114a8b"/>
    </linearGradient>
    <radialGradient id="Unbenannter_Verlauf_2" data-name="Unbenannter Verlauf 2" cx="29.88" cy="47.51" fx="29.88" fy="47.51" r="8.7" gradientTransform="translate(-105.04 -219.06) scale(8.56 8.13)" gradientUnits="userSpaceOnUse">
      <stop offset=".72" stop-color="#000" stop-opacity="0"/>
      <stop offset=".95" stop-color="#000" stop-opacity=".53"/>
      <stop offset="1" stop-color="#000"/>
    </radialGradient>
    <linearGradient id="Unbenannter_Verlauf_3" data-name="Unbenannter Verlauf 3" x1="29.48" y1="33.59" x2="19.31" y2="44.66" gradientTransform="translate(-105.04 -181.72) scale(8.56)" gradientUnits="userSpaceOnUse">
      <stop offset="0" stop-color="#1b9de2"/>
      <stop offset=".16" stop-color="#1595df"/>
      <stop offset=".67" stop-color="#0680d7"/>
      <stop offset="1" stop-color="#0078d4"/>
    </linearGradient>
    <radialGradient id="Unbenannter_Verlauf_4" data-name="Unbenannter Verlauf 4" cx="-198.76" cy="99.94" fx="-198.76" fy="99.94" r="13.07" gradientTransform="translate(-346.17 -1604.2) rotate(-81.38) scale(8.57 6.93) skewX(.07)" gradientUnits="userSpaceOnUse">
      <stop offset=".76" stop-color="#000" stop-opacity="0"/>
      <stop offset=".95" stop-color="#000" stop-opacity=".5"/>
      <stop offset="1" stop-color="#000"/>
    </radialGradient>
    <radialGradient id="Unbenannter_Verlauf_5" data-name="Unbenannter Verlauf 5" cx="100.38" cy="-308.06" fx="100.38" fy="-308.06" r="18.47" gradientTransform="translate(-5536.19 -1005.57) rotate(92.29) scale(8.57 18.25) skewX(.3)" gradientUnits="userSpaceOnUse">
      <stop offset="0" stop-color="#35c1f1"/>
      <stop offset=".11" stop-color="#34c1ed"/>
      <stop offset=".23" stop-color="#2fc2df"/>
      <stop offset=".31" stop-color="#2bc3d2"/>
      <stop offset=".67" stop-color="#36c752"/>
    </radialGradient>
    <radialGradient id="Unbenannter_Verlauf_6" data-name="Unbenannter Verlauf 6" cx="278.8" cy="-81.35" fx="278.8" fy="-81.35" r="8.88" gradientTransform="translate(-996.27 -2043.14) rotate(73.74) scale(8.56 6.96) skewX(.14)" gradientUnits="userSpaceOnUse">
      <stop offset="0" stop-color="#66eb6e"/>
      <stop offset="1" stop-color="#66eb6e" stop-opacity="0"/>
    </radialGradient>
  </defs>
  <g id="Ebene_2" data-name="Ebene 2">
    <path class="cls-4" d="m45,0h166c24.85,0,45,20.15,45,45v166c0,24.85-20.15,45-45,45H45c-24.85,0-45-20.15-45-45V45C0,20.15,20.15,0,45,0Z"/>
  </g>
  <g>
    <path class="cls-3" d="m208.51,176.84c-2.67,1.39-5.42,2.62-8.23,3.68-8.97,3.36-18.47,5.07-28.05,5.05-36.97,0-69.17-25.43-69.17-58.06.1-8.91,5.01-17.07,12.84-21.33-33.44,1.41-42.03,36.25-42.03,56.66,0,57.72,53.19,63.57,64.65,63.57,6.18,0,15.5-1.8,21.09-3.56l1.02-.34c21.52-7.44,39.87-21.99,52.03-41.25.92-1.46.49-3.39-.96-4.31-.97-.61-2.19-.65-3.19-.09h0Z"/>
    <path class="cls-2" d="m208.51,176.84c-2.67,1.39-5.42,2.62-8.23,3.68-8.97,3.36-18.47,5.07-28.05,5.05-36.97,0-69.17-25.43-69.17-58.06.1-8.91,5.01-17.07,12.84-21.33-33.44,1.41-42.03,36.25-42.03,56.66,0,57.72,53.19,63.57,64.65,63.57,6.18,0,15.5-1.8,21.09-3.56l1.02-.34c21.52-7.44,39.87-21.99,52.03-41.25.92-1.46.49-3.39-.96-4.31-.97-.61-2.19-.65-3.19-.09h0Z"/>
    <path class="cls-7" d="m110.6,216.58c-6.97-4.32-13.01-9.99-17.76-16.67-20.53-28.13-14.37-67.58,13.76-88.11,2.94-2.14,6.05-4.03,9.31-5.63,2.44-1.15,6.6-3.23,12.14-3.12,7.91.06,15.34,3.82,20.07,10.16,3.15,4.21,4.89,9.32,4.97,14.58,0-.16,19.11-62.18-62.5-62.18-34.29,0-62.5,32.54-62.5,61.1-.14,15.1,3.1,30.05,9.46,43.75,21.53,45.93,74.04,68.47,122.16,52.43-16.47,5.19-34.4,2.91-49.04-6.25l-.07-.03Z"/>
    <path class="cls-1" d="m110.6,216.58c-6.97-4.32-13.01-9.99-17.76-16.67-20.53-28.13-14.37-67.58,13.76-88.11,2.94-2.14,6.05-4.03,9.31-5.63,2.44-1.15,6.6-3.23,12.14-3.12,7.91.06,15.34,3.82,20.07,10.16,3.15,4.21,4.89,9.32,4.97,14.58,0-.16,19.11-62.18-62.5-62.18-34.29,0-62.5,32.54-62.5,61.1-.14,15.1,3.1,30.05,9.46,43.75,21.53,45.93,74.04,68.47,122.16,52.43-16.47,5.19-34.4,2.91-49.04-6.25l-.07-.03Z"/>
    <path class="cls-6" d="m147,144.28c-.63.82-2.58,1.95-2.58,4.42,0,2.04,1.33,4,3.69,5.65,11.23,7.81,32.41,6.78,32.47,6.78,8.32-.02,16.49-2.27,23.65-6.52,14.69-8.58,23.74-24.3,23.77-41.31.2-17.51-6.25-29.15-8.86-34.3-16.55-32.38-52.29-51-91.14-51-54.68,0-99.22,43.91-99.99,98.59.37-28.55,28.75-51.6,62.5-51.6,2.73,0,18.33.27,32.81,7.87,12.76,6.7,19.45,14.8,24.1,22.82,4.83,8.34,5.69,18.87,5.69,23.06s-2.14,10.41-6.09,15.55Z"/>
    <path class="cls-5" d="m147,144.28c-.63.82-2.58,1.95-2.58,4.42,0,2.04,1.33,4,3.69,5.65,11.23,7.81,32.41,6.78,32.47,6.78,8.32-.02,16.49-2.27,23.65-6.52,14.69-8.58,23.74-24.3,23.77-41.31.2-17.51-6.25-29.15-8.86-34.3-16.55-32.38-52.29-51-91.14-51-54.68,0-99.22,43.91-99.99,98.59.37-28.55,28.75-51.6,62.5-51.6,2.73,0,18.33.27,32.81,7.87,12.76,6.7,19.45,14.8,24.1,22.82,4.83,8.34,5.69,18.87,5.69,23.06s-2.14,10.41-6.09,15.55Z"/>
  </g>
</svg>