<?xml version="1.0" encoding="UTF-8"?>
<svg id="Ebene_1" data-name="Ebene 1" xmlns="http://www.w3.org/2000/svg" viewBox="0 0 256 256">
  <defs>
    <style>
      .cls-1 {
        fill: #27282c;
      }

      .cls-2 {
        fill: #2dd0ed;
      }
    </style>
  </defs>
  <g id="Ebene_2" data-name="Ebene 2">
    <rect class="cls-1" width="256" height="256" rx="45" ry="45"/>
  </g>
  <g>
    <path class="cls-2" d="m99.49,68.14c-27.44-5-49.14.23-57.79,15.21-6.45,11.18-4.61,26,4.47,41.84.77,1.35,2.49,1.82,3.84,1.04h0c1.35-.77,1.82-2.49,1.04-3.84-8.18-14.27-9.78-27.06-4.48-36.22,7.18-12.44,26.54-17.11,51.9-12.49,1.53.3,3.01-.69,3.31-2.22.08-.38.07-.77-.01-1.15-.25-1.12-1.15-1.98-2.29-2.17h.01Zm-39.05,76.3c11.1,12.19,25.51,23.63,41.95,33.13,39.81,22.98,82.19,29.13,103.07,14.88,1.27-.9,1.57-2.66.67-3.92-.88-1.24-2.57-1.56-3.84-.73-18.69,12.75-58.95,6.91-97.09-15.11-15.95-9.21-29.91-20.28-40.6-32.04-.76-.86-1.97-1.18-3.05-.79-1.46.52-2.23,2.13-1.71,3.59.13.37.33.7.6.98h0Z"/>
    <path class="cls-2" d="m198.8,141.02c17.97-21.23,24.24-42.58,15.61-57.53-6.35-11-19.78-16.8-37.61-17.04-1.55-.02-2.83,1.22-2.85,2.78-.02,1.14.66,2.17,1.7,2.62.34.15.7.22,1.07.23,16.05.21,27.61,5.21,32.82,14.22,7.17,12.42,1.57,31.46-15.04,51.08-1.03,1.17-.91,2.94.25,3.97l.04.04c1.19,1,2.97.85,3.97-.34,0,0,.02-.02.03-.03h0Zm-46.18-71.94c-16.25,3.48-33.54,10.29-50.15,19.88-41.1,23.73-67.9,58.71-64.18,84.08.19,1.54,1.6,2.64,3.14,2.44,1.54-.19,2.64-1.6,2.44-3.14,0-.04,0-.08-.02-.12-3.3-22.52,22.11-55.69,61.42-78.39,16.11-9.3,32.86-15.89,48.51-19.25,1.51-.38,2.42-1.91,2.04-3.42-.36-1.43-1.77-2.34-3.22-2.09h.02Z"/>
    <path class="cls-2" d="m86.05,190.62c9.4,26.23,24.77,42.38,42.05,42.38,12.6,0,24.27-8.59,33.36-23.72.41-.64.55-1.42.38-2.16-.35-1.51-1.86-2.46-3.38-2.11-.4.09-.77.27-1.09.52-.3.23-.55.52-.73.85-8.17,13.6-18.21,20.99-28.54,20.99-14.35,0-28.07-14.41-36.75-38.66-.24-.72-.76-1.31-1.44-1.64-.34-.16-.7-.26-1.08-.28-1.55-.08-2.88,1.11-2.96,2.67v.05c-.01.37.05.75.18,1.1h0Zm85.82-5.13c4.86-15.54,7.47-33.47,7.47-52.15,0-46.62-16.31-86.81-39.56-97.13-1.43-.6-3.08.07-3.69,1.5-.59,1.39.03,3,1.4,3.64,20.73,9.21,36.22,47.35,36.22,91.98,0,18.12-2.53,35.49-7.22,50.47-.25.72-.19,1.5.15,2.18.7,1.39,2.4,1.94,3.78,1.24.7-.35,1.22-.98,1.43-1.74h.02Zm53-2.76c.05-7.44-5.94-13.51-13.38-13.55-7.44-.05-13.51,5.94-13.55,13.38v.17c.05,7.44,6.12,13.43,13.55,13.38,7.37-.05,13.33-6.01,13.38-13.38Zm-5.63,0c0,4.33-3.51,7.84-7.84,7.84s-7.84-3.51-7.84-7.84,3.51-7.84,7.84-7.84,7.84,3.51,7.84,7.84Zm-174.63,13.47c7.44,0,13.47-6.03,13.47-13.47h0c0-7.44-6.03-13.47-13.47-13.47h0c-7.44,0-13.47,6.03-13.47,13.47h0c0,7.44,6.03,13.47,13.47,13.47h0Zm0-5.63c-4.33,0-7.84-3.5-7.85-7.83s3.5-7.84,7.83-7.85h0c4.33,0,7.84,3.52,7.83,7.85,0,4.33-3.51,7.83-7.83,7.83h.01Z"/>
    <path class="cls-2" d="m128.1,49.94c5.45,0,10.36-3.28,12.44-8.31,2.85-6.87-.42-14.75-7.29-17.6-1.63-.68-3.38-1.02-5.15-1.02-7.44,0-13.47,6.03-13.47,13.47,0,3.57,1.42,7,3.95,9.53s5.95,3.94,9.52,3.94h0Zm0-5.63c-3.17,0-6.03-1.91-7.24-4.84-.8-1.92-.8-4.08,0-6,.8-1.92,2.32-3.45,4.24-4.24,4-1.66,8.59.24,10.24,4.24,1.66,4-.24,8.59-4.24,10.24-.95.39-1.97.6-3,.6h0Zm2.06,98.55c-2.53.55-5.17.07-7.34-1.34-4.52-2.92-5.83-8.95-2.91-13.47,1.4-2.17,3.61-3.7,6.14-4.25,5.22-1.04,10.31,2.3,11.44,7.5,1.12,5.2-2.14,10.35-7.32,11.55h0Z"/>
  </g>
</svg>