<?xml version="1.0" encoding="UTF-8" standalone="no"?>
<!DOCTYPE svg PUBLIC "-//W3C//DTD SVG 1.1//EN" "http://www.w3.org/Graphics/SVG/1.1/DTD/svg11.dtd">
<!-- Created with Vectornator (http://vectornator.io/) -->
<svg height="100%" stroke-miterlimit="10" style="fill-rule:nonzero;clip-rule:evenodd;stroke-linecap:round;stroke-linejoin:round;" version="1.1" viewBox="0 0 512 512" width="100%" xml:space="preserve" xmlns="http://www.w3.org/2000/svg" xmlns:vectornator="http://vectornator.io" xmlns:xlink="http://www.w3.org/1999/xlink">
<defs/>
<g id="Ebene-1" vectornator:layerName="Ebene 1">
<path d="M2.84217e-14 95C2.84217e-14 42.5329 42.5329 0 95 0L417 0C469.467 0 512 42.5329 512 95L512 417C512 469.467 469.467 512 417 512L95 512C42.5329 512 2.84217e-14 469.467 2.84217e-14 417L2.84217e-14 95Z" fill="#363636" fill-rule="nonzero" opacity="1" stroke="none" vectornator:layerName="Rechteck 1"/>
</g>
<g id="Ebene-2" vectornator:layerName="Ebene 2">
<g opacity="1" vectornator:layerName="g">
<path d="M204.301 147.464C154.545 138.402 115.204 147.889 99.5248 175.043C87.8248 195.306 91.1648 222.176 107.631 250.897C109.032 253.344 112.152 254.19 114.598 252.787C117.043 251.384 117.889 248.265 116.488 245.819C101.654 219.95 98.7628 196.761 108.363 180.145C121.386 157.587 156.473 149.125 202.469 157.504C204.158 157.838 205.901 157.298 207.106 156.068C208.311 154.837 208.814 153.083 208.445 151.401C207.995 149.365 206.353 147.807 204.296 147.465L204.301 147.464ZM133.505 285.804C153.622 307.914 179.76 328.651 209.569 345.863C281.742 387.533 358.578 398.671 396.444 372.85C398.713 371.241 399.275 368.112 397.709 365.813C396.142 363.515 393.024 362.894 390.697 364.418C356.805 387.528 283.817 376.947 214.672 337.025C185.751 320.326 160.443 300.248 141.054 278.939C139.674 277.374 137.482 276.805 135.516 277.502C133.893 278.079 132.67 279.435 132.265 281.109C131.859 282.783 132.326 284.549 133.505 285.804Z" fill="#2dd0ed" fill-rule="nonzero" opacity="1" stroke="none" vectornator:layerName="path"/>
<path d="M384.369 279.598C416.947 241.112 428.324 202.401 412.679 175.301C401.166 155.361 376.825 144.833 344.481 144.413C341.663 144.377 339.349 146.63 339.31 149.447C339.279 151.512 340.499 153.39 342.397 154.203C343.013 154.468 343.674 154.609 344.345 154.618C373.436 154.994 394.408 164.066 403.842 180.404C416.835 202.914 406.693 237.435 376.581 273.007C375.675 274.035 375.221 275.385 375.322 276.751C375.422 278.118 376.069 279.387 377.116 280.271C378.162 281.154 379.52 281.58 380.883 281.454C382.247 281.327 383.502 280.659 384.369 279.598ZM300.643 149.164C271.185 155.477 239.833 167.816 209.725 185.199C135.214 228.217 86.6098 291.644 93.3628 337.64C93.5914 339.475 94.7954 341.043 96.5097 341.738C98.2239 342.433 100.18 342.145 101.622 340.986C103.063 339.828 103.765 337.98 103.456 336.156C97.4648 295.321 143.534 235.194 214.823 194.037C244.032 177.172 274.393 165.228 302.782 159.139C305.448 158.469 307.105 155.807 306.528 153.119C305.952 150.43 303.35 148.682 300.643 149.164Z" fill="#2dd0ed" fill-rule="nonzero" opacity="1" stroke="none" vectornator:layerName="path"/>
<path d="M179.935 369.525C196.976 417.084 224.838 446.371 256.176 446.371C279.027 446.371 300.17 430.795 316.659 403.368C317.406 402.207 317.651 400.794 317.339 399.449C316.946 397.755 315.717 396.377 314.078 395.795C312.439 395.212 310.617 395.505 309.243 396.572C308.703 396.991 308.253 397.513 307.919 398.109C293.099 422.758 274.896 436.171 256.176 436.171C230.15 436.171 205.292 410.048 189.545 366.083C189.108 364.782 188.167 363.711 186.934 363.111C186.323 362.815 185.659 362.643 184.981 362.606C183.611 362.534 182.27 363.015 181.259 363.942C180.248 364.87 179.652 366.164 179.606 367.535C179.584 368.214 179.697 368.89 179.94 369.525L179.935 369.525ZM335.531 360.218C344.349 332.045 349.081 299.535 349.081 265.658C349.081 181.136 319.501 108.27 277.362 89.559C274.8 88.4813 271.847 89.6518 270.719 92.1918C269.591 94.7319 270.703 97.7074 273.221 98.885C310.804 115.575 338.881 184.725 338.881 265.658C338.881 298.519 334.291 330.004 325.795 357.172C325.35 358.473 325.451 359.899 326.075 361.125C327.025 362.996 329.023 364.094 331.112 363.894C333.2 363.694 334.954 362.235 335.531 360.218ZM431.62 355.223C431.676 346.462 427.034 338.342 419.455 333.946C411.877 329.549 402.524 329.549 394.946 333.946C387.368 338.343 382.727 346.463 382.783 355.224C382.869 368.649 393.776 379.487 407.202 379.486C420.627 379.486 431.534 368.648 431.62 355.223ZM421.415 355.223C421.413 363.072 415.05 369.435 407.201 369.437C399.351 369.436 392.989 363.073 392.989 355.224C392.989 347.374 399.352 341.011 407.201 341.011C415.051 341.011 421.414 347.374 421.415 355.223ZM104.799 379.642C118.286 379.644 129.219 368.71 129.218 355.223C129.219 341.736 118.285 330.802 104.798 330.804C91.3114 330.803 80.3786 341.737 80.3798 355.223C80.3786 368.71 91.3121 379.643 104.799 379.642ZM104.799 369.437C96.9469 369.437 90.5818 363.072 90.5818 355.22C90.5818 347.368 96.9469 341.003 104.799 341.003C112.651 341.003 119.016 347.368 119.016 355.22C119.016 363.072 112.651 369.437 104.799 369.437Z" fill="#2dd0ed" fill-rule="nonzero" opacity="1" stroke="none" vectornator:layerName="path"/>
<path d="M256.176 114.467C266.053 114.468 274.957 108.518 278.736 99.392C281.855 91.8574 281.007 83.2631 276.477 76.4827C271.946 69.7024 264.33 65.6307 256.176 65.629C246.299 65.6273 237.393 71.5765 233.613 80.7018C229.833 89.8271 231.923 100.331 238.909 107.314C243.488 111.894 249.699 114.466 256.176 114.466L256.176 114.467ZM256.176 104.261C250.427 104.26 245.245 100.798 243.044 95.487C241.6 92.0044 241.6 88.0906 243.044 84.608C244.486 81.1251 247.253 78.358 250.736 76.916C256.048 74.7158 262.162 75.9321 266.228 79.9979C270.294 84.0637 271.51 90.1782 269.31 95.4903C267.109 100.802 261.926 104.266 256.176 104.266L256.176 104.261ZM259.906 282.933C255.325 283.922 250.539 283.051 246.6 280.512C240.591 276.64 237.508 269.529 238.787 262.496C240.067 255.464 245.458 249.895 252.445 248.387C261.911 246.496 271.143 252.549 273.183 261.984C275.219 271.42 269.308 280.744 259.906 282.928L259.906 282.933Z" fill="#2dd0ed" fill-rule="nonzero" opacity="1" stroke="none" vectornator:layerName="path"/>
</g>
</g>
</svg>
