<?xml version="1.0" encoding="UTF-8"?>
<svg id="Ebene_1" data-name="Ebene 1" xmlns="http://www.w3.org/2000/svg" viewBox="0 0 256 256">
  <defs>
    <style>
      .cls-1 {
        fill: #fff;
      }

      .cls-2 {
        fill: #333;
      }
    </style>
  </defs>
  <g id="Ebene_2" data-name="Ebene 2">
    <path class="cls-2" d="m256,35v186c0,19.3-15.7,35-35,35H35c-19.3,0-35-15.7-35-35V35C0,15.7,15.7,0,35,0h186c19.3,0,35,15.7,35,35Z"/>
  </g>
  <path class="cls-1" d="m128,20.5c-59.37,0-107.5,48.13-107.5,107.5s48.13,107.5,107.5,107.5,107.5-48.13,107.5-107.5S187.37,20.5,128,20.5h0Zm0,8.95c45.13,0,83.19,30.33,94.85,71.72-10.02,20.73-24.34,39.39-41.73,54.49-8.37,7.24-17.51,13.7-27.6,18.24-10.09,4.55-21.19,7.13-32.25,6.5-8.29-.48-16.51-2.8-23.76-6.83,19.27-10.44,36.65-24.36,50.88-41.02,9.37-10.94,17.51-23.38,20.66-37.42,1.6-7.02,1.84-14.36.38-21.41-1.46-7.05-4.71-13.74-9.64-19-4.81-5.11-11.13-8.75-17.91-10.61-6.76-1.87-13.97-2.01-20.89-.75-13.82,2.53-26.18,10.57-36.07,20.54-17.45,17.58-28.24,42.4-26.26,67.1,1,12.35,5.13,24.48,12.21,34.63,1.59,2.27,3.33,4.43,5.19,6.47-10.33,3.63-21.04,6.2-31.87,7.66-9.31-15.05-14.7-32.79-14.7-51.78,0-54.44,44.11-98.55,98.53-98.55l-.04.02Zm.61,19.89c6.94,0,13.91,2.1,19.44,6.3,4.98,3.76,8.68,9.09,10.75,14.97,2.1,5.88,2.63,12.26,1.92,18.47-1.42,12.4-7.68,23.77-15.23,33.71-13.38,17.58-31.17,31.66-50.95,41.52-2.02,1-4.07,1.97-6.14,2.89-4.3-3.76-7.99-8.22-10.81-13.21-5.87-10.41-7.81-22.77-6.68-34.66,1.15-11.9,5.22-23.36,10.71-33.98,6.36-12.31,15.03-23.96,27.16-30.66,6.07-3.36,12.92-5.37,19.85-5.37v.03Zm97.04,65.44c.58,4.32.88,8.72.88,13.19,0,54.43-44.09,98.55-98.52,98.55-30.56,0-57.9-13.91-75.94-35.76,11.15-2.53,22.05-6.18,32.51-10.81,4.58,3.47,9.63,6.33,15,8.39,15.46,5.93,33.02,5.07,48.67-.35,15.64-5.42,29.52-15.13,41.62-26.45,14.41-13.47,26.57-29.35,35.81-46.76h-.04Z"/>
</svg>