<?xml version="1.0" encoding="UTF-8" standalone="no"?>
<!DOCTYPE svg PUBLIC "-//W3C//DTD SVG 1.1//EN" "http://www.w3.org/Graphics/SVG/1.1/DTD/svg11.dtd">
<!-- Created with Vectornator (http://vectornator.io/) -->
<svg height="100%" stroke-miterlimit="10" style="fill-rule:nonzero;clip-rule:evenodd;stroke-linecap:round;stroke-linejoin:round;" version="1.1" viewBox="0 0 512 512" width="100%" xml:space="preserve" xmlns="http://www.w3.org/2000/svg" xmlns:vectornator="http://vectornator.io" xmlns:xlink="http://www.w3.org/1999/xlink">
<defs>
<linearGradient gradientTransform="matrix(1 0 0 1 0 0)" gradientUnits="userSpaceOnUse" id="LinearGradient" x1="257.506" x2="255.859" y1="-0.116183" y2="511.166">
<stop offset="0.000578055" stop-color="#77c3a3"/>
<stop offset="1" stop-color="#7778b2"/>
</linearGradient>
</defs>
<g id="Ebene-1" vectornator:layerName="Ebene 1">
<path d="M2.84217e-14 95C2.84217e-14 42.5329 42.5329 0 95 0L417 0C469.467 0 512 42.5329 512 95L512 417C512 469.467 469.467 512 417 512L95 512C42.5329 512 2.84217e-14 469.467 2.84217e-14 417L2.84217e-14 95Z" fill="url(#LinearGradient)" fill-rule="nonzero" opacity="1" stroke="none" vectornator:layerName="Rechteck 1"/>
</g>
<g id="Ebene-2" vectornator:layerName="Ebene 2">
<path d="M256 56C145.542 56 56 145.542 56 256C56 366.458 145.542 456 256 456C366.458 456 456 366.458 456 256C456 145.542 366.458 56 256 56ZM256 72.6563C339.972 72.6563 410.772 129.086 432.472 206.086C413.828 244.658 387.186 279.372 354.828 307.458C339.258 320.928 322.258 332.942 303.484 341.4C284.714 349.858 264.058 354.658 243.484 353.486C228.058 352.586 212.772 348.286 199.286 340.772C235.142 321.342 267.472 295.458 293.942 264.458C311.372 244.1 326.514 220.958 332.372 194.842C335.342 181.786 335.8 168.128 333.086 155.014C330.372 141.9 324.314 129.442 315.142 119.67C306.186 110.158 294.428 103.386 281.83 99.9281C269.258 96.4578 255.83 96.1859 242.97 98.5281C217.258 103.242 194.258 118.184 175.872 136.742C143.4 169.458 123.328 215.628 127.014 261.57C128.872 284.542 136.558 307.114 149.728 326C152.687 330.216 155.912 334.238 159.384 338.042C140.161 344.801 120.296 349.574 100.1 352.286C82.7719 324.286 72.7562 291.286 72.7562 255.958C72.7562 154.672 154.814 72.6141 256.072 72.6141L256 72.6578L256 72.6563ZM257.142 109.656C270.058 109.656 283.028 113.572 293.314 121.372C302.572 128.372 309.458 138.286 313.314 149.228C317.214 160.172 318.214 172.042 316.886 183.586C314.242 206.658 302.6 227.814 288.542 246.3C263.642 279.014 230.542 305.2 193.742 323.542C189.97 325.41 186.16 327.201 182.314 328.914C174.314 321.914 167.458 313.628 162.2 304.342C151.272 284.972 147.672 261.986 149.772 239.858C151.914 217.714 159.486 196.4 169.7 176.642C181.528 153.742 197.658 132.072 220.228 119.6C231.514 113.358 244.272 109.6 257.158 109.6L257.142 109.658L257.142 109.656ZM437.686 231.4C438.776 239.535 439.325 247.734 439.328 255.942C439.328 357.2 357.3 439.286 256.042 439.286C199.186 439.286 148.328 413.4 114.758 372.758C135.5 368.042 155.786 361.258 175.242 352.642C183.772 359.1 193.158 364.414 203.158 368.242C231.914 379.272 264.586 377.672 293.7 367.6C322.8 357.514 348.628 339.458 371.128 318.386C397.988 293.263 420.502 263.865 437.758 231.386C437.758 231.386 437.686 231.4 437.686 231.4Z" fill="#333333" fill-rule="nonzero" opacity="1" stroke="none" vectornator:layerName="path"/>
</g>
</svg>
