<?xml version="1.0" encoding="UTF-8"?>
<svg id="Ebene_1" data-name="Ebene 1" xmlns="http://www.w3.org/2000/svg" xmlns:xlink="http://www.w3.org/1999/xlink" viewBox="0 0 256 256">
  <defs>
    <style>
      .cls-1 {
        fill: #fff;
      }

      .cls-2 {
        fill: url(#Unbenannter_Verlauf);
      }
    </style>
    <linearGradient id="Unbenannter_Verlauf" data-name="Unbenannter Verlauf" x1="0" y1="128" x2="256" y2="128" gradientUnits="userSpaceOnUse">
      <stop offset="0" stop-color="#8381c5"/>
      <stop offset=".57" stop-color="#7e55b3"/>
      <stop offset="1" stop-color="#a52ecb" stop-opacity=".99"/>
    </linearGradient>
  </defs>
  <g id="Ebene_2" data-name="Ebene 2">
    <rect class="cls-2" width="256" height="256" rx="45" ry="45"/>
  </g>
  <path class="cls-1" d="m86.7,227.75s11.62.82,26.57-.5c6.05-.53,29.04-2.79,46.23-6.56,0,0,20.95-4.48,32.17-8.62,11.73-4.32,18.11-7.99,20.99-13.19-.13-1.07.88-4.84-4.52-7.11-13.83-5.8-29.87-4.75-61.61-5.42-35.2-1.21-46.9-7.1-53.14-11.85-5.98-4.81-2.97-18.13,22.65-29.86,12.91-6.25,63.51-17.77,63.51-17.77-17.04-8.42-48.82-23.23-55.35-26.43-5.73-2.8-14.9-7.03-16.89-12.14-2.25-4.91,5.32-9.13,9.55-10.34,13.63-3.93,32.87-6.37,50.37-6.65,8.8-.14,10.23-.7,10.23-.7,12.14-2.01,20.14-10.32,16.81-23.48-2.99-13.43-18.76-21.32-33.75-18.59-14.11,2.57-48.13,12.45-48.13,12.45,42.04-.36,49.08.34,52.22,4.73,1.86,2.6-.84,6.15-12.06,7.98-12.21,1.99-37.58,4.39-37.58,4.39-24.34,1.45-41.49,1.54-46.63,12.43-3.36,7.11,3.58,13.4,6.63,17.34,12.86,14.3,31.43,22.01,43.39,27.69,4.5,2.14,17.7,6.17,17.7,6.17-38.79-2.13-66.77,9.78-83.18,23.49-18.56,17.17-10.35,37.64,27.68,50.24,22.46,7.44,33.6,10.94,67.11,7.93,19.74-1.06,22.85-.43,23.04,1.19.28,2.28-21.92,7.94-27.98,9.69-15.42,4.45-55.83,13.43-56.04,13.47h0v.02Z"/>
</svg>