<?xml version="1.0" encoding="UTF-8"?>
<svg id="Ebene_1" data-name="Ebene 1" xmlns="http://www.w3.org/2000/svg" xmlns:xlink="http://www.w3.org/1999/xlink" viewBox="0 0 256 256">
  <defs>
    <style>
      .cls-1 {
        clip-path: url(#clippath-20);
      }

      .cls-2 {
        fill: #eadcbe;
      }

      .cls-3 {
        clip-path: url(#clippath-11);
      }

      .cls-4 {
        clip-path: url(#clippath-16);
      }

      .cls-5 {
        fill: #fff;
      }

      .cls-6 {
        clip-path: url(#clippath-33);
      }

      .cls-7 {
        fill: #ffdc99;
      }

      .cls-8 {
        opacity: .5;
      }

      .cls-9 {
        clip-path: url(#clippath-41);
      }

      .cls-10 {
        clip-path: url(#clippath-32);
      }

      .cls-11 {
        stroke: #e5d0ae;
        stroke-width: 3px;
      }

      .cls-11, .cls-12, .cls-13, .cls-14, .cls-15 {
        fill: none;
      }

      .cls-11, .cls-15 {
        stroke-linecap: round;
        stroke-linejoin: round;
      }

      .cls-16 {
        clip-path: url(#clippath-2);
      }

      .cls-17 {
        clip-path: url(#clippath-13);
      }

      .cls-18 {
        clip-path: url(#clippath-37);
      }

      .cls-19 {
        clip-path: url(#clippath-25);
      }

      .cls-20 {
        fill: #d8cab2;
      }

      .cls-21 {
        fill: #895b2e;
      }

      .cls-22 {
        clip-path: url(#clippath-15);
      }

      .cls-23 {
        fill: #e5bfa1;
      }

      .cls-24 {
        fill: #fff8ee;
      }

      .cls-25 {
        clip-path: url(#clippath-6);
      }

      .cls-26 {
        clip-path: url(#clippath-40);
      }

      .cls-27 {
        fill: #e24b31;
      }

      .cls-28 {
        clip-path: url(#clippath-26);
      }

      .cls-29 {
        fill: #e3ab5e;
      }

      .cls-30 {
        opacity: .4;
      }

      .cls-31 {
        clip-path: url(#clippath-7);
      }

      .cls-32 {
        clip-path: url(#clippath-21);
      }

      .cls-33 {
        fill: #333;
      }

      .cls-34 {
        clip-path: url(#clippath-34);
      }

      .cls-35 {
        clip-path: url(#clippath-1);
      }

      .cls-36 {
        clip-path: url(#clippath-4);
      }

      .cls-37 {
        clip-path: url(#clippath-38);
      }

      .cls-38 {
        clip-path: url(#clippath-36);
      }

      .cls-39 {
        clip-path: url(#clippath-27);
      }

      .cls-40 {
        opacity: .3;
      }

      .cls-41 {
        fill: #f7e8d0;
      }

      .cls-42 {
        fill: #ba8449;
      }

      .cls-43 {
        clip-path: url(#clippath-12);
      }

      .cls-44 {
        fill: #fcd4c3;
      }

      .cls-45 {
        clip-path: url(#clippath-24);
      }

      .cls-12 {
        stroke: #f8a38f;
      }

      .cls-12, .cls-14 {
        stroke-miterlimit: 10;
      }

      .cls-12, .cls-15 {
        stroke-width: 2px;
      }

      .cls-46 {
        clip-path: url(#clippath-30);
      }

      .cls-47 {
        clip-path: url(#clippath-22);
      }

      .cls-48 {
        clip-path: url(#clippath-9);
      }

      .cls-49 {
        clip-path: url(#clippath);
      }

      .cls-50 {
        clip-path: url(#clippath-39);
      }

      .cls-51 {
        clip-path: url(#clippath-19);
      }

      .cls-52 {
        clip-path: url(#clippath-31);
      }

      .cls-53 {
        clip-path: url(#clippath-3);
      }

      .cls-54 {
        opacity: .1;
      }

      .cls-55 {
        clip-path: url(#clippath-8);
      }

      .cls-56 {
        fill: #fff7e3;
      }

      .cls-14 {
        stroke: #333;
        stroke-width: 4px;
      }

      .cls-57 {
        fill: #f8a38f;
      }

      .cls-58 {
        clip-path: url(#clippath-29);
      }

      .cls-59 {
        clip-path: url(#clippath-18);
      }

      .cls-60 {
        clip-path: url(#clippath-14);
      }

      .cls-61 {
        fill: #1a1a1a;
      }

      .cls-62 {
        clip-path: url(#clippath-17);
      }

      .cls-63 {
        fill: #e5d0ae;
      }

      .cls-64 {
        clip-path: url(#clippath-5);
      }

      .cls-15 {
        stroke: #895b2e;
      }

      .cls-65 {
        fill: #d0dddc;
      }

      .cls-66 {
        opacity: .15;
      }

      .cls-67 {
        clip-path: url(#clippath-10);
      }

      .cls-68 {
        clip-path: url(#clippath-23);
      }

      .cls-69 {
        opacity: .25;
      }

      .cls-70 {
        clip-path: url(#clippath-28);
      }

      .cls-71 {
        clip-path: url(#clippath-35);
      }
    </style>
    <clipPath id="clippath">
      <rect class="cls-13" x="61.06" y="66.36" width="132.47" height="46.27"/>
    </clipPath>
    <clipPath id="clippath-1">
      <rect class="cls-13" x="63.01" y="63" width="26.1" height="12.66"/>
    </clipPath>
    <clipPath id="clippath-2">
      <rect class="cls-13" x="169.3" y="69.72" width="19.85" height="13.44"/>
    </clipPath>
    <clipPath id="clippath-3">
      <rect class="cls-13" x="179.07" y="161.32" width="18.37" height="21.34"/>
    </clipPath>
    <clipPath id="clippath-4">
      <rect class="cls-13" x="186.65" y="150.61" width="6.1" height="5"/>
    </clipPath>
    <clipPath id="clippath-5">
      <rect class="cls-13" x="196.58" y="149.36" width="6.02" height="5.63"/>
    </clipPath>
    <clipPath id="clippath-6">
      <rect class="cls-13" x="187.67" y="158.58" width="12.35" height="6.72"/>
    </clipPath>
    <clipPath id="clippath-7">
      <rect class="cls-13" x="202.13" y="156.94" width="4.45" height="3.91"/>
    </clipPath>
    <clipPath id="clippath-8">
      <rect class="cls-13" x="79.5" y="150.46" width="100.74" height="28.53"/>
    </clipPath>
    <clipPath id="clippath-9">
      <rect class="cls-13" x="168.91" y="42.76" width="14.07" height="34.86"/>
    </clipPath>
    <clipPath id="clippath-10">
      <rect class="cls-13" x="58.01" y="47.99" width="34.54" height="24.7"/>
    </clipPath>
    <clipPath id="clippath-11">
      <rect class="cls-13" x="169.38" y="40.73" width="20.48" height="34.54"/>
    </clipPath>
    <clipPath id="clippath-12">
      <rect class="cls-13" x="76.07" y="58.23" width="91.68" height="87.46"/>
    </clipPath>
    <clipPath id="clippath-13">
      <rect class="cls-13" x="120.46" y="100.91" width="10.24" height="4.3"/>
    </clipPath>
    <clipPath id="clippath-14">
      <rect class="cls-13" x="119.99" y="96.22" width="11.33" height="7.74"/>
    </clipPath>
    <clipPath id="clippath-15">
      <rect class="cls-13" x="85.76" y="105.36" width="88.24" height="50.1"/>
    </clipPath>
    <clipPath id="clippath-16">
      <rect class="cls-13" x="90.37" y="106.14" width="73.15" height="37.12"/>
    </clipPath>
    <clipPath id="clippath-17">
      <rect class="cls-13" x="91.15" y="106.92" width="71.59" height="36.34"/>
    </clipPath>
    <clipPath id="clippath-18">
      <rect class="cls-13" x="91.93" y="107.7" width="70.03" height="35.48"/>
    </clipPath>
    <clipPath id="clippath-19">
      <rect class="cls-13" x="108.42" y="124.51" width="39.23" height="16.18"/>
    </clipPath>
    <clipPath id="clippath-20">
      <rect class="cls-13" x="113.66" y="115.52" width="23.52" height="18.13"/>
    </clipPath>
    <clipPath id="clippath-21">
      <rect class="cls-13" x="113.74" y="115.21" width="23.21" height="8.05"/>
    </clipPath>
    <clipPath id="clippath-22">
      <rect class="cls-13" x="124.76" y="120.13" width="4.3" height="11.49"/>
    </clipPath>
    <clipPath id="clippath-23">
      <rect class="cls-13" x="58.4" y="47.99" width="30.79" height="27.9"/>
    </clipPath>
    <clipPath id="clippath-24">
      <rect class="cls-13" x="74.66" y="77.07" width="104.49" height="33.22"/>
    </clipPath>
    <clipPath id="clippath-25">
      <rect class="cls-13" x="66.22" y="67.22" width="122.94" height="41.5"/>
    </clipPath>
    <clipPath id="clippath-26">
      <rect class="cls-13" x="78.18" y="72.93" width="39.47" height="26.73"/>
    </clipPath>
    <clipPath id="clippath-27">
      <rect class="cls-13" x="137.1" y="76.6" width="39.16" height="27.35"/>
    </clipPath>
    <clipPath id="clippath-28">
      <rect class="cls-13" x="66.22" y="71.52" width="122.16" height="35.95"/>
    </clipPath>
    <clipPath id="clippath-29">
      <rect class="cls-13" x="68.17" y="68.08" width="15.79" height="2.34"/>
    </clipPath>
    <clipPath id="clippath-30">
      <rect class="cls-13" x="118.97" y="71.91" width="16.96" height="4.14"/>
    </clipPath>
    <clipPath id="clippath-31">
      <rect class="cls-13" x="174.31" y="74.96" width="9.61" height="3.05"/>
    </clipPath>
    <clipPath id="clippath-32">
      <rect class="cls-13" x="76.53" y="72.46" width="22.59" height="22.35"/>
    </clipPath>
    <clipPath id="clippath-33">
      <rect class="cls-13" x="156.88" y="76.36" width="21.73" height="23.84"/>
    </clipPath>
    <clipPath id="clippath-34">
      <rect class="cls-13" x="79.27" y="74.02" width="37.36" height="21.49"/>
    </clipPath>
    <clipPath id="clippath-35">
      <rect class="cls-13" x="80.05" y="88.24" width="27.51" height="10.86"/>
    </clipPath>
    <clipPath id="clippath-36">
      <rect class="cls-13" x="138.2" y="77.69" width="37.28" height="19.93"/>
    </clipPath>
    <clipPath id="clippath-37">
      <rect class="cls-13" x="145.23" y="94.03" width="28.37" height="9.14"/>
    </clipPath>
    <clipPath id="clippath-38">
      <rect class="cls-13" x="96.07" y="82.15" width="1.56" height="1.56"/>
    </clipPath>
    <clipPath id="clippath-39">
      <rect class="cls-13" x="157.81" y="85.82" width="1.56" height="1.56"/>
    </clipPath>
    <clipPath id="clippath-40">
      <rect class="cls-13" x="68.48" y="69.57" width="50.64" height="7.42"/>
    </clipPath>
    <clipPath id="clippath-41">
      <rect class="cls-13" x="135.46" y="72.07" width="37.44" height="7.19"/>
    </clipPath>
  </defs>
  <g id="Ebene_2" data-name="Ebene 2">
    <rect class="cls-27" width="256" height="256" rx="45" ry="45"/>
  </g>
  <g>
    <path class="cls-5" d="m73.1,179.14c.16-.39.31-.78.47-1.17l.08-.16c.39-.94.78-1.95,1.17-2.89.47-1.25.94-2.58,1.41-3.83.31-.7.55-1.41.78-2.19.63-1.72,1.48-3.99,2.5-6.17.63-1.33,1.09-2.27,1.64-3.13.63-1.02,1.25-1.95,1.95-2.89l.55-.78.86-.55c.08-.08.23-.16.39-.23.39-.23.86-.39,1.17-.55.55-.23,1.25-.47,2.03-.7,1.09-.31,2.34-.63,3.83-.94,2.19-.47,4.53-.94,7.5-1.41,4.45-.7,9.22-1.33,14.93-1.95,10.08-1.09,20.16-1.88,29.86-2.34,5.16-.23,9.07-.31,12.74-.31h2.34c2.42.08,5.24.16,7.82.55.94.16,1.8.31,2.42.55.23.08.47.16.55.23l.78.31.63.55.7.7c.86.86,1.8,1.88,2.74,3.05,2.97,3.75,5.63,8.28,7.97,13.44,2.27,5,3.67,9.46,4.53,13.83l1.17,6.17h-14.38l-.86-4.14c-.94-4.38-12.74-15.94-18.6-18.21-.63-.23-3.13-.94-10.86-.94-15.94,0-38.45,2.81-41.66,3.52-3.83,1.8-9.69,9.3-13.05,16.8l-1.41,3.05"/>
    <path class="cls-42" d="m170.79,156.32c-.7-.94-1.48-1.8-2.34-2.58l-.55-.55s-.08,0-.16-.08c-.39-.16-.94-.23-1.48-.31-2.27-.31-4.69-.39-7.11-.47-4.92-.08-9.85.08-14.77.31-9.85.47-19.77,1.25-29.54,2.34-4.92.55-9.85,1.17-14.69,1.95-2.42.39-4.85.78-7.19,1.33-1.17.23-2.34.55-3.44.86-.55.16-1.09.31-1.56.55-.23.08-.47.16-.55.31,0,0-.08,0-.08.08-.55.78-1.09,1.56-1.64,2.42s-.94,1.8-1.41,2.74c-.86,1.88-1.64,3.83-2.34,5.78s-1.48,3.99-2.19,6.02c-.39,1.02-.78,2.03-1.25,3.05-.16.47-.39.94-.63,1.41h6.64c3.6-8.05,10.39-17.27,16.02-19.54,1.56-.63,26.73-3.75,43.38-3.75,6.17,0,10.39.47,12.74,1.33,6.8,2.66,20.4,15.24,21.81,22.04h3.83c-.78-4.3-2.34-8.52-4.14-12.58-2.03-4.69-4.45-8.99-7.35-12.66"/>
    <path class="cls-5" d="m177.98,186.41l-.78-4.22c-.7-3.52-1.88-7.27-3.75-11.41-2.03-4.38-4.22-8.21-6.72-11.25-.47-.63-.94-1.17-1.41-1.64-1.95-.31-4.22-.31-6.25-.39h-2.19c-3.52,0-7.27.08-12.27.31-9.53.47-19.3,1.25-29.23,2.34-5.55.63-10.16,1.25-14.38,1.88-2.74.39-4.92.86-6.88,1.25-1.25.31-2.19.55-3.05.78-.16,0-.23.08-.31.08-.16.31-.39.55-.55.86-.39.63-.7,1.33-1.25,2.27-.86,1.8-1.56,3.67-2.19,5.31-.31.7-.55,1.41-.78,2.11-.47,1.33-.94,2.66-1.48,3.99-.39,1.02-.86,2.03-1.25,3.13l-.08.16c-.16.47-.39.94-.55,1.33l-1.41,3.13h-9.14l-1.33-.63-.16-.08c-3.13-1.8-3.13-4.45-3.05-5.55v-.23l.16-.7.23-.86c.16-.55.31-1.17.47-1.72.31-1.17.7-2.27,1.09-3.36.7-2.03,1.56-4.22,2.58-6.56,1.09-2.42,2.11-4.53,3.28-6.49.55-1.02,1.17-2.03,1.95-3.2.7-1.09,1.48-2.19,2.27-3.2.7-.86,1.33-1.41,1.8-1.72h.08c.47-.39.94-.63,1.17-.7.7-.39,1.25-.63,1.64-.78.94-.39,1.8-.63,2.5-.86,1.56-.47,3.05-.78,4.14-1.02,2.27-.47,4.69-.94,7.74-1.41,4.53-.7,9.3-1.25,15.16-1.88,10.16-1.02,20.32-1.8,30.17-2.19,4.69-.16,8.36-.31,11.72-.31h3.6c2.5.08,5.31.16,8.36.63h.08c.7.16,1.8.31,3.05.7h.08c.31.16.78.31,1.33.55.39.23.7.39.94.55l.39.31.31.23.31.31.86.86c1.02,1.02,1.95,2.11,2.97,3.44,3.13,4.06,5.86,8.75,8.36,14.3,1.17,2.58,2.19,5.16,2.97,7.66.86,2.74,1.48,5.31,1.95,7.82l.94,6.02h-14.22v.08-.03Z"/>
    <path class="cls-5" d="m78.1,186.41l3.44-7.42c2.89-6.17,9.85-17.51,17.58-20.71l.16-.08c2.58-.94,28.68-3.99,44.63-3.99,8.91,0,12.27.86,13.99,1.56,8.05,3.13,22.04,16.33,23.92,24.15l1.56,6.41h-105.27v.08h-.01Z"/>
    <path class="cls-5" d="m172.74,186.41l-.94-3.99c-.86-3.67-11.88-14.69-17.58-16.96-.55-.23-2.81-.86-10.32-.86-15.32,0-37.51,2.74-41.11,3.44-2.97,1.48-8.36,7.82-11.88,15.32l-1.41,2.97h-12.97l3.28-7.27c3.83-8.6,11.41-19.23,18.84-22.2,2.89-1.17,29.31-4.14,45.33-4.14,6.96,0,11.65.55,14.54,1.64,8.05,3.13,23.13,16.73,25.01,25.79l1.25,6.25h-12.04,0Z"/>
    <path class="cls-5" d="m178.76,186.41l-1.48-1.41c-5.63-5.24-7.19-16.1-5.47-20.55,1.17-2.97,3.67-3.99,5.55-3.99.55,0,1.02.08,1.48.23,1.02-.08,3.36-2.03,4.06-3.13,1.09-2.03,3.2-3.28,5.78-3.28,3.83,0,10.08,3.05,12.11,5.94,1.17,1.64,1.48,3.6.86,5.31-.08.16-.16.47-.31.86-2.11,6.33-4.85,14.07-7.03,17.66l-1.48,2.42-14.07-.08h0v.02Z"/>
    <path class="cls-5" d="m178.29,186.41l4.85-7.89c2.34-3.83,3.99-6.96,5.08-9.38-2.74,1.95-6.56,3.13-12.27,3.44l-.16-.16-.08.55c-3.36,0-6.1-2.74-6.25-6.1-.08-1.64.55-3.28,1.64-4.53s2.66-1.95,4.3-2.03c5.63-.23,6.33-1.56,7.35-3.52,1.41-2.66,4.45-4.22,8.44-4.22,1.02,0,2.03.08,2.97.31,4.92,1.09,8.13,4.85,8.36,9.69.23,4.92-2.5,12.11-7.97,21.34l-1.48,2.5h-14.78Z"/>
    <path class="cls-5" d="m198.85,171.01c-6.33,0-13.21-4.14-16.73-8.21-3.2-3.67-3.52-6.96-3.2-9.07.39-2.58,2.5-5.16,6.33-5.16.7,0,1.41.08,2.03.16.63-2.81,2.11-8.68,8.13-8.68h.86c2.89.31,5.08,2.11,5.94,4.85.94-.47,2.03-.86,3.28-.86,1.88,0,3.67.78,5,2.19,2.11,2.27,2.58,5.39,1.25,8.36,1.41.86,2.5,2.19,2.97,3.91.63,2.19.23,4.53-1.17,6.41-2.74,3.83-9.07,5.63-14.07,5.78-.31.31-.47.31-.63.31"/>
    <path class="cls-5" d="m192.59,42.29c-5.71,3.6-11.96,11.8-19.62,23.06-1.17,1.8-3.13,2.74-5.31,2.74-2.81,0-6.41-1.72-10.55-5.08-6.56-5.31-6.72-8.28-6.8-9.46-.16-3.13,2.19-5.78,5.47-6.1,6.33-.55,11.57-4.38,16.65-8.05s9.77-7.03,15.4-7.03c1.09,0,2.27.16,3.36.39"/>
    <path class="cls-24" d="m156.25,52.68c15.32-1.41,24.31-17.27,33.61-14.85-6.25,3.91-12.43,11.72-21.1,24.54-2.11,3.05-16.73-9.3-12.5-9.69"/>
    <path class="cls-5" d="m57,45.42c3.83-3.52,8.99-5.31,15.32-5.31,5.47,0,11.96,1.33,19.23,3.99,1.95.7,4.53.86,6.49.86h2.89c1.8,0,5.63,0,7.27,3.52.55,1.33,1.25,4.06-.86,7.27-2.58,3.99-9.38,8.21-15.94,8.21h-.31c-3.52-.08-6.8-1.95-10.63-4.06-4.77-2.66-10.16-5.71-16.57-5.71-.86,0-1.8.08-2.66.16"/>
    <path class="cls-5" d="m174.85,83.32c-2.81,0-8.13-1.17-11.49-9.14-1.88-4.22-2.5-8.99-2.5-11.65,0-5.47,2.89-6.96,4.69-7.35,1.25-1.25,3.6-4.45,5.31-6.88,7.11-9.69,12.27-16.02,18.29-16.02,1.02,0,1.95.16,2.89.55,8.05,3.2,11.96,10,10.63,18.6-.94,6.33-4.92,13.83-10.79,20.71-2.74,3.2-9.85,10.71-16.18,11.18h-.86"/>
    <path class="cls-5" d="m82.47,86.29c-.7,0-1.41,0-2.03-.16-10-1.64-22.51-11.72-27.2-22.12-3.2-7.11-1.8-11.96,0-14.77,2.89-4.61,7.19-7.03,12.5-7.03,6.41,0,12.82,3.52,18.44,6.56,2.19,1.17,5.31,2.89,6.64,3.2.47-.16.94-.23,1.48-.23,2.03,0,3.91,1.09,5,2.97,2.58,4.53,1.02,16.73-3.05,23.76-2.81,5.16-7.03,7.82-11.8,7.82h.02Z"/>
    <path class="cls-5" d="m117.33,173.51c-23.45,0-46.66-11.49-54.4-19.85-8.05-8.68-10.94-18.52-8.75-29.31,1.88-8.83,6.8-16.73,11.1-23.76,2.97-4.85,5.78-9.38,6.56-12.66,9.53-42.13,33.45-47.52,53.22-47.52,1.25,0,2.58,0,4.06.08,42.13,1.25,46.35,21.57,48.85,33.76.47,2.27.94,4.38,1.48,5.78,14.15,34.7,16.49,55.49,7.82,69.56-8.52,13.83-27.2,20.63-64.4,23.68-1.8.16-3.67.23-5.55.23h.01Z"/>
    <path class="cls-5" d="m116.47,173.59c-23.92,0-46.03-11.88-53.46-19.93-8.05-8.68-10.94-18.52-8.75-29.31,1.88-8.83,6.8-16.73,11.1-23.76,2.97-4.85,5.78-9.38,6.56-12.66,9.53-42.13,33.45-47.52,53.22-47.52,1.25,0,2.58,0,4.06.08,42.13,1.25,46.35,21.57,48.85,33.76.47,2.27.94,4.38,1.48,5.78,13.91,34.15,16.18,54.79,7.66,68.85-9.77,16.18-32.75,21.41-64.16,24.38-2.19.23-4.38.31-6.56.31"/>
    <path class="cls-5" d="m177.35,144.2c.31-.7.63-1.48.94-2.19,3.2-7.66,5.63-14.38,1.8-18.68-4.53-5-23.68-14.07-40.72-22.04-32.59-15.4-52.75-25.32-55.65-35.17-.7-2.5-.39-5.08.94-7.27,5.63-8.83,21.34-18.29,42.83-18.29h.63c20.24.16,34.94,6.02,43.77,17.27,7.5,9.53,9.14,20.71,10.39,28.84.39,2.74.94,6.25,1.48,7.19,15.32,26.34,8.28,45.8,2.74,54.94l-9.14-4.61h-.01Z"/>
    <path class="cls-5" d="m161.33,113.88c-7.89,0-21.1-1.95-25.63-6.33-3.6-3.44-4.92-9.14-6.33-14.69-.55-2.34-1.48-6.1-2.34-7.82h-.08c-.31.86-.7,1.95-1.02,2.81-2.11,5.94-5.08,14.15-11.25,18.6-2.66,1.95-12.27,3.67-19.69,3.67h0c-7.42,0-13.05-1.56-16.8-4.77-5.39-4.53-9.46-12.9-12.19-24.85-.16-.08-.23-.16-.39-.23-1.25-.86-2.89-1.88-3.75-3.67-1.41-2.81-.86-7.82.63-10.47,1.09-1.95,2.97-3.2,5-3.36h.7c1.09,0,2.19.16,3.44.39s2.74.47,3.99.47h.7c7.42-1.09,14.38-1.56,20.71-1.56,15.4,0,23.52,3.13,26.57,4.38.23.08.47.16.63.23.86.23,2.5.55,4.22.55.63,0,1.25,0,1.8-.16,6.96-1.09,13.6-1.56,19.69-1.56,16.26,0,24.85,3.67,28.6,5.31.31.16.63.31.86.31h.31c1.02,0,2.5-.31,3.75-.55.94-.23,1.88-.39,2.74-.55h.7c2.42,0,4.61,1.41,5.94,3.75,1.48,2.74,2.5,8.44.39,11.72-1.41,2.19-3.67,3.2-5.55,4.06-.23.08-.55.23-.78.39-.63,1.09-1.72,3.28-2.66,5.08-2.74,5.31-5.78,11.41-8.6,14.69-2.5,2.81-7.19,4.14-14.3,4.14"/>
    <g class="cls-49">
      <g class="cls-40">
        <path class="cls-5" d="m158.19,112.61c-6.25,0-15.08-.94-21.41-5.39-3.6-2.58-5.24-7.74-7.5-16.02-.63-2.34-1.56-5.63-2.27-7.27h0c-.39.94-.86,2.19-1.25,3.2-2.34,6.33-5.55,14.93-11.41,18.52-3.05,1.88-12.5,3.6-19.85,3.6-7.89,0-13.6-1.8-16.88-5.24-8.36-8.75-10-17.12-11.02-22.04-.16-.7-.31-1.64-.47-2.19-4.92-2.58-5.24-6.41-5.16-8.05.23-3.05,2.58-5.31,5.47-5.31,1.95,0,3.2.94,4.14,1.56.08.08.16.16.31.16.08,0,.31.08.39.16,1.25.39,4.92,1.41,5.71,6.17.16.86,1.41,5.86,3.44,11.1,3.2,8.36,5.47,9.77,5.71,9.85,2.66.94,5.78,1.41,9.3,1.41,5.78,0,10.63-1.25,12.58-1.88,1.17-1.8,3.52-6.49,5.16-9.69,4.92-9.77,5.78-11.25,7.89-12.35,1.17-.63,2.58-.94,4.38-.94,2.34,0,5.71.55,7.27,1.25,3.6,1.56,5.47,6.25,9.69,18.37.78,2.19,1.72,5,2.34,6.41,3.13,1.48,10.24,2.5,17.66,2.5,2.11,0,3.67-.08,4.69-.16.7-1.48,1.72-3.6,2.58-5.39,5.94-12.66,6.88-14.15,8.36-15.32,2.58-1.95,7.11-3.28,9.69-3.28,3.44,0,5.31,2.27,5.78,4.45.86,4.53-3.6,6.25-5.08,6.8-.39.16-.94.39-1.33.55-.55.94-1.56,2.97-2.34,4.61-6.41,12.5-8.52,15.94-10.94,17.43-2.97,1.64-10.16,2.42-15.63,2.42"/>
      </g>
    </g>
    <g class="cls-35">
      <g class="cls-40">
        <path class="cls-5" d="m75.82,75.6c-.94,0-2.74-.16-6.33-1.33-.94-.31-1.8-.63-2.34-.86-1.17-.47-4.22-1.64-4.22-5.24v-5.24h5.16c.7,0,1.17.16,1.56.23,1.09.16,4.61.39,5.78.47l.7.08c.94,0,3.83-.39,5.08-.55,1.56-.23,2.03-.31,2.66-.31h4.45l.7,4.38c.31,2.19-.86,4.92-3.75,5.78-.16.08-.7.23-1.17.39-2.74,1.02-5.47,1.95-7.82,2.03-.16.16-.31.16-.47.16"/>
      </g>
    </g>
    <g>
      <g class="cls-16">
        <g class="cls-40">
          <path class="cls-5" d="m179.06,83.09c-1.72,0-3.44-.7-5.78-2.34-2.27-1.56-3.99-3.13-3.99-5.86v-5.24h5.08c.7,0,1.41.16,2.11.47.55.23,2.66.94,3.6,1.17.31,0,.94-.16,2.19-.39.63-.16,1.02-.16,1.56-.16h4.45l.7,4.38c.31,2.11-.63,4.77-3.52,5.78l-.94.47c-1.41.7-3.05,1.48-4.69,1.8-.16-.08-.47-.08-.78-.08"/>
        </g>
      </g>
      <path class="cls-5" d="m162.04,197.9h-19.23v-16.65h19.23v16.65Z"/>
    </g>
    <path class="cls-42" d="m170.79,156.32c-.7-.94-1.48-1.8-2.34-2.58l-.55-.55s-.08,0-.16-.08c-.39-.16-.94-.23-1.48-.31-2.27-.31-4.69-.39-7.11-.47-4.92-.08-9.85.08-14.77.31-9.85.47-19.77,1.25-29.54,2.34-4.92.55-9.85,1.17-14.69,1.95-2.42.39-4.85.78-7.19,1.33-1.17.23-2.34.55-3.44.86-.55.16-1.09.31-1.56.55-.23.08-.47.16-.55.31,0,0-.08,0-.08.08-.55.78-1.09,1.56-1.64,2.42s-.94,1.8-1.41,2.74c-.86,1.88-1.64,3.83-2.34,5.78s-1.48,3.99-2.19,6.02c-.39,1.02-.78,2.03-1.25,3.05-.16.47-.39.94-.63,1.41h6.64c3.6-8.05,10.39-17.27,16.02-19.54,1.56-.63,26.73-3.75,43.38-3.75,6.17,0,10.39.47,12.74,1.33,6.8,2.66,20.4,15.24,21.81,22.04h3.83c-.78-4.3-2.34-8.52-4.14-12.58-2.03-4.69-4.45-8.99-7.35-12.66"/>
    <path class="cls-21" d="m167.82,153.03h0Zm13.91,13.99c-2.11-4.69-4.53-9.14-7.74-13.21-.78-1.02-1.64-2.03-2.58-2.97l-.7-.7-.16-.16-.08-.08-.16-.16c-.16-.08-.31-.16-.39-.23-.23-.16-.47-.23-.7-.31-.86-.31-1.48-.39-2.19-.55-2.66-.39-5.16-.47-7.66-.55-5.08-.08-10,0-15.01.23-10,.39-19.93,1.17-29.86,2.19-4.92.55-9.93,1.09-14.93,1.88-2.5.39-4.92.78-7.42,1.33-1.25.31-2.5.55-3.75.94-.63.16-1.25.39-1.95.7-.31.16-.7.31-1.09.55-.16.16-.39.23-.63.39s-.47.39-.78.78h0c-.7.86-1.41,1.88-2.03,2.81-.63.94-1.25,1.95-1.8,2.97-1.09,1.95-2.11,3.99-3.05,6.02-.86,2.03-1.72,4.06-2.42,6.17-.39,1.02-.7,2.03-.94,3.13-.16.55-.31,1.02-.47,1.56l-.23.78-.08.39c0,.08.16.16.47.39h4.61c.23-.47.39-.94.63-1.41.39-1.02.86-2.03,1.25-2.97.78-2.03,1.48-3.99,2.19-6.02.7-1.95,1.48-3.99,2.34-5.78.47-.94.94-1.8,1.41-2.74.55-.86,1.02-1.64,1.64-2.42,0,0,.08,0,.08-.08.16-.08.39-.16.55-.31.47-.16,1.02-.39,1.56-.55,1.09-.31,2.27-.63,3.44-.86,2.34-.55,4.77-.94,7.19-1.33,4.85-.78,9.77-1.41,14.69-1.95,9.85-1.09,19.69-1.88,29.54-2.34,4.92-.23,9.85-.39,14.77-.31,2.42.08,4.92.16,7.11.47.55.08,1.09.23,1.48.31.08,0,.16,0,.16.08l.55.55c.86.86,1.56,1.72,2.34,2.58,2.89,3.67,5.31,7.97,7.35,12.35,1.8,4.06,3.36,8.28,4.14,12.58h3.91c-.39-2.42-1.02-4.77-1.72-7.03-.94-2.42-1.88-4.77-2.89-7.11"/>
    <path class="cls-24" d="m156.1,160.69c-2.03-.78-6.17-1.25-12.11-1.25-16.73,0-41.42,3.13-42.75,3.67-5.08,2.03-11.41,10.63-14.93,18.13h90.58c-1.48-5.86-14.07-17.9-20.79-20.55"/>
    <path class="cls-63" d="m156.64,159.21c-2.27-.86-6.56-1.33-12.74-1.33-16.65,0-41.81,3.13-43.38,3.75-5.71,2.34-12.43,11.49-16.02,19.54h1.72c3.52-7.42,9.85-16.02,14.93-18.13,1.33-.55,26.03-3.67,42.75-3.67,5.94,0,10.08.39,12.11,1.25,6.72,2.58,19.3,14.69,20.79,20.55h1.56c-1.33-6.72-14.93-19.3-21.73-21.96"/>
    <path class="cls-42" d="m187.59,159.91c-.94,1.95-5.86,6.96-10,5.78-2.19-.63-1.8,10.94,3.2,15.55h9.07c2.5-3.99,6.41-16.18,6.88-17.43.55-1.48-8.21-5.86-9.14-3.91"/>
    <path class="cls-21" d="m197.2,162.8c-.16-2.5-1.64-4.3-4.3-4.92-2.11-.47-4.92-.08-5.63,1.25-1.41,2.66-3.13,5.86-11.65,6.33-.55,0-1.02.55-1.02,1.09s.55,1.02,1.09,1.02c8.91-.39,11.49-3.83,13.36-7.35.39-.31,2.5-.7,4.22,0,1.25.55,1.8,1.41,1.88,2.74.23,4.85-4.85,13.83-7.58,18.37h2.42c3.05-5.31,7.42-13.52,7.19-18.52"/>
    <g class="cls-53">
      <g class="cls-66">
        <path class="cls-29" d="m179.65,181.48c5.55-1.33,10.47-6.88,10.86-14.77.08-1.48-2.97-4.3-2.97-5.08s9.3.16,9.77,2.34c.39,2.19-5.78,15.4-7.89,17.58-2.03,2.11-13.05.7-9.77-.08"/>
      </g>
    </g>
    <path class="cls-44" d="m184,154.52c-.7,4.85,8.75,11.49,15.16,11.33,5.31-.16,11.33-2.66,10.47-5.63-.86-3.05-6.02.55-6.49-1.56-.39-2.03,6.02-5.86,3.44-8.68-2.42-2.58-5.24,4.06-8.05,3.13s.55-7.42-2.97-7.82c-4.14-.39-2.58,8.83-5.71,8.99-2.19.23-5.63-1.33-5.86.23"/>
    <path class="cls-12" d="m184,154.52c-.7,4.85,8.75,11.49,15.16,11.33,5.31-.16,11.33-2.66,10.47-5.63-.86-3.05-6.02.55-6.49-1.56-.39-2.03,6.02-5.86,3.44-8.68-2.42-2.58-5.24,4.06-8.05,3.13s.55-7.42-2.97-7.82c-4.14-.39-2.58,8.83-5.71,8.99-2.19.23-5.63-1.33-5.86.23h.01Z"/>
    <g class="cls-36">
      <g class="cls-8">
        <path class="cls-44" d="m186.68,154.47c1.02.78,4.69,1.8,5.24.47.63-1.33,1.09-3.99.7-4.38-.31,1.25-.7,3.6-2.03,4.14-1.02.39-3.2-.08-3.91-.23"/>
      </g>
    </g>
    <g class="cls-64">
      <g class="cls-8">
        <path class="cls-44" d="m196.78,149.32c-.16.86-.86,4.92,1.25,5.47,1.8.47,3.13-.63,4.53-2.89-.78.7-2.74,2.42-4.22,1.8-1.48-.7-1.64-2.27-1.56-4.38"/>
      </g>
    </g>
    <g class="cls-25">
      <g class="cls-69">
        <path class="cls-44" d="m187.73,160.27c10.63-5.24,12.82,3.28,12.27,5-4.22.7-11.65-3.67-12.27-5"/>
      </g>
    </g>
    <g class="cls-31">
      <g class="cls-8">
        <path class="cls-44" d="m203.18,156.94c-1.8,2.03-.94,3.67.23,3.91,1.48.31,3.44-1.25,3.13-1.25-.39,0-3.28.94-3.83-.47-.39-1.09.23-1.72.47-2.19"/>
      </g>
    </g>
    <g class="cls-55">
      <g class="cls-66">
        <path class="cls-29" d="m81.8,170.51c34.15,19.62,101.91-.31,98.32-6.72-4.77-8.52-6.64-13.83-17.12-13.36-10.39.55-77.29,5.86-80.03,7.89-2.66,2.11-5.63,9.61-1.17,12.19"/>
      </g>
    </g>
    <path class="cls-24" d="m156.25,52.68c15.32-1.41,24.31-17.27,33.61-14.85-6.25,3.91-12.43,11.72-21.1,24.54-2.11,3.05-16.73-9.3-12.5-9.69"/>
    <path class="cls-11" d="m156.25,52.68c15.32-1.41,24.31-17.27,33.61-14.85-6.25,3.91-12.43,11.72-21.1,24.54-2.11,3.05-16.73-9.3-12.5-9.69h0Z"/>
    <path class="cls-42" d="m60.51,49.25c6.88-6.41,19.3-3.91,29.31-.31,5.71,2.03,13.13.39,13.6,1.56,1.25,2.74-6.17,8.36-12.27,8.21-6.02-.08-16.1-11.41-30.64-9.46"/>
    <path class="cls-15" d="m60.51,49.25c6.88-6.41,19.3-3.91,29.31-.31,5.71,2.03,13.13.39,13.6,1.56,1.25,2.74-6.17,8.36-12.27,8.21-6.02-.08-16.1-11.41-30.64-9.46Z"/>
    <path class="cls-44" d="m166.72,60.26c3.52,1.02,16.88-25.17,23.37-22.59,20.63,8.21-6.25,39.78-14.77,40.48-8.6.63-10.55-18.52-8.6-17.9"/>
    <path class="cls-12" d="m166.72,60.26c3.52,1.02,16.88-25.17,23.37-22.59,20.63,8.21-6.25,39.78-14.77,40.48-8.6.63-10.55-18.52-8.6-17.9h0Z"/>
    <path class="cls-44" d="m92.16,57.14c-5.71,2.5-25.95-18.68-34.47-5.08-5.63,8.99,11.41,27.12,23.6,29.07,12.19,1.95,13.83-25.32,10.86-23.99"/>
    <path class="cls-12" d="m92.16,57.14c-5.71,2.5-25.95-18.68-34.47-5.08-5.63,8.99,11.41,27.12,23.6,29.07,12.19,1.95,13.83-25.32,10.86-23.99h.01Z"/>
    <g class="cls-48">
      <path class="cls-44" d="m182.64,42.76c-1.09,3.6-10.32,12.9-9.07,20.87.47,2.97,3.6,11.72,4.92,11.41s4.69-2.42,4.38-1.95-4.69,3.67-6.33,4.53c-1.64-.86-8.6-17.04-7.58-17.9,3.05-2.74,12.35-16.8,13.68-16.96"/>
    </g>
    <g class="cls-67">
      <path class="cls-44" d="m57.96,52.61c6.25-3.83,17.66-2.19,24.31,4.3,2.34,2.34,3.05,10.16-2.27,15.47-2.11,2.11,12.5-7.5,12.58-10.32,0-2.81-.94-3.6-3.13-4.38-8.05-2.97-16.49-9.85-23.84-9.69-4.77.08-6.96,3.36-7.66,4.61"/>
    </g>
    <g class="cls-3">
      <g class="cls-69">
        <path class="cls-44" d="m185.17,40.71c14.22,7.82-8.68,19.69-6.96,34.47-2.97-.31-10.32-14.61-8.52-15.87,2.5-1.72,13.05-19.23,15.47-18.6"/>
      </g>
    </g>
    <path class="cls-63" d="m75.44,88.71c.23-1.02.39-2.11.39-3.13.08-1.09.16-2.19.39-3.2.08-.55.23-1.09.47-1.56s.39-1.02.55-1.48c.39-1.02.78-2.03,1.25-2.97,1.8-3.99,3.83-7.74,6.33-11.25s5.24-6.8,8.36-9.61c3.13-2.89,6.8-5.24,10.71-6.8,3.91-1.64,8.13-2.66,12.35-3.13,4.22-.55,8.44-.63,12.66-.55s8.44.31,12.66.86,8.44,1.48,12.5,2.97c2.03.78,3.99,1.64,5.86,2.74s3.67,2.42,5.31,3.99c1.64,1.48,3.05,3.28,4.22,5.16s2.03,3.91,2.81,6.02c.7,2.03,1.25,4.14,1.72,6.25s.78,4.14,1.25,6.1c.23.94.55,1.88.86,2.81.39.94.78,1.95,1.09,2.97.7,1.95,1.48,3.99,2.19,5.94,2.74,7.97,5.16,16.1,6.64,24.38.7,4.14,1.25,8.36,1.33,12.58s-.31,8.44-1.48,12.5c-.31,1.02-.63,2.03-1.02,2.97s-.94,1.88-1.25,2.89c-.16.55-.31,1.02-.55,1.48-.23.47-.55.94-.86,1.41-.55.86-1.25,1.8-1.95,2.58-2.74,3.28-6.25,5.94-10,7.97s-7.82,3.6-11.88,4.77c-4.14,1.17-8.21,2.11-12.43,2.89s-8.36,1.33-12.5,1.88c-2.11.23-4.22.47-6.33.7l-3.13.31c-1.02.08-2.11.16-3.2.23-8.6.47-17.19-.78-25.4-3.05-4.14-1.17-8.13-2.58-12.04-4.3s-7.74-3.67-11.33-6.02c-1.8-1.17-3.6-2.5-5.24-3.99-.39-.39-.86-.78-1.25-1.17s-.7-.86-1.09-1.25c-.7-.86-1.41-1.72-2.03-2.58-2.42-3.6-4.38-7.82-5-12.19-.7-4.45-.08-8.99,1.17-13.13,1.25-4.22,3.2-8.05,5.24-11.8,2.11-3.67,4.38-7.27,6.56-10.79,1.09-1.8,2.11-3.6,3.05-5.39.86-2.34,1.64-4.14,2.03-6.02h0Zm3.13.7c-.55,2.19-1.48,4.22-2.5,6.17s-2.11,3.75-3.2,5.55c-2.19,3.6-4.45,7.11-6.41,10.71s-3.75,7.35-4.85,11.18c-1.09,3.83-1.56,7.82-.94,11.72.63,3.83,2.27,7.5,4.61,10.71.55.78,1.25,1.56,1.88,2.34.31.39.7.78,1.02,1.09.31.39.7.7,1.02,1.02,1.41,1.33,3.05,2.5,4.77,3.67,3.44,2.19,7.03,4.14,10.86,5.78,3.75,1.64,7.66,3.05,11.65,4.14,3.99,1.09,7.97,1.95,12.04,2.5,4.06.55,8.13.7,12.19.55,1.02-.08,2.03-.16,3.05-.23l3.13-.31c2.03-.16,4.14-.39,6.25-.63,4.14-.39,8.28-.94,12.35-1.64,4.14-.7,8.13-1.48,12.11-2.58s7.89-2.34,11.65-3.99c3.67-1.72,7.27-3.83,10.16-6.72.7-.7,1.41-1.48,2.03-2.27.31-.39.63-.86.94-1.25s.7-.78,1.02-1.25c.7-.86,1.02-1.8,1.48-2.74.39-.94.7-1.95.94-2.97,1.02-4.06,1.25-8.28,1.02-12.43-.31-4.14-1.02-8.28-2.03-12.35-1.95-8.13-4.85-15.94-7.89-23.68-.78-1.95-1.56-3.91-2.34-5.78l-1.25-2.89c-.39-1.02-.78-2.11-1.09-3.13-.55-2.11-.94-4.14-1.41-6.17-.39-2.03-.94-3.99-1.56-5.86-1.33-3.83-3.28-7.27-6.17-10-2.81-2.74-6.33-4.85-10.08-6.41s-7.82-2.58-11.88-3.28-8.21-1.09-12.35-1.33c-4.14-.16-8.36-.23-12.5.23s-8.21,1.33-12.04,2.97c-3.83,1.56-7.35,3.83-10.32,6.64-3.05,2.81-5.47,6.25-7.27,9.85-1.88,3.67-3.2,7.58-4.38,11.49-.31.94-.55,1.95-.78,2.97-.16.47-.23,1.02-.39,1.48-.08.23-.08.55-.16.78s-.16.47-.31.7c-.39.94-.86,1.88-1.33,2.81-.16.86-.47,1.8-.7,2.81h0l-.04.03Z"/>
    <path class="cls-24" d="m77,89.1c-3.28,14.54-31.97,37.51-10.16,61.04,7.42,7.97,31.5,20.24,55.65,17.98,62.84-5.94,78.7-21.1,52.21-86.13-4.3-10.55.55-34.94-45.64-36.34-19.38-.55-42.67,2.11-52.05,43.45"/>
    <path class="cls-23" d="m87.87,60.66c2.03-3.13,4.69-5.71,7.66-7.82s6.33-3.67,9.69-4.92c6.88-2.5,14.07-3.44,21.26-3.67,7.19-.16,14.46.39,21.49,2.19,3.52.94,6.96,2.19,10.24,3.99s6.33,3.99,8.91,6.72c2.58,2.74,4.69,5.78,6.33,9.14s2.81,6.88,3.67,10.39c.86,3.6,1.41,7.11,1.88,10.63.23,1.8.47,3.52.86,5.16.16.86.39,1.64.63,2.27.08.16.16.31.23.47l.08.08.08.08.16.31.7,1.17c3.44,6.33,6.02,13.29,6.96,20.55.47,3.6.55,7.27.16,10.94-.39,3.6-1.33,7.19-2.74,10.55-.7,1.64-1.48,3.28-2.42,4.92-.23.39-.47.78-.7,1.17s-.47.7-.78,1.17c-.08.08-.08.16-.16.23-.23-.16.31.55-1.25,0-.39-.7-.16-.55-.23-.7,0-.23.08-.31.08-.47l.23-.7.39-1.25c1.09-3.36,2.03-6.72,2.42-10.24.16-1.72.23-3.44,0-5.24-.23-1.72-.7-3.36-1.56-4.77-.23-.39-.47-.7-.78-1.02-.31-.31-.55-.63-.86-.94-.63-.63-1.25-1.17-1.95-1.72-1.41-1.09-2.89-1.95-4.45-2.74-3.2-1.41-6.72-1.95-10.16-1.8-3.52.16-6.96.86-10.32,1.8-1.72.47-3.36,1.02-5.08,1.56-.86.31-1.72.55-2.58.78-.47.16-.86.23-1.41.31-.47.08-.86.16-1.33.16-3.6.39-7.11.63-10.79.55-3.6-.08-7.19-.47-10.79-1.25-3.52-.78-7.03-1.95-10.32-3.44-3.28-1.56-6.41-3.44-9.22-5.78s-5.31-5-7.5-7.89c-4.38-5.86-7.27-12.66-8.68-19.77-.7-3.6-1.02-7.19-.86-10.86.08-1.8.31-3.67.7-5.47.47-1.41,1.09-3.2,2.11-4.85h0v.02Zm1.56,1.02c-.86,1.41-1.41,2.97-1.8,4.69-.39,1.64-.55,3.36-.7,5.08-.16,3.44.23,6.96.94,10.32,1.48,6.8,4.38,13.29,8.6,18.76,2.11,2.74,4.53,5.24,7.19,7.42,2.66,2.19,5.63,4.06,8.75,5.55,3.13,1.48,6.41,2.58,9.85,3.36,3.36.78,6.88,1.25,10.32,1.33,3.52.16,6.96,0,10.47-.39l1.33-.16c.39-.08.78-.16,1.25-.23.86-.23,1.64-.47,2.5-.7,1.72-.47,3.44-1.02,5.16-1.41,3.44-.86,7.03-1.48,10.71-1.48s7.27.63,10.55,2.19c1.64.78,3.2,1.72,4.61,2.81.7.55,1.41,1.17,2.03,1.8l.94.94c.31.31.63.7.86,1.09,1.02,1.56,1.56,3.36,1.8,5.24.24,1.88.23,3.67.08,5.47-.31,3.6-1.09,7.11-2.11,10.55l-.39,1.25-.16.63c0,.08-.08.23,0,.23-.08-.08.16.16-.16-.55-1.48-.55-.94.16-1.09-.08h0c.16-.31.39-.7.63-1.09s.39-.78.63-1.17c.78-1.56,1.48-3.13,2.11-4.77,2.34-6.49,2.81-13.6,1.64-20.4-.55-3.44-1.56-6.72-2.81-9.93-1.25-3.2-2.74-6.33-4.45-9.38l-.63-1.09-.16-.31-.08-.16-.08-.16c-.16-.23-.23-.47-.31-.7-.39-.94-.63-1.95-.86-2.81-.39-1.8-.7-3.6-.94-5.31-.55-3.52-1.02-6.96-1.88-10.32-.78-3.36-1.88-6.64-3.36-9.69s-3.28-5.86-5.63-8.36c-4.53-4.92-10.79-8.21-17.43-10.16-6.64-1.95-13.68-2.58-20.71-2.58s-13.99.86-20.55,3.05c-3.28,1.09-6.41,2.58-9.3,4.53-2.97,1.88-5.47,4.22-7.35,7.11h-.01Z"/>
    <path class="cls-21" d="m86.93,60.26c1.17-1.88,2.58-3.36,3.99-4.77,1.48-1.41,3.05-2.58,4.69-3.67,3.28-2.19,6.8-3.91,10.47-5.24,7.35-2.58,15.08-3.6,22.74-3.44,7.58.23,15.24,1.17,22.59,3.83,3.67,1.33,7.19,3.05,10.39,5.39,3.2,2.27,6.02,5.08,8.36,8.28,2.27,3.2,3.99,6.72,5.31,10.39,1.25,3.67,2.11,7.42,2.74,11.1.31,1.88.55,3.67.86,5.55.31,1.8.55,3.67.86,5.31.16.86.39,1.64.7,2.27l.08.16.08.16.16.31.31.63.7,1.25c.86,1.64,1.72,3.36,2.5,5.08,1.48,3.44,2.74,7.11,3.6,10.86.86,3.67,1.25,7.5,1.25,11.33-.08,7.66-2.19,15.24-6.17,21.73h0c-.31.47-.94.7-1.41.39s-.63-.86-.47-1.25h0c1.09-2.81,2.27-5.47,3.13-8.21.94-2.74,1.56-5.55,1.56-8.28s-.7-5.39-2.34-7.5c-.08-.16-.23-.31-.31-.39l-.16-.16-.16-.23-.7-.7c-.47-.47-1.02-.94-1.56-1.33-1.09-.86-2.34-1.64-3.52-2.42-4.92-3.05-10.16-5.71-15.47-8.36-5.31-2.58-10.71-5.08-16.02-7.5-10.79-4.92-21.57-9.85-32.2-15.16-5.31-2.74-10.55-5.47-15.71-8.75-2.74-1.95-5.24-3.67-7.66-5.86-1.17-1.09-2.34-2.34-3.28-4.06-.47-.86-.86-1.88-.94-3.13,0-.63,0-1.25.16-1.88.08-.31.16-.63.31-.94.08-.23.31-.7.39-.78h.16-.01Zm4.38,2.66c-.16.23-.08.16-.16.23,0,.05-.03.11-.08.16v.31c0,.23.16.63.31,1.09.47.94,1.33,1.95,2.27,2.81,1.95,1.88,4.22,3.6,6.64,5.16,4.77,3.2,9.93,6.02,15.16,8.83,10.39,5.47,21.1,10.55,31.73,15.71,5.31,2.58,10.63,5.24,15.94,7.89,5.31,2.74,10.55,5.47,15.63,8.83,1.25.86,2.5,1.72,3.67,2.74.63.47,1.17,1.02,1.8,1.56.31.31.55.55.86.94l.16.23.23.23c.16.16.23.31.39.47.94,1.33,1.64,2.81,2.11,4.38s.55,3.2.55,4.77c-.08,3.13-.94,6.17-1.95,9.07-1.02,2.89-2.27,5.55-3.44,8.28l-1.88-.94h0c3.67-6.25,5.39-13.44,5.31-20.63-.16-7.19-2.03-14.3-5.08-20.87-.78-1.64-1.56-3.28-2.5-4.85l-1.41-2.5c-.55-1.02-.78-2.03-1.02-2.97-.47-1.95-.78-3.75-1.09-5.63s-.63-3.67-.94-5.39c-.7-3.6-1.56-7.03-2.81-10.39-1.25-3.28-2.89-6.49-4.92-9.22-2.03-2.81-4.61-5.24-7.42-7.19-2.89-1.95-6.02-3.52-9.38-4.61-6.72-2.27-13.91-3.05-21.1-3.13-3.6,0-7.11.16-10.63.78-3.52.55-6.96,1.41-10.24,2.58s-6.49,2.66-9.38,4.53c-1.48.94-2.81,1.95-4.06,3.13s-2.42,2.34-3.28,3.6h.01Z"/>
    <path class="cls-42" d="m88.65,61.12c-8.6,13.29,1.64,64.32,55.65,57.44,5.71-.7,24.7-10.86,37.51,3.36,6.96,7.82-2.42,27.59,0,23.45,2.74-4.53,13.21-22.04-2.5-49-5-8.68,3.28-50.33-50.8-50.88-20.71-.08-34.15,6.8-39.86,15.63"/>
    <g class="cls-43">
      <g class="cls-66">
        <path class="cls-29" d="m87.22,64.35c15.55-10,62.6-9.3,77.61,14.69,10,15.94-8.28,55.33-15.08,60.34-6.72,5-16.1,9.38-40.8,3.44-20.95-5,10.55-24.46-13.99-27.28-22.43-2.58-24.7-40.25-7.74-51.19"/>
      </g>
    </g>
    <g class="cls-17">
      <g class="cls-69">
        <path class="cls-29" d="m130.7,103.07c0,1.17-2.27,2.19-5.08,2.19s-5.08-.94-5.08-2.19c0-1.17,2.27-2.19,5.08-2.19,2.81.08,5.08,1.02,5.08,2.19"/>
      </g>
    </g>
    <path class="cls-57" d="m121.71,96.69c1.17-.78,7.42-.55,8.21.31.78.78,2.5,4.06.55,5.47-.7.47-.7-1.48-2.27-1.17-1.88.39-.86,2.81-2.34,2.81-2.27-.08-.08-2.66-2.03-2.97-1.48-.31-1.8,1.17-2.5,1.02-2.27-.47-1.25-4.38.39-5.47"/>
    <g class="cls-60">
      <path class="cls-57" d="m125.08,96.22c-1.48,0-2.89.16-3.36.47-1.64,1.09-2.66,5-.47,5.39h.08c.55,0,.86-1.09,2.03-1.09h.39c1.95.31-.16,2.97,2.03,2.97h0c1.41,0,.39-2.34,2.34-2.74h.31c1.09,0,1.25,1.25,1.72,1.25.08,0,.16,0,.23-.08,2.03-1.41.31-4.69-.55-5.47-.39-.39-2.66-.7-4.77-.7m0,.55h0c2.34,0,4.14.31,4.45.55.47.47,1.41,2.19,1.25,3.44-.08.47-.23.86-.55,1.09,0-.08-.08-.08-.16-.16-.31-.39-.78-1.02-1.64-1.02-.16,0-.31,0-.39.08-1.33.31-1.56,1.33-1.8,2.03-.16.7-.23.7-.47.7h0c-.63,0-.63-.16-.63-.86s0-1.8-1.41-2.03h-.47c-.86,0-1.41.55-1.8.86-.08.08-.23.23-.31.23-.31-.08-.63-.23-.78-.86-.23-1.09.55-2.97,1.41-3.6.47-.31,1.56-.47,3.28-.47"/>
    </g>
    <g class="cls-22">
      <g class="cls-69">
        <path class="cls-41" d="m173.84,117.2c2.34,15.01-16.41,33.84-41.66,37.75-25.24,3.83-43.84-18.68-46.19-33.76-2.34-15.01,13.13-9.3,38.37-13.13,25.24-3.83,47.13-5.86,49.47,9.14"/>
      </g>
    </g>
    <g class="cls-4">
      <g class="cls-8">
        <path class="cls-20" d="m107.96,140.04c-.7-1.09-1.09-2.42-1.48-3.67l-1.17-3.75c-.78-2.5-1.64-5-2.81-7.35s-2.66-4.53-4.53-6.17c-1.88-1.64-4.14-2.74-6.56-3.2h0c-.86-.31-1.25-1.17-.94-1.95s1.09-1.17,1.8-1.02c5.63,1.33,11.49,1.95,17.27,2.03s11.72-.23,17.58-.94,11.65-1.72,17.35-3.05,11.41-2.89,16.96-4.77c.86-.31,1.72.16,1.95.94.23.63,0,1.25-.47,1.64h0c-.16.16-.47.39-.7.63-.23.23-.47.55-.7.78-.47.55-.94,1.17-1.41,1.8-.94,1.25-1.8,2.5-2.58,3.83-1.72,2.58-3.28,5.24-4.77,7.97-1.48,2.74-2.97,5.47-4.3,8.21-.7,1.41-1.33,2.81-1.88,4.22-.31.7-.55,1.41-.86,2.19-.16.39-.23.7-.31,1.09v.16c0,.05-.03.11-.08.16,0,.08-.08.16-.16.16-.08.08-.16.16-.31.23-.16.16-.39.23-.55.31-1.48.63-3.05.94-4.53,1.25s-3.05.55-4.61.7c-3.13.39-6.17.7-9.3.78-3.13.16-6.25.16-9.3-.16-1.56-.16-3.13-.39-4.61-.78-.78-.23-1.48-.47-2.19-.86-.7-.31-1.33-.78-1.8-1.41m.08-.08c.39.63,1.09,1.09,1.8,1.41.7.31,1.41.55,2.19.78,1.48.39,3.05.63,4.61.7,3.13.23,6.17.23,9.3.08s6.17-.55,9.22-.94c1.48-.23,3.05-.47,4.53-.86s3.05-.7,4.38-1.33c.16-.08.31-.16.47-.31.16-.08.23-.16.23-.23.08-.39.16-.78.31-1.17.23-.78.47-1.48.7-2.27.55-1.48,1.09-2.89,1.72-4.38,1.25-2.89,2.5-5.71,3.83-8.52,1.33-2.81,2.74-5.63,4.22-8.36.7-1.41,1.48-2.74,2.34-4.14.39-.7.86-1.41,1.33-2.03.23-.31.47-.7.7-1.02.31-.31.55-.7.94-1.02h0l1.48,2.66c-5.71,1.95-11.41,3.52-17.27,4.85s-11.72,2.42-17.66,3.13-11.96,1.09-17.98.94-12.04-.86-17.98-2.27l.86-3.13h0c2.58,1.56,4.92,3.05,6.72,5.16s3.05,4.53,4.06,7.03c.94,2.5,1.72,5.08,2.34,7.58.31,1.25.7,2.58,1.02,3.83.47,1.48.86,2.74,1.56,3.83"/>
      </g>
    </g>
    <g class="cls-62">
      <g class="cls-8">
        <path class="cls-20" d="m107.98,140.05c-.7-1.09-1.09-2.34-1.48-3.6s-.7-2.5-1.09-3.75c-.78-2.5-1.56-5-2.74-7.42-1.09-2.34-2.58-4.53-4.38-6.25-1.88-1.8-4.14-3.05-6.56-3.6h0v-.08c-.39-.16-.63-.63-.47-1.02.16-.39.55-.63.94-.55,5.71,1.33,11.57,1.95,17.51,2.03s11.8-.23,17.66-.94c5.86-.71,11.65-1.8,17.43-3.05,5.78-1.33,11.49-2.89,17.04-4.77.39-.16.86.08,1.02.47.08.31,0,.63-.23.86h0c-.47.39-1.02,1.02-1.48,1.56-.47.55-.94,1.25-1.41,1.8-.86,1.25-1.72,2.58-2.5,3.91-1.64,2.58-3.2,5.31-4.69,8.05s-2.89,5.47-4.14,8.28c-.63,1.41-1.25,2.81-1.88,4.22-.31.7-.55,1.41-.78,2.19-.16.39-.23.7-.31,1.09-.08.31-.31.39-.47.55s-.39.23-.55.31c-1.48.63-3.05.94-4.53,1.25s-3.05.55-4.61.78c-3.05.39-6.17.7-9.3.86-3.13.16-6.25.16-9.3-.16-1.56-.16-3.13-.39-4.61-.78-.78-.23-1.48-.47-2.19-.78-.78-.39-1.48-.86-1.88-1.48m0-.08c.39.63,1.09,1.09,1.8,1.48.7.31,1.41.55,2.19.78,1.48.39,3.05.63,4.61.7,3.13.31,6.17.23,9.3.08,3.13-.15,6.17-.47,9.3-.94,1.48-.23,3.05-.47,4.61-.86,1.48-.31,3.05-.7,4.38-1.33.16-.08.31-.16.47-.31.16-.08.31-.23.31-.31.08-.39.16-.78.31-1.17.23-.78.47-1.48.78-2.19.55-1.48,1.17-2.89,1.8-4.3,1.25-2.89,2.58-5.63,3.99-8.44s2.81-5.55,4.38-8.28c.78-1.41,1.56-2.74,2.42-3.99.39-.7.86-1.33,1.33-1.95.47-.63.94-1.25,1.64-1.88h0l.78,1.41c-5.63,1.95-11.41,3.52-17.19,4.85s-11.65,2.34-17.58,3.13c-5.94.7-11.88,1.09-17.9.94-5.94-.16-11.96-.78-17.82-2.11l.39-1.48h0c2.58,1.02,4.92,2.58,6.72,4.61s3.13,4.38,4.14,6.8c1.02,2.42,1.8,4.92,2.5,7.5.31,1.25.7,2.5,1.09,3.83.16,1.09.55,2.34,1.25,3.44"/>
      </g>
    </g>
    <path class="cls-33" d="m108.03,139.98c3.99,6.25,36.58,1.95,37.12-.55,1.41-6.33,13.13-28.68,16.88-31.81-6.72,2.34-41.66,13.52-70.03,6.72,12.74,4.3,12.9,20.79,16.02,25.63"/>
    <g class="cls-59">
      <path class="cls-33" d="m161.92,107.74c-5.24,1.8-27.28,8.91-50.1,8.91-6.72,0-13.44-.63-19.93-2.11,12.82,4.14,12.97,20.71,16.1,25.56,1.48,2.34,7.19,3.2,13.68,3.2,10.47,0,23.06-2.19,23.45-3.75,1.41-6.41,13.05-28.76,16.8-31.81m-4.38,3.05c-5.08,7.66-12.43,22.43-13.91,27.98-1.95,1.09-12.04,2.97-21.96,2.97-7.97,0-11.57-1.33-12.35-2.5s-1.41-3.36-2.03-5.86c-1.33-4.77-3.2-11.33-7.66-15.87,3.91.47,7.97.7,12.27.7,18.6-.08,36.81-4.77,45.64-7.42"/>
    </g>
    <path class="cls-44" d="m121.39,143.27c-6.72,0-11.1-.94-12.82-2.81-.16-.16-.16-1.09.63-2.89,1.88-4.3,7.66-11.65,17.66-12.27.7,0,1.33-.08,1.95-.08,11.72,0,18.76,5.94,18.76,6.96-.16.31-.31.78-.55,1.41-.63,1.48-1.56,3.83-2.42,6.33-1.02,1.02-12.74,3.36-23.21,3.36"/>
    <path class="cls-57" d="m128.82,124.82c-.7,0-1.33,0-2.03.08-13.68.86-20.01,14.38-18.6,16.02,2.03,2.19,7.27,2.97,13.21,2.97,10.55,0,23.29-2.42,23.68-3.6,1.17-3.52,2.5-6.41,3.05-7.82.47-1.41-7.42-7.74-19.3-7.66m0,1.02c10.47,0,17.51,5,18.21,6.49-.16.31-.31.7-.47,1.17-.63,1.48-1.56,3.67-2.42,6.17-1.64.94-12.58,3.05-22.74,3.05-6.33,0-10.71-.94-12.35-2.58-.08-.55.47-2.74,2.42-5.47,1.72-2.5,6.72-8.36,15.4-8.83h1.95"/>
    <g class="cls-51">
      <path class="cls-44" d="m108.41,140.07c-.94,4.22,24.93-16.49,38.84-6.56,2.89-3.83-12.5-10.32-21.49-8.83-7.58,1.33-15.4,6.17-17.35,15.4"/>
    </g>
    <path class="cls-56" d="m113.66,117.79c1.33,2.34,3.75,13.76,4.77,13.99s7.42,2.03,8.28,1.64c.94-.39.86-2.58,1.8-1.95.78.55,1.17,1.56,1.95,1.17,1.41-.7,5.55-3.28,6.25-4.38.63-1.17.55-7.66,0-12.82-2.66,1.25-18.37,2.89-23.06,2.34"/>
    <g class="cls-1">
      <path class="cls-7" d="m136.75,115.48c-2.34,1.02-14.61,2.42-20.79,2.42-.94,0-1.64,0-2.27-.08,1.33,2.34,3.75,13.76,4.77,13.99.94.23,6.25,1.72,7.89,1.72.16,0,.31,0,.39-.08.78-.31.86-2.03,1.48-2.03.08,0,.23,0,.31.16.7.39,1.02,1.25,1.64,1.25.08,0,.23,0,.31-.08,1.41-.7,5.55-3.28,6.25-4.38.7-1.17.55-7.66,0-12.9m-.39.7c.47,5.31.47,10.94,0,11.88-.55.94-4.3,3.36-6.02,4.22h-.08c-.16,0-.39-.23-.55-.47-.23-.23-.47-.47-.78-.7-.23-.16-.39-.23-.63-.23-.7,0-.94.7-1.17,1.25-.16.31-.31.78-.55.86h-.23c-1.33,0-5.31-1.09-6.96-1.48-.31-.08-.55-.16-.7-.16-.47-.55-1.48-4.22-2.27-6.88-.7-2.42-1.33-4.69-1.88-6.02h1.48c5.86,0,16.8-1.25,20.32-2.27"/>
    </g>
    <g class="cls-32">
      <path class="cls-2" d="m115.49,123.3c-.39-4.22,19.07-5.63,21.49-5.24,0-1.02-.16-1.64-.16-2.81-3.2,1.64-20.71,3.36-23.06,2.66.23.47,1.09,2.81,1.72,5.39"/>
    </g>
    <g class="cls-47">
      <path class="cls-7" d="m125.19,120.11c.39.94.78,1.8,1.09,2.74s.63,1.88.94,2.81l.86,2.81.86,2.81-1.33.39-.63-2.89-.7-2.89c-.23-.94-.47-1.88-.7-2.81-.31-.94-.55-1.88-.86-2.74,0,0,.47-.23.47-.23Z"/>
    </g>
    <g class="cls-68">
      <g class="cls-30">
        <path class="cls-44" d="m59.41,53.95c10.32,2.66,8.68,20.48,14.77,21.88,6.17,1.41,14.22-14.69,15.01-18.21-11.88-5.08-17.43-11.02-25.95-9.3-2.81.55-6.72,4.85-3.83,5.63"/>
      </g>
    </g>
    <g class="cls-45">
      <g class="cls-8">
        <path class="cls-29" d="m88,106.09c12.97,1.02,23.68,1.56,27.51-2.42s5.24-21.65,11.49-21.18c5.31.39,7.11,23.37,10.55,23.99,3.44.7,27.74,7.35,33.84,1.09,6.02-6.25,8.83-10.16,7.42-13.91s-36.97-15.87-44.24-16.57c-7.27-.7-56.35,5.47-57.6,8.52-1.25,3.13-2.58,2.66-2.34,5.94.47,6.33.39,13.52,13.36,14.54"/>
      </g>
    </g>
    <path class="cls-33" d="m124.36,79.96c.94,0,4.61-.31,5.47.39,4.69,3.67,4.53,18.76,9.46,23.45,4.38,4.22,28.29,7.27,32.43,2.5s10.24-19.3,11.65-20.4c1.41-1.02,4.53-1.8,5.47-3.28.94-1.41.16-7.82-2.03-7.5s-6.33,1.64-8.91.94c-2.58-.78-15.16-8.68-46.81-3.91-3.05.47-6.1,0-8.21-.55s-13.99-7.42-45.8-2.89c-3.13.47-7.5-.94-9.07-.78s-2.03,5.08-1.41,6.33,3.91,2.34,4.3,3.91,3.28,16.88,10.79,23.21c7.97,6.72,28.29,2.03,30.09.78,8.05-5.71,9.85-22.2,12.58-22.2"/>
    <g class="cls-19">
      <path class="cls-61" d="m96.96,67.24c-5.55,0-12.19.39-20.01,1.56-.47.08-.94.08-1.41.08-2.74,0-5.94-.86-7.42-.86h-.23c-1.56.16-2.03,5.08-1.41,6.33.63,1.33,3.91,2.34,4.3,3.91s3.28,16.88,10.79,23.21c3.13,2.66,8.28,3.52,13.44,3.52,7.82,0,15.55-1.95,16.65-2.74,8.13-5.78,10-22.27,12.74-22.27.39,0,1.41-.08,2.34-.08,1.25,0,2.58.08,3.05.39,4.69,3.67,4.53,18.76,9.46,23.45,2.81,2.66,13.6,4.92,22.04,4.92,4.77,0,8.83-.7,10.32-2.42,4.14-4.77,10.24-19.3,11.65-20.4,1.41-1.09,4.53-1.8,5.47-3.28.86-1.41.16-7.5-1.95-7.5h-.16c-1.72.23-4.69,1.09-7.11,1.09-.63,0-1.25-.08-1.8-.23-2.03-.63-9.93-5.39-27.9-5.39-5.39,0-11.65.39-18.91,1.48-.86.16-1.8.16-2.58.16-2.11,0-4.06-.31-5.55-.7-1.56-.16-8.75-4.22-25.79-4.22m0,1.56c14.15,0,21.41,2.81,24.07,3.91.55.23.94.39,1.33.47,1.41.31,3.52.78,5.94.78.94,0,1.95-.08,2.81-.23,6.64-1.02,12.9-1.48,18.68-1.48,14.85,0,22.59,3.28,25.95,4.77.7.31,1.17.47,1.56.63.7.23,1.41.31,2.27.31,1.72,0,3.6-.39,5.16-.7.7-.16,1.41-.31,1.95-.39.7.78,1.17,4.22.78,5.16-.31.47-1.64,1.09-2.58,1.48-.94.39-1.8.78-2.42,1.25-.86.63-1.72,2.27-4.22,7.27-2.42,4.77-5.39,10.71-7.66,13.29-.78.94-3.6,1.88-9.22,1.88-8.21,0-18.68-2.19-21.02-4.45-2.19-2.03-3.28-6.8-4.38-11.41-1.25-5.16-2.42-10-5.16-12.19-.7-.55-1.8-.78-3.99-.78h-2.42c-2.19,0-3.13,2.58-4.77,7.27-1.8,5.16-4.38,12.11-8.83,15.32-1.02.63-8.36,2.5-15.79,2.5-5.71,0-10-1.09-12.43-3.13-2.97-2.5-7.11-8.36-10.08-21.73-.08-.31-.16-.55-.16-.7-.39-1.48-1.8-2.34-2.97-3.13-.47-.31-1.25-.86-1.41-1.09-.31-.7,0-3.28.47-4.14.55,0,1.33.16,2.19.31,1.48.23,3.36.55,5.08.55.55,0,1.17,0,1.64-.16,6.96-.86,13.6-1.41,19.62-1.41"/>
    </g>
    <g class="cls-28">
      <g class="cls-8">
        <path class="cls-14" d="m79.58,78.44c-.7.94-1.17,14.77,4.69,18.52,3.83,2.5,20.09,1.95,23.37.16,5.08-2.89,10.08-16.02,8.68-17.9-2.34-3.13-19.23-7.27-31.89-3.99-1.56.31-3.99,2.03-4.85,3.2h0Z"/>
      </g>
    </g>
    <path class="cls-5" d="m79.58,78.4c-.7.94-1.17,14.77,4.69,18.52,3.83,2.5,20.09,1.95,23.37.16,5.08-2.89,10.08-16.02,8.68-17.9-2.34-3.13-19.23-7.27-31.89-3.99-1.56.39-3.99,2.03-4.85,3.2"/>
    <g class="cls-39">
      <g class="cls-8">
        <path class="cls-14" d="m175.08,84.46c.63,1.02-.78,14.77-7.03,17.82-4.14,1.95-20.16-.7-23.13-2.89-4.69-3.52-7.97-17.19-6.33-18.91,2.74-2.81,20.01-4.69,32.12.16,1.48.55,3.67,2.58,4.38,3.83h0Z"/>
      </g>
    </g>
    <path class="cls-5" d="m175.09,84.49c.63,1.02-.78,14.77-7.03,17.82-4.14,1.95-20.16-.7-23.13-2.89-4.69-3.52-7.97-17.19-6.33-18.91,2.74-2.81,20.01-4.69,32.12.16,1.48.55,3.6,2.5,4.38,3.83"/>
    <path d="m98.1,86.84c-.39,3.05-1.95,5.31-3.44,5.08s-2.27-2.81-1.88-5.86,1.95-5.31,3.44-5.08,2.27,2.81,1.88,5.86"/>
    <path d="m160.39,90.28c.31,3.05-.63,5.63-2.03,5.78-1.48.16-2.89-2.19-3.2-5.24-.31-3.05.63-5.63,2.03-5.78,1.41-.08,2.81,2.27,3.2,5.24"/>
    <g class="cls-70">
      <g class="cls-40">
        <path class="cls-33" d="m68.07,72.42c1.8,1.17,3.44.47,3.83,2.81s5.78,22.66,12.5,25.01c11.02,3.83,24.93.08,26.81-1.09s10.71-20.95,12.19-21.73,6.17.08,7.19.55c3.05,1.33,8.68,22.74,10.16,23.84,6.8,4.77,28.6,4.38,29.62,3.13,1.09-1.33,9.22-20.01,10.71-21.1,2.11-1.64,7.03-2.74,7.19-2.03s-3.99,1.41-5.24,2.89c-1.25,1.56-9.46,19.46-12.04,21.02s-21.65,4.14-31.34-2.66c-4.61-3.28-6.41-22.74-10.08-23.84-2.34-.7-4.14-.63-5.86-.16-2.27,1.48-5.47,18.05-12.27,22.2-2.74,1.64-23.92,5.78-30.25-.86-11.8-12.35-8.21-23.37-12.04-24.93-2.58-1.09-3.13-2.5-3.13-3.44.23-1.02,1.09-.23,2.03.39"/>
      </g>
    </g>
    <g class="cls-58">
      <g class="cls-40">
        <path class="cls-33" d="m68.29,68.28c-1.25-.47,5.31,2.27,7.74,2.11,2.42-.16,6.49-1.88,7.82-2.27,1.17-.39-6.1.94-7.89.86s-6.96-.47-7.66-.7"/>
      </g>
    </g>
    <g class="cls-46">
      <g class="cls-40">
        <path class="cls-33" d="m118.97,71.95c2.27,1.02,3.28,3.6,5.47,3.83s4.85.63,6.1-.08,4.38-2.34,5.24-2.5c.94-.16-6.8,1.02-9.69.78-2.89-.31-6.25-1.95-7.11-2.03"/>
      </g>
    </g>
    <g class="cls-52">
      <g class="cls-40">
        <path class="cls-33" d="m174.44,74.94c-.94-.39,3.44,3.13,4.77,2.97s3.67-1.64,4.69-2.03c.78-.31-3.13.78-4.3.55-1.17-.08-4.22-1.09-5.16-1.48"/>
      </g>
    </g>
    <g class="cls-10">
      <g class="cls-40">
        <path class="cls-33" d="m77.12,76.38c5.78-5.71,19.54-3.75,22.04-3.28-16.49,1.17-16.8,2.42-19.69,5.31-.39,2.27-.94,9.77,1.64,16.33-2.89-1.56-5.94-16.41-3.99-18.37"/>
      </g>
    </g>
    <g class="cls-6">
      <g class="cls-40">
        <path class="cls-33" d="m178.26,82.54c-5-6.41-18.84-6.33-21.41-6.1,16.18,3.36,16.33,4.61,18.84,7.89.16,2.27-.31,9.77-3.67,15.94,2.97-1.25,7.89-15.63,6.25-17.74"/>
      </g>
    </g>
    <g class="cls-34">
      <path class="cls-65" d="m79.75,87.91c.55-6.72,1.17-12.19,14.54-12.58,10.71-.31,19.23,2.19,20.4,4.77.78,1.64.16,8.83-5.16,15.4,3.44-3.05,8.91-15.16,6.56-16.65-8.68-5.55-25.95-5.71-32.36-3.44-1.17.39-3.05,1.72-4.3,3.13-.23,1.72-.23,8.44.31,9.38"/>
    </g>
    <g class="cls-71">
      <path class="cls-65" d="m80.12,88.4c2.03,13.13,26.03,9.14,27.43,8.6-.08.7-12.58,4.22-23.06.16-4.22-1.56-4.53-10.24-4.38-8.75"/>
    </g>
    <g class="cls-38">
      <path class="cls-65" d="m173.96,93.78c.31-6.8.31-12.19-12.82-14.22-10.55-1.64-19.3-.23-20.87,2.19-.94,1.48-1.25,8.75,3.28,15.94-3.05-3.52-7.03-16.1-4.45-17.35,9.3-4.45,26.49-2.5,32.51.55,1.09.55,2.89,2.03,3.91,3.67-.08,1.64-.86,8.36-1.56,9.22"/>
    </g>
    <g class="cls-18">
      <path class="cls-65" d="m173.51,94.19c-3.6,12.74-26.96,5.86-28.29,5.16,0,.7,11.96,5.71,22.9,3.05,4.38-1.09,5.86-9.69,5.39-8.21"/>
    </g>
    <g class="cls-37">
      <g class="cls-69">
        <path class="cls-5" d="m97.69,82.93c0-.39-.31-.78-.78-.78s-.78.31-.78.78.31.78.78.78.78-.31.78-.78"/>
      </g>
    </g>
    <g class="cls-50">
      <g class="cls-69">
        <path class="cls-5" d="m159.44,86.6c0-.39-.31-.78-.78-.78-.39,0-.78.31-.78.78s.31.78.78.78c.39,0,.78-.39.78-.78"/>
      </g>
    </g>
    <g class="cls-26">
      <g class="cls-54">
        <path class="cls-65" d="m68.5,71.58c1.88,2.11,3.05,2.34,5.55,2.03,24.31-3.13,37.75-3.05,44.39,3.13,1.41,1.33.63-3.99-2.03-4.69-20.48-5.39-35.33-.55-38.45-.16-3.2.47-5.47-.23-9.46-.31"/>
      </g>
    </g>
    <g class="cls-9">
      <g class="cls-54">
        <path class="cls-65" d="m135.72,74.7c-.55.55-.31,6.17,2.34,4.06,7.66-6.1,23.68-4.69,34.86-.94-1.8-3.52-14.85-5.94-22.2-5.86-3.52.16-13.52,1.17-15.01,2.74"/>
      </g>
    </g>
    <path class="cls-65" d="m181.96,79.18c0,.23-1.25.39-2.74.39s-2.74-.16-2.74-.39,1.25-.39,2.74-.39,2.74.23,2.74.39"/>
    <path class="cls-65" d="m76.61,72.46c0,.23-1.25.23-2.74,0s-2.66-.63-2.58-.86,1.25-.23,2.74,0c1.48.16,2.66.55,2.58.86"/>
    <path class="cls-27" d="m227.95,197.69c-.47-4.77-3.99-6.88-7.19-6.88-1.48,0-2.66.39-3.13.63l-.63.31-.55.39c-.78.55-2.11,1.41-3.28,1.8-.08-.94,0-2.19.16-3.28v-.16c.86-8.36-.86-13.29-5.24-14.54-.7-.23-1.48-.31-2.27-.31-2.66,0-5,1.25-6.49,2.34-1.25-1.64-3.44-2.5-6.1-2.5-3.99,0-7.19,1.88-8.36,4.85-.16.31-.31.78-.47,1.41-2.34-5.16-7.11-7.11-11.57-7.11-4.22,0-8.28,1.64-9.77,2.81-.08.08-.16.08-.23.16-3.99,2.81-7.11,6.41-9.3,10.71-1.09-3.67-3.44-7.19-7.58-9.77l-.08-.08c-.16-.08-.23-.16-.31-.16,4.14-7.27,7.74-16.96,5.55-26.18-2.34-9.85-8.13-11.25-11.33-11.25-1.33,0-2.74.23-4.14.7h-.16c-6.1,2.42-8.75,6.02-9.38,6.88-.63.94-7.27,11.1-8.91,25.95-.16,1.64-.39,3.36-.55,5.08-.94-1.33-2.5-2.58-4.92-3.28-.78-.23-1.56-.31-2.34-.31-3.36,0-6.1,2.03-7.58,3.44h0c-1.25-1.88-3.28-3.05-5.55-3.13h-.55c-3.6,0-6.41,1.56-8.52,3.36-1.33-2.34-3.83-3.83-6.72-3.83h-1.17c-3.99,0-7.11,1.88-8.36,5-.08.23-.23.55-.31.94-3.13-3.91-7.11-5.71-12.5-5.71h-.55c-3.36.08-11.65,1.48-16.8,12.97-.78,1.8-1.41,3.6-1.88,5.31-1.09-.55-2.19-.63-2.89-.63-2.66,0-4.69,1.48-5.63,2.97-.78,1.17-3.28,5.24-2.03,9.3.7,2.19,2.19,3.83,4.38,4.69,1.95.78,4.38,1.48,6.17,2.03,1.09,2.58,3.13,5.47,6.72,8.21,2.5,1.95,5.78,2.89,9.53,2.89,6.41,0,12.58-2.74,13.21-3.05l.23-.16.08-.08c1.25,1.25,2.81,2.19,4.85,2.58.63.16,1.41.23,2.34.23,3.44,0,5.86-1.8,8.13-5.08,1.8,2.89,5.16,4.45,9.07,4.45h0c.23,0,.39.16.7.16,2.03,0,4.69-.7,6.8-4.22,1.8,3.2,5.08,5.08,8.99,5.08,3.44,0,6.49-1.41,7.03-1.72l.16-.08c1.17-.63,2.11-1.17,2.89-1.56,2.58,1.41,6.49,2.89,11.33,2.89.86,0,1.64,0,2.5-.16h.47c10.16-2.03,16.8-4.45,20.79-6.33,2.74,3.13,7.19,6.1,13.44,6.56.7.08,1.41.08,2.11.08,5.16,0,9.3-1.48,12.35-3.05.94,1.02,2.19,1.95,3.75,2.58.94.39,1.95.55,2.89.55,6.33,0,9.3-7.5,10.08-10.08l1.48-4.06c1.33,1.41,3.05,2.58,5.24,3.2,1.17.31,2.5.55,3.75.55,6.96,0,13.68-4.92,14.69-5.78,1.8-1.8,3.83-5.08,3.44-9.53"/>
    <path class="cls-5" d="m164.11,199.78s-.86-3.13,2.42-9.07,5.78-2.74,5.78-2.74c0,0,2.81,3.05-.39,7.58s-7.82,4.22-7.82,4.22m-25.09,4.3c-3.75,9.77-12.82,5.78-12.82,5.78,0,0-1.02-3.52,1.95-13.29,2.97-9.77,9.85-5.94,9.85-5.94,0,0,4.77,3.67,1.02,13.44m-6.8-41.03s5.63-14.77,7.03-7.58c1.41,7.19-11.88,28.53-11.88,28.53.16-4.77,4.85-20.95,4.85-20.95m-80.89,36.73c.23-9.46,6.41-13.6,8.6-11.57,2.19,2.03,1.41,6.56-2.74,9.3-3.99,2.81-5.86,2.27-5.86,2.27m171.39-1.56c-.31-3.2-3.2-2.03-3.2-2.03,0,0-4.61,3.6-8.68,3.2-4.06-.39-2.74-9.46-2.74-9.46,0,0,.86-8.36-1.48-9.07-2.42-.7-5.31,2.19-5.31,2.19,0,0-3.67,4.06-5.39,9.22l-.47.16s.55-9.07-.08-11.18c-.47-1.02-4.85-.94-5.55.86s-4.22,14.54-4.45,19.93c0,0-6.88,5.78-12.82,6.8-6.02.94-7.42-2.81-7.42-2.81,0,0,16.26-4.53,15.71-17.51-.55-12.97-13.13-8.21-14.54-7.11-1.41,1.02-8.68,5.47-10.86,17.66-.08.39-.23,2.27-.23,2.27,0,0-6.33,4.22-9.77,5.31,0,0,9.77-16.49-2.19-23.99-5.39-3.28-9.77,3.6-9.77,3.6,0,0,16.18-17.98,12.58-33.22-1.72-7.27-5.31-8.05-8.68-6.88-5.08,2.03-6.96,4.92-6.96,4.92,0,0-6.56,9.46-8.05,23.6s-3.75,31.11-3.75,31.11c0,0-3.13,3.05-5.94,3.2-2.89.16-1.56-8.52-1.56-8.52,0,0,2.19-13.21,2.03-15.47s-.31-3.44-2.97-4.22c-2.58-.78-5.47,2.58-5.47,2.58,0,0-7.58,11.49-8.21,13.21l-.39.7-.39-.47s5.31-15.63.23-15.87-8.44,5.55-8.44,5.55c0,0-5.78,9.77-6.02,10.86l-.39-.47s2.42-11.33,1.95-14.15-3.13-2.19-3.13-2.19c0,0-3.36-.39-4.22,1.8s-4.06,16.41-4.45,20.95c0,0-8.36,6.02-13.83,6.02-5.47.08-4.92-3.52-4.92-3.52,0,0,20.16-6.88,14.69-20.55-2.5-3.52-5.31-4.61-9.38-4.53s-8.83,2.58-12.11,9.85c-1.56,3.52-2.19,6.8-2.19,9.3h0s-3.75.7-5.71-.86-3.05,0-3.05,0c0,0-3.36,4.77-.08,6.02s8.28,2.5,8.28,2.5h0c.47,2.03,1.8,5.47,5.78,8.44,5.94,4.53,17.43-.7,17.43-.7l4.69-2.81s.16,4.22,3.6,4.85c3.44.63,4.85-.08,10.86-14.54,3.52-7.42,3.75-7.03,3.75-7.03l.39-.08s-2.74,14.15-1.64,17.98,5.55,3.44,5.55,3.44c0,0,2.5.86,4.45-6.17,2.03-7.03,5.78-14.38,5.78-14.38h.47s-1.64,14.15.86,18.76c2.58,4.61,9.14,1.41,9.14,1.41,0,0,4.61-2.42,5.31-3.13,0,0,5.47,4.61,13.21,3.75,17.27-3.44,23.45-8.05,23.45-8.05,0,0,2.97,7.5,12.19,8.21,10.55.78,16.26-5.86,16.26-5.86,0,0-.08,4.3,3.6,5.78,3.67,1.48,6.17-6.49,6.17-6.49l6.17-16.49h.55s.31,10.55,6.41,12.27,13.99-4.38,13.99-4.38c0,0,1.72-.86,1.33-4.06"/>
  </g>
</svg>