<?xml version="1.0" encoding="UTF-8"?><svg xmlns="http://www.w3.org/2000/svg" xmlns:xlink="http://www.w3.org/1999/xlink" viewBox="0 0 128 128"><defs><style>.ar{clip-path:url(#ad);}.as{clip-path:url(#am);}.at{fill:#eadcbe;}.au{clip-path:url(#ai);}.av{fill:#fff;}.aw{clip-path:url(#j);}.ax{fill:#ffdc99;}.ay{clip-path:url(#t);}.az{opacity:.5;}.ba{clip-path:url(#g);}.bb{clip-path:url(#aq);}.bc{clip-path:url(#z);}.bd{stroke:#e5d0ae;stroke-width:3px;}.bd,.be,.bf,.bg,.bh{fill:none;}.bd,.bh{stroke-linecap:round;stroke-linejoin:round;}.bi{clip-path:url(#r);}.bj{clip-path:url(#p);}.bk{fill:#d8cab2;}.bl{fill:#895b2e;}.bm{clip-path:url(#aj);}.bn{fill:#e5bfa1;}.bo{fill:#fff8ee;}.bp{clip-path:url(#d);}.bq{clip-path:url(#ab);}.br{fill:#e3ab5e;}.bs{clip-path:url(#ac);}.bt{clip-path:url(#aa);}.bu{clip-path:url(#v);}.bv{clip-path:url(#m);}.bw{clip-path:url(#x);}.bx{clip-path:url(#i);}.by{opacity:.4;}.bz{clip-path:url(#ap);}.ca{fill:#333;}.cb{clip-path:url(#e);}.cc{opacity:.3;}.cd{clip-path:url(#f);}.ce{fill:#f7e8d0;}.cf{clip-path:url(#l);}.cg{fill:#ba8449;}.ch{clip-path:url(#an);}.ci{clip-path:url(#o);}.cj{clip-path:url(#af);}.ck{fill:#fcd4c3;}.be{stroke:#f8a38f;}.be,.bg{stroke-miterlimit:10;}.be,.bh{stroke-width:2px;}.cl{clip-path:url(#n);}.cm{clip-path:url(#q);}.cn{clip-path:url(#k);}.co{clip-path:url(#c);}.cp{clip-path:url(#ao);}.cq{clip-path:url(#u);}.cr{opacity:.1;}.cs{clip-path:url(#ak);}.ct{fill:#fff7e3;}.cu{clip-path:url(#ae);}.bg{stroke:#333;stroke-width:4px;}.cv{clip-path:url(#ah);}.cw{fill:#f8a38f;}.cx{fill:#1a1a1a;}.cy{fill:#e5d0ae;}.cz{clip-path:url(#s);}.da{clip-path:url(#ag);}.bh{stroke:#895b2e;}.db{clip-path:url(#h);}.dc{fill:#d0dddc;}.dd{opacity:.15;}.de{clip-path:url(#y);}.df{opacity:.25;}.dg{clip-path:url(#al);}.dh{clip-path:url(#w);}.di{fill:#e04e39;}</style><clipPath id="c"><rect class="bf" x="20.42" y="39.38" width="80.94" height="28.27"/></clipPath><clipPath id="d"><rect class="bf" x="21.62" y="37.33" width="15.95" height="7.74"/></clipPath><clipPath id="e"><rect class="bf" x="92.53" y="97.4" width="11.22" height="13.04"/></clipPath><clipPath id="f"><rect class="bf" x="97.16" y="90.86" width="3.72" height="3.06"/></clipPath><clipPath id="g"><rect class="bf" x="103.22" y="90.09" width="3.68" height="3.44"/></clipPath><clipPath id="h"><rect class="bf" x="97.78" y="95.73" width="7.54" height="4.11"/></clipPath><clipPath id="i"><rect class="bf" x="106.61" y="94.72" width="2.72" height="2.39"/></clipPath><clipPath id="j"><rect class="bf" x="31.69" y="90.76" width="61.55" height="17.43"/></clipPath><clipPath id="k"><rect class="bf" x="86.32" y="24.96" width="8.6" height="21.3"/></clipPath><clipPath id="l"><rect class="bf" x="18.56" y="28.16" width="21.11" height="15.09"/></clipPath><clipPath id="m"><rect class="bf" x="86.61" y="23.72" width="12.51" height="21.11"/></clipPath><clipPath id="n"><rect class="bf" x="29.59" y="34.41" width="56.01" height="53.43"/></clipPath><clipPath id="o"><rect class="bf" x="56.71" y="60.49" width="6.26" height="2.63"/></clipPath><clipPath id="p"><rect class="bf" x="56.43" y="57.62" width="6.92" height="4.73"/></clipPath><clipPath id="q"><rect class="bf" x="35.51" y="63.21" width="53.91" height="30.61"/></clipPath><clipPath id="r"><rect class="bf" x="38.33" y="63.69" width="44.7" height="22.68"/></clipPath><clipPath id="s"><rect class="bf" x="38.81" y="64.16" width="43.74" height="22.2"/></clipPath><clipPath id="t"><rect class="bf" x="39.28" y="64.64" width="42.79" height="21.68"/></clipPath><clipPath id="u"><rect class="bf" x="49.36" y="74.91" width="23.97" height="9.88"/></clipPath><clipPath id="v"><rect class="bf" x="52.56" y="69.42" width="14.37" height="11.08"/></clipPath><clipPath id="w"><rect class="bf" x="52.61" y="69.22" width="14.18" height="4.92"/></clipPath><clipPath id="x"><rect class="bf" x="59.34" y="72.23" width="2.63" height="7.02"/></clipPath><clipPath id="y"><rect class="bf" x="18.8" y="28.16" width="18.81" height="17.05"/></clipPath><clipPath id="z"><rect class="bf" x="28.73" y="45.92" width="63.84" height="20.29"/></clipPath><clipPath id="aa"><rect class="bf" x="23.57" y="39.9" width="75.11" height="25.36"/></clipPath><clipPath id="ab"><rect class="bf" x="30.88" y="43.39" width="24.11" height="16.33"/></clipPath><clipPath id="ac"><rect class="bf" x="66.88" y="45.64" width="23.92" height="16.71"/></clipPath><clipPath id="ad"><rect class="bf" x="23.57" y="42.53" width="74.64" height="21.97"/></clipPath><clipPath id="ae"><rect class="bf" x="24.77" y="40.43" width="9.65" height="1.43"/></clipPath><clipPath id="af"><rect class="bf" x="55.81" y="42.77" width="10.36" height="2.53"/></clipPath><clipPath id="ag"><rect class="bf" x="89.61" y="44.63" width="5.87" height="1.86"/></clipPath><clipPath id="ah"><rect class="bf" x="29.88" y="43.1" width="13.8" height="13.66"/></clipPath><clipPath id="ai"><rect class="bf" x="78.97" y="45.49" width="13.28" height="14.56"/></clipPath><clipPath id="aj"><rect class="bf" x="31.55" y="44.06" width="22.83" height="13.13"/></clipPath><clipPath id="ak"><rect class="bf" x="32.03" y="52.75" width="16.81" height="6.64"/></clipPath><clipPath id="al"><rect class="bf" x="67.55" y="46.3" width="22.78" height="12.18"/></clipPath><clipPath id="am"><rect class="bf" x="71.85" y="56.28" width="17.33" height="5.59"/></clipPath><clipPath id="an"><rect class="bf" x="41.81" y="49.03" width=".96" height=".96"/></clipPath><clipPath id="ao"><rect class="bf" x="79.54" y="51.27" width=".96" height=".96"/></clipPath><clipPath id="ap"><rect class="bf" x="24.96" y="41.34" width="30.94" height="4.54"/></clipPath><clipPath id="aq"><rect class="bf" x="65.88" y="42.87" width="22.87" height="4.39"/></clipPath></defs><g id="a"><rect class="di" x="0" y="0" width="128" height="128" rx="25" ry="25" transform="translate(128 0) rotate(90)"/></g><g id="b"><path class="av" d="m27.78,108.29c.1-.24.19-.48.29-.72l.05-.1c.24-.57.48-1.19.72-1.77.29-.76.57-1.58.86-2.34.19-.43.33-.86.48-1.34.38-1.05.91-2.44,1.53-3.77.38-.81.67-1.38,1-1.91.38-.62.76-1.19,1.19-1.77l.33-.48.53-.33s.14-.1.24-.14c.24-.14.53-.24.72-.33.33-.14.76-.29,1.24-.43.67-.19,1.43-.38,2.34-.57,1.34-.29,2.77-.57,4.58-.86,2.72-.43,5.63-.81,9.12-1.19,6.16-.67,12.32-1.15,18.24-1.43,3.15-.14,5.54-.19,7.78-.19h1.43c1.48.05,3.2.1,4.78.33.57.1,1.1.19,1.48.33.14.05.29.1.33.14l.48.19.38.33.43.43c.53.53,1.1,1.15,1.67,1.86,1.81,2.29,3.44,5.06,4.87,8.21,1.38,3.06,2.24,5.78,2.77,8.45l.72,3.77h-8.79l-.53-2.53c-.57-2.67-7.78-9.74-11.36-11.13-.38-.14-1.91-.57-6.64-.57-9.74,0-23.49,1.72-25.45,2.15-2.34,1.1-5.92,5.68-7.97,10.27l-.86,1.86"/><path class="cg" d="m87.47,94.34c-.43-.57-.91-1.1-1.43-1.58l-.33-.33s-.05,0-.1-.05c-.24-.1-.57-.14-.91-.19-1.38-.19-2.87-.24-4.35-.29-3.01-.05-6.02.05-9.03.19-6.02.29-12.08.76-18.05,1.43-3.01.33-6.02.72-8.98,1.19-1.48.24-2.96.48-4.39.81-.72.14-1.43.33-2.1.53-.33.1-.67.19-.96.33-.14.05-.29.1-.33.19,0,0-.05,0-.05.05-.33.48-.67.96-1,1.48s-.57,1.1-.86,1.67c-.53,1.15-1,2.34-1.43,3.53s-.91,2.44-1.34,3.68c-.24.62-.48,1.24-.76,1.86-.1.29-.24.57-.38.86h4.06c2.2-4.92,6.35-10.55,9.79-11.94.96-.38,16.33-2.29,26.5-2.29,3.77,0,6.35.29,7.78.81,4.15,1.62,12.46,9.31,13.32,13.47h2.34c-.48-2.63-1.43-5.2-2.53-7.69-1.24-2.87-2.72-5.49-4.49-7.74"/><path class="av" d="m91.86,112.73l-.48-2.58c-.43-2.15-1.15-4.44-2.29-6.97-1.24-2.67-2.58-5.01-4.11-6.88-.29-.38-.57-.72-.86-1-1.19-.19-2.58-.19-3.82-.24h-1.34c-2.15,0-4.44.05-7.5.19-5.83.29-11.79.76-17.86,1.43-3.39.38-6.21.76-8.79,1.15-1.67.24-3.01.53-4.2.76-.76.19-1.34.33-1.86.48-.1,0-.14.05-.19.05-.1.19-.24.33-.33.53-.24.38-.43.81-.76,1.38-.53,1.1-.96,2.24-1.34,3.25-.19.43-.33.86-.48,1.29-.29.81-.57,1.62-.91,2.44-.24.62-.53,1.24-.76,1.91l-.05.1c-.1.29-.24.57-.33.81l-.86,1.91h-5.59l-.81-.38-.1-.05c-1.91-1.1-1.91-2.72-1.86-3.39v-.14l.1-.43.14-.53c.1-.33.19-.72.29-1.05.19-.72.43-1.38.67-2.05.43-1.24.96-2.58,1.58-4.01.67-1.48,1.29-2.77,2.01-3.96.33-.62.72-1.24,1.19-1.96.43-.67.91-1.34,1.38-1.96.43-.53.81-.86,1.1-1.05h.05c.29-.24.57-.38.72-.43.43-.24.76-.38,1-.48.57-.24,1.1-.38,1.53-.53.96-.29,1.86-.48,2.53-.62,1.38-.29,2.87-.57,4.73-.86,2.77-.43,5.68-.76,9.26-1.15,6.21-.62,12.42-1.1,18.43-1.34,2.87-.1,5.11-.19,7.16-.19h2.2c1.53.05,3.25.1,5.11.38h.05c.43.1,1.1.19,1.86.43h.05c.19.1.48.19.81.33.24.14.43.24.57.33l.24.19.19.14.19.19.53.53c.62.62,1.19,1.29,1.81,2.1,1.91,2.48,3.58,5.35,5.11,8.74.72,1.58,1.34,3.15,1.81,4.68.53,1.67.91,3.25,1.19,4.78l.57,3.68h-8.69v.05Z"/><path class="av" d="m30.83,112.73l2.1-4.54c1.77-3.77,6.02-10.7,10.74-12.65l.1-.05c1.58-.57,17.53-2.44,27.27-2.44,5.44,0,7.5.53,8.55.96,4.92,1.91,13.47,9.98,14.61,14.76l.96,3.92H30.83v.05Z"/><path class="av" d="m88.66,112.73l-.57-2.44c-.53-2.24-7.26-8.98-10.74-10.36-.33-.14-1.72-.53-6.3-.53-9.36,0-22.92,1.67-25.12,2.1-1.81.91-5.11,4.78-7.26,9.36l-.86,1.81h-7.93l2.01-4.44c2.34-5.25,6.97-11.75,11.51-13.56,1.77-.72,17.91-2.53,27.7-2.53,4.25,0,7.12.33,8.88,1,4.92,1.91,14.13,10.22,15.28,15.76l.76,3.82h-7.35Z"/><path class="av" d="m92.34,112.73l-.91-.86c-3.44-3.2-4.39-9.84-3.34-12.56.72-1.81,2.24-2.44,3.39-2.44.33,0,.62.05.91.14.62-.05,2.05-1.24,2.48-1.91.67-1.24,1.96-2.01,3.53-2.01,2.34,0,6.16,1.86,7.4,3.63.72,1,.91,2.2.53,3.25-.05.1-.1.29-.19.53-1.29,3.87-2.96,8.6-4.3,10.79l-.91,1.48-8.6-.05h0Z"/><path class="av" d="m92.05,112.73l2.96-4.82c1.43-2.34,2.44-4.25,3.1-5.73-1.67,1.19-4.01,1.91-7.5,2.1l-.1-.1-.05.33c-2.05,0-3.72-1.67-3.82-3.72-.05-1,.33-2.01,1-2.77.67-.76,1.62-1.19,2.63-1.24,3.44-.14,3.87-.96,4.49-2.15.86-1.62,2.72-2.58,5.16-2.58.62,0,1.24.05,1.81.19,3.01.67,4.97,2.96,5.11,5.92.14,3.01-1.53,7.4-4.87,13.04l-.91,1.53h-9.03Z"/><path class="av" d="m104.61,103.32c-3.87,0-8.07-2.53-10.22-5.01-1.96-2.24-2.15-4.25-1.96-5.54.24-1.58,1.53-3.15,3.87-3.15.43,0,.86.05,1.24.1.38-1.72,1.29-5.3,4.97-5.3h.53c1.77.19,3.1,1.29,3.63,2.96.57-.29,1.24-.53,2.01-.53,1.15,0,2.24.48,3.06,1.34,1.29,1.38,1.58,3.29.76,5.11.86.53,1.53,1.34,1.81,2.39.38,1.34.14,2.77-.72,3.92-1.67,2.34-5.54,3.44-8.6,3.53-.19.19-.29.19-.38.19"/><path class="av" d="m100.79,24.67c-3.49,2.2-7.31,7.21-11.99,14.09-.72,1.1-1.91,1.67-3.25,1.67-1.72,0-3.92-1.05-6.45-3.1-4.01-3.25-4.11-5.06-4.15-5.78-.1-1.91,1.34-3.53,3.34-3.72,3.87-.33,7.07-2.67,10.17-4.92s5.97-4.3,9.41-4.3c.67,0,1.38.1,2.05.24"/><path class="bo" d="m78.58,31.02c9.36-.86,14.85-10.55,20.53-9.07-3.82,2.39-7.59,7.16-12.89,14.99-1.29,1.86-10.22-5.68-7.64-5.92"/><path class="av" d="m17.94,26.58c2.34-2.15,5.49-3.25,9.36-3.25,3.34,0,7.31.81,11.75,2.44,1.19.43,2.77.53,3.96.53h1.77c1.1,0,3.44,0,4.44,2.15.33.81.76,2.48-.53,4.44-1.58,2.44-5.73,5.01-9.74,5.01h-.19c-2.15-.05-4.15-1.19-6.49-2.48-2.91-1.62-6.21-3.49-10.12-3.49-.53,0-1.1.05-1.62.1"/><path class="av" d="m89.95,49.74c-1.72,0-4.97-.72-7.02-5.59-1.15-2.58-1.53-5.49-1.53-7.12,0-3.34,1.77-4.25,2.87-4.49.76-.76,2.2-2.72,3.25-4.2,4.35-5.92,7.5-9.79,11.17-9.79.62,0,1.19.1,1.77.33,4.92,1.96,7.31,6.11,6.49,11.36-.57,3.87-3.01,8.45-6.59,12.65-1.67,1.96-6.02,6.54-9.88,6.83h-.53"/><path class="av" d="m33.51,51.56c-.43,0-.86,0-1.24-.1-6.11-1-13.75-7.16-16.62-13.51-1.96-4.35-1.1-7.31,0-9.03,1.77-2.82,4.39-4.3,7.64-4.3,3.92,0,7.83,2.15,11.27,4.01,1.34.72,3.25,1.77,4.06,1.96.29-.1.57-.14.91-.14,1.24,0,2.39.67,3.06,1.81,1.58,2.77.62,10.22-1.86,14.52-1.72,3.15-4.3,4.78-7.21,4.78h0Z"/><path class="av" d="m54.8,104.85c-14.33,0-28.51-7.02-33.24-12.13-4.92-5.3-6.69-11.32-5.35-17.91,1.15-5.4,4.15-10.22,6.78-14.52,1.81-2.96,3.53-5.73,4.01-7.74,5.83-25.74,20.44-29.03,32.52-29.03.76,0,1.58,0,2.48.05,25.74.76,28.32,13.18,29.85,20.63.29,1.38.57,2.67.91,3.53,8.64,21.2,10.08,33.9,4.78,42.5-5.2,8.45-16.62,12.61-39.35,14.47-1.1.1-2.24.14-3.39.14h0Z"/><path class="av" d="m54.28,104.9c-14.61,0-28.13-7.26-32.66-12.18-4.92-5.3-6.69-11.32-5.35-17.91,1.15-5.4,4.15-10.22,6.78-14.52,1.81-2.96,3.53-5.73,4.01-7.74,5.83-25.74,20.44-29.03,32.52-29.03.76,0,1.58,0,2.48.05,25.74.76,28.32,13.18,29.85,20.63.29,1.38.57,2.67.91,3.53,8.5,20.87,9.88,33.47,4.68,42.07-5.97,9.88-20.01,13.08-39.2,14.9-1.34.14-2.67.19-4.01.19"/><path class="av" d="m91.48,86.94c.19-.43.38-.91.57-1.34,1.96-4.68,3.44-8.79,1.1-11.41-2.77-3.06-14.47-8.6-24.88-13.47-19.91-9.41-32.23-15.47-34-21.49-.43-1.53-.24-3.1.57-4.44,3.44-5.4,13.04-11.17,26.17-11.17h.38c12.37.1,21.35,3.68,26.74,10.55,4.58,5.83,5.59,12.65,6.35,17.62.24,1.67.57,3.82.91,4.39,9.36,16.09,5.06,27.98,1.67,33.57l-5.59-2.82Z"/><path class="av" d="m81.69,68.41c-4.82,0-12.89-1.19-15.66-3.87-2.2-2.1-3.01-5.59-3.87-8.98-.33-1.43-.91-3.72-1.43-4.78h-.05c-.19.53-.43,1.19-.62,1.72-1.29,3.63-3.1,8.64-6.88,11.36-1.62,1.19-7.5,2.24-12.03,2.24h0c-4.54,0-7.97-.96-10.27-2.91-3.29-2.77-5.78-7.88-7.45-15.19-.1-.05-.14-.1-.24-.14-.76-.53-1.77-1.15-2.29-2.24-.86-1.72-.53-4.78.38-6.4.67-1.19,1.81-1.96,3.06-2.05h.43c.67,0,1.34.1,2.1.24s1.67.29,2.44.29h.43c4.54-.67,8.79-.96,12.65-.96,9.41,0,14.37,1.91,16.24,2.67.14.05.29.1.38.14.53.14,1.53.33,2.58.33.38,0,.76,0,1.1-.1,4.25-.67,8.31-.96,12.03-.96,9.93,0,15.19,2.24,17.48,3.25.19.1.38.19.53.19h.19c.62,0,1.53-.19,2.29-.33.57-.14,1.15-.24,1.67-.33h.43c1.48,0,2.82.86,3.63,2.29.91,1.67,1.53,5.16.24,7.16-.86,1.34-2.24,1.96-3.39,2.48-.14.05-.33.14-.48.24-.38.67-1.05,2.01-1.62,3.1-1.67,3.25-3.53,6.97-5.25,8.98-1.53,1.72-4.39,2.53-8.74,2.53"/><g class="co"><g class="cc"><path class="av" d="m79.77,67.64c-3.82,0-9.22-.57-13.08-3.29-2.2-1.58-3.2-4.73-4.58-9.79-.38-1.43-.96-3.44-1.38-4.44h0c-.24.57-.53,1.34-.76,1.96-1.43,3.87-3.39,9.12-6.97,11.32-1.86,1.15-7.64,2.2-12.13,2.2-4.82,0-8.31-1.1-10.31-3.2-5.11-5.35-6.11-10.46-6.73-13.47-.1-.43-.19-1-.29-1.34-3.01-1.58-3.2-3.92-3.15-4.92.14-1.86,1.58-3.25,3.34-3.25,1.19,0,1.96.57,2.53.96.05.05.1.1.19.1.05,0,.19.05.24.1.76.24,3.01.86,3.49,3.77.1.53.86,3.58,2.1,6.78,1.96,5.11,3.34,5.97,3.49,6.02,1.62.57,3.53.86,5.68.86,3.53,0,6.49-.76,7.69-1.15.72-1.1,2.15-3.96,3.15-5.92,3.01-5.97,3.53-6.88,4.82-7.54.72-.38,1.58-.57,2.67-.57,1.43,0,3.49.33,4.44.76,2.2.96,3.34,3.82,5.92,11.22.48,1.34,1.05,3.06,1.43,3.92,1.91.91,6.26,1.53,10.79,1.53,1.29,0,2.24-.05,2.87-.1.43-.91,1.05-2.2,1.58-3.29,3.63-7.74,4.2-8.64,5.11-9.36,1.58-1.19,4.35-2.01,5.92-2.01,2.1,0,3.25,1.38,3.53,2.72.53,2.77-2.2,3.82-3.1,4.15-.24.1-.57.24-.81.33-.33.57-.96,1.81-1.43,2.82-3.92,7.64-5.2,9.74-6.69,10.65-1.81,1-6.21,1.48-9.55,1.48"/></g></g><g class="bp"><g class="cc"><path class="av" d="m29.44,45.02c-.57,0-1.67-.1-3.87-.81-.57-.19-1.1-.38-1.43-.53-.72-.29-2.58-1-2.58-3.2v-3.2h3.15c.43,0,.72.1.96.14.67.1,2.82.24,3.53.29l.43.05c.57,0,2.34-.24,3.1-.33.96-.14,1.24-.19,1.62-.19h2.72l.43,2.67c.19,1.34-.53,3.01-2.29,3.53-.1.05-.43.14-.72.24-1.67.62-3.34,1.19-4.78,1.24-.1.1-.19.1-.29.1"/></g></g><path class="cg" d="m87.47,94.34c-.43-.57-.91-1.1-1.43-1.58l-.33-.33s-.05,0-.1-.05c-.24-.1-.57-.14-.91-.19-1.38-.19-2.87-.24-4.35-.29-3.01-.05-6.02.05-9.03.19-6.02.29-12.08.76-18.05,1.43-3.01.33-6.02.72-8.98,1.19-1.48.24-2.96.48-4.39.81-.72.14-1.43.33-2.1.53-.33.1-.67.19-.96.33-.14.05-.29.1-.33.19,0,0-.05,0-.05.05-.33.48-.67.96-1,1.48s-.57,1.1-.86,1.67c-.53,1.15-1,2.34-1.43,3.53s-.91,2.44-1.34,3.68c-.24.62-.48,1.24-.76,1.86-.1.29-.24.57-.38.86h4.06c2.2-4.92,6.35-10.55,9.79-11.94.96-.38,16.33-2.29,26.5-2.29,3.77,0,6.35.29,7.78.81,4.15,1.62,12.46,9.31,13.32,13.47h2.34c-.48-2.63-1.43-5.2-2.53-7.69-1.24-2.87-2.72-5.49-4.49-7.74"/><path class="bl" d="m85.65,92.34h0Zm8.5,8.55c-1.29-2.87-2.77-5.59-4.73-8.07-.48-.62-1-1.24-1.58-1.81l-.43-.43-.1-.1-.05-.05-.1-.1c-.1-.05-.19-.1-.24-.14-.14-.1-.29-.14-.43-.19-.53-.19-.91-.24-1.34-.33-1.62-.24-3.15-.29-4.68-.33-3.1-.05-6.11,0-9.17.14-6.11.24-12.18.72-18.24,1.34-3.01.33-6.06.67-9.12,1.15-1.53.24-3.01.48-4.54.81-.76.19-1.53.33-2.29.57-.38.1-.76.24-1.19.43-.19.1-.43.19-.67.33-.1.1-.24.14-.38.24s-.29.24-.48.48h0c-.43.53-.86,1.15-1.24,1.72-.38.57-.76,1.19-1.1,1.81-.67,1.19-1.29,2.44-1.86,3.68-.53,1.24-1.05,2.48-1.48,3.77-.24.62-.43,1.24-.57,1.91-.1.33-.19.62-.29.96l-.14.48-.05.24s.1.1.29.24h2.82c.14-.29.24-.57.38-.86.24-.62.53-1.24.76-1.81.48-1.24.91-2.44,1.34-3.68.43-1.19.91-2.44,1.43-3.53.29-.57.57-1.1.86-1.67.33-.53.62-1,1-1.48,0,0,.05,0,.05-.05.1-.05.24-.1.33-.19.29-.1.62-.24.96-.33.67-.19,1.38-.38,2.1-.53,1.43-.33,2.91-.57,4.39-.81,2.96-.48,5.97-.86,8.98-1.19,6.02-.67,12.03-1.15,18.05-1.43,3.01-.14,6.02-.24,9.03-.19,1.48.05,3.01.1,4.35.29.33.05.67.14.91.19.05,0,.1,0,.1.05l.33.33c.53.53.96,1.05,1.43,1.58,1.77,2.24,3.25,4.87,4.49,7.54,1.1,2.48,2.05,5.06,2.53,7.69h2.39c-.24-1.48-.62-2.91-1.05-4.3-.57-1.48-1.15-2.91-1.77-4.35"/><path class="bo" d="m78.49,97.02c-1.24-.48-3.77-.76-7.4-.76-10.22,0-25.31,1.91-26.12,2.24-3.1,1.24-6.97,6.49-9.12,11.08h55.34c-.91-3.58-8.6-10.94-12.7-12.56"/><path class="cy" d="m78.82,96.11c-1.38-.53-4.01-.81-7.78-.81-10.17,0-25.55,1.91-26.5,2.29-3.49,1.43-7.59,7.02-9.79,11.94h1.05c2.15-4.54,6.02-9.79,9.12-11.08.81-.33,15.9-2.24,26.12-2.24,3.63,0,6.16.24,7.4.76,4.11,1.58,11.79,8.98,12.7,12.56h.96c-.81-4.11-9.12-11.79-13.28-13.42"/><path class="cg" d="m97.73,96.54c-.57,1.19-3.58,4.25-6.11,3.53-1.34-.38-1.1,6.69,1.96,9.5h5.54c1.53-2.44,3.92-9.88,4.2-10.65.33-.91-5.01-3.58-5.59-2.39"/><path class="bl" d="m103.61,98.31c-.1-1.53-1-2.63-2.63-3.01-1.29-.29-3.01-.05-3.44.76-.86,1.62-1.91,3.58-7.12,3.87-.33,0-.62.33-.62.67s.33.62.67.62c5.44-.24,7.02-2.34,8.17-4.49.24-.19,1.53-.43,2.58,0,.76.33,1.1.86,1.15,1.67.14,2.96-2.96,8.45-4.63,11.22h1.48c1.86-3.25,4.54-8.26,4.39-11.32"/><g class="cb"><g class="dd"><path class="br" d="m92.88,109.72c3.39-.81,6.4-4.2,6.64-9.03.05-.91-1.81-2.63-1.81-3.1s5.68.1,5.97,1.43c.24,1.34-3.53,9.41-4.82,10.74-1.24,1.29-7.97.43-5.97-.05"/></g></g><path class="ck" d="m95.54,93.24c-.43,2.96,5.35,7.02,9.26,6.92,3.25-.1,6.92-1.62,6.4-3.44-.53-1.86-3.68.33-3.96-.96-.24-1.24,3.68-3.58,2.1-5.3-1.48-1.58-3.2,2.48-4.92,1.91s.33-4.54-1.81-4.78c-2.53-.24-1.58,5.4-3.49,5.49-1.34.14-3.44-.81-3.58.14"/><path class="be" d="m95.54,93.24c-.43,2.96,5.35,7.02,9.26,6.92,3.25-.1,6.92-1.62,6.4-3.44-.53-1.86-3.68.33-3.96-.96-.24-1.24,3.68-3.58,2.1-5.3-1.48-1.58-3.2,2.48-4.92,1.91s.33-4.54-1.81-4.78c-2.53-.24-1.58,5.4-3.49,5.49-1.34.14-3.44-.81-3.58.14Z"/><g class="cd"><g class="az"><path class="ck" d="m97.18,93.22c.62.48,2.87,1.1,3.2.29.38-.81.67-2.44.43-2.67-.19.76-.43,2.2-1.24,2.53-.62.24-1.96-.05-2.39-.14"/></g></g><g class="ba"><g class="az"><path class="ck" d="m103.35,90.06c-.1.53-.53,3.01.76,3.34,1.1.29,1.91-.38,2.77-1.77-.48.43-1.67,1.48-2.58,1.1-.91-.43-1-1.38-.96-2.67"/></g></g><g class="db"><g class="df"><path class="ck" d="m97.82,96.76c6.49-3.2,7.83,2.01,7.5,3.06-2.58.43-7.12-2.24-7.5-3.06"/></g></g><g class="bx"><g class="az"><path class="ck" d="m107.26,94.72c-1.1,1.24-.57,2.24.14,2.39.91.19,2.1-.76,1.91-.76-.24,0-2.01.57-2.34-.29-.24-.67.14-1.05.29-1.34"/></g></g><g class="aw"><g class="dd"><path class="br" d="m33.09,103.02c20.87,11.99,62.27-.19,60.07-4.11-2.91-5.2-4.06-8.45-10.46-8.17-6.35.33-47.23,3.58-48.9,4.82-1.62,1.29-3.44,5.87-.72,7.45"/></g></g><path class="bo" d="m78.58,31.02c9.36-.86,14.85-10.55,20.53-9.07-3.82,2.39-7.59,7.16-12.89,14.99-1.29,1.86-10.22-5.68-7.64-5.92"/><path class="bd" d="m78.58,31.02c9.36-.86,14.85-10.55,20.53-9.07-3.82,2.39-7.59,7.16-12.89,14.99-1.29,1.86-10.22-5.68-7.64-5.92Z"/><path class="cg" d="m20.09,28.92c4.2-3.92,11.79-2.39,17.91-.19,3.49,1.24,8.02.24,8.31.96.76,1.67-3.77,5.11-7.5,5.01-3.68-.05-9.84-6.97-18.72-5.78"/><path class="bh" d="m20.09,28.92c4.2-3.92,11.79-2.39,17.91-.19,3.49,1.24,8.02.24,8.31.96.76,1.67-3.77,5.11-7.5,5.01-3.68-.05-9.84-6.97-18.72-5.78Z"/><path class="ck" d="m84.98,35.65c2.15.62,10.31-15.38,14.28-13.8,12.61,5.01-3.82,24.31-9.03,24.74-5.25.38-6.45-11.32-5.25-10.94"/><path class="be" d="m84.98,35.65c2.15.62,10.31-15.38,14.28-13.8,12.61,5.01-3.82,24.31-9.03,24.74-5.25.38-6.45-11.32-5.25-10.94Z"/><path class="ck" d="m39.43,33.74c-3.49,1.53-15.85-11.41-21.06-3.1-3.44,5.49,6.97,16.57,14.42,17.76,7.45,1.19,8.45-15.47,6.64-14.66"/><path class="be" d="m39.43,33.74c-3.49,1.53-15.85-11.41-21.06-3.1-3.44,5.49,6.97,16.57,14.42,17.76,7.45,1.19,8.45-15.47,6.64-14.66Z"/><g class="cn"><path class="ck" d="m94.71,24.96c-.67,2.2-6.3,7.88-5.54,12.75.29,1.81,2.2,7.16,3.01,6.97s2.87-1.48,2.67-1.19-2.87,2.24-3.87,2.77c-1-.53-5.25-10.41-4.63-10.94,1.86-1.67,7.54-10.27,8.36-10.36"/></g><g class="cf"><path class="ck" d="m18.53,30.98c3.82-2.34,10.79-1.34,14.85,2.63,1.43,1.43,1.86,6.21-1.38,9.45-1.29,1.29,7.64-4.58,7.69-6.3,0-1.72-.57-2.2-1.91-2.67-4.92-1.81-10.08-6.02-14.56-5.92-2.91.05-4.25,2.05-4.68,2.82"/></g><g class="bv"><g class="df"><path class="ck" d="m96.25,23.7c8.69,4.78-5.3,12.03-4.25,21.06-1.81-.19-6.3-8.93-5.2-9.69,1.53-1.05,7.97-11.75,9.45-11.37"/></g></g><path class="cy" d="m29.21,53.04c.14-.62.24-1.29.24-1.91.05-.67.1-1.34.24-1.96.05-.33.14-.67.29-.96s.24-.62.33-.91c.24-.62.48-1.24.76-1.81,1.1-2.44,2.34-4.73,3.87-6.88s3.2-4.15,5.11-5.87c1.91-1.77,4.15-3.2,6.54-4.15,2.39-1,4.97-1.62,7.54-1.91,2.58-.33,5.16-.38,7.74-.33,2.58.05,5.16.19,7.74.53,2.58.33,5.16.91,7.64,1.81,1.24.48,2.44,1,3.58,1.67s2.24,1.48,3.25,2.44c1,.91,1.86,2.01,2.58,3.15s1.24,2.39,1.72,3.68c.43,1.24.76,2.53,1.05,3.82s.48,2.53.76,3.72c.14.57.33,1.15.53,1.72.24.57.48,1.19.67,1.81.43,1.19.91,2.44,1.34,3.63,1.67,4.87,3.15,9.84,4.06,14.9.43,2.53.76,5.11.81,7.69.05,2.58-.19,5.16-.91,7.64-.19.62-.38,1.24-.62,1.81s-.57,1.15-.76,1.77c-.1.33-.19.62-.33.91-.14.29-.33.57-.53.86-.33.53-.76,1.1-1.19,1.58-1.67,2.01-3.82,3.63-6.11,4.87s-4.78,2.2-7.26,2.91c-2.53.72-5.01,1.29-7.59,1.77s-5.11.81-7.64,1.15c-1.29.14-2.58.29-3.87.43l-1.91.19c-.62.05-1.29.1-1.96.14-5.25.29-10.51-.48-15.52-1.86-2.53-.72-4.97-1.58-7.35-2.63s-4.73-2.24-6.92-3.68c-1.1-.72-2.2-1.53-3.2-2.44-.24-.24-.53-.48-.76-.72s-.43-.53-.67-.76c-.43-.53-.86-1.05-1.24-1.58-1.48-2.2-2.67-4.78-3.06-7.45-.43-2.72-.05-5.49.72-8.02.76-2.58,1.96-4.92,3.2-7.21,1.29-2.24,2.67-4.44,4.01-6.59.67-1.1,1.29-2.2,1.86-3.29.53-1.43,1-2.53,1.24-3.68h0Zm1.91.43c-.33,1.34-.91,2.58-1.53,3.77s-1.29,2.29-1.96,3.39c-1.34,2.2-2.72,4.35-3.92,6.54s-2.29,4.49-2.96,6.83c-.67,2.34-.96,4.78-.57,7.16.38,2.34,1.38,4.58,2.82,6.54.33.48.76.96,1.15,1.43.19.24.43.48.62.67.19.24.43.43.62.62.86.81,1.86,1.53,2.91,2.24,2.1,1.34,4.3,2.53,6.64,3.53,2.29,1,4.68,1.86,7.12,2.53,2.44.67,4.87,1.19,7.35,1.53,2.48.33,4.97.43,7.45.33.62-.05,1.24-.1,1.86-.14l1.91-.19c1.24-.1,2.53-.24,3.82-.38,2.53-.24,5.06-.57,7.54-1,2.53-.43,4.97-.91,7.4-1.58s4.82-1.43,7.12-2.44c2.24-1.05,4.44-2.34,6.21-4.11.43-.43.86-.91,1.24-1.38.19-.24.38-.53.57-.76s.43-.48.62-.76c.43-.53.62-1.1.91-1.67.24-.57.43-1.19.57-1.81.62-2.48.76-5.06.62-7.59-.19-2.53-.62-5.06-1.24-7.54-1.19-4.97-2.96-9.74-4.82-14.47-.48-1.19-.96-2.39-1.43-3.53l-.76-1.77c-.24-.62-.48-1.29-.67-1.91-.33-1.29-.57-2.53-.86-3.77-.24-1.24-.57-2.44-.96-3.58-.81-2.34-2.01-4.44-3.77-6.11-1.72-1.67-3.87-2.96-6.16-3.92-2.29-.96-4.78-1.58-7.26-2.01s-5.01-.67-7.54-.81c-2.53-.1-5.11-.14-7.64.14s-5.01.81-7.35,1.81c-2.34.96-4.49,2.34-6.3,4.06-1.86,1.72-3.34,3.82-4.44,6.02-1.15,2.24-1.96,4.63-2.67,7.02-.19.57-.33,1.19-.48,1.81-.1.29-.14.62-.24.91-.05.14-.05.33-.1.48s-.1.29-.19.43c-.24.57-.53,1.15-.81,1.72-.1.53-.29,1.1-.43,1.72h0Z"/><path class="bo" d="m30.16,53.28c-2.01,8.88-19.53,22.92-6.21,37.29,4.54,4.87,19.24,12.37,34,10.98,38.39-3.63,48.09-12.89,31.9-52.62-2.63-6.45.33-21.35-27.89-22.2-11.84-.33-26.07,1.29-31.8,26.55"/><path class="bn" d="m36.8,35.89c1.24-1.91,2.87-3.49,4.68-4.78s3.87-2.24,5.92-3.01c4.2-1.53,8.6-2.1,12.99-2.24,4.39-.1,8.83.24,13.13,1.34,2.15.57,4.25,1.34,6.26,2.44s3.87,2.44,5.44,4.11c1.58,1.67,2.87,3.53,3.87,5.59,1,2.05,1.72,4.2,2.24,6.35.53,2.2.86,4.35,1.15,6.49.14,1.1.29,2.15.53,3.15.1.53.24,1,.38,1.38.05.1.1.19.14.29l.05.05.05.05.1.19.43.72c2.1,3.87,3.68,8.12,4.25,12.56.29,2.2.33,4.44.1,6.69-.24,2.2-.81,4.39-1.67,6.45-.43,1-.91,2.01-1.48,3.01-.14.24-.29.48-.43.72-.14.24-.29.43-.48.72-.05.05-.05.1-.1.14-.14-.1.19.33-.76,0-.24-.43-.1-.33-.14-.43,0-.14.05-.19.05-.29l.14-.43.24-.76c.67-2.05,1.24-4.11,1.48-6.26.1-1.05.14-2.1,0-3.2-.14-1.05-.43-2.05-.96-2.91-.14-.24-.29-.43-.48-.62-.19-.19-.33-.38-.53-.57-.38-.38-.76-.72-1.19-1.05-.86-.67-1.77-1.19-2.72-1.67-1.96-.86-4.11-1.19-6.21-1.1-2.15.1-4.25.53-6.3,1.1-1.05.29-2.05.62-3.1.96-.53.19-1.05.33-1.58.48-.29.1-.53.14-.86.19-.29.05-.53.1-.81.1-2.2.24-4.35.38-6.59.33-2.2-.05-4.39-.29-6.59-.76-2.15-.48-4.3-1.19-6.3-2.1-2.01-.96-3.92-2.1-5.63-3.53-1.72-1.43-3.25-3.06-4.58-4.82-2.67-3.58-4.44-7.74-5.3-12.08-.43-2.2-.62-4.39-.53-6.64.05-1.1.19-2.24.43-3.34.29-.86.67-1.96,1.29-2.96h0Zm.96.62c-.53.86-.86,1.81-1.1,2.87-.24,1-.33,2.05-.43,3.1-.1,2.1.14,4.25.57,6.3.91,4.15,2.67,8.12,5.25,11.46,1.29,1.67,2.77,3.2,4.39,4.54,1.62,1.34,3.44,2.48,5.35,3.39,1.91.91,3.92,1.58,6.02,2.05,2.05.48,4.2.76,6.3.81,2.15.1,4.25,0,6.4-.24l.81-.1c.24-.05.48-.1.76-.14.53-.14,1-.29,1.53-.43,1.05-.29,2.1-.62,3.15-.86,2.1-.53,4.3-.91,6.54-.91s4.44.38,6.45,1.34c1,.48,1.96,1.05,2.82,1.72.43.33.86.72,1.24,1.1l.57.57c.19.19.38.43.53.67.62.96.96,2.05,1.1,3.2s.14,2.24.05,3.34c-.19,2.2-.67,4.35-1.29,6.45l-.24.76-.1.38s-.05.14,0,.14c-.05-.05.1.1-.1-.33-.91-.33-.57.1-.67-.05h0c.1-.19.24-.43.38-.67s.24-.48.38-.72c.48-.96.91-1.91,1.29-2.91,1.43-3.96,1.72-8.31,1-12.46-.33-2.1-.96-4.11-1.72-6.06-.76-1.96-1.67-3.87-2.72-5.73l-.38-.67-.1-.19-.05-.1-.05-.1c-.1-.14-.14-.29-.19-.43-.24-.57-.38-1.19-.53-1.72-.24-1.1-.43-2.2-.57-3.25-.33-2.15-.62-4.25-1.15-6.3-.48-2.05-1.15-4.06-2.05-5.92-.91-1.86-2.01-3.58-3.44-5.11-2.77-3.01-6.59-5.01-10.65-6.21s-8.36-1.58-12.65-1.58-8.55.53-12.56,1.86c-2.01.67-3.92,1.58-5.68,2.77-1.81,1.15-3.34,2.58-4.49,4.35h0Z"/><path class="bl" d="m36.23,35.65c.72-1.15,1.58-2.05,2.44-2.91.91-.86,1.86-1.58,2.87-2.24,2.01-1.34,4.15-2.39,6.4-3.2,4.49-1.58,9.22-2.2,13.9-2.1,4.63.14,9.31.72,13.8,2.34,2.24.81,4.39,1.86,6.35,3.29,1.96,1.38,3.68,3.1,5.11,5.06,1.38,1.96,2.44,4.11,3.25,6.35.76,2.24,1.29,4.54,1.67,6.78.19,1.15.33,2.24.53,3.39.19,1.1.33,2.24.53,3.25.1.53.24,1,.43,1.38l.05.1.05.1.1.19.19.38.43.76c.53,1,1.05,2.05,1.53,3.1.91,2.1,1.67,4.35,2.2,6.64.53,2.24.76,4.58.76,6.92-.05,4.68-1.34,9.31-3.77,13.28h0c-.19.29-.57.43-.86.24s-.38-.53-.29-.76h0c.67-1.72,1.38-3.34,1.91-5.01.57-1.67.96-3.39.96-5.06s-.43-3.29-1.43-4.58c-.05-.1-.14-.19-.19-.24l-.1-.1-.1-.14-.43-.43c-.29-.29-.62-.57-.96-.81-.67-.53-1.43-1-2.15-1.48-3.01-1.86-6.21-3.49-9.45-5.11-3.25-1.58-6.54-3.1-9.79-4.58-6.59-3.01-13.18-6.02-19.67-9.26-3.25-1.67-6.45-3.34-9.6-5.35-1.67-1.19-3.2-2.24-4.68-3.58-.72-.67-1.43-1.43-2.01-2.48-.29-.53-.53-1.15-.57-1.91,0-.38,0-.76.1-1.15.05-.19.1-.38.19-.57.05-.14.19-.43.24-.48h.1Zm2.67,1.62c-.1.14-.05.1-.1.14t-.05.1v.19c0,.14.1.38.19.67.29.57.81,1.19,1.38,1.72,1.19,1.15,2.58,2.2,4.06,3.15,2.91,1.96,6.06,3.68,9.26,5.4,6.35,3.34,12.89,6.45,19.39,9.6,3.25,1.58,6.49,3.2,9.74,4.82,3.25,1.67,6.45,3.34,9.55,5.4.76.53,1.53,1.05,2.24,1.67.38.29.72.62,1.1.96.19.19.33.33.53.57l.1.14.14.14c.1.1.14.19.24.29.57.81,1,1.72,1.29,2.67s.33,1.96.33,2.91c-.05,1.91-.57,3.77-1.19,5.54-.62,1.77-1.38,3.39-2.1,5.06l-1.15-.57h0c2.24-3.82,3.29-8.21,3.25-12.61-.1-4.39-1.24-8.74-3.1-12.75-.48-1-.96-2.01-1.53-2.96l-.86-1.53c-.33-.62-.48-1.24-.62-1.81-.29-1.19-.48-2.29-.67-3.44s-.38-2.24-.57-3.29c-.43-2.2-.96-4.3-1.72-6.35-.76-2.01-1.77-3.96-3.01-5.63-1.24-1.72-2.82-3.2-4.54-4.39-1.77-1.19-3.68-2.15-5.73-2.82-4.11-1.38-8.5-1.86-12.89-1.91-2.2,0-4.35.1-6.49.48-2.15.33-4.25.86-6.26,1.58s-3.96,1.62-5.73,2.77c-.91.57-1.72,1.19-2.48,1.91s-1.48,1.43-2.01,2.2h0Z"/><path class="cg" d="m37.28,36.18c-5.25,8.12,1,39.3,34,35.1,3.49-.43,15.09-6.64,22.92,2.05,4.25,4.78-1.48,16.86,0,14.33,1.67-2.77,8.07-13.47-1.53-29.94-3.06-5.3,2.01-30.75-31.04-31.09-12.65-.05-20.87,4.15-24.35,9.55"/><g class="cl"><g class="dd"><path class="br" d="m36.4,38.15c9.5-6.11,38.25-5.68,47.42,8.98,6.11,9.74-5.06,33.81-9.22,36.86-4.11,3.06-9.84,5.73-24.93,2.1-12.8-3.06,6.45-14.95-8.55-16.67-13.7-1.58-15.09-24.59-4.73-31.28"/></g></g><g class="ci"><g class="df"><path class="br" d="m62.97,61.81c0,.72-1.38,1.34-3.1,1.34s-3.1-.57-3.1-1.34c0-.72,1.38-1.34,3.1-1.34,1.72.05,3.1.62,3.1,1.34"/></g></g><path class="cw" d="m57.48,57.91c.72-.48,4.54-.33,5.01.19.48.48,1.53,2.48.33,3.34-.43.29-.43-.91-1.38-.72-1.15.24-.53,1.72-1.43,1.72-1.38-.05-.05-1.62-1.24-1.81-.91-.19-1.1.72-1.53.62-1.38-.29-.76-2.67.24-3.34"/><g class="bj"><path class="cw" d="m59.54,57.62c-.91,0-1.77.1-2.05.29-1,.67-1.62,3.06-.29,3.29h.05c.33,0,.53-.67,1.24-.67h.24c1.19.19-.1,1.81,1.24,1.81h0c.86,0,.24-1.43,1.43-1.67h.19c.67,0,.76.76,1.05.76.05,0,.1,0,.14-.05,1.24-.86.19-2.87-.33-3.34-.24-.24-1.62-.43-2.91-.43m0,.33h0c1.43,0,2.53.19,2.72.33.29.29.86,1.34.76,2.1-.05.29-.14.53-.33.67,0-.05-.05-.05-.1-.1-.19-.24-.48-.62-1-.62-.1,0-.19,0-.24.05-.81.19-.96.81-1.1,1.24-.1.43-.14.43-.29.43h0c-.38,0-.38-.1-.38-.53s0-1.1-.86-1.24h-.29c-.53,0-.86.33-1.1.53-.05.05-.14.14-.19.14-.19-.05-.38-.14-.48-.53-.14-.67.33-1.81.86-2.2.29-.19.96-.29,2.01-.29"/></g><g class="cm"><g class="df"><path class="ce" d="m89.33,70.44c1.43,9.17-10.03,20.68-25.45,23.06-15.42,2.34-26.79-11.41-28.22-20.63-1.43-9.17,8.02-5.68,23.45-8.02,15.42-2.34,28.79-3.58,30.23,5.59"/></g></g><g class="bi"><g class="az"><path class="bk" d="m49.08,84.4c-.43-.67-.67-1.48-.91-2.24-.24-.76-.48-1.53-.72-2.29-.48-1.53-1-3.06-1.72-4.49s-1.62-2.77-2.77-3.77c-1.15-1-2.53-1.67-4.01-1.96h0c-.53-.19-.76-.72-.57-1.19s.67-.72,1.1-.62c3.44.81,7.02,1.19,10.55,1.24s7.16-.14,10.74-.57,7.12-1.05,10.6-1.86c3.49-.81,6.97-1.77,10.36-2.91.53-.19,1.05.1,1.19.57.14.38,0,.76-.29,1h0c-.1.1-.29.24-.43.38-.14.14-.29.33-.43.48-.29.33-.57.72-.86,1.1-.57.76-1.1,1.53-1.58,2.34-1.05,1.58-2.01,3.2-2.91,4.87-.91,1.67-1.81,3.34-2.63,5.01-.43.86-.81,1.72-1.15,2.58-.19.43-.33.86-.53,1.34-.1.24-.14.43-.19.67v.1s0,.05-.05.1c0,.05-.05.1-.1.1-.05.05-.1.1-.19.14-.1.1-.24.14-.33.19-.91.38-1.86.57-2.77.76-.91.19-1.86.33-2.82.43-1.91.24-3.77.43-5.68.48-1.91.1-3.82.1-5.68-.1-.96-.1-1.91-.24-2.82-.48-.48-.14-.91-.29-1.34-.53-.43-.19-.81-.48-1.1-.86m.05-.05c.24.38.67.67,1.1.86.43.19.86.33,1.34.48.91.24,1.86.38,2.82.43,1.91.14,3.77.14,5.68.05s3.77-.33,5.63-.57c.91-.14,1.86-.29,2.77-.53s1.86-.43,2.67-.81c.1-.05.19-.1.29-.19.1-.05.14-.1.14-.14.05-.24.1-.48.19-.72.14-.48.29-.91.43-1.38.33-.91.67-1.77,1.05-2.67.76-1.77,1.53-3.49,2.34-5.2.81-1.72,1.67-3.44,2.58-5.11.43-.86.91-1.67,1.43-2.53.24-.43.53-.86.81-1.24.14-.19.29-.43.43-.62.19-.19.33-.43.57-.62h0l.91,1.62c-3.49,1.19-6.97,2.15-10.55,2.96s-7.16,1.48-10.79,1.91-7.31.67-10.98.57-7.35-.53-10.98-1.38l.53-1.91h0c1.58.96,3.01,1.86,4.11,3.15,1.1,1.29,1.86,2.77,2.48,4.3.57,1.53,1.05,3.1,1.43,4.63.19.76.43,1.58.62,2.34.29.91.53,1.67.96,2.34"/></g></g><g class="cz"><g class="az"><path class="bk" d="m49.09,84.4c-.43-.67-.67-1.43-.91-2.2s-.43-1.53-.67-2.29c-.48-1.53-.96-3.06-1.67-4.54-.67-1.43-1.58-2.77-2.67-3.82-1.15-1.1-2.53-1.86-4.01-2.2h0v-.05c-.24-.1-.38-.38-.29-.62.1-.24.33-.38.57-.33,3.49.81,7.07,1.19,10.7,1.24s7.21-.14,10.79-.57,7.12-1.1,10.65-1.86c3.53-.81,7.02-1.77,10.41-2.91.24-.1.53.05.62.29.05.19,0,.38-.14.53h0c-.29.24-.62.62-.91.96-.29.33-.57.76-.86,1.1-.53.76-1.05,1.58-1.53,2.39-1,1.58-1.96,3.25-2.87,4.92s-1.77,3.34-2.53,5.06c-.38.86-.76,1.72-1.15,2.58-.19.43-.33.86-.48,1.34-.1.24-.14.43-.19.67-.05.19-.19.24-.29.33-.1.1-.24.14-.33.19-.91.38-1.86.57-2.77.76-.91.19-1.86.33-2.82.48-1.86.24-3.77.43-5.68.53-1.91.1-3.82.1-5.68-.1-.96-.1-1.91-.24-2.82-.48-.48-.14-.91-.29-1.34-.48-.48-.24-.91-.53-1.15-.91m0-.05c.24.38.67.67,1.1.91.43.19.86.33,1.34.48.91.24,1.86.38,2.82.43,1.91.19,3.77.14,5.68.05s3.77-.29,5.68-.57c.91-.14,1.86-.29,2.82-.53.91-.19,1.86-.43,2.67-.81.1-.05.19-.1.29-.19.1-.05.19-.14.19-.19.05-.24.1-.48.19-.72.14-.48.29-.91.48-1.34.33-.91.72-1.77,1.1-2.63.76-1.77,1.58-3.44,2.44-5.16s1.72-3.39,2.67-5.06c.48-.86.96-1.67,1.48-2.44.24-.43.53-.81.81-1.19.29-.38.57-.76,1-1.15h0l.48.86c-3.44,1.19-6.97,2.15-10.51,2.96-3.53.81-7.12,1.43-10.74,1.91-3.63.43-7.26.67-10.94.57-3.63-.1-7.31-.48-10.89-1.29l.24-.91h0c1.58.62,3.01,1.58,4.11,2.82,1.1,1.24,1.91,2.67,2.53,4.15.62,1.48,1.1,3.01,1.53,4.58.19.76.43,1.53.67,2.34.1.67.33,1.43.76,2.1"/></g></g><path class="ca" d="m49.12,84.36c2.44,3.82,22.35,1.19,22.68-.33.86-3.87,8.02-17.53,10.31-19.44-4.11,1.43-25.45,8.26-42.79,4.11,7.78,2.63,7.88,12.7,9.79,15.66"/><g class="ay"><path class="ca" d="m82.05,64.66c-3.2,1.1-16.67,5.44-30.61,5.44-4.11,0-8.21-.38-12.18-1.29,7.83,2.53,7.93,12.65,9.84,15.61.91,1.43,4.39,1.96,8.36,1.96,6.4,0,14.09-1.34,14.33-2.29.86-3.92,7.97-17.57,10.27-19.44m-2.67,1.86c-3.1,4.68-7.59,13.7-8.5,17.1-1.19.67-7.35,1.81-13.42,1.81-4.87,0-7.07-.81-7.54-1.53s-.86-2.05-1.24-3.58c-.81-2.91-1.96-6.92-4.68-9.69,2.39.29,4.87.43,7.5.43,11.36-.05,22.49-2.91,27.89-4.54"/></g><path class="ck" d="m57.29,86.37c-4.11,0-6.78-.57-7.83-1.72-.1-.1-.1-.67.38-1.77,1.15-2.63,4.68-7.12,10.79-7.5.43,0,.81-.05,1.19-.05,7.16,0,11.46,3.63,11.46,4.25-.1.19-.19.48-.33.86-.38.91-.96,2.34-1.48,3.87-.62.62-7.78,2.05-14.18,2.05"/><path class="cw" d="m61.82,75.1c-.43,0-.81,0-1.24.05-8.36.53-12.22,8.79-11.36,9.79,1.24,1.34,4.44,1.81,8.07,1.81,6.45,0,14.23-1.48,14.47-2.2.72-2.15,1.53-3.92,1.86-4.78.29-.86-4.54-4.73-11.79-4.68m0,.62c6.4,0,10.7,3.06,11.13,3.96-.1.19-.19.43-.29.72-.38.91-.96,2.24-1.48,3.77-1,.57-7.69,1.86-13.9,1.86-3.87,0-6.54-.57-7.54-1.58-.05-.33.29-1.67,1.48-3.34,1.05-1.53,4.11-5.11,9.41-5.4.38,0,.81,0,1.19,0h0"/><g class="cq"><path class="ck" d="m49.35,84.42c-.57,2.58,15.23-10.08,23.73-4.01,1.77-2.34-7.64-6.3-13.13-5.4-4.63.81-9.41,3.77-10.6,9.41"/></g><path class="ct" d="m52.56,70.8c.81,1.43,2.29,8.4,2.91,8.55s4.54,1.24,5.06,1c.57-.24.53-1.58,1.1-1.19.48.33.72.96,1.19.72.86-.43,3.39-2.01,3.82-2.67.38-.72.33-4.68,0-7.83-1.62.76-11.22,1.77-14.09,1.43"/><g class="bu"><path class="ax" d="m66.67,69.39c-1.43.62-8.93,1.48-12.7,1.48-.57,0-1,0-1.38-.05.81,1.43,2.29,8.4,2.91,8.55.57.14,3.82,1.05,4.82,1.05.1,0,.19,0,.24-.05.48-.19.53-1.24.91-1.24.05,0,.14,0,.19.1.43.24.62.76,1,.76.05,0,.14,0,.19-.05.86-.43,3.39-2.01,3.82-2.67.43-.72.33-4.68,0-7.88m-.24.43c.29,3.25.29,6.69,0,7.26-.33.57-2.63,2.05-3.68,2.58h-.05c-.1,0-.24-.14-.33-.29-.14-.14-.29-.29-.48-.43-.14-.1-.24-.14-.38-.14-.43,0-.57.43-.72.76-.1.19-.19.48-.33.53h-.14c-.81,0-3.25-.67-4.25-.91-.19-.05-.33-.1-.43-.1-.29-.33-.91-2.58-1.38-4.2-.43-1.48-.81-2.87-1.15-3.68h.91c3.58,0,10.27-.76,12.42-1.38"/></g><g class="dh"><path class="at" d="m53.68,74.17c-.24-2.58,11.65-3.44,13.13-3.2,0-.62-.1-1-.1-1.72-1.96,1-12.65,2.05-14.09,1.62.14.29.67,1.72,1.05,3.29"/></g><g class="bw"><path class="ax" d="m59.61,72.22c.24.57.48,1.1.67,1.67s.38,1.15.57,1.72l.53,1.72.53,1.72-.81.24-.38-1.77-.43-1.77c-.14-.57-.29-1.15-.43-1.72-.19-.57-.33-1.15-.53-1.67l.29-.14Z"/></g><g class="de"><g class="by"><path class="ck" d="m19.41,31.79c6.3,1.62,5.3,12.51,9.03,13.37,3.77.86,8.69-8.98,9.17-11.13-7.26-3.1-10.65-6.73-15.85-5.68-1.72.33-4.11,2.96-2.34,3.44"/></g></g><g class="bc"><g class="az"><path class="br" d="m36.88,63.65c7.93.62,14.47.96,16.81-1.48s3.2-13.23,7.02-12.94c3.25.24,4.35,14.28,6.45,14.66,2.1.43,16.95,4.49,20.68.67,3.68-3.82,5.4-6.21,4.54-8.5s-22.59-9.69-27.03-10.12c-4.44-.43-34.43,3.34-35.19,5.2-.76,1.91-1.58,1.62-1.43,3.63.29,3.87.24,8.26,8.17,8.88"/></g></g><path class="ca" d="m59.1,47.69c.57,0,2.82-.19,3.34.24,2.87,2.24,2.77,11.46,5.78,14.33,2.67,2.58,17.29,4.44,19.82,1.53s6.26-11.79,7.12-12.46c.86-.62,2.77-1.1,3.34-2.01.57-.86.1-4.78-1.24-4.58s-3.87,1-5.44.57c-1.58-.48-9.26-5.3-28.6-2.39-1.86.29-3.72,0-5.01-.33s-8.55-4.54-27.98-1.77c-1.91.29-4.58-.57-5.54-.48s-1.24,3.1-.86,3.87,2.39,1.43,2.63,2.39,2.01,10.31,6.59,14.18c4.87,4.11,17.29,1.24,18.38.48,4.92-3.49,6.02-13.56,7.69-13.56"/><g class="bt"><path class="cx" d="m42.36,39.92c-3.39,0-7.45.24-12.22.96-.29.05-.57.05-.86.05-1.67,0-3.63-.53-4.54-.53h-.14c-.96.1-1.24,3.1-.86,3.87.38.81,2.39,1.43,2.63,2.39s2.01,10.31,6.59,14.18c1.91,1.62,5.06,2.15,8.21,2.15,4.78,0,9.5-1.19,10.17-1.67,4.97-3.53,6.11-13.61,7.78-13.61.24,0,.86-.05,1.43-.05.76,0,1.58.05,1.86.24,2.87,2.24,2.77,11.46,5.78,14.33,1.72,1.62,8.31,3.01,13.47,3.01,2.91,0,5.4-.43,6.3-1.48,2.53-2.91,6.26-11.79,7.12-12.46.86-.67,2.77-1.1,3.34-2.01.53-.86.1-4.58-1.19-4.58h-.1c-1.05.14-2.87.67-4.35.67-.38,0-.76-.05-1.1-.14-1.24-.38-6.06-3.29-17.05-3.29-3.29,0-7.12.24-11.56.91-.53.1-1.1.1-1.58.1-1.29,0-2.48-.19-3.39-.43-.96-.1-5.35-2.58-15.76-2.58m0,.96c8.64,0,13.08,1.72,14.71,2.39.33.14.57.24.81.29.86.19,2.15.48,3.63.48.57,0,1.19-.05,1.72-.14,4.06-.62,7.88-.91,11.41-.91,9.07,0,13.8,2.01,15.85,2.91.43.19.72.29.96.38.43.14.86.19,1.38.19,1.05,0,2.2-.24,3.15-.43.43-.1.86-.19,1.19-.24.43.48.72,2.58.48,3.15-.19.29-1,.67-1.58.91-.57.24-1.1.48-1.48.76-.53.38-1.05,1.38-2.58,4.44-1.48,2.91-3.29,6.54-4.68,8.12-.48.57-2.2,1.15-5.63,1.15-5.01,0-11.41-1.34-12.85-2.72-1.34-1.24-2.01-4.15-2.67-6.97-.76-3.15-1.48-6.11-3.15-7.45-.43-.33-1.1-.48-2.44-.48h-1.48c-1.34,0-1.91,1.58-2.91,4.44-1.1,3.15-2.67,7.4-5.4,9.36-.62.38-5.11,1.53-9.65,1.53-3.49,0-6.11-.67-7.59-1.91-1.81-1.53-4.35-5.11-6.16-13.28-.05-.19-.1-.33-.1-.43-.24-.91-1.1-1.43-1.81-1.91-.29-.19-.76-.53-.86-.67-.19-.43,0-2.01.29-2.53.33,0,.81.1,1.34.19.91.14,2.05.33,3.1.33.33,0,.72,0,1-.1,4.25-.53,8.31-.86,11.99-.86"/></g><g class="bq"><g class="az"><path class="bg" d="m31.74,46.76c-.43.57-.72,9.03,2.87,11.32,2.34,1.53,12.27,1.19,14.28.1,3.1-1.77,6.16-9.79,5.3-10.94-1.43-1.91-11.75-4.44-19.48-2.44-.96.19-2.44,1.24-2.96,1.96Z"/></g></g><path class="av" d="m31.74,46.73c-.43.57-.72,9.03,2.87,11.32,2.34,1.53,12.27,1.19,14.28.1,3.1-1.77,6.16-9.79,5.3-10.94-1.43-1.91-11.75-4.44-19.48-2.44-.96.24-2.44,1.24-2.96,1.96"/><g class="bs"><g class="az"><path class="bg" d="m90.09,50.44c.38.62-.48,9.03-4.3,10.89-2.53,1.19-12.32-.43-14.13-1.77-2.87-2.15-4.87-10.51-3.87-11.56,1.67-1.72,12.22-2.87,19.63.1.91.33,2.24,1.58,2.67,2.34Z"/></g></g><path class="av" d="m90.09,50.46c.38.62-.48,9.03-4.3,10.89-2.53,1.19-12.32-.43-14.13-1.77-2.87-2.15-4.87-10.51-3.87-11.56,1.67-1.72,12.22-2.87,19.63.1.91.33,2.2,1.53,2.67,2.34"/><path d="m43.06,51.89c-.24,1.86-1.19,3.25-2.1,3.1s-1.38-1.72-1.15-3.58,1.19-3.25,2.1-3.1,1.38,1.72,1.15,3.58"/><path d="m81.11,53.99c.19,1.86-.38,3.44-1.24,3.53-.91.1-1.77-1.34-1.96-3.2-.19-1.86.38-3.44,1.24-3.53.86-.05,1.72,1.38,1.96,3.2"/><g class="ar"><g class="cc"><path class="ca" d="m24.71,43.08c1.1.72,2.1.29,2.34,1.72s3.53,13.85,7.64,15.28c6.73,2.34,15.23.05,16.38-.67,1.15-.72,6.54-12.8,7.45-13.28.91-.48,3.77.05,4.39.33,1.86.81,5.3,13.9,6.21,14.56,4.15,2.91,17.48,2.67,18.1,1.91.67-.81,5.63-12.22,6.54-12.89,1.29-1,4.3-1.67,4.39-1.24s-2.44.86-3.2,1.77c-.76.96-5.78,11.89-7.35,12.85s-13.23,2.53-19.15-1.62c-2.82-2.01-3.92-13.9-6.16-14.56-1.43-.43-2.53-.38-3.58-.1-1.38.91-3.34,11.03-7.5,13.56-1.67,1-14.61,3.53-18.48-.53-7.21-7.54-5.01-14.28-7.35-15.23-1.58-.67-1.91-1.53-1.91-2.1.14-.62.67-.14,1.24.24"/></g></g><g class="cu"><g class="cc"><path class="ca" d="m24.84,40.55c-.76-.29,3.25,1.38,4.73,1.29,1.48-.1,3.96-1.15,4.78-1.38.72-.24-3.72.57-4.82.53s-4.25-.29-4.68-.43"/></g></g><g class="cj"><g class="cc"><path class="ca" d="m55.81,42.79c1.38.62,2.01,2.2,3.34,2.34s2.96.38,3.72-.05,2.67-1.43,3.2-1.53c.57-.1-4.15.62-5.92.48-1.77-.19-3.82-1.19-4.35-1.24"/></g></g><g class="da"><g class="cc"><path class="ca" d="m89.7,44.62c-.57-.24,2.1,1.91,2.91,1.81s2.24-1,2.87-1.24c.48-.19-1.91.48-2.63.33-.72-.05-2.58-.67-3.15-.91"/></g></g><g class="cv"><g class="cc"><path class="ca" d="m30.23,45.5c3.53-3.49,11.94-2.29,13.47-2.01-10.08.72-10.27,1.48-12.03,3.25-.24,1.38-.57,5.97,1,9.98-1.77-.96-3.63-10.03-2.44-11.22"/></g></g><g class="au"><g class="cc"><path class="ca" d="m92.03,49.26c-3.06-3.92-11.51-3.87-13.08-3.72,9.88,2.05,9.98,2.82,11.51,4.82.1,1.38-.19,5.97-2.24,9.74,1.81-.76,4.82-9.55,3.82-10.84"/></g></g><g class="bm"><path class="dc" d="m31.84,52.55c.33-4.11.72-7.45,8.88-7.69,6.54-.19,11.75,1.34,12.46,2.91.48,1,.1,5.4-3.15,9.41,2.1-1.86,5.44-9.26,4.01-10.17-5.3-3.39-15.85-3.49-19.77-2.1-.72.24-1.86,1.05-2.63,1.91-.14,1.05-.14,5.16.19,5.73"/></g><g class="cs"><path class="dc" d="m32.07,52.85c1.24,8.02,15.9,5.59,16.76,5.25-.05.43-7.69,2.58-14.09.1-2.58-.96-2.77-6.26-2.67-5.35"/></g><g class="dg"><path class="dc" d="m89.4,56.13c.19-4.15.19-7.45-7.83-8.69-6.45-1-11.79-.14-12.75,1.34-.57.91-.76,5.35,2.01,9.74-1.86-2.15-4.3-9.84-2.72-10.6,5.68-2.72,16.19-1.53,19.86.33.67.33,1.77,1.24,2.39,2.24-.05,1-.53,5.11-.96,5.63"/></g><g class="as"><path class="dc" d="m89.13,56.39c-2.2,7.78-16.47,3.58-17.29,3.15,0,.43,7.31,3.49,13.99,1.86,2.67-.67,3.58-5.92,3.29-5.01"/></g><g class="ch"><g class="df"><path class="av" d="m42.81,49.5c0-.24-.19-.48-.48-.48s-.48.19-.48.48.19.48.48.48.48-.19.48-.48"/></g></g><g class="cp"><g class="df"><path class="av" d="m80.53,51.75c0-.24-.19-.48-.48-.48-.24,0-.48.19-.48.48s.19.48.48.48c.24,0,.48-.24.48-.48"/></g></g><g class="bz"><g class="cr"><path class="dc" d="m24.97,42.57c1.15,1.29,1.86,1.43,3.39,1.24,14.85-1.91,23.06-1.86,27.12,1.91.86.81.38-2.44-1.24-2.87-12.51-3.29-21.58-.33-23.49-.1-1.96.29-3.34-.14-5.78-.19"/></g></g><g class="bb"><g class="cr"><path class="dc" d="m66.04,44.48c-.33.33-.19,3.77,1.43,2.48,4.68-3.72,14.47-2.87,21.3-.57-1.1-2.15-9.07-3.63-13.56-3.58-2.15.1-8.26.72-9.17,1.67"/></g></g><path class="dc" d="m94.29,47.21c0,.14-.76.24-1.67.24s-1.67-.1-1.67-.24.76-.24,1.67-.24c.96,0,1.67.14,1.67.24"/><path class="dc" d="m29.92,43.1c0,.14-.76.14-1.67,0s-1.62-.38-1.58-.53.76-.14,1.67,0c.91.1,1.62.33,1.58.53"/></g></svg>