<?xml version="1.0" encoding="UTF-8"?><svg id="a" xmlns="http://www.w3.org/2000/svg" viewBox="0 0 128 128"><defs><style>.b{fill:#fff;}.c{fill:#4b32c3;}.d{fill:#8080f2;}</style></defs><rect class="c" x="0" y="0" width="128" height="128" rx="25" ry="25" transform="translate(128 0) rotate(90)"/><path class="d" d="m44.45,51.55l18.97-10.95c.47-.27,1.06-.27,1.53,0l18.97,10.95c.47.27.77.78.77,1.33v21.91c0,.55-.29,1.05-.77,1.33l-18.97,10.95c-.47.27-1.06.27-1.53,0l-18.97-10.95c-.47-.27-.77-.78-.77-1.33v-21.91c0-.55.29-1.05.77-1.33"/><path class="b" d="m113.38,62.04l-22.69-39.48c-.82-1.43-2.35-2.48-4-2.48h-45.39c-1.65,0-3.17,1.05-4,2.48L14.62,61.95c-.82,1.43-.82,3.23,0,4.66l22.69,39.16c.82,1.43,2.35,2.16,4,2.16h45.39c1.65,0,3.17-.71,4-2.14l22.69-39.22c.83-1.43.83-3.1,0-4.53h0Zm-18.79,18.98c0,.58-.35,1.12-.85,1.41l-28.91,16.68c-.5.29-1.13.29-1.64,0l-28.93-16.68c-.5-.29-.85-.83-.85-1.41v-33.35c0-.58.35-1.12.85-1.41l28.9-16.68c.5-.29,1.13-.29,1.63,0l28.93,16.68c.5.29.86.83.86,1.41v33.35h0Z"/></svg>