<?xml version="1.0" encoding="UTF-8"?>
<svg id="Ebene_1" data-name="Ebene 1" xmlns="http://www.w3.org/2000/svg" viewBox="0 0 256 256">
  <defs>
    <style>
      .cls-1 {
        fill: #fff;
      }

      .cls-2 {
        fill: #4b32c3;
      }

      .cls-3 {
        fill: #bebefc;
      }
    </style>
  </defs>
  <g id="Ebene_2" data-name="Ebene 2">
    <rect class="cls-2" width="256" height="256" rx="45" ry="45"/>
  </g>
  <g>
    <path class="cls-3" d="m85,100.61l41.74-24.1c1.04-.6,2.33-.6,3.38,0l41.74,24.1c1.04.6,1.69,1.72,1.69,2.92v48.2c0,1.21-.64,2.32-1.69,2.92l-41.74,24.1c-1.04.6-2.33.6-3.38,0l-41.74-24.1c-1.04-.6-1.69-1.72-1.69-2.92v-48.2c0-1.21.64-2.32,1.69-2.92"/>
    <path class="cls-1" d="m236.64,123.68l-49.92-86.85c-1.81-3.14-5.16-5.46-8.79-5.46h-99.85c-3.63,0-6.98,2.32-8.79,5.46L19.36,123.49c-1.81,3.14-1.81,7.11,0,10.25l49.92,86.14c1.81,3.14,5.16,4.75,8.79,4.75h99.85c3.63,0,6.98-1.56,8.79-4.7l49.92-86.28c1.82-3.14,1.82-6.82,0-9.96h.01Zm-41.34,41.77c0,1.28-.77,2.46-1.88,3.1l-63.59,36.69c-1.11.64-2.48.64-3.6,0l-63.64-36.69c-1.11-.64-1.88-1.82-1.88-3.1v-73.38c0-1.28.76-2.46,1.87-3.1l63.59-36.69c1.11-.64,2.48-.64,3.6,0l63.65,36.69c1.11.64,1.89,1.82,1.89,3.1v73.38h-.01Z"/>
  </g>
</svg>