<?xml version="1.0" encoding="UTF-8"?>
<svg id="Ebene_1" data-name="Ebene 1" xmlns="http://www.w3.org/2000/svg" viewBox="0 0 256 256">
  <defs>
    <style>
      .cls-1 {
        fill: #fff;
      }

      .cls-2 {
        fill: #207245;
      }
    </style>
  </defs>
  <g id="Ebene_2" data-name="Ebene 2">
    <path class="cls-2" d="m45,0h166c24.85,0,45,20.15,45,45v166c0,24.85-20.15,45-45,45H45c-24.85,0-45-20.15-45-45V45C0,20.15,20.15,0,45,0Z"/>
  </g>
  <g>
    <path class="cls-1" d="m132.6,30.31h13.5v18.18c22.74,0,45.48.05,68.23-.07,3.84.16,8.07-.11,11.41,2.18,2.34,3.36,2.07,7.63,2.23,11.5-.11,39.44-.07,78.86-.04,118.28-.11,6.61.61,13.36-.77,19.88-.91,4.73-6.59,4.84-10.38,5-23.54.07-47.1-.05-70.66,0v20.45h-14.11c-34.62-6.29-69.32-12.11-103.99-18.18V48.51c34.88-6.07,69.75-12.04,104.6-18.2Z"/>
    <path class="cls-2" d="m146.1,55.3h74.97v143.13h-74.97v-13.63h18.18v-15.9h-18.18v-9.09h18.18v-15.9h-18.18v-9.09h18.18v-15.9h-18.18v-9.09h18.18v-15.9h-18.18v-9.09h18.18v-15.9h-18.18v-13.63Z"/>
    <path class="cls-1" d="m173.36,68.93h31.81v15.9h-31.81v-15.9Z"/>
    <path class="cls-2" d="m95.29,90.22c5.13-.36,10.29-.68,15.45-.93-6.06,12.44-12.17,24.85-18.33,37.24,6.25,12.72,12.63,25.35,18.9,38.08-5.47-.31-10.94-.66-16.4-1.05-3.86-9.47-8.57-18.63-11.34-28.54-3.09,9.22-7.5,17.92-11.04,26.97-4.98-.07-9.95-.27-14.93-.48,5.84-11.43,11.47-22.95,17.49-34.31-5.11-11.7-10.72-23.17-15.99-34.81,5-.3,10-.59,14.99-.86,3.38,8.88,7.09,17.65,9.88,26.76,3-9.65,7.47-18.74,11.31-28.08h0Z"/>
    <path class="cls-1" d="m173.36,93.92h31.81v15.9h-31.81v-15.9Zm0,24.99h31.81v15.9h-31.81v-15.9Zm0,24.99h31.81v15.9h-31.81v-15.9Zm0,24.99h31.81v15.9h-31.81v-15.9Z"/>
  </g>
</svg>