<?xml version="1.0" encoding="UTF-8" standalone="no"?>
<!DOCTYPE svg PUBLIC "-//W3C//DTD SVG 1.1//EN" "http://www.w3.org/Graphics/SVG/1.1/DTD/svg11.dtd">
<!-- Created with Vectornator (http://vectornator.io/) -->
<svg height="100%" stroke-miterlimit="10" style="fill-rule:nonzero;clip-rule:evenodd;stroke-linecap:round;stroke-linejoin:round;" version="1.1" viewBox="0 0 512 512" width="100%" xml:space="preserve" xmlns="http://www.w3.org/2000/svg" xmlns:vectornator="http://vectornator.io" xmlns:xlink="http://www.w3.org/1999/xlink">
<defs/>
<g id="Ebene-1" vectornator:layerName="Ebene 1">
<path d="M2.84217e-14 95C2.84217e-14 42.5329 42.5329 0 95 0L417 0C469.467 0 512 42.5329 512 95L512 417C512 469.467 469.467 512 417 512L95 512C42.5329 512 2.84217e-14 469.467 2.84217e-14 417L2.84217e-14 95Z" fill="#232531" fill-rule="nonzero" opacity="1" stroke="none" vectornator:layerName="Rechteck 1"/>
</g>
<g id="Ebene-2" vectornator:layerName="Ebene 2">
<g opacity="1" vectornator:layerName="microsoft-excel-2013.svg">
<path d="M262.9 109.46L283.143 109.46L283.143 136.723C317.258 136.723 351.37 136.791 385.481 136.62C391.242 136.857 397.581 136.45 402.589 139.891C406.098 144.935 405.692 151.342 405.929 157.135C405.76 216.296 405.828 275.425 405.863 334.551C405.694 344.469 406.782 354.589 404.705 364.372C403.342 371.46 394.822 371.629 389.129 371.869C353.823 371.97 318.485 371.801 283.143 371.869L283.143 402.54L261.979 402.54C210.042 393.099 158.002 384.377 106 375.277L106 136.759C158.313 127.658 210.623 118.697 262.9 109.46Z" fill="#207245" fill-rule="nonzero" opacity="1" stroke="none" vectornator:layerName="path"/>
<path d="M283.143 146.947L395.604 146.947L395.604 361.645L283.143 361.645L283.143 341.198L310.406 341.198L310.406 317.342L283.143 317.342L283.143 303.711L310.406 303.711L310.406 279.855L283.143 279.855L283.143 266.224L310.406 266.224L310.406 242.368L283.143 242.368L283.143 228.737L310.406 228.737L310.406 204.881L283.143 204.881L283.143 191.25L310.406 191.25L310.406 167.394L283.143 167.394L283.143 146.947Z" fill="#ffffff" fill-rule="nonzero" opacity="1" stroke="none" vectornator:layerName="path"/>
<path d="M324.038 167.394L371.749 167.394L371.749 191.25L324.038 191.25L324.038 167.394Z" fill="#207245" fill-rule="nonzero" opacity="1" stroke="none" vectornator:layerName="path"/>
<path d="M206.942 199.325C214.644 198.78 222.382 198.303 230.116 197.929C221.031 216.587 211.864 235.206 202.616 253.783C211.989 272.868 221.561 291.816 230.967 310.9C222.763 310.429 214.562 309.907 206.364 309.332C200.571 295.12 193.515 281.388 189.357 266.529C184.725 280.365 178.111 293.416 172.798 306.982C165.333 306.879 157.868 306.573 150.406 306.265C159.163 289.125 167.615 271.845 176.645 254.806C168.978 237.254 160.559 220.045 152.653 202.597C160.15 202.152 167.648 201.711 175.145 201.302C180.222 214.628 185.775 227.78 189.971 241.447C194.467 226.965 201.182 213.333 206.942 199.325Z" fill="#ffffff" fill-rule="nonzero" opacity="1" stroke="none" vectornator:layerName="path"/>
<path d="M324.038 204.881L371.749 204.881L371.749 228.737L324.038 228.737L324.038 204.881ZM324.038 242.368L371.749 242.368L371.749 266.224L324.038 266.224L324.038 242.368ZM324.038 279.855L371.749 279.855L371.749 303.711L324.038 303.711L324.038 279.855ZM324.038 317.342L371.749 317.342L371.749 341.198L324.038 341.198L324.038 317.342Z" fill="#207245" fill-rule="nonzero" opacity="1" stroke="none" vectornator:layerName="path"/>
</g>
</g>
</svg>
