<?xml version="1.0" encoding="UTF-8"?>
<svg id="Ebene_1" data-name="Ebene 1" xmlns="http://www.w3.org/2000/svg" viewBox="0 0 256 256">
  <defs>
    <style>
      .cls-1 {
        fill: #fff;
      }

      .cls-2 {
        fill: #27282c;
      }
    </style>
  </defs>
  <g id="Ebene_2" data-name="Ebene 2">
    <path class="cls-2" d="m45,0h166c24.85,0,45,20.15,45,45v166c0,24.85-20.15,45-45,45H45c-24.85,0-45-20.15-45-45V45C0,20.15,20.15,0,45,0Z"/>
  </g>
  <path class="cls-1" d="m228,183.01c-7.27,1.85-11.78.08-15.81-5.98l-28.71-39.73-4.15-5.5-33.53,45.36c-3.83,5.46-7.85,7.83-15,5.9l42.94-57.64-39.97-52.06c6.88-1.34,11.63-.66,15.84,5.5l29.78,40.22,30-40c3.84-5.46,7.98-7.53,14.88-5.52l-15.5,20.55-21,27.34c-2.5,3.12-2.16,5.26.14,8.28l40.1,53.27ZM28.05,124.46l3.51-17.27c9.56-34.19,48.75-48.39,75.78-27.27,15.79,12.42,19.72,30,18.94,49.69H37.25c-1.34,35.44,24.17,56.82,56.69,45.91,11.41-3.83,18.12-12.76,21.49-23.94,1.71-5.6,4.53-6.47,9.79-4.88-2.69,13.98-8.75,25.65-21.56,32.96-19.14,10.94-46.47,7.4-60.84-7.8-8.56-8.82-12.1-19.99-13.69-31.94-.25-1.97-.75-3.86-1.13-5.75.03-3.23.05-6.47.05-9.7h0Zm9.36-2.38h80.45c-.52-25.62-16.48-43.83-38.29-43.98-23.94-.19-41.12,17.58-42.16,43.98Z"/>
</svg>