<?xml version="1.0" encoding="UTF-8"?>
<svg id="Ebene_1" data-name="Ebene 1" xmlns="http://www.w3.org/2000/svg" viewBox="0 0 256 256">
  <defs>
    <style>
      .cls-1 {
        fill: #fff;
      }

      .cls-2 {
        fill: #3c6eb4;
      }

      .cls-3 {
        fill: #294172;
      }
    </style>
  </defs>
  <g id="Ebene_2" data-name="Ebene 2">
    <path class="cls-3" d="m45,0h166c24.85,0,45,20.15,45,45v166c0,24.85-20.15,45-45,45H45c-24.85,0-45-20.15-45-45V45C0,20.15,20.15,0,45,0Z"/>
  </g>
  <g>
    <path class="cls-2" d="m167.44,36.9c-28.45,0-51.6,23.15-51.6,51.6v27.39h-27.27c-28.45,0-51.6,23.15-51.6,51.6s23.15,51.6,51.6,51.6,51.6-23.15,51.6-51.6v-27.39h27.27c28.45,0,51.6-23.15,51.6-51.6s-23.15-51.6-51.6-51.6h0Zm-51.41,130.59c0,15.14-12.32,27.46-27.47,27.46s-27.47-12.32-27.47-27.46,12.32-27.47,27.47-27.47h27.27v.08h.19v27.39h0Zm51.41-51.52h-27.27v-.08h-.19v-27.39c0-15.14,12.32-27.47,27.46-27.47s27.47,12.32,27.47,27.47-12.32,27.47-27.47,27.47h0Z"/>
    <path class="cls-1" d="m178.84,38.47c-4-1.05-7.08-1.53-11.4-1.53-28.51,0-51.63,23.12-51.63,51.63v27.36h-21.62c-6.74,0-12.19,5.3-12.19,12.03,0,6.69,5.39,12.01,12.06,12.01h17.9c2.13,0,3.85,1.72,3.85,3.84v23.68c-.03,15.03-12.22,27.21-27.25,27.21-5.09,0-6.35-.67-9.83-.67-7.3,0-12.19,4.89-12.19,11.63,0,5.57,4.77,10.35,10.61,11.88,4,1.05,7.08,1.54,11.4,1.54,28.51,0,51.63-23.12,51.63-51.63v-27.36h21.62c6.74,0,12.19-5.3,12.19-12.03,0-6.69-5.39-12.01-12.06-12.01h-17.9c-2.12,0-3.85-1.72-3.85-3.84v-23.68c.03-15.03,12.22-27.21,27.25-27.21,5.09,0,6.35.67,9.83.67,7.3,0,12.19-4.9,12.19-11.63,0-5.57-4.77-10.36-10.61-11.88"/>
  </g>
</svg>