<?xml version="1.0" encoding="UTF-8" standalone="no"?>
<!DOCTYPE svg PUBLIC "-//W3C//DTD SVG 1.1//EN" "http://www.w3.org/Graphics/SVG/1.1/DTD/svg11.dtd">
<!-- Created with Vectornator (http://vectornator.io/) -->
<svg height="100%" stroke-miterlimit="10" style="fill-rule:nonzero;clip-rule:evenodd;stroke-linecap:round;stroke-linejoin:round;" version="1.1" viewBox="0 0 512 512" width="100%" xml:space="preserve" xmlns="http://www.w3.org/2000/svg" xmlns:vectornator="http://vectornator.io" xmlns:xlink="http://www.w3.org/1999/xlink">
<defs>
<linearGradient gradientTransform="matrix(1 0 0 1 0 0)" gradientUnits="userSpaceOnUse" id="LinearGradient" x1="246.99" x2="254.91" y1="-0.49038" y2="505.165">
<stop offset="0.000578055" stop-color="#8bd5b6"/>
<stop offset="1" stop-color="#4c4fc4"/>
</linearGradient>
</defs>
<g id="Ebene-1" vectornator:layerName="Ebene 1">
<path d="M2.84217e-14 95C2.84217e-14 42.5329 42.5329 0 95 0L417 0C469.467 0 512 42.5329 512 95L512 417C512 469.467 469.467 512 417 512L95 512C42.5329 512 2.84217e-14 469.467 2.84217e-14 417L2.84217e-14 95Z" fill="url(#LinearGradient)" fill-rule="nonzero" opacity="1" stroke="none" vectornator:layerName="Rechteck 1"/>
<g opacity="1" vectornator:layerName="fedora-1.svg">
<path d="M456 256.009C456 145.549 366.455 56.0023 255.997 56.0023C145.587 56.0023 56.0781 145.474 56 255.868L56 410.64C56.0594 435.705 76.3891 455.998 101.47 455.998L256.078 455.998C366.5 455.954 456 366.438 456 256.009" fill="#294172" fill-rule="nonzero" opacity="1" stroke="none" vectornator:layerName="path"/>
<path d="M314.719 103.357C262.986 103.357 220.898 145.443 220.898 197.177L220.898 246.974L171.308 246.974C119.575 246.974 77.4875 289.063 77.4875 340.796C77.4875 392.527 119.575 434.616 171.308 434.616C223.041 434.616 265.128 392.527 265.128 340.796L265.128 290.998L314.719 290.998C366.452 290.998 408.541 248.91 408.541 197.177C408.541 145.443 366.452 103.357 314.719 103.357ZM221.245 340.796C221.245 368.33 198.844 390.732 171.308 390.732C143.772 390.732 121.37 368.33 121.37 340.796C121.37 313.26 143.772 290.859 171.308 290.859L220.898 290.859L220.898 290.998L221.245 290.998L221.245 340.796ZM314.719 247.115L265.128 247.115L265.128 246.974L264.783 246.974L264.783 197.177C264.783 169.641 287.184 147.24 314.719 147.24C342.253 147.24 364.656 169.641 364.656 197.177C364.656 224.713 342.253 247.115 314.719 247.115Z" fill="#3c6eb4" fill-rule="nonzero" opacity="1" stroke="none" vectornator:layerName="path"/>
<path d="M335.455 106.202C328.173 104.299 322.583 103.412 314.719 103.412C262.88 103.412 220.852 145.441 220.852 197.277L220.852 247.03L181.539 247.03C169.281 247.03 159.375 256.663 159.383 268.899C159.383 281.059 169.18 290.732 181.308 290.732L213.856 290.738C217.72 290.738 220.855 293.863 220.855 297.721L220.855 340.773C220.806 368.102 198.637 390.24 171.308 390.24C162.05 390.24 159.758 389.027 153.437 389.027C140.161 389.027 131.278 397.927 131.278 410.165C131.281 420.288 139.956 428.991 150.572 431.77C157.853 433.673 163.444 434.562 171.308 434.562C223.147 434.562 265.175 392.532 265.175 340.695L265.175 290.943L304.487 290.943C316.745 290.943 326.652 281.31 326.644 269.074C326.644 256.913 316.847 247.241 304.719 247.241L272.17 247.235C268.309 247.239 265.176 244.112 265.172 240.251L265.172 197.199C265.22 169.87 287.389 147.732 314.719 147.732C323.977 147.732 326.269 148.946 332.589 148.946C345.866 148.946 354.748 140.045 354.748 127.809C354.745 117.684 346.07 108.98 335.455 106.202" fill="#ffffff" fill-rule="nonzero" opacity="1" stroke="none" vectornator:layerName="path"/>
</g>
</g>
</svg>
