<?xml version="1.0" encoding="UTF-8"?><svg id="a" xmlns="http://www.w3.org/2000/svg" xmlns:xlink="http://www.w3.org/1999/xlink" viewBox="0 0 128 128"><defs><style>.d{fill:#fff;}.e{fill:#a52b00;}.f{fill:url(#b);}</style><linearGradient id="b" x1="0" y1="64" x2="128" y2="64" gradientTransform="translate(0 128) rotate(-90)" gradientUnits="userSpaceOnUse"><stop offset="0" stop-color="#f74c00"/><stop offset=".33" stop-color="#f74c00"/><stop offset="1" stop-color="#f49600"/></linearGradient></defs><rect class="f" x="0" y="0" width="128" height="128" rx="25" ry="25" transform="translate(128 0) rotate(90)"/><g id="c"><path class="e" d="m63.77,59.47c-10.87,0-20.75,1.31-28.07,3.44v18.2c7.31,2.13,17.19,3.44,28.07,3.44,12.45,0,23.59-1.71,31.07-4.41v-16.25c-7.48-2.7-18.63-4.41-31.07-4.41"/><path class="d" d="m106.05,74.25l-1.27-2.64c0-.1.01-.2.01-.3,0-2.99-3.11-5.75-8.35-7.96v15.92c2.44-1.03,4.43-2.18,5.84-3.42-.42,1.68-1.84,5.07-2.98,7.46-1.87,3.41-2.55,6.39-2.46,6.53.06.09.69-.89,1.63-2.49,2.19-3.12,6.34-9.08,7.17-10.59.94-1.72.41-2.51.41-2.51"/><path class="d" d="m23.57,71.48c0,.58.12,1.14.34,1.7l-.76,1.36s-.61.79.47,2.47c.95,1.48,5.71,7.25,8.22,10.28,1.08,1.55,1.81,2.51,1.87,2.41.1-.15-.67-3.06-2.81-6.38-1-1.78-2.19-4.15-2.91-5.89,2,1.27,4.62,2.41,7.73,3.4v-18.69c-7.49,2.38-12.14,5.69-12.14,9.35"/><path class="d" d="m62.4,31.77l-2.49,4.16-1.21.11-3.24-3.59c-.31-.38-.8-.54-1.26-.43-.47.11-.84.48-1.01.9l-1.63,4.63c-.4.1-.8.21-1.12.37l-3.86-2.93c-.36-.24-.91-.33-1.31-.16-.45.24-.76.61-.86,1.09l-.8,4.9c-.33.16-.65.4-1.04.57l-4.25-2.01c-.43-.23-.97-.19-1.35.12-.39.24-.62.73-.64,1.21l.16,4.95c-.25.23-.57.53-.89.76l-4.58-1.09c-.49-.16-.95.02-1.33.39-.31.3-.47.86-.36,1.32l1.1,4.8c-.25.29-.49.59-.73.95l-4.78-.19c-.48-.03-.93.22-1.17.65-.23.43-.32.98-.08,1.43l1.95,4.45c-.24.36-.41.72-.59,1.07l-4.62.81c-.54.05-.92.42-1.08.84-.16.49-.11,1.03.12,1.42l2.79,3.97c-.06.07-.06.14-.05.21l-7.84,8.3s-1.14.92.55,3.15c1.53,1.91,9.4,9.58,13.57,13.63,1.74,2.02,2.94,3.28,3.07,3.2.18-.22-.82-3.94-4.26-8.26-2.65-3.91-6.1-9.94-5.35-10.61,0,0,.92-1.17,2.82-2.01h0q-.07-.06,0,0s39.03,18,75.21.29c4.15-.77,6.65,1.46,6.65,1.46.86.54-1.38,6.72-3.2,10.82-2.52,4.64-2.88,8.27-2.66,8.39.14.06,1.04-1.31,2.34-3.54,3.22-4.43,9.2-12.91,10.31-14.97,1.29-2.36,0-3.06,0-3.06l-8.35-6.14c-.09-.26-.18-.53-.21-.87l2.71-3.98c.31-.37.33-.91.15-1.37s-.54-.77-1.03-.86l-4.69-.81c-.16-.33-.33-.72-.5-1.04l1.92-4.52c.23-.43.19-.97-.12-1.42-.24-.39-.67-.62-1.14-.58l-4.75.14c-.23-.32-.53-.63-.76-.95l1.08-4.78c.09-.48-.02-1.02-.32-1.33-.37-.38-.86-.54-1.33-.43l-4.59,1.15c-.29-.25-.59-.49-.89-.81l.11-4.9c.03-.48-.22-.93-.58-1.24-.43-.3-.91-.33-1.37-.08l-4.24,2c-.36-.17-.72-.41-1.07-.59l-.76-4.83c-.05-.54-.42-.92-.84-1.08-.43-.23-.97-.19-1.35.12l-3.83,2.85c-.35-.11-.7-.21-1.11-.31l-1.63-4.62c-.18-.46-.55-.84-1.03-.93-.48-.09-.94.08-1.32.46l-3.22,3.61c-.34-.04-.76-.14-1.17-.17l-2.47-4.13c-.24-.45-.67-.69-1.15-.72-.48-.03-.93.29-1.16.71Zm-37.63,43.06h0Z"/><path d="m50.59,85.79c-.15-.13-.23-.2-.23-.2l12.78-1.05c-10.43-13.76-18.78-2.8-19.67-1.57v2.82h7.12Z"/><path d="m77.21,85.64c.15-.13.23-.2.23-.2l-12.29-.9c10.43-14.32,18.29-2.95,19.17-1.72v2.82h-7.12Z"/><path class="d" d="m96.84,71.98s-1.39,5.56-10.09,11.41l-2.42.58s-7.88-14.38-19.05,1.82c0,0,3.48-2.01,12.8.46,0,0-4.29,6.57-12.92,6.35,0,0,8.27,9.95,20.87-4.41,0,0,13.33-5.15,14.4-16.2h-3.59Z"/><path d="m70.95,64.85s3.9-4.27,7.8,0c0,0,3.06,5.69,0,8.54,0,0-5.01,3.99-7.8,0,0,0-3.34-3.13,0-8.54"/><path class="d" d="m75.47,66.44c0,1.66-.98,3.01-2.19,3.01s-2.19-1.35-2.19-3.01.98-3.01,2.19-3.01,2.19,1.35,2.19,3.01"/><path d="m53.54,63.69s6.69-2.96,8.52,3.65c0,0,1.91,7.71-5.49,8.14,0,0-9.45-1.82-3.02-11.79"/><path class="d" d="m56.9,66.55c0,1.71-1.01,3.11-2.26,3.11s-2.26-1.39-2.26-3.11,1.01-3.11,2.26-3.11,2.26,1.39,2.26,3.11"/><path class="d" d="m43.5,89.08c12.22,15.67,18.01,3.09,18.01,3.09-6.86-.77-11.73-5.34-11.73-5.34,8.23-1.05,12.99-1.14,12.99-1.14-11.02-14.53-19.96-1.37-19.96-1.37-2.23-.81-4.52-3.92-6.22-6.8l-6.84-2.02c7.87,13.38,13.74,13.57,13.74,13.57Z"/></g></svg>