<?xml version="1.0" encoding="UTF-8"?>
<svg id="Ebene_1" data-name="Ebene 1" xmlns="http://www.w3.org/2000/svg" viewBox="0 0 256 256">
  <defs>
    <style>
      .cls-1 {
        fill: #f24e1e;
      }

      .cls-2 {
        fill: #a259ff;
      }

      .cls-3 {
        fill: #ff7262;
      }

      .cls-4 {
        fill: #1abcfe;
      }

      .cls-5 {
        fill: #27282c;
      }

      .cls-6 {
        fill: none;
      }

      .cls-7 {
        fill: #0acf83;
      }
    </style>
  </defs>
  <g id="Ebene_2" data-name="Ebene 2">
    <path class="cls-5" d="m45,0h166c24.85,0,45,20.15,45,45v166c0,24.85-20.15,45-45,45H45c-24.85,0-45-20.15-45-45V45C0,20.15,20.15,0,45,0Z"/>
  </g>
  <g>
    <path class="cls-6" d="m61.35,28.08h133.31v199.92H61.35V28.08Z"/>
    <path class="cls-4" d="m127.96,128.04c0-18.37,14.9-33.35,33.35-33.35s33.35,14.9,33.35,33.35-14.9,33.35-33.35,33.35-33.35-14.97-33.35-33.35h0Z"/>
    <path class="cls-7" d="m61.35,194.65c0-18.37,14.9-33.35,33.35-33.35h33.35v33.35c0,18.37-14.9,33.35-33.35,33.35s-33.35-14.9-33.35-33.35h0Z"/>
    <path class="cls-3" d="m127.96,28.08v66.62h33.35c18.37,0,33.35-14.9,33.35-33.35s-14.9-33.35-33.35-33.35h-33.35v.08Z"/>
    <path class="cls-1" d="m61.35,61.42c0,18.37,14.9,33.35,33.35,33.35h33.35V28.08h-33.35c-18.45,0-33.35,14.9-33.35,33.35Z"/>
    <path class="cls-2" d="m61.35,128.04c0,18.37,14.9,33.35,33.35,33.35h33.35v-66.69h-33.35c-18.45,0-33.35,14.97-33.35,33.35Z"/>
  </g>
</svg>