<?xml version="1.0" encoding="UTF-8"?>
<svg id="Ebene_1" data-name="Ebene 1" xmlns="http://www.w3.org/2000/svg" xmlns:xlink="http://www.w3.org/1999/xlink" viewBox="0 0 256 256">
  <defs>
    <style>
      .cls-1 {
        fill: url(#Unbenannter_Verlauf_15);
      }

      .cls-2 {
        fill: url(#Unbenannter_Verlauf_4);
      }

      .cls-3 {
        fill: url(#Unbenannter_Verlauf_10);
      }

      .cls-3, .cls-4 {
        opacity: .53;
      }

      .cls-3, .cls-4, .cls-5 {
        isolation: isolate;
      }

      .cls-6 {
        fill: url(#Unbenannter_Verlauf_7);
      }

      .cls-7 {
        fill: url(#Unbenannter_Verlauf_13);
      }

      .cls-8 {
        fill: url(#Unbenannter_Verlauf_14);
      }

      .cls-9 {
        fill: url(#Unbenannter_Verlauf_8);
      }

      .cls-10 {
        fill: #27282c;
      }

      .cls-4 {
        fill: url(#Unbenannter_Verlauf_9);
      }

      .cls-11 {
        fill: url(#Unbenannter_Verlauf_6);
      }

      .cls-12 {
        fill: url(#Unbenannter_Verlauf_5);
      }

      .cls-5 {
        fill: url(#Unbenannter_Verlauf_2);
        opacity: .67;
      }

      .cls-13 {
        fill: url(#Unbenannter_Verlauf_3);
      }

      .cls-14 {
        fill: url(#Unbenannter_Verlauf_11);
      }

      .cls-15 {
        fill: url(#Unbenannter_Verlauf_12);
      }
    </style>
    <radialGradient id="Unbenannter_Verlauf_15" data-name="Unbenannter Verlauf 15" cx="10.37" cy="248.42" fx="10.37" fy="248.42" r="8.07" gradientTransform="translate(-84.76 7051.69) scale(28.11 -28.11)" gradientUnits="userSpaceOnUse">
      <stop offset="0" stop-color="#fff36e"/>
      <stop offset=".5" stop-color="#fc4055"/>
      <stop offset="1" stop-color="#e31587"/>
    </radialGradient>
    <radialGradient id="Unbenannter_Verlauf_2" data-name="Unbenannter Verlauf 2" cx="4.6" cy="248.09" fx="4.6" fy="248.09" r="4.78" gradientTransform="translate(-84.76 7051.69) scale(28.11 -28.11)" gradientUnits="userSpaceOnUse">
      <stop offset="0" stop-color="#c60084"/>
      <stop offset="1" stop-color="#fc4055" stop-opacity="0"/>
    </radialGradient>
    <radialGradient id="Unbenannter_Verlauf_3" data-name="Unbenannter Verlauf 3" cx="11.06" cy="248.88" fx="11.06" fy="248.88" r="9.48" gradientTransform="translate(-84.76 7051.69) scale(28.11 -28.11)" gradientUnits="userSpaceOnUse">
      <stop offset="0" stop-color="#ffde67" stop-opacity=".6"/>
      <stop offset=".09" stop-color="#ffd966" stop-opacity=".58"/>
      <stop offset=".2" stop-color="#ffca65" stop-opacity=".52"/>
      <stop offset=".32" stop-color="#feb262" stop-opacity=".43"/>
      <stop offset=".45" stop-color="#fe8f5e" stop-opacity=".3"/>
      <stop offset=".57" stop-color="#fd6459" stop-opacity=".14"/>
      <stop offset=".66" stop-color="#fc4055" stop-opacity="0"/>
    </radialGradient>
    <radialGradient id="Unbenannter_Verlauf_4" data-name="Unbenannter Verlauf 4" cx="7.77" cy="245.93" fx="7.77" fy="245.93" r="12.23" gradientTransform="translate(-84.76 7051.69) scale(28.11 -28.11)" gradientUnits="userSpaceOnUse">
      <stop offset=".15" stop-color="#810220"/>
      <stop offset=".17" stop-color="#920b27" stop-opacity=".86"/>
      <stop offset=".22" stop-color="#cb2740" stop-opacity=".4"/>
      <stop offset=".25" stop-color="#ef394f" stop-opacity=".11"/>
      <stop offset=".27" stop-color="#fc4055" stop-opacity="0"/>
    </radialGradient>
    <radialGradient id="Unbenannter_Verlauf_5" data-name="Unbenannter Verlauf 5" cx="6.85" cy="246.08" fx="6.85" fy="246.08" r="12.23" gradientTransform="translate(-84.76 7051.69) scale(28.11 -28.11)" gradientUnits="userSpaceOnUse">
      <stop offset=".11" stop-color="#810220"/>
      <stop offset=".13" stop-color="#920b27" stop-opacity=".86"/>
      <stop offset=".2" stop-color="#cb2740" stop-opacity=".4"/>
      <stop offset=".26" stop-color="#ef394f" stop-opacity=".11"/>
      <stop offset=".28" stop-color="#fc4055" stop-opacity="0"/>
    </radialGradient>
    <linearGradient id="Unbenannter_Verlauf_6" data-name="Unbenannter Verlauf 6" x1="8.09" y1="249.18" x2="10.18" y2="245.56" gradientTransform="translate(-84.76 7051.69) scale(28.11 -28.11)" gradientUnits="userSpaceOnUse">
      <stop offset="0" stop-color="#ffbd4f"/>
      <stop offset=".51" stop-color="#ff9640" stop-opacity="0"/>
    </linearGradient>
    <radialGradient id="Unbenannter_Verlauf_7" data-name="Unbenannter Verlauf 7" cx="-1317.73" cy="338.49" fx="-1317.73" fy="338.49" r="7.9" gradientTransform="translate(35721.78 9201.49) scale(26.96 -27.01)" gradientUnits="userSpaceOnUse">
      <stop offset="0" stop-color="#ff9640"/>
      <stop offset=".8" stop-color="#fc4055"/>
    </radialGradient>
    <radialGradient id="Unbenannter_Verlauf_8" data-name="Unbenannter Verlauf 8" cx="-1317.73" cy="338.49" fx="-1317.73" fy="338.49" r="7.9" gradientTransform="translate(35721.78 9201.49) scale(26.96 -27.01)" gradientUnits="userSpaceOnUse">
      <stop offset=".08" stop-color="#ffde67"/>
      <stop offset=".15" stop-color="#ffdc66" stop-opacity=".97"/>
      <stop offset=".25" stop-color="#ffd562" stop-opacity=".88"/>
      <stop offset=".37" stop-color="#ffcb5d" stop-opacity=".73"/>
      <stop offset=".51" stop-color="#ffbc55" stop-opacity=".53"/>
      <stop offset=".67" stop-color="#ffaa4b" stop-opacity=".28"/>
      <stop offset=".82" stop-color="#ff9640" stop-opacity="0"/>
    </radialGradient>
    <radialGradient id="Unbenannter_Verlauf_9" data-name="Unbenannter Verlauf 9" cx="11.54" cy="185.7" fx="11.54" fy="185.7" r="3.72" gradientTransform="translate(-5204.19 1161.76) rotate(75.73) scale(28.16 -29.33) skewX(-.1)" gradientUnits="userSpaceOnUse">
      <stop offset=".36" stop-color="#fc4055"/>
      <stop offset=".44" stop-color="#fd604d" stop-opacity=".63"/>
      <stop offset=".55" stop-color="#fe8644" stop-opacity=".18"/>
      <stop offset=".59" stop-color="#ff9640" stop-opacity="0"/>
    </radialGradient>
    <radialGradient id="Unbenannter_Verlauf_10" data-name="Unbenannter Verlauf 10" cx="7.81" cy="246.13" fx="7.81" fy="246.13" r="3.72" gradientTransform="translate(-84.76 7051.69) scale(28.11 -28.11)" gradientUnits="userSpaceOnUse">
      <stop offset=".22" stop-color="#fc4055" stop-opacity=".8"/>
      <stop offset=".27" stop-color="#fd5251" stop-opacity=".63"/>
      <stop offset=".41" stop-color="#fe8345" stop-opacity=".18"/>
      <stop offset=".47" stop-color="#ff9640" stop-opacity="0"/>
    </radialGradient>
    <radialGradient id="Unbenannter_Verlauf_11" data-name="Unbenannter Verlauf 11" cx="-1316.16" cy="339.38" fx="-1316.16" fy="339.38" r="13.36" gradientTransform="translate(35721.78 9201.49) scale(26.96 -27.01)" gradientUnits="userSpaceOnUse">
      <stop offset=".05" stop-color="#fff36e"/>
      <stop offset=".46" stop-color="#ff9640"/>
      <stop offset=".64" stop-color="#ff9640"/>
    </radialGradient>
    <linearGradient id="Unbenannter_Verlauf_12" data-name="Unbenannter Verlauf 12" x1="9.26" y1="249.25" x2="5.63" y2="242.95" gradientTransform="translate(-84.76 7051.69) scale(28.11 -28.11)" gradientUnits="userSpaceOnUse">
      <stop offset="0" stop-color="#fff36e" stop-opacity=".8"/>
      <stop offset=".09" stop-color="#fff36e" stop-opacity=".7"/>
      <stop offset=".75" stop-color="#fff36e" stop-opacity="0"/>
    </linearGradient>
    <linearGradient id="Unbenannter_Verlauf_13" data-name="Unbenannter Verlauf 13" x1="7.62" y1="249.94" x2="9.55" y2="244.34" gradientTransform="translate(-84.76 7051.69) scale(28.11 -28.11)" gradientUnits="userSpaceOnUse">
      <stop offset="0" stop-color="#b833e1"/>
      <stop offset=".37" stop-color="#9059ff"/>
      <stop offset=".61" stop-color="#5b6df8"/>
      <stop offset="1" stop-color="#0090ed"/>
    </linearGradient>
    <linearGradient id="Unbenannter_Verlauf_14" data-name="Unbenannter Verlauf 14" x1="6.48" y1="249.85" x2="10.07" y2="246.26" gradientTransform="translate(-84.76 7051.69) scale(28.11 -28.11)" gradientUnits="userSpaceOnUse">
      <stop offset=".81" stop-color="#722291" stop-opacity="0"/>
      <stop offset="1" stop-color="#592acb" stop-opacity=".5"/>
    </linearGradient>
  </defs>
  <g id="Ebene_2" data-name="Ebene 2">
    <path class="cls-10" d="m45,0h166c24.85,0,45,20.15,45,45v166c0,24.85-20.15,45-45,45H45c-24.85,0-45-20.15-45-45V45C0,20.15,20.15,0,45,0Z"/>
  </g>
  <g>
    <path class="cls-1" d="m207.85,67.44c-18.03-23.91-45.94-38.34-75.87-39.22-23.21-.46-39.25,6.51-48.32,12.12,12.14-7.04,29.71-11.03,45.09-10.84,39.56.5,82.06,27.45,88.37,76.01,7.25,55.75-31.58,102.28-86.21,102.42-60.1.15-96.65-53.06-87.09-100.85.18-2.34.52-4.67,1.03-6.97,1.18-12.25,4.74-24.15,10.48-35.04-6.92,3.58-15.73,14.91-20.08,25.4-6.33,16.01-8.56,33.34-6.49,50.43.15,1.29.28,2.59.45,3.87,9.46,54.48,61.3,90.98,115.78,81.52,54.48-9.46,90.98-61.3,81.52-115.78-2.72-15.64-9.11-30.41-18.66-43.09Z"/>
    <path class="cls-5" d="m207.85,67.44c-18.03-23.91-45.94-38.34-75.87-39.22-23.21-.46-39.25,6.51-48.32,12.12,12.14-7.04,29.71-11.03,45.09-10.84,39.56.5,82.06,27.45,88.37,76.01,7.25,55.75-31.58,102.28-86.21,102.42-60.1.15-96.65-53.06-87.09-100.85.18-2.34.52-4.67,1.03-6.97,1.18-12.25,4.74-24.15,10.48-35.04-6.92,3.58-15.73,14.91-20.08,25.4-6.33,16.01-8.56,33.34-6.49,50.43.15,1.29.28,2.59.45,3.87,9.46,54.48,61.3,90.98,115.78,81.52,54.48-9.46,90.98-61.3,81.52-115.78-2.72-15.64-9.11-30.41-18.66-43.09Z"/>
    <path class="cls-13" d="m207.85,67.44c-18.03-23.91-45.94-38.34-75.87-39.22-23.21-.46-39.25,6.51-48.32,12.12,12.14-7.04,29.71-11.03,45.09-10.84,39.56.5,82.06,27.45,88.37,76.01,7.25,55.75-31.58,102.28-86.21,102.42-60.1.15-96.65-53.06-87.09-100.85.18-2.34.52-4.67,1.03-6.97,1.18-12.25,4.74-24.15,10.48-35.04-6.92,3.58-15.73,14.91-20.08,25.4-6.33,16.01-8.56,33.34-6.49,50.43.15,1.29.28,2.59.45,3.87,9.46,54.48,61.3,90.98,115.78,81.52,54.48-9.46,90.98-61.3,81.52-115.78-2.72-15.64-9.11-30.41-18.66-43.09Z"/>
    <path class="cls-2" d="m207.85,67.44c-18.03-23.91-45.94-38.34-75.87-39.22-23.21-.46-39.25,6.51-48.32,12.12,12.14-7.04,29.71-11.03,45.09-10.84,39.56.5,82.06,27.45,88.37,76.01,7.25,55.75-31.58,102.28-86.21,102.42-60.1.15-96.65-53.06-87.09-100.85.18-2.34.52-4.67,1.03-6.97,1.18-12.25,4.74-24.15,10.48-35.04-6.92,3.58-15.73,14.91-20.08,25.4-6.33,16.01-8.56,33.34-6.49,50.43.15,1.29.28,2.59.45,3.87,9.46,54.48,61.3,90.98,115.78,81.52,54.48-9.46,90.98-61.3,81.52-115.78-2.72-15.64-9.11-30.41-18.66-43.09Z"/>
    <path class="cls-12" d="m207.85,67.44c-18.03-23.91-45.94-38.34-75.87-39.22-23.21-.46-39.25,6.51-48.32,12.12,12.14-7.04,29.71-11.03,45.09-10.84,39.56.5,82.06,27.45,88.37,76.01,7.25,55.75-31.58,102.28-86.21,102.42-60.1.15-96.65-53.06-87.09-100.85.18-2.34.52-4.67,1.03-6.97,1.18-12.25,4.74-24.15,10.48-35.04-6.92,3.58-15.73,14.91-20.08,25.4-6.33,16.01-8.56,33.34-6.49,50.43.15,1.29.28,2.59.45,3.87,9.46,54.48,61.3,90.98,115.78,81.52,54.48-9.46,90.98-61.3,81.52-115.78-2.72-15.64-9.11-30.41-18.66-43.09Z"/>
    <path class="cls-11" d="m217.12,105.52c.78,6,1.04,12.06.75,18.11,3.32-.5,6.64-.94,9.96-1.32-1.05-19.87-8.01-38.97-19.98-54.87-18.03-23.91-45.94-38.34-75.87-39.22-23.21-.46-39.25,6.51-48.32,12.12,12.14-7.04,29.71-11.03,45.09-10.84,39.56.5,82.06,27.44,88.37,76.01Z"/>
    <path class="cls-6" d="m219.55,102.75c-5.63-50.76-50.89-73.57-90.8-73.24-15.38.12-32.95,3.8-45.09,10.84-3.21,1.9-6.2,4.17-8.9,6.75.32-.27,1.28-1.06,2.88-2.15l.16-.11.14-.09c5.89-3.98,12.38-7,19.22-8.93,10.72-2.96,21.83-4.26,32.95-3.86,42.75,2.55,76.56,37.17,78.1,79.96.92,33.01-26.1,59.33-57.24,60.85-22.65,1.11-43.99-9.85-54.41-31.77-2.44-4.99-4.09-10.33-4.91-15.83-4.94-33.37,17.47-61.82,38.01-68.87-11.08-9.68-38.86-9.03-59.53,6.18-14.89,10.95-24.54,27.62-27.74,47.49-2.3,15.25-.28,30.84,5.85,44.99,12.97,30.6,42.04,51.32,75.2,53.59,2.48.19,4.97.28,7.46.28,66.14,0,94.83-50.2,88.64-106.08h0Z"/>
    <path class="cls-9" d="m219.55,102.75c-5.63-50.76-50.89-73.57-90.8-73.24-15.38.12-32.95,3.8-45.09,10.84-3.21,1.9-6.2,4.17-8.9,6.75.32-.27,1.28-1.06,2.88-2.15l.16-.11.14-.09c5.89-3.98,12.38-7,19.22-8.93,10.72-2.96,21.83-4.26,32.95-3.86,42.75,2.55,76.56,37.17,78.1,79.96.92,33.01-26.1,59.33-57.24,60.85-22.65,1.11-43.99-9.85-54.41-31.77-2.44-4.99-4.09-10.33-4.91-15.83-4.94-33.37,17.47-61.82,38.01-68.87-11.08-9.68-38.86-9.03-59.53,6.18-14.89,10.95-24.54,27.62-27.74,47.49-2.3,15.25-.28,30.84,5.85,44.99,12.97,30.6,42.04,51.32,75.2,53.59,2.48.19,4.97.28,7.46.28,66.14,0,94.83-50.2,88.64-106.08h0Z"/>
    <path class="cls-4" d="m219.55,102.75c-5.63-50.76-50.89-73.57-90.8-73.24-15.38.12-32.95,3.8-45.09,10.84-3.21,1.9-6.2,4.17-8.9,6.75.32-.27,1.28-1.06,2.88-2.15l.16-.11.14-.09c5.89-3.98,12.38-7,19.22-8.93,10.72-2.96,21.83-4.26,32.95-3.86,42.75,2.55,76.56,37.17,78.1,79.96.92,33.01-26.1,59.33-57.24,60.85-22.65,1.11-43.99-9.85-54.41-31.77-2.44-4.99-4.09-10.33-4.91-15.83-4.94-33.37,17.47-61.82,38.01-68.87-11.08-9.68-38.86-9.03-59.53,6.18-14.89,10.95-24.54,27.62-27.74,47.49-2.3,15.25-.28,30.84,5.85,44.99,12.97,30.6,42.04,51.32,75.2,53.59,2.48.19,4.97.28,7.46.28,66.14,0,94.83-50.2,88.64-106.08h0Z"/>
    <path class="cls-3" d="m219.55,102.75c-5.63-50.76-50.89-73.57-90.8-73.24-15.38.12-32.95,3.8-45.09,10.84-3.21,1.9-6.2,4.17-8.9,6.75.32-.27,1.28-1.06,2.88-2.15l.16-.11.14-.09c5.89-3.98,12.38-7,19.22-8.93,10.72-2.96,21.83-4.26,32.95-3.86,42.75,2.55,76.56,37.17,78.1,79.96.92,33.01-26.1,59.33-57.24,60.85-22.65,1.11-43.99-9.85-54.41-31.77-2.44-4.99-4.09-10.33-4.91-15.83-4.94-33.37,17.47-61.82,38.01-68.87-11.08-9.68-38.86-9.03-59.53,6.18-14.89,10.95-24.54,27.62-27.74,47.49-2.3,15.25-.28,30.84,5.85,44.99,12.97,30.6,42.04,51.32,75.2,53.59,2.48.19,4.97.28,7.46.28,66.14,0,94.83-50.2,88.64-106.08h0Z"/>
    <path class="cls-14" d="m150.98,172.76c42.74-2.6,61.03-37.99,62.18-63.1,1.79-39.23-21.48-81.52-83.05-77.72-11.12-.41-22.23.9-32.95,3.86-6.81,2.01-13.29,5.02-19.22,8.93l-.14.09-.16.11c-.96.67-1.89,1.37-2.81,2.1,15.94-8.91,34.35-12.37,52.43-9.84,35.35,4.64,67.66,32.13,67.66,68.41,0,27.91-21.57,49.24-46.83,47.7-37.53-2.25-46.99-40.74-27.47-57.37-5.26-1.13-15.16,1.09-22.04,11.38-6.18,9.25-5.83,23.52-2.02,33.64,9.74,20.9,31.42,33.57,54.41,31.77h0Z"/>
    <path class="cls-15" d="m207.85,67.44c-2.68-3.51-5.59-6.83-8.7-9.95-2.48-2.62-5.13-5.06-7.94-7.31,1.62,1.41,3.16,2.9,4.62,4.47,5.47,5.84,9.63,12.78,12.2,20.35,5.22,15.82,4.88,35.62-5.09,51.16-11.27,17.73-31.13,28.11-52.12,27.23-.9,0-1.81,0-2.73-.07-37.53-2.25-46.99-40.74-27.46-57.37-5.27-1.13-15.16,1.09-22.05,11.38-6.18,9.25-5.83,23.52-2.02,33.64-2.44-4.99-4.09-10.33-4.91-15.83-4.94-33.37,17.47-61.82,38.01-68.87-11.08-9.68-38.86-9.03-59.53,6.18-12.16,9.09-21.01,21.9-25.21,36.49,1.34-11.84,4.86-23.32,10.39-33.87-6.92,3.58-15.73,14.91-20.08,25.4-6.33,16.01-8.56,33.34-6.49,50.43.15,1.29.28,2.59.45,3.87,9.46,54.48,61.3,90.98,115.78,81.52,54.48-9.46,90.98-61.3,81.52-115.78-2.72-15.64-9.11-30.41-18.66-43.09Z"/>
    <path class="cls-7" d="m208.03,75c-2.57-7.58-6.73-14.52-12.2-20.35-6.5-6.78-14.21-12.28-22.73-16.23-7.11-3.51-14.61-6.16-22.34-7.92-13.63-2.98-27.74-3.07-41.4-.25-14.2,3-26.69,9.15-34.59,16.83,6.3-3.56,13.05-6.25,20.07-8,27.72-6.97,57.09.66,77.91,20.24,4.15,3.94,7.79,8.39,10.82,13.25,12.23,19.89,11.08,44.9,1.54,59.65-7.09,10.96-22.26,21.24-36.42,21.12,21.71,1.64,42.57-8.8,54.26-27.17,9.97-15.56,10.31-35.35,5.09-51.17h0Z"/>
    <path class="cls-8" d="m208.03,75c-2.57-7.58-6.73-14.52-12.2-20.35-6.5-6.78-14.21-12.28-22.73-16.23-7.11-3.51-14.61-6.16-22.34-7.92-13.63-2.98-27.74-3.07-41.4-.25-14.2,3-26.69,9.15-34.59,16.83,6.3-3.56,13.05-6.25,20.07-8,27.72-6.97,57.09.66,77.91,20.24,4.15,3.94,7.79,8.39,10.82,13.25,12.23,19.89,11.08,44.9,1.54,59.65-7.09,10.96-22.26,21.24-36.42,21.12,21.71,1.64,42.57-8.8,54.26-27.17,9.97-15.56,10.31-35.35,5.09-51.17h0Z"/>
  </g>
</svg>