<?xml version="1.0" encoding="UTF-8"?>
<svg id="Ebene_1" data-name="Ebene 1" xmlns="http://www.w3.org/2000/svg" viewBox="0 0 256 256">
  <defs>
    <style>
      .cls-1 {
        fill: #f57f17;
      }

      .cls-2 {
        fill: #27282c;
      }

      .cls-3 {
        fill: #ffa000;
      }

      .cls-4 {
        fill: #ffca28;
      }
    </style>
  </defs>
  <g id="Ebene_2" data-name="Ebene 2">
    <path class="cls-2" d="m45,0h166c24.85,0,45,20.15,45,45v166c0,24.85-20.15,45-45,45H45c-24.85,0-45-20.15-45-45V45C0,20.15,20.15,0,45,0Z"/>
  </g>
  <g>
    <path class="cls-3" d="m152.88,97.46l-22,20.49-20.42-41.21,10.55-23.7c2.67-4.73,7.03-4.79,9.69,0l22.18,44.43Z"/>
    <path class="cls-1" d="m130.88,117.94l-82.3,76.55,61.88-117.76,20.42,41.21Z"/>
    <path class="cls-4" d="m177,66.13c3.94-3.75,8-2.49,9.03,2.85l21.4,124.48-70.97,42.61c-2.49,1.39-9.09,1.94-9.09,1.94,0,0-6-.73-8.3-2l-70.49-41.51L177,66.13Z"/>
    <path class="cls-3" d="m110.46,76.74l-61.88,117.76L76.15,22.37c1.03-5.33,4.06-5.88,6.79-1.15l27.52,55.51Z"/>
  </g>
</svg>