<?xml version="1.0" encoding="UTF-8" standalone="no"?>
<!DOCTYPE svg PUBLIC "-//W3C//DTD SVG 1.1//EN" "http://www.w3.org/Graphics/SVG/1.1/DTD/svg11.dtd">
<!-- Created with Vectornator (http://vectornator.io/) -->
<svg height="100%" stroke-miterlimit="10" style="fill-rule:nonzero;clip-rule:evenodd;stroke-linecap:round;stroke-linejoin:round;" version="1.1" viewBox="0 0 512 512" width="100%" xml:space="preserve" xmlns="http://www.w3.org/2000/svg" xmlns:vectornator="http://vectornator.io" xmlns:xlink="http://www.w3.org/1999/xlink">
<defs/>
<g id="Ebene-1" vectornator:layerName="Ebene 1">
<path d="M2.84217e-14 95C2.84217e-14 42.5329 42.5329 0 95 0L417 0C469.467 0 512 42.5329 512 95L512 417C512 469.467 469.467 512 417 512L95 512C42.5329 512 2.84217e-14 469.467 2.84217e-14 417L2.84217e-14 95Z" fill="#232531" fill-rule="nonzero" opacity="1" stroke="none" vectornator:layerName="Rechteck 1"/>
</g>
<g id="Ebene-2" vectornator:layerName="Ebene 2">
<path d="M193.354 303.366C181.494 294.036 168.839 285.095 160.194 272.496C141.994 250.279 127.986 224.562 118.409 197.532C112.618 179.955 110.636 161.111 103.167 144.215C95.3643 131.94 104.511 118.531 117.955 114.631C123.936 113.478 134.46 107.831 121.756 111.872C110.366 120.224 109.268 104.282 120.946 103.272C128.916 102.215 131.851 95.6935 129.122 89.8229C120.563 84.2394 149.869 78.1133 135.122 69.7843C119.77 53.2162 156.604 50.0267 147.515 68.8464C145.342 83.3161 173.262 66.1884 166.778 82.9013C173.366 90.9286 191.438 84.732 190.985 95.9866C200.578 96.6459 203.87 104.712 212.866 105.333C222.205 109.549 239.117 112.865 242.29 123.381C233.032 130.708 211.602 108.245 210.567 128.529C213.367 158.5 212.653 189.372 223.615 217.911C228.799 235.19 241.375 248.791 252.726 262.251C263.592 275.43 278.307 284.714 293.31 292.525C306.466 298.729 320.65 302.84 334.992 305.427C340.806 300.979 351.074 284.443 360.142 291.411C360.58 299.255 342.143 307.797 359.277 306.93C369.347 303.891 376.323 314.708 384.611 304.948C392.248 313.994 416.348 299.174 410.916 317.66C403.567 322.402 392.852 319.537 385.495 326.061C373.365 320 363.706 331.478 350.271 330.03C335.358 332.702 320.179 333.777 305.06 333.799C280.249 331.842 254.915 331.016 231.314 322.377C218.014 318.513 205.041 310.939 193.354 303.366ZM214.306 312.45C227.288 318.058 239.984 323.976 254.214 325.766C276.789 328.9 300.103 333.736 322.757 329.33C312.504 324.701 301.901 331.128 291.687 326.021C279.438 328.653 266.29 325.345 253.831 323.713C239.672 317.407 224.386 313.072 211.125 304.877C194.548 298.825 219.693 312.641 224.171 313.764C234.527 319.64 212.779 310.747 209.707 308.306C201.031 303.438 199.927 304.456 208.851 309.396C210.647 310.447 212.422 311.553 214.306 312.45ZM189.6 294.991C202.184 299.652 189.544 286.145 183.786 286.926C181.231 282.494 174.026 279.694 179.108 277.316C169.969 280.491 169.531 265.248 165.237 267.429C155.564 264.375 161.474 253.556 149.948 246.908C148.897 239.906 138.501 233.837 135.192 223.281C133.729 217.873 123.444 202.354 129.759 216.797C135.136 230.701 144.594 242.619 152.469 254.511C158.578 265.836 165.802 277.682 176.93 284.746C180.685 288.349 184.303 293.861 189.599 294.991L189.6 294.991ZM153.361 255.194C153.796 253.293 155.66 259.306 153.361 255.194ZM204.675 300.574C207.458 299.326 200.665 299 204.675 300.574ZM211.499 303.065C210.792 299.628 208.381 304.99 211.499 303.065ZM220.05 306.63C224.115 302.753 213.774 304.185 220.05 306.63ZM234.703 314.796C237.176 311.145 226.787 313.421 234.703 314.796ZM206.569 295.183C212.882 291.093 198.399 295.126 206.569 295.183ZM212.979 298.38C212.796 296.223 210.696 299.349 212.979 298.38ZM245.027 318.384C250.181 321.638 275.119 325.511 259.505 319.72C256.886 320.27 230.55 312.267 245.027 318.384ZM194.151 278.756C193.65 276.594 186.147 276.362 194.151 278.756ZM209.065 287.46C212.954 284.747 201.007 285.367 209.065 287.46ZM221.616 295.151C227.192 293.052 212.581 293.043 221.616 295.151ZM188.074 272.146C194.119 276.782 212.463 272.742 197.332 269.378C190.452 265.711 174.941 263.199 185.514 271.59L188.074 272.146ZM230.121 297.807C232.642 293.519 219.557 295.356 230.121 297.807ZM217.345 287.655C232.125 291.833 204.913 278.301 213.696 286.113L215.646 286.996L217.345 287.655ZM242.961 302.46C256.96 302.593 230.312 300.528 242.961 302.46ZM182.69 264.047C182.14 261.438 179.237 264.263 182.69 264.047ZM266.641 315.743C267.014 311.036 262.074 319.252 266.641 315.743ZM206.584 278.676C205.733 276.194 202.21 278.572 206.584 278.676ZM184.017 262.409C192.053 261.925 173.008 258.869 184.017 262.409ZM157.282 245.131C156.28 241.275 148.54 238.204 157.282 245.131ZM227.465 289.67C225.993 287.99 226.771 290.035 227.465 289.67ZM271.141 316.477C271.008 313.906 268.763 317.445 271.141 316.477ZM223.599 285.676C224.387 282.368 216.743 284.673 223.599 285.676ZM191.056 265.05C197.039 264.413 181.471 261.009 191.056 265.05ZM246.103 299.255C255.425 295.564 237.019 297.456 246.103 299.255ZM217.474 279.823C228.212 281.205 204.692 272.512 215.112 279.042L217.474 279.823ZM254.795 302.77C264.827 296.781 261.518 316.81 271.812 304.464C281.96 297.051 263.045 313.628 275.55 305.785C284.601 299.731 297.964 308.656 306.405 311.56C312.473 311.266 318.376 316.81 324.603 313.436C336.583 310.206 301.171 308.649 310.452 302.928C299.492 306.12 291.395 299.127 286.002 292.103C273.703 289.262 259.489 282.979 253.348 272.09C250.842 268.01 256.961 272.671 251.186 265.989C243.78 259.402 240.082 251.916 235.109 243.907C229.167 240.741 228.467 231.41 227.87 243.598C227.918 235.905 220.695 230.727 218.929 232.875C218.897 225.468 226.662 229.183 221.228 223.703C220.06 216.026 216.209 208.025 215.054 199.354C213.259 195.178 214.799 186.23 208.915 195.687C206.774 205.686 208.207 183.406 211.54 190.748C215.915 183.255 209.964 184.137 209.725 185.172C212.574 178.849 211.532 169.875 208.978 173.296C210.498 166.589 211.381 148.621 206.712 151.811C209.543 144.795 212.081 119.721 199.782 129.285C194.803 129.355 186.174 131.091 182.101 133.119C194.883 140.167 180.811 135.664 175.601 134.542C174.925 141.065 169.771 138.249 163.327 138.312C173.621 139.584 158.316 148.834 152.423 145.241C144.755 148.9 159.033 158.047 152.574 160.878C153.371 165.135 140.833 159.337 141.812 169.184C134.373 166.048 140.794 180.861 144.516 175.85C157.172 179.278 153.425 187.082 153.743 194.502C151.682 198.82 143.561 184.345 151.937 185.014C145.326 174.281 144.628 181.131 139.138 186.118C137.866 186.477 153.138 193.213 143.554 196.538C151.985 197.844 152.232 205.225 153.951 209.895C159.017 215.174 157.974 204.062 164.045 210.412C160.201 204.756 143.712 194.477 156.99 197.773C156.917 192.085 154.586 187.494 158.659 187.605C162.692 180.311 154.435 205.599 163.52 196.324C166.032 195.227 166.662 189.022 171.18 196.913C177.741 203.372 173.55 208.047 164.291 202.13C165.945 207.754 176.675 209.758 174.655 218.549C176.793 226.281 179.786 223.432 182.394 222.986C184.438 230.496 185.602 224.975 185.697 221.395C195.058 223.403 192.863 228.937 195.797 232.803C202.248 235.713 186.563 213.068 197.636 225.994C209.287 236.517 202.01 240.907 191.551 239.222C198.169 238.687 200.299 248.172 208.582 247.837C216.13 251.432 221.245 265.225 208.231 259.481C203.721 255.409 187.739 250.389 200.794 258.13C212.837 263.713 222.414 267.046 234.035 274.056C242.348 279.989 245.941 286.788 249.092 288.135C242.101 291.474 228.03 285.469 238.481 283.633C231.958 282.447 224.626 279.146 230.868 287.267C236.182 291.706 249.681 291.235 252.108 291.737C250.055 296.256 246.533 296.615 252.187 296.964C245.878 300.328 254.216 300.854 254.796 302.77L254.795 302.77ZM241.893 266.331C238.051 262.314 237.058 254.798 241.209 261.334C243.342 262.194 248.028 273.626 241.893 266.331ZM283.918 293.026C286.312 292.868 283.988 294.846 283.918 293.026ZM235.834 256.484C235.681 250.414 237.216 261.167 235.834 256.484ZM231.657 250.868C226.821 241.537 237.741 253.508 231.657 250.868ZM181.034 215.932C183.874 215.174 182.434 220.782 181.034 215.932ZM221.324 237.766C223.066 231.219 223.369 243.256 221.324 237.766ZM192.863 217.975C190.859 214.364 197.056 221.365 192.863 217.975ZM217.283 225.803C212.709 215.558 220.529 220.202 218.301 227.481L217.283 225.803ZM175.165 197.715C173.121 194.351 169.739 184.487 170.829 181.474C171.807 186.381 181.258 202.584 175.458 188.187C169.056 176.12 183.119 192.1 184.567 195.115C185.243 198.106 180.613 194.296 183.747 201.319C178.028 193.325 180.373 205.735 175.165 197.715ZM162.151 188.743C162.684 180.924 165.127 194.104 162.151 188.743ZM168.006 190.763C170.798 184.863 172.738 198.988 168.006 190.763ZM153.918 179.867C149.073 175.045 145.565 170.607 154.148 176.874C157.449 177.002 146.799 166.782 154.945 173.629C163.503 175.19 159.167 187.67 153.918 179.867ZM161.315 179.676C164.133 176.884 162.812 182.42 161.315 179.676ZM165.873 181.131C161.601 173.136 171.052 184.488 165.873 181.131ZM156.822 172.486C142.735 159.939 174.52 179.039 159.121 174.807L156.822 172.486ZM197.19 195.934C191.089 192.282 195.567 170.202 197.652 185.3C203.579 183.381 197.324 193.103 201.739 193.007C201.048 199.138 199.068 201.345 197.19 195.934ZM212.12 204.763C212.716 198.106 213.377 209.315 212.12 204.763ZM209.528 202.194C210.196 199.354 209.591 205.543 209.528 202.194ZM159.581 168.364C150.53 155.875 185.886 180.995 165.381 171.531C163.24 170.966 160.656 170.767 159.581 168.364ZM188.336 183.606C187.479 173.09 190.246 185.346 188.336 183.606ZM210.163 197.611C211.849 191.623 210.292 201.575 210.163 197.611ZM160.974 163.599C166.351 162.446 183.261 173.041 167.735 166.622C166.01 164.712 162.326 165.58 160.974 163.598L160.974 163.599ZM207.163 186.619C207.739 175.866 210.38 180.2 207.188 188.163L207.163 186.618L207.163 186.619ZM164.974 159.854C167.169 156.639 159.15 145.321 166.126 155.796C169.143 158.19 174.852 159.805 169.81 160.815C177.74 167.808 167.878 162.709 164.974 159.854ZM204.88 183.263C206.393 171.014 206.218 190.438 204.88 183.263ZM160.392 148.542C162.071 147.824 161.283 150.776 160.392 148.542ZM170.805 154.739C173.484 149.114 175.744 161.006 170.805 154.739ZM200.164 171.068C200.14 168.913 200.72 174.21 200.164 171.068ZM198.461 167.307C194.388 157.252 202.256 172.628 198.461 167.307ZM195.962 160.712C195.281 156.559 198.286 165.93 195.962 160.712ZM200.035 154.094C197.236 149.169 203.569 132.378 204.277 142.791C201.324 150.904 203.425 155.439 205.476 144.557C209.28 135.998 204.657 161.461 200.035 154.094ZM204.22 129.125C205.438 127.629 204.491 130.929 204.22 129.125ZM197.23 266.84C195.574 265.392 197.443 267.756 197.23 266.84ZM211.627 274.119C219.636 276.179 219.597 272.877 212.356 271.89C208.467 268.272 196.178 264.43 207.179 271.445C207.904 273.292 210.203 273.243 211.627 274.119ZM183.198 255.233C187.604 258.529 199.814 264.556 189.481 256.492C192.965 252.442 182.815 250.287 186.181 247.576C177.613 242.332 179.417 242.801 185.425 242.969C175.132 238.362 186.912 238.713 186.356 236.352C182.387 235.571 166.636 229.35 175.903 236.86C166.485 232.062 173.659 238.649 170.812 237.957C161.178 235.332 179.388 245.293 169.284 242.818C174.806 247.193 184.152 254.034 171.615 247.447C169.969 249.825 180.589 253.429 183.197 255.233L183.198 255.233ZM198.254 263.888C216.558 269.783 189.273 256.674 198.254 263.888ZM275.333 310.581C275.572 306.946 272.835 313.683 275.333 310.581ZM283.256 313.914C287.48 309.826 283.431 320.436 290.255 312.913C290.326 307.526 290.049 304.346 282.413 310.891C280.304 312.061 279.367 317.016 283.256 313.915L283.256 313.914ZM157.497 234.937C156.199 229.838 148.404 229.859 157.497 234.937ZM165.951 240.479C162.809 235.27 154.743 235.763 165.951 240.479ZM214.084 269.505C218.787 273.682 235.665 272.568 219.789 270.023C217.441 266.546 204.866 267.382 214.084 269.505ZM280.24 310.369C287.471 304.299 273.234 313.073 280.24 310.369ZM295.283 320.7C295.329 318.752 292.165 321.552 295.283 320.7ZM295.307 317.972C303.316 309.493 287.551 318.473 295.307 317.972ZM136.687 217.515C129.863 207.778 132.448 203.403 125.862 195.448C124.611 189.364 114.567 175.57 120.668 190.182C126.251 198.734 127.906 211.969 136.688 217.515L136.687 217.515ZM292.793 315.275C307.534 305.753 286.748 311.13 292.793 315.275ZM304.041 319.681C311.423 313.348 299.372 318.36 304.041 319.681ZM154.99 224.171C157.099 221.029 149.534 223.766 154.99 224.171ZM301.694 316.674C308.837 312.07 300.048 312.776 300.398 317.095L301.694 316.674ZM204.745 255.568C204.499 252.45 200.968 255.831 204.745 255.568ZM210.735 259.013C208.826 255.163 207.808 259.617 210.735 259.013ZM313.156 319.786C322.311 313.181 307.613 318.519 311.239 321.042L313.156 319.786ZM309.649 318.091C317.11 311.846 301.781 320.858 309.649 318.091ZM327.56 330.013C332.566 326.665 321.477 328.932 327.56 330.013ZM159.581 221.905C166.286 223.407 186.394 238.426 174.535 222.948C168.458 221.15 172.102 206.298 165.905 208.923C170.065 215.875 169.323 218.825 160.589 214.452C149.622 209.09 154.425 217.101 156.575 219.313C153.646 219.981 160.44 221.85 159.579 221.904L159.581 221.905ZM129.011 197.765C130.212 192.792 117.946 170.432 123.221 186.556C125.121 189.937 124.924 196.339 129.011 197.765ZM185.121 232.357C181.662 229.47 184.955 231.943 185.121 232.357ZM193.624 234.34C193.624 229.072 184.224 232.199 193.624 234.34ZM267.363 280.817C265.956 277.219 261.804 280.736 267.363 280.817ZM270.903 283.4C270.376 281.388 268.857 283.791 270.903 283.4ZM300.127 301.815C302.936 299.74 296.619 301.546 300.127 301.815ZM144.277 201.662C152.317 198.55 135.66 199.442 144.277 201.662ZM260.871 275.111C260.777 269.91 255.741 276.409 260.871 275.111ZM141.102 194.255C146.264 192.516 136.321 193.112 141.102 194.255ZM156.088 201.517C155.999 199.808 154.506 202.171 156.088 201.517ZM338.921 313.635C345.563 312.291 360.7 317.017 363.142 311.879C355.076 311.679 335.246 306.182 334.307 313.181L336.073 313.461L338.922 313.635L338.921 313.635ZM160.852 202.719C160.974 197.445 156.74 202.521 160.852 202.719ZM121.449 175.379C119.659 165.332 114.639 173.859 121.449 175.379ZM130.842 177.742C130.962 174.512 122.242 174.838 130.842 177.742ZM136.211 180.383C134.661 179.125 135.002 181.964 136.211 180.383ZM170.009 202.059C171.602 200.594 166.24 200.977 170.009 202.059ZM132.64 174.433C131.726 166.845 121.75 173.296 132.64 174.433ZM113.365 161.928C113.094 158.428 111.487 163.248 113.365 161.928ZM116.236 159.766C115.768 155.612 113.77 160.289 116.236 159.766ZM132.068 169.215C138.766 166.589 119.872 163.773 130.7 168.722L132.068 169.215ZM344.006 300.129C348.292 296.2 338.564 298.912 344.006 300.129ZM369.611 313.397C371.329 308.323 365.282 314.066 369.611 313.397ZM133.686 160.918C134.395 156.004 128.374 161.896 133.686 160.918ZM111.154 145.822C109.945 138.886 110.111 126.707 121.686 130.82C106.237 133.89 132.385 150.027 129.083 137.285C135.581 137.605 141.795 133.445 138.382 139.751C151.188 138.343 160.059 127.24 172.426 128.799C182.058 127.519 192.59 126.556 202.971 122.674C211.506 122.061 219.722 112.873 215.047 107.425C203.409 106.44 191.222 107.894 178.36 110.456C164.107 113.415 151.158 119.046 136.775 121.465C122.75 123.351 139.591 126.651 135.573 127.391C128.262 129.928 144.3 131.638 134.626 134.318C128.654 133.182 122.433 131.13 124.986 124.83C111.559 126.579 99.7545 132.147 110.367 145.812L111.155 145.82L111.154 145.822ZM143.521 129.339C146.663 117.743 160.384 138.886 148.675 130.883C147.282 129.832 144.975 128.98 143.521 129.339ZM144.132 123.714C148.675 120.335 146.543 125.617 144.132 123.714ZM149.899 123.812C150.315 118.474 163.113 126.635 152.008 125.729L149.899 123.81L149.899 123.812ZM157.79 120.638C160.678 117.264 158.627 123.628 157.79 120.638ZM159.812 119.287C164.616 113.519 186.991 115.602 170.613 118.72C166.221 115.411 162.858 120.668 159.812 119.287ZM189.019 114.783C188.296 99.0241 203.536 120.375 189.019 114.783ZM197.309 114.735C200.338 106.797 209.072 111.546 198.716 113.136C198.938 113.988 198.406 117.242 197.309 114.735ZM130.42 156.846C139.47 151.301 120.81 152.035 130.42 156.846ZM137.117 158.7C140.291 155.328 130.212 157.331 137.117 158.7ZM117.391 144.708C122.56 140.73 111.266 143.197 117.391 144.708ZM384.723 311.949C384.873 307.335 380.769 314.024 384.723 311.949ZM357.558 293.407C358.329 288.103 354.067 293.869 357.558 293.407ZM392.192 313.74C399.423 313.764 414.105 311.487 398.371 311.495C395.898 311.879 383.983 311.8 392.192 313.74ZM143.004 155.444C148.859 155.047 152.159 148.992 141.866 149.335C125.918 147.689 155.936 154.801 139.822 152.764C137.659 154.196 142.875 155.842 143.004 155.444ZM148.158 158.055C147.545 154.3 146.343 160.05 148.158 158.055ZM154.275 141.747C156.812 138.596 150.759 140.904 154.275 141.747ZM134.802 109.207C145.255 105.66 159.541 101.666 164.473 110.959C159.453 104.921 162.445 98.9706 167.186 107.808C173.891 116.742 177.246 103.744 172.887 100.744C177.86 106.916 183.507 109.837 176.212 101.136C184.143 91.5977 160.343 102.384 154.935 102.272C152.334 103.44 128.065 108.46 134.803 109.207L134.802 109.207ZM140.926 97.4841C146.886 92.9905 161.537 100.164 152.135 93.0124C151.213 92.2022 131.55 98.4378 140.926 97.4841ZM162.651 98.3818C169.619 98.557 159.645 89.0115 167.949 93.3384C166.589 88.885 158.277 88.0493 154.213 86.2684C151.913 90.3411 158.887 98.4378 162.651 98.3818ZM144.736 78.6619C147.147 75.3933 140.506 80.3248 144.736 78.6619ZM153.616 80.7846C164.854 79.2981 150.75 75.9492 151.347 80.6666L153.615 80.7846L153.616 80.7846ZM137.036 67.8197C129.121 57.4872 151.92 69.5544 143.876 58.7353C137.108 53.3512 130.61 64.8053 137.036 67.8197ZM238.573 122.508C242.203 116.079 223.596 113.837 236.132 120.23C237.285 120.614 237.025 122.952 238.573 122.508ZM164.898 361.931C164.095 365.101 163.597 370.42 163.411 377.887C163.411 379.354 162.751 380.089 161.426 380.089C160.101 380.089 159.179 379.448 158.657 378.171C157.239 374.719 155.896 372.312 154.614 370.937C153.103 369.332 151.094 368.361 148.586 368.03C145.892 367.604 139.18 367.391 128.448 367.391C125.991 367.391 124.381 367.653 123.627 368.175C123.154 368.503 122.918 369.214 122.918 370.302L122.918 402.428C122.918 403.515 123.603 404.033 124.971 403.988C129.182 403.94 135.28 403.652 143.267 403.137C144.829 402.945 145.882 402.437 146.425 401.609C146.972 400.782 147.504 398.646 148.021 395.192C148.349 393.3 149.463 392.567 151.354 392.995C152.96 393.326 153.651 394.06 153.413 395.192C152.087 401.625 151.659 409.993 152.132 420.3C152.182 421.526 151.403 422.19 149.793 422.285C148.467 422.427 147.64 421.717 147.312 420.156C146.085 414.248 143.8 411.09 140.47 410.686C137.137 410.287 131.708 410.085 124.194 410.085C123.343 410.085 122.918 410.39 122.918 411.006L122.918 442.92C122.918 445.284 123.79 446.894 125.538 447.742C126.913 448.451 129.866 449.091 134.403 449.657C136.722 449.893 137.736 450.913 137.456 452.706C137.17 454.267 135.092 454.882 131.212 454.551C120.008 453.651 110.763 453.7 103.485 454.696C101.45 454.976 100.437 454.149 100.437 452.213C100.437 450.981 101.45 450.273 103.485 450.084C108.119 449.563 110.434 445.496 110.434 437.887L110.434 377.176C110.434 374.06 109.877 371.661 108.768 369.981C107.655 368.302 105.586 366.776 102.564 365.406C100.672 364.555 99.9637 363.398 100.436 361.931C100.672 361.034 101.051 360.535 101.568 360.443C102.041 360.299 103.297 360.394 105.326 360.728C108.306 361.2 115.329 361.437 126.39 361.437C139.441 361.437 150.714 361.151 160.219 360.585C163.386 360.393 164.972 360.655 164.972 361.364C164.972 361.556 164.948 361.742 164.898 361.931ZM210.888 451.957C210.888 453.848 209.824 454.675 207.697 454.438C201.177 453.823 193.09 453.915 183.446 454.719C181.506 454.911 180.315 454.861 179.863 454.582C179.412 454.296 179.191 453.517 179.191 452.236C179.191 451.105 180.477 450.149 183.053 449.365C185.633 448.588 186.918 446.259 186.918 442.383L186.918 378.201C186.918 374.369 186.362 371.556 185.254 369.759C184.141 367.962 182.191 366.568 179.403 365.578C177.936 365.055 177.201 364.322 177.201 363.376C177.201 361.957 178.265 360.894 180.393 360.185C183.609 359.145 186.944 357.54 190.396 355.363C193.233 353.66 195.031 352.812 195.783 352.812C197.532 352.812 198.41 354.014 198.41 356.426C198.41 356.24 198.315 358.604 198.123 363.518C197.985 368.198 197.937 372.807 197.985 377.349L198.265 440.678C198.265 443.563 198.975 445.657 200.394 446.957C201.812 448.256 204.25 449.119 207.697 449.543C209.824 449.778 210.888 450.582 210.888 451.955L210.888 451.957ZM275.03 447.774C275.03 448.769 273.223 450.268 269.607 452.275C265.988 454.286 263.092 455.291 260.92 455.291C259.073 455.291 257.444 454.394 256.026 452.596C254.607 450.8 253.611 449.903 253.045 449.903C252.621 449.903 250.375 450.873 246.306 452.808C242.245 454.748 238.152 455.719 234.04 455.719C230.164 455.719 226.923 454.582 224.324 452.317C221.487 449.808 220.069 446.405 220.069 442.101C220.069 433.921 229.431 428.061 248.154 424.515C251.366 423.899 253 422.599 253.044 420.613L253.189 416.074C253.474 408.321 250.046 404.446 242.905 404.446C240.871 404.446 238.946 406.263 237.122 409.903C235.306 413.547 232.691 415.507 229.287 415.793C225.411 416.167 223.471 414.537 223.471 410.898C223.471 408.627 226.357 405.983 232.124 402.954C238.177 399.788 243.994 398.202 249.572 398.202C259.168 398.202 263.919 402.767 263.826 411.892L263.54 441.107C263.496 444.181 264.796 445.716 267.441 445.716C267.963 445.716 268.957 445.599 270.42 445.362C271.888 445.126 272.74 445.007 272.977 445.007C274.346 445.007 275.03 445.933 275.03 447.774ZM253.189 431.608C253.238 430.424 252.962 429.641 252.37 429.267C251.779 428.889 250.85 428.814 249.572 429.051C238.177 431.085 232.479 434.797 232.479 440.186C232.479 445.624 235.434 448.341 241.343 448.341C243.708 448.341 246.146 447.894 248.647 446.997C251.582 445.953 253.045 444.703 253.045 443.235L253.189 431.607L253.189 431.608ZM327.756 439.616C327.756 444.627 325.824 448.614 321.974 451.567C318.122 454.523 312.863 456 306.195 456C301.752 456 297.305 455.528 292.862 454.582C289.03 453.73 286.809 452.952 286.195 452.242C285.815 451.577 285.628 448.342 285.628 442.525C285.628 440.019 286.195 438.718 287.331 438.625C288.465 438.482 289.436 439.099 290.238 440.467C293.783 446.663 299.505 449.761 307.401 449.761C314.064 449.761 317.398 447.441 317.398 442.806C317.398 440.777 316.644 439.073 315.128 437.703C313.473 436.143 310.262 434.322 305.485 432.242C298.581 429.17 293.971 426.476 291.656 424.156C289.148 421.699 287.897 418.39 287.897 414.227C287.897 409.119 289.859 405.151 293.783 402.314C297.423 399.57 302.293 398.202 308.39 398.202C312.222 398.202 315.719 398.506 318.891 399.122C322.294 399.738 324.067 400.492 324.209 401.392C324.584 404.037 325.367 407.869 326.549 412.883C326.692 413.494 326.026 413.991 324.564 414.369C323.002 414.7 321.963 414.439 321.442 413.591C317.708 407.489 312.981 404.441 307.258 404.441C300.781 404.441 297.542 406.521 297.542 410.681C297.542 413 298.418 414.841 300.166 416.211C301.728 417.394 305.391 419.24 311.159 421.747C317.211 424.347 321.324 426.687 323.501 428.766C326.338 431.459 327.756 435.079 327.756 439.616ZM411.189 452.027C411.189 453.681 410.076 454.557 407.855 454.651C404.545 454.7 400.215 454.936 394.878 455.36C392.228 455.882 390.336 455.552 389.204 454.37C381.733 446.333 375.395 437.916 370.193 429.12C369.77 428.366 369.227 427.988 368.563 427.988C367.76 427.988 366.368 428.697 364.382 430.116C362.156 431.343 361.048 433.094 361.048 435.359C361.048 436.97 361.092 439.285 361.19 442.315C361.285 445.338 362.038 447.322 363.457 448.268C364.45 448.934 366.747 449.451 370.336 449.83C372.558 450.115 373.671 450.942 373.671 452.312C373.671 453.4 373.494 454.076 373.138 454.331C372.786 454.591 371.849 454.651 370.336 454.509C365.608 454.085 357.62 454.321 346.368 455.218C343.531 455.454 341.994 455.099 341.758 454.153C341.664 453.825 341.614 453.351 341.614 452.735C341.614 451.273 343.058 450.159 345.945 449.407C348.544 448.74 349.843 445.692 349.843 440.255L349.843 378.271C349.843 374.396 349.466 371.701 348.706 370.189C347.667 368.249 345.49 366.736 342.181 365.648C340.624 365.131 339.842 364.398 339.842 363.451C339.842 362.077 340.955 361.013 343.175 360.26C346.749 359.065 350.156 357.42 353.315 355.365C355.917 353.666 357.526 352.813 358.137 352.813C360.079 352.813 361.048 354.04 361.048 356.503C361.048 356.168 361.024 358.512 360.974 363.522C360.923 368.155 360.9 372.789 360.906 377.423L361.048 421.817C361.048 423.048 361.378 423.658 362.038 423.658C362.747 423.658 363.836 423.048 365.303 421.817C369.227 418.743 374.049 414.725 379.768 409.76C380.905 408.579 381.471 407.633 381.471 406.924C381.471 405.649 379.556 404.746 375.729 404.23C374.075 404.037 373.292 403.117 373.384 401.462C373.528 399.807 374.356 399.098 375.867 399.334C379.275 399.809 384.24 400.069 390.76 400.117C395.301 400.161 399.816 400.187 404.309 400.187C405.771 400.235 406.506 401.108 406.506 402.812C406.506 404.418 405.347 405.293 403.033 405.437C399.388 405.574 395.96 406.402 392.75 407.919C388.258 409.948 383.456 413.518 378.35 418.626C377.975 418.91 377.783 419.264 377.783 419.689C377.783 420.349 378.586 421.936 380.196 424.442C386.106 433.425 391.686 440.207 396.931 444.795C400.289 447.678 403.432 449.12 406.362 449.12C408.539 449.12 409.887 449.273 410.404 449.582C410.927 449.89 411.189 450.706 411.189 452.027Z" fill="#ffffff" fill-rule="nonzero" opacity="1" stroke="none" vectornator:layerName="path"/>
</g>
</svg>
