<?xml version="1.0" encoding="UTF-8"?><svg id="a" xmlns="http://www.w3.org/2000/svg" viewBox="0 0 128 128"><defs><style>.b{fill:#fff;}</style></defs><rect x="0" y="0" width="128" height="128" rx="25" ry="25" transform="translate(128 0) rotate(90)"/><path class="b" d="m43.88,98.83c-3.81-3-7.87-5.87-10.65-9.91-5.84-7.13-10.34-15.39-13.42-24.07-1.86-5.64-2.5-11.7-4.89-17.12-2.51-3.94.43-8.25,4.75-9.5,1.92-.37,5.3-2.18,1.22-.89-3.66,2.68-4.01-2.44-.26-2.76,2.56-.34,3.5-2.43,2.63-4.32-2.75-1.79,6.66-3.76,1.93-6.43-4.93-5.32,6.9-6.34,3.98-.3-.7,4.65,8.27-.85,6.19,4.51,2.12,2.58,7.92.59,7.77,4.2,3.08.21,4.14,2.8,7.03,3,3,1.35,8.43,2.42,9.45,5.8-2.97,2.35-9.85-4.86-10.19,1.65.9,9.62.67,19.54,4.19,28.7,1.66,5.55,5.7,9.92,9.35,14.24,3.49,4.23,8.21,7.21,13.03,9.72,4.22,1.99,8.78,3.31,13.38,4.14,1.87-1.43,5.16-6.74,8.08-4.5.14,2.52-5.78,5.26-.28,4.98,3.23-.98,5.47,2.5,8.14-.64,2.45,2.9,10.19-1.85,8.45,4.08-2.36,1.52-5.8.6-8.16,2.7-3.9-1.95-7,1.74-11.31,1.27-4.79.86-9.66,1.2-14.52,1.21-7.97-.63-16.1-.89-23.68-3.67-4.27-1.24-8.44-3.67-12.19-6.1h0Zm6.73,2.92c4.17,1.8,8.25,3.7,12.82,4.28,7.25,1.01,14.74,2.56,22.01,1.14-3.29-1.49-6.7.58-9.98-1.06-3.93.85-8.16-.22-12.16-.74-4.55-2.03-9.46-3.42-13.71-6.05-5.32-1.94,2.75,2.49,4.19,2.85,3.33,1.89-3.66-.97-4.64-1.75-2.79-1.56-3.14-1.24-.28.35.58.34,1.15.69,1.75.98h0Zm-7.93-5.61c4.04,1.5-.02-2.84-1.87-2.59-.82-1.42-3.13-2.32-1.5-3.09-2.93,1.02-3.08-3.88-4.45-3.17-3.11-.98-1.21-4.46-4.91-6.59-.34-2.25-3.68-4.2-4.74-7.59-.47-1.74-3.77-6.72-1.74-2.08,1.73,4.46,4.76,8.29,7.29,12.11,1.96,3.64,4.28,7.44,7.85,9.71,1.21,1.16,2.37,2.93,4.07,3.29h0Zm-11.64-12.78c.14-.61.74,1.32,0,0h0Zm16.48,14.57c.89-.4-1.29-.51,0,0h0Zm2.19.8c-.23-1.1-1,.62,0,0h0Zm2.75,1.14c1.31-1.24-2.02-.78,0,0h0Zm4.7,2.62c.79-1.17-2.54-.44,0,0h0Zm-9.03-6.3c2.03-1.31-2.62-.02,0,0h0Zm2.06,1.03c-.06-.69-.73.31,0,0h0Zm10.29,6.42c1.66,1.04,9.66,2.29,4.65.43-.84.18-9.3-2.39-4.65-.43h0Zm-16.34-12.73c-.16-.69-2.57-.77,0,0h0Zm4.79,2.79c1.25-.87-2.59-.67,0,0h0Zm4.03,2.47c1.79-.67-2.9-.68,0,0h0Zm-10.77-7.39c1.94,1.49,7.83.19,2.97-.89-2.21-1.18-7.19-1.98-3.8.71l.82.18h0Zm13.5,8.24c.81-1.38-3.39-.79,0,0h0Zm-4.1-3.26c4.75,1.34-3.99-3-1.17-.5l.63.28.55.21h0Zm8.23,4.75c4.5.04-4.06-.62,0,0h0Zm-19.35-12.34c-.18-.84-1.11.07,0,0h0Zm26.96,16.6c.12-1.51-1.47,1.13,0,0h0Zm-19.29-11.9c-.27-.8-1.4-.03,0,0h0Zm-7.25-5.22c2.58-.16-3.54-1.14,0,0h0Zm-8.59-5.55c-.32-1.24-2.81-2.22,0,0h0Zm22.54,14.3c-.47-.54-.22.12,0,0h0Zm14.03,8.61c-.04-.83-.76.31,0,0h0Zm-15.27-9.89c.25-1.06-2.2-.32,0,0h0Zm-10.45-6.62c1.92-.2-3.08-1.3,0,0h0Zm17.68,10.98c2.99-1.19-2.92-.58,0,0h0Zm-9.19-6.24c3.45.44-4.1-2.35-.76-.25l.76.25h0Zm11.98,7.37c3.22-1.92,2.16,4.51,5.46.54,3.26-2.38-2.82,2.94,1.2.42,2.91-1.94,7.2.92,9.91,1.85,1.95-.09,3.84,1.69,5.84.6,3.85-1.04-7.52-1.54-4.54-3.37-3.52,1.02-6.12-1.22-7.85-3.48-3.95-.91-8.51-2.93-10.49-6.43-.8-1.31,1.16.19-.69-1.96-2.38-2.12-3.57-4.52-5.16-7.09-1.91-1.02-2.13-4.01-2.32-.1.02-2.47-2.3-4.13-2.87-3.44-.01-2.38,2.48-1.19.74-2.95-.38-2.47-1.61-5.03-1.98-7.82-.58-1.34-.08-4.21-1.97-1.18-.69,3.21-.23-3.94.84-1.59,1.4-2.41-.51-2.12-.58-1.79.91-2.03.58-4.91-.24-3.81.49-2.15.77-7.92-.73-6.9.91-2.25,1.72-10.3-2.23-7.23-1.6.02-4.37.58-5.68,1.23,4.1,2.26-.41.82-2.09.46-.22,2.09-1.87,1.19-3.94,1.21,3.31.41-1.61,3.38-3.5,2.23-2.46,1.18,2.12,4.11.05,5.02.26,1.37-3.77-.5-3.46,2.67-2.39-1.01-.33,3.75.87,2.14,4.06,1.1,2.86,3.61,2.96,5.99-.66,1.39-3.27-3.26-.58-3.05-2.12-3.45-2.35-1.25-4.11.36-.41.12,4.5,2.28,1.42,3.35,2.71.42,2.79,2.79,3.34,4.29,1.63,1.7,1.29-1.87,3.24.17-1.23-1.82-6.53-5.12-2.27-4.06-.02-1.83-.77-3.3.54-3.26,1.3-2.34-1.36,5.78,1.56,2.8.81-.35,1.01-2.34,2.46.19,2.11,2.07.76,3.58-2.21,1.68.53,1.81,3.98,2.45,3.33,5.27.69,2.48,1.65,1.57,2.48,1.42.66,2.41,1.03.64,1.06-.51,3.01.64,2.3,2.42,3.24,3.66,2.07.93-2.97-6.34.59-2.19,3.74,3.38,1.4,4.79-1.95,4.25,2.13-.17,2.81,2.87,5.47,2.77,2.42,1.15,4.07,5.58-.11,3.74-1.45-1.31-6.58-2.92-2.39-.43,3.87,1.79,6.94,2.86,10.67,5.11,2.67,1.91,3.82,4.09,4.83,4.52-2.24,1.07-6.76-.86-3.41-1.45-2.09-.38-4.45-1.44-2.44,1.17,1.71,1.43,6.04,1.27,6.82,1.44-.66,1.45-1.79,1.57.03,1.68-2.03,1.08.65,1.25.84,1.86h0Zm-4.14-11.7c-1.23-1.29-1.55-3.7-.22-1.6.68.28,2.19,3.95.22,1.6h0Zm13.49,8.57c.77-.05.02.58,0,0h0Zm-15.44-11.73c-.05-1.95.44,1.5,0,0h0Zm-1.34-1.8c-1.55-3,1.95.85,0,0h0Zm-16.26-11.22c.91-.24.45,1.56,0,0h0Zm12.94,7.01c.56-2.1.66,1.76,0,0h0Zm-9.14-6.36c-.64-1.16,1.35,1.09,0,0h0Zm7.84,2.51c-1.47-3.29,1.04-1.8.33.54l-.33-.54h0Zm-13.52-9.02c-.66-1.08-1.74-4.25-1.39-5.22.31,1.58,3.35,6.78,1.49,2.16-2.06-3.88,2.46,1.26,2.92,2.22.22.96-1.27-.26-.26,1.99-1.84-2.57-1.08,1.42-2.76-1.16h0Zm-4.18-2.88c.17-2.51.96,1.72,0,0h0Zm1.88.65c.9-1.9,1.52,2.64,0,0h0Zm-4.52-3.5c-1.56-1.55-2.68-2.97.07-.96,1.06.04-2.36-3.24.26-1.04,2.75.5,1.36,4.51-.33,2h0Zm2.38-.06c.9-.9.48.88,0,0h0Zm1.46.47c-1.37-2.57,1.66,1.08,0,0h0Zm-2.91-2.78c-4.52-4.03,5.68,2.1.74.75l-.74-.75h0Zm12.96,7.53c-1.96-1.17-.52-8.26.15-3.41,1.9-.62-.11,2.51,1.31,2.48-.22,1.97-.86,2.68-1.46.94h0Zm4.79,2.84c.19-2.14.4,1.46,0,0h0Zm-.83-.83c.21-.91.02,1.08,0,0h0Zm-16.04-10.86c-2.91-4.01,8.45,4.06,1.86,1.02-.69-.18-1.52-.25-1.86-1.02h0Zm9.23,4.89c-.28-3.38.61.56,0,0h0Zm7.01,4.5c.54-1.92.04,1.27,0,0h0Zm-15.8-10.92c1.73-.37,7.16,3.03,2.17.97-.55-.61-1.74-.33-2.17-.97h0Zm14.83,7.39c.18-3.45,1.03-2.06,0,.5v-.5h0Zm-13.55-8.59c.7-1.03-1.87-4.67.37-1.3.97.77,2.8,1.29,1.18,1.61,2.55,2.25-.62.61-1.55-.31h0Zm12.81,7.52c.49-3.93.43,2.3,0,0h0Zm-14.29-11.15c.54-.23.29.72,0,0h0Zm3.34,1.99c.86-1.81,1.59,2.01,0,0h0Zm9.43,5.24c0-.69.18,1.01,0,0h0Zm-.55-1.21c-1.31-3.23,1.22,1.71,0,0h0Zm-.8-2.12c-.22-1.33.75,1.68,0,0h0Zm1.31-2.13c-.9-1.58,1.13-6.97,1.36-3.63-.95,2.61-.27,4.06.39.57,1.22-2.75-.26,5.43-1.75,3.06h0Zm1.34-8.02c.39-.48.09.58,0,0h0Zm-2.24,44.22c-.53-.46.07.29,0,0h0Zm4.62,2.34c2.57.66,2.56-.4.23-.72-1.25-1.16-5.2-2.4-1.66-.14.23.59.97.58,1.43.86h0Zm-9.13-6.06c1.42,1.06,5.34,2.99,2.02.4,1.12-1.3-2.14-1.99-1.06-2.86-2.75-1.68-2.17-1.53-.24-1.48-3.31-1.48.48-1.37.3-2.13-1.27-.25-6.33-2.25-3.36.16-3.02-1.54-.72.57-1.63.35-3.09-.84,2.75,2.36-.49,1.56,1.77,1.4,4.77,3.6.75,1.49-.53.76,2.88,1.92,3.72,2.5h0Zm4.83,2.78c5.88,1.89-2.88-2.32,0,0h0Zm24.75,14.99c.08-1.17-.8,1,0,0h0Zm2.54,1.07c1.36-1.31.06,2.09,2.25-.32.02-1.73-.07-2.75-2.52-.65-.68.38-.98,1.97.27.97h0Zm-40.38-25.36c-.42-1.64-2.92-1.63,0,0h0Zm2.72,1.78c-1.01-1.67-3.6-1.51,0,0h0Zm15.46,9.32c1.51,1.34,6.93.98,1.83.17-.75-1.12-4.79-.85-1.83-.17h0Zm21.24,13.12c2.32-1.95-2.25.87,0,0h0Zm4.83,3.32c.02-.63-1,.27,0,0h0Zm0-.88c2.57-2.72-2.49.16,0,0h0Zm-50.94-32.26c-2.19-3.13-1.36-4.53-3.48-7.09-.4-1.95-3.63-6.38-1.67-1.69,1.79,2.75,2.32,7,5.14,8.78h0Zm50.13,31.39c4.73-3.06-1.94-1.33,0,0h0Zm3.61,1.42c2.37-2.03-1.5-.42,0,0h0Zm-47.86-30.67c.68-1.01-1.75-.13,0,0h0Zm47.11,29.7c2.29-1.48-.53-1.25-.42.14l.42-.14h0Zm-31.13-19.62c-.08-1-1.21.08,0,0h0Zm1.92,1.11c-.61-1.24-.94.19,0,0h0Zm32.89,19.52c2.94-2.12-1.78-.41-.62.4l.62-.4h0Zm-1.13-.54c2.4-2.01-2.53.89,0,0h0Zm5.75,3.83c1.61-1.08-1.95-.35,0,0h0Zm-53.94-34.72c2.15.48,8.61,5.31,4.8.33-1.95-.58-.78-5.35-2.77-4.5,1.34,2.23,1.1,3.18-1.71,1.78-3.52-1.72-1.98.85-1.29,1.56-.94.21,1.24.81.97.83h0Zm-9.82-7.75c.39-1.6-3.55-8.78-1.86-3.6.61,1.09.55,3.14,1.86,3.6h0Zm18.02,11.11c-1.11-.93-.05-.13,0,0h0Zm2.73.64c0-1.69-3.02-.69,0,0h0Zm23.68,14.92c-.45-1.15-1.79-.03,0,0h0Zm1.14.83c-.17-.65-.66.13,0,0h0Zm9.38,5.91c.9-.67-1.13-.09,0,0h0Zm-50.05-32.16c2.58-1-2.77-.71,0,0h0Zm37.44,23.59c-.03-1.67-1.65.42,0,0h0Zm-38.46-25.96c1.66-.56-1.54-.37,0,0h0Zm4.81,2.33c-.03-.55-.51.21,0,0h0Zm58.71,36c2.13-.43,6.99,1.09,7.78-.56-2.59-.06-8.96-1.83-9.26.42l.57.09.91.06h0Zm-57.18-35.62c.04-1.69-1.32-.06,0,0h0Zm-12.65-8.78c-.57-3.23-2.19-.49,0,0h0Zm3.02.76c.04-1.04-2.76-.93,0,0h0Zm1.72.85c-.5-.4-.39.51,0,0h0Zm10.85,6.96c.51-.47-1.21-.35,0,0h0Zm-12-8.87c-.29-2.44-3.5-.37,0,0h0Zm-6.19-4.02c-.09-1.12-.6.42,0,0h0Zm.92-.69c-.15-1.33-.79.17,0,0h0Zm5.08,3.03c2.15-.84-3.92-1.75-.44-.16l.44.16h0Zm68.06,42.04c1.38-1.26-1.75-.39,0,0h0Zm8.22,4.26c.55-1.63-1.39.21,0,0h0ZM24.72,53.09c.23-1.58-1.71.31,0,0h0Zm-7.24-4.85c-.39-2.23-.33-6.14,3.38-4.82-4.96.99,3.44,6.17,2.38,2.08,2.09.1,4.08-1.23,2.99.79,4.11-.45,6.96-4.02,10.93-3.52,3.09-.41,6.47-.72,9.81-1.97,2.74-.2,5.38-3.15,3.88-4.9-3.74-.32-7.65.15-11.78.97-4.58.95-8.74,2.76-13.35,3.54-4.5.61.9,1.67-.39,1.9-2.35.81,2.8,1.36-.3,2.22-1.92-.36-3.92-1.02-3.1-3.05-4.31.56-8.1,2.35-4.7,6.74h.25Zm10.39-5.29c1.01-3.72,5.41,3.07,1.66.5-.45-.34-1.19-.61-1.66-.5h0Zm.2-1.81c1.46-1.09.77.61,0,0h0Zm1.85.03c.13-1.71,4.24.91.68.62l-.68-.62h0Zm2.53-1.02c.93-1.08.27.96,0,0h0Zm.65-.43c1.54-1.85,8.73-1.18,3.47-.18-1.41-1.06-2.49.63-3.47.18h0Zm9.38-1.45c-.23-5.06,4.66,1.8,0,0h0Zm2.66-.02c.97-2.55,3.78-1.02.45-.51.07.27-.1,1.32-.45.51h0Zm-21.48,13.52c2.91-1.78-3.09-1.55,0,0h0Zm2.15.6c1.02-1.08-2.22-.44,0,0h0Zm-6.33-4.49c1.66-1.28-1.97-.49,0,0h0Zm85.85,53.7c.05-1.48-1.27.67,0,0h0Zm-8.72-5.95c.25-1.7-1.12.15,0,0h0Zm11.12,6.53c2.32,0,7.04-.72,1.98-.72-.79.12-4.62.1-1.98.72h0ZM27.71,51.33c1.88-.13,2.94-2.07-.37-1.96-5.12-.53,4.52,1.76-.66,1.1-.69.46.98.99,1.02.86h0Zm1.66.84c-.2-1.21-.58.64,0,0h0Zm1.96-5.24c.81-1.01-1.13-.27,0,0h0Zm-6.25-10.45c3.36-1.14,7.94-2.42,9.53.56-1.61-1.94-.65-3.85.87-1.01,2.15,2.87,3.23-1.31,1.83-2.27,1.6,1.98,3.41,2.92,1.07.13,2.55-3.06-5.1.4-6.83.36-.84.38-8.63,1.99-6.47,2.23h0Zm1.97-3.76c1.91-1.44,6.62.86,3.6-1.44-.3-.26-6.61,1.74-3.6,1.44h0Zm6.98.29c2.24.06-.97-3.01,1.7-1.62-.44-1.43-3.11-1.7-4.41-2.27-.74,1.31,1.5,3.91,2.71,3.89h0Zm-5.75-6.33c.77-1.05-1.36.53,0,0h0Zm2.85.68c3.61-.48-.92-1.55-.73-.04l.73.04h0Zm-5.32-4.16c-2.54-3.32,4.78.56,2.2-2.92-2.17-1.73-4.26,1.95-2.2,2.92h0Zm32.61,17.56c1.17-2.06-4.81-2.78-.78-.73.37.12.29.87.78.73h0Z"/></svg>