<?xml version="1.0" encoding="UTF-8"?>
<svg id="Ebene_1" data-name="Ebene 1" xmlns="http://www.w3.org/2000/svg" viewBox="0 0 256 256">
  <defs>
    <style>
      .cls-1 {
        fill: #fff;
      }

      .cls-2 {
        fill: #27282c;
      }
    </style>
  </defs>
  <g id="Ebene_2" data-name="Ebene 2">
    <path class="cls-2" d="m45,0h166c24.85,0,45,20.15,45,45v166c0,24.85-20.15,45-45,45H45c-24.85,0-45-20.15-45-45V45C0,20.15,20.15,0,45,0Z"/>
  </g>
  <path class="cls-1" d="m83.74,204.63c-8.38-6.59-17.32-12.91-23.43-21.81-12.86-15.7-22.75-33.86-29.52-52.96-4.09-12.42-5.49-25.73-10.77-37.67-5.51-8.67.95-18.14,10.45-20.9,4.23-.81,11.66-4.8,2.69-1.95-8.05,5.9-8.82-5.36-.57-6.08,5.63-.75,7.7-5.35,5.78-9.5-6.05-3.94,14.66-8.27,4.24-14.16-10.85-11.7,15.18-13.96,8.76-.66-1.53,10.22,18.19-1.88,13.61,9.93,4.65,5.67,17.42,1.29,17.1,9.24,6.78.47,9.1,6.16,15.46,6.6,6.6,2.98,18.55,5.32,20.79,12.75-6.54,5.18-21.68-10.69-22.41,3.64,1.98,21.17,1.47,42.98,9.22,63.15,3.66,12.21,12.55,21.82,20.57,31.32,7.68,9.31,18.07,15.87,28.67,21.39,9.29,4.38,19.31,7.29,29.45,9.11,4.11-3.14,11.36-14.82,17.77-9.9.31,5.54-12.72,11.58-.61,10.96,7.11-2.15,12.04,5.49,17.9-1.4,5.4,6.39,22.42-4.08,18.58,8.98-5.19,3.35-12.76,1.33-17.96,5.93-8.57-4.28-15.39,3.83-24.88,2.8-10.54,1.89-21.26,2.65-31.94,2.66-17.53-1.38-35.43-1.97-52.1-8.07-9.4-2.73-18.56-8.08-26.82-13.43h0Zm14.8,6.42c9.17,3.96,18.14,8.14,28.19,9.41,15.95,2.21,32.42,5.63,48.42,2.52-7.24-3.27-14.73,1.27-21.95-2.34-8.65,1.86-17.94-.48-26.74-1.63-10-4.46-20.8-7.52-30.17-13.31-11.71-4.28,6.05,5.49,9.22,6.28,7.32,4.15-8.05-2.13-10.22-3.86-6.13-3.44-6.91-2.72-.61.77,1.27.74,2.52,1.52,3.85,2.16h0Zm-17.45-12.33c8.89,3.29-.04-6.25-4.11-5.7-1.8-3.13-6.89-5.11-3.3-6.79-6.46,2.24-6.77-8.52-9.8-6.98-6.83-2.16-2.66-9.8-10.8-14.5-.74-4.95-8.09-9.23-10.42-16.69-1.03-3.82-8.3-14.78-3.84-4.58,3.8,9.82,10.48,18.24,16.04,26.64,4.32,8,9.42,16.37,17.28,21.36,2.65,2.55,5.21,6.44,8.95,7.24h0Zm-25.6-28.11c.31-1.34,1.62,2.9,0,0Zm36.25,32.06c1.97-.88-2.83-1.11,0,0Zm4.82,1.76c-.5-2.43-2.2,1.36,0,0Zm6.04,2.52c2.87-2.74-4.43-1.73,0,0Zm10.35,5.77c1.75-2.58-5.59-.97,0,0Zm-19.88-13.86c4.46-2.89-5.77-.04,0,0Zm4.53,2.26c-.13-1.52-1.61.68,0,0Zm22.64,14.13c3.64,2.3,21.26,5.04,10.23.94-1.85.39-20.46-5.27-10.23-.94Zm-35.94-28c-.35-1.53-5.65-1.69,0,0Zm10.54,6.15c2.75-1.92-5.69-1.48,0,0Zm8.87,5.43c3.94-1.48-6.38-1.49,0,0Zm-23.7-16.25c4.27,3.28,17.23.42,6.54-1.96-4.86-2.59-15.82-4.37-8.35,1.56l1.81.39Zm29.71,18.13c1.78-3.03-7.46-1.73,0,0Zm-9.03-7.17c10.44,2.95-8.78-6.61-2.58-1.09l1.38.62,1.2.47Zm18.1,10.46c9.89.09-8.94-1.36,0,0Zm-42.58-27.14c-.39-1.84-2.44.15,0,0Zm59.31,36.52c.26-3.33-3.23,2.48,0,0Zm-42.43-26.19c-.6-1.75-3.09-.07,0,0Zm-15.94-11.49c5.68-.34-7.78-2.5,0,0Zm-18.89-12.21c-.71-2.72-6.18-4.89,0,0Zm49.58,31.47c-1.04-1.19-.49.26,0,0Zm30.86,18.94c-.09-1.82-1.68.68,0,0Zm-33.59-21.76c.56-2.34-4.84-.71,0,0Zm-22.99-14.57c4.23-.45-6.77-2.85,0,0Zm38.89,24.16c6.59-2.61-6.42-1.27,0,0Zm-20.23-13.73c7.59.98-9.03-5.16-1.67-.55l1.67.55Zm26.37,16.21c7.09-4.23,4.75,9.92,12.02,1.2,7.17-5.24-6.19,6.47,2.64.93,6.39-4.28,15.83,2.03,21.8,4.08,4.29-.21,8.46,3.71,12.86,1.33,8.46-2.28-16.55-3.38-10-7.42-7.74,2.25-13.46-2.69-17.27-7.65-8.69-2.01-18.73-6.45-23.07-14.14-1.77-2.88,2.55.41-1.53-4.31-5.23-4.65-7.84-9.94-11.36-15.6-4.2-2.24-4.69-8.83-5.11-.22.03-5.43-5.07-9.09-6.32-7.58-.02-5.23,5.46-2.61,1.62-6.48-.82-5.42-3.55-11.08-4.36-17.2-1.27-2.95-.18-9.27-4.34-2.59-1.51,7.06-.5-8.68,1.85-3.49,3.09-5.29-1.11-4.67-1.28-3.94,2.01-4.47,1.28-10.81-.53-8.39,1.07-4.74,1.7-17.43-1.6-15.18,2-4.96,3.79-22.67-4.9-15.91-3.52.05-9.61,1.28-12.49,2.71,9.03,4.98-.91,1.8-4.59,1.01-.48,4.61-4.12,2.62-8.67,2.66,7.27.9-3.54,7.43-7.7,4.89-5.42,2.59,4.67,9.05.11,11.05.56,3.01-8.29-1.09-7.6,5.87-5.26-2.22-.72,8.25,1.91,4.71,8.94,2.42,6.29,7.93,6.52,13.18-1.46,3.05-7.19-7.18-1.28-6.7-4.67-7.58-5.16-2.74-9.04.78-.9.25,9.89,5.01,3.12,7.36,5.96.92,6.13,6.14,7.35,9.44,3.58,3.73,2.84-4.12,7.13.37-2.72-4-14.36-11.26-4.98-8.93-.05-4.02-1.7-7.26,1.18-7.18,2.85-5.15-2.98,12.71,3.43,6.16,1.77-.78,2.22-5.16,5.41.42,4.64,4.56,1.67,7.87-4.87,3.69,1.17,3.97,8.75,5.39,7.32,11.6,1.51,5.46,3.62,3.45,5.47,3.13,1.44,5.3,2.27,1.41,2.33-1.12,6.61,1.42,5.06,5.33,7.14,8.06,4.56,2.06-6.52-13.94,1.3-4.81,8.23,7.43,3.09,10.54-4.3,9.35,4.67-.38,6.18,6.32,12.03,6.09,5.33,2.54,8.95,12.28-.25,8.23-3.19-2.88-14.48-6.42-5.25-.95,8.51,3.94,15.27,6.3,23.48,11.25,5.87,4.19,8.41,9,10.64,9.95-4.94,2.36-14.88-1.88-7.5-3.18-4.61-.84-9.79-3.17-5.38,2.57,3.75,3.14,13.29,2.8,15,3.16-1.45,3.19-3.94,3.45.06,3.69-4.46,2.38,1.43,2.75,1.84,4.1h0Zm-9.11-25.74c-2.71-2.84-3.42-8.15-.48-3.53,1.51.61,4.82,8.68.48,3.53Zm29.69,18.86c1.69-.11.05,1.29,0,0Zm-33.97-25.82c-.11-4.29.98,3.31,0,0Zm-2.95-3.97c-3.42-6.59,4.3,1.87,0,0Zm-35.76-24.68c2.01-.54.99,3.43,0,0Zm28.46,15.42c1.23-4.63,1.44,3.88,0,0Zm-20.11-13.98c-1.42-2.55,2.96,2.4,0,0Zm17.25,5.53c-3.23-7.24,2.29-3.96.72,1.19l-.72-1.19Zm-29.75-19.84c-1.44-2.38-3.83-9.34-3.06-11.47.69,3.47,7.37,14.91,3.27,4.74-4.52-8.52,5.41,2.76,6.43,4.89.48,2.11-2.79-.58-.58,4.38-4.04-5.65-2.38,3.12-6.06-2.55Zm-9.19-6.34c.38-5.52,2.1,3.79,0,0Zm4.14,1.43c1.97-4.17,3.34,5.81,0,0Zm-9.95-7.7c-3.42-3.41-5.9-6.54.16-2.11,2.33.09-5.19-7.13.56-2.29,6.05,1.1,2.98,9.92-.73,4.41h0Zm5.23-.13c1.99-1.97,1.06,1.94,0,0Zm3.22,1.03c-3.02-5.65,3.66,2.37,0,0Zm-6.39-6.11c-9.95-8.86,12.5,4.63,1.62,1.64l-1.62-1.64Zm28.52,16.57c-4.31-2.58-1.15-18.18.33-7.51,4.19-1.36-.23,5.51,2.89,5.44-.49,4.33-1.89,5.89-3.21,2.07Zm10.55,6.24c.42-4.7.89,3.22,0,0Zm-1.83-1.81c.47-2.01.04,2.37,0,0Zm-35.29-23.9c-6.39-8.82,18.58,8.92,4.1,2.24-1.51-.4-3.34-.54-4.1-2.24Zm20.31,10.77c-.61-7.43,1.35,1.23,0,0Zm15.42,9.89c1.19-4.23.09,2.8,0,0Zm-34.75-24.03c3.8-.81,15.75,6.67,4.78,2.14-1.22-1.35-3.82-.74-4.78-2.14h0Zm32.63,16.26c.41-7.6,2.27-4.53.02,1.09l-.02-1.09h0Zm-29.8-18.91c1.55-2.27-4.11-10.27.81-2.87,2.13,1.69,6.16,2.83,2.6,3.55,5.6,4.94-1.36,1.34-3.42-.68Zm28.19,16.54c1.07-8.65.95,5.07,0,0Zm-31.43-24.53c1.19-.51.63,1.58,0,0Zm7.36,4.38c1.89-3.97,3.49,4.43,0,0Zm20.74,11.54c-.02-1.52.39,2.22,0,0Zm-1.2-2.66c-2.88-7.1,2.68,3.76,0,0Zm-1.77-4.66c-.48-2.93,1.64,3.69,0,0Zm2.88-4.67c-1.98-3.48,2.5-15.34,3-7.99-2.09,5.73-.6,8.94.85,1.25,2.69-6.05-.58,11.94-3.84,6.74h0Zm2.96-17.64c.86-1.06.19,1.27,0,0Zm-4.94,97.29c-1.17-1.02.15.65,0,0Zm10.17,5.14c5.66,1.46,5.63-.88.52-1.57-2.75-2.56-11.43-5.27-3.66-.31.51,1.3,2.14,1.27,3.14,1.89Zm-20.08-13.34c3.11,2.33,11.74,6.59,4.44.89,2.46-2.86-4.71-4.38-2.33-6.3-6.05-3.7-4.78-3.37-.53-3.25-7.27-3.25,1.05-3.01.66-4.67-2.8-.55-13.93-4.95-7.38.36-6.65-3.39-1.59,1.26-3.6.78-6.81-1.85,6.06,5.18-1.08,3.43,3.9,3.09,10.5,7.92,1.65,3.27-1.16,1.68,6.34,4.23,8.18,5.5h0Zm10.64,6.11c12.93,4.16-6.34-5.1,0,0Zm54.45,32.99c.17-2.57-1.77,2.19,0,0Zm5.6,2.35c2.98-2.89.12,4.61,4.94-.71.05-3.81-.15-6.05-5.54-1.43-1.49.83-2.15,4.33.6,2.14h0Zm-88.84-55.79c-.92-3.6-6.42-3.59,0,0Zm5.97,3.92c-2.22-3.68-7.92-3.33,0,0Zm34,20.51c3.32,2.95,15.25,2.16,4.03.37-1.66-2.46-10.54-1.87-4.03-.37Zm46.74,28.87c5.11-4.29-4.95,1.91,0,0Zm10.63,7.3c.03-1.38-2.2.6,0,0Zm.02-1.93c5.66-5.99-5.48.35,0,0Zm-112.06-70.97c-4.82-6.88-2.99-9.97-7.65-15.59-.88-4.3-7.98-14.04-3.67-3.72,3.94,6.04,5.11,15.39,11.32,19.31h0Zm110.28,69.06c10.41-6.73-4.27-2.93,0,0Zm7.95,3.11c5.21-4.47-3.3-.93,0,0Zm-105.3-67.47c1.49-2.22-3.85-.29,0,0Zm103.64,65.35c5.05-3.25-1.16-2.75-.92.3l.92-.3Zm-68.49-43.17c-.17-2.2-2.67.19,0,0Zm4.23,2.43c-1.35-2.72-2.07.43,0,0Zm72.36,42.93c6.47-4.67-3.92-.89-1.35.89l1.35-.89Zm-2.48-1.2c5.27-4.41-5.56,1.96,0,0Zm12.65,8.42c3.54-2.37-4.3-.76,0,0Zm-118.67-76.37c4.74,1.06,18.94,11.67,10.56.74-4.29-1.27-1.72-11.76-6.1-9.91,2.94,4.91,2.41,7-3.76,3.91-7.75-3.79-4.35,1.87-2.84,3.43-2.07.47,2.73,1.79,2.12,1.83h0Zm-21.6-17.05c.85-3.51-7.82-19.31-4.09-7.92,1.34,2.39,1.2,6.91,4.09,7.92Zm39.64,24.44c-2.44-2.04-.12-.29,0,0Zm6.01,1.4c0-3.72-6.64-1.51,0,0Zm52.09,32.83c-.99-2.54-3.93-.06,0,0Zm2.5,1.83c-.37-1.42-1.45.28,0,0Zm20.65,13.01c1.98-1.47-2.48-.19,0,0Zm-110.1-70.75c5.68-2.2-6.09-1.57,0,0Zm82.37,51.89c-.07-3.67-3.62.92,0,0Zm-84.61-57.12c3.65-1.23-3.38-.81,0,0Zm10.59,5.13c-.06-1.21-1.12.46,0,0Zm129.16,79.21c4.69-.95,15.39,2.39,17.11-1.24-5.7-.14-19.71-4.02-20.37.92l1.25.2,2.01.12h0Zm-125.8-78.36c.09-3.73-2.9-.14,0,0Zm-27.84-19.31c-1.26-7.1-4.81-1.07,0,0Zm6.64,1.67c.09-2.28-6.08-2.05,0,0Zm3.79,1.87c-1.1-.89-.85,1.12,0,0Zm23.88,15.31c1.12-1.03-2.66-.76,0,0Zm-26.4-19.52c-.65-5.36-7.69-.8,0,0Zm-13.62-8.83c-.19-2.47-1.33.93,0,0Zm2.03-1.53c-.33-2.93-1.74.37,0,0Zm11.18,6.67c4.73-1.85-8.62-3.84-.97-.35l.97.35Zm149.73,92.49c3.03-2.78-3.84-.86,0,0Zm18.09,9.37c1.21-3.58-3.06.47,0,0ZM41.59,103.99c.5-3.47-3.75.69,0,0Zm-15.92-10.66c-.85-4.9-.74-13.5,7.44-10.6-10.91,2.17,7.56,13.57,5.23,4.57,4.59.23,8.98-2.71,6.57,1.74,9.05-.99,15.31-8.84,24.05-7.74,6.8-.9,14.24-1.58,21.58-4.33,6.03-.43,11.83-6.92,8.53-10.77-8.22-.7-16.83.33-25.92,2.14-10.07,2.09-19.22,6.07-29.38,7.78-9.91,1.33,1.99,3.66-.85,4.19-5.16,1.79,6.17,3-.67,4.89-4.22-.8-8.61-2.25-6.81-6.7-9.49,1.24-17.83,5.17-10.33,14.82h.56s0,0,0,0Zm22.87-11.64c2.22-8.19,11.91,6.74,3.64,1.09-.98-.74-2.61-1.34-3.64-1.09Zm.43-3.97c3.21-2.39,1.7,1.34,0,0Zm4.07.07c.29-3.77,9.34,1.99,1.49,1.35l-1.49-1.36h0Zm5.57-2.24c2.04-2.38.59,2.11,0,0Zm1.43-.95c3.39-4.07,19.2-2.6,7.63-.4-3.1-2.34-5.48,1.38-7.63.4h0Zm20.63-3.18c-.51-11.13,10.26,3.95,0,0Zm5.86-.03c2.14-5.61,8.31-2.25.99-1.13.16.6-.22,2.9-.99,1.13Zm-47.25,29.75c6.39-3.92-6.79-3.4,0,0Zm4.73,1.31c2.24-2.38-4.88-.97,0,0Zm-13.94-9.88c3.65-2.81-4.33-1.07,0,0Zm188.86,118.15c.11-3.26-2.79,1.47,0,0Zm-19.19-13.1c.54-3.75-2.47.33,0,0Zm24.47,14.36c5.11.02,15.48-1.59,4.37-1.59-1.75.27-10.16.21-4.37,1.59ZM48.17,100.13c4.14-.28,6.47-4.56-.8-4.32-11.27-1.16,9.94,3.86-1.44,2.42-1.53,1.01,2.16,2.17,2.25,1.89Zm3.64,1.84c-.43-2.65-1.28,1.41,0,0Zm4.32-11.52c1.79-2.23-2.48-.6,0,0Zm-13.76-22.99c7.38-2.51,17.48-5.33,20.96,1.24-3.55-4.27-1.43-8.47,1.92-2.23,4.74,6.31,7.11-2.87,4.03-4.99,3.51,4.36,7.5,6.42,2.35.28,5.6-6.74-11.21.88-15.03.8-1.84.82-18.98,4.37-14.22,4.9h0Zm4.33-8.28c4.21-3.17,14.56,1.89,7.92-3.16-.65-.57-14.54,3.83-7.92,3.16Zm15.35.63c4.92.12-2.12-6.62,3.74-3.56-.96-3.15-6.83-3.74-9.7-4.99-1.62,2.88,3.3,8.6,5.96,8.56Zm-12.66-13.93c1.7-2.31-2.99,1.17,0,0Zm6.27,1.5c7.94-1.05-2.02-3.42-1.6-.08l1.6.08h0Zm-11.71-9.16c-5.59-7.3,10.51,1.23,4.83-6.42-4.78-3.8-9.37,4.29-4.83,6.42h0Zm71.73,38.63c2.56-4.54-10.58-6.13-1.72-1.61.81.27.63,1.92,1.72,1.61h0Z"/>
</svg>