<?xml version="1.0" encoding="UTF-8"?>
<svg id="Ebene_1" data-name="Ebene 1" xmlns="http://www.w3.org/2000/svg" xmlns:xlink="http://www.w3.org/1999/xlink" viewBox="0 0 256 256">
  <defs>
    <style>
      .cls-1 {
        fill: url(#Unbenannter_Verlauf_2);
      }

      .cls-2 {
        fill: #42a5f5;
      }

      .cls-3 {
        fill: #27282c;
      }

      .cls-4 {
        fill: #0d47a1;
      }

      .cls-5 {
        fill: url(#Unbenannter_Verlauf_20);
      }

      .cls-6 {
        fill: rgba(66, 165, 245, .8);
      }
    </style>
    <linearGradient id="Unbenannter_Verlauf_20" data-name="Unbenannter Verlauf 20" x1="-2114.08" y1="-1697.04" x2="-2114.08" y2="-1696.95" gradientTransform="translate(894455.69 -713921.64) rotate(-45) scale(537.98 75.1)" gradientUnits="userSpaceOnUse">
      <stop offset=".2" stop-color="#000" stop-opacity=".15"/>
      <stop offset=".85" stop-color="#616161" stop-opacity="0"/>
    </linearGradient>
    <linearGradient id="Unbenannter_Verlauf_2" data-name="Unbenannter Verlauf 2" x1="-2116.44" y1="-1694.38" x2="-2116.35" y2="-1694.38" gradientTransform="translate(1196516.25 645683.55) scale(565.29 380.96)" gradientUnits="userSpaceOnUse">
      <stop offset=".2" stop-color="#000" stop-opacity=".55"/>
      <stop offset=".85" stop-color="#616161" stop-opacity="0"/>
    </linearGradient>
  </defs>
  <g id="Ebene_2" data-name="Ebene 2">
    <path class="cls-3" d="m45,0h166c24.85,0,45,20.15,45,45v166c0,24.85-20.15,45-45,45H45c-24.85,0-45-20.15-45-45V45C0,20.15,20.15,0,45,0Z"/>
  </g>
  <g>
    <path class="cls-6" d="m63,161.87l-33.88-33.88L139.13,18h67.75m0,101.5h-67.75l-25.38,25.38,33.88,33.88"/>
    <path class="cls-4" d="m113.75,212.62l25.38,25.38h67.75l-59.25-59.25"/>
    <path class="cls-2" d="m79.95,178.77l33.82-33.83,33.82,33.82-33.82,33.83-33.82-33.82Z"/>
    <path class="cls-5" d="m113.78,212.6l33.82-33.82,4.72,4.72-33.82,33.82-4.72-4.72Z"/>
    <path class="cls-1" d="m113.75,212.62l50.27-17.37-16.39-16.51"/>
  </g>
</svg>