<?xml version="1.0" encoding="UTF-8"?><svg id="a" xmlns="http://www.w3.org/2000/svg" viewBox="0 0 128 128"><defs><style>.b{fill:#fff;}.c{fill:#ffdb1e;}</style></defs><rect class="c" x="0" y="0" width="128" height="128" rx="25" ry="25" transform="translate(128 0) rotate(90)"/><path class="b" d="m107.9,30.14c14.59,35.61,0,54.76-12.34,65.31,3.02,10.56-9.01,12.73-13.57,7.54-13.44,4.64-40.75,4.48-60.32-15.08-10.56-10.56-2.32-34.04,25.64-49.77,24.13-13.57,48.26-21.11,60.6-8.01Z"/><path class="c" d="m47.3,38.15c20.65-13.56,45.32-19.24,55.4-10.47,15.48,13.48-32.78,43.98-50.88,51.18-19.6,7.8-9.05,25.64-19.6,25.64-9.05,0-7.54-12.06-15.63-23.37-4.78-6.68,7.07-27.45,30.71-42.98Z"/><path class="b" d="m46.47,36.89c-4.03,2.65-7.81,5.52-11.26,8.51l-1.7,1.5c-14.76,13.34-22.92,28.45-18.16,35.11.45.62.87,1.26,1.28,1.92,1.06,1.72,1.98,3.51,2.85,5.53l.64,1.53,2.26,5.98c2.47,6.4,4.86,9.05,9.83,9.05,4.54,0,6.12-2.15,7.24-7.7l.52-2.71.32-1.55.19-.83.19-.73.21-.67.23-.66.27-.7c1.7-4.28,4.76-7.49,10.13-9.82l.87-.36c10.43-4.15,27.02-14.07,38.43-23.47l1.58-1.33c.77-.66,1.52-1.31,2.24-1.96l1.4-1.29c10.89-10.28,14.56-19.16,8.08-25.29l-.42-.38c-10.42-9.07-35.28-4.06-57.22,10.34Zm55.24-8.07c5.09,4.43,2.1,11.87-7.65,21.11l-1.37,1.27c-.24.21-.47.43-.72.64l-1.5,1.3c-.51.44-1.04.88-1.58,1.32-10.78,8.88-26.33,18.27-36.52,22.55l-1.11.45c-6.69,2.66-10.59,6.6-12.68,11.87l-.44,1.16-.24.73-.22.76c-.04.13-.07.27-.1.4l-.21.89-.34,1.65-.53,2.77-.23,1.08c-.77,3.35-1.65,4.21-4.05,4.21-3.22,0-4.81-1.61-6.75-6.44l-2.27-6.01-.39-.99c-1.1-2.69-2.23-5-3.6-7.22-.44-.71-.9-1.41-1.39-2.08-2.61-3.65.71-11.86,7.96-20.84l1.21-1.46c5.39-6.35,12.67-12.98,21.15-18.55,20.93-13.74,44.5-18.5,53.58-10.59Z"/><path class="b" d="m91.14,29.92c14.01,3.77-1.1,17.18-12.98,25.75-11.26,8.12-19.92,12.7-23.9,14.57-1.1.52-4.88-6.79-4.88-3.02,0,1.26-2.11,6.75-2.82,7.02-4.12,1.54-12.74,3.89-17.6,3.89-10.53,0-5.8-14.34,9.09-27.51,2.69-2.38,4.46-1.95,6.89-1.95-1.62-2.33-1.61-2.77,1.22-4.66,12.57-8.45,28.28-14.09,34.95-15.14,1.1.04,2.47,1.06,2.47,1.9,1.24-.42,6.32-1.17,7.55-.84h0Z"/><path class="c" d="m48.19,53.2c2.97-2.25,4.96-3.05,6.33-7.62,1.71.36,2.54-.24,3.89-2.11.98,1.41,5,1.83,7.4,2.11-2.16,1.36-3.19,2.57-4.38,6.35-4.42-1.84-9.55-.91-13.24,1.27h0Z"/></svg>