<?xml version="1.0" encoding="UTF-8"?>
<svg id="Ebene_1" data-name="Ebene 1" xmlns="http://www.w3.org/2000/svg" viewBox="0 0 256 256">
  <defs>
    <style>
      .cls-1 {
        fill: #fff;
      }

      .cls-2 {
        fill: #744c9e;
      }
    </style>
  </defs>
  <g id="Ebene_2" data-name="Ebene 2">
    <path class="cls-2" d="m45,0h166c24.85,0,45,20.15,45,45v166c0,24.85-20.15,45-45,45H45c-24.85,0-45-20.15-45-45V45C0,20.15,20.15,0,45,0Z"/>
  </g>
  <path class="cls-1" d="m128,18c-60.76,0-110,49.24-110,110s49.24,110,110,110,110-49.24,110-110S188.76,18,128,18Zm-86.36,111.14l85.22,85.22c-46.8-.61-84.61-38.42-85.22-85.22h0Zm105.7,83.06L43.79,108.67c8.78-38.39,43.15-67.05,84.21-67.05,28.7,0,54.13,14,69.84,35.54l-11.96,10.55c-12.74-18.27-33.92-30.23-57.88-30.23-30.51,0-56.5,19.38-66.32,46.5l90.33,90.32c21.94-7.95,38.81-26.46,44.46-49.39h-37.44v-16.91h55.35c0,41.06-28.66,75.42-67.06,84.21h0Z"/>
</svg>