<?xml version="1.0" encoding="UTF-8" standalone="no"?>
<!DOCTYPE svg PUBLIC "-//W3C//DTD SVG 1.1//EN" "http://www.w3.org/Graphics/SVG/1.1/DTD/svg11.dtd">
<!-- Created with Vectornator (http://vectornator.io/) -->
<svg height="100%" stroke-miterlimit="10" style="fill-rule:nonzero;clip-rule:evenodd;stroke-linecap:round;stroke-linejoin:round;" version="1.1" viewBox="0 0 512 512" width="100%" xml:space="preserve" xmlns="http://www.w3.org/2000/svg" xmlns:vectornator="http://vectornator.io" xmlns:xlink="http://www.w3.org/1999/xlink">
<defs/>
<g id="Ebene-1" vectornator:layerName="Ebene 1">
<path d="M2.84217e-14 95C2.84217e-14 42.5329 42.5329 0 95 0L417 0C469.467 0 512 42.5329 512 95L512 417C512 469.467 469.467 512 417 512L95 512C42.5329 512 2.84217e-14 469.467 2.84217e-14 417L2.84217e-14 95Z" fill="#744c9e" fill-rule="nonzero" opacity="1" stroke="none" vectornator:layerName="Rechteck 1"/>
</g>
<g id="Ebene-2" vectornator:layerName="Ebene 2">
<path d="M256 56C145.536 56 56 145.536 56 256C56 366.464 145.536 456 256 456C366.464 456 456 366.464 456 256C456 145.536 366.464 56 256 56ZM98.976 258.08L253.92 413.024C168.832 411.92 100.08 343.168 98.976 258.08ZM291.152 409.104L102.896 220.848C118.864 151.04 181.344 98.944 256 98.944C308.176 98.944 354.416 124.4 382.976 163.568L361.232 182.752C338.064 149.536 299.568 127.792 256 127.792C200.528 127.792 153.28 163.024 135.424 212.336L299.664 376.56C339.552 362.112 370.224 328.448 380.496 286.752L312.432 286.752L312.432 256L413.072 256C413.056 330.656 360.96 393.136 291.152 409.104Z" fill="#ffffff" fill-rule="nonzero" opacity="1" stroke="none" vectornator:layerName="path"/>
</g>
</svg>
