<?xml version="1.0" encoding="UTF-8"?><svg id="Ebene_1" xmlns="http://www.w3.org/2000/svg" viewBox="0 0 128 128"><defs><style>.cls-1{fill:#fff;}.cls-2{fill:#744c9e;}</style></defs><rect class="cls-2" width="128" height="128" rx="25" ry="25"/><path class="cls-1" d="m64,14c-27.61,0-50,22.39-50,50s22.39,50,50,50,50-22.39,50-50S91.61,14,64,14Zm-39.26,50.52l38.73,38.74c-21.27-.28-38.46-17.47-38.73-38.74Zm48.04,37.75L25.73,55.21c3.99-17.45,19.61-30.48,38.27-30.48,13.05,0,24.6,6.36,31.74,16.16l-5.44,4.8c-5.79-8.31-15.41-13.74-26.31-13.74-13.87,0-25.68,8.81-30.14,21.14l41.06,41.06c9.97-3.61,17.64-12.03,20.21-22.45h-17.02v-7.69h17.95s7.21,0,7.21,0h0c0,18.66-13.02,34.28-30.48,38.27Z"/></svg>