<?xml version="1.0" encoding="UTF-8"?>
<svg id="Ebene_1" data-name="Ebene 1" xmlns="http://www.w3.org/2000/svg" viewBox="0 0 256 256">
  <defs>
    <style>
      .cls-1 {
        fill: #a1c2fa;
      }

      .cls-2 {
        fill: #4285f4;
      }

      .cls-3 {
        fill: #27282c;
      }

      .cls-4 {
        fill: #f1f1f1;
      }
    </style>
  </defs>
  <g id="Ebene_2" data-name="Ebene 2">
    <path class="cls-3" d="m45,0h166c24.85,0,45,20.15,45,45v166c0,24.85-20.15,45-45,45H45c-24.85,0-45-20.15-45-45V45C0,20.15,20.15,0,45,0Z"/>
  </g>
  <g>
    <path class="cls-2" d="m146.18,28h-77.28c-7.26,0-13.63,6.36-13.63,13.64v172.72c0,7.27,6.36,13.64,13.64,13.64h118.18c7.27,0,13.64-6.36,13.64-13.64V82.54l-31.81-22.73-22.74-31.81Z"/>
    <path class="cls-4" d="m91.63,173.45h72.73v-9.09h-72.72v9.09h0Zm0,18.18h54.54v-9.09h-54.54v9.09Zm0-63.64v9.09h72.73v-9.09h-72.73Zm0,27.27h72.73v-9.09h-72.72v9.09h0Z"/>
    <path class="cls-1" d="m146.18,28v40.91c0,7.27,6.36,13.63,13.63,13.63h40.91l-54.54-54.54Z"/>
  </g>
</svg>