<?xml version="1.0" encoding="UTF-8"?>
<svg id="Ebene_1" data-name="Ebene 1" xmlns="http://www.w3.org/2000/svg" viewBox="0 0 256 256">
  <defs>
    <style>
      .cls-1 {
        fill: #4185f3;
      }

      .cls-2 {
        fill: #30a753;
      }

      .cls-3 {
        fill: #f9bc00;
      }

      .cls-4 {
        fill: #27282c;
      }

      .cls-5 {
        fill: #0f8038;
      }

      .cls-6 {
        fill: #e94235;
      }

      .cls-7 {
        fill: #1767d1;
      }
    </style>
  </defs>
  <g id="Ebene_2" data-name="Ebene 2">
    <path class="cls-4" d="m45,0h166c24.85,0,45,20.15,45,45v166c0,24.85-20.15,45-45,45H45c-24.85,0-45-20.15-45-45V45C0,20.15,20.15,0,45,0Z"/>
  </g>
  <g>
    <path class="cls-1" d="m164.78,159.84h-73.22l-31.35,54.77c3.77,1.92,8.05,3.15,10.83,3.15,28.8,0,87.58-.43,116.76-.43,3,0,5.81-1.02,8.33-2.63l-31.34-54.86Z"/>
    <path class="cls-7" d="m60.21,214.61l31.35-54.77H28.03c-.03,3.81,1.32,7.29,3.44,11.26,5.91,11.05,15.9,28.72,21.77,37.94,1.45,2.27,7.19,5.68,6.97,5.56h0Z"/>
    <path class="cls-6" d="m164.78,159.84l31.35,54.85c4.06-2.58,7.38-6.67,9.53-10.44,4.85-8.5,13.06-22.64,18.72-32.22,2.63-4.45,3.65-8.45,3.59-12.19h-63.2Z"/>
    <path class="cls-2" d="m91.57,159.85l36.57-63.58-32.68-54.49c-3.54,2.32-6.56,5.48-7.93,7.88-14.27,25.02-43.01,76.3-57.46,101.65-1.48,2.59-2.19,5.56-2.04,8.54h63.55Z"/>
    <path class="cls-3" d="m164.77,159.85l-36.64-63.58,31.79-54.43c3.54,2.33,7.42,5.42,8.79,7.82,14.27,25.02,43.01,76.3,57.47,101.65,1.49,2.61,1.94,5.56,1.8,8.54h-63.2Z"/>
    <path class="cls-5" d="m95.45,41.78l32.69,54.48,31.79-54.43c-3.28-1.92-7.93-3.05-12.43-3.2-12.52-.42-32.82-.59-43.75-.11-2.69.12-8.27,3.23-8.3,3.25Z"/>
  </g>
</svg>