<?xml version="1.0" encoding="UTF-8" standalone="no"?>
<!DOCTYPE svg PUBLIC "-//W3C//DTD SVG 1.1//EN" "http://www.w3.org/Graphics/SVG/1.1/DTD/svg11.dtd">
<!-- Created with Vectornator (http://vectornator.io/) -->
<svg height="100%" stroke-miterlimit="10" style="fill-rule:nonzero;clip-rule:evenodd;stroke-linecap:round;stroke-linejoin:round;" version="1.1" viewBox="0 0 512 512" width="100%" xml:space="preserve" xmlns="http://www.w3.org/2000/svg" xmlns:vectornator="http://vectornator.io" xmlns:xlink="http://www.w3.org/1999/xlink">
<defs>
<linearGradient gradientTransform="matrix(0.800206 0 0 -0.800206 1568.57 765.716)" gradientUnits="userSpaceOnUse" id="LinearGradient" x1="-1599.24" x2="-1639.04" y1="918.2" y2="679.198">
<stop offset="0" stop-color="#7b7bdf"/>
<stop offset="1" stop-color="#a6a6e9"/>
</linearGradient>
<radialGradient cx="-1885.29" cy="829.898" gradientTransform="matrix(0.552942 0.809569 0.652488 -0.445715 627.343 2104.22)" gradientUnits="userSpaceOnUse" id="RadialGradient" r="303.342">
<stop offset="0" stop-color="#ffffff"/>
<stop offset="0.487" stop-color="#ffffff"/>
<stop offset="0.593" stop-color="#d9d9f6"/>
<stop offset="1" stop-color="#adadeb"/>
</radialGradient>
<radialGradient cx="-1668.81" cy="741.623" gradientTransform="matrix(0.876146 0 0 -0.730828 1738 692.463)" gradientUnits="userSpaceOnUse" id="RadialGradient_2" r="77.791">
<stop offset="0" stop-color="#ffffff"/>
<stop offset="0.304" stop-color="#ffffff"/>
<stop offset="0.607" stop-color="#e6e6f9"/>
<stop offset="1" stop-color="#9999e6"/>
</radialGradient>
<radialGradient cx="-1751.85" cy="675.091" gradientTransform="matrix(1.20319 -0.0451316 -0.0328884 -0.876465 2376.89 708.121)" gradientUnits="userSpaceOnUse" id="RadialGradient_3" r="35.682">
<stop offset="0" stop-color="#000000"/>
<stop offset="1" stop-color="#9999e6"/>
</radialGradient>
<linearGradient gradientTransform="matrix(0.866783 0 0 -0.73875 1717.12 700.794)" gradientUnits="userSpaceOnUse" id="LinearGradient_2" x1="-1862.07" x2="-1819.72" y1="601.986" y2="674.7">
<stop offset="0" stop-color="#000000" stop-opacity="0.459"/>
<stop offset="1" stop-color="#9999e6"/>
</linearGradient>
<linearGradient gradientTransform="matrix(1.07892 0 0 -0.593513 2190.39 547.388)" gradientUnits="userSpaceOnUse" id="LinearGradient_3" x1="-1911.38" x2="-1649.58" y1="218.944" y2="484.526">
<stop offset="0" stop-color="#000000" stop-opacity="0.459"/>
<stop offset="1" stop-color="#9999e6"/>
</linearGradient>
<linearGradient gradientTransform="matrix(0.960728 0 0 -0.666491 1926.63 624.528)" gradientUnits="userSpaceOnUse" id="LinearGradient_4" x1="-1567.52" x2="-1804.65" y1="572.244" y2="341.105">
<stop offset="0" stop-color="#ffffff"/>
<stop offset="1" stop-color="#ffffff" stop-opacity="0"/>
</linearGradient>
</defs>
<g id="Ebene-1" vectornator:layerName="Ebene 1">
<path d="M2.84217e-14 95C2.84217e-14 42.5329 42.5329 0 95 0L417 0C469.467 0 512 42.5329 512 95L512 417C512 469.467 469.467 512 417 512L95 512C42.5329 512 2.84217e-14 469.467 2.84217e-14 417L2.84217e-14 95Z" fill="#161616" fill-rule="nonzero" opacity="1" stroke="none" vectornator:layerName="Rechteck 1"/>
<g opacity="1" vectornator:layerName="g">
<path d="M221.883 67.5008C192.769 67.5863 169.685 76.4503 158.642 82.5294C126.198 100.394 102.021 127.801 94.0012 144.721C77.5217 179.438 79.0278 196.263 97.0772 218.09C110.777 234.655 160.793 260.726 160.793 260.726C160.793 260.726 117.728 298.519 101.028 314.339C84.3291 330.16 71.1585 353.001 79.9472 388.157C88.7366 423.314 115.981 435.62 115.981 435.62C115.981 435.62 151.57 456.721 204.304 433.868C257.039 411.018 296.152 386.407 296.152 386.407C296.152 386.407 373.934 333.246 395.027 308.637C416.122 284.028 444.696 259.841 431.512 220.29C418.328 180.738 359.444 128.016 359.444 128.016C359.444 128.016 300.74 83.1248 258.467 72.1267C246.523 69.0156 234.226 67.4608 221.883 67.5008ZM243.389 188.732C245.377 188.732 247.39 188.883 249.19 189.282C254.225 190.4 261.923 194.604 266.146 197.06C264.347 197.767 262.21 198.324 259.669 198.76C253.118 199.885 242.157 195.668 233.562 189.683C235.772 189.282 239.53 188.732 243.389 188.732Z" fill="url(#LinearGradient)" fill-rule="nonzero" opacity="1" stroke="none" vectornator:layerName="path"/>
<path d="M224.409 74.8027C223.713 74.8027 223.027 74.8066 222.334 74.8275C177.949 76.1454 148.939 97.6829 148.939 97.6829C139.711 105.593 107.622 129.101 100.152 149.096C92.6264 169.239 96.2018 185.587 110.705 196.133C125.206 206.68 171.345 226.016 171.345 226.016L194.2 237.444C194.2 237.444 177.495 257.221 159.917 272.603C142.338 287.984 135.556 294.973 117.381 313.538C106.838 324.308 97.8102 335.531 95.2999 356.549C93.4715 371.864 97.1492 386.518 107.328 395.134C117.508 403.751 131.515 411.925 159.492 406.561C192.08 400.315 216.732 386.781 216.732 386.781C216.732 386.781 291.07 349.187 331.061 318.864C371.052 288.542 411.581 243.145 411.581 243.145C411.581 243.145 425.614 233.917 410.331 206.161C394.693 177.756 348.757 137.365 332.936 125.94C317.364 114.693 268.277 74.789 224.409 74.8027ZM243.389 188.732C245.377 188.732 247.39 188.883 249.19 189.282C254.225 190.4 261.923 194.604 266.146 197.06C264.347 197.767 262.21 198.324 259.669 198.76C253.118 199.885 242.157 195.668 233.562 189.683C235.772 189.282 239.53 188.732 243.389 188.732Z" fill="url(#RadialGradient)" fill-rule="nonzero" opacity="1" stroke="none" vectornator:layerName="path"/>
<path d="M233.762 139.869C217.502 140.308 202.113 156.132 202.554 168.876C202.994 181.621 219.257 195.259 219.257 195.259C219.257 195.259 244.293 216.771 267.145 215.013C289.997 213.256 291.752 199.21 291.752 199.21C291.752 199.21 297.023 180.742 283.398 165.801C269.776 150.859 250.023 139.43 233.762 139.869ZM243.389 188.732C245.377 188.732 247.39 188.883 249.19 189.282C254.225 190.4 261.923 194.604 266.146 197.06C264.347 197.767 262.21 198.324 259.669 198.76C253.118 199.885 242.157 195.668 233.562 189.683C235.772 189.282 239.53 188.732 243.389 188.732Z" fill="url(#RadialGradient_2)" fill-rule="nonzero" opacity="1" stroke="none" vectornator:layerName="path"/>
<path d="M240.789 155.698C226.287 155.918 219.683 162.451 221.009 174.153C221.586 179.259 226.849 185.009 233.562 189.682C235.773 189.282 239.531 188.731 243.389 188.731C245.377 188.731 247.39 188.882 249.19 189.281C254.219 190.399 261.895 194.602 266.119 197.059C266.125 197.062 266.139 197.056 266.145 197.059C272.907 194.402 274.768 189.702 274.171 182.055C273.451 172.81 254.851 155.479 240.789 155.698ZM265.944 197.134C265.643 197.25 265.317 197.351 264.994 197.459C265.319 197.35 265.641 197.249 265.944 197.134Z" fill="url(#RadialGradient_3)" fill-rule="nonzero" opacity="1" stroke="none" vectornator:layerName="path"/>
<path d="M89.1679 175.472C89.1679 175.472 91.8047 189.535 109.823 202.278C127.841 215.024 161.218 227.836 178.752 238.001C182.112 239.95 182.681 242.842 176.374 248.453C170.328 253.829 166.383 257.233 166.383 257.233C166.383 257.233 115.899 229.28 102.494 216.676C80.8258 196.303 89.1679 175.472 89.1679 175.472Z" fill="url(#LinearGradient_2)" fill-rule="nonzero" opacity="1" stroke="none" vectornator:layerName="path"/>
<path d="M84.7444 385.282C84.7444 385.282 101.219 415.331 140.145 415.415C171.539 415.482 201.405 406.109 248.253 382.456C314.58 348.964 365.547 308.706 391.036 286.294C416.525 263.881 430.391 245.897 430.391 245.897C430.391 245.897 415.685 280.063 394.592 300.278C373.498 320.493 321.201 366.636 270.664 394.321C220.127 422.007 185.717 441.049 150.394 439.317C116.885 437.673 101.033 418.051 94.002 408.823C86.9714 399.595 84.7444 385.282 84.7444 385.282Z" fill="url(#LinearGradient_3)" fill-rule="nonzero" opacity="1" stroke="none" vectornator:layerName="path"/>
<path d="M175.302 400.913C175.302 400.913 206.063 394.321 264.512 362.24C322.96 330.16 347.319 308.747 364.872 294.204C382.425 279.661 408.286 258.15 416.636 248.042C424.986 237.935 422.634 230.925 419.074 229.02C416.335 227.552 408.579 233.716 404.193 238.567C399.807 243.418 366.905 273.91 348.449 289.731C329.992 305.551 278.135 346.86 246.933 364.877C215.732 382.894 175.302 400.913 175.302 400.913Z" fill="url(#LinearGradient_4)" fill-rule="nonzero" opacity="1" stroke="none" vectornator:layerName="path"/>
</g>
</g>
</svg>
