<?xml version="1.0" encoding="UTF-8"?><svg id="a" xmlns="http://www.w3.org/2000/svg" viewBox="0 0 128 128"><defs><style>.c{fill:#2b8daf;}.d{fill:#fff;}.e{fill:#f3d71d;}.f{fill:#3698a6;}.g{fill:#d5ad2d;}.h{fill:#28a8dd;}.i{fill:#008ecf;}.j{fill:#0c0e0e;}.k{fill:#1b6f95;}</style></defs><rect class="c" x="0" y="0" width="128" height="128" rx="25" ry="25" transform="translate(128 0) rotate(90)"/><g id="b"><path class="d" d="m51.5,89.75c1.93,0,1.93-3,0-3s-1.93,3,0,3h0Z"/><path class="d" d="m49.84,88.85c.86.82,1.74,1.6,2.86,2.05s2.49.5,3.73.51c1.08,0,2.29.02,3.32-.34,1.23-.42,1.99-1.24,2.41-2.45.05-.15.13-.4.16-.49-.01.04.14-.22.02-.09.2-.22.49-.35.69-.57.26-.28.45-.63.54-1.01.28-1.2-.6-2.26-.55-3.46.05-1.28.03-2.46-.94-3.43-.78-.78-1.88-1.28-2.88-1.7-2-.85-5.5-2.07-6.9.39-.59,1.04.17,2.17,1.3,2.26,1.49.11,3-.08,4.42-.53,1.31-.42,1.39-1.98.36-2.74-.94-.69-2.23-.68-3.28-.27s-1.78,1.23-2.72,1.81c-.87.54-1.97.55-2.87,1.07-1.02.59-1.84,1.7-1.74,2.92.07.81.64,1.5,1.5,1.5.78,0,1.55-.69,1.5-1.5-.02-.43.16-.68.48-.97.17-.15.35-.28.53-.4.12-.08.23-.15.35-.23.24-.14.21-.13-.09.01l-.76-.2c-.95-.54-.24-.85-.36-.39-.05.2-.09.41-.15.61-.11.37-.25.74-.36,1.11-.22.76-.31,1.58-.22,2.37.18,1.63.92,3.18,2.19,4.24.81.67,2.24.53,2.51-.66.29-1.3.07-2.5-.02-3.81-.03-.43-.03-.92.05-1.24.05-.23.08-.31.17-.47.1-.16.12-.2.07-.12.29-.24.13-.24-.47,0l-.66-.39s.02.02.08.2c.05.14.09.3.11.44.06.36.04.76.01,1.13-.07.8-.3,1.59-.45,2.37-.16.85-.33,1.76.09,2.56.47.89,1.47,1.25,2.41.94,1.49-.49,2.6-2.23,2.88-3.71.16-.83.12-1.64-.07-2.46-.1-.41-.24-.8-.35-1.21-.04-.16-.09-.33-.13-.49l-.02-.23c-.04.14-.03.13.03-.04l-.39.66-.1.07-.76.2c-.32-.12-.35-.12-.1,0,.11.06.21.12.31.19-.02-.01.19.2.24.25.19.23.33.53.39.87.02.1.02.26,0,.46s-.09.39-.15.59c-.08.25-.17.5-.26.74-.08.22-.1.28-.07.18-.18.28-.09.24.29-.12-.76.27-1.27,1.02-1.05,1.85.2.74,1.08,1.32,1.85,1.05,1.37-.48,1.91-1.9,2.23-3.22s.18-2.71-.58-3.84c-.68-1.01-1.97-2.17-3.28-1.96-1.89.3-1.68,2.45-1.28,3.81.3,1.02.55,1.83.08,2.71-.1.18-.18.31-.3.45-.1.12-.34.25-.4.36l1.28.61.02.11s.02-.2,0-.12c.09-.38.15-.78.23-1.17.3-1.4.57-2.77.33-4.2-.25-1.5-1.26-3.13-3.01-2.52-1.47.51-2.12,2.16-2.25,3.59s.41,2.77.11,4.11l2.51-.66c-.82-.68-1.32-1.6-1.35-2.59-.04-1.27.82-2.48.76-3.85-.04-.86-.45-1.73-1.29-2.06s-1.64.01-2.36.5c-1.36.92-2.6,2.2-2.5,3.96h3c-.02-.28,0-.17-.04-.07,0,.02.15-.18.22-.24.1-.07.36-.15.54-.21.83-.25,1.66-.42,2.4-.89.63-.39,1.15-.93,1.77-1.34.25-.16.49-.3.79-.35.17-.03.22,0,.41.15l.36-2.74c-1.2.38-2.37.52-3.62.43l1.3,2.26s-.09.07-.15.09c.15-.09.17-.1.06-.03.18-.04.21-.05.08-.02.11,0,.22,0,.33,0,.32,0-.02-.02.26.03s.58.13.86.2c1.03.27,2,.66,2.92,1.19.25.14.67.36.75.52.14.27.04.73.02,1.05-.04.66,0,1.32.16,1.96.06.23.13.44.21.66.06.14.12.28.17.42.08.4.16.28.22-.35-.1-.1-.9.85-.99,1.01-.28.47-.38,1.01-.59,1.51-.04.09-.14.14-.34.22-.4.14-.69.15-1.13.17-1.1.06-2.3.11-3.38-.11-1-.2-1.68-.86-2.4-1.54-1.4-1.33-3.52.79-2.12,2.12h0Z"/><path class="d" d="m76.9,87.2c-1.8-.48-3.57-.97-3.78-3.01-.11-1.02-.02-2.19.2-3.15.09-.38.16-.64.46-.86.36-.27.88-.5,1.33-.67,1.88-.72,4.14-.8,5.65.6.76.7,1.24,1.74,1.55,2.71.29.91-.38,2.03-.88,2.78-.3.46-.71.74-1.18,1.02s-1.03.65-1.6.77-1.13-.13-1.7-.09c-.38.03-.75.12-1.13.2-.04,0-.23.1-.13.04h-.17c.33.14.39.13.16-.01l-.76,2.8c1.49.11,3.09.4,4.58.19s2.84-1.12,3.95-2,1.93-2.02,2.16-3.4c.26-1.6-.36-2.94-1.47-4.07-1.02-1.04-2.16-2.03-3.36-2.84-1.39-.93-2.92-1.12-4.5-.56-1.36.48-2.8,1.04-3.61,2.3-.74,1.15-1.06,2.98-.77,4.32.31,1.43,1.55,2.22,2.79,2.79,1.36.62,2.92,1.43,4.43.85,1.25-.47,2.68-1.65,2.98-3,.35-1.59-.63-3.09-2-3.83-1.28-.69-2.99-.99-4.3-.2-1.2.72-1.9,2.22-1.42,3.58.52,1.48,2.21,2.21,3.69,2.08s2.91-1.14,3.25-2.68c.37-1.68-.75-3.31-2.15-4.17-1.47-.91-3.62-.59-4.33,1.12-.63,1.52.28,3.24,1.71,3.9.81.37,1.69.46,2.57.45.6,0,1.3-.1,1.84.18.72.37,1.63.19,2.05-.54.39-.67.18-1.68-.54-2.05-.87-.45-1.77-.59-2.74-.59-.41,0-.83.03-1.24,0-.21-.02-.21,0-.41-.06-.05-.01-.49-.23-.33-.11-.33-.26.11.14-.14-.19l.03.07c-.05-.18-.05-.2-.02-.04-.01.02-.23.36-.23.35,0,0-.07-.06.09.02.18.08.15.08.31.2.24.2.47.49.6.71-.08-.14-.04.2.01.04-.09.3.06,0-.13.26.09-.13-.2.11-.1.05.05-.03-.3.1-.33.1-.07,0-.4-.05-.48-.05l-.17-.09s0,.03,0,.04c.06-.02-.1.53.02.09-.03.09.19-.14.05-.08.17-.08.38-.08.56-.06.47.06,1.32.4,1.34.85,0-.16-.07.05-.17.15-.21.21-.46.42-.72.57-.54.31-1.32-.18-1.89-.43-.48-.21-1.44-.58-1.57-.91-.12-.3.05-1.4.23-1.84.23-.55.79-.78,1.3-.99.65-.27,1.47-.69,2.18-.42.67.25,1.27.8,1.81,1.26.7.59,1.54,1.23,2.08,1.98.92,1.28-.74,2.58-1.82,3.22-.35.21-.72.45-1.1.6-.44.18-.88.15-1.34.12-1.08-.06-2.17-.16-3.25-.23-.65-.05-1.28.5-1.45,1.1-.19.69.15,1.29.69,1.69.73.54,1.62.46,2.45.28.31-.07.49-.14.73-.1.44.06.86.15,1.3.11,1.56-.12,3.28-1.1,4.43-2.13.57-.51.99-1.18,1.33-1.86.36-.73.76-1.48.9-2.29.31-1.72-.52-3.65-1.5-5.04-1.9-2.71-5.32-3.56-8.44-2.8-1.48.36-3.26,1.06-4.21,2.32s-1.01,2.99-1.06,4.48c-.06,1.76.31,3.55,1.57,4.85,1.17,1.21,2.85,1.73,4.44,2.15,1.87.5,2.66-2.4.8-2.89h0Z"/><path class="d" d="m68.41,98.01c-.46.47-.72,1.07-.78,1.72s.11,1.41.7,1.74c.73.41,1.51-.17,1.81-.84.23-.52.28-1.09.27-1.66,0-.4-.03-.82-.25-1.17-.24-.39-.69-.7-1.16-.66-.2.02-.38.07-.53.22-.13.13-.23.34-.22.53.02.38.33.79.75.75.03,0,.06,0,.08,0-.13-.02-.16-.02-.08,0-.11-.05-.14-.06-.07-.02-.09-.08-.11-.09-.05-.03.05.06.04.04-.04-.05.02.02.03.05.04.08-.04-.1-.05-.11-.02-.03,0,.03.02.07.02.1-.01-.11-.01-.13,0-.04,0,.04,0,.07,0,.11,0,.07,0,.13,0,.2,0,.1,0,.2,0,.3,0,.12,0,.23-.02.35-.02.21.03-.12,0,.01-.01.06-.02.11-.03.17,0,.04-.02.08-.03.12,0,.03-.02.05-.03.08-.03.07-.02.05.03-.07-.03.04-.05.1-.07.14-.01.02-.03.05-.04.07-.05.06-.03.04.04-.06-.02.01-.11.1-.12.12.1-.07.11-.08.04-.03-.07.04-.05.03.05-.02.08-.02.16-.02.24,0,.12.06.15.07.1.04-.05-.03-.02,0,.08.06-.05-.05-.04-.03.04.06-.02-.02-.03-.04-.04-.07-.04-.07-.03-.05.02.07,0-.05-.03-.1-.05-.15,0-.03-.01-.06-.02-.09.02.12.02.15.01.06,0-.06,0-.12,0-.18,0-.05.02-.14.01-.18-.02.12-.02.15-.01.09,0-.02,0-.04.01-.07.01-.06.03-.12.04-.18.01-.04.07-.14.06-.17-.05.11-.05.13-.02.05.01-.03.03-.05.04-.08.03-.05.06-.11.09-.16.02-.03.03-.05.05-.08.05-.06.04-.05-.03.04.03,0,.1-.11.12-.14.27-.28.3-.78,0-1.06s-.77-.3-1.06,0h0Z"/><path class="d" d="m65.4,97.52c-.46.38-.73.95-.91,1.51-.08.26-.14.53-.2.8-.03.14-.07.28-.11.41-.02.07-.04.14-.07.2-.01.04-.03.08-.04.11.04-.09.04-.09,0-.01l1.03-.27s-.05-.03-.08-.04c-.07-.04-.05-.03.05.04-.02-.02-.04-.04-.06-.06.07.1.08.11.04.05,0-.01-.05-.11-.06-.11.04.11.05.13.03.06,0-.03-.02-.06-.02-.09,0-.03-.01-.06-.02-.09.02.12.02.15.01.06,0-.04,0-.09,0-.14,0-.08,0-.06,0,.05,0-.04.01-.07.02-.11.01-.05.03-.11.05-.16.03-.08.03-.07-.01.02.02-.03.03-.07.05-.1.03-.07.07-.13.11-.2.07-.12.14-.23.21-.34.16-.26.33-.51.49-.77.04-.06.08-.12.12-.19.04-.06.03-.05-.03.04.1-.09.04-.06-.18.09-.35.04-.57-.05-.66-.28-.03-.07-.03-.06,0,.01.02.08.05.15.07.23.03.14.06.27.09.41.01.09.01.08,0-.02,0,.04,0,.08.01.12,0,.07.01.14.02.21.02.29.02.59-.03.87.03-.2-.01.06-.02.1-.01.06-.02.12-.04.18-.04.16-.08.31-.13.46-.12.37.14.84.52.92.41.09.79-.13.92-.52.2-.6.3-1.25.28-1.89-.01-.34-.05-.68-.12-1.01s-.15-.76-.41-1.01c-.41-.39-1.01-.31-1.38.08-.23.24-.39.56-.56.83-.33.51-.72,1.04-.82,1.65-.13.73.11,1.58.82,1.93.34.16.85.12,1.03-.27.26-.56.37-1.14.53-1.73.03-.11.06-.22.1-.33.01-.03.02-.07.04-.1.03-.08.03-.07-.01.03,0-.04.05-.11.07-.14.02-.05.05-.09.08-.14.02-.03.04-.06.06-.09.05-.07.04-.06-.02.03.03-.02.08-.09.1-.12.05-.05.1-.1.15-.14.3-.25.28-.8,0-1.06-.32-.3-.74-.27-1.06,0h0Z"/></g><path class="e" d="m63.35,118.93c-9.12-.39-15.46-1.6-20.51-3.92-.74-.34-.63-.11-1.42-2.92-1.39-4.88-2.44-9.31-3.57-14.98-.57-2.88-.84-4.08-2.16-9.7-2.37-10.09-3.27-14.73-3.79-19.52-.13-1.21.11-2.87.48-3.35.22-.28.22-.99,0-1.05-.13-.03-.16-.14-.2-.7-.04-.46-.1-.71-.2-.85-.1-.13-.15-.31-.15-.58,0-.22-.04-.42-.08-.44-.05-.03-.08-.56-.08-1.33s-.03-1.3-.08-1.33c-.04-.03-.08.02-.08.11,0,.96-.69-.79-1.1-2.78-1.04-5.1-2.74-10.17-2.35-6.99.14,1.12.39,2.22,1.12,4.85.86,3.1,1.25,5.29,1.07,6.03-.25,1.05-1.86-5.28-2.78-10.96-.24-1.44-.59-3.61-.78-4.81-.44-2.69-.85-4.71-1.4-6.96-.56-2.25-.54-2.61.15-3.49,1.43-1.82,5.63-3.24,6.08-2.05.31.81-.61,1.38-3.1,1.9-2.16.46-2.36.78-1.19,1.94,1.17,1.16,7.97,2.19,16.02,2.44,14.25.43,23.28.55,25.82.33.62-.05,1.51-.12,1.97-.14q.84-.05.8-.25c-.03-.15.04-.3.27-.6.17-.22.43-.55.57-.74.48-.66,1.29-.91,1.63-.5.42.51.05,1.68-.65,2.04-.32.17-.23.22.51.28.35.03.84.08,1.09.1.75.08,1.31-.19,1-.47-.69-.62.61-1.88,2.62-2.54.3-.1.58-.21.62-.25.04-.04.13-.07.2-.07.26,0,.99-.57,1.81-1.4.46-.47.99-.95,1.16-1.06s.35-.27.4-.36c.14-.26-.13-.19-.74.19-.3.19-.72.45-.94.58-.45.27-1.44.93-2.4,1.59-.36.25-.74.51-.85.58-.11.07-.26.19-.34.25-.17.15-.98.18-1.42.06-1.16-.31-1.24-1.33-.25-3.09.43-.77,1.63-2.36,1.78-2.36.04,0,.17-.15.29-.33.22-.33.36-.43,1.06-.8.5-.26.8-.29.88-.09.05.12-.3.9-.7,1.54-.83,1.35-.9,1.49-.83,1.57.11.11.96-.4,1.08-.65.05-.11.19-.4.31-.66.81-1.74,2.74-1.91,3.93-.35.31.41.4.46.4.22,0-.76,1.07-1.39,2.37-1.39.54,0,.57-.09.11-.27-.64-.24-.67-.36-.25-.84.58-.66.31-.79-.8-.37-1.07.41-2.1.62-2.81.59-.38-.02-.77,0-.87.04-.1.04-.38.09-.61.11-.23.02-.45.05-.49.08s-.23.02-.44-.01c-1.16-.16-1.05-1.17.4-3.74.19-.34.46-.85.6-1.13.13-.28.68-1.39,1.2-2.46.53-1.08,1.11-2.27,1.29-2.66.18-.39.41-.87.52-1.08.11-.2.19-.41.19-.45s.09-.26.2-.49c.71-1.46,1.85-5.05,1.71-5.41-.03-.07,0-.12.06-.12.06,0,.28-.12.5-.26.22-.14.49-.32.61-.39.17-.11.21-.17.17-.35-.2-1.01,1.66-.36,3.98,1.38,3.41,2.56,6.44,6.89,8.97,12.83,2.25,5.27,2.84,14.22,1.38,20.92-1.02,4.7-1.72,11.91-2.47,25.55-.48,8.69-.75,12.61-1.14,16.43-.11,1.03-.24,2.58-.31,3.44-.32,4.32-.8,8.33-1.62,13.5-.28,1.77-.32,2.18-.34,3.6-.08,5.35-2.04,8.39-5.76,8.93-.36.05-1.11.23-1.67.39-4.54,1.33-9.37,2.04-16,2.34-5.38.24-6.93.27-9.63.15Zm-18.47-8.09c-.97-3.94-1.53-5.81-2.21-7.31-.73-1.61-.89-1.83-.8-1.04.41,3.62,1.41,6.98,3.03,10.22.85,1.71.85,1.66-.01-1.88h0Zm-1.69,2.61c.28-1.05-.17-3.26-1.48-7.27-.75-2.28-1.3-4.27-1.4-5.06-.07-.51-.14-.56-.43-.27-.47.47-.33,1.44.73,5,.28.96.56,2.05.61,2.43.29,2.22,1.75,6.03,1.98,5.17Zm26.53-11.65c1.43-.95,1.24-3.7-.31-4.58-1.4-.79-2.15.93-1.55,3.57.27,1.18,1,1.58,1.87,1.01Zm-4.21-.21c1.06-.55,1.42-2.37.75-3.87-.66-1.48-1.98-.73-2.21,1.26-.03.29-.12.86-.18,1.27-.23,1.48.38,1.98,1.64,1.34Zm-25.91-2.72c.17-1.37-.18-3.34-1.33-7.41-.32-1.15-.7-2.65-.83-3.33-.43-2.21-1.09-3.28-.78-1.27.15.98,1.03,5.45,1.21,6.22.1.43.28,1.52.39,2.41.28,2.23.52,3.12,1,3.63.24.26.27.23.34-.27Zm18.11-7.55c5.96-1.37,7.88-8.82,3.18-12.33-3.03-2.26-4.93-2.42-9.67-.84-.97.32-1.84.64-1.94.7-.35.22-.88.99-.88,1.27,0,.14-.14.6-.31,1.02-2.24,5.55,3.46,11.58,9.62,10.17Zm-7.55-4.27c-2.34-.35-2.85-2.35-1.06-4.17,1.3-1.32,2.82-1.44,3.94-.3,2.21,2.26.46,4.97-2.88,4.47Zm29.73,3.17c4.09-.69,6.66-5.39,4.97-9.12-3.95-8.72-18.15-4.53-15.04,4.44,1.33,3.83,4.99,5.54,10.06,4.68h0Zm-7.98-3.62c-1.83-.45-2.42-2.12-1.44-4.05,1.22-2.42,3.84-2.39,5.13.06.78,1.48.6,1.97-.66,1.85-1.14-.11-1.51.05-.95.42.41.27.92.73,1.02.92.31.58-1.79,1.14-3.1.82h0Zm-19.24-32.35c.31-.04.52-.15.92-.45.29-.21.74-.55,1.01-.75,2.42-1.78,3.2-2.4,4.09-3.27.3-.29,1.18-1.09,1.96-1.76.77-.68,1.55-1.36,1.73-1.52.18-.16.49-.44.7-.63.66-.58,1.83-1.65,2.73-2.5,1.06-.99,3.34-3.3,3.32-3.36-.04-.15-.71-.28-1.52-.29-.84,0-.86-.01-.85-.19,0-.24.02-.23-2.28-.29-18.35-.42-30.65-1.06-37.29-1.92-.77-.1-.85-.1-.85.03,0,.22.63.82,1.13,1.08.63.32.64.47.04.58-.64.12-.63.04-.37,1.46,1.02,5.68,2.51,6.97,5.66,4.88,1.81-1.2,13.42-2.45,21.09-2.26,1.32.03,2.22.02,2.66-.04.37-.05.87-.11,1.11-.13s.49-.09.54-.15c.05-.06.23-.11.39-.11s.4-.04.52-.09c.83-.34,7.15-.47,7.15-.15,0,.06-.33.37-1.08,1.03-.18.15-1.09.86-2.03,1.56-1.42,1.07-2.37,1.81-2.8,2.18-.04.04-.51.53-1.05,1.1-2.19,2.33-4.47,3.93-6.44,4.52-.27.08-.39.16-.45.32-.11.27-.45.88-.55.99-.18.18-.09.3.17.25.14-.03.43-.08.65-.11Zm3.75-.72s.62-.08,1.52-.08c1.73,0,3.14-.08,3.14-.17,0-.04-.05-.07-.11-.07-.33,0-.44-.39-.23-.85.26-.57.5-.84,3.17-3.57,1.05-1.08,2.05-2.13,2.23-2.35,1.51-1.86,2.72-3.63,2.58-3.77-.06-.06-1.21,1.02-1.39,1.3-.07.11-.4.47-.74.81-.67.66-.7.7-1.95,2.17-.46.54-.93,1.08-1.05,1.21-.12.13-.4.43-.61.67-.7.78-1.98,2.02-2.56,2.48-1.29,1.02-3.28,2.03-3.91,1.98-.21-.02-.67.09-.67.16,0,.17.49.23.59.08h0Zm17.95-.31c.1-.15.18-.16,1.17-.16,1.45,0,2.23-.3,1.69-.66-.11-.07-.19-.2-.2-.3,0-.61-.45-1.11-.7-.78-.72.95-.86,1.09-1.22,1.27-2.36,1.18-3.76-1.54-2.58-5.01,1.02-3,1.1-3.27,1.34-4.46.12-.58,0-1.71-.17-1.74-.37-.06-2.07,5.31-2.77,8.79-.31,1.5-.31,1.51-.72,1.77-1.45.92-2.03.49-1.57-1.15.14-.51.6-1.78.81-2.25.08-.18.15-.35.15-.38s.07-.21.16-.41c1.03-2.35,1.27-3.21.93-3.31-.97-.28-2.31.47-2.89,1.62-.06.13-.19.36-.29.52-.22.36-.61,1.08-1.26,2.33-.89,1.71-1.09,2.04-1.69,2.81-.64.81-1.3,1.21-2.36,1.42-.76.15-.75.19.08.24,2.15.14,11.97,0,12.08-.16h0Zm-8.82-.4c-.34-.13-.51-.83-.32-1.3.37-.93.86-1.7,2.58-4.01.37-.49.8-1.1.96-1.35.87-1.32,1,1.01.16,2.95-.89,2.07-2.36,3.84-3.14,3.79-.04,0-.15-.04-.25-.08Zm20.78-.32c.44-.05.81-.13.88-.2.09-.08.32-.11.76-.11.35,0,.66-.04.68-.08.03-.04.11-.08.19-.08.13,0,.28-.29.2-.38-.02-.02-.22,0-.45.06-.4.09-.74.14-1.47.23-.96.11-3.64.04-4.38-.12-.26-.06-.27-.08-.36-.54-.15-.83-.59-1.21-1.15-1.02-.55.19-.58.3-.14.47.32.13.63.38.63.52,0,.14-.49.63-.63.63-.08,0-.16.03-.19.07-.05.09-.97.37-1.43.44-.86.14-.08.19,2.88.19,1.78,0,3.55-.04,3.97-.08h0Zm5.09-4.26c.42-.07.88-.48.88-.78,0-.23-.18-.35-.33-.22-.1.08-.7.23-.92.24-.06,0-.27.03-.45.06-1.2.19-4.54-.86-6.1-1.93-.18-.12-.35-.22-.37-.22-.07,0-.85-.55-1.08-.77-.81-.75.7-.83,2.68-.13,1.25.44,1.41.5,1.75.68.52.27.58.29,1.13.49,1.27.45,1.38.34.37-.37-1.5-1.07-3.1-1.73-3.7-1.53-.65.21-2.13-.17-3.54-.92-2.51-1.34-3.46-1.59-2.61-.67,1.15,1.23,2.64,2.61,3.58,3.3.58.43,1.38.98,1.53,1.05.06.03.28.15.47.26.45.26,1.95.93,2.33,1.05.75.22,1.12.31,1.51.36.23.03.47.08.52.1.13.07,1.92.04,2.35-.03h0Zm-9.22-11.52c.19-.02.51-.05.7-.07.38-.04,1.54-.27,2.31-.47.26-.06,1.37-.24,2.46-.39,4.06-.55,5.26-1.01,6.27-2.36.44-.59.44-.67.04-1.46-.82-1.58.04-2.07,1.95-1.11.67.34.67.34.67,0,0-.3-.06-.36-.46-.44-2.2-.45-3.21-2.11-2.06-3.37.21-.23.19-.47-.11-1.53-.13-.47-.21-.49-.58-.21-.15.11-.42.27-.61.35q-.34.15,0,.5c1.1,1.1-.29,2.47-2.68,2.62-1.57.1-1.7.15-.99.35,1.2.35,1.38,1.09.38,1.58-.93.45-.89.49.27.22,1.85-.42,3.27-.36,3.45.15.49,1.4-.47,2.84-2.4,3.6-.46.18-.74.26-1.68.51-.48.13-1.85.34-1.9.29-.02-.02-.1,0-.17.03-.07.04-.41.09-.75.12-2,.17-3.06.31-5.3.7-1.24.22-1.39.26-1.39.36,0,.08,1.54.14,1.96.09.15-.02.43-.05.63-.07h0Zm6.68-11.12c.31-.21.97-.64,1.46-.97,1.56-1.03,2.63-2.15,2.85-2.99.06-.22.13-.46.16-.53.09-.21-.2-.99-.3-.82-.47.78-.83,1.23-1.53,1.92-1.16,1.15-1.59,1.55-1.73,1.62-.23.13-1.49,1.55-1.6,1.82-.22.52-.15.51.7-.05h0Zm-55.82,5.79c0-.08.12-.3.26-.49.36-.47.52-.8.52-1.08,0-.31-.1-.27,1.77-.67,4.19-.9,5.99-1.13,9.2-1.18,16.93-.28,21.9-.44,27.28-.85q1.37-.11,1.74.49c.81,1.28-1.49,2.12-5.06,1.85-.34-.03-1.98-.06-3.64-.07q-3.01-.02-4.65-.35c-2.39-.48-3.09-.45-3.78.15-.32.28-.22.28-.99,0-1.95-.69-4.37-.73-8.27-.14-1.31.2-2.84.4-3.4.45-2.91.25-5.63.75-9.13,1.69-1.45.39-1.86.43-1.86.2Z"/><path class="g" d="m63.35,118.93c-9.12-.39-15.46-1.6-20.51-3.92-.74-.34-.63-.11-1.42-2.92-1.39-4.88-2.44-9.31-3.57-14.98-.57-2.88-.84-4.08-2.16-9.7-2.37-10.09-3.27-14.73-3.79-19.52-.13-1.21.11-2.87.48-3.35.22-.28.22-.99,0-1.05-.13-.03-.16-.14-.2-.7-.04-.46-.1-.71-.2-.85-.1-.13-.15-.31-.15-.58,0-.22-.04-.42-.08-.44-.05-.03-.08-.56-.08-1.33s-.03-1.3-.08-1.33c-.04-.03-.08.02-.08.11,0,.96-.69-.79-1.1-2.78-1.04-5.1-2.74-10.17-2.35-6.99.14,1.12.39,2.22,1.12,4.85.86,3.1,1.25,5.29,1.07,6.03-.25,1.05-1.86-5.28-2.78-10.96-.24-1.44-.59-3.61-.78-4.81-.44-2.69-.85-4.71-1.4-6.96-.56-2.25-.54-2.61.15-3.49,1.43-1.82,5.63-3.24,6.08-2.05.31.81-.61,1.38-3.1,1.9-2.16.46-2.36.78-1.19,1.94,1.17,1.16,7.97,2.19,16.02,2.44,14.25.43,23.28.55,25.82.33.62-.05,1.51-.12,1.97-.14q.84-.05.8-.25c-.03-.15.04-.3.27-.6.17-.22.43-.55.57-.74.51-.7,1.33-.92,1.67-.44.22.31.12.4-.12.11-.39-.47-.97-.28-1.52.49-.13.18-.35.47-.49.64-.54.67-.05,1.15.91.88.68-.19,1.26-.89,1.26-1.49,0-.14.03-.19.08-.14.22.22-.32,1.24-.8,1.49-.32.17-.23.22.51.28.35.03.84.08,1.09.1.75.08,1.31-.19,1-.47-.69-.62.61-1.88,2.62-2.54.3-.1.58-.21.62-.25.04-.04.13-.07.2-.07.26,0,.99-.57,1.8-1.4.83-.85,1.21-1.17,1.3-1.09.02.02-.09.14-.26.26-1.21.9-1.26,1.24-.09.63,1.7-.89,2.41-1.07,1.86-.48-.71.76-3.05,1.88-3.33,1.59-.06-.06-.21,0-.51.19-.24.15-.78.4-1.2.55-1.46.51-1.84.73-2.69,1.51-2.71,2.51,11.85,1.46,19.85-1.42,1.34-.48,1.6-.77,1.49-1.68-.18-1.56-3.24-3.51-4.08-2.6-.2.22-.28.16-.1-.07.31-.4,1.16-.31,2.21.21.67.34.67.34.67,0,0-.29-.15-.43-.48-.44-.18,0-.87-.29-.74-.3.04,0,.26.05.5.12,1.69.49,2.32-.36,1.51-2.04-.08-.18-.33-1.01-.54-1.84-1.12-4.4-3.38-9.16-4.36-9.16-.23,0-.23.01-.62-1.49-.67-2.57-1.16-3.52-2.11-4.06-2.06-1.17-2.57-3.31-.59-2.49,4.24,1.75,8.57,7.1,11.73,14.51,2.25,5.27,2.84,14.22,1.38,20.92-1.02,4.7-1.72,11.91-2.47,25.55-.48,8.69-.75,12.61-1.14,16.43-.11,1.03-.24,2.58-.31,3.44-.32,4.32-.8,8.33-1.62,13.5-.28,1.77-.32,2.18-.34,3.6-.08,5.35-2.04,8.39-5.76,8.93-.36.05-1.11.23-1.67.39-4.54,1.33-9.37,2.04-16,2.34-5.38.24-6.93.27-9.63.15Zm-18.47-8.09c-.97-3.94-1.53-5.81-2.21-7.31-.73-1.61-.89-1.83-.8-1.04.41,3.62,1.41,6.98,3.03,10.22.85,1.71.85,1.66-.01-1.88h0Zm-1.69,2.61c.28-1.05-.17-3.26-1.48-7.27-.75-2.28-1.3-4.27-1.4-5.06-.07-.51-.14-.56-.43-.27-.47.47-.33,1.44.73,5,.28.96.56,2.05.61,2.43.29,2.22,1.75,6.03,1.98,5.17Zm26.53-11.65c1.43-.95,1.24-3.7-.31-4.58-1.4-.79-2.15.93-1.55,3.57.27,1.18,1,1.58,1.87,1.01Zm-4.21-.21c1.06-.55,1.42-2.37.75-3.87-.66-1.48-1.98-.73-2.21,1.26-.03.29-.12.86-.18,1.27-.23,1.48.38,1.98,1.64,1.34Zm-25.91-2.72c.17-1.37-.18-3.34-1.33-7.41-.32-1.15-.7-2.65-.83-3.33-.43-2.21-1.09-3.28-.78-1.27.15.98,1.03,5.45,1.21,6.22.1.43.28,1.52.39,2.41.28,2.23.52,3.12,1,3.63.24.26.27.23.34-.27Zm18.11-7.55c5.96-1.37,7.88-8.82,3.18-12.33-3.03-2.26-4.93-2.42-9.67-.84-.97.32-1.84.64-1.94.7-.35.22-.88.99-.88,1.27,0,.14-.14.6-.31,1.02-2.24,5.55,3.46,11.58,9.62,10.17Zm-7.55-4.27c-2.34-.35-2.85-2.35-1.06-4.17,1.3-1.32,2.82-1.44,3.94-.3,2.21,2.26.46,4.97-2.88,4.47Zm29.73,3.17c4.09-.69,6.66-5.39,4.97-9.12-3.95-8.72-18.15-4.53-15.04,4.44,1.33,3.83,4.99,5.54,10.06,4.68h0Zm-7.98-3.62c-1.83-.45-2.42-2.12-1.44-4.05,1.22-2.42,3.84-2.39,5.13.06.78,1.48.6,1.97-.66,1.85-1.14-.11-1.51.05-.95.42.41.27.92.73,1.02.92.31.58-1.79,1.14-3.1.82h0Zm-19.24-32.35c.31-.04.52-.15.92-.45.28-.21.72-.54.97-.72,1.37-1,2.54-1.89,2.96-2.25.54-.47.67-.55.67-.45,0,.04-.2.24-.45.44-.25.2-.51.42-.59.48-.21.17-1.67,1.26-2.52,1.87-.9.65-.91.69-.18.64,1.03-.07,1.24-.13,1.19-.29-.05-.17.27-.33.55-.28.13.02.11.04-.1.09-.14.03-.24.1-.23.15.04.12.45.16.55.05.05-.05.6-.08,1.54-.08,1.72,0,3.13-.08,3.13-.17,0-.04-.05-.07-.11-.07-.13,0-.36-.21-.36-.32,0-.04.07,0,.16.08.11.11.26.16.52.16.28,0,.35.03.32.11-.11.3,12.57.27,12.77-.03.1-.15.19-.16,1.17-.16,1.45,0,2.23-.3,1.69-.66-.11-.07-.19-.2-.2-.3,0-.1-.09-.36-.19-.59-.11-.23-.16-.41-.12-.41.1,0,.16.12.36.7.17.5.18.52.52.6.33.09.34.09.11.13-.13.02.08.04.47.04.49,0,.62-.02.43-.06-.15-.03-.25-.06-.22-.07.03,0,.33-.05.66-.09,1.06-.15,1.81-.43,1.84-.68.02-.19.06-.21.34-.21.55,0,.41-.52-.16-.63-.28-.05-.46-.21-.39-.34.08-.13.51-.33.61-.29.05.02.03.06-.06.09-.49.17-.53.3-.12.46.32.13.63.38.63.52,0,.14-.49.63-.63.63-.08,0-.16.03-.19.07-.05.09-.97.37-1.43.44-.86.14-.08.19,2.88.19,3.27,0,4.63-.08,4.85-.28.09-.08.32-.11.76-.11.35,0,.66-.04.68-.08.03-.04.11-.08.19-.08.13,0,.28-.29.2-.38-.02-.02-.22,0-.45.05-.82.17-.92.18-.92.12,0-.04.25-.11.56-.17,2.73-.51,4.83-2.03,5.7-4.16.12-.3.48-1,.79-1.58,1.9-3.49,3.01-6.51,2.73-7.41-.03-.11-.08-.32-.11-.48-.09-.53-.13-.55-1.06-.43-4.16.55-12.24,1.38-17.18,1.76-3.47.27-8.19.55-9.14.55q-.37,0-1.76,1.33c-1.73,1.66-1.88,1.67-.22.01.68-.68,1.21-1.26,1.17-1.28-.25-.15-1.19-.29-1.76-.28-.63.02-.65.02-.65-.16,0-.24.02-.23-2.28-.29-18.35-.42-30.65-1.06-37.29-1.92-.77-.1-.85-.1-.85.03,0,.22.63.82,1.13,1.08.63.32.64.47.04.58-.64.12-.63.04-.37,1.46,1.02,5.68,2.51,6.97,5.66,4.88,1.81-1.2,13.42-2.45,21.09-2.26,1.32.03,2.22.02,2.66-.04.37-.05.87-.11,1.11-.13s.49-.09.54-.15c.05-.06.23-.11.39-.11s.4-.04.52-.09c.83-.34,7.15-.47,7.15-.15,0,.06-.33.37-1.08,1.03-.18.15-1.09.86-2.03,1.56-1.42,1.07-2.37,1.81-2.8,2.18-.04.04-.51.53-1.05,1.1-2.19,2.33-4.47,3.93-6.44,4.52-.27.08-.39.16-.45.32-.11.27-.45.88-.55.99-.18.18-.09.3.17.25.14-.03.44-.08.66-.11Zm-19.61-22.85c0-.08.12-.3.26-.49.36-.47.52-.8.52-1.08,0-.31-.1-.27,1.77-.67,4.19-.9,5.99-1.13,9.2-1.18,16.93-.28,21.9-.44,27.28-.85q1.37-.11,1.74.49c.81,1.28-1.49,2.12-5.06,1.85-.34-.03-1.98-.06-3.64-.07q-3.01-.02-4.65-.35c-2.39-.48-3.09-.45-3.78.15-.32.28-.22.28-.99,0-1.95-.69-4.37-.73-8.27-.14-1.31.2-2.84.4-3.4.45-2.91.25-5.63.75-9.13,1.69-1.45.39-1.86.43-1.86.2Z"/><path class="h" d="m63.35,118.93c-9.12-.39-15.46-1.6-20.51-3.92-.74-.34-.63-.11-1.42-2.92-1.39-4.88-2.44-9.31-3.57-14.98-.57-2.88-.84-4.08-2.16-9.7-2.37-10.09-3.27-14.73-3.79-19.52-.13-1.21.11-2.87.48-3.35.22-.28.22-.99,0-1.05-.13-.03-.16-.14-.2-.7-.04-.46-.1-.71-.2-.85-.1-.13-.15-.31-.15-.58,0-.22-.04-.42-.08-.44-.05-.03-.08-.56-.08-1.33s-.03-1.3-.08-1.33c-.04-.03-.08.02-.08.11,0,.96-.69-.79-1.1-2.78-1.04-5.1-2.74-10.17-2.35-6.99.14,1.12.39,2.22,1.12,4.85.86,3.1,1.25,5.29,1.07,6.03-.25,1.05-1.86-5.28-2.78-10.96-.24-1.44-.59-3.61-.78-4.81-.44-2.69-.85-4.71-1.4-6.96-.56-2.25-.54-2.61.15-3.49,1.43-1.82,5.63-3.24,6.08-2.05.31.81-.61,1.38-3.1,1.9-2.16.46-2.36.78-1.19,1.94,1.17,1.16,7.97,2.19,16.02,2.44,14.24.43,23.28.55,25.82.33,2.52-.22,2.67-.22,3.09.03q.38.22.85.1c.48-.12.59-.12,2.26.06.36.04.54.01.88-.12.37-.15.46-.16.72-.07.55.18,5.77.13,7.61-.08,5.12-.57,11.18-1.97,13.19-3.04.24-.13,1.8-.5,2.81-.68.98-.17,1.61-.32,2.07-.49q.43-.16.48.52c.22,3.02-.11,7.89-.72,10.38-.16.65-.35,1.7-.62,3.48-.09.58-.2,1.13-.25,1.23s-.06.25-.04.35c.03.1-.04.89-.15,1.75-.56,4.53-.91,9.12-1.45,18.94-.48,8.69-.75,12.61-1.14,16.43-.11,1.03-.24,2.58-.31,3.44-.32,4.32-.8,8.33-1.62,13.5-.28,1.77-.32,2.18-.34,3.6-.08,5.35-2.04,8.39-5.76,8.93-.36.05-1.11.23-1.67.39-4.54,1.33-9.37,2.04-16,2.34-5.38.24-6.93.27-9.63.15h0Zm-18.47-8.09c-.97-3.94-1.53-5.81-2.21-7.31-.73-1.61-.89-1.83-.8-1.04.41,3.62,1.41,6.98,3.03,10.22.85,1.71.85,1.66-.01-1.88h0Zm-1.69,2.61c.28-1.05-.17-3.26-1.48-7.27-.75-2.28-1.3-4.27-1.4-5.06-.07-.51-.14-.56-.43-.27-.47.47-.33,1.44.73,5,.28.96.56,2.05.61,2.43.29,2.22,1.75,6.03,1.98,5.17Zm26.53-11.65c1.43-.95,1.24-3.7-.31-4.58-1.4-.79-2.15.93-1.55,3.57.27,1.18,1,1.58,1.87,1.01Zm-4.21-.21c1.06-.55,1.42-2.37.75-3.87-.66-1.48-1.98-.73-2.21,1.26-.03.29-.12.86-.18,1.27-.23,1.48.38,1.98,1.64,1.34Zm-25.91-2.72c.17-1.37-.18-3.34-1.33-7.41-.32-1.15-.7-2.65-.83-3.33-.43-2.21-1.09-3.28-.78-1.27.15.98,1.03,5.45,1.21,6.22.1.43.28,1.52.39,2.41.28,2.23.52,3.12,1,3.63.24.26.27.23.34-.27Zm23.53-2.53c.8-.43,1.61-.63,2.59-.63.76,0,1.33.08,3.49.48,2.64.49,4.19.12,4.01-.95-.41-2.42-1.64-2.95-5.42-2.34-2.2.36-3.8.37-4.7.05-.71-.26-.67-.25-1.19-.06-1.9.71-1.82,2.98.13,3.6.26.08.48.15.49.16,0,0,.27-.14.59-.31h0Zm-5.42-5.02c5.96-1.37,7.88-8.82,3.18-12.33-3.03-2.26-4.93-2.42-9.67-.84-.97.32-1.84.64-1.94.7-.35.22-.88.99-.88,1.27,0,.14-.14.6-.31,1.02-2.24,5.55,3.46,11.58,9.62,10.17h0Zm-7.55-4.27c-2.34-.35-2.85-2.35-1.06-4.17,1.3-1.32,2.82-1.44,3.94-.3,2.21,2.26.46,4.97-2.88,4.47Zm29.73,3.17c4.09-.69,6.66-5.39,4.97-9.12-3.95-8.72-18.15-4.53-15.04,4.44,1.33,3.83,4.99,5.54,10.06,4.68h0Zm-7.98-3.62c-1.83-.45-2.42-2.12-1.44-4.05,1.22-2.42,3.84-2.39,5.13.06.78,1.48.6,1.97-.66,1.85-1.14-.11-1.51.05-.95.42.41.27.92.73,1.02.92.31.58-1.79,1.14-3.1.82h0Zm-19.69-32.28c.08-.04.36-.08.63-.1.39-.02.5-.05.54-.16.05-.13.16-.15.91-.17,1.13-.03,1.57-.1,1.95-.27.34-.16,3.6-.29,5.75-.22,3.83.11,12.25,0,12.35-.16.1-.15.18-.16,1.17-.16,1.12,0,1.57-.09,1.76-.34.09-.13.36-.14,4.17-.13,4.14.01,5.51-.06,5.75-.28.09-.08.32-.11.76-.11.35,0,.66-.04.68-.08.03-.05,1.19-.08,3.21-.08,3.05,0,3.16,0,3.24-.15.07-.13.2-.16.92-.19,1.73-.09,2.17-.14,2.3-.25.1-.09.3-.11.9-.1q.76.02.86-.33c.05-.19.17-.54.25-.78.13-.34.17-.72.21-1.88.06-1.58.11-2.09.32-2.97.17-.71.17-5.46,0-7.32-.1-1.16-2.24-1.59-3.82-.78-.26.13-6.6.89-11.5,1.36-4.95.48-11.2.94-14.55,1.07-.89.03-1.44.09-1.58.16-.18.09-.27.09-.63-.03-.28-.09-.69-.13-1.24-.13-.8,0-.82,0-.82-.18,0-.24.02-.23-2.28-.29-18.35-.42-30.65-1.06-37.29-1.92-.77-.1-.85-.1-.85.03,0,.22.63.82,1.13,1.08.63.32.64.47.04.58-.64.12-.63.04-.37,1.46,1.02,5.68,2.51,6.97,5.66,4.88,1.81-1.2,13.42-2.45,21.09-2.26,1.32.03,2.22.02,2.66-.04.37-.05.87-.11,1.11-.13s.49-.09.54-.15c.05-.06.23-.11.39-.11s.4-.04.52-.09c.83-.34,7.15-.47,7.15-.15,0,.06-.33.37-1.08,1.03-.18.15-1.09.86-2.03,1.56-1.42,1.07-2.37,1.81-2.8,2.18-.04.04-.51.53-1.05,1.1-2.19,2.33-4.47,3.93-6.44,4.52-.27.08-.39.16-.45.32-.11.27-.45.88-.55.99-.23.23.06.38.38.21h0Zm-19.17-22.92c0-.08.12-.3.26-.49.36-.47.52-.8.52-1.08,0-.31-.1-.27,1.77-.67,4.19-.9,5.99-1.13,9.2-1.18,16.93-.28,21.9-.44,27.28-.85q1.37-.11,1.74.49c.81,1.28-1.49,2.12-5.06,1.85-.34-.03-1.98-.06-3.64-.07q-3.01-.02-4.65-.35c-2.39-.48-3.09-.45-3.78.15-.32.28-.22.28-.99,0-1.95-.69-4.37-.73-8.27-.14-1.31.2-2.84.4-3.4.45-2.91.25-5.63.75-9.13,1.69-1.45.39-1.86.43-1.86.2Z"/><path class="f" d="m63.35,118.93c-9.12-.39-15.46-1.6-20.51-3.92-.74-.34-.63-.11-1.42-2.92-1.39-4.88-2.44-9.31-3.57-14.98-.57-2.88-.84-4.08-2.16-9.7-2.37-10.09-3.27-14.73-3.79-19.52-.15-1.34.12-2.99.56-3.42.29-.29.32-.83.07-1.06-.11-.11-.17-.31-.23-.79-.04-.37-.12-.7-.19-.78-.15-.17-.21-.66-.28-2.34-.03-.74-.08-1.37-.12-1.41-.08-.08-.21.11-.21.3,0,.92-.7-.84-1.1-2.81-1.04-5.1-2.74-10.17-2.35-6.99.14,1.12.39,2.22,1.12,4.85.86,3.1,1.25,5.29,1.07,6.03-.25,1.05-1.86-5.28-2.78-10.96-.24-1.44-.59-3.61-.78-4.81-.44-2.69-.85-4.71-1.4-6.96-.56-2.25-.54-2.61.15-3.49,1.43-1.82,5.63-3.24,6.08-2.05.31.81-.61,1.38-3.1,1.9-2.16.46-2.36.78-1.19,1.94,1.17,1.16,7.97,2.19,16.02,2.44,14.24.43,23.28.55,25.82.33,2.52-.22,2.67-.22,3.09.03q.38.22.85.1c.48-.12.59-.12,2.26.06.36.04.54.01.88-.12.37-.15.46-.16.72-.07.55.18,5.77.13,7.61-.08,5.12-.57,11.18-1.97,13.19-3.04.24-.13,1.8-.5,2.81-.68.98-.17,1.61-.32,2.07-.49q.43-.16.48.52c.22,3.02-.11,7.89-.72,10.38-.16.65-.35,1.7-.62,3.48-.09.58-.2,1.13-.25,1.23s-.06.25-.04.35c.03.1-.04.89-.15,1.75-.56,4.53-.91,9.12-1.45,18.94-.48,8.69-.75,12.61-1.14,16.43-.11,1.03-.24,2.58-.31,3.44-.32,4.32-.8,8.33-1.62,13.5-.28,1.77-.32,2.18-.34,3.6-.08,5.35-2.04,8.39-5.76,8.93-.36.05-1.11.23-1.67.39-4.54,1.33-9.37,2.04-16,2.34-5.38.24-6.93.27-9.63.15h0Zm-18.47-8.09c-.97-3.94-1.53-5.81-2.21-7.31-.73-1.61-.89-1.83-.8-1.04.41,3.62,1.41,6.98,3.03,10.22.85,1.71.85,1.66-.01-1.88h0Zm-1.69,2.61c.28-1.05-.17-3.26-1.48-7.27-.75-2.28-1.3-4.27-1.4-5.06-.07-.51-.14-.56-.43-.27-.47.47-.33,1.44.73,5,.28.96.56,2.05.61,2.43.29,2.22,1.75,6.03,1.98,5.17Zm26.53-11.65c1.43-.95,1.24-3.7-.31-4.58-1.4-.79-2.15.93-1.55,3.57.27,1.18,1,1.58,1.87,1.01Zm-4.21-.21c1.06-.55,1.42-2.37.75-3.87-.66-1.48-1.98-.73-2.21,1.26-.03.29-.12.86-.18,1.27-.23,1.48.38,1.98,1.64,1.34Zm-25.91-2.72c.17-1.37-.18-3.34-1.33-7.41-.32-1.15-.7-2.65-.83-3.33-.43-2.21-1.09-3.28-.78-1.27.15.98,1.03,5.45,1.21,6.22.1.43.28,1.52.39,2.41.28,2.23.52,3.12,1,3.63.24.26.27.23.34-.27Zm23.53-2.53c.8-.43,1.61-.63,2.59-.63.76,0,1.33.08,3.49.48,2.64.49,4.19.12,4.01-.95-.41-2.42-1.64-2.95-5.42-2.34-2.2.36-3.8.37-4.7.05-.71-.26-.67-.25-1.19-.06-1.9.71-1.82,2.98.13,3.6.26.08.48.15.49.16,0,0,.27-.14.59-.31h0Zm-5.42-5.02c5.96-1.37,7.88-8.82,3.18-12.33-3.11-2.32-5.09-2.45-10.16-.67-1.06.37-1.57.52-1.62.46-.06-.06-.08-.04-.08.05,0,.07-.05.15-.11.18-.23.09-.49.61-.51,1.01,0,.24-.13.67-.32,1.14-2.23,5.54,3.47,11.57,9.62,10.16h0Zm-7.55-4.27c-2.34-.35-2.85-2.35-1.06-4.17,1.3-1.32,2.82-1.44,3.94-.3,2.21,2.26.46,4.97-2.88,4.47Zm29.73,3.17c4.09-.69,6.66-5.39,4.97-9.12-3.95-8.72-18.15-4.53-15.04,4.44,1.33,3.83,4.99,5.54,10.06,4.68h0Zm-7.98-3.62c-1.83-.45-2.42-2.12-1.44-4.05,1.22-2.42,3.84-2.39,5.13.06.78,1.48.6,1.97-.66,1.85-1.14-.11-1.51.05-.95.42.41.27.92.73,1.02.92.31.58-1.79,1.14-3.1.82h0Zm-4.55-26.78c.06-.2.03-.3-.17-.62-1.54-2.42.18-5.79,2.61-5.12.99.28,1,.82.02,2.96-.92,2.02-.85,2.39.46,2.39.93,0,.89.06.97-1.46.22-3.91,1.4-5.23,3.91-4.38.65.22.66.23.86,1.01.75,2.98,1.78,3.82,4.5,3.7,1.93-.09,2.36-.5,3.09-2.95.63-2.09,1.06-2.6,2.36-2.78.31-.04.72-.11.92-.15.82-.17,1.63-.05,1.85.27.18.28.29.15.25-.29q-.04-.38,3-.38c2.92,0,3.04,0,3.12-.15.07-.13.2-.16.92-.19,1.73-.09,2.17-.14,2.3-.25.1-.09.3-.11.9-.1q.76.02.86-.33c.05-.19.17-.54.25-.78.13-.34.17-.72.21-1.88.06-1.58.11-2.09.32-2.97.17-.71.17-5.46,0-7.32-.1-1.16-2.24-1.59-3.82-.78-.26.13-6.6.89-11.5,1.36-4.95.48-11.2.94-14.55,1.07-.89.03-1.44.09-1.58.16-.18.09-.27.09-.63-.03-.28-.09-.69-.13-1.24-.13-.8,0-.82,0-.82-.18,0-.24.02-.23-2.28-.29-18.35-.42-30.65-1.06-37.29-1.92-.77-.1-.85-.1-.85.03,0,.22.63.82,1.13,1.08.63.32.64.47.04.58-.64.12-.63.04-.37,1.46,1.02,5.68,2.51,6.97,5.66,4.88,1.5-1,7.55-1.81,16.24-2.19,6.93-.3,5.37.14-3.73,1.06-4.48.45-6.59.74-8.76,1.21-.47.1-1.11.2-1.41.23-2.63.19-5.15,3.36-3.82,4.82.39.43.96.63,2.04.7.48.03.9.08.94.11.04.03.55.13,1.12.24,1.23.23,1.48.31,1.54.52.04.14.11.16.8.16s.77.02.87.17c.09.14.21.17.71.21.45.03.63.07.73.18.09.09.24.15.43.15.16,0,.32.04.34.08s.23.08.45.08c.31,0,.44.04.59.18.18.17.26.18,1.74.2,1.41.02,1.56.04,1.69.18.14.16.89.23.89.08,0-.27,1.35-.5,3.09-.52,1.25-.01,1.72-.05,2.31-.18.98-.22,1.02-.17.47.73-.13.22-.27.47-.31.56-.04.09-.17.22-.29.27-.12.06-.35.31-.52.56-.24.35-.41.5-.71.64-1.31.62-2.38,1.68-1.69,1.68.18,0,.4.06.51.12.17.11.21.11.42,0,.13-.07.29-.12.35-.12s.25-.22.41-.49c.52-.85,2.69-2.86,2.96-2.75.08.03.14-.01.19-.12.06-.16.12-.17.92-.2,1.01-.03,1.68-.11,1.8-.2.05-.04.29.01.61.13.9.35.97.74.2,1.15-1.37.73-1.6,2.3-.52,3.53.93,1.06,2.5.85,1.61-.22-1.69-2.03-.51-3.73,3.06-4.4,2.28-.42,5.62.3,5,1.08-.53.68-.53,1.62,0,3.8.13.54.24,1.06.24,1.16,0,.32.95.23,1.04-.1h0Zm11.47-2.8c-2.27-.81-2.24-3.31.03-3.25.64.02.77,0,1.19-.19,1.62-.72,3.14.46,2.67,2.08-.28.95-.83,1.31-2.16,1.4-1.23.08-1.4.08-1.73-.04Zm-45.77-25.63c0-.08.12-.3.26-.49.36-.47.52-.8.52-1.08,0-.31-.1-.27,1.77-.67,4.19-.9,5.99-1.13,9.2-1.18,16.93-.28,21.9-.44,27.28-.85q1.37-.11,1.74.49c.81,1.28-1.49,2.12-5.06,1.85-.34-.03-1.98-.06-3.64-.07q-3.01-.02-4.65-.35c-2.39-.48-3.09-.45-3.78.15-.32.28-.22.28-.99,0-1.95-.69-4.37-.73-8.27-.14-1.31.2-2.84.4-3.4.45-2.91.25-5.63.75-9.13,1.69-1.45.39-1.86.43-1.86.2Z"/><path class="i" d="m64.8,118.97c-10.3-.55-15.2-1.36-20.31-3.35-2.22-.87-2.23-.87-2.45-1.62-1.38-4.51-2.81-10.36-4.01-16.34-.7-3.48-.94-4.56-2.33-10.49-3.54-15.05-4.43-21.23-3.25-22.57.29-.33.33-.96.07-1.2-.11-.11-.17-.31-.23-.79-.04-.37-.12-.7-.19-.78-.15-.17-.21-.67-.28-2.35-.04-1.06-.08-1.37-.17-1.42-.16-.1-.24-.03-.24.22,0,.72-.65-1.18-1.02-3.04-1.14-5.69-3.15-10.81-2.3-5.84.14.82.55,2.45,1.16,4.61.52,1.84.81,3.24.9,4.36.3,3.56-1.61-3.6-2.61-9.78-1.37-8.47-1.76-10.48-2.52-12.99-.33-1.09-.17-1.65.71-2.57,1.85-1.93,6.03-3.01,5.73-1.47-.13.63-.97,1.03-3.09,1.47-2.2.45-2.42.83-1.2,2.04.96.95,6.22,1.95,12.31,2.33,1.13.07,2.45.12,9.39.32,9.34.27,17.97.34,20.15.16,2.54-.21,2.83-.21,3.19-.01.29.16.36.17.68.09.34-.08.61-.07,2.44.11.37.04.51,0,.87-.16.37-.17.46-.19.65-.11.44.18,5.85.12,7.62-.08,5.12-.57,11.18-1.97,13.19-3.04.24-.13,1.8-.5,2.81-.68.99-.17,1.61-.32,2.02-.48.69-.27.85,3.37.33,7.28-.29,2.14-.35,2.55-.5,3.25-.09.41-.21.97-.27,1.25-.87,4.04-1.61,12.07-2.32,24.92-.51,9.33-.76,12.79-1.25,17.57-.08.8-.17,1.78-.2,2.19-.23,3.6-.75,7.95-1.65,13.79-.28,1.81-.34,2.37-.3,2.86.38,5.02-1.94,8.76-5.8,9.36-.39.06-1.32.29-2.08.51-3.83,1.11-8.17,1.77-13.88,2.12-3.7.22-8.72.4-9.78.34h0Zm-.34-1.11c.29-.29-.56-.42-4.24-.68-.88-.06-2.04-.17-2.58-.23-2.94-.35-5.27-.37-4.41-.04,1.56.6,10.79,1.38,11.23.95Zm-18.79-4.04c0-.2-1.4-5.8-1.75-7.01-.65-2.24-1.81-5.01-2.1-5.01-.27,0,.4,3.81,1.04,5.95.85,2.82,2.81,7.07,2.81,6.07Zm-2.42-.33c.27-1.25-.12-3.22-1.46-7.31-.74-2.25-1.3-4.25-1.41-5.05-.07-.51-.15-.6-.39-.49-.7.32-.59,1.44.48,4.99.28.92.56,2.03.63,2.46.42,2.78,1.91,6.51,2.15,5.4Zm26.45-11.6c1.25-.79,1.47-2.6.48-4-1.63-2.32-3.31-.04-2.33,3.17.3.97,1.07,1.32,1.85.82h0Zm-4.18-.23c1.36-.7,1.58-3.36.39-4.61-.71-.75-1.75.33-1.94,2.01-.04.35-.11.79-.15.97-.37,1.6.37,2.31,1.69,1.63h0Zm-25.84-2.8c.18-1.18-.2-3.38-1.21-7.01-.39-1.39-.83-3.14-.98-3.88-.36-1.81-.97-3.03-.97-1.95,0,.55.87,5.27,1.29,7.02.11.45.29,1.54.4,2.43.29,2.34.47,3.04.95,3.59.35.41.44.38.53-.19Zm23.47-2.54c1.39-.77,2.56-.81,5.64-.22,4.08.78,5.71-.4,3.68-2.66-.83-.93-1.7-1.03-4.73-.54-2.02.32-3.76.35-4.5.07-.9-.34-1.46-.22-2.15.45-1.18,1.15-.39,2.88,1.47,3.21.01,0,.28-.14.59-.31Zm-5.33-4.96c.86-.22,1.08-.32,2.43-1.13,4.49-2.68,4.5-9.18.01-11.77-.3-.17-.74-.43-.98-.57-2.15-1.27-4.22-1.2-8.37.28-.75.27-1.47.48-1.59.48-.16,0-.24.04-.29.19-.04.1-.1.19-.14.19-.18,0-.56.7-.56,1.02,0,.2-.12.63-.31,1.09-2.25,5.59,3.67,11.77,9.8,10.22h0Zm-7.85-4.43c-2.08-.35-2.47-2.23-.83-3.97,1.27-1.34,2.69-1.47,3.81-.35,2.29,2.3.49,4.9-2.98,4.32h0Zm30.05,3.33c4.97-.99,6.99-6.45,3.97-10.76-4.59-6.54-15.88-2.74-14.53,4.89.81,4.56,5.11,6.95,10.56,5.86Zm-8.03-3.72c-2.17-.43-2.57-3.09-.74-4.93,1.61-1.63,3.91-.69,4.66,1.9.23.81.09.92-1.11.86-1.38-.07-1.49.06-.62.71.69.52.89.78.75.96-.36.43-1.94.7-2.94.5h0Zm.09-18.89c.56-.02,1.14-.06,1.29-.09s.38-.06.51-.07.39-.05.59-.07.48-.06.63-.08c.15-.02.4-.05.55-.08.15-.02.38-.06.51-.08.24-.03,1.02-.17,2.23-.39,5.19-.93,8.81-2.6,12.69-5.86.11-.09.35-.3.54-.45.18-.15.48-.41.66-.59.18-.17.57-.52.86-.78.29-.26.71-.65.94-.86.81-.77,1.67-1.55,2.4-2.17.19-.16.45-.38.58-.49.13-.11.4-.33.6-.49.26-.2.38-.37.42-.55.05-.23.08-.26.29-.23.19.02.26-.02.34-.17.05-.1.15-.22.22-.26.09-.05.12-.19.12-.48,0-.35.03-.42.18-.49.1-.04.19-.15.2-.24s.11-.2.21-.25c.15-.07.2-.17.24-.54.03-.25.08-.49.11-.53.03-.04.09-.22.14-.39.05-.17.15-.51.24-.74.13-.34.17-.72.21-1.88.06-1.58.11-2.09.32-2.97.17-.71.17-5.46,0-7.32-.1-1.16-2.24-1.59-3.82-.78-.26.13-6.6.89-11.5,1.36-3.78.37-8.61.75-12.05.94-.84.05-2.09.12-2.78.16-1.63.1-1.91.1-2.05-.03-.09-.07-.39-.1-1.02-.09-.85.01-.89,0-.85-.14.06-.24-.15-.27-2.37-.33-19.44-.48-30.01-1.02-37.36-1.93-.82-.1-.82-.1-.82.07,0,.24.66.9,1.17,1.17.57.3.59.38.1.44-.77.11-.75,0-.41,1.85,1.01,5.42,2.7,6.78,5.74,4.6.92-.66,6.08-1.55,10.85-1.88,2.08-.14,2.47-.16,5.24-.28,3.2-.14,3.97-.14,3.87-.04-.1.1-2.94.5-5.32.75-6.99.72-7.92.84-10.45,1.33-.75.14-1.69.3-2.07.35-4.19.52-5.63,5.33-1.68,5.62,1.41.1,3.6.62,3.6.85,0,.09.15.11.81.11.74,0,.82.01.92.17.09.14.21.17.71.21.45.03.63.07.73.18.09.09.24.15.43.15.16,0,.32.04.34.08s.23.08.45.08c.31,0,.44.04.59.18.18.17.26.18,1.73.2,1.37.02,1.56.04,1.7.17.21.2.89.24,1.07.07.28-.28,1.5-.48,2.86-.46,1.12.01,2.4-.11,2.94-.28.37-.11-.43,1.46-.82,1.62-.12.05-.22.13-.22.18,0,.28-.49.84-.88,1.03-3.34,1.58-3.4,5.01-.12,7.15,2.12,1.38,2.52,1.62,3.43,2.08,2.14,1.09,4.97,1.97,7.28,2.27.19.03.44.06.55.08.23.04.82.11,1.37.16.22.02.57.05.78.08.22.02.72.05,1.11.06.4.01.74.04.76.06.05.05,5.36.01,6.66-.04ZM33.15,31.35c0-.06.12-.26.26-.45.36-.47.52-.8.52-1.07,0-.17.04-.24.18-.27,3.74-.91,7.49-1.45,10.51-1.5,18.37-.32,22.25-.44,27.43-.85,1.38-.11,1.4-.1,1.73.41.84,1.32-.43,1.78-4.86,1.75-7.07-.05-6.58-.02-8.39-.39-2.39-.48-3.13-.45-3.86.17q-.25.21-1.06-.06c-2.02-.68-4.03-.69-8.4-.05-1.51.22-3.22.43-3.8.48-2.03.15-4.24.56-7.66,1.42-2.21.56-2.59.62-2.59.44Z"/><path class="k" d="m64.8,118.97c-10.3-.55-15.2-1.36-20.31-3.35-2.22-.87-2.23-.87-2.45-1.62-1.38-4.51-2.81-10.36-4.01-16.34-.7-3.48-.94-4.56-2.33-10.49-3.53-15.01-4.43-21.24-3.26-22.56.39-.44.7.08,1.05,1.71,1.96,9.31,5.17,21.49,7.57,28.76.9,2.72.75,2.46,1.4,2.4.68-.06.69-.03.35.76-.63,1.47-.32,2.21,1.66,3.96.84.74.76.96-.29.81-.73-.1-.68-.21-.41.85.13.49.3,1.24.39,1.67,1.38,6.62,2.76,8.97,5.63,9.56,8.85,1.82,18.95,2.13,32.31,1,5.25-.44,9.33-2.07,10.64-4.24.34-.56.35-.54-.21-.59-.9-.09-.88-.31.08-.71,1.41-.59,1.86-1.05,1.83-1.92,0-.38.05-.68.21-1.18.56-1.68.67-2.98.54-6.23-.11-2.74-.08-3.83.15-4.85.35-1.58.53-3.15.84-7.12.21-2.69.36-4.21.55-5.4.17-1.12.26-2.32.39-5.2.14-3.27.23-4.53.44-6.06.25-1.91.3-2.05.76-2.52.66-.66.64-1.13-.09-2.2-1.12-1.64-1.12-2.5,0-3.53.43-.4.44-.97.11-4.74-.35-3.99-.34-5.3.03-5.27.19.02.26-.02.34-.17.05-.1.15-.22.22-.26.09-.05.12-.19.12-.48,0-.35.03-.42.18-.49.1-.04.19-.15.2-.24s.11-.2.21-.25c.15-.07.2-.17.24-.54.03-.25.08-.49.11-.53.03-.04.09-.22.14-.39.05-.17.15-.51.24-.74.13-.34.17-.72.21-1.88.06-1.58.11-2.09.32-2.97.17-.71.17-5.46,0-7.32-.1-1.16-2.24-1.59-3.82-.78-.26.13-6.6.89-11.5,1.36-3.78.37-8.61.75-12.05.94-.84.05-2.09.12-2.78.16-1.63.1-1.91.1-2.05-.03-.09-.07-.39-.1-1.02-.09-.85.01-.89,0-.85-.14.06-.24-.15-.27-2.37-.33-19.44-.48-30.01-1.02-37.36-1.93-.82-.1-.82-.1-.82.07,0,.24.66.9,1.17,1.17.57.3.59.38.1.44-.77.11-.75,0-.41,1.85,1.01,5.42,2.7,6.78,5.74,4.6.92-.66,6.08-1.55,10.85-1.88,2.08-.14,2.47-.16,5.24-.28,3.2-.14,3.97-.14,3.87-.04-.1.1-2.94.5-5.32.75-6.99.72-7.92.84-10.45,1.33-.75.14-1.69.3-2.07.35-4.19.52-5.63,5.33-1.68,5.62.68.05,3.21.53,3.44.65.27.14.2.38-.16.54q-.32.14,0,.35c.27.18.31.24.23.33-.14.17-.21.16-2.55-.52-2.94-.85-3.57-.91-2.77-.27.61.49.53.69-.19.47-.65-.2-.61-.39-.32,1.61.07.49.13,1.03.13,1.19,0,.16.05.53.11.82.3,1.35.32,2.29.06,1.93-.18-.25-.63-1.8-.89-3.08-1.14-5.69-3.15-10.81-2.3-5.84.14.82.55,2.45,1.16,4.61.52,1.84.81,3.24.9,4.36.3,3.56-1.61-3.6-2.61-9.78-1.37-8.47-1.76-10.48-2.52-12.99-.33-1.09-.17-1.65.71-2.57,1.85-1.93,6.03-3.01,5.73-1.47-.13.63-.97,1.03-3.09,1.47-2.2.45-2.42.83-1.2,2.04.96.95,6.22,1.95,12.31,2.33,1.13.07,2.45.12,9.39.32,9.34.27,17.97.34,20.15.16,2.54-.21,2.83-.21,3.19-.01.29.16.36.17.68.09.34-.08.61-.07,2.44.11.37.04.51,0,.87-.16.37-.17.46-.19.65-.11.44.18,5.85.12,7.62-.08,5.12-.57,11.18-1.97,13.19-3.04.24-.13,1.8-.5,2.81-.68.99-.17,1.61-.32,2.02-.48.69-.27.85,3.37.33,7.28-.29,2.14-.35,2.55-.5,3.25-.09.41-.21.97-.27,1.25-.87,4.04-1.61,12.07-2.32,24.92-.51,9.33-.76,12.79-1.25,17.57-.08.8-.17,1.78-.2,2.19-.23,3.6-.75,7.95-1.65,13.79-.28,1.81-.34,2.37-.3,2.86.38,5.02-1.94,8.76-5.8,9.36-.39.06-1.32.29-2.08.51-3.83,1.11-8.17,1.77-13.88,2.12-3.7.22-8.72.4-9.78.34h0Zm-.34-1.11c.29-.29-.56-.42-4.24-.68-.88-.06-2.04-.17-2.58-.23-2.94-.35-5.27-.37-4.41-.04,1.56.6,10.79,1.38,11.23.95Zm-18.79-4.04c0-.2-1.4-5.8-1.75-7.01-.65-2.24-1.81-5.01-2.1-5.01-.27,0,.4,3.81,1.04,5.95.85,2.82,2.81,7.07,2.81,6.07Zm-2.42-.33c.27-1.25-.12-3.22-1.46-7.31-.74-2.25-1.3-4.25-1.41-5.05-.07-.51-.15-.6-.39-.49-.7.32-.59,1.44.48,4.99.28.92.56,2.03.63,2.46.42,2.78,1.91,6.51,2.15,5.4Zm-3.58-14.63c.18-1.18-.2-3.38-1.21-7.01-.39-1.39-.83-3.14-.98-3.88-.36-1.81-.97-3.03-.97-1.95,0,.55.87,5.27,1.29,7.02.11.45.29,1.54.4,2.43.29,2.34.47,3.04.95,3.59.35.41.44.38.53-.19Zm17.18,7.74c-.11-.02-.51-.07-.9-.11-.39-.05-1.85-.31-3.25-.59-2.91-.58-4.4-.81-5.25-.81-.93,0-1.24-.41-.71-.95.39-.39,1.15-.3,3.49.4,1.6.48,2.8.77,3.52.86.3.03.9.14,1.33.23.64.14,5.22.71,5.68.71.07,0,.15.07.17.16.04.15-3.22.23-4.09.11h0Zm7.39-3.5c-1.04-.49-1.42-1.23-1.64-3.2-.3-2.65-.71-3.24-2.55-3.62-.44-.09-.5-1.51-.11-2.37.41-.91,1.36-1.95,2.89-3.19.42-.34,1-.84,1.27-1.11.61-.59.69-.61,2.25-.6,3.5.02,7.08,2.79,8.17,6.32.29.93.26.98-1.28,1.97-1.91,1.23-2.31,1.86-2.08,3.23.37,2.11-.59,2.77-3.1,2.12-1.67-.43-2.44-.33-2.99.38-.23.3-.33.31-.84.07h0Zm5.45-1.21c1.25-.79,1.47-2.6.48-4-1.63-2.32-3.31-.04-2.33,3.17.3.97,1.07,1.32,1.85.82Zm-4.18-.23c1.36-.7,1.58-3.36.39-4.61-.71-.75-1.75.33-1.94,2.01-.04.35-.11.79-.15.97-.37,1.6.37,2.31,1.69,1.63h0Zm-2.37-5.33c1.39-.77,2.56-.81,5.64-.22,4.08.78,5.71-.4,3.68-2.66-.83-.93-1.7-1.03-4.73-.54-2.02.32-3.76.35-4.5.07-.9-.34-1.46-.22-2.15.45-1.18,1.15-.39,2.88,1.47,3.21.01,0,.28-.14.59-.31Zm-9.11-3.84c-5.49-.93-9.24-7.03-7.04-11.46.91-1.84,1.78-1.74,1.03.12-2.43,6.02,5.02,12.77,10.88,9.86,5.72-2.84,6.46-9.6,1.36-12.54-.3-.17-.74-.43-.98-.57-2.14-1.26-4.2-1.2-8.33.26-1.31.46-1.47.51-1.66.49-.17-.02-.11-.12.39-.64,4.59-4.76,14.54-1.35,15.16,5.19.54,5.73-4.78,10.31-10.8,9.29h0Zm22.78-.6c-6.91-.7-11.08-7.32-7.84-12.46,4.32-6.84,14.26-5.93,17.11,1.55,2.12,5.56-2.96,11.54-9.27,10.91Zm3.21-1.63c4.97-.99,6.99-6.45,3.97-10.76-4.59-6.54-15.88-2.74-14.53,4.89.81,4.56,5.11,6.95,10.56,5.86Zm-8.03-3.72c-2.17-.43-2.57-3.09-.74-4.93,1.61-1.63,3.91-.69,4.66,1.9.23.81.09.92-1.11.86-1.38-.07-1.49.06-.62.71.69.52.89.78.75.96-.36.43-1.94.7-2.94.5h0Zm-22.03.39c-2.08-.35-2.47-2.23-.83-3.97,1.27-1.34,2.69-1.47,3.81-.35,2.29,2.3.49,4.9-2.98,4.32h0Zm-16.82-55.59c0-.06.12-.26.26-.45.36-.47.52-.8.52-1.07,0-.17.04-.24.18-.27,3.74-.91,7.49-1.45,10.51-1.5,18.37-.32,22.25-.44,27.43-.85,1.38-.11,1.4-.1,1.73.41.84,1.32-.43,1.78-4.86,1.75-7.07-.05-6.58-.02-8.39-.39-2.39-.48-3.13-.45-3.86.17q-.25.21-1.06-.06c-2.02-.68-4.03-.69-8.4-.05-1.51.22-3.22.43-3.8.48-2.03.15-4.24.56-7.66,1.42-2.21.56-2.59.62-2.59.44Z"/><path class="j" d="m64.68,118.95c-10.23-.56-15.32-1.42-20.36-3.44-2.06-.82-2.02-.8-2.24-1.49-1.22-3.91-2.79-10.32-4.05-16.54-.73-3.62-1-4.83-2.39-10.73-3.45-14.64-4.48-22.15-3.05-22.15.34,0,.44.29,1.06,3.09,2.52,11.29,5.29,21.66,7.55,28.27.64,1.87.54,1.73,1.14,1.68.63-.05.63-.06.31.67-.57,1.3-.22,2.19,1.5,3.74.97.88.96.98-.03.83-.78-.11-.77-.13-.58.58.09.32.34,1.38.56,2.37,1.46,6.61,2.78,8.78,5.7,9.38,8.7,1.79,19.61,2.09,33.12.91,4.69-.41,8.99-2.3,10.05-4.42.23-.47.22-.49-.29-.55-.81-.1-.8-.16.1-.55,1.34-.58,1.76-1.02,1.77-1.87,0-.39.08-.79.25-1.31.53-1.64.65-3.22.5-6.37-.11-2.4-.09-3.36.13-4.42.37-1.81.56-3.43.91-7.98.11-1.4.3-3.32.43-4.26.24-1.81.36-3.15.43-4.89.2-4.92.35-6.67.71-8.41.1-.47.16-.6.5-.95.73-.77.71-1.18-.15-2.48-1.02-1.55-1.02-2.1,0-3.21.47-.52.5-1.44.16-5.29-.25-2.86-.25-4.72,0-4.78.11-.03.24-.13.29-.23.05-.1.15-.22.22-.25.09-.05.12-.18.12-.45,0-.35.02-.39.23-.46.13-.05.23-.14.23-.2s.08-.16.19-.21c.22-.1.4-.59.34-.91-.05-.24.05-.68.32-1.42.12-.34.17-.72.21-1.88.06-1.58.11-2.09.32-2.97.17-.71.17-5.46,0-7.32-.1-1.16-2.24-1.59-3.82-.78-.26.13-6.6.89-11.5,1.36-4.94.48-11.17.94-14.55,1.07-.75.03-1.44.08-1.52.11-.08.03-.33,0-.55-.06-.74-.2-1.02-.24-1.55-.2-.5.04-.53.04-.53-.13,0-.26.75-.22-12.29-.6-11.9-.34-19.1-.74-25.31-1.41-3.29-.35-3.25-.36-2.94.16.22.36.63.7,1.1.95.47.24.45.31-.13.39-.56.07-.56.03-.27,1.62,1.03,5.72,2.58,7.03,5.8,4.9,1.07-.71,5.84-1.53,10.91-1.89,3.18-.22,8.43-.42,8.32-.32-.11.11-3.08.47-7.42.9-3.8.38-6.23.72-7.94,1.11-.39.09-1.01.19-1.38.22-4.56.41-6.3,5.53-1.99,5.86.48.04.92.09.99.11s.58.13,1.15.24c1.46.27,1.61.38.92.68q-.42.18-.01.44c.53.34.18.31-1.23-.1-3.95-1.16-4.79-1.24-3.82-.39.46.4.43.47-.12.3-.29-.08-.44-.1-.5-.04-.09.09.11,1.64.68,5.3.19,1.25-.54-.6-.83-2.08-.89-4.61-2.3-9-2.69-8.38-.18.29.34,2.97,1.13,5.8.81,2.89,1.17,4.67,1.17,5.74,0,1.78-1.74-5.21-2.58-10.32-.17-1.08-.51-3.14-.74-4.58-.5-3.09-.86-4.93-1.34-6.81-.46-1.81-.44-1.75-.53-1.87-.31-.4.02-1.49.69-2.25,1.61-1.84,5.76-3.01,5.76-1.62,0,.61-.88,1.03-3.17,1.51-2.15.45-2.34.83-1.07,2.13.41.42.58.48,2.52.95,3.9.94,7.9,1.35,15.02,1.53,1.7.04,4.25.12,5.67.16,7.33.23,15.59.3,17.96.15,3.01-.18,3.58-.19,3.91-.04.27.12.36.13.66.04.19-.05.39-.07.44-.04.05.03.42.09.81.12.39.04.88.09,1.08.11.38.05.98-.11,1.24-.33.1-.08.17-.09.35-.02.44.18,5.85.12,7.62-.08,5.12-.57,11.18-1.97,13.19-3.04.24-.13,1.79-.5,2.81-.68,1.17-.21,1.49-.28,1.9-.44.31-.12.44-.14.5-.08.22.22.26,4.66.06,6.08-.04.3-.15,1.13-.24,1.84s-.31,2.07-.51,3.01c-.29,1.43-.72,3.99-.87,5.13-.64,5.03-1.08,10.53-1.56,19.21-.58,10.64-.79,13.64-1.33,19.02-.1,1.03-.21,2.25-.24,2.7-.19,3.17-.73,7.61-1.61,13.32-.26,1.69-.31,2.2-.31,3.22,0,5.43-1.95,8.41-5.87,8.97-.32.05-.91.19-1.32.32-4.2,1.35-10.34,2.19-17.77,2.46-.71.03-1.7.08-2.19.12-1.31.11-3.33.14-4.46.08Zm-.26-1.02c.79-.3-.47-.54-4.2-.78-.67-.04-1.82-.15-2.56-.23-3.24-.37-5.26-.38-4.59-.02,1.12.6,10.29,1.43,11.35,1.03h0Zm-18.68-3.99c0-1.37-2.64-10.04-3.57-11.72-1.03-1.85-.05,3.89,1.25,7.38,1.01,2.69,2.32,5.15,2.32,4.34Zm-2.42-.82c.04-1.85-.18-2.87-1.46-6.81-.9-2.76-1.13-3.6-1.37-4.8-.21-1.06-.31-1.17-.69-.77-.52.55-.42,1.42.53,4.6.56,1.88.73,2.58.82,3.39.15,1.37,1.25,4.35,1.83,4.99.19.22.33-.02.34-.61h0Zm-3.66-13.86c.33-.85-.1-3.59-1.14-7.3-.69-2.47-.93-3.45-1.12-4.51-.2-1.14-.78-2.2-.94-1.7-.09.27.94,6.05,1.32,7.45.07.24.21,1.15.32,2.03.39,3.08,1.15,5.07,1.55,4.02h0Zm17.5,7.27c-.79-.06-2.66-.37-4.58-.77-2.43-.5-3.32-.64-4.77-.77q-1.1-.09-1.12-.33c-.08-.8.75-.8,3.43,0,2.03.6,2.62.75,3.25.8.3.03.81.11,1.13.2.63.16,2.13.37,4.03.57,1.64.17,1.84.21,1.64.28-.15.06-2.3.07-3.01.02h0Zm7.08-3.56c-.99-.51-1.32-1.22-1.56-3.31-.18-1.61-.34-2.11-.8-2.62-.35-.38-.91-.69-1.4-.75-1.75-.24-.63-2.89,2.23-5.27.54-.45,1.21-1.03,1.5-1.3.61-.57.79-.62,2.14-.6,3.36.04,6.89,2.77,8.02,6.22.3.92.32.9-1.34,1.98-1.87,1.21-2.28,1.97-1.93,3.57.35,1.61-.85,2.31-2.9,1.68-1.45-.44-2.66-.3-3.15.36-.2.27-.38.28-.8.06h0Zm5.18-.89c2.19-.91,1.46-5.59-.8-5.17-1.31.25-1.53,4.2-.28,5.02.41.27.7.31,1.08.14Zm-3.97-.36c1.46-.63,1.72-3.62.42-4.76-.63-.55-1.66.33-1.86,1.6-.02.13-.11.67-.2,1.19-.34,2.08.11,2.63,1.64,1.97h0Zm-2.24-5.38c1.34-.73,2.51-.78,5.35-.23,2.84.55,4.8.32,4.73-.57-.07-.91-.46-1.85-.95-2.28-.94-.82-1.72-.86-5.64-.25-1.57.24-3.18.14-3.93-.25-.47-.24-1.62.32-2.04,1-.95,1.55.87,3.45,2.47,2.58h0Zm-8.9-3.92c-5.87-.92-9.83-7.68-6.94-11.84.86-1.23,1.18-.94.61.54-2.45,6.28,5.06,12.91,11.14,9.82,5.77-2.93,6.19-9.75.77-12.72-.36-.2-.83-.46-1.04-.58-1.8-1.04-4.09-.86-8.28.64-1.42.51-1.46.49-.62-.33,3.05-3,9.12-2.57,12.55.89,5.57,5.61-.01,14.89-8.18,13.6Zm22.73-.63c-6.56-.56-10.89-6.58-8.35-11.61,3.95-7.83,15.17-6.61,17.61,1.91,1.38,4.81-3.73,10.17-9.26,9.7Zm1.19-1.33c6.75.19,9.68-7.39,4.72-12.23-3.55-3.47-10.61-2.41-12.86,1.91-2.42,4.66,1.39,10.7,6.53,10.35.43-.03,1.16-.04,1.62-.03Zm-6.49-4.01c-1.68-.53-2.12-2.39-.98-4.16,1.47-2.28,4.07-1.75,5.02,1.02.34.98.23,1.1-.9,1.02-1.42-.1-1.69.11-.88.69.95.68,1.12.97.69,1.19-.64.33-2.25.46-2.96.24h0Zm-21.27.51c-2.1-.21-2.83-1.31-1.99-3.02.97-1.96,3.15-2.6,4.44-1.3,2.11,2.13.69,4.62-2.45,4.31Zm-17.29-55.56s.11-.28.31-.54c.37-.5.51-.78.51-1.07,0-.17.09-.2,1.98-.58,5.32-1.09,4.56-1.03,17.27-1.26,9.7-.17,14.81-.37,19.01-.72,1.14-.1,1.44.04,1.64.75.32,1.16-.6,1.34-6.8,1.32-5.27-.02-4.43.05-7.67-.58-1.36-.26-2.3-.13-2.77.39-.19.21-.26.21-.92-.03-1.17-.42-2-.54-3.78-.54-1.71,0-1.92.02-5.6.57-.88.13-2.08.27-2.66.32-2.52.2-5.14.69-9.07,1.72-1.29.34-1.38.35-1.45.24Z"/></svg>