<?xml version="1.0" encoding="UTF-8"?>
<svg id="Ebene_1" data-name="Ebene 1" xmlns="http://www.w3.org/2000/svg" viewBox="0 0 256 256">
  <defs>
    <style>
      .cls-1 {
        fill: #fff;
      }

      .cls-2 {
        fill: #de4c36;
      }
    </style>
  </defs>
  <g id="Ebene_2" data-name="Ebene 2">
    <path class="cls-2" d="m45,0h166c24.85,0,45,20.15,45,45v166c0,24.85-20.15,45-45,45H45c-24.85,0-45-20.15-45-45V45C0,20.15,20.15,0,45,0Z"/>
  </g>
  <path class="cls-1" d="m224.23,119.09L136.91,31.77c-5.03-5.03-13.18-5.03-18.21,0l-18.13,18.13,23,23c5.35-1.81,11.48-.59,15.74,3.67,4.28,4.29,5.48,10.47,3.63,15.83l22.17,22.17c5.36-1.85,11.55-.65,15.84,3.64,5.99,5.98,5.99,15.68,0,21.67-5.99,5.99-15.69,5.99-21.68,0-4.5-4.51-5.62-11.12-3.34-16.67l-20.67-20.67v54.4c1.5.74,2.87,1.72,4.05,2.9,5.99,5.98,5.99,15.68,0,21.68-5.99,5.99-15.69,5.99-21.67,0-5.99-5.99-5.99-15.69,0-21.68,1.43-1.44,3.14-2.57,5.02-3.34v-54.91c-1.88-.77-3.59-1.9-5.02-3.34-4.54-4.53-5.63-11.19-3.3-16.75l-22.68-22.68-59.88,59.87c-5.03,5.03-5.03,13.19,0,18.22l87.33,87.32c5.03,5.03,13.18,5.03,18.22,0l86.92-86.91c5.03-5.03,5.03-13.19,0-18.22"/>
</svg>