<?xml version="1.0" encoding="UTF-8"?><svg id="a" xmlns="http://www.w3.org/2000/svg" viewBox="0 0 128 128"><defs><style>.b{fill:#fff;}.c{fill:#de4c36;}</style></defs><rect class="c" x="0" y="0" width="128" height="128" rx="25" ry="25" transform="translate(128 0) rotate(90)"/><path class="b" d="m112.11,59.55L68.45,15.89c-2.51-2.51-6.59-2.51-9.11,0l-9.07,9.07,11.5,11.5c2.67-.9,5.74-.3,7.87,1.83,2.14,2.14,2.74,5.23,1.82,7.92l11.08,11.08c2.68-.92,5.78-.33,7.92,1.82,2.99,2.99,2.99,7.84,0,10.84-2.99,2.99-7.84,2.99-10.84,0-2.25-2.25-2.81-5.56-1.67-8.33l-10.34-10.34v27.2c.73.36,1.42.84,2.03,1.45,2.99,2.99,2.99,7.84,0,10.84-2.99,2.99-7.85,2.99-10.84,0-2.99-3-2.99-7.85,0-10.84.74-.74,1.6-1.3,2.51-1.67v-27.46c-.91-.37-1.77-.93-2.51-1.67-2.27-2.26-2.81-5.59-1.65-8.38l-11.34-11.34-29.94,29.94c-2.52,2.52-2.52,6.6,0,9.11l43.66,43.66c2.51,2.51,6.59,2.51,9.11,0l43.46-43.46c2.51-2.52,2.51-6.6,0-9.11"/></svg>