<?xml version="1.0" encoding="UTF-8"?>
<svg id="Ebene_1" data-name="Ebene 1" xmlns="http://www.w3.org/2000/svg" viewBox="0 0 256 256">
  <defs>
    <style>
      .cls-1 {
        fill: #ff8080;
      }

      .cls-2 {
        fill: #ffe680;
      }

      .cls-3 {
        fill: #27282c;
      }

      .cls-4 {
        fill: #8dd35f;
      }

      .cls-5 {
        fill: #80b3ff;
      }
    </style>
  </defs>
  <g id="Ebene_2" data-name="Ebene 2">
    <path class="cls-3" d="m45,0h166c24.85,0,45,20.15,45,45v166c0,24.85-20.15,45-45,45H45c-24.85,0-45-20.15-45-45V45C0,20.15,20.15,0,45,0Z"/>
  </g>
  <g>
    <path class="cls-1" d="m121.45,97.54v20.65l-49.55-49.53,16.46-16.46,25,25.01c-.67,1.81-1.01,3.72-1,5.64-.02,6.23,3.51,11.93,9.1,14.68Zm15.19,2.98l7.7,7.7-7.7,7.72v-15.42Zm47.13-31.7l-29.77,29.74-10.02-9.99c.91-2.45,1.22-5.09.89-7.69-1.04-7.86-7.53-13.87-15.45-14.28-2.18-.11-4.36.22-6.4.99l-25.01-25.1,21.2-21.13c4.72-4.74,12.39-4.74,17.13-.02,0,0,.01.01.02.02l47.43,47.46Z"/>
    <path class="cls-5" d="m111.61,137.16l-45.03,45.03-44.68-44.25c-5.26-5.47-5.19-14.13.15-19.52l46.08-46.08,43.48,43.63c5.84,5.86,5.84,15.34,0,21.2Z"/>
    <path class="cls-2" d="m136.72,142.53v18.91c5.62,3.34,8.55,9.84,7.34,16.26-1.11,6.26-5.97,11.19-12.21,12.39-8.41,1.84-16.71-3.49-18.55-11.9-1.51-6.92,1.84-14,8.15-17.21v-20.9c-.08-.9-.89-1.57-1.79-1.49-.33.03-.64.16-.89.37l-47.18,47.17,48.55,48.55c4.71,4.7,12.34,4.7,17.05,0l45.8-45.72-46.26-46.42Z"/>
    <path class="cls-4" d="m233.06,140.32l-43.68,43.69-47.03-47.03c-5.5-5.5-5.5-14.41,0-19.91l5.41-5.46,12,11.96c-3.12,8.46,1.22,17.85,9.68,20.96,8.46,3.12,17.85-1.22,20.96-9.68,3.12-8.46-1.22-17.85-9.68-20.96-3.64-1.34-7.64-1.34-11.28,0l-11.93-11.91,30.51-30.49,45.04,45.06c6.57,6.53,6.6,17.15.06,23.72-.02.02-.04.04-.06.06Z"/>
  </g>
</svg>