<?xml version="1.0" encoding="UTF-8" standalone="no"?>
<!DOCTYPE svg PUBLIC "-//W3C//DTD SVG 1.1//EN" "http://www.w3.org/Graphics/SVG/1.1/DTD/svg11.dtd">
<!-- Created with Vectornator (http://vectornator.io/) -->
<svg height="100%" stroke-miterlimit="10" style="fill-rule:nonzero;clip-rule:evenodd;stroke-linecap:round;stroke-linejoin:round;" version="1.1" viewBox="0 0 512 512" width="100%" xml:space="preserve" xmlns="http://www.w3.org/2000/svg" xmlns:vectornator="http://vectornator.io" xmlns:xlink="http://www.w3.org/1999/xlink">
<defs/>
<g id="Ebene-1" vectornator:layerName="Ebene 1">
<path d="M2.84217e-14 95C2.84217e-14 42.5329 42.5329 0 95 0L417 0C469.467 0 512 42.5329 512 95L512 417C512 469.467 469.467 512 417 512L95 512C42.5329 512 2.84217e-14 469.467 2.84217e-14 417L2.84217e-14 95Z" fill="#28334c" fill-rule="nonzero" opacity="1" stroke="none" vectornator:layerName="Rechteck 1"/>
</g>
<g id="Ebene-2" vectornator:layerName="Ebene 2">
<g opacity="1" vectornator:layerName="git-bash.svg">
<path d="M246.098 209.973L246.098 241.178L171.231 166.335L196.095 141.471L233.865 179.265C232.851 181.994 232.337 184.882 232.348 187.793C232.319 197.206 237.655 205.812 246.098 209.973ZM269.048 214.473L280.685 226.11L269.048 237.771L269.048 214.473ZM340.26 166.584L295.28 211.514L280.138 196.421C281.518 192.716 281.979 188.732 281.48 184.81C279.915 172.929 270.099 163.855 258.133 163.227C254.84 163.054 251.547 163.562 248.46 164.719L210.666 126.8L242.692 94.8742C246.125 91.4336 250.786 89.5 255.646 89.5C260.507 89.5 265.167 91.4336 268.601 94.8742L340.26 166.584Z" fill="#ff8080" fill-rule="nonzero" opacity="1" stroke="none" vectornator:layerName="path"/>
<path d="M231.229 269.847L163.199 337.876L95.692 271.015C87.7501 262.754 87.8494 249.665 95.9158 241.526L165.537 171.905L231.229 237.821C240.056 246.672 240.056 260.996 231.229 269.847Z" fill="#80b3ff" fill-rule="nonzero" opacity="1" stroke="none" vectornator:layerName="path"/>
<path d="M269.172 277.952L269.172 306.522C277.659 311.571 282.089 321.383 280.262 331.088C278.589 340.551 271.249 347.999 261.813 349.811C250.243 352.339 238.596 345.881 234.612 334.729C230.627 323.577 235.546 311.201 246.098 305.826L246.098 274.248C246.013 273.332 245.428 272.538 244.58 272.184C243.731 271.83 242.756 271.973 242.045 272.557L170.758 343.819L244.109 417.169C251.225 424.277 262.753 424.277 269.869 417.169L339.067 348.096L269.172 277.952Z" fill="#ffe680" fill-rule="nonzero" opacity="1" stroke="none" vectornator:layerName="path"/>
<path d="M414.73 274.621L348.739 340.636L277.676 269.573C269.374 261.263 269.374 247.797 277.676 239.487L285.857 231.232L303.983 249.308C299.979 260.178 304.079 272.369 313.836 278.611C323.593 284.853 336.379 283.465 344.57 275.275C352.76 267.084 354.148 254.298 347.906 244.541C341.663 234.784 329.473 230.685 318.603 234.688L300.576 216.686L346.675 170.612L414.73 238.691C419.511 243.447 422.2 249.912 422.2 256.656C422.2 263.4 419.511 269.865 414.73 274.621Z" fill="#8dd35f" fill-rule="nonzero" opacity="1" stroke="none" vectornator:layerName="path"/>
</g>
</g>
</svg>
