<?xml version="1.0" encoding="UTF-8" standalone="no"?>
<!DOCTYPE svg PUBLIC "-//W3C//DTD SVG 1.1//EN" "http://www.w3.org/Graphics/SVG/1.1/DTD/svg11.dtd">
<!-- Created with Vectornator (http://vectornator.io/) -->
<svg height="100%" stroke-miterlimit="10" style="fill-rule:nonzero;clip-rule:evenodd;stroke-linecap:round;stroke-linejoin:round;" version="1.1" viewBox="0 0 1024 1024" width="100%" xml:space="preserve" xmlns="http://www.w3.org/2000/svg" xmlns:vectornator="http://vectornator.io" xmlns:xlink="http://www.w3.org/1999/xlink">
<defs>
<linearGradient gradientTransform="matrix(-1.83697e-16 -1 1 -1.83697e-16 2.27374e-13 1024)" gradientUnits="userSpaceOnUse" id="LinearGradient" x1="1.06581e-13" x2="1024" y1="512" y2="512">
<stop offset="0" stop-color="#414f62"/>
<stop offset="1" stop-color="#8e99b9"/>
</linearGradient>
</defs>
<clipPath id="ArtboardFrame">
<rect height="1024" width="1024" x="0" y="0"/>
</clipPath>
<g clip-path="url(#ArtboardFrame)" id="Ebene-1" vectornator:layerName="Ebene 1">
<path d="M160 1024C71.6344 1024 4.54747e-13 952.366 4.54747e-13 864L4.54747e-13 160C2.27374e-13 71.6344 71.6344-2.27374e-13 160-4.54747e-13L864-4.54747e-13C952.366-4.54747e-13 1024 71.6344 1024 160L1024 864C1024 952.366 952.366 1024 864 1024L160 1024Z" fill="url(#LinearGradient)" fill-rule="nonzero" opacity="1" stroke="none" vectornator:layerName="Rechteck 1"/>
</g>
<g id="Ebene-2" vectornator:layerName="Ebene 2">
<g opacity="1" vectornator:layerName="GitHub">
<path d="M394.462 877.511C406.054 872.522 414.174 860.995 414.174 847.576L414.174 759.533C414.174 756.321 414.435 752.978 414.842 749.587C414.614 749.652 414.402 749.701 414.174 749.75C414.174 749.75 365.261 749.75 355.478 749.75C331.022 749.75 309.826 739.967 300.043 720.402C288.63 699.207 283.739 663.337 254.391 643.772C249.5 640.511 252.761 635.62 262.543 635.62C272.326 637.25 293.522 650.293 306.565 668.228C321.239 686.163 335.913 700.837 362 700.837C402.549 700.837 424.283 698.799 437.359 691.788C452.587 669.141 473.668 651.924 495.696 651.924L495.696 651.516C403.283 648.549 344.245 617.832 316.755 570.402C257 571.087 204.973 577.005 175.283 581.929C174.337 576.598 173.522 571.234 172.821 565.837C202.12 561.011 251.783 555.288 308.88 554.196C307.054 549.696 305.473 545.082 304.136 540.353C246.891 537.451 197.489 539.717 170.652 541.935C170.326 536.522 169.886 531.125 169.821 525.647C196.707 523.446 244.772 521.245 300.549 523.837C299.261 515.685 298.429 507.353 298.429 498.679C298.429 470.962 308.212 441.614 326.147 417.158C317.995 389.44 306.582 330.745 329.408 309.549C373.429 309.549 404.408 330.745 419.082 343.788C446.783 332.359 477.761 325.837 512 325.837C546.239 325.837 577.217 332.359 603.304 343.772C617.978 330.728 648.957 309.533 692.978 309.533C717.435 332.359 704.391 391.054 696.239 417.141C714.174 441.598 723.957 469.315 722.326 498.663C722.326 506.554 721.592 514.168 720.533 521.636C777.582 518.832 826.951 521.082 854.293 523.299C854.261 528.793 853.755 534.158 853.462 539.587C826.217 537.337 775.609 535.022 717.174 538.136C715.723 543.614 713.962 548.946 711.875 554.114C769.69 554.864 820.543 560.457 851.245 565.348C850.543 570.761 849.728 576.125 848.783 581.44C817.609 576.451 764.473 570.614 704.016 570.321C676.87 617.245 618.908 647.848 528.304 651.418L528.304 651.924C570.696 651.924 609.826 715.511 609.826 759.533L609.826 847.576C609.826 860.995 617.946 872.522 629.538 877.511C778.902 828.076 887 687.207 887 521.489C887 314.717 718.788 146.489 512 146.489C305.212 146.489 137 314.717 137 521.489C137 687.207 245.098 828.076 394.462 877.511Z" fill="#000000" fill-rule="nonzero" opacity="1" stroke="none" vectornator:layerName="path"/>
</g>
</g>
</svg>
