<?xml version="1.0" encoding="UTF-8" standalone="no"?>
<!DOCTYPE svg PUBLIC "-//W3C//DTD SVG 1.1//EN" "http://www.w3.org/Graphics/SVG/1.1/DTD/svg11.dtd">
<!-- Created with Vectornator (http://vectornator.io/) -->
<svg height="100%" stroke-miterlimit="10" style="fill-rule:nonzero;clip-rule:evenodd;stroke-linecap:round;stroke-linejoin:round;" version="1.1" viewBox="0 0 512 512" width="100%" xml:space="preserve" xmlns="http://www.w3.org/2000/svg" xmlns:vectornator="http://vectornator.io" xmlns:xlink="http://www.w3.org/1999/xlink">
<defs/>
<g id="Ebene-1" vectornator:layerName="Ebene 1">
<path d="M2.84217e-14 95C2.84217e-14 42.5329 42.5329 0 95 0L417 0C469.467 0 512 42.5329 512 95L512 417C512 469.467 469.467 512 417 512L95 512C42.5329 512 2.84217e-14 469.467 2.84217e-14 417L2.84217e-14 95Z" fill="#161614" fill-rule="nonzero" opacity="1" stroke="none" vectornator:layerName="Rechteck 1"/>
<g opacity="1" vectornator:layerName="g">
<path d="M256.001 60.9371C145.558 60.9371 56 150.479 56 260.938C56 349.305 113.306 424.273 192.773 450.719C202.768 452.57 206.439 446.381 206.439 441.098C206.439 436.329 206.252 420.573 206.167 403.861C150.525 415.96 138.785 380.264 138.785 380.264C129.687 357.146 116.578 351.001 116.578 351.001C98.433 338.587 117.946 338.841 117.946 338.841C138.03 340.253 148.605 359.452 148.605 359.452C166.443 390.028 195.393 381.188 206.806 376.079C208.6 363.151 213.784 354.329 219.503 349.335C175.081 344.276 128.382 327.127 128.382 250.493C128.382 228.658 136.195 210.816 148.99 196.81C146.913 191.772 140.068 171.43 150.927 143.882C150.927 143.882 167.722 138.506 205.941 164.383C221.894 159.95 239.004 157.729 256.001 157.654C272.998 157.729 290.12 159.95 306.104 164.383C344.278 138.506 361.05 143.882 361.05 143.882C371.936 171.43 365.087 191.772 363.01 196.81C375.833 210.816 383.593 228.657 383.593 250.493C383.593 327.309 336.806 344.224 292.271 349.175C299.444 355.382 305.836 367.554 305.836 386.212C305.836 412.972 305.604 434.51 305.604 441.098C305.604 446.42 309.204 452.657 319.343 450.693C398.766 424.217 456 349.275 456 260.938C456 150.479 366.455 60.9371 256.001 60.9371" fill="#ffffff" fill-rule="nonzero" opacity="1" stroke="none" vectornator:layerName="path"/>
<path d="M130.907 345.843C130.468 346.836 128.903 347.134 127.48 346.453C126.029 345.801 125.213 344.446 125.684 343.448C126.115 342.425 127.681 342.14 129.128 342.827C130.582 343.478 131.411 344.845 130.907 345.843M140.745 354.621C139.792 355.506 137.927 355.095 136.661 353.697C135.352 352.302 135.108 350.439 136.076 349.54C137.059 348.657 138.868 349.07 140.179 350.466C141.487 351.876 141.741 353.728 140.744 354.622M147.495 365.852C146.268 366.704 144.264 365.905 143.026 364.126C141.801 362.349 141.801 360.216 143.053 359.361C144.295 358.506 146.268 359.275 147.523 361.039C148.747 362.848 148.747 364.981 147.493 365.853M158.908 378.86C157.811 380.068 155.477 379.745 153.768 378.095C152.02 376.482 151.532 374.193 152.632 372.984C153.741 371.773 156.089 372.114 157.811 373.75C159.548 375.359 160.078 377.665 158.909 378.86M173.659 383.252C173.177 384.817 170.928 385.53 168.663 384.864C166.401 384.179 164.92 382.344 165.377 380.761C165.847 379.185 168.106 378.443 170.388 379.155C172.647 379.837 174.131 381.658 173.66 383.252M190.449 385.114C190.505 386.764 188.584 388.132 186.206 388.162C183.814 388.213 181.879 386.879 181.854 385.257C181.854 383.591 183.732 382.236 186.122 382.196C188.5 382.149 190.449 383.475 190.449 385.114M206.941 384.482C207.226 386.091 205.573 387.744 203.212 388.184C200.891 388.607 198.742 387.614 198.445 386.019C198.157 384.369 199.841 382.717 202.158 382.289C204.523 381.878 206.639 382.846 206.941 384.482" fill="#ffffff" fill-rule="nonzero" opacity="1" stroke="none" vectornator:layerName="path"/>
</g>
</g>
</svg>
