<?xml version="1.0" encoding="UTF-8"?><svg id="a" xmlns="http://www.w3.org/2000/svg" viewBox="0 0 128 128"><defs><style>.b{fill:#161614;}.c{fill:#fff;}</style></defs><rect class="b" x="0" y="0" width="128" height="128" rx="25" ry="25" transform="translate(128 0) rotate(90)"/><path class="c" d="m64,15.23c-27.61,0-50,22.39-50,50,0,22.09,14.33,40.83,34.19,47.45,2.5.46,3.42-1.08,3.42-2.41,0-1.19-.05-5.13-.07-9.31-13.91,3.02-16.85-5.9-16.85-5.9-2.27-5.78-5.55-7.32-5.55-7.32-4.54-3.1.34-3.04.34-3.04,5.02.35,7.66,5.15,7.66,5.15,4.46,7.64,11.7,5.43,14.55,4.16.45-3.23,1.74-5.44,3.17-6.69-11.11-1.26-22.78-5.55-22.78-24.71,0-5.46,1.95-9.92,5.15-13.42-.52-1.26-2.23-6.34.48-13.23,0,0,4.2-1.34,13.75,5.13,3.99-1.11,8.27-1.66,12.52-1.68,4.25.02,8.53.57,12.53,1.68,9.54-6.47,13.74-5.13,13.74-5.13,2.72,6.89,1.01,11.97.49,13.23,3.21,3.5,5.15,7.96,5.15,13.42,0,19.2-11.7,23.43-22.83,24.67,1.79,1.55,3.39,4.59,3.39,9.26,0,6.69-.06,12.07-.06,13.72,0,1.33.9,2.89,3.43,2.4,19.86-6.62,34.16-25.35,34.16-47.44,0-27.61-22.39-50-50-50Zm-31.27,71.23c-.11.25-.5.32-.86.15-.36-.16-.57-.5-.45-.75.11-.26.5-.33.86-.16.36.16.57.51.44.75Zm2.46,2.19c-.24.22-.7.12-1.02-.23-.33-.35-.39-.81-.15-1.04.25-.22.7-.12,1.03.23.33.35.39.82.14,1.04Zm1.69,2.81c-.31.21-.81.01-1.12-.43-.31-.44-.31-.98,0-1.19.31-.21.8-.02,1.12.42.31.45.31.99,0,1.2Zm2.85,3.25c-.27.3-.86.22-1.29-.19-.44-.4-.56-.98-.28-1.28.28-.3.86-.22,1.29.19.43.4.57.98.27,1.28Zm3.69,1.1c-.12.39-.68.57-1.25.4-.57-.17-.94-.63-.82-1.03.12-.39.68-.58,1.25-.4.56.17.94.63.82,1.02Zm4.2.47c.01.41-.47.75-1.06.76-.6.01-1.08-.32-1.09-.73,0-.42.47-.76,1.07-.77.59-.01,1.08.32,1.08.73Zm4.12-.16c.07.4-.34.82-.93.93-.58.11-1.12-.14-1.19-.54-.07-.41.35-.83.93-.93.59-.1,1.12.14,1.2.55Z"/></svg>