<?xml version="1.0" encoding="UTF-8"?>
<svg id="Ebene_1" data-name="Ebene 1" xmlns="http://www.w3.org/2000/svg" viewBox="0 0 256 256">
  <defs>
    <style>
      .cls-1 {
        fill: #161614;
      }

      .cls-2 {
        fill: #fff;
      }
    </style>
  </defs>
  <g id="Ebene_2" data-name="Ebene 2">
    <path class="cls-1" d="m45,0h166c24.85,0,45,20.15,45,45v166c0,24.85-20.15,45-45,45H45c-24.85,0-45-20.15-45-45V45C0,20.15,20.15,0,45,0Z"/>
  </g>
  <g>
    <path class="cls-2" d="m128,20.72c-60.74,0-110,49.25-110,110,0,48.6,31.52,89.83,75.23,104.38,5.5,1.02,7.52-2.39,7.52-5.29,0-2.62-.1-11.29-.15-20.48-30.6,6.65-37.06-12.98-37.06-12.98-5-12.71-12.21-16.09-12.21-16.09-9.98-6.83.75-6.69.75-6.69,11.05.78,16.86,11.34,16.86,11.34,9.81,16.82,25.73,11.95,32.01,9.14.99-7.11,3.84-11.96,6.98-14.71-24.43-2.78-50.12-12.21-50.12-54.36,0-12.01,4.3-21.82,11.33-29.53-1.14-2.77-4.91-13.96,1.07-29.11,0,0,9.24-2.96,30.26,11.28,8.77-2.44,18.18-3.66,27.53-3.7,9.35.04,18.77,1.26,27.56,3.7,21-14.23,30.22-11.28,30.22-11.28,5.99,15.15,2.22,26.34,1.08,29.11,7.05,7.7,11.32,17.52,11.32,29.53,0,42.25-25.73,51.55-50.23,54.28,3.95,3.41,7.46,10.11,7.46,20.37,0,14.72-.13,26.56-.13,30.19,0,2.93,1.98,6.36,7.56,5.28,43.68-14.56,75.16-55.78,75.16-104.37,0-60.75-49.25-110-110-110"/>
    <path class="cls-2" d="m59.2,177.41c-.24.55-1.1.71-1.89.34-.8-.36-1.25-1.1-.99-1.65.24-.56,1.1-.72,1.89-.34.8.36,1.26,1.11.98,1.66m5.41,4.83c-.52.49-1.55.26-2.25-.51-.72-.77-.85-1.79-.32-2.29.54-.49,1.54-.26,2.26.51.72.78.86,1.79.31,2.29m3.71,6.18c-.67.47-1.78.03-2.46-.95-.67-.98-.67-2.15.01-2.62.68-.47,1.77-.05,2.46.92.67.99.67,2.17-.02,2.65m6.28,7.15c-.6.66-1.89.49-2.83-.42-.96-.89-1.23-2.15-.62-2.81.61-.67,1.9-.48,2.85.42.96.89,1.25,2.15.6,2.81m8.11,2.42c-.26.86-1.5,1.25-2.75.89-1.24-.38-2.06-1.39-1.81-2.26.26-.87,1.5-1.28,2.76-.88,1.24.38,2.06,1.38,1.8,2.25m9.23,1.02c.03.91-1.03,1.66-2.33,1.68-1.32.03-2.38-.71-2.39-1.6,0-.92,1.03-1.66,2.35-1.68,1.31-.03,2.38.7,2.38,1.6m9.07-.35c.16.89-.75,1.79-2.05,2.04-1.28.23-2.46-.31-2.62-1.19-.16-.91.77-1.82,2.04-2.05,1.3-.23,2.46.31,2.63,1.21"/>
  </g>
</svg>