<?xml version="1.0" encoding="UTF-8"?><svg id="a" xmlns="http://www.w3.org/2000/svg" viewBox="0 0 128 128"><defs><style>.b{fill:#fff;}.c{fill:#128379;}</style></defs><rect class="c" x="0" y="0" width="128" height="128" rx="25" ry="25" transform="translate(128 0) rotate(90)"/><path class="b" d="m110.79,40.12c-.41-1.07-1.65-1.57-2.64-1.15-.74.33-1.24,1.07-1.24,1.81,0,.25,0,.49.16.66,1.89,5.02,2.97,10.46,2.97,16.23,0,23.31-17.38,42.67-39.95,45.55v-21.5c1.4-.25,2.72-.66,4.04-1.07v18.04c18.37-4.45,32.13-21.09,32.13-41.02,0-15.9-8.81-29.82-21.83-36.99-.99-.58-2.22-.16-2.72.91-.16.25-.16.58-.16.91,0,.74.41,1.4.99,1.73,11.78,6.51,19.77,19.11,19.77,33.53,0,16.23-10.05,30.07-24.3,35.67v-15.98c2.47-.74,4.28-3.05,4.28-5.85,0-2.31-1.15-4.2-3.05-5.27,1.4-13.84,7.74-10.13,7.74-14.58v-2.55c0-6.59-15.24-28.09-22.41-28.58h-1.32c-7.17.49-22.41,21.99-22.41,28.58v2.55c0,4.37,6.26.74,7.74,14.58-1.81,1.07-2.97,3.05-2.97,5.27,0,2.72,1.81,5.02,4.28,5.85v15.98c-14.17-5.6-24.3-19.44-24.3-35.67,0-14.42,7.99-27.02,19.77-33.53.91-.49,1.32-1.65.82-2.64-.25-.74-.99-1.15-1.73-1.15-.33,0-.66.08-.99.25-13.01,7.17-21.83,21.09-21.83,36.99,0,19.93,13.76,36.57,32.29,41.1v-18.04c1.32.41,2.64.82,4.04,1.07v21.5c-22.57-2.97-39.95-22.24-39.95-45.63,0-5.68,1.07-11.12,2.97-16.23.41-.99-.08-2.14-1.07-2.55-.25-.08-.49-.16-.74-.16-.82,0-1.57.49-1.89,1.32-2.14,5.52-3.29,11.45-3.29,17.63,0,26.94,21.25,48.85,47.94,49.92v-25.29c.74.08,2.06.08,2.06.08,0,0,1.32,0,2.06-.08v25.29c26.69-1.07,47.94-22.98,47.94-49.92-.08-6.18-1.15-12.11-3.21-17.55h0Zm-37.56,28.5c.74-.74,1.73-1.24,2.88-1.24s2.14.49,2.88,1.24,1.24,1.73,1.24,2.88-.49,2.14-1.24,2.88-1.73,1.24-2.88,1.24-2.14-.49-2.88-1.24-1.24-1.73-1.24-2.88.49-2.14,1.24-2.88h0Zm-18.45,5.77c-.74.74-1.73,1.24-2.88,1.24s-2.14-.49-2.88-1.24c-.82-.74-1.24-1.73-1.24-2.88s.49-2.14,1.24-2.88,1.73-1.24,2.88-1.24,2.14.49,2.88,1.24,1.24,1.73,1.24,2.88c-.08,1.15-.49,2.14-1.24,2.88h0Z"/></svg>