<?xml version="1.0" encoding="UTF-8"?>
<svg id="Ebene_1" data-name="Ebene 1" xmlns="http://www.w3.org/2000/svg" viewBox="0 0 256 256">
  <defs>
    <style>
      .cls-1 {
        fill: #fff;
      }

      .cls-2 {
        fill: #128379;
      }
    </style>
  </defs>
  <g id="Ebene_2" data-name="Ebene 2">
    <path class="cls-2" d="m45,0h166c24.85,0,45,20.15,45,45v166c0,24.85-20.15,45-45,45H45c-24.85,0-45-20.15-45-45V45C0,20.15,20.15,0,45,0Z"/>
  </g>
  <path class="cls-1" d="m230.93,75.46c-.91-2.35-3.62-3.44-5.8-2.54-1.63.73-2.72,2.36-2.72,3.99,0,.54,0,1.09.36,1.45,4.17,11.05,6.52,23.01,6.52,35.7,0,51.29-38.24,93.87-87.89,100.21v-47.3c3.08-.54,5.98-1.45,8.88-2.35v39.69c40.41-9.79,70.67-46.39,70.67-90.25,0-34.97-19.39-65.6-48.02-81.37-2.17-1.27-4.89-.36-5.98,1.99-.36.54-.36,1.27-.36,1.99,0,1.63.91,3.08,2.17,3.81,25.91,14.32,43.49,42.04,43.49,73.76,0,35.7-22.11,66.15-53.46,78.47v-35.16c5.44-1.63,9.42-6.7,9.42-12.87,0-5.07-2.54-9.24-6.7-11.6,3.08-30.45,17.03-22.29,17.03-32.08v-5.62c0-14.5-33.53-61.8-49.29-62.88h-2.9c-15.77,1.09-49.29,48.39-49.29,62.88v5.62c0,9.6,13.77,1.63,17.03,32.08-3.99,2.36-6.52,6.7-6.52,11.6,0,5.98,3.99,11.05,9.42,12.87v35.16c-31.17-12.32-53.46-42.77-53.46-78.47,0-31.71,17.58-59.44,43.49-73.76,1.99-1.09,2.9-3.62,1.81-5.8-.54-1.63-2.17-2.54-3.81-2.54-.72,0-1.45.18-2.17.54-28.63,15.77-48.02,46.39-48.02,81.37,0,43.86,30.26,80.46,71.04,90.43v-39.69c2.9.91,5.8,1.81,8.88,2.36v47.3c-49.65-6.52-87.89-48.93-87.89-100.4,0-12.5,2.36-24.46,6.52-35.7.91-2.17-.18-4.71-2.36-5.62-.54-.18-1.09-.36-1.63-.36-1.81,0-3.44,1.09-4.17,2.9-4.71,12.14-7.25,25.19-7.25,38.78,0,59.26,46.75,107.46,105.47,109.82v-55.63c1.63.18,4.53.18,4.53.18,0,0,2.9,0,4.53-.18v55.63c58.72-2.36,105.47-50.56,105.47-109.82-.18-13.59-2.54-26.64-7.07-38.6Zm-82.64,62.7c1.63-1.63,3.81-2.72,6.34-2.72s4.71,1.09,6.34,2.72c1.63,1.63,2.72,3.81,2.72,6.34s-1.09,4.71-2.72,6.34c-1.63,1.63-3.81,2.72-6.34,2.72s-4.71-1.09-6.34-2.72-2.72-3.81-2.72-6.34,1.09-4.71,2.72-6.34h0Zm-40.59,12.68c-1.63,1.63-3.81,2.72-6.34,2.72s-4.71-1.09-6.34-2.72c-1.81-1.63-2.72-3.81-2.72-6.34s1.09-4.71,2.72-6.34c1.63-1.63,3.81-2.72,6.34-2.72s4.71,1.09,6.34,2.72c1.63,1.63,2.72,3.81,2.72,6.34-.18,2.54-1.09,4.71-2.72,6.34h0Z"/>
</svg>