<?xml version="1.0" encoding="UTF-8"?>
<svg id="Ebene_1" data-name="Ebene 1" xmlns="http://www.w3.org/2000/svg" viewBox="0 0 256 256">
  <defs>
    <style>
      .cls-1 {
        fill: #e24329;
      }

      .cls-2 {
        fill: #fca326;
      }

      .cls-3 {
        fill: #27282c;
      }

      .cls-4 {
        fill: #fc6d26;
      }
    </style>
  </defs>
  <g id="Ebene_2" data-name="Ebene 2">
    <path class="cls-3" d="m45,0h166c24.85,0,45,20.15,45,45v166c0,24.85-20.15,45-45,45H45c-24.85,0-45-20.15-45-45V45C0,20.15,20.15,0,45,0Z"/>
  </g>
  <g>
    <path class="cls-1" d="m227.93,123.8c.23,5.45-.42,10.87-1.92,16.11-1.48,5.24-3.82,10.18-6.91,14.67-3.07,4.49-6.85,8.45-11.18,11.73l-.1.08-41.71,31.26-20.51,15.55-12.5,9.43c-.73.56-1.54.98-2.4,1.27s-1.77.44-2.69.44-1.82-.15-2.67-.44-1.67-.71-2.4-1.27l-12.5-9.43-20.51-15.55-41.46-31.07-.25-.17-.08-.08c-4.36-3.28-8.14-7.24-11.23-11.73s-5.43-9.45-6.93-14.69c-1.5-5.24-2.15-10.68-1.92-16.13.25-5.45,1.36-10.81,3.3-15.9l.27-.73,27.27-71.05c.14-.35.31-.68.5-1,.18-.32.4-.62.65-.9.24-.29.49-.56.77-.81.28-.24.57-.46.88-.67.65-.4,1.31-.69,2.05-.86.71-.19,1.46-.27,2.19-.23.75.04,1.48.19,2.17.46.69.25,1.36.63,1.94,1.09.28.24.55.49.81.75.25.28.47.58.67.9.21.31.39.63.54.98.15.33.28.68.38,1.04l18.38,56.28h74.41l18.38-56.28c.1-.36.23-.71.4-1.04.15-.33.33-.66.54-.98.19-.31.42-.6.67-.88.25-.28.52-.54.81-.77.58-.46,1.23-.81,1.92-1.09.71-.25,1.44-.4,2.17-.44.75-.04,1.48.02,2.21.21.71.19,1.4.48,2.02.88.32.19.62.42.9.67.28.24.54.5.77.79.24.29.45.6.65.92.18.32.34.65.48,1l27.23,71.07.27.73c1.94,5.07,3.05,10.43,3.28,15.88h0Z"/>
    <path class="cls-4" d="m227.95,123.82c.23,5.43-.42,10.87-1.92,16.11-1.5,5.24-3.84,10.2-6.93,14.69s-6.87,8.45-11.21,11.73l-.1.08-41.71,31.26s-17.72-13.38-38.08-28.8l59.79-45.24c2.69-2.02,5.51-3.88,8.41-5.59,2.9-1.73,5.91-3.28,8.97-4.65,3.09-1.38,6.24-2.61,9.43-3.63,3.21-1.04,6.47-1.9,9.79-2.59l.27.73c1.94,5.09,3.05,10.45,3.3,15.9h0Z"/>
    <path class="cls-2" d="m128,168.89c20.37,15.38,38.1,28.8,38.1,28.8l-20.51,15.55-12.5,9.43c-.73.56-1.54.98-2.4,1.27s-1.77.44-2.69.44-1.82-.15-2.67-.44-1.67-.71-2.4-1.27l-12.5-9.43-20.51-15.55s17.72-13.42,38.08-28.8Z"/>
    <path class="cls-4" d="m128,168.85c-20.39,15.42-38.08,28.8-38.08,28.8l-41.46-31.07-.25-.17-.08-.08c-4.36-3.28-8.14-7.24-11.23-11.73s-5.43-9.45-6.93-14.69c-1.5-5.24-2.15-10.68-1.92-16.13.25-5.45,1.36-10.81,3.3-15.9l.27-.73c3.32.69,6.57,1.54,9.79,2.59,3.19,1.04,6.34,2.25,9.43,3.65,3.07,1.38,6.07,2.94,8.97,4.65s5.7,3.59,8.41,5.61l59.79,45.2Z"/>
  </g>
</svg>