<?xml version="1.0" encoding="UTF-8"?><svg id="a" xmlns="http://www.w3.org/2000/svg" viewBox="0 0 128 128"><defs><style>.b{fill:#e24329;}.c{fill:#fca326;}.d{fill:#fc6d26;}.e{fill:#303333;}</style></defs><rect class="e" x="0" y="0" width="128" height="128" rx="25" ry="25" transform="translate(128 0) rotate(90)"/><path class="b" d="m64,110.06h0l18.41-56.67h-36.83l18.41,56.67h0Z"/><path class="d" d="m64,110.06l-18.41-56.67h-25.81l44.22,56.67h0Z"/><path class="c" d="m19.78,53.39h0l-5.6,17.22c-.51,1.57.05,3.29,1.38,4.26l48.43,35.19L19.78,53.39h0Z"/><path class="b" d="m19.78,53.39h25.81l-11.09-34.13c-.57-1.76-3.05-1.76-3.63,0l-11.09,34.13h0Z"/><path class="d" d="m64,110.06l18.41-56.67h25.81l-44.22,56.67h0Z"/><path class="c" d="m108.22,53.39h0l5.6,17.22c.51,1.57-.05,3.29-1.38,4.26l-48.43,35.19,44.22-56.67h0Z"/><path class="b" d="m108.22,53.39h-25.81l11.09-34.13c.57-1.76,3.05-1.76,3.63,0l11.09,34.13h0Z"/></svg>