<?xml version="1.0" encoding="UTF-8" standalone="no"?>
<!DOCTYPE svg PUBLIC "-//W3C//DTD SVG 1.1//EN" "http://www.w3.org/Graphics/SVG/1.1/DTD/svg11.dtd">
<!-- Created with Vectornator (http://vectornator.io/) -->
<svg height="100%" stroke-miterlimit="10" style="fill-rule:nonzero;clip-rule:evenodd;stroke-linecap:round;stroke-linejoin:round;" version="1.1" viewBox="0 0 512 512" width="100%" xml:space="preserve" xmlns="http://www.w3.org/2000/svg" xmlns:vectornator="http://vectornator.io" xmlns:xlink="http://www.w3.org/1999/xlink">
<defs/>
<g id="Ebene-1" vectornator:layerName="Ebene 1">
<path d="M2.84217e-14 95C2.84217e-14 42.5329 42.5329 0 95 0L417 0C469.467 0 512 42.5329 512 95L512 417C512 469.467 469.467 512 417 512L95 512C42.5329 512 2.84217e-14 469.467 2.84217e-14 417L2.84217e-14 95Z" fill="#242628" fill-rule="nonzero" opacity="1" stroke="none" vectornator:layerName="Rechteck 1"/>
<g opacity="1" vectornator:layerName="g">
<g opacity="1" vectornator:layerName="g">
<path d="M126.455 368.527L174.182 368.527L174.182 252.618L106 201.481L106 348.073C106 359.374 115.154 368.528 126.455 368.528L126.455 368.527Z" fill="#4285f4" fill-rule="nonzero" opacity="1" stroke="none" vectornator:layerName="path"/>
<path d="M337.818 368.527L385.546 368.527C396.846 368.527 406 359.373 406 348.072L406 201.481L337.818 252.618L337.818 368.527Z" fill="#34a853" fill-rule="nonzero" opacity="1" stroke="none" vectornator:layerName="path"/>
<path d="M337.818 163.981L337.818 252.618L406 201.481L406 174.209C406 148.93 377.143 134.493 356.909 149.663L337.818 163.981Z" fill="#fbbc04" fill-rule="nonzero" opacity="1" stroke="none" vectornator:layerName="path"/>
</g>
<path d="M174.182 252.618L174.182 163.981L256 225.345L337.818 163.981L337.818 252.618L256 313.981L174.182 252.618Z" fill="#ea4335" fill-rule="evenodd" opacity="1" stroke="none" vectornator:layerName="path"/>
<path d="M106 174.209L106 201.481L174.182 252.618L174.182 163.981L155.091 149.663C134.857 134.493 106 148.93 106 174.208L106 174.209Z" fill="#c5221f" fill-rule="nonzero" opacity="1" stroke="none" vectornator:layerName="path"/>
</g>
</g>
</svg>
