<?xml version="1.0" encoding="UTF-8"?>
<svg id="Ebene_1" data-name="Ebene 1" xmlns="http://www.w3.org/2000/svg" viewBox="0 0 256 256">
  <defs>
    <style>
      .cls-1 {
        fill: #ea4335;
        fill-rule: evenodd;
      }

      .cls-2 {
        fill: #fbbc04;
      }

      .cls-3 {
        fill: #4285f4;
      }

      .cls-4 {
        fill: #c5221f;
      }

      .cls-5 {
        fill: #27282c;
      }

      .cls-6 {
        fill: #34a853;
      }
    </style>
  </defs>
  <g id="Ebene_2" data-name="Ebene 2">
    <path class="cls-5" d="m45,0h166c24.85,0,45,20.15,45,45v166c0,24.85-20.15,45-45,45H45c-24.85,0-45-20.15-45-45V45C0,20.15,20.15,0,45,0Z"/>
  </g>
  <g>
    <g>
      <path class="cls-3" d="m41.64,203.02h31.82v-77.27l-45.45-34.09v97.73c0,7.53,6.1,13.64,13.64,13.64h0Z"/>
      <path class="cls-6" d="m182.55,203.02h31.82c7.53,0,13.64-6.1,13.64-13.64v-97.73l-45.45,34.09v77.27Z"/>
      <path class="cls-2" d="m182.55,66.65v59.09l45.45-34.09v-18.18c0-16.85-19.24-26.48-32.73-16.36l-12.73,9.55Z"/>
    </g>
    <path class="cls-1" d="m73.45,125.75v-59.09l54.55,40.91,54.55-40.91v59.09l-54.55,40.91-54.55-40.91Z"/>
    <path class="cls-4" d="m28,73.47v18.18l45.45,34.09v-59.09l-12.73-9.55c-13.49-10.11-32.73-.49-32.73,16.36h0Z"/>
  </g>
</svg>