<?xml version="1.0" encoding="UTF-8"?>
<svg id="Ebene_1" data-name="Ebene 1" xmlns="http://www.w3.org/2000/svg" viewBox="0 0 256 256">
  <defs>
    <style>
      .cls-1 {
        fill: #1a73e8;
      }

      .cls-2 {
        fill: #fbbc04;
      }

      .cls-3 {
        fill: #4285f4;
      }

      .cls-4 {
        fill: #27282c;
      }

      .cls-5 {
        fill: #34a853;
      }

      .cls-6 {
        fill: #ea4335;
      }
    </style>
  </defs>
  <g id="Ebene_2" data-name="Ebene 2">
    <path class="cls-4" d="m45,0h166c24.85,0,45,20.15,45,45v166c0,24.85-20.15,45-45,45H45c-24.85,0-45-20.15-45-45V45C0,20.15,20.15,0,45,0Z"/>
  </g>
  <g>
    <path class="cls-1" d="m149.1,31.24c-6.63-2.09-13.74-3.24-21.08-3.24-21.43,0-40.62,9.67-53.44,24.91l32.96,27.71,41.56-49.38Z"/>
    <path class="cls-6" d="m74.58,52.91c-10.57,12.55-16.35,28.43-16.34,44.84,0,13.1,2.61,23.76,6.91,33.27l42.39-50.4-32.96-27.71Z"/>
    <path class="cls-3" d="m128.02,71.1c14.75.01,26.69,11.98,26.67,26.72,0,6.3-2.24,12.4-6.31,17.21l41.52-49.38c-8.52-16.42-23.22-28.79-40.85-34.38l-41.48,49.38c5.06-6.06,12.55-9.56,20.45-9.55"/>
    <path class="cls-2" d="m128.02,124.47c-14.72,0-26.68-11.96-26.68-26.68-.02-6.27,2.19-12.34,6.24-17.13l-42.43,50.4c7.26,16.06,19.3,28.97,31.7,45.23l51.55-61.26c-5.07,5.99-12.52,9.44-20.37,9.43"/>
    <path class="cls-5" d="m147.36,192.99c23.29-36.39,50.4-52.93,50.4-95.24,0-11.6-2.84-22.54-7.85-32.17l-93.03,110.72c3.95,5.17,7.93,10.66,11.8,16.74,14.13,21.87,10.22,34.97,19.34,34.97s5.21-13.14,19.34-35.01"/>
  </g>
</svg>