<?xml version="1.0" encoding="UTF-8"?>
<svg id="Ebene_1" data-name="Ebene 1" xmlns="http://www.w3.org/2000/svg" viewBox="0 0 256 256">
  <defs>
    <style>
      .cls-1 {
        fill: #0066da;
      }

      .cls-2 {
        fill: #ffba00;
      }

      .cls-3 {
        fill: #00ac47;
      }

      .cls-4 {
        fill: #27282c;
      }

      .cls-5 {
        fill: #2684fc;
      }

      .cls-6 {
        fill: #00832d;
      }

      .cls-7 {
        fill: #e94235;
      }
    </style>
  </defs>
  <g id="Ebene_2" data-name="Ebene 2">
    <path class="cls-4" d="m45,0h166c24.85,0,45,20.15,45,45v166c0,24.85-20.15,45-45,45H45c-24.85,0-45-20.15-45-45V45C0,20.15,20.15,0,45,0Z"/>
  </g>
  <g>
    <path class="cls-6" d="m141.13,128l19.49,22.28,26.21,16.75,4.57-38.9-4.57-38.03-26.72,14.72-18.99,23.17Z"/>
    <path class="cls-1" d="m28,163.42v33.14c0,7.58,6.14,13.71,13.71,13.71h33.14l6.86-25.05-6.86-21.8-22.74-6.86-24.11,6.86Z"/>
    <path class="cls-7" d="m74.85,45.72l-46.85,46.85,24.11,6.86,22.74-6.86,6.74-21.51-6.74-25.35Z"/>
    <path class="cls-5" d="m74.85,92.58H28v70.85h46.85v-70.85Z"/>
    <path class="cls-3" d="m216.78,65.56l-29.94,24.55v76.93l30.08,24.66c4.5,3.52,11.08.31,11.08-5.42v-115.42c0-5.79-6.73-8.97-11.22-5.3h0Zm-75.65,62.44v35.42h-66.28v46.85h98.27c7.58,0,13.71-6.14,13.71-13.71v-29.53l-45.71-39.04Z"/>
    <path class="cls-2" d="m173.13,45.72h-98.27v46.85h66.28v35.42l45.71-37.87v-30.69c0-7.58-6.14-13.71-13.71-13.71Z"/>
  </g>
</svg>