<?xml version="1.0" encoding="UTF-8"?><svg id="a" xmlns="http://www.w3.org/2000/svg" viewBox="0 0 128 128"><defs><style>.b{fill:#2b8daf;}.c{fill:#fff;}.d{fill:#f6d2a2;}.e{fill:#69d7e2;}.f{fill:#231f20;}</style></defs><rect class="b" x="0" y="0" width="128" height="128" rx="25" ry="25" transform="translate(128 0) rotate(90)"/><path class="d" d="m25.72,68.65c.16,3.25,3.41,1.74,4.86.73,1.39-.98,1.8-.16,1.92-2.05.09-1.26.22-2.49.16-3.76-2.11-.19-4.39.32-6.12,1.58-.91.63-2.56,2.71-.82,3.5m64.79,39.95c2.49,1.55,7.07,6.22,3.31,8.49-3.6,3.28-5.62-3.63-8.77-4.58,1.36-1.86,3.06-3.57,5.46-3.91Zm-44.62,5.27c-2.93.44-4.58,3.09-7.04,4.45-2.3,1.36-3.19-.44-3.38-.82-.35-.16-.32.16-.88-.41-2.15-3.38,2.21-5.84,4.48-7.51,3.16-.63,5.14,2.11,6.82,4.29h0Zm58.48-45.63c-.16,3.25-3.41,1.74-4.86.73-1.39-.98-1.8-.16-1.92-2.05-.1-1.26-.22-2.49-.16-3.76,2.11-.19,4.39.32,6.12,1.58.88.63,2.56,2.71.82,3.5"/><path class="e" d="m95.74,28.6c11.27-3.98,2.46-19.41-7.35-12.59-6.44-5.52-15.3-6.53-24.61-6.53-9.12.73-17.8,2.4-23.86,7.7-9.78-6.31-18.81,8.84-7.32,12.65-3.22,12.5.44,25.25-.06,37.96-.47,11.42-3.47,26.73,2.87,36.98,5.4,8.77,17.01,11.9,26.57,12.24,12.21.44,27.01-2.56,32.95-14.39,5.68-11.27,4.1-25.31,3.38-37.46-.73-12.28.63-24.74-2.56-36.57h0Z"/><path d="m105.21,66.31c-.32-.66-.91-1.42-1.48-1.83-1.45-1.04-3.31-1.61-5.24-1.67-.06-1.96-.13-4.1-.13-6.82v-2.46c-.03-7.76-.13-11.17-.57-15.43-.35-3.34-.88-6.44-1.64-9.34,2.56-.98,4.23-2.59,4.89-4.67.63-1.92.32-4.1-.76-6.03-1.1-1.89-2.87-3.31-4.92-3.88-2.21-.6-4.61-.16-6.91,1.39-2.05-1.74-4.42-3.06-7.07-4.07-4.7-1.74-10.16-2.4-17.58-2.4v.32l-.03-.32c-7.92.63-13.79,1.86-18.65,4.23-1.96.95-3.69,2.08-5.21,3.41-2.34-1.45-4.77-1.8-7.01-1.1-2.08.63-3.88,2.11-4.95,4.04s-1.33,4.13-.6,6.03c.73,1.89,2.4,3.38,4.89,4.29-.79,3.19-1.2,6.56-1.26,10.29-.06,3.63.09,6.53.66,13.1.41,4.89.57,7.13.63,9.85-2.15-.09-4.29.47-5.9,1.64-.57.41-1.2,1.14-1.48,1.83-.41.88-.25,1.67.57,2.15.13,1.51.98,2.21,2.27,2.08.95-.09,2.08-.6,3.06-1.29.21-.15.43-.28.66-.38.09-.03.16-.06.25-.1,0,0,.19-.06.25-.09.09-.03.19-.06.25-.13-.06,1.48-.19,3.03-.47,6.56-.32,3.98-.47,6.15-.54,8.58-.28,9.03.79,15.59,4.01,20.8,1.01,1.64,2.24,3.09,3.69,4.42-.28.19-1.48,1.07-1.86,1.36-1.33,1.01-2.24,1.86-2.78,2.81-.69,1.23-.69,2.46.09,3.76l.03.03.03.03c.35.35.54.44.79.44h.09c.03.06.06.09.1.16.09.16.19.28.28.41.79.92,1.89,1.14,3.38.25.79-.41,1.36-.88,2.56-1.89l.06-.06c1.92-1.64,2.87-2.24,4.29-2.46l.5-.09c.19.1.38.16.6.25,4.48,1.8,9.69,2.78,14.96,2.97,6.82.25,13.38-.6,18.93-2.62,1.48-.54,2.87-1.17,4.2-1.86.82.32,1.51.98,2.84,2.52q.06.06.09.13c.06.06.06.1.1.13.06.09.16.16.22.25,1.04,1.23,1.74,1.83,2.52,2.18,1.04.44,2.05.22,3.09-.73,1.83-1.14,1.96-2.9.76-4.92-.85-1.42-2.33-2.9-3.72-3.85,1.64-1.61,3.06-3.53,4.17-5.71,3.03-6.06,4.2-13.13,4.13-22.22-.03-3.22-.16-6.03-.5-11.39v-.16c.16.06.32.16.47.28.98.66,2.11,1.2,3.06,1.29,1.29.13,2.15-.57,2.27-2.08.79-.5.95-1.29.54-2.18h0Zm-10.03-51.47c1.89.5,3.53,1.83,4.54,3.6,1.01,1.77,1.29,3.76.73,5.52-.6,1.86-2.11,3.35-4.48,4.23-.47-1.69-1.03-3.35-1.67-4.99.92-.79,1.36-1.77.63-3.16-.73-1.39-1.99-1.55-3.28-1.14-.82-1.07-1.74-2.02-2.68-2.9,2.08-1.33,4.23-1.7,6.22-1.17h0ZM27.9,25.51c-.66-1.7-.44-3.72.57-5.49,1.01-1.77,2.65-3.16,4.61-3.72,2.02-.6,4.2-.32,6.34.95-1.24,1.12-2.34,2.38-3.28,3.76-1.64-.85-3.31-1.01-4.26.73-.98,1.86.16,3.03,1.77,3.91-.22.54-.44,1.1-.63,1.67-.22.69-.44,1.42-.63,2.15-2.3-.88-3.82-2.24-4.48-3.94h0Zm3.82,43.01s-.22.06-.22.09c-.09.03-.19.06-.28.13-.25.09-.5.25-.76.44-.88.63-1.96,1.1-2.78,1.17-.95.09-1.48-.32-1.58-1.45.66-.22.95-.38,1.2-.76l-.5-.38c-.19.25-.38.35-.95.54t-.06.03c-.5-.28-.6-.73-.32-1.36.25-.57.82-1.23,1.29-1.58,1.51-1.1,3.53-1.64,5.55-1.51,0,.79.03,1.58,0,2.33,0,.1,0,.16-.03.25-.03.44-.03.63-.06.85-.09.91-.16,1.04-.5,1.2h0Zm9.53,47.62l-.06.06c-1.17,1.01-1.74,1.42-2.46,1.83-1.2.73-2.02.57-2.59-.13-.09-.1-.16-.22-.22-.32-.03-.03-.06-.09-.09-.13v-.03c.06-.57.28-.98.85-1.86t.03-.06c.35-.5.5-.79.66-1.14l-.57-.25c-.13.28-.28.54-.6,1.04t-.03.06c-.57.82-.82,1.33-.95,1.89h-.13c-.06-.03-.16-.09-.28-.22-1.23-1.96-.25-3.63,2.52-5.71.35-.25,1.51-1.07,1.83-1.33.06,0,.13-.03.19-.06,1.7,1.45,3.69,2.71,5.9,3.76,0,.03.03.06.06.1-1.29.32-2.3.98-4.07,2.49h0Zm52.98-3.44c.98,1.64.95,2.97-.28,3.88-.09-.19-.16-.41-.28-.73t-.03-.06c-.44-1.2-.73-1.7-1.26-2.27l-.44.44c.47.44.69.92,1.14,2.02t.03.06c.16.41.25.66.35.88-.82.69-1.55.82-2.3.47-.66-.28-1.29-.88-2.3-2.02-.06-.06-.13-.16-.19-.25-.03-.03-.06-.06-.1-.13q-.06-.06-.09-.13c-1.17-1.36-1.86-2.08-2.62-2.49,1.77-1.01,3.35-2.15,4.77-3.47,1.33.98,2.81,2.43,3.63,3.79h0Zm.44-10.22c-2.71,5.46-7.51,9.31-13.95,11.64-5.49,1.99-11.99,2.81-18.71,2.56-11.58-.41-21.62-4.45-26.32-12.09-3.16-5.08-4.2-11.55-3.91-20.45.09-2.43.22-4.61.54-8.58.35-4.48.44-5.78.54-7.79.06-1.45.06-2.93.03-4.51-.06-2.78-.22-4.99-.63-9.94-.57-6.56-.73-9.44-.66-13.03.1-4.73.73-8.9,2.05-12.84,2.15-6.41,6.09-10.73,11.77-13.54,4.77-2.33,10.54-3.53,18.4-4.17,7.35,0,12.72.66,17.36,2.37,5.55,2.05,9.69,5.65,12.53,11.17,1.83,4.48,2.9,9.31,3.47,14.86.44,4.23.54,7.64.57,15.37v2.46c.03,3.82.09,6.5.25,9.18.06,1.04.09,1.48.25,3.98.35,5.36.47,8.14.5,11.36.06,9.06-1.07,16.03-4.07,22h0Zm9.66-34.56s-.06-.03-.09-.03c-.57-.19-.76-.32-.95-.54l-.5.38c.28.38.57.54,1.2.76-.13,1.14-.66,1.55-1.58,1.45-.82-.06-1.89-.57-2.78-1.17-.25-.19-.5-.32-.76-.44-.03,0-.06-.03-.1-.03-.13-1.74-.13-2.18-.19-3.09l-.09-1.7c1.77.03,3.5.57,4.83,1.55.47.35,1.04,1.01,1.29,1.58.32.54.25,1.01-.28,1.29h0Z"/><path class="c" d="m68.56,42.02c.03,1.61.35,3.38.06,5.08-.44.82-1.26.92-1.99,1.23-1.01-.16-1.86-.82-2.27-1.77-.25-1.92.06-3.76.16-5.68,0-.06,1.2.03,2.27.35.91.28,1.77.76,1.77.79h0Zm-8.93.13c-.88,3.35,1.17,8.8,4.54,4.32-.25-1.89.03-3.72.13-5.59.03-.16-4.64,1.04-4.67,1.26h0Z"/><path d="m68.94,43.5c-.06-.95-.09-1.33-.09-1.8v-.22l-.22-.06-3.98-1.23v-.22l-.41.1h-.03v.03l-4.48,1.14-.16.03-.06.16c-.69,1.67-.54,4.2.35,5.74,1.01,1.77,2.65,1.8,4.32-.22.47.91,1.35,1.55,2.37,1.7h.1l.09-.03c.13-.06.25-.1.47-.19t.06-.03c.91-.32,1.29-.57,1.61-1.17l.03-.03v-.06c.09-.57.13-1.17.13-1.83,0-.47-.03-.92-.09-1.8h0Zm-5.05-1.17c-.03.57-.06.79-.09,1.1-.06,1.17-.06,2.05.03,2.93-1.48,1.89-2.65,1.89-3.44.47-.76-1.33-.92-3.57-.35-5.05l3.98-1.01c-.03.41-.06.82-.13,1.55Zm4.42,4.67c-.22.38-.5.57-1.26.82t-.06.03c-.19.06-.32.13-.41.16-.85-.16-1.58-.73-1.92-1.51-.09-.85-.09-1.74-.03-2.9.03-.32.03-.54.1-1.1.06-.73.09-1.17.09-1.58l3.44,1.04c0,.41.03.79.09,1.61.06.85.09,1.29.09,1.8,0,.6-.03,1.14-.13,1.64Z"/><path class="c" d="m40.63,28.27c2.9,11.3,20.99,8.39,20.29-2.93-.82-13.57-23.07-10.95-20.29,2.93"/><path d="m61.24,25.31c-.19-3.28-1.64-5.84-4.04-7.45-2.15-1.45-4.99-2.02-7.79-1.67-2.81.38-5.4,1.64-7.1,3.63-1.89,2.21-2.62,5.11-1.96,8.46l.28-.06-.28.06c2.97,11.61,21.58,8.8,20.89-2.97Zm-20.32,2.9c-.63-3.19.06-5.9,1.83-7.95,1.61-1.86,4.04-3.09,6.72-3.44,2.68-.35,5.36.19,7.38,1.58,2.24,1.51,3.6,3.88,3.79,7.01.66,11.01-16.91,13.66-19.72,2.81h0Z"/><ellipse cx="45.62" cy="26.41" rx="3.06" ry="3.31"/><ellipse class="c" cx="47.01" cy="27.17" rx=".73" ry=".85"/><path class="c" d="m65.99,26.16c2.24,12.97,23.45,9.53,20.39-3.53-2.75-11.74-21.14-8.49-20.39,3.53"/><path d="m86.66,22.56c-2.81-12.09-21.74-8.77-20.99,3.63v.03c1.04,6.12,6.5,9.25,12.53,8.24,2.75-.47,5.21-1.8,6.82-3.76,1.77-2.18,2.4-4.99,1.64-8.14h0Zm-2.11,7.76c-1.51,1.83-3.82,3.09-6.44,3.53-5.71.95-10.82-1.99-11.83-7.73-.69-11.68,17.17-14.8,19.82-3.44.69,3,.13,5.62-1.55,7.64Z"/><ellipse cx="71.2" cy="25.59" rx="3" ry="3.31"/><ellipse class="c" cx="72.59" cy="26.35" rx=".69" ry=".85"/><path class="d" d="m60.28,35.33c-2.49.22-4.51,3.16-3.22,5.49,1.7,3.09,5.52-.28,7.89.03,2.75.06,4.99,2.9,7.16.5,2.43-2.65-1.04-5.24-3.79-6.37l-8.05.35h0Z"/><path class="f" d="m72.43,37.44c-.85-1.07-2.34-2.05-3.94-2.71l-.06-.03h-.06l-8.08.32c-2.81.25-4.83,3.5-3.47,5.96.54.95,1.26,1.42,2.24,1.48.73.03,1.48-.13,2.65-.54.09-.03.22-.06.38-.13,1.58-.54,2.21-.69,2.84-.6h.03c.76,0,1.39.22,2.59.69,1.33.54,1.74.69,2.4.76.92.06,1.7-.25,2.43-1.04,1.23-1.36,1.17-2.81.06-4.17h0Zm-.54,3.72c-.6.66-1.2.88-1.92.85-.57-.03-.95-.19-2.21-.69-1.26-.54-1.96-.73-2.78-.76-.79-.1-1.45.06-3.12.63-.16.06-.28.09-.38.13-2.3.79-3.41.73-4.17-.66-1.14-2.05.6-4.83,2.97-5.05l7.98-.32c1.51.63,2.87,1.55,3.66,2.52.95,1.14.98,2.27-.03,3.34h0Z"/><path d="m68.96,33.97c-.98-3.6-9.18-3.06-8.99,1.23.41,3.19,9.94,2.33,8.99-1.23Z"/></svg>