<?xml version="1.0" encoding="UTF-8"?><svg id="a" xmlns="http://www.w3.org/2000/svg" viewBox="0 0 128 128"><defs><style>.c{fill:#fff;}.d{fill:#4ae1ff;}.e{fill:#00afd1;}.f{fill:#828282;}.g{fill:#c6c6c6;}</style></defs><rect class="d" x="0" y="0" width="128" height="128" rx="25" ry="25" transform="translate(128 0) rotate(90)"/><g id="b"><polygon class="f" points="16.09 24.44 29.93 16.61 43.5 24.44 29.4 32.28 16.09 24.44"/><polygon class="f" points="32.8 34.1 46.64 26.01 60.48 34.1 46.38 41.68 32.8 34.1"/><polygon class="g" points="68.05 33.84 81.89 25.75 95.46 33.84 81.36 41.68 68.05 33.84"/><polygon class="g" points="85.28 24.18 99.12 16.09 112.69 24.18 98.6 31.75 85.28 24.18"/><polygon class="e" points="14 27.05 14 44.29 27.84 52.12 27.84 35.15 14 27.05"/><polygon class="e" points="31.23 36.72 31.23 53.95 45.33 61.52 45.33 44.81 31.23 36.72"/><polygon class="e" points="48.2 45.85 48.2 63.09 62.04 70.66 62.04 53.95 48.2 45.85"/><polygon class="c" points="114 27.32 114 44.55 99.9 52.38 99.9 35.41 114 27.32"/><polygon class="c" points="96.51 36.98 96.51 54.21 82.67 61.78 82.67 45.07 96.51 36.98"/><polygon class="c" points="79.54 46.11 79.54 63.35 65.7 70.92 65.7 54.21 79.54 46.11"/><polygon class="e" points="14 47.68 14 64.91 27.84 72.49 27.84 55.78 14 47.68"/><polygon class="e" points="31.23 57.08 31.23 74.31 45.33 82.15 45.33 65.44 31.23 57.08"/><polygon class="e" points="48.2 66.22 48.2 83.45 62.04 91.02 62.04 74.31 48.2 66.22"/><polygon class="c" points="114 47.94 114 65.17 99.9 72.75 99.9 56.04 114 47.94"/><polygon class="c" points="96.51 57.6 96.51 74.84 82.67 82.41 82.67 65.7 96.51 57.6"/><polygon class="c" points="79.54 66.48 79.54 83.71 65.7 91.28 65.7 74.57 79.54 66.48"/><polygon class="e" points="14 68.05 14 85.28 27.84 93.11 27.84 76.14 14 68.05"/><polygon class="e" points="31.23 77.71 31.23 94.94 45.33 102.51 45.33 85.8 31.23 77.71"/><polygon class="e" points="48.2 86.85 48.2 104.08 62.04 111.65 62.04 94.94 48.2 86.85"/><polygon class="c" points="114 68.31 114 85.54 99.9 93.37 99.9 76.66 114 68.31"/><polygon class="c" points="96.51 77.97 96.51 95.2 82.67 102.77 82.67 86.06 96.51 77.97"/><polygon class="c" points="79.54 87.11 79.54 104.34 65.7 111.91 65.7 95.2 79.54 87.11"/><polygon class="f" points="64.13 35.41 50.29 43.5 63.87 51.08 63.87 51.08 64.13 35.41"/><polygon class="g" points="64.13 35.41 63.87 51.08 77.71 43.5 64.13 35.41"/></g></svg>