<?xml version="1.0" encoding="UTF-8"?><svg id="a" xmlns="http://www.w3.org/2000/svg" viewBox="0 0 128 128"><defs><style>.cm,.cn{fill:#394655;}.co{opacity:.07;}.cp{stroke-miterlimit:3.2;}.cp,.cq,.cr{fill:#468aa9;}.cp,.cq,.cr,.cs{stroke:#1d4455;stroke-linecap:round;}.cp,.cr{stroke-width:3.75px;}.ct,.cn{fill-rule:evenodd;}.ct,.cu{fill:#96d6ff;}.cv{fill:#fff;}.cw{fill:#29beb0;}.cx{fill:#ebec00;}.cy{isolation:isolate;}.cq{stroke-width:3.75px;}.cq,.cr,.cs{stroke-linejoin:round;}.cz{fill:#e1e107;}.da{fill:#feff76;}.db{fill:#feff00;}.dc{fill:#e1d6b9;}.dd{fill:#030608;}.de{fill:rgba(93,94,0,.5);}.df{opacity:.06;}.dg,.cs{fill:#3d7892;}.cs{stroke-width:3.34px;}.dh{fill:#010101;}</style></defs><rect class="cw" x="0" y="0" width="128" height="128" rx="25" ry="25" transform="translate(128 0) rotate(90)"/><g id="b"><g id="c"><g id="d" class="cy"><path id="e" class="dc" d="m78.79,106.47c.85.09,1.47.33,1.91.68s.69.82.87,1.38.28,1.19.37,1.88.17,1.4.23,2.13.08,1.41.04,2.03-.14,1.18-.32,1.65c-.17.47-.42.85-.78,1.09-.36.25-.84.36-1.45.3-.61-.06-1.06-.25-1.38-.56-.31-.3-.48-.71-.56-1.2-.08-.48-.06-1.04-.05-1.66s.03-1.29-.04-2.02-.3-1.48-.51-2.19-.41-1.38-.46-1.94c-.05-.56.05-1,.38-1.28.33-.28.89-.39,1.74-.29Z"/><path id="f" class="cm" d="m76.23,107.82c0,.53.11,1.15.27,1.82.17.77.39,1.6.47,2.44.09.84.09,1.61.1,2.32.01.71.04,1.36.18,1.92.14.56.39,1.05.78,1.41.39.36.92.6,1.59.68.67.08,1.22-.04,1.66-.32s.76-.72,1-1.27c.24-.55.4-1.2.48-1.93s.09-1.51.02-2.35-.17-1.63-.28-2.37c-.12-.73-.25-1.4-.47-1.98-.08-.22-.18-.42-.3-.61-.23-.38-1.2-.42-.88-.08.3.31.33.62.46,1.06.16.53.2,1.17.28,1.79s.36,1.27.42,1.92c.06.64.07,1.26.03,1.82-.04.57-.14,1.09-.3,1.53-.16.44-.39.8-.73,1.03-.33.23-.77.33-1.31.28-.54-.05-.93-.23-1.19-.5-.25-.28-.12-.8-.15-1.24-.03-.44-.11-.98-.09-1.53.02-.54-.1-.93-.25-1.58-.15-.65-.47-1.34-.74-2.03s-.47-1.35-.51-1.88c0-.07,0-.13-.01-.2,0-.16,0-.32.04-.45.04-.16-.56-.39-.57.06,0,.07,0,.14,0,.22h0Z"/></g><g id="g" class="cy"><path id="h" class="dc" d="m52.21,106.93c-.85.09-1.47.33-1.91.68s-.69.82-.87,1.38-.28,1.19-.37,1.88-.17,1.4-.23,2.13-.08,1.41-.04,2.03.14,1.18.32,1.65c.17.47.42.85.78,1.09.36.25.84.36,1.45.3.61-.06,1.06-.25,1.38-.56.31-.3.48-.71.56-1.2.08-.48.06-1.04.05-1.66s-.03-1.29.04-2.02.3-1.48.51-2.19.41-1.38.46-1.94c.05-.56-.05-1-.38-1.28-.33-.28-.89-.39-1.74-.29Z"/><path id="i" class="cm" d="m54.76,108.28c0,.53-.11,1.15-.27,1.82-.17.77-.39,1.6-.47,2.44-.09.84-.09,1.61-.1,2.32-.01.71-.04,1.36-.18,1.92-.14.56-.39,1.05-.78,1.41-.39.36-.92.6-1.59.68-.67.08-1.22-.04-1.66-.32s-.76-.72-1-1.27c-.24-.55-.4-1.2-.48-1.93s-.09-1.51-.02-2.35.17-1.63.28-2.37c.12-.73.25-1.4.47-1.98.08-.22.18-.42.3-.61.23-.38,1.2-.42.88-.08-.3.31-.33.62-.46,1.06-.16.53-.2,1.17-.28,1.79s-.36,1.27-.42,1.92c-.06.64-.07,1.26-.03,1.82.04.57.14,1.09.3,1.53.16.44.39.8.73,1.03.33.23.77.33,1.31.28.54-.05.93-.23,1.19-.5.25-.28.12-.8.15-1.24.03-.44.11-.98.09-1.53-.02-.54.1-.93.25-1.58.15-.65.47-1.34.74-2.03s.47-1.35.51-1.88c0-.07,0-.13.01-.2,0-.16,0-.32-.04-.45-.04-.16.56-.39.57.06,0,.07,0,.14,0,.22h0Z"/></g></g><g id="j"><path id="k" class="cm" d="m93.46,71.02c2.84,13.96,4.33,22.38-1.37,32.2-4.44,7.65-10.34,4.15-18.8,4.92-8.47.76-22.61,6.56-29.21-.26-8.41-8.71-12.07-20.34-7.43-34.88,3.6-11.29-5.27-21.87.32-29.79,5.58-7.92,14.44-12.9,25.01-13.62,10.57-.72,20.63,2.97,28.07,10.3,7.45,7.33,1.09,19.68,3.42,31.13h0Z"/><path id="l" class="cu" d="m92.56,71.56c3.73,14.34,2.38,24.41-2.88,32.42-5.26,8.01-8.76,2.16-16.78,2.87-8.02.71-21.26,6.03-27.79-.42-6.53-6.45-11.34-20.95-7.69-32.98,3.27-10.77-4.51-22.14.8-29.71,5.31-7.57,14.39-12.08,24.44-12.76,10.06-.67,18.97,2.32,26.09,9.35,7.12,7.03,1.02,20.55,3.8,31.23h0Z"/></g><g id="m" class="df"><path id="n" d="m38.65,32.33c-1.26-.03-2.54.39-3.39,1.36-1.22,1.29-1.25,3.31-.5,4.83.39.94,1.31,1.72,2.38,1.62,1.2.03,2.54-.01,3.66.04-1.85,2.05-3.79,4.24-4.39,7.02-.45,1.71-.26,3.5-.27,5.25.19,2.87.83,5.68,1.23,8.52.47,2.92.79,5.92.49,8.87.14.5.83.51,1.21.79,3.34,1.54,6.7,3.09,10.14,4.42-.2-2.54-1.79-5.03-2.36-7.12-1.29-4.75-2.27-12.84-2.16-17.05.11-4.21,4.31-11.97,7.76-14.24-.8-.22-2.99-.41-3.73-.81-.46-.19-.81-.7-1.3-.7-.66.41-1.38.77-1.97,1.28-1.64-1.34-3.15-2.95-5.14-3.76-.53-.19-1.1-.3-1.68-.31h0Z"/><path id="o" d="m45.35,43.24c2.44-.23,9.93.71,16.44-.34,7.34-1.18,10.51-3.56,11.44-4.35,3.83-3.24,4.46-5.84,4.46-5.84l-20.14-2.59-6.56,3.51-4.58,5.26-1.07,4.35Z"/><path id="p" d="m47.26,70.23c1.14,4.91,10.78,6.27,11.84,7.11,1.39-.62,14.92-5.26,21.85-8.33,3.28-1.46,10.87-2.72,10.87-2.72l.19,1.99-33.08,11.29-13.12-4.39,1.45-4.94Z"/></g><g id="q"><path id="r" class="cp" d="m36.84,70.95c-5.29,8.95.16,22.46-2.57,40.32,21.32-.34,53.42,2.7,63.27-1.5-2.48-12.98,2.29-30.61-3.28-41.52-17.66,1.81-25.59,12.02-36.38,11.35-11.03-.68-13.75-5.87-21.05-8.66h0Z"/><path id="s" d="m93.85,68.41s-.05,0-.07,0c-5.1.61-10.12,1.95-14.81,4.05-4.4,1.86-8.58,4.22-13.04,5.89-3.25,1.23-6.78,1.67-10.22,1.14-3.53-.39-6.93-1.64-9.98-3.47-2.86-1.61-5.51-3.66-8.6-4.81-.65.15-.74,1.01-1.04,1.51-.81,1.93-1.1,4.08-1.28,6.15l-.14,4.83.61,12.53.14,7.99,7.53,1.19c-1.61-6.52-5.19-9.19-4-23.58,5.24,2.05,6.88,3.73,13.1,4.97-.96,8.03-.58,13.59-.37,20.09l-16.66-1.51c-.1,1.76-.28,3.52-.56,5.26.14.64,1.01.37,1.49.45,10.8.02,21.6.5,32.4.7,5.98-.03,11.97.08,17.95-.17,3.39-.29,6.82-.59,10.1-1.55.48-.13,1.13-.47.89-1.07-.19-1.28-.33-2.55-.43-3.83l-33.17,3.21-.43-20.18c1.8,2.72,23.99-7.6,33.49-9.49-.26-3.32-.86-6.61-2.24-9.66-.15-.26-.32-.66-.66-.65h0Z"/><path id="t" d="m65.95,89.43c.18,5.12.42,10.23.39,15.36.06.36-.17.89.23,1.1,3.53-.03,7.07-.09,10.6-.24-2.73-1.53-5.15-4.22-6.29-5.23-1.26-1.12-3.41-6.11-4.93-10.98Z"/><path id="u" class="dg" d="m36.54,89.55c.46.63.67.88,1.53.53s1.2-.52,1.2-.52c0,0,2.38,2.65,3.61,2.84,1.82.29,2.38-1.24,2.38-1.24,0,0-5.04-6.41-5.38-6.35s-3.34,4.73-3.34,4.73Z"/></g><g id="v"><path id="w" class="cq" d="m32.45,104.78c-1.08,1.73-1.25,4.39-.15,6.11.48.75,1.59.85,2.46,1.08,4.64,1.26,13.02,2.19,14.02,2.23,12.9.47,30.53-.08,33.34-.41,2.81-.32,11.68-2.37,13.19-3.02,1.51-.65,3.16-.81,3.68-2.05.35-.85.68-4.51-.22-6.47-.33-.72-1.19-1.73-1.73-1.62-.54.11-3.92,3.36-12.33,4.53-8.55,1.2-33.4.94-38.07.11-4.73-.84-11.34-1.64-11.99-1.64s-1.76.45-2.2,1.16h0Z"/><path id="x" d="m54.24,106.22l-1.6-.38c.17,3.08.84,5.61,1.99,8.14l3.68-.02-4.07-7.74Z"/><path id="y" class="cr" d="m54.24,81.66c-.13,0-3.09,20.88.88,30.62.3.73,1.46,2.83,1.46,2.83,2.65.22,5.27.12,7.87-.11,0,0,1.36-2.33,1.46-3.25,1-8.95-.59-28.5-.27-29.13.2-.38-6.15-3.99-6.15-3.99l-3.13.43-2.12,2.62Z"/><path id="z" d="m54.04,86.05l2.09.43s1.17-4.21,1.6-4.88c.1-.08,1.33-.74,1.83-.67.02.1,1.67,3.06,2.2,4.39.34.84.65,1.84.87,1.91.41.14,2.71-.34,2.71-.34l-.1-1.55s-4.28-4.89-4.3-5-1.91-1.64-1.91-1.64l-2.12,1.47-2.84,5.38-.05.5Z"/><path id="aa" class="cr" d="m35.66,69.18c-1.39,1.81-2.65,4.3-2.82,7.32,6.82,1.38,15.25,7.59,23.27,9.23,1.11-3.4,2.67-5.32,4.2-7.32-8.73-1.52-17.07-5.79-24.64-9.23h0Z"/><path id="ab" class="cr" d="m93.98,66.88c2.64,2.06,4.23,5.13,4.47,8.58-9.25,1.57-24.14,8.72-35.02,10.58-1.06-2.76-2.13-5.16-4.73-7.8,11.84-1.73,23.1-10.65,35.28-11.36h0Z"/><path id="ac" d="m34.68,103.9c-1.01.03-1.98.67-2.36,1.6-.67,1.47-.77,3.22-.16,4.72.22.54.63,1.05,1.24,1.19,4.28,1.19,8.71,1.81,13.12,2.32,1.99.22,3.99.28,5.99.32-6.09-1.87-16.79-4.02-17.64-10.15-.07,0-.14,0-.21,0h0Z"/><path id="ad" d="m66.46,106.41c-.09.22-.04.54-.08.76-.03,1.61-.11,3.24-.35,4.84-.17.65-.54,1.21-.77,1.82-.02.43.54.32.83.32,5.14-.13,10.29-.15,15.41-.51,2.35-.21,4.65-.76,6.95-1.24,2.24-.52,4.5-.99,6.68-1.72,1.04-.43,2.2-.63,3.13-1.29.15-.12.26-.25.36-.4-8.57,1.58-30.84,2.78-32.16-2.59h0Z"/><path id="ae" d="m54,86.05c-.07.38-.03.62-.12.95-.29,3.23-.57,6.34-.56,9.59-.05,4,.12,7.94.93,11.88.38,1.8.86,3.43,1.77,5.04.27.44.38,1.01.77,1.36,1.43.02,2.8.1,4.24.07-3.11-5.3-6.35-16.63-6.14-28.75-.29-.06-.58-.12-.88-.14h0Z"/><path id="af" d="m35.82,69.39s-.05,0-.07,0c-.39.19-.54.66-.8.99-1.06,1.68-1.77,3.6-1.96,5.58-.07.37.29.59.61.62,3.76.97,7.21,2.81,10.7,4.47.6.29,1.2.57,1.81.86-3.42-2.84-7.34-7.14-8.95-11.94-.3-.14-.59-.27-.89-.41-.15-.05-.29-.17-.45-.18h0Z"/><path id="ag" d="m61.14,77.88c-.55.12-1.1.24-1.64.36-.34.13-.21.52,0,.7,1.68,1.85,2.85,4.06,3.76,6.37.1.27.26.68.63.55,5.76-1.1,11.29-3.09,16.81-5.03-2.69.15-5.71.1-8.86-.39-5.3-.82-8.6-1.69-10.71-2.57h0Z"/></g><g id="ah"><path id="ai" class="de" d="m94.91,72.47c-.08,0-.16.01-.23.04-.45.16-.65.74-.45,1.3.2.56.72.89,1.17.73,0,0,0,0,0,0,.45-.16.65-.74.45-1.3-.16-.46-.54-.77-.94-.77Zm-2.32.7c-.08,0-.16.01-.23.04-.45.16-.65.74-.45,1.3.2.56.72.89,1.17.73,0,0,0,0,0,0,.45-.16.65-.74.45-1.3-.16-.46-.54-.77-.94-.77Zm-2.33.44c-.08,0-.16.01-.23.04-.45.16-.65.74-.45,1.3.2.56.72.89,1.17.73.45-.16.65-.74.45-1.3-.16-.46-.54-.77-.94-.77Zm-55.31.11c-.39,0-.78.31-.94.77-.2.56,0,1.14.45,1.3.45.16.97-.17,1.17-.73,0,0,0,0,0,0,.2-.56,0-1.14-.45-1.3-.07-.03-.15-.04-.23-.04h0Zm53.04.66c-.08,0-.16.01-.23.04-.45.16-.65.74-.45,1.3,0,0,0,0,0,0,.2.56.72.89,1.17.73,0,0,0,0,0,0,.45-.16.65-.74.45-1.3,0,0,0,0,0,0-.16-.46-.54-.77-.94-.77Zm-50.77.1c-.39,0-.78.31-.94.77-.2.56,0,1.14.45,1.3,0,0,0,0,0,0,.45.16.97-.17,1.17-.73.2-.56,0-1.14-.45-1.3,0,0,0,0,0,0-.07-.03-.15-.04-.23-.04h0Zm2.18.41c-.39,0-.78.31-.94.77-.2.56,0,1.14.45,1.3.45.16.97-.17,1.17-.73h0c.2-.56,0-1.14-.45-1.3-.07-.03-.15-.04-.23-.04h0Zm46.11.17c-.08,0-.16.01-.23.04-.45.16-.65.74-.45,1.3.2.56.72.89,1.17.73,0,0,0,0,0,0,.45-.16.65-.74.45-1.3-.16-.46-.54-.77-.94-.77Zm-2.74.82c-.08,0-.16.01-.23.04-.45.16-.65.74-.45,1.3.2.56.72.89,1.17.73,0,0,0,0,0,0,.45-.16.65-.74.45-1.3-.16-.46-.54-.77-.94-.77Zm-40.95.06c-.39,0-.78.31-.94.77-.2.56,0,1.14.45,1.3,0,0,0,0,0,0,.45.16.97-.17,1.17-.73,0,0,0,0,0,0,.2-.56,0-1.14-.45-1.3,0,0,0,0,0,0-.07-.03-.15-.04-.23-.04h0Zm2.21.99c-.39,0-.78.31-.94.77-.2.56,0,1.14.45,1.3,0,0,0,0,0,0,.45.16.97-.17,1.17-.73,0,0,0,0,0,0,.2-.56,0-1.14-.45-1.3,0,0,0,0,0,0-.07-.03-.15-.04-.23-.04Zm36.12.19c-.08,0-.16.01-.23.04-.45.16-.65.74-.45,1.3,0,0,0,0,0,0,.2.56.72.89,1.17.73,0,0,0,0,0,0,.45-.16.65-.74.45-1.3,0,0,0,0,0,0-.16-.46-.54-.77-.94-.77Zm-2.01,1.29c-.08,0-.16.01-.23.04-.45.16-.65.74-.45,1.3.2.56.72.89,1.17.73,0,0,0,0,0,0,.45-.16.65-.74.45-1.3-.16-.46-.54-.77-.94-.77Zm-31.91.12c-.39,0-.78.31-.94.77-.2.56,0,1.14.45,1.3.45.16.97-.17,1.17-.73,0,0,0,0,0,0,.2-.56,0-1.14-.45-1.3-.07-.03-.15-.04-.23-.04Zm29.38.75c-.08,0-.16.01-.23.04-.45.16-.65.74-.45,1.3.2.56.72.89,1.17.73,0,0,0,0,0,0,.45-.16.65-.74.45-1.3-.16-.46-.54-.77-.94-.77Zm-11.33.32c-.08,0-.16.01-.23.04-.45.16-.65.74-.45,1.3.2.56.72.89,1.17.73,0,0,0,0,0,0,.45-.16.65-.74.45-1.3-.16-.46-.54-.77-.94-.77Zm-9.74.17c-.39,0-.78.31-.94.77-.2.56,0,1.14.45,1.3,0,0,0,0,0,0,.45.16.97-.17,1.17-.73,0,0,0,0,0,0,.2-.56,0-1.14-.45-1.3,0,0,0,0,0,0-.07-.03-.15-.04-.23-.04Zm-3.94.27c-.39,0-.78.31-.94.77-.2.56,0,1.14.45,1.3,0,0,0,0,0,0,.45.16.97-.17,1.17-.73,0,0,0,0,0,0,.2-.56,0-1.14-.45-1.3,0,0,0,0,0,0-.07-.03-.15-.04-.23-.04Zm21.82.26c-.08,0-.16.01-.23.04-.45.16-.65.74-.45,1.3,0,0,0,0,0,0,.2.56.72.89,1.17.73,0,0,0,0,0,0,.45-.16.65-.74.45-1.3,0,0,0,0,0,0-.16-.46-.54-.77-.94-.77Zm-3.72.49c-.08,0-.16.01-.23.04-.45.16-.65.74-.45,1.3.2.56.72.89,1.17.73,0,0,0,0,0,0,.45-.16.65-.74.45-1.3-.16-.46-.54-.77-.94-.77Zm-10.04,8.19c-1.19,0-2.15.96-2.15,2.15,0,1.19.96,2.15,2.15,2.15,1.19,0,2.15-.96,2.15-2.15h0c0-1.19-.96-2.15-2.15-2.15h0Zm-.38,8.31c-1.19,0-2.15.96-2.15,2.15,0,1.19.96,2.15,2.15,2.15,1.19,0,2.15-.96,2.15-2.15h0c0-1.19-.96-2.15-2.15-2.15h0Zm38.15,7.32c-.67.01-1.2.7-1.19,1.54h0c.01.84.57,1.51,1.24,1.5.67-.01,1.2-.7,1.19-1.54h0c-.01-.84-.57-1.51-1.24-1.5Zm-36.89,1.2c-1.19,0-2.15.96-2.15,2.15,0,1.19.96,2.15,2.15,2.15,1.19,0,2.15-.96,2.15-2.15h0c0-1.19-.96-2.15-2.15-2.15Zm33.77.4c-.67.01-1.2.7-1.19,1.54.01.84.57,1.51,1.24,1.5,0,0,0,0,0,0,.67-.01,1.2-.7,1.19-1.54h0c-.01-.84-.57-1.51-1.24-1.5Zm-59.23.42c-.67-.01-1.22.66-1.24,1.5-.01.84.52,1.53,1.19,1.54h0c.67.01,1.22-.66,1.24-1.5.01-.84-.52-1.53-1.19-1.54h0Zm55.34.88c-.67.01-1.2.7-1.19,1.54,0,0,0,0,0,0,.01.84.57,1.51,1.24,1.5.67-.01,1.2-.7,1.19-1.54h0c-.01-.84-.57-1.51-1.24-1.5Zm-51.76.15c-.67-.01-1.22.66-1.24,1.5-.01.84.52,1.53,1.19,1.54h0c.67.01,1.22-.66,1.24-1.5.01-.84-.52-1.53-1.19-1.54h0Zm4.35.53c-.67-.01-1.22.66-1.24,1.5-.01.84.52,1.53,1.19,1.54,0,0,0,0,0,0,.67.01,1.22-.66,1.24-1.5.01-.84-.52-1.53-1.19-1.54h0Zm42.45.15c-.67.01-1.2.7-1.19,1.54.01.84.57,1.51,1.24,1.5,0,0,0,0,0,0,.67-.01,1.2-.7,1.19-1.54,0,0,0,0,0,0-.01-.84-.57-1.51-1.24-1.5Zm-37.41.53c-.67-.01-1.22.66-1.24,1.5-.01.84.52,1.53,1.19,1.54h0c.67.01,1.22-.66,1.24-1.5.01-.84-.52-1.53-1.19-1.54h0Zm31.61.08c-.67.01-1.2.7-1.19,1.54.01.84.57,1.51,1.24,1.5,0,0,0,0,0,0,.67-.01,1.2-.7,1.19-1.54,0,0,0,0,0,0-.01-.84-.57-1.51-1.24-1.5Zm-27,.11c-.67-.01-1.22.66-1.24,1.5-.01.84.52,1.53,1.19,1.54,0,0,0,0,0,0,.67.01,1.22-.66,1.24-1.5.01-.84-.52-1.53-1.19-1.54h0Zm21.58.11c-.67.01-1.2.7-1.19,1.54.01.84.57,1.51,1.24,1.5,0,0,0,0,0,0,.67-.01,1.2-.7,1.19-1.54,0,0,0,0,0,0-.01-.84-.57-1.51-1.24-1.5Zm-5.19.08c-.67.01-1.2.7-1.19,1.54,0,0,0,0,0,0,.01.84.57,1.51,1.24,1.5.67-.01,1.2-.7,1.19-1.54h0c-.01-.84-.57-1.51-1.24-1.5Z"/><path id="aj" class="db" d="m95.21,72.28c-.08,0-.16.01-.23.04-.45.16-.65.74-.45,1.3.2.56.72.89,1.17.73,0,0,0,0,0,0,.45-.16.65-.74.45-1.3-.16-.46-.54-.77-.94-.77Zm-2.32.7c-.08,0-.16.01-.23.04-.45.16-.65.74-.45,1.3.2.56.72.89,1.17.73,0,0,0,0,0,0,.45-.16.65-.74.45-1.3-.16-.46-.54-.77-.94-.77Zm-2.33.44c-.08,0-.16.01-.23.04-.45.16-.65.74-.45,1.3.2.56.72.89,1.17.73.45-.16.65-.74.45-1.3-.16-.46-.54-.77-.94-.77Zm-55.31.11c-.39,0-.78.31-.94.77-.2.56,0,1.14.45,1.3.45.16.97-.17,1.17-.73,0,0,0,0,0,0,.2-.56,0-1.14-.45-1.3-.07-.03-.15-.04-.23-.04Zm53.04.66c-.08,0-.16.01-.23.04-.45.16-.65.74-.45,1.3,0,0,0,0,0,0,.2.56.72.89,1.17.73,0,0,0,0,0,0,.45-.16.65-.74.45-1.3,0,0,0,0,0,0-.16-.46-.54-.77-.94-.77Zm-50.77.1c-.39,0-.78.31-.94.77-.2.56,0,1.14.45,1.3,0,0,0,0,0,0,.45.16.97-.17,1.17-.73.2-.56,0-1.14-.45-1.3,0,0,0,0,0,0-.07-.03-.15-.04-.23-.04Zm2.18.41c-.39,0-.78.31-.94.77-.2.56,0,1.14.45,1.3.45.16.97-.17,1.17-.73,0,0,0,0,0,0,.2-.56,0-1.14-.45-1.3-.07-.03-.15-.04-.23-.04Zm46.11.17c-.08,0-.16.01-.23.04-.45.16-.65.74-.45,1.3.2.56.72.89,1.17.73,0,0,0,0,0,0,.45-.16.65-.74.45-1.3-.16-.46-.54-.77-.94-.77Zm-2.74.82c-.08,0-.16.01-.23.04-.45.16-.65.74-.45,1.3.2.56.72.89,1.17.73,0,0,0,0,0,0,.45-.16.65-.74.45-1.3-.16-.46-.54-.77-.94-.77Zm-40.95.06c-.39,0-.78.31-.94.77-.2.56,0,1.14.45,1.3,0,0,0,0,0,0,.45.16.97-.17,1.17-.73,0,0,0,0,0,0,.2-.56,0-1.14-.45-1.3,0,0,0,0,0,0-.07-.03-.15-.04-.23-.04Zm2.21.99c-.39,0-.78.31-.94.77-.2.56,0,1.14.45,1.3,0,0,0,0,0,0,.45.16.97-.17,1.17-.73,0,0,0,0,0,0,.2-.56,0-1.14-.45-1.3,0,0,0,0,0,0-.07-.03-.15-.04-.23-.04Zm36.12.19c-.08,0-.16.01-.23.04-.45.16-.65.74-.45,1.3,0,0,0,0,0,0,.2.56.72.89,1.17.73,0,0,0,0,0,0,.45-.16.65-.74.45-1.3,0,0,0,0,0,0-.16-.46-.54-.77-.94-.77Zm-2.01,1.29c-.08,0-.16.01-.23.04-.45.16-.65.74-.45,1.3.2.56.72.89,1.17.73,0,0,0,0,0,0,.45-.16.65-.74.45-1.3-.16-.46-.54-.77-.94-.77Zm-31.91.12c-.39,0-.78.31-.94.77-.2.56,0,1.14.45,1.3.45.16.97-.17,1.17-.73h0c.2-.56,0-1.14-.45-1.3-.07-.03-.15-.04-.23-.04Zm29.38.75c-.08,0-.16.01-.23.04-.45.16-.65.74-.45,1.3.2.56.72.89,1.17.73,0,0,0,0,0,0,.45-.16.65-.74.45-1.3-.16-.46-.54-.77-.94-.77Zm-11.33.32c-.08,0-.16.01-.23.04-.45.16-.65.74-.45,1.3.2.56.72.89,1.17.73,0,0,0,0,0,0,.45-.16.65-.74.45-1.3-.16-.46-.54-.77-.94-.77Zm-9.74.17c-.39,0-.78.31-.94.77-.2.56,0,1.14.45,1.3,0,0,0,0,0,0,.45.16.97-.17,1.17-.73,0,0,0,0,0,0,.2-.56,0-1.14-.45-1.3,0,0,0,0,0,0-.07-.03-.15-.04-.23-.04Zm-3.94.27c-.39,0-.78.31-.94.77-.2.56,0,1.14.45,1.3,0,0,0,0,0,0,.45.16.97-.17,1.17-.73,0,0,0,0,0,0,.2-.56,0-1.14-.45-1.3,0,0,0,0,0,0-.07-.03-.15-.04-.23-.04Zm21.82.26c-.08,0-.16.01-.23.04-.45.16-.65.74-.45,1.3,0,0,0,0,0,0,.2.56.72.89,1.17.73,0,0,0,0,0,0,.45-.16.65-.74.45-1.3,0,0,0,0,0,0-.16-.46-.54-.77-.94-.77Zm-3.72.49c-.08,0-.16.01-.23.04-.45.16-.65.74-.45,1.3.2.56.72.89,1.17.73,0,0,0,0,0,0,.45-.16.65-.74.45-1.3-.16-.46-.54-.77-.94-.77Zm-10.04,8.19c-1.19,0-2.15.96-2.15,2.15,0,1.19.96,2.15,2.15,2.15,1.19,0,2.15-.96,2.15-2.15h0c0-1.19-.96-2.15-2.15-2.15h0Zm-.38,8.31c-1.19,0-2.15.96-2.15,2.15,0,1.19.96,2.15,2.15,2.15,1.19,0,2.15-.96,2.15-2.15h0c0-1.19-.96-2.15-2.15-2.15h0Zm38.15,7.32c-.67.01-1.2.7-1.19,1.54,0,0,0,0,0,0,.01.84.57,1.51,1.24,1.5.67-.01,1.2-.7,1.19-1.54h0c-.01-.84-.57-1.51-1.24-1.5Zm-36.89,1.2c-1.19,0-2.15.96-2.15,2.15,0,1.19.96,2.15,2.15,2.15,1.19,0,2.15-.96,2.15-2.15h0c0-1.19-.96-2.15-2.15-2.15Zm33.77.4c-.67.01-1.2.7-1.19,1.54.01.84.57,1.51,1.24,1.5h0c.67-.01,1.2-.7,1.19-1.54h0c-.01-.84-.57-1.51-1.24-1.5Zm-59.23.42c-.67-.01-1.22.66-1.24,1.5-.01.84.52,1.53,1.19,1.54h0c.67.01,1.22-.66,1.24-1.5.01-.84-.52-1.53-1.19-1.54h0Zm55.34.88c-.67.01-1.2.7-1.19,1.54,0,0,0,0,0,0,.01.84.57,1.51,1.24,1.5.67-.01,1.2-.7,1.19-1.54,0,0,0,0,0,0-.01-.84-.57-1.51-1.24-1.5Zm-51.76.15c-.67-.01-1.22.66-1.24,1.5-.01.84.52,1.53,1.19,1.54h0c.67.01,1.22-.66,1.24-1.5.01-.84-.52-1.53-1.19-1.54h0Zm4.35.53c-.67-.01-1.22.66-1.24,1.5-.01.84.52,1.53,1.19,1.54h0c.67.01,1.22-.66,1.24-1.5.01-.84-.52-1.53-1.19-1.54,0,0,0,0,0,0Zm42.45.15c-.67.01-1.2.7-1.19,1.54.01.84.57,1.51,1.24,1.5h0c.67-.01,1.2-.7,1.19-1.54h0c-.01-.84-.57-1.51-1.24-1.5Zm-37.41.53c-.67-.01-1.22.66-1.24,1.5-.01.84.52,1.53,1.19,1.54h0c.67.01,1.22-.66,1.24-1.5.01-.84-.52-1.53-1.19-1.54h0Zm31.61.08c-.67.01-1.2.7-1.19,1.54.01.84.57,1.51,1.24,1.5,0,0,0,0,0,0,.67-.01,1.2-.7,1.19-1.54,0,0,0,0,0,0-.01-.84-.57-1.51-1.24-1.5Zm-27,.11c-.67-.01-1.22.66-1.24,1.5-.01.84.52,1.53,1.19,1.54h0c.67.01,1.22-.66,1.24-1.5.01-.84-.52-1.53-1.19-1.54h0Zm21.58.11c-.67.01-1.2.7-1.19,1.54.01.84.57,1.51,1.24,1.5h0c.67-.01,1.2-.7,1.19-1.54,0,0,0,0,0,0-.01-.84-.57-1.51-1.24-1.5Zm-5.19.08c-.67.01-1.2.7-1.19,1.54h0c.01.84.57,1.51,1.24,1.5.67-.01,1.2-.7,1.19-1.54h0c-.01-.84-.57-1.51-1.24-1.5Z"/></g><g id="ak"><g id="al"><path id="am" class="cn" d="m81.08,35.2c1.66-3.2,3.27-6.09,6.81-6.73,1.54-.28,3.02.07,4.05,1.24,1.2,1.36,1.32,2.95.85,4.69-.52,1.95-2.92,1.69-4.03,2.2-3.19,1.48-5.06.72-6.66.26-.63-.18-1.54-.69-1.03-1.67Z"/><path id="an" class="ct" d="m80.92,36.38c1.48-2.85,3.6-6.91,6.77-7.48,1.37-.25,2.78.09,3.7,1.14,1.07,1.21,1.18,2.63.76,4.18-.47,1.74-2.42,1.54-3.49,1.76-2.76.58-3.21,2.73-5.77,1.27-.5-.29-2.42,0-1.96-.87Z"/><path id="ao" class="cn" d="m88.06,31.65c.28-.04.51-.05.69-.03.18.02.32.06.41.09.09.04.15.08.15.08.17.13-.06.22-.23.09,0,0-.01-.01-.07-.04-.06-.03-.17-.07-.32-.07-.53-.02-.87.06-1.62.35-1.64.63-2.17,2.5-2.17,2.5-.06.22-.39.1-.31-.11,0,0,.66-1.89,2.46-2.58.39-.15.73-.24,1.01-.28Z"/><path id="ap" class="cn" d="m86.33,33.67c.22,0,.42,0,.59.05.17.05.33.15.37.33.05.21-.07.02-.13-.04-.64-.65-1.97.06-2.11.2-.21.06-.3-.25-.09-.31.42-.12.93-.22,1.37-.24Z"/></g><g id="aq"><path id="ar" class="cn" d="m46.19,37.31c-2.32-2.77-4.5-5.24-8.11-5.1-1.56.06-2.93.72-3.69,2.08-.87,1.59-.65,3.16.18,4.77.93,1.79,3.19,1.25,4.41,1.28,3.29.1,5.13-.28,6.56-1.18.55-.35,1.36-1,.65-1.85Z"/><path id="as" class="ct" d="m46.62,37.64c-2.67-1.8-5.04-5.18-8.25-5.06-1.39.05-2.69.69-3.36,1.91-.78,1.41-.58,2.82.16,4.25.83,1.6,2.84,1.18,3.93,1.14,5.12-.2,4.18.76,4.73.62.56-.14,3.66-2.27,2.8-2.86h0Z"/><path id="at" class="cn" d="m38.6,35.36c-.25,0-.51,0-.76.04-.18.03-.36.05-.51.13-.05.03-.14.06-.13.11.02.08.16.06.24.04.03,0,.04-.04.06-.05.13-.06.29-.08.43-.09.58-.05.94-.04,1.73.07,1.74.26,2.66,1.97,2.66,1.97.11.2.41.02.28-.17,0,0-1.05-1.7-2.96-1.99-.42-.06-.7-.06-1.05-.06h0Z"/><path id="au" class="cn" d="m40.73,36.95c-.22.04-.41.1-.56.18-.15.08-.29.22-.29.4,0,.22.08,0,.12-.06.48-.77,1.93-.37,2.1-.26.22.02.24-.31.02-.32-.43-.03-.96-.01-1.39.07Z"/></g></g><g id="av"><path id="aw" class="dg" d="m81.5,85.41s-1.34,1.37-1.35,1.56c-.03.51.92,1.97.92,1.97,0,0-2.25,1.76-2.32,2.7-.08,1.05.49,2.05,1.4,2.19s3.8-2.43,3.8-2.43c0,0,1.13.57,1.7.46.57-.11,2.56-1.94,2.56-1.94l-6.72-4.5Z"/><g id="ax" class="cy"><path id="ay" class="dc" d="m85.04,86.93c.36.44.55.85.59,1.22s-.06.72-.23,1.07-.43.7-.71,1.07-.58.75-.89,1.12-.62.71-.94.98-.63.5-.93.64c-.3.14-.6.21-.89.15-.29-.05-.57-.22-.83-.54-.27-.32-.39-.62-.39-.91,0-.29.11-.57.3-.84.19-.27.46-.53.76-.81s.62-.6.93-.98.55-.84.79-1.28.46-.85.7-1.14c.24-.29.5-.45.79-.43.29.02.6.23.97.68Z"/><path id="az" class="cm" d="m83.18,86.37c-.25.25-.49.6-.73.99-.28.45-.57.95-.93,1.39-.35.44-.72.81-1.05,1.15-.33.34-.62.67-.82,1-.2.33-.31.68-.29,1.04.02.36.15.72.43,1.07.28.35.6.55.94.63s.7.02,1.07-.13c.37-.15.76-.38,1.14-.69s.76-.68,1.12-1.11.69-.86.98-1.26c.29-.4.54-.79.71-1.16.06-.14.11-.29.15-.43.07-.29-.37-.76-.38-.45,0,.29-.09.56-.23.84-.17.33-.41.67-.68,1.03s-.56.72-.86,1.08-.6.68-.9.95c-.3.26-.6.48-.89.61s-.58.2-.85.15c-.28-.05-.55-.21-.8-.52-.26-.3-.37-.6-.38-.88s.1-.55.29-.8.44-.51.73-.78.6-.58.9-.94.53-.81.76-1.23.44-.82.67-1.1c.03-.03.06-.07.09-.1.08-.08.15-.15.23-.2.09-.06-.08-.45-.3-.24-.03.03-.07.07-.11.1Z"/></g><path id="ba" class="cr" d="m80.75,86.48c.81,1.62,2.93,3.33,5.34,4.64l3.08-2.64c1.77-4.57-.02-5.2-6.37-4.37l-2.05,2.37Z"/><circle id="bb" class="db" cx="84.63" cy="87.91" r=".75"/><circle id="bc" class="db" cx="86.02" cy="89.15" r=".75"/><g id="bd" class="cy"><path id="be" class="dc" d="m39.3,85.8c-.31.48-.45.91-.44,1.28s.14.71.36,1.03.51.65.82.98.66.67,1.01,1.01.7.63,1.05.87.68.42,1,.53c.32.11.62.13.9.05.28-.09.54-.29.77-.63.23-.34.31-.66.28-.95-.03-.29-.17-.55-.39-.8-.22-.24-.52-.47-.85-.72s-.69-.52-1.04-.87-.65-.77-.93-1.18-.55-.79-.82-1.05c-.27-.26-.55-.39-.83-.34-.28.06-.57.3-.88.79Z"/><path id="bf" class="cm" d="m41.08,85.03c.28.22.55.54.84.9.33.41.68.87,1.08,1.27.4.4.81.72,1.17,1.03.37.3.69.59.93.9.24.31.38.64.41,1,.03.36-.07.73-.31,1.12-.24.38-.53.62-.86.73s-.7.1-1.08,0c-.39-.1-.8-.3-1.21-.55s-.83-.58-1.24-.97-.78-.77-1.12-1.14c-.34-.37-.63-.72-.84-1.08-.08-.14-.14-.27-.19-.41-.1-.28.28-.8.33-.49.04.28.16.55.33.8.21.31.49.62.79.94s.64.65.98.97.68.61,1.01.84c.33.23.65.4.96.51s.59.13.86.05c.27-.08.52-.28.74-.61.22-.33.3-.64.27-.92s-.16-.53-.38-.77-.5-.45-.82-.69-.66-.5-1-.84-.62-.74-.89-1.14-.53-.76-.79-1.01c-.03-.03-.07-.06-.1-.09-.08-.07-.17-.13-.25-.17-.1-.04.03-.45.27-.27.04.03.08.06.12.09Z"/></g><path id="bg" class="cs" d="m42.72,86.54c-1.05,1.22-3.26,2.26-5.62,2.87l-1.85-2.95c.45-3.73,1.36-4.12,6.21-2.41l1.26,2.5Z"/><circle id="bh" class="db" cx="39.54" cy="86.92" r=".75"/><circle id="bi" class="db" cx="37.81" cy="87.63" r=".75"/></g><g id="bj"><path id="bk" class="cm" d="m58.78,65.97l3.82-.27c.59-.04,1.2.39,1.21.98.02,1.31.21,2.07-.08,4.2-.08.55-.71,1.13-1.3,1.15l-2.63.07c-.59.02-1.23-.43-1.19-1.02.12-2.13-.42-2.81-.74-3.98-.15-.57.32-1.09.91-1.13h0Z"/><path id="bl" class="cv" d="m59.17,66.51l3.14-.23c.48-.03.97.32,1,.81.06,1.16.35,2.16.08,3.55-.1.51-.3.75-.75.93-.95.38-1.81.17-2.71.2-.48.02-1.02-.32-1-.81.08-1.39-.23-2.44-.5-3.52-.12-.47.26-.9.75-.93h0Z"/><path id="bm" class="cm" d="m54.48,65.21c.24,2.69,3.16,3.16,6.66,2.77,3.5-.38,6.15-1.52,5.96-3.69-.25-2.86-3.31-4.53-6.81-4.15-3.5.38-6.1,1.69-5.8,5.06h0Z"/><path id="bn" class="dc" d="m55.63,65.06c.2,2.25,2.65,2.65,5.59,2.33,2.94-.32,5.16-1.28,5-3.1-.21-2.4-2.78-3.8-5.72-3.48-2.94.32-5.12,1.42-4.87,4.25h0Z"/><path id="bo" class="cm" d="m56.56,61.07c.16,1.44,2.1,2.4,4.34,2.16h0c2.24-.24,3.93-1.61,3.77-3.05h0c-.16-1.44-2.1-2.4-4.34-2.16h0c-2.24.24-3.93,1.61-3.77,3.05h0Z"/></g></g><g id="bp"><path id="bq" class="cm" d="m64.87,52c-.24,3.92,1.44,7.69,4.21,10.56,2.77,2.87,6.64,4.85,10.96,5.12,4.31.27,8.25-1.21,11.14-3.75s4.72-6.11,4.96-10.03c.24-3.92-1.11-7.45-3.49-10.03-2.38-2.58-5.85-4.22-10.17-4.48-4.32-.26-8.66.89-11.93,3.12-3.27,2.23-5.43,5.56-5.67,9.49Z"/><path id="br" class="cv" d="m65.89,51.72c-.27,3.71,1.27,7.29,3.86,10.02,2.59,2.73,6.22,4.62,10.28,4.9,4.06.28,7.77-1.09,10.51-3.47,2.74-2.38,4.5-5.75,4.76-9.46.27-3.71-.96-7.06-3.19-9.53-2.23-2.46-5.5-4.04-9.56-4.31-4.06-.27-8.14.8-11.23,2.9-3.09,2.09-5.16,5.23-5.43,8.95h0Z"/><path id="bs" class="cm" d="m28.45,54.83c-.05,3.67,1.54,6.9,4.11,9.26,2.57,2.36,6.14,3.84,10.08,3.95,3.94.11,7.52-1.18,10.12-3.4,2.6-2.22,4.21-5.37,4.26-9.04.05-3.67-1.46-7.19-3.94-9.88-2.48-2.69-5.95-4.51-9.9-4.61-3.95-.11-7.62,1.52-10.31,4.06-2.68,2.54-4.37,5.98-4.42,9.65h0Z"/><path id="bt" class="cv" d="m29.37,54.18c-.06,3.45,1.41,6.5,3.8,8.72,2.39,2.22,5.71,3.63,9.38,3.74,3.67.11,7.01-1.09,9.44-3.17,2.43-2.08,3.94-5.04,4-8.49.06-3.45-1.33-6.76-3.64-9.28-2.31-2.52-5.54-4.23-9.23-4.34-3.68-.11-7.1,1.39-9.61,3.76-2.5,2.37-4.09,5.59-4.14,9.04h0Z"/><g id="bu"><circle id="bv" class="cm" cx="37.78" cy="53.39" r="3.78"/><circle id="bw" class="cv" cx="35.73" cy="52.07" r="2.65"/></g><g id="bx"><circle id="by" class="cm" cx="83.24" cy="50.27" r="4.15"/><circle id="bz" class="cv" cx="80.53" cy="48.68" r="2.9"/></g></g><g id="ca"><g id="cb" class="cy"><path id="cc" class="cx" d="m70.38,8.98c-3.71,3.56-7.5,7.24-9.9,11.85-3.13-3.57-6.41-7.09-10.15-10.01-1-.16-1.09,1.14-.92,1.83-.03,3.13-.07,6.27-.08,9.41-3.47-1.05-6.91-2.25-10.41-3.19-.92.11-.59,1.26-.05,1.65,3.57,4.74,6.68,9.89,9.16,15.3,2.62,1.96,6.08,2.12,9.21,2.44,6.55.34,13.54-.32,19.16-4,.8-.55,1.69-1.23,1.61-2.32,1.11-6.8,4.33-13.02,7.51-19.07.5-.9-.86-1.13-1.35-.59-2.17,1.82-4.58,3.35-6.81,5.09-1.81,1.33-3.62,2.65-5.44,3.96-.57-3.65-.47-7.39-.52-11.08.11-.6-.21-1.66-1.01-1.3h0Z"/><path id="cd" class="db" d="m77.25,32.76c-7.34,6.72-25.21,5.56-28.71,2.69-3.65-8.36-9.63-15.95-9.63-15.95l11.08,3.46.09-11.56c3.57,2.94,7.08,6.52,10.56,10.62,2.61-5.42,6.44-8.8,10.09-12.48,0,0,0,13.4.94,12.81.94-.59,13.35-9.77,13.35-9.77,0,0-6.89,11.73-7.77,20.2Z"/><path id="ce" class="da" d="m70.45,9.8c-2.09,2.08-4.21,4.1-6.13,6.46.06,5.52.02,12.15-.42,15.2-.28,1.97-.59,4.11-.89,6.16.88-.06,1.77-.15,2.66-.27.91-4.6,3.66-18.42,4.04-19.89.28-1.09.65-4.87.75-7.66h0Z"/><path id="cf" class="cz" d="m85.02,12.56s-2.34,1.73-4.96,3.66c-2.57,6.35-5.45,14.42-6.89,19.12,1.55-.69,2.94-1.54,4.08-2.58.89-8.47,7.77-20.2,7.77-20.2h0Zm-46.12,6.93s5.99,7.6,9.63,15.95c1.07.88,3.49,1.6,6.53,1.98-1.59-3.95-3.56-9.41-5.28-14.54l-10.88-3.4Z"/></g></g><g id="cg" class="co"><path id="ch" class="dh" d="m42.82,41.13c-.21,0-.42,0-.63,0-6.29.2-12.05,5.29-12.96,11.53-.17,1.5-.13,3.05.22,4.53,1.14,4.51,5.05,7.99,9.47,9.18,2.31.65,4.79.69,7.14.24,2.04-.38,3.98-1.28,5.62-2.56-8.72,2.71-17.94-2.06-18.68-7.84-1.26-9.77,8.66-14.43,14.72-14.1-1.54-.65-3.21-1.01-4.9-.98Z"/><path id="ci" class="dd" d="m80.96,39.59c-3.93,0-7.89,1.33-10.93,3.84-2.65,2.16-4.43,5.45-4.43,8.9-.11,4.35,2.26,8.49,5.63,11.13,2.41,1.9,5.36,3.18,8.43,3.44,1.91,0,3.86.09,5.69-.56,2.59-.77,4.95-2.29,6.74-4.31-10.16,5.02-21.51-1.95-22.4-8.89-1.25-9.71,7.18-13.77,13.45-13.49-.43-.04-.87-.06-1.31-.06-.29,0-.58,0-.87,0h0Zm5.68.78c.56.23,1.06.52,1.48.86h.55c-.65-.34-1.33-.62-2.03-.86h0Z"/><path id="cj" d="m57.38,61.67c-1.19.66-1.89,1.73-1.74,3.39.2,2.25,2.65,2.65,5.59,2.33,1.18-.13,2.24-.36,3.08-.71-3.68-.19-8.31-1.31-6.92-5.01Z"/><path id="ck" d="m63.33,67.4c-1.5.08-3.42.19-4.84.3.25.99.51,1.97.44,3.26-.03.49.51.82,1,.81.9-.03,1.77.18,2.71-.2.21-.08.37-.18.49-.32-1.12.24-2.45.37-3.24-.15-.56-.37-.61-1.91-.11-2.38.48-.44,1.89-.38,3.61-.77-.02-.18-.04-.37-.05-.55Z"/><path id="cl" d="m35.25,34.1c-.47.66-.76,1.47-.74,2.29-.01.79.27,1.56.61,2.27.24.5.67.91,1.2,1.1.9.34,1.88.16,2.82.14.97-.02,1.94-.06,2.91.04.52.05,1.06.15,1.48.48.16.21.44.07.62-.03.3-.17.6-.36.89-.56-1.41-.36-3.45-.77-5.71-.87-3.48-.16-4.12-1.82-4.07-4.84Z"/></g></svg>