<?xml version="1.0" encoding="UTF-8"?><svg id="a" xmlns="http://www.w3.org/2000/svg" viewBox="0 0 128 128"><defs><style>.cz,.da{fill:#394655;}.db{fill:#fff;}.dc{fill:#29beb0;}.dd{fill:#2e3436;}.de{fill:#e71f1f;}.df{isolation:isolate;}.dg,.dh,.di,.dj,.dk,.dl,.dm{stroke-linecap:round;}.dg,.dk{stroke-miterlimit:3;stroke-width:.37px;}.dg,.dk,.dn,.do{stroke:#9d9d9d;}.dp{stroke-width:.78px;}.dp,.dh,.dq,.di,.dr,.dj,.da,.dn,.ds,.dt,.du{fill-rule:evenodd;}.dp,.dh,.dj,.ds{stroke:#000;}.dv{opacity:.06;}.dw{fill:#b4b4b4;}.dh{stroke-width:.47px;}.dx{fill:#eecd1a;}.dq{fill:#c88825;}.di,.dr,.dk,.dn,.dt{fill:#e7e7e7;}.di,.dr,.dn,.dl,.do,.dm,.dt,.dy{stroke-miterlimit:3.2;}.di,.dr,.dn,.do,.dy{stroke-width:.75px;}.di,.dr,.dm,.dt,.dy{stroke:#646464;}.dj,.ds{stroke-width:.94px;}.dz{fill:#373737;}.ea{fill:#e1d6b9;}.eb{fill:#394455;}.ec{fill:#e1d0cb;}.dl{fill:#5f656f;stroke:#595f67;stroke-width:1.62px;}.do,.dm,.dy{fill:none;}.dm{stroke-width:.38px;}.dt{stroke-width:.51px;}.ed{fill:#96d6ff;}</style></defs><rect class="dc" x="0" y="0" width="128" height="128" rx="25" ry="25" transform="translate(128 0) rotate(90)"/><g id="b"><g id="c"><path id="d" class="ea" d="m46.16,103.89c-.59-.11-1.06-.07-1.42.08s-.63.42-.86.76-.43.75-.62,1.19-.39.91-.58,1.39-.33.93-.43,1.36-.14.83-.12,1.18c.02.35.12.65.31.89.19.24.49.41.92.49.42.08.77.04,1.04-.1.27-.14.47-.39.62-.7.15-.31.25-.69.36-1.11s.23-.88.43-1.35.5-.94.78-1.37.55-.85.69-1.22c.14-.37.16-.69,0-.94-.17-.25-.52-.44-1.11-.54Z"/><path id="e" class="cz" d="m47.62,105.31c-.1.36-.31.75-.54,1.18-.27.48-.58,1-.8,1.55-.23.55-.38,1.07-.53,1.55-.15.48-.3.91-.51,1.26-.21.35-.47.63-.81.79-.34.17-.74.22-1.21.15-.47-.08-.81-.27-1.05-.55s-.37-.64-.43-1.05c-.05-.42-.03-.89.06-1.39s.24-1.04.45-1.59.44-1.07.66-1.54c.22-.47.45-.9.71-1.24.1-.13.21-.25.32-.35.23-.21.89-.04.61.12-.26.15-.35.35-.52.62-.22.33-.37.75-.54,1.16s-.49.79-.66,1.21c-.17.42-.3.83-.38,1.22-.08.39-.12.76-.1,1.09.02.33.11.62.29.84.18.22.45.37.83.45.38.07.68.03.9-.1.22-.14.24-.52.35-.81.11-.29.27-.64.37-1.01.09-.37.25-.61.48-1.02.23-.41.58-.81.9-1.22s.58-.82.72-1.17c.02-.04.03-.09.05-.13.03-.11.06-.21.06-.31,0-.11.45-.15.37.15-.01.05-.02.1-.04.15h0Z"/></g><g id="f"><path id="g" class="ea" d="m74.08,102.54c.59-.11,1.06-.07,1.42.08s.63.42.86.76.43.75.62,1.19.39.91.58,1.39.33.93.43,1.36.14.83.12,1.18c-.02.35-.12.65-.31.89-.19.24-.49.41-.92.49-.42.08-.77.04-1.04-.1-.27-.14-.47-.39-.62-.7-.15-.31-.25-.69-.36-1.11s-.23-.88-.43-1.35-.5-.94-.78-1.37-.55-.85-.69-1.22c-.14-.37-.16-.69,0-.94.17-.25.52-.44,1.11-.54Z"/><path id="h" class="cz" d="m72.63,103.97c.1.36.31.75.54,1.18.27.48.58,1,.8,1.55.23.55.38,1.07.53,1.55.15.48.3.91.51,1.26.21.35.47.63.81.79.34.17.74.22,1.21.15.47-.08.81-.27,1.05-.55s.37-.64.43-1.05c.05-.42.03-.89-.06-1.39s-.24-1.04-.45-1.59-.44-1.07-.66-1.54c-.22-.47-.45-.9-.71-1.24-.1-.13-.21-.25-.32-.35-.23-.21-.89-.04-.61.12.26.15.35.35.52.62.22.33.37.75.54,1.16s.49.79.66,1.21c.17.42.3.83.38,1.22.08.39.12.76.1,1.09-.02.33-.11.62-.29.84-.18.22-.45.37-.83.45-.38.07-.68.03-.9-.1-.22-.14-.24-.52-.35-.81-.11-.29-.27-.64-.37-1.01-.09-.37-.25-.61-.48-1.02-.23-.41-.58-.81-.9-1.22s-.58-.82-.72-1.17c-.02-.04-.03-.09-.05-.13-.03-.11-.06-.21-.06-.31,0-.11-.45-.15-.37.15.01.05.02.1.04.15h0Z"/></g><g id="i" class="df"><path id="j" class="cz" d="m27.67,74.32c.12,2.38.19,4.75.31,7.07.12,2.32.31,4.59.67,6.77.36,2.19.91,4.29,1.76,6.28.85,1.99,2,3.85,3.57,5.57,1.98,2.16,4.67,3.91,7.87,5.2,3.2,1.29,6.9,2.13,10.9,2.46s8.3.17,12.67-.56c4.37-.72,8.83-2.01,13.12-3.91,1.24-.55,2.49-1.38,3.68-2.37,1.19-1,2.32-2.16,3.32-3.4s1.87-2.54,2.54-3.81,1.14-2.5,1.34-3.59c.42-2.29.54-4.36.51-6.3s-.22-3.78-.42-5.58c-.2-1.8-.42-3.58-.52-5.43s-.08-3.78.2-5.88c.22-1.67.47-3.29.7-4.91.23-1.62.45-3.25.61-4.93s.25-3.44.24-5.3-.13-3.85-.41-6.01c-.18-1.45-.47-3.01-.87-4.59s-.94-3.18-1.61-4.71c-.68-1.53-1.5-2.98-2.48-4.26s-2.14-2.4-3.48-3.25c-1.75-1.11-3.4-2.06-5.02-2.85-1.62-.78-3.2-1.4-4.81-1.86-1.62-.46-3.27-.76-5.02-.9-1.75-.14-3.6-.12-5.61.06-2.86.25-5.71.5-8.48.86s-5.47.81-8.04,1.46c-2.57.65-5,1.49-7.24,2.62-2.24,1.13-4.29,2.55-6.07,4.34-1.28,1.28-2.33,2.75-3.18,4.35-.85,1.6-1.5,3.34-1.96,5.16-.47,1.82-.75,3.72-.87,5.65-.12,1.93-.09,3.88.09,5.81.13,1.4.26,2.76.4,4.09.14,1.33.28,2.62.42,3.88.14,1.26.27,2.5.4,3.7.13,1.2.25,2.38.36,3.53.04.48.09.95.13,1.43.04.47.08.94.11,1.4s.07.92.1,1.38c.03.45.06.91.08,1.35h0Z"/><path id="k" class="ed" d="m29.01,83.14c.11,2.19.4,4.38.92,6.48.52,2.1,1.27,4.12,2.31,5.99s2.38,3.57,4.08,5.05,3.75,2.72,6.21,3.66c2.29.88,4.89,1.53,7.7,1.92,2.81.4,5.83.54,8.96.4,3.13-.14,6.36-.57,9.58-1.32s6.44-1.83,9.54-3.27c1.18-.55,2.36-1.36,3.48-2.35s2.18-2.13,3.12-3.33,1.74-2.47,2.35-3.69c.61-1.22,1.03-2.4,1.18-3.43.33-2.17.41-4.17.37-6.06-.04-1.9-.21-3.69-.38-5.46-.18-1.77-.36-3.52-.44-5.33s-.05-3.67.2-5.66c.21-1.67.43-3.24.64-4.78.21-1.55.4-3.08.54-4.67.14-1.59.23-3.24.24-5.03s-.08-3.72-.29-5.87c-.14-1.41-.38-2.93-.74-4.48-.36-1.55-.85-3.12-1.49-4.61s-1.42-2.92-2.37-4.18c-.95-1.26-2.07-2.35-3.38-3.17-1.66-1.04-3.2-1.95-4.7-2.71-1.5-.76-2.97-1.38-4.46-1.86-1.5-.47-3.02-.8-4.65-.97-1.63-.18-3.36-.2-5.26-.07-3.01.21-6.02.44-8.96.8-2.94.36-5.81.85-8.52,1.58-2.71.73-5.25,1.69-7.55,2.99-2.29,1.3-4.34,2.94-6.03,5.02-1.55,1.9-2.59,4.11-3.27,6.5-.67,2.38-.98,4.94-1.07,7.52s.04,5.21.24,7.73.48,4.96.72,7.17c.05.45.09.89.14,1.33.04.44.08.87.12,1.31.04.43.07.86.11,1.28s.07.85.1,1.26c.09,1.28.17,2.54.24,3.77s.12,2.43.18,3.62c.05,1.19.1,2.35.15,3.51.05,1.16.1,2.3.16,3.44h0Z"/></g><g id="l"><path id="m" class="ed" d="m73.79,24.86c-.19.76-.08,1.51.21,2.19.29.68.74,1.28,1.26,1.76.52.48,1.11.84,1.8,1.07.69.22,1.55.43,2.35.31.8-.12,1.37-.56,1.84-1.02.47-.47.97-1.05,1.78-1.58.81-.53,1.6-1.08,1.95-1.67.35-.59.57-1.2.66-1.82.09-.62.02-1.18-.16-1.68-.19-.51-.49-.95-.9-1.33-.41-.38-.91-.69-1.51-.9-.59-.22-1.27-.34-2.02-.34-.75,0-1.51.12-2.25.34-.74.23-1.45.56-2.1.98-.65.42-1.23.94-1.68,1.52-.45.59-1.03,1.42-1.23,2.18h0Z"/><path id="n" class="cz" d="m81.68,19.48c.58.06,1.11.19,1.6.37.65.25,1.2.59,1.65,1.01s.79.91,1,1.47.29,1.17.21,1.84c-.08.67-.32,1.34-.68,1.98s-1.07,1.25-1.97,1.8c-.9.55-1.45,1.17-1.95,1.67-.5.49-.31.38-1.23.38-.11,0-.12-.3-.02-.32.81-.14.43-.24.92-.61.46-.46.94-1.02,1.74-1.54s1.57-1.05,1.9-1.63.56-1.17.65-1.77c.08-.6.02-1.15-.16-1.64-.18-.49-.48-.93-.88-1.3s-.89-.67-1.47-.88c-.29-.11-.6-.19-.93-.25-.33-.06-.68-.09-1.05-.09-.74,0-1.48.11-2.2.33-.72.22-1.42.54-2.06.96s-1.2.91-1.64,1.49c-.44.57-1.01,1.39-1.2,2.12-.16.61-.34.61-.11,1.27.04.12-.58.09-.71-.21-.23-.56.03-.54.2-1.12.23-.78.78-1.7,1.26-2.33.49-.63,1.12-1.19,1.82-1.64s1.47-.8,2.27-1.04,1.62-.35,2.43-.34c.2,0,.4.02.6.04h0Z"/><path id="o" class="da" d="m81.39,23.3c.3.11.57.34.73.73.12.29.14.63.06,1.06-.05.28-.15.6-.28.95-.05.13-.34.38-.53.51-.3.2-.69.42-.73.36-.03-.04.47-.22.73-.49.22-.22.32-.47.4-.87.12-.59.07-.97-.06-1.26-.18-.43-.49-.62-.83-.68s-.71.01-.97.1c-.56.19-1.32.51-2.14,1.3-.15.15-.25.06-.1-.08.86-.79,1.61-1.33,2.27-1.55.31-.1.73-.2,1.14-.14.1.01.2.04.3.08h0Z"/></g><g id="p"><path id="q" class="ed" d="m45.73,26.06c0,.78-.28,1.49-.73,2.08-.44.59-1.03,1.06-1.64,1.4-.62.34-1.28.55-2,.61-.72.05-1.61.05-2.36-.26-.75-.3-1.2-.87-1.54-1.43-.34-.57-.69-1.25-1.35-1.96-.66-.71-1.3-1.43-1.49-2.09-.19-.66-.27-1.3-.21-1.92.06-.62.26-1.15.56-1.6.3-.45.71-.81,1.19-1.08.49-.27,1.05-.45,1.68-.52.63-.07,1.31-.03,2.04.15.73.18,1.44.47,2.1.87.66.39,1.28.89,1.81,1.45.53.57.97,1.2,1.27,1.88.3.68.66,1.63.67,2.41h0Z"/><path id="r" class="cz" d="m39.35,18.95c-.58-.08-1.13-.08-1.64-.02-.69.09-1.31.29-1.85.59s-.99.7-1.32,1.19-.56,1.07-.64,1.74c-.08.67-.01,1.37.19,2.08s.74,1.47,1.48,2.22c.74.75,1.13,1.49,1.5,2.09.37.6.21.44,1.1.66.1.03.19-.27.1-.31-.76-.33-.36-.33-.75-.81-.34-.55-.67-1.22-1.32-1.91s-1.27-1.4-1.46-2.04-.27-1.27-.21-1.88c.06-.6.25-1.12.55-1.56.29-.44.69-.79,1.16-1.05s1.03-.44,1.64-.5c.31-.03.63-.04.96-.02.33.02.68.08,1.04.16.72.17,1.41.46,2.06.85.65.38,1.25.87,1.77,1.42s.95,1.17,1.24,1.83c.29.66.65,1.59.66,2.35,0,.62.19.67-.19,1.26-.07.11.54.22.74-.04.36-.48.1-.54.07-1.14-.03-.81-.35-1.83-.67-2.57-.32-.73-.8-1.42-1.37-2.03s-1.24-1.13-1.96-1.55-1.49-.73-2.28-.91c-.2-.04-.39-.08-.59-.11h0Z"/><path id="s" class="da" d="m38.72,22.73c-.31.04-.63.19-.89.53-.19.25-.28.58-.31,1.01-.02.29,0,.62.05.99.02.13.24.45.39.62.25.26.57.57.62.53.04-.03-.4-.33-.6-.65-.16-.27-.19-.54-.18-.94.02-.6.17-.96.36-1.21.28-.37.62-.48.97-.46s.68.18.92.33c.5.32,1.16.81,1.77,1.77.11.18.23.12.12-.06-.65-.98-1.24-1.68-1.84-2.05-.27-.17-.66-.37-1.07-.41-.1-.01-.21-.01-.31,0h0Z"/></g></g><g id="t" class="dv"><path id="u" class="dk" d="m53.33,106.53c-6.24-.56-11.22-2-14.72-4.26-5.12-3.3-8.13-8.47-9.19-15.75-.17-1.18-.38-4.03-.52-7.04-.34-7.41-.62-11.8-1.04-15.84-.2-1.98-.47-4.55-.59-5.72-.32-3.11-.43-9.08-.22-11.38.62-6.68,2.76-11.15,7.02-14.64,1.37-1.12,3.56-2.48,3.88-2.39.4.11.47-.18.12-.54-.17-.18-.64-.82-1.05-1.42-.4-.61-1.06-1.49-1.45-1.97-.82-.99-1.12-1.97-.95-3.17.41-2.95,4.28-3.88,7.49-1.79,2.17,1.41,3.61,3.95,3.4,5.99-.08.75-.07.78.27.78.38,0,.7-.44.57-.78-.1-.27-.02-.3,2.36-.74,2.2-.41,5.61-.85,9.39-1.21,3.65-.35,9.21-.35,11-.01,2.1.4,3.74.92,3.98,1.27.12.17.33.31.48.31.21,0,.27-.12.27-.56,0-1.22,1.37-3.29,2.81-4.25,1.32-.88,2.36-1.23,3.93-1.32,2.21-.12,3.78.58,4.5,2.04.44.89.49,1.7.15,2.72-.33,1-.77,1.51-2.07,2.43-.63.44-1.47,1.14-1.87,1.56s-.81.75-.92.75-.19.1-.19.23c0,.18.13.22.57.19.72-.05,1.36.37,2.76,1.82,4.85,5.03,6.92,14.68,5.68,26.5-.12,1.17-.42,3.55-.67,5.28-.66,4.64-.72,8.12-.21,13.59.55,5.93.5,10.3-.14,12.89-.3,1.22-1.62,3.85-2.73,5.43-1.18,1.67-3.97,4.49-5.38,5.41-3.36,2.22-10.19,4.37-16.6,5.24-2.04.28-8.4.48-10.12.33h0Zm27.98-79.88c.62-.38.92-1.04.92-2.01,0-.63-.06-.78-.45-1.1-.82-.69-1.95-.43-3.48.78-.83.66-.96,1.04-.14.42.68-.52,1.58-.95,2.21-1.07.47-.09.59-.05.98.34.7.7.52,1.97-.38,2.64-.55.41-.31.41.35,0Zm-43.08-.7c-.62-.87-.28-2.46.58-2.73.6-.19,1.97.69,2.74,1.76.17.24.36.39.42.33.18-.18-1.14-1.75-1.83-2.19-1.32-.84-2.48-.39-2.61,1.02-.09.97.01,1.37.49,1.85.51.51.59.49.21-.04h0Z"/><path id="v" class="dg" d="m80.91,20.16c-1.95,0-2.78.26-4.3,1.3-1.5,1.02-3.04,3.51-2.78,4.49.1.4-.46.39-.74-.01-.05-.07-.14-.15-.27-.22,5.81,4.77,12.79,16.13,11.36,23.8-3.1,16.64,2.68,38.79-7.55,45.84-17.97,12.37-26.54,7.69-36.09,4.99-4.51-1.27-8.18-5.66-10.09-9.15,1.48,4.77,4.27,8.58,8.14,11.07,3.45,2.22,8.24,3.64,14.16,4.21,2.25.22,8.26.07,10.71-.27,6.47-.88,13.29-3.05,16.65-5.3,1.49-1,4.12-3.65,5.33-5.36,1.11-1.58,2.44-4.21,2.73-5.43.64-2.59.68-6.96.14-12.89-.52-5.66-.46-8.88.28-14.17.29-2.06.61-4.57.71-5.57.24-2.37.24-8.36,0-10.71-.68-6.58-2.65-11.67-5.79-14.92-1.4-1.46-2.04-1.88-2.76-1.82-.44.03-.57-.01-.57-.19,0-.13.08-.23.19-.23s.52-.34.92-.75,1.16-1.05,1.68-1.42c1.37-.96,1.6-1.2,2.01-2,1.01-1.98.33-3.95-1.69-4.96-.6-.3-.89-.34-2.37-.33h0Zm-.26,3.03c.44-.02.82.09,1.13.35.39.33.45.48.45,1.1,0,.97-.3,1.63-.92,2.01-.66.41-.9.4-.35,0,.9-.67,1.08-1.94.38-2.64-.39-.39-.51-.43-.98-.34-.63.12-1.53.55-2.21,1.07-.72.55-.73.29-.01-.32.9-.77,1.78-1.19,2.51-1.23h0Z"/><g id="w" class="df"><path id="x" class="dj" d="m77.59,81.21c-2.5-.12-5.08.63-7.32,2.48-1.06.86.33,2.34,1.37,1.46,1.87-1.54,3.83-2.09,5.84-2s4.06.88,5.92,2.14c3.72,2.52,6.53,6.93,6.64,10.71.04,1.35.25,4.23.59,7.01.17,1.39.38,2.75.62,3.88s.4,1.96.95,2.66c1.45,1.86,3.76,2.78,5.87,2.96,1.05.09,2.07,0,2.96-.3.89-.31,1.7-.89,2.05-1.77.71-1.79.55-3.73.63-5.11.04-.69.15-1.23.27-1.46.12-.23.31-1.05.71-1.06.58,0,.8-.23.78-.77-.02-.54-.88-.57-1.46-.54-.98.03-1.5.79-1.88,1.5-.38.71-.45,1.46-.49,2.24-.09,1.56-.02,3.31-.51,4.54-.09.22-.32.45-.83.62s-1.25.26-2.04.19c-1.6-.14-3.38-.89-4.38-2.17-.02-.02-.37-.86-.6-1.9s-.42-2.36-.59-3.72c-.34-2.71-.55-5.61-.58-6.83-.13-4.6-3.27-9.37-7.49-12.23-2.11-1.43-4.53-2.39-7.03-2.51Z"/><path id="y" class="ds" d="m72.06,82.57s-3.06.63-3.42.78-1.93,1.14-1.93,1.14l-.03,2.43,2.94.77s1.84-1.43,1.87-1.48,1.61-2,1.61-2c.31-1.23-.32-1.48-1.04-1.63Z"/><path id="z" class="ds" d="m66.76,84.54l.38.07.45-.36.83.26.52.66.73.23-.04,2.26"/><path id="aa" class="dh" d="m68.42,84.48l1.69-.44"/><path id="ab" class="dh" d="m67.58,84.21l1.63-.49"/><g id="ac" class="df"><path id="ad" class="dp" d="m65.5,87.64l-.14-.04-.06.16.14.04.06-.16Z"/><path id="ae" class="dp" d="m65.68,87.7l-.14-.04-.06.16.14.04.06-.16Z"/><path id="af" class="dp" d="m65.85,87.76l-.14-.04-.06.16.14.04.06-.16Z"/><path id="ag" class="dp" d="m66.03,87.81l-.14-.04-.06.16.14.04.06-.16Z"/><path id="ah" class="dp" d="m66.21,87.87l-.14-.04-.06.16.14.04.06-.16Z"/><path id="ai" class="dp" d="m66.4,87.94l-.14-.04-.06.16.14.04.06-.16Z"/><path id="aj" class="dp" d="m66.57,87.99l-.14-.04-.06.16.14.04.06-.16Z"/><path id="ak" class="dp" d="m66.75,88.05l-.14-.04-.06.16.14.04.06-.16Z"/></g><path id="al" class="ds" d="m64.78,86.4l.07,1.1.29.09.1-.11,1.65.57.06.19.29.1,2.19-1.45.02-1.35-2.46-.77-2.07,1.22v.33s-.14.09-.14.09Z"/><path id="am" class="ds" d="m64.91,86.3l2.37.92,2.15-1.34"/><path id="an" class="ds" d="m67.25,87.18l-.11.21.06.94"/><path id="ao" class="ds" d="m65.44,86.06l.76-.57.22-.42.34.07.87-.63.49.14-.72.7.39.14.04.3-1.06.67"/></g><g id="ap" class="df"><path id="aq" d="m30.33,80.31c-.46.39-.73.77-.85,1.14s-.08.75.03,1.15.3.81.52,1.24.45.88.7,1.33.5.85.77,1.2.55.64.83.84c.28.21.58.33.88.33.31,0,.63-.12.97-.39.34-.27.52-.56.58-.86.06-.3,0-.61-.14-.92-.14-.31-.37-.63-.62-.99s-.53-.74-.77-1.2-.4-.98-.56-1.48-.3-.97-.49-1.31c-.19-.34-.42-.57-.73-.6-.3-.03-.67.12-1.13.51Z"/><path id="ar" d="m32.35,80.1c.21.31.38.72.56,1.17.2.52.4,1.09.68,1.61.28.52.58.98.85,1.4.27.42.51.81.64,1.19.14.38.18.76.09,1.13-.09.36-.3.71-.66,1.02-.36.31-.73.45-1.09.46s-.73-.12-1.08-.35c-.35-.23-.7-.55-1.04-.93s-.65-.85-.93-1.36-.54-1.02-.76-1.49c-.22-.47-.4-.92-.5-1.34-.04-.16-.06-.32-.06-.48-.01-.32.54-.71.48-.39-.05.3-.01.6.07.91.11.38.29.78.5,1.19s.44.85.67,1.28.48.82.74,1.15c.26.33.53.61.8.81s.55.32.85.32c.3,0,.61-.11.93-.38.32-.26.5-.54.56-.83s0-.58-.14-.89-.36-.61-.6-.95-.51-.71-.74-1.15-.39-.94-.54-1.42-.29-.93-.47-1.26c-.02-.04-.05-.08-.07-.12-.06-.1-.13-.18-.2-.25-.09-.08.17-.44.35-.19.03.04.06.08.09.13Z"/></g><ellipse id="as" cx="57.18" cy="64.44" rx="6.09" ry="3.12"/><rect id="at" x="54.55" y="66.24" width="5.24" height="3.37" rx="1.56" ry="1.56"/></g><g id="au"><g id="av"><path id="aw" class="cz" d="m93.12,47.36c-.06,2.02-.56,3.97-1.42,5.78s-2.07,3.48-3.53,4.93c-1.47,1.45-3.19,2.67-5.08,3.57-1.89.9-3.95,1.48-6.09,1.62-2.14.14-4.17-.16-6-.84s-3.47-1.75-4.83-3.12c-1.36-1.37-2.45-3.04-3.18-4.91s-1.11-3.96-1.05-6.15.55-4.28,1.39-6.17c.83-1.89,2.01-3.57,3.44-4.96,1.43-1.39,3.12-2.49,4.99-3.24,1.87-.74,3.91-1.13,6.05-1.1,2.14.03,4.18.47,6.04,1.22s3.52,1.82,4.92,3.14c1.39,1.31,2.51,2.86,3.27,4.59.75,1.73,1.14,3.63,1.08,5.65h0Z"/><path id="ax" class="db" d="m92.07,46.9c0,1.9-.41,3.77-1.16,5.52s-1.84,3.39-3.2,4.82-2.97,2.65-4.76,3.54c-1.79.89-3.75,1.47-5.8,1.61-2.05.14-3.98-.15-5.73-.81-1.75-.66-3.31-1.68-4.61-2.98s-2.34-2.88-3.04-4.65c-.7-1.77-1.07-3.72-1.03-5.77.04-2.04.49-3.98,1.26-5.73.77-1.74,1.87-3.3,3.2-4.58,1.34-1.28,2.91-2.3,4.65-3,1.74-.7,3.65-1.08,5.65-1.09,2-.01,3.91.35,5.65.99s3.31,1.58,4.63,2.74,2.39,2.56,3.13,4.13,1.15,3.34,1.15,5.24h0Z"/><circle id="ay" class="eb" cx="81.34" cy="46.24" r="4.22"/><circle id="az" class="db" cx="79.47" cy="44.31" r="2.07"/></g><g id="ba"><path id="bb" class="cz" d="m51.21,46.93c-.06,2.02-.56,3.97-1.42,5.78s-2.07,3.48-3.53,4.93c-1.47,1.45-3.19,2.67-5.08,3.57-1.89.9-3.95,1.48-6.09,1.62-2.14.14-4.17-.16-6-.84s-3.47-1.75-4.83-3.12c-1.36-1.37-2.45-3.04-3.18-4.91s-1.11-3.96-1.05-6.15.55-4.28,1.39-6.17c.83-1.89,2.01-3.57,3.44-4.96,1.43-1.39,3.12-2.49,4.99-3.24,1.87-.74,3.91-1.13,6.05-1.1,2.14.03,4.18.47,6.04,1.22s3.52,1.82,4.92,3.14c1.39,1.31,2.51,2.86,3.27,4.59.75,1.73,1.14,3.63,1.08,5.65h0Z"/><path id="bc" class="db" d="m50.16,46.47c0,1.9-.41,3.77-1.16,5.52s-1.84,3.39-3.2,4.82-2.97,2.65-4.76,3.54c-1.79.89-3.75,1.47-5.8,1.61-2.05.14-3.98-.15-5.73-.81-1.75-.66-3.31-1.68-4.61-2.98s-2.34-2.88-3.04-4.65c-.7-1.77-1.07-3.72-1.03-5.77.04-2.04.49-3.98,1.26-5.73.77-1.74,1.87-3.3,3.2-4.58,1.34-1.28,2.91-2.3,4.65-3,1.74-.7,3.65-1.08,5.65-1.09,2-.01,3.91.35,5.65.99s3.31,1.58,4.63,2.74,2.39,2.56,3.13,4.13,1.15,3.34,1.15,5.24h0Z"/><circle id="bd" class="eb" cx="30.33" cy="46.4" r="4.22"/><circle id="be" class="db" cx="28.46" cy="44.46" r="2.07"/></g></g><g id="bf"><g id="bg"><path id="bh" class="dd" d="m56.08,63.97l1.41.02.82-.02c.26,0,.48.12.62.3s.19.44.19.71v1.57s.08,1.57.08,1.57c.02.28-.1.53-.26.72-.16.18-.39.29-.64.29l-.83.02-1.63-.04c-.31,0-.59-.13-.77-.32-.19-.19-.28-.44-.26-.72l.08-1.56.11-1.56c.02-.28.18-.53.38-.7.2-.18.45-.28.71-.28h0Z"/><path id="bi" class="db" d="m56.27,64.45l1.15.02.55-.02c.21,0,.39.1.51.25s.18.36.18.58l.04,1.28.09,1.29c.02.23-.06.44-.19.58-.13.15-.31.23-.52.24l-.57.02-1.3-.03c-.25,0-.47-.1-.62-.26-.15-.15-.24-.36-.23-.59l.02-1.28.04-1.28c0-.23.13-.43.28-.58.16-.15.36-.23.56-.23h0Z"/><path id="bj" class="cz" d="m63.48,63.32c-.04.5-.35.96-.79,1.37s-1.05.77-1.75,1.07c-.7.3-1.5.53-2.3.65-.8.12-1.62.14-2.42.04-.8-.1-1.52-.29-2.14-.53-.62-.24-1.15-.52-1.56-.83-.41-.31-.72-.66-.91-1.05-.19-.39-.27-.81-.2-1.28s.29-.91.62-1.32c.33-.41.78-.79,1.31-1.1.53-.31,1.13-.56,1.8-.73s1.4-.24,2.2-.22c.8.03,1.6.15,2.35.36.76.21,1.47.51,2.07.87.6.36,1.08.78,1.37,1.24.29.48.39,1.02.36,1.45h0Z"/><path id="bk" class="ec" d="m61.79,63.21c-.07.4-.3.77-.66,1.11s-.84.63-1.39.87c-.55.24-1.16.41-1.79.5-.62.09-1.26.1-1.89.02s-1.19-.23-1.67-.42c-.49-.19-.9-.43-1.22-.69s-.56-.55-.69-.87-.18-.66-.11-1.02c.07-.36.25-.71.52-1.03.27-.32.62-.61,1.03-.85.41-.24.89-.43,1.41-.55s1.1-.18,1.72-.15c.62.03,1.23.13,1.81.3.58.17,1.12.4,1.58.68.46.28.83.61,1.07.97s.34.75.27,1.15h0Z"/><path id="bl" class="cz" d="m60.4,60.64c-.1.29-.32.54-.62.75-.3.21-.68.39-1.1.52s-.86.23-1.3.28c-.44.05-.86.06-1.27.01-.4-.04-.74-.13-1.03-.26-.29-.13-.52-.29-.71-.48-.18-.19-.32-.41-.4-.65-.08-.24-.1-.51-.05-.79.05-.28.18-.55.36-.79.19-.24.44-.46.74-.64s.66-.31,1.05-.39c.4-.08.83-.11,1.29-.06.46.04.9.14,1.29.29s.75.35,1.04.58.51.49.63.76c.12.28.15.57.05.85h0Z"/></g></g><g id="bm"><path id="bn" class="dl" d="m95.25,98.52c8.26-.32,16.52-.37,24.78,0v5.56c-8.26.21-16.52.18-24.78,0v-5.56Z"/><rect id="bo" class="dx" x="96.33" y="99.7" width="13.71" height="3.58" rx=".52" ry=".52"/><path id="bp" class="du" d="m96.85,100.26v2.03h.44v.36h.36v.44h1.31v-.44h.36v-.36h.44v-2.01h-1.73s-.38-.02-.38-.02h0s-.36,0-.36,0h0s-.44,0-.44,0Z"/><path id="bq" class="du" d="m100.07,100.26v2.03h.44v.36h.36v.44h1.31v-.44h.36v-.36h.44v-2.01h-1.73s-.38-.02-.38-.02h0s-.36,0-.36,0h0s-.44,0-.44,0Z"/><path id="br" class="du" d="m103.34,100.26v2.03h.44v.36h.36v.44h1.31v-.44h.36v-.36h.44v-2.01h-1.73s-.38-.02-.38-.02h0s-.36,0-.36,0h0s-.44,0-.44,0Z"/><path id="bs" class="du" d="m106.64,100.26v2.03h.44v.36h.36v.44h1.31v-.44h.36v-.36h.44v-2.01h-1.73s-.38-.02-.38-.02h0s-.36,0-.36,0h0s-.44,0-.44,0Z"/><circle id="bt" class="de" cx="113.51" cy="101.46" r=".64"/><circle id="bu" cx="113.51" cy="101.46" r=".21"/><circle id="bv" class="dz" cx="116.9" cy="101.46" r="1.46"/><circle id="bw" cx="116.9" cy="101.46" r=".99"/><circle id="bx" class="dw" cx="116.9" cy="101.46" r=".39"/><path id="by" class="dt" d="m103.5,100.4v1.75h.38v.31h.31v.38h1.13v-.38h.31v-.31h.38v-1.74h-1.49s-.33-.02-.33-.02h0s-.31,0-.31,0h0s-.38,0-.38,0Z"/></g><g id="bz"><path id="ca" class="di" d="m77.59,79.08c-2.5-.13-5.08.67-7.32,2.65-1.06.91.33,2.5,1.37,1.56,1.87-1.65,3.83-2.24,5.84-2.13s4.06.94,5.92,2.29c3.72,2.69,6.53,7.39,6.63,11.43.04,1.44.25,4.52.59,7.48.17,1.48.38,2.93.62,4.14s.4,2.09.95,2.84c1.45,1.98,3.76,2.96,5.87,3.16,1.05.1,2.07,0,2.96-.32.89-.33,1.7-.95,2.05-1.89.71-1.91.55-3.98.63-5.46.04-.74.15-1.32.27-1.56.12-.24.31-1.12.71-1.13.58,0,.8-.24.78-.82-.02-.58-.88-.61-1.46-.58-.98.03-1.5.84-1.88,1.6-.38.75-.45,1.55-.49,2.39-.09,1.67-.02,3.53-.51,4.85-.09.24-.32.48-.83.66s-1.25.28-2.04.2c-1.6-.15-3.38-.95-4.38-2.32-.02-.02-.37-.91-.6-2.03s-.42-2.52-.59-3.97c-.34-2.9-.55-5.99-.58-7.3-.13-4.92-3.27-10-7.49-13.06-2.11-1.53-4.53-2.55-7.03-2.68Z"/><path id="cb" class="dr" d="m72.06,80.54s-3.06.67-3.42.83-1.93,1.22-1.93,1.22l-.03,2.59,2.94.82s1.84-1.53,1.87-1.58,1.61-2.14,1.61-2.14c.31-1.32-.32-1.58-1.04-1.74Z"/><path id="cc" class="dy" d="m66.76,82.64l.38.08.45-.38.83.28.52.7.73.24-.04,2.41"/><path id="cd" class="dm" d="m68.42,82.58l1.69-.47"/><path id="ce" class="dm" d="m67.59,82.29l1.63-.52"/><g id="cf" class="df"><path id="cg" class="dq" d="m65.5,85.95l-.14-.05-.06.17.14.05.06-.17Z"/><path id="ch" class="dq" d="m65.68,86.01l-.14-.05-.06.17.14.05.06-.17Z"/><path id="ci" class="dq" d="m65.86,86.08l-.14-.05-.06.17.14.05.06-.17Z"/><path id="cj" class="dq" d="m66.04,86.14l-.14-.05-.06.17.14.05.06-.17Z"/><path id="ck" class="dq" d="m66.22,86.2l-.14-.05-.06.17.14.05.06-.17Z"/><path id="cl" class="dq" d="m66.4,86.27l-.14-.05-.06.17.14.05.06-.17Z"/><path id="cm" class="dq" d="m66.57,86.33l-.14-.05-.06.17.14.05.06-.17Z"/><path id="cn" class="dq" d="m66.75,86.39l-.14-.05-.06.17.14.05.06-.17Z"/></g><path id="co" class="dn" d="m64.78,84.63l.07,1.17.29.1.1-.12,1.65.6.06.21.29.11,2.19-1.54.02-1.45-2.46-.82-2.07,1.3v.35s-.14.09-.14.09Z"/><path id="cp" class="do" d="m64.91,84.53l2.37.98,2.15-1.43"/><path id="cq" class="do" d="m67.26,85.46l-.11.23.06,1.01"/><path id="cr" class="dn" d="m65.44,84.26l.76-.61.22-.45.34.08.87-.67.49.15-.72.74.39.15.04.32-1.06.72"/></g><g id="cs"><g id="ct"><path id="cu" class="ea" d="m82.37,76.25c.46.39.73.77.85,1.14s.08.75-.03,1.15-.3.81-.52,1.24-.45.88-.7,1.33-.5.85-.77,1.2-.55.64-.83.84c-.28.21-.58.33-.88.33-.31,0-.63-.12-.97-.39-.34-.27-.52-.56-.58-.86-.06-.3,0-.61.14-.92.14-.31.37-.63.62-.99s.53-.74.77-1.2.4-.98.56-1.48.3-.97.49-1.31c.19-.34.42-.57.73-.6.3-.03.67.12,1.13.51Z"/><path id="cv" class="cz" d="m80.34,76.04c-.21.31-.38.72-.56,1.17-.2.52-.4,1.09-.68,1.61-.28.52-.58.98-.85,1.4-.27.42-.51.81-.64,1.19-.14.38-.18.76-.09,1.13.09.36.3.71.66,1.02.36.31.73.45,1.09.46s.73-.12,1.08-.35c.35-.23.7-.55,1.04-.93s.65-.85.93-1.36.54-1.02.76-1.49c.22-.47.4-.92.5-1.34.04-.16.06-.32.06-.48.01-.32-.54-.71-.48-.39.05.3.01.6-.07.91-.11.38-.29.78-.5,1.19s-.44.85-.67,1.28-.48.82-.74,1.15c-.26.33-.53.61-.8.81s-.55.32-.85.32c-.3,0-.61-.11-.93-.38-.32-.26-.5-.54-.56-.83s0-.58.14-.89.36-.61.6-.95.51-.71.74-1.15.39-.94.54-1.42.29-.93.47-1.26c.02-.04.05-.08.07-.12.06-.1.13-.18.2-.25.09-.08-.17-.44-.35-.19-.03.04-.06.08-.09.13Z"/></g><g id="cw"><path id="cx" class="ea" d="m30.28,79.14c-.46.39-.73.77-.85,1.14s-.08.75.03,1.15.3.81.52,1.24.45.88.7,1.33.5.85.77,1.2.55.64.83.84c.28.21.58.33.88.33.31,0,.63-.12.97-.39.34-.27.52-.56.58-.86.06-.3,0-.61-.14-.92-.14-.31-.37-.63-.62-.99s-.53-.74-.77-1.2-.4-.98-.56-1.48-.3-.97-.49-1.31c-.19-.34-.42-.57-.73-.6-.3-.03-.67.12-1.13.51Z"/><path id="cy" class="cz" d="m32.3,78.93c.21.31.38.72.56,1.17.2.52.4,1.09.68,1.61.28.52.58.98.85,1.4.27.42.51.81.64,1.19.14.38.18.76.09,1.13-.09.36-.3.71-.66,1.02-.36.31-.73.45-1.09.46s-.73-.12-1.08-.35c-.35-.23-.7-.55-1.04-.93s-.65-.85-.93-1.36-.54-1.02-.76-1.49c-.22-.47-.4-.92-.5-1.34-.04-.16-.06-.32-.06-.48-.01-.32.54-.71.48-.39-.05.3-.01.6.07.91.11.38.29.78.5,1.19s.44.85.67,1.28.48.82.74,1.15c.26.33.53.61.8.81s.55.32.85.32c.3,0,.61-.11.93-.38.32-.26.5-.54.56-.83s0-.58-.14-.89-.36-.61-.6-.95-.51-.71-.74-1.15-.39-.94-.54-1.42-.29-.93-.47-1.26c-.02-.04-.05-.08-.07-.12-.06-.1-.13-.18-.2-.25-.09-.08.17-.44.35-.19.03.04.06.08.09.13Z"/></g></g></svg>