<?xml version="1.0" encoding="UTF-8"?><svg id="a" xmlns="http://www.w3.org/2000/svg" xmlns:xlink="http://www.w3.org/1999/xlink" viewBox="0 0 128 128"><defs><style>.c{fill:#fff;}.d{fill:url(#b);}</style><linearGradient id="b" x1="64" y1="128" x2="64" y2="0" gradientTransform="translate(0 128) rotate(-90)" gradientUnits="userSpaceOnUse"><stop offset="0" stop-color="#29aadd"/><stop offset="1" stop-color="#00a89e"/></linearGradient></defs><rect class="d" x="0" y="0" width="128" height="128" rx="25" ry="25" transform="translate(128 0) rotate(90)"/><path class="c" d="m13.06,55.1c-.23,0-.29-.12-.18-.29l1.23-1.58c.12-.18.41-.29.64-.29h20.86c.23,0,.29.18.18.35l-.99,1.52c-.12.18-.41.35-.58.35l-21.15-.06Zm-8.82,5.38c-.23,0-.29-.12-.18-.29l1.23-1.58c.12-.18.41-.29.64-.29h26.64c.23,0,.35.18.29.35l-.47,1.4c-.06.23-.29.35-.53.35l-27.64.06Zm14.14,5.38c-.23,0-.29-.18-.18-.35l.82-1.46c.12-.18.35-.35.58-.35h11.69c.23,0,.35.18.35.41l-.12,1.4c0,.23-.23.41-.41.41l-12.74-.06Zm60.65-11.8c-3.68.93-6.19,1.64-9.82,2.57-.88.23-.93.29-1.69-.58-.88-.99-1.52-1.64-2.75-2.22-3.68-1.81-7.24-1.29-10.58.88-3.97,2.57-6.02,6.37-5.96,11.1.06,4.67,3.27,8.53,7.89,9.17,3.97.53,7.3-.88,9.93-3.86.53-.64.99-1.34,1.58-2.16h-11.28c-1.23,0-1.52-.76-1.11-1.75.76-1.81,2.16-4.85,2.98-6.37.18-.35.58-.93,1.46-.93h21.27c-.12,1.58-.12,3.16-.35,4.73-.64,4.21-2.22,8.06-4.79,11.45-4.21,5.55-9.7,9-16.65,9.93-5.73.76-11.04-.35-15.72-3.86-4.32-3.27-6.78-7.6-7.42-12.97-.76-6.37,1.11-12.09,4.97-17.12,4.15-5.43,9.64-8.88,16.36-10.11,5.49-.99,10.75-.35,15.48,2.86,3.1,2.04,5.32,4.85,6.78,8.24.35.53.12.82-.58.99Z"/><path class="c" d="m98.36,86.36c-5.32-.12-10.17-1.64-14.26-5.14-3.45-2.98-5.61-6.78-6.31-11.28-1.05-6.6.76-12.44,4.73-17.64,4.27-5.61,9.41-8.53,16.36-9.76,5.96-1.05,11.57-.47,16.65,2.98,4.62,3.16,7.48,7.42,8.24,13.03.99,7.89-1.29,14.31-6.72,19.81-3.86,3.91-8.59,6.37-14.02,7.48-1.58.29-3.16.35-4.67.53h0Zm13.91-23.6c-.06-.76-.06-1.34-.18-1.93-1.05-5.78-6.37-9.06-11.92-7.77-5.43,1.23-8.94,4.67-10.22,10.17-1.05,4.56,1.17,9.17,5.38,11.04,3.21,1.4,6.43,1.23,9.52-.35,4.62-2.4,7.13-6.13,7.42-11.16h0Z"/></svg>