<?xml version="1.0" encoding="UTF-8" standalone="no"?>
<!DOCTYPE svg PUBLIC "-//W3C//DTD SVG 1.1//EN" "http://www.w3.org/Graphics/SVG/1.1/DTD/svg11.dtd">
<!-- Created with Vectornator (http://vectornator.io/) -->
<svg height="100%" stroke-miterlimit="10" style="fill-rule:nonzero;clip-rule:evenodd;stroke-linecap:round;stroke-linejoin:round;" version="1.1" viewBox="0 0 512 512" width="100%" xml:space="preserve" xmlns="http://www.w3.org/2000/svg" xmlns:vectornator="http://vectornator.io" xmlns:xlink="http://www.w3.org/1999/xlink">
<defs/>
<g id="Ebene-1" vectornator:layerName="Ebene 1">
<path d="M2.84217e-14 95C2.84217e-14 42.5329 42.5329 0 95 0L417 0C469.467 0 512 42.5329 512 95L512 417C512 469.467 469.467 512 417 512L95 512C42.5329 512 2.84217e-14 469.467 2.84217e-14 417L2.84217e-14 95Z" fill="#232531" fill-rule="nonzero" opacity="1" stroke="none" vectornator:layerName="Rechteck 1"/>
<g opacity="1" vectornator:layerName="godot-logo.svg">
<path d="M421.503 320.368C421.503 320.368 420.954 316.994 420.632 317.027L359.422 322.924C354.564 323.381 350.755 327.293 350.428 332.162L348.745 356.262L301.391 359.643L298.175 337.799C297.431 332.915 293.243 329.298 288.302 329.275L223.698 329.275C218.79 329.275 214.543 332.941 213.829 337.799L210.609 359.639L163.254 356.262L161.572 332.162C161.244 327.294 157.435 323.382 152.578 322.924L91.3344 317.027C91.0168 316.998 90.7859 320.376 90.4684 320.376L90.3859 333.622L142.252 341.985L143.947 366.299C144.312 371.247 148.241 375.183 153.188 375.557L218.407 380.209C223.609 380.562 228.213 376.868 228.997 371.714L232.308 349.239L279.683 349.239L282.999 371.714C283.784 376.862 288.38 380.553 293.577 380.209L358.804 375.557C363.748 375.179 367.674 371.244 368.041 366.299L369.74 341.985L421.585 333.585L421.503 320.368Z" fill="#ffffff" fill-rule="nonzero" opacity="1" stroke="none" vectornator:layerName="path"/>
<path d="M217.912 66.7505C216.989 66.7186 216.066 66.8073 215.166 67.0144C197.301 70.9857 179.337 76.5735 162.256 85.1676C158.301 87.1593 155.851 91.2561 155.968 95.6834C156.273 107.585 157.312 119.165 158.623 130.856C154.182 133.516 149.741 135.936 144.841 139.866C141.357 142.547 137.468 145.941 133.666 149.087C124.799 143.524 115.851 137.986 106.366 133.211C101.819 130.922 96.3072 131.913 92.8437 135.644C79.9525 149.524 67.6964 164.709 57.5724 181.93C55.4266 185.587 55.4806 190.131 57.7126 193.736C64.4056 204.561 71.5316 214.686 79.037 224.496L79.037 347.408C79.037 381.318 101.603 407.187 133.884 422.619C166.158 438.05 208.873 445.102 255.847 445.267L256.157 445.267C303.127 445.102 345.846 438.05 378.116 422.619C410.385 407.187 432.942 381.314 432.942 347.408L432.959 227.688C440.58 216.504 446.906 205.691 454.291 193.749C456.518 190.14 456.572 185.6 454.432 181.946C444.312 164.721 432.043 149.533 419.152 135.656C415.69 131.93 410.183 130.938 405.638 133.223C396.157 137.994 387.205 143.541 378.338 149.108C374.536 145.957 370.66 142.559 367.163 139.875C367.146 139.875 367.134 139.875 367.121 139.833C362.23 135.916 357.806 133.495 353.381 130.843C354.688 119.161 355.731 107.577 356.036 95.6711C356.15 91.2467 353.701 87.1539 349.748 85.1635C332.662 76.5652 314.703 70.9774 296.826 67.0061C292.005 65.935 287.04 68.0804 284.516 72.3259C278.743 82.0293 273.79 92.3472 268.998 102.533C264.73 102.146 260.396 101.552 256.264 101.502L255.74 101.502C251.6 101.552 247.261 102.146 242.989 102.533C238.391 92.7514 233.599 82.8871 228.081 73.5218C226.287 69.4835 222.326 66.8408 217.908 66.734L217.912 66.7505Z" fill="#ffffff" fill-rule="nonzero" opacity="1" stroke="none" vectornator:layerName="path"/>
<path d="M217.644 77.8849C200.414 81.7159 183.375 87.0481 167.395 95.0896C167.762 109.197 168.673 122.719 170.521 136.448C164.314 140.423 157.794 143.834 152 148.489C146.112 153.017 140.095 157.356 134.763 162.651C123.974 155.495 112.773 148.981 101.219 143.141C88.6992 156.613 76.9957 171.158 67.4325 187.431C74.6245 199.068 82.1382 209.98 90.2457 220.331L90.4725 220.331L90.4725 320.211C90.6581 320.211 90.8395 320.211 91.021 320.252L152.252 326.157C155.457 326.468 157.97 329.048 158.194 332.261L160.083 359.293L213.495 363.103L217.178 338.154C217.656 334.921 220.43 332.526 223.698 332.525L288.298 332.525C291.568 332.525 294.344 334.921 294.822 338.154L298.5 363.103L351.917 359.293L353.805 332.261C354.032 329.049 356.543 326.469 359.748 326.157L420.954 320.252C421.136 320.252 421.317 320.211 421.499 320.211L421.499 312.244L421.523 312.244L421.523 220.343L421.75 220.343C429.862 209.988 437.367 199.077 444.567 187.439C435.008 171.166 423.292 156.622 410.772 143.149C399.219 148.991 388.018 155.507 377.229 162.663C371.901 157.364 365.897 153.03 359.999 148.498C354.205 143.846 347.673 140.431 341.483 136.456C343.327 122.724 344.238 109.21 344.605 95.0978C328.625 87.0563 311.585 81.7242 294.348 77.8972C287.465 89.4605 281.172 101.985 275.691 114.228C269.192 113.144 262.66 112.744 256.124 112.661L255.872 112.661C249.323 112.744 242.799 113.144 236.296 114.228C230.82 101.985 224.531 89.4605 217.636 77.8972L217.644 77.8849ZM90.3735 333.424C90.3983 339.341 90.4725 345.824 90.4725 347.115C90.4725 405.265 164.24 433.213 255.889 433.534L256.115 433.534C347.764 433.213 421.507 405.265 421.507 347.115C421.507 345.799 421.589 339.346 421.614 333.424L366.577 338.731L364.68 365.907C364.448 369.183 361.844 371.789 358.568 372.023L293.346 376.675L292.871 376.675C289.604 376.671 286.832 374.274 286.356 371.042L282.615 345.68L229.397 345.68L225.657 371.042C225.156 374.456 222.105 376.906 218.663 376.658L153.44 372.006C150.167 371.77 147.566 369.164 147.336 365.891L145.439 338.715L90.3735 333.424Z" fill="#478cbf" fill-rule="nonzero" opacity="1" stroke="none" vectornator:layerName="path"/>
<path d="M206.101 260.984C205.887 281.21 189.43 297.494 169.203 297.494C148.976 297.494 132.519 281.21 132.305 260.984C132.305 240.612 148.829 224.1 169.201 224.1C189.581 224.1 206.101 240.608 206.101 260.984M256 301.398C249.443 301.398 244.123 296.565 244.123 290.602L244.123 256.633C244.123 250.679 249.443 245.837 256 245.837C262.557 245.837 267.889 250.679 267.889 256.633L267.889 290.602C267.889 296.565 262.561 301.398 256 301.398M305.903 260.984C305.898 281.368 322.423 297.893 342.807 297.888C363.186 297.886 379.704 281.363 379.699 260.984C379.699 240.612 363.175 224.1 342.807 224.1C322.423 224.1 305.903 240.608 305.903 260.984" fill="#ffffff" fill-rule="nonzero" opacity="1" stroke="none" vectornator:layerName="path"/>
<path d="M172.727 238.715C159.202 238.715 148.237 249.68 148.237 263.205C148.237 276.73 159.202 287.694 172.727 287.694C186.038 287.395 196.672 276.519 196.672 263.205C196.672 249.891 186.038 239.014 172.727 238.715ZM339.261 238.715C325.737 238.72 314.777 249.687 314.781 263.211C314.779 276.732 325.739 287.694 339.261 287.694C352.662 287.52 363.434 276.607 363.434 263.205C363.434 249.802 352.662 238.889 339.261 238.715Z" fill="#414042" fill-rule="nonzero" opacity="1" stroke="none" vectornator:layerName="path"/>
</g>
</g>
</svg>
