<?xml version="1.0" encoding="UTF-8"?>
<svg id="Ebene_1" data-name="Ebene 1" xmlns="http://www.w3.org/2000/svg" viewBox="0 0 256 256">
  <defs>
    <style>
      .cls-1 {
        fill: #fff;
      }

      .cls-2 {
        fill: #478cbf;
      }

      .cls-3 {
        fill: #414042;
      }
    </style>
  </defs>
  <g id="Ebene_2" data-name="Ebene 2">
    <path class="cls-2" d="m45,0h166c24.85,0,45,20.15,45,45v166c0,24.85-20.15,45-45,45H45c-24.85,0-45-20.15-45-45V45C0,20.15,20.15,0,45,0Z"/>
  </g>
  <g>
    <path class="cls-1" d="m210.75,160.18s-.27-1.69-.44-1.67l-30.61,2.95c-2.43.23-4.33,2.18-4.5,4.62l-.84,12.05-23.68,1.69-1.61-10.92c-.37-2.44-2.47-4.25-4.94-4.26h-32.3c-2.45,0-4.58,1.83-4.93,4.26l-1.61,10.92-23.68-1.69-.84-12.05c-.16-2.43-2.07-4.39-4.5-4.62l-30.62-2.95c-.16-.01-.27,1.67-.43,1.67l-.04,6.62,25.93,4.18.85,12.16c.18,2.47,2.15,4.44,4.62,4.63l32.61,2.33c2.6.18,4.9-1.67,5.3-4.25l1.66-11.24h23.69l1.66,11.24c.39,2.57,2.69,4.42,5.29,4.25l32.61-2.33c2.47-.19,4.44-2.16,4.62-4.63l.85-12.16,25.92-4.2-.04-6.61Z"/>
    <path class="cls-1" d="m108.96,33.38c-.46-.02-.92.03-1.37.13-8.93,1.99-17.91,4.78-26.45,9.08-1.98,1-3.2,3.04-3.14,5.26.15,5.95.67,11.74,1.33,17.59-2.22,1.33-4.44,2.54-6.89,4.51-1.74,1.34-3.69,3.04-5.59,4.61-4.43-2.78-8.91-5.55-13.65-7.94-2.27-1.14-5.03-.65-6.76,1.22-6.45,6.94-12.57,14.53-17.64,23.14-1.07,1.83-1.05,4.1.07,5.9,3.35,5.41,6.91,10.47,10.66,15.38v61.46c0,16.96,11.28,29.89,27.42,37.61,16.14,7.72,37.49,11.24,60.98,11.32h.15c23.49-.08,44.84-3.61,60.98-11.32s27.41-20.65,27.41-37.61v-59.86c3.82-5.59,6.98-11,10.67-16.97,1.11-1.8,1.14-4.07.07-5.9-5.06-8.61-11.19-16.21-17.64-23.15-1.73-1.86-4.48-2.36-6.76-1.22-4.74,2.39-9.22,5.16-13.65,7.94-1.9-1.58-3.84-3.27-5.59-4.62,0,0-.01,0-.02-.02-2.45-1.96-4.66-3.17-6.87-4.5.65-5.84,1.18-11.63,1.33-17.59.06-2.21-1.17-4.26-3.14-5.25-8.54-4.3-17.52-7.09-26.46-9.08-2.41-.54-4.89.54-6.15,2.66-2.89,4.85-5.36,10.01-7.76,15.1-2.13-.19-4.3-.49-6.37-.52h-.26c-2.07.02-4.24.32-6.38.52-2.3-4.89-4.7-9.82-7.45-14.51-.9-2.02-2.88-3.34-5.09-3.39h0Z"/>
    <path class="cls-2" d="m108.82,38.94c-8.61,1.92-17.13,4.58-25.12,8.6.18,7.05.64,13.81,1.56,20.68-3.1,1.99-6.36,3.69-9.26,6.02-2.94,2.26-5.95,4.43-8.62,7.08-5.39-3.58-10.99-6.84-16.77-9.75-6.26,6.74-12.11,14.01-16.89,22.15,3.6,5.82,7.35,11.27,11.41,16.45h.11v49.94c.09,0,.18,0,.27.02l30.62,2.95c1.6.16,2.86,1.45,2.97,3.05l.94,13.52,26.71,1.91,1.84-12.47c.24-1.62,1.63-2.81,3.26-2.81h32.3c1.64,0,3.02,1.2,3.26,2.81l1.84,12.47,26.71-1.91.94-13.52c.11-1.61,1.37-2.9,2.97-3.05l30.6-2.95c.09,0,.18-.02.27-.02v-3.98h.01v-45.95h.11c4.06-5.18,7.81-10.63,11.41-16.45-4.78-8.14-10.64-15.41-16.9-22.15-5.78,2.92-11.38,6.18-16.77,9.76-2.66-2.65-5.67-4.82-8.61-7.08-2.9-2.33-6.16-4.03-9.26-6.02.92-6.87,1.38-13.62,1.56-20.68-7.99-4.02-16.51-6.69-25.13-8.6-3.44,5.78-6.59,12.04-9.33,18.17-3.25-.54-6.52-.74-9.78-.78h-.13c-3.27.04-6.54.24-9.79.78-2.74-6.12-5.88-12.38-9.33-18.17h0Zm-63.64,127.77c.01,2.96.05,6.2.05,6.85,0,29.08,36.88,43.05,82.71,43.21h.11c45.82-.16,82.7-14.13,82.7-43.21,0-.66.04-3.88.05-6.85l-27.52,2.65-.95,13.59c-.12,1.64-1.42,2.94-3.06,3.06l-32.61,2.33h-.24c-1.63,0-3.02-1.2-3.26-2.82l-1.87-12.68h-26.61l-1.87,12.68c-.25,1.71-1.78,2.93-3.5,2.81l-32.61-2.33c-1.64-.12-2.94-1.42-3.05-3.06l-.95-13.59-27.53-2.65Z"/>
    <path class="cls-1" d="m103.05,130.49c-.11,10.19-8.45,18.36-18.64,18.25-10.04-.11-18.15-8.22-18.25-18.25,0-10.19,8.26-18.44,18.45-18.44s18.45,8.25,18.45,18.44m24.95,20.21c-3.28,0-5.94-2.42-5.94-5.4v-16.98c0-2.98,2.66-5.4,5.94-5.4s5.94,2.42,5.94,5.4v16.98c0,2.98-2.66,5.4-5.94,5.4m24.95-20.21c0,10.19,8.26,18.45,18.44,18.45h0c10.19,0,18.45-8.26,18.45-18.45h0c0-10.19-8.26-18.44-18.45-18.44s-18.45,8.25-18.45,18.44"/>
    <path class="cls-3" d="m86.36,119.36c-6.76,0-12.24,5.48-12.24,12.24s5.48,12.24,12.24,12.24c6.76-.15,12.12-5.76,11.97-12.52-.15-6.55-5.42-11.82-11.97-11.97Zm83.27,0c-6.76,0-12.24,5.49-12.24,12.25,0,6.76,5.48,12.24,12.24,12.24h0c6.76-.09,12.17-5.64,12.09-12.4-.09-6.64-5.45-12-12.09-12.09Z"/>
  </g>
</svg>