<?xml version="1.0" encoding="UTF-8" standalone="no"?>
<!DOCTYPE svg PUBLIC "-//W3C//DTD SVG 1.1//EN" "http://www.w3.org/Graphics/SVG/1.1/DTD/svg11.dtd">
<!-- Created with Vectornator (http://vectornator.io/) -->
<svg height="100%" stroke-miterlimit="10" style="fill-rule:nonzero;clip-rule:evenodd;stroke-linecap:round;stroke-linejoin:round;" version="1.1" viewBox="0 0 512 512" width="100%" xml:space="preserve" xmlns="http://www.w3.org/2000/svg" xmlns:vectornator="http://vectornator.io" xmlns:xlink="http://www.w3.org/1999/xlink">
<defs>
<linearGradient gradientTransform="matrix(1.5625 0 0 1.5625 56 56)" gradientUnits="userSpaceOnUse" id="LinearGradient" x1="224.867" x2="195.989" y1="145.813" y2="230.427">
<stop offset="0" stop-color="#087cfa"/>
<stop offset="0.02" stop-color="#0d7bfa"/>
<stop offset="0.37" stop-color="#5566f9"/>
<stop offset="0.66" stop-color="#8a57f8"/>
<stop offset="0.88" stop-color="#ab4ef7"/>
<stop offset="1" stop-color="#b74af7"/>
</linearGradient>
<linearGradient gradientTransform="matrix(1.5625 0 0 1.5625 56 56)" gradientUnits="userSpaceOnUse" id="LinearGradient_2" x1="88.5943" x2="135.029" y1="79.36" y2="10.2133">
<stop offset="0" stop-color="#087cfa"/>
<stop offset="0.02" stop-color="#0d7bfa"/>
<stop offset="0.37" stop-color="#5566f9"/>
<stop offset="0.66" stop-color="#8a57f8"/>
<stop offset="0.88" stop-color="#ab4ef7"/>
<stop offset="1" stop-color="#b74af7"/>
</linearGradient>
<linearGradient gradientTransform="matrix(1.5625 0 0 1.5625 56 56)" gradientUnits="userSpaceOnUse" id="LinearGradient_3" x1="35.5733" x2="220.24" y1="197.648" y2="124.017">
<stop offset="0" stop-color="#087cfa"/>
<stop offset="0.1" stop-color="#1598d3"/>
<stop offset="0.22" stop-color="#23b6aa"/>
<stop offset="0.35" stop-color="#2dcc8b"/>
<stop offset="0.46" stop-color="#35dd74"/>
<stop offset="0.57" stop-color="#39e767"/>
<stop offset="0.67" stop-color="#3bea62"/>
</linearGradient>
</defs>
<g id="Ebene-1" vectornator:layerName="Ebene 1">
<path d="M2.84217e-14 95C2.84217e-14 42.5329 42.5329 0 95 0L417 0C469.467 0 512 42.5329 512 95L512 417C512 469.467 469.467 512 417 512L95 512C42.5329 512 2.84217e-14 469.467 2.84217e-14 417L2.84217e-14 95Z" fill="#232531" fill-rule="nonzero" opacity="1" stroke="none" vectornator:layerName="Rechteck 1"/>
<g opacity="1" vectornator:layerName="g">
<path d="M408.333 210.708L456 316.417L374.417 456L324.167 334L408.333 210.708Z" fill="url(#LinearGradient)" fill-rule="nonzero" opacity="1" stroke="none" vectornator:layerName="polygon"/>
<path d="M324.167 334L374.417 456L248 412.542L324.167 334Z" fill="#b74af7" fill-rule="nonzero" opacity="1" stroke="none" vectornator:layerName="polygon"/>
<path d="M337.792 168.958L311.875 56L168.167 56L56 227.583L88.4583 306.417L56 378.375L288.292 180.75L337.792 168.958Z" fill="url(#LinearGradient_2)" fill-rule="nonzero" opacity="1" stroke="none" vectornator:layerName="polygon"/>
<path d="M456 140.917L288.292 180.75L56 378.375L205.833 456L324.167 334L456 140.917Z" fill="url(#LinearGradient_3)" fill-rule="nonzero" opacity="1" stroke="none" vectornator:layerName="polygon"/>
<path d="M131 131L381 131L381 381L131 381L131 131Z" fill="#000000" fill-rule="nonzero" opacity="1" stroke="none" vectornator:layerName="polygon"/>
<path d="M154.458 334.125L248.208 334.125L248.208 349.75L154.458 349.75L154.458 334.125ZM147.416 215.625L147.416 215.333C147.369 201.073 153.078 187.397 163.252 177.404C173.425 167.411 187.201 161.947 201.458 162.25C216.3 161.468 230.857 166.539 242 176.375L227.708 193.625C220.462 186.696 210.774 182.908 200.75 183.083C184.417 183.083 171.645 197.089 171.14 214.12L171.125 215.458C171.125 233.97 183.59 247.633 201.326 248.151L202.375 248.167C209.962 248.39 217.426 246.218 223.708 241.958L223.708 227.125L200.875 227.125L200.875 207.542L245.583 207.542L245.583 252.292C233.363 262.891 217.718 268.708 201.542 268.667C169.5 268.667 147.416 246.125 147.416 215.625ZM255.167 215.625L255.167 215.333C255.216 200.942 261.083 187.183 271.435 177.184C281.786 167.186 295.741 161.8 310.125 162.25C341.456 162.25 364.086 185.276 364.736 213.98L364.75 215.542C364.768 229.969 358.936 243.787 348.586 253.838C338.606 263.53 325.248 268.921 311.377 268.9L309.833 268.875C278 268.667 255.167 244.958 255.167 215.625ZM341.042 215.625L341.042 215.333C341.301 206.884 338.13 198.689 332.251 192.615C326.373 186.54 318.287 183.102 309.833 183.083C301.443 183.055 293.403 186.448 287.569 192.478C282.027 198.207 278.93 205.847 278.896 213.786L278.917 215.333C278.623 223.815 281.783 232.053 287.673 238.163C293.563 244.273 301.68 247.733 310.167 247.75C318.58 247.769 326.636 244.349 332.466 238.282C338.296 232.216 341.394 224.031 341.042 215.625Z" fill="#ffffff" fill-rule="nonzero" opacity="1" stroke="none" vectornator:layerName="path"/>
</g>
</g>
</svg>
