<?xml version="1.0" encoding="UTF-8"?>
<svg id="Ebene_1" data-name="Ebene 1" xmlns="http://www.w3.org/2000/svg" xmlns:xlink="http://www.w3.org/1999/xlink" viewBox="0 0 256 256">
  <defs>
    <style>
      .cls-1 {
        fill: url(#Unbenannter_Verlauf_2-2);
      }

      .cls-2 {
        fill: #fff;
      }

      .cls-3 {
        fill: url(#Unbenannter_Verlauf_2);
      }

      .cls-4 {
        fill: #b74af7;
      }

      .cls-5 {
        fill: #27282c;
      }

      .cls-6 {
        fill: url(#Unbenannter_Verlauf_3);
      }
    </style>
    <linearGradient id="Unbenannter_Verlauf_2" data-name="Unbenannter Verlauf 2" x1="2.59" y1="254.02" x2="2.29" y2="253.54" gradientTransform="translate(-6.37 40019.6) scale(84.37 -156.99)" gradientUnits="userSpaceOnUse">
      <stop offset="0" stop-color="#087cfa"/>
      <stop offset=".02" stop-color="#0d7bfa"/>
      <stop offset=".37" stop-color="#5566f9"/>
      <stop offset=".66" stop-color="#8a57f8"/>
      <stop offset=".88" stop-color="#ab4ef7"/>
      <stop offset="1" stop-color="#b74af7"/>
    </linearGradient>
    <linearGradient id="Unbenannter_Verlauf_2-2" data-name="Unbenannter Verlauf 2" x1="1.53" y1="254.27" x2="1.76" y2="254.56" gradientTransform="translate(-178 52549.92) scale(180.35 -206.32)" xlink:href="#Unbenannter_Verlauf_2"/>
    <linearGradient id="Unbenannter_Verlauf_3" data-name="Unbenannter Verlauf 3" x1=".89" y1="253.99" x2="1.52" y2="254.31" gradientTransform="translate(-178 51409.6) scale(256 -201.65)" gradientUnits="userSpaceOnUse">
      <stop offset="0" stop-color="#087cfa"/>
      <stop offset=".1" stop-color="#1598d3"/>
      <stop offset=".22" stop-color="#23b6aa"/>
      <stop offset=".35" stop-color="#2dcc8b"/>
      <stop offset=".46" stop-color="#35dd74"/>
      <stop offset=".57" stop-color="#39e767"/>
      <stop offset=".67" stop-color="#3bea62"/>
    </linearGradient>
  </defs>
  <g id="Ebene_2" data-name="Ebene 2">
    <rect class="cls-5" width="256" height="256" rx="35" ry="35"/>
  </g>
  <g>
    <polygon class="cls-3" points="213.69 102.52 240.5 161.98 194.61 240.5 166.34 171.87 213.69 102.52"/>
    <polygon class="cls-4" points="166.34 171.87 194.61 240.5 123.5 216.05 166.34 171.87"/>
    <polygon class="cls-1" points="174.01 79.04 159.43 15.5 78.59 15.5 15.5 112.02 33.76 156.36 15.5 196.84 146.16 85.67 174.01 79.04"/>
    <polygon class="cls-6" points="240.5 63.27 146.16 85.67 15.5 196.84 99.78 240.5 166.34 171.87 240.5 63.27"/>
    <polygon points="57.69 57.69 198.31 57.69 198.31 198.31 57.69 198.31 57.69 57.69"/>
    <path class="cls-2" d="m70.88,171.95h52.73v8.79h-52.73v-8.79Zm-3.96-66.66v-.16c-.03-8.02,3.18-15.71,8.91-21.34,5.72-5.62,13.47-8.69,21.49-8.52,8.35-.44,16.54,2.41,22.8,7.95l-8.04,9.7c-4.08-3.9-9.53-6.03-15.16-5.93-9.19,0-16.37,7.88-16.66,17.46v.75c0,10.41,7,18.1,16.98,18.39h.59c4.27.13,8.47-1.09,12-3.48v-8.34h-12.84v-11.02h25.15v25.17c-6.87,5.96-15.67,9.23-24.77,9.21-18.02,0-30.45-12.68-30.45-29.84Zm60.61,0v-.16c.03-8.1,3.33-15.83,9.15-21.46,5.82-5.62,13.67-8.65,21.76-8.4,17.62,0,30.35,12.95,30.72,29.1v.88c.02,8.12-3.26,15.89-9.08,21.54-5.61,5.45-13.13,8.48-20.93,8.47h-.87c-17.91-.13-30.75-13.47-30.75-29.97Zm48.3,0v-.16c.15-4.75-1.64-9.36-4.94-12.78s-7.86-5.35-12.61-5.36c-4.72-.02-9.24,1.89-12.52,5.28-3.12,3.22-4.86,7.52-4.88,11.99v.87c-.15,4.77,1.62,9.4,4.94,12.84,3.31,3.44,7.88,5.38,12.65,5.39,4.73.01,9.26-1.91,12.54-5.33,3.28-3.41,5.02-8.02,4.82-12.74Z"/>
  </g>
</svg>