<?xml version="1.0" encoding="UTF-8"?>
<svg id="Ebene_1" data-name="Ebene 1" xmlns="http://www.w3.org/2000/svg" viewBox="0 0 256 256">
  <defs>
    <style>
      .cls-1 {
        fill: #fff;
      }

      .cls-2 {
        fill: #fffcfb;
      }

      .cls-3 {
        fill: #384e54;
      }

      .cls-4 {
        fill: #76e1fe;
      }

      .cls-5 {
        fill: none;
        stroke: #384e54;
        stroke-linecap: round;
        stroke-width: .4px;
      }

      .cls-6 {
        fill: #27282c;
      }

      .cls-7 {
        fill: #171311;
      }

      .cls-8 {
        fill: #23201f;
      }

      .cls-9 {
        fill: #c38c74;
      }
    </style>
  </defs>
  <g id="Ebene_2" data-name="Ebene 2">
    <path class="cls-6" d="m45,0h166c24.85,0,45,20.15,45,45v166c0,24.85-20.15,45-45,45H45c-24.85,0-45-20.15-45-45V45C0,20.15,20.15,0,45,0Z"/>
  </g>
  <g>
    <ellipse class="cls-3" cx="204.44" cy="91.39" rx="23.91" ry="22.4" transform="translate(-18.52 112.33) rotate(-29.45)"/>
    <ellipse class="cls-3" cx="51.56" cy="91.4" rx="22.4" ry="23.91" transform="translate(-53.38 91.35) rotate(-60.55)"/>
    <path class="cls-3" d="m128.28,62c-6.92.06-13.83.31-20.75.56-37.13,1.37-67.44,30.92-67.44,68.27v125.17h175.24v-125.17c0-37.35-29.21-65.66-66.28-68.27-6.92-.49-13.85-.62-20.77-.56h0Z"/>
    <path class="cls-4" d="m56.41,85.04c2.88,1.62,11.38,7.52,12.4,10.31,1.15,3.15,1,6.67-.72,9.71-2.17,3.84-6.29,5.94-10.62,5.86-2.13-.06-10.77-3.99-12.78-5.13-6.12-3.45-8.45-10.9-5.22-16.63,3.24-5.73,10.82-7.58,16.94-4.12Z"/>
    <rect x="117.73" y="151.62" width="19.32" height="22.1" rx="3.91" ry="3.91"/>
    <path class="cls-4" d="m127.71,74.5c-56.33,0-75.1,23.25-75.1,56.33v125.17h150.2c-.31-46.04,0-112.65,0-125.17,0-33.07-18.78-56.33-75.1-56.33Z"/>
    <path class="cls-4" d="m197.01,85.04c-2.88,1.62-11.38,7.52-12.4,10.31-1.15,3.15-1,6.67.72,9.71,2.17,3.84,6.29,5.94,10.62,5.86,2.13-.06,10.77-3.99,12.78-5.13,6.12-3.45,8.45-10.9,5.22-16.63-3.24-5.73-10.82-7.58-16.94-4.12Z"/>
    <circle class="cls-1" cx="160.1" cy="118.26" r="29.13"/>
    <circle class="cls-1" cx="92.28" cy="118.26" r="30.24"/>
    <rect x="115.92" y="153.08" width="22.95" height="25.7" rx="4.54" ry="4.54"/>
    <rect class="cls-2" x="115.92" y="148.75" width="22.95" height="25.7" rx="4.54" ry="4.54"/>
    <path d="m152.74,156.91c0,5.24-5.45,7.94-13.42,7.3-.15,0-.3-3.76-1.59-3.65-3.15.26-6.86-.13-10.55-.13s-7.55,1.14-10.55.11c-.69-.24-1.12,3.65-1.64,3.64-7.78-.21-13.01-2.12-13.01-7.27,0-7.58,11.36-13.73,25.38-13.73s25.38,6.15,25.38,13.73h0Z"/>
    <path class="cls-9" d="m152.6,151.72c0,3.56-2.71,5.35-7.12,6.26-1.83.38-3.95.6-6.28.73-3.53.2-7.56.19-11.84.19s-8.18,0-11.67-.18c-1.92-.11-3.69-.27-5.28-.53-5.09-.83-8.29-2.61-8.29-6.47,0-7.26,11.3-13.15,25.24-13.15s25.24,5.89,25.24,13.15h0Z"/>
    <ellipse class="cls-8" cx="127.36" cy="140.14" rx="13.02" ry="8.41"/>
    <circle class="cls-7" cx="105.27" cy="118.26" r="12.29"/>
    <circle class="cls-7" cx="172.21" cy="118.26" r="12.29"/>
    <path class="cls-5" d="m58.9,98.98c-7.33-6.78-12.69-4.83-12.79-4.67"/>
    <path class="cls-5" d="m55.02,96.74c-7.25.23-8.43,3.94-8.38,4.08m147.6-2.47c7.33-6.78,12.69-4.83,12.79-4.67"/>
    <path class="cls-5" d="m198.56,95.22c7.25.23,8.43,3.94,8.38,4.08"/>
  </g>
</svg>