<?xml version="1.0" encoding="UTF-8"?>
<svg id="Ebene_1" data-name="Ebene 1" xmlns="http://www.w3.org/2000/svg" viewBox="0 0 256 256">
  <defs>
    <style>
      .cls-1 {
        fill: #fff;
      }

      .cls-2 {
        fill: #6ad7e5;
      }
    </style>
  </defs>
  <g id="Ebene_2" data-name="Ebene 2">
    <path class="cls-2" d="m45,0h166c24.85,0,45,20.15,45,45v166c0,24.85-20.15,45-45,45H45c-24.85,0-45-20.15-45-45V45C0,20.15,20.15,0,45,0Z"/>
  </g>
  <g>
    <path class="cls-1" d="m24.6,111.79c-.43,0-.54-.21-.32-.54l2.25-2.89c.21-.32.75-.54,1.18-.54h38.24c.43,0,.54.32.32.64l-1.82,2.78c-.21.32-.75.64-1.07.64l-38.78-.11Zm-16.17,9.85c-.43,0-.54-.21-.32-.54l2.25-2.89c.21-.32.75-.54,1.18-.54h48.84c.43,0,.64.32.54.64l-.86,2.57c-.11.43-.54.64-.96.64l-50.67.11Zm25.92,9.85c-.43,0-.54-.32-.32-.64l1.5-2.68c.21-.32.64-.64,1.07-.64h21.42c.43,0,.64.32.64.75l-.21,2.57c0,.43-.43.75-.75.75l-23.35-.11Zm111.18-21.64c-6.75,1.71-11.35,3-18,4.71-1.61.43-1.71.54-3.11-1.07-1.61-1.82-2.78-3-5.03-4.07-6.75-3.32-13.28-2.36-19.39,1.61-7.28,4.71-11.03,11.68-10.93,20.35.11,8.57,6,15.64,14.46,16.82,7.28.96,13.39-1.61,18.21-7.07.96-1.18,1.82-2.46,2.89-3.96h-20.67c-2.25,0-2.78-1.39-2.04-3.21,1.39-3.32,3.96-8.89,5.46-11.68.32-.64,1.07-1.71,2.68-1.71h38.99c-.21,2.89-.21,5.78-.64,8.68-1.18,7.71-4.07,14.78-8.78,20.99-7.71,10.18-17.78,16.5-30.53,18.21-10.5,1.39-20.24-.64-28.81-7.07-7.93-6-12.43-13.92-13.6-23.78-1.39-11.68,2.04-22.17,9.1-31.38,7.61-9.96,17.67-16.28,29.99-18.53,10.07-1.82,19.71-.64,28.39,5.25,5.68,3.75,9.75,8.89,12.43,15.1.64.96.21,1.5-1.07,1.82Z"/>
    <path class="cls-1" d="m180.99,169.1c-9.75-.21-18.64-3-26.14-9.43-6.32-5.46-10.28-12.43-11.57-20.67-1.93-12.1,1.39-22.82,8.68-32.35,7.82-10.28,17.25-15.64,29.99-17.89,10.93-1.93,21.21-.86,30.53,5.46,8.46,5.78,13.71,13.6,15.1,23.89,1.82,14.46-2.36,26.24-12.32,36.31-7.07,7.18-15.75,11.68-25.71,13.71-2.89.54-5.78.64-8.57.96h0Zm25.49-43.27c-.11-1.39-.11-2.46-.32-3.53-1.93-10.6-11.68-16.6-21.85-14.25-9.96,2.25-16.39,8.57-18.75,18.64-1.93,8.35,2.14,16.82,9.85,20.24,5.89,2.57,11.78,2.25,17.46-.64,8.46-4.39,13.07-11.25,13.6-20.46h0Z"/>
  </g>
</svg>