<?xml version="1.0" encoding="UTF-8"?>
<svg id="Ebene_1" data-name="Ebene 1" xmlns="http://www.w3.org/2000/svg" xmlns:xlink="http://www.w3.org/1999/xlink" viewBox="0 0 256 256">
  <defs>
    <style>
      .cls-1 {
        fill: #fff;
      }

      .cls-2 {
        fill: url(#Unbenannter_Verlauf_2);
      }

      .cls-3 {
        fill: #b74af7;
      }

      .cls-4 {
        fill: url(#Unbenannter_Verlauf);
      }

      .cls-5 {
        fill: #27282c;
      }

      .cls-6 {
        fill: url(#Unbenannter_Verlauf_3);
      }
    </style>
    <linearGradient id="Unbenannter_Verlauf" data-name="Unbenannter Verlauf" x1="2.48" y1="1.97" x2="2.21" y2="2.4" gradientTransform="translate(-6.37 -169.84) scale(84.37 156.99)" gradientUnits="userSpaceOnUse">
      <stop offset="0" stop-color="#087cfa"/>
      <stop offset=".02" stop-color="#0d7bfa"/>
      <stop offset=".37" stop-color="#5566f9"/>
      <stop offset=".66" stop-color="#8a57f8"/>
      <stop offset=".88" stop-color="#ab4ef7"/>
      <stop offset="1" stop-color="#b74af7"/>
    </linearGradient>
    <linearGradient id="Unbenannter_Verlauf_2" data-name="Unbenannter Verlauf 2" x1="1.55" y1="1.75" x2="1.75" y2="1.49" gradientTransform="translate(-178 -268) scale(180.35 206.32)" gradientUnits="userSpaceOnUse">
      <stop offset="0" stop-color="#087cfa"/>
      <stop offset=".02" stop-color="#0d7bfa"/>
      <stop offset=".37" stop-color="#5566f9"/>
      <stop offset=".66" stop-color="#8a57f8"/>
      <stop offset=".88" stop-color="#ab4ef7"/>
      <stop offset="1" stop-color="#b74af7"/>
    </linearGradient>
    <linearGradient id="Unbenannter_Verlauf_3" data-name="Unbenannter Verlauf 3" x1=".92" y1="1.97" x2="1.48" y2="1.69" gradientTransform="translate(-178 -212.8) scale(256 201.65)" gradientUnits="userSpaceOnUse">
      <stop offset="0" stop-color="#087cfa"/>
      <stop offset=".1" stop-color="#1598d3"/>
      <stop offset=".22" stop-color="#23b6aa"/>
      <stop offset=".35" stop-color="#2dcc8b"/>
      <stop offset=".46" stop-color="#35dd74"/>
      <stop offset=".57" stop-color="#39e767"/>
      <stop offset=".67" stop-color="#3bea62"/>
    </linearGradient>
  </defs>
  <g id="Ebene_2" data-name="Ebene 2">
    <rect class="cls-5" width="256" height="256" rx="35" ry="35"/>
  </g>
  <g>
    <polygon class="cls-4" points="204.17 105.35 228 158.2 187.21 228 162.08 167 204.17 105.35"/>
    <polygon class="cls-3" points="162.08 167 187.21 228 124 206.27 162.08 167"/>
    <polygon class="cls-2" points="168.9 84.48 155.94 28 84.08 28 28 113.8 44.23 153.21 28 189.19 144.14 90.37 168.9 84.48"/>
    <polygon class="cls-6" points="228 70.46 144.14 90.37 28 189.19 102.92 228 162.08 167 228 70.46"/>
    <polygon points="65.5 65.5 190.5 65.5 190.5 190.5 65.5 190.5 65.5 65.5"/>
    <path class="cls-1" d="m77.23,167.07h46.87v7.81h-46.87s0-7.81,0-7.81Zm-3.52-59.25v-.14c-.03-7.13,2.83-13.96,7.92-18.97,5.08-5,11.97-7.72,19.1-7.57,7.42-.39,14.7,2.14,20.27,7.07l-7.15,8.62c-3.63-3.47-8.47-5.36-13.48-5.27-8.17,0-14.55,7-14.81,15.52v.67c0,9.25,6.22,16.09,15.09,16.35h.52c3.8.12,7.53-.97,10.67-3.09v-7.41h-11.41v-9.8h22.36v22.37c-6.11,5.3-13.93,8.2-22.02,8.19-16.02,0-27.07-11.27-27.07-26.52h0Zm53.88,0v-.14c.03-7.2,2.96-14.07,8.13-19.08,5.17-5,12.15-7.69,19.34-7.47,15.66,0,26.98,11.51,27.31,25.87v.78c.02,7.22-2.9,14.12-8.07,19.15-4.99,4.84-11.67,7.54-18.6,7.53h-.77c-15.92-.12-27.33-11.97-27.33-26.64h0Zm42.93,0v-.14c.13-4.22-1.46-8.32-4.39-11.36s-6.99-4.76-11.21-4.76c-4.2-.02-8.21,1.68-11.13,4.69-2.77,2.86-4.32,6.68-4.34,10.66v.77c-.13,4.24,1.44,8.36,4.39,11.41,2.94,3.06,7,4.78,11.24,4.79,4.2,0,8.23-1.7,11.15-4.74,2.92-3.03,4.46-7.13,4.28-11.32h0Z"/>
  </g>
</svg>