<?xml version="1.0" encoding="UTF-8"?>
<svg id="Ebene_1" data-name="Ebene 1" xmlns="http://www.w3.org/2000/svg" viewBox="0 0 256 256">
  <defs>
    <style>
      .cls-1 {
        fill: #fff;
      }

      .cls-2 {
        fill: #f6d2a2;
      }

      .cls-3 {
        fill: #27282c;
      }

      .cls-4 {
        fill: #69d7e2;
      }

      .cls-5 {
        fill: #231f20;
      }
    </style>
  </defs>
  <g id="Ebene_2" data-name="Ebene 2">
    <path class="cls-3" d="m45,0h166c24.85,0,45,20.15,45,45v166c0,24.85-20.15,45-45,45H45c-24.85,0-45-20.15-45-45V45C0,20.15,20.15,0,45,0Z"/>
  </g>
  <g>
    <path class="cls-2" d="m49.33,137.1c.32,6.5,6.82,3.47,9.72,1.45,2.78-1.96,3.6-.32,3.85-4.1.19-2.52.44-4.99.32-7.51-4.23-.38-8.77.63-12.24,3.16-1.83,1.26-5.11,5.43-1.64,7.01"/>
    <path class="cls-2" d="m178.9,217c4.99,3.09,14.14,12.43,6.63,16.98-7.2,6.56-11.23-7.26-17.55-9.15,2.71-3.72,6.12-7.13,10.92-7.83h0Z"/>
    <path class="cls-2" d="m89.66,227.54c-5.87.88-9.15,6.19-14.07,8.9-4.61,2.71-6.37-.88-6.75-1.64-.69-.32-.63.32-1.77-.82-4.29-6.75,4.42-11.68,8.96-15.02,6.31-1.26,10.29,4.23,13.63,8.58h0Z"/>
    <path class="cls-2" d="m206.61,136.28c-.32,6.5-6.82,3.47-9.72,1.45-2.78-1.96-3.6-.32-3.85-4.1-.19-2.52-.44-4.99-.32-7.51,4.23-.38,8.77.63,12.24,3.16,1.77,1.26,5.11,5.43,1.64,7.01"/>
    <path class="cls-4" d="m189.38,57c22.53-7.95,4.92-38.82-14.71-25.18-12.88-11.04-30.61-13.06-49.23-13.06-18.24,1.45-35.6,4.8-47.71,15.4-19.57-12.62-37.62,17.67-14.64,25.31-6.44,24.99.88,50.49-.13,75.93-.95,22.85-6.94,53.46,5.74,73.97,10.79,17.55,34.02,23.79,53.14,24.49,24.43.88,54.03-5.11,65.89-28.78,11.36-22.53,8.2-50.62,6.75-74.92-1.45-24.55,1.26-49.48-5.11-73.15h0Z"/>
    <path d="m208.31,132.43c-.63-1.33-1.83-2.84-2.97-3.66-2.9-2.08-6.63-3.22-10.48-3.35-.13-3.91-.25-8.2-.25-13.63v-4.92c-.06-15.53-.25-22.34-1.14-30.86-.69-6.69-1.77-12.88-3.28-18.68,5.11-1.96,8.46-5.18,9.78-9.34,1.26-3.85.63-8.2-1.51-12.05-2.21-3.79-5.74-6.63-9.85-7.76-4.42-1.2-9.21-.32-13.82,2.78-4.1-3.47-8.84-6.12-14.14-8.14-9.4-3.47-20.32-4.8-35.15-4.8v.63l-.06-.63c-15.84,1.26-27.58,3.72-37.3,8.46-3.91,1.89-7.38,4.17-10.41,6.82-4.67-2.9-9.53-3.6-14.01-2.21-4.17,1.26-7.76,4.23-9.91,8.08-2.15,3.85-2.65,8.27-1.2,12.05,1.45,3.79,4.8,6.75,9.78,8.58-1.58,6.37-2.4,13.13-2.52,20.58-.13,7.26.19,13.06,1.33,26.19.82,9.78,1.14,14.26,1.26,19.69-4.29-.19-8.58.95-11.8,3.28-1.14.82-2.4,2.27-2.97,3.66-.82,1.77-.5,3.35,1.14,4.29.25,3.03,1.96,4.42,4.54,4.17,1.89-.19,4.17-1.2,6.12-2.59.44-.32.88-.57,1.33-.76.19-.06.32-.13.5-.19,0,0,.38-.13.5-.19.19-.06.38-.13.5-.25-.13,2.97-.38,6.06-.95,13.13-.63,7.95-.95,12.31-1.07,17.17-.57,18.05,1.58,31.18,8.02,41.59,2.02,3.28,4.48,6.19,7.38,8.84-.57.38-2.97,2.15-3.72,2.71-2.65,2.02-4.48,3.72-5.55,5.62-1.39,2.46-1.39,4.92.19,7.51l.06.06.06.06c.69.69,1.07.88,1.58.88h.19c.06.13.13.19.19.32.19.32.38.57.57.82,1.58,1.83,3.79,2.27,6.75.5,1.58-.82,2.71-1.77,5.11-3.79l.13-.13c3.85-3.28,5.74-4.48,8.58-4.92l1.01-.19c.38.19.76.32,1.2.5,8.96,3.6,19.38,5.55,29.92,5.93,13.63.5,26.76-1.2,37.87-5.24,2.97-1.07,5.74-2.34,8.39-3.72,1.64.63,3.03,1.96,5.68,5.05q.13.13.19.25c.13.13.13.19.19.25.13.19.32.32.44.5,2.08,2.46,3.47,3.66,5.05,4.35,2.08.88,4.1.44,6.19-1.45,3.66-2.27,3.91-5.81,1.51-9.85-1.7-2.84-4.67-5.81-7.45-7.7,3.28-3.22,6.12-7.07,8.33-11.42,6.06-12.12,8.39-26.26,8.27-44.43-.06-6.44-.32-12.05-1.01-22.78v-.32c.32.13.63.32.95.57,1.96,1.33,4.23,2.4,6.12,2.59,2.59.25,4.29-1.14,4.54-4.17h0c1.58-1.01,1.89-2.59,1.07-4.35h0Zm-20.07-102.94c3.79,1.01,7.07,3.66,9.09,7.2,2.02,3.53,2.59,7.51,1.45,11.04-1.2,3.72-4.23,6.69-8.96,8.46-.95-3.41-2.08-6.75-3.35-9.97,1.83-1.58,2.71-3.53,1.26-6.31-1.45-2.78-3.98-3.09-6.56-2.27-1.64-2.15-3.47-4.04-5.36-5.81,4.17-2.65,8.46-3.41,12.43-2.34h0ZM53.68,50.82c-1.33-3.41-.88-7.45,1.14-10.98,2.02-3.53,5.3-6.31,9.21-7.45,4.04-1.2,8.39-.63,12.69,1.89-2.46,2.21-4.67,4.73-6.56,7.51-3.28-1.7-6.63-2.02-8.52,1.45-1.96,3.72.32,6.06,3.53,7.83-.44,1.07-.88,2.21-1.26,3.35-.44,1.39-.88,2.84-1.26,4.29-4.61-1.77-7.64-4.48-8.96-7.89h0Zm7.64,86.02c-.06,0-.44.13-.44.19-.19.06-.38.13-.57.25-.5.19-1.01.5-1.51.88-1.77,1.26-3.91,2.21-5.55,2.34-1.89.19-2.97-.63-3.16-2.9,1.33-.44,1.89-.76,2.4-1.51l-1.01-.76c-.38.5-.76.69-1.89,1.07h0q-.06,0-.13.06c-1.01-.57-1.2-1.45-.63-2.71.5-1.14,1.64-2.46,2.59-3.16,3.03-2.21,7.07-3.28,11.11-3.03,0,1.58.06,3.16,0,4.67,0,.19,0,.32-.06.5-.06.88-.06,1.26-.13,1.7h0c-.19,1.83-.32,2.08-1.01,2.4h0Zm19.06,95.24q-.06.06-.13.13c-2.34,2.02-3.47,2.84-4.92,3.66-2.4,1.45-4.04,1.14-5.18-.25-.19-.19-.32-.44-.44-.63-.06-.06-.13-.19-.19-.25v-.06c.13-1.14.57-1.96,1.7-3.72q.06-.06.06-.13c.69-1.01,1.01-1.58,1.33-2.27l-1.14-.5c-.25.57-.57,1.07-1.2,2.08q-.06.06-.06.13c-1.14,1.64-1.64,2.65-1.89,3.79h-.25c-.13-.06-.32-.19-.57-.44-2.46-3.91-.5-7.26,5.05-11.42.69-.5,3.03-2.15,3.66-2.65.13,0,.25-.06.38-.13,3.41,2.9,7.38,5.43,11.8,7.51h0c0,.06.06.13.13.19-2.59.63-4.61,1.96-8.14,4.99h0Zm105.97-6.88c1.96,3.28,1.89,5.93-.57,7.76-.19-.38-.32-.82-.57-1.45q0-.06-.06-.13c-.88-2.4-1.45-3.41-2.52-4.54l-.88.88c.95.88,1.39,1.83,2.27,4.04q0,.06.06.13c.32.82.5,1.33.69,1.77-1.64,1.39-3.09,1.64-4.61.95-1.33-.57-2.59-1.77-4.61-4.04-.13-.13-.25-.32-.38-.5-.06-.06-.13-.13-.19-.25q-.13-.13-.19-.25c-2.34-2.71-3.72-4.17-5.24-4.99,3.53-2.02,6.69-4.29,9.53-6.94,2.65,1.96,5.62,4.86,7.26,7.57h0Zm.88-20.45c-5.43,10.92-15.02,18.62-27.9,23.29-10.98,3.98-23.98,5.62-37.43,5.11-23.16-.82-43.23-8.9-52.64-24.17-6.31-10.16-8.39-23.1-7.83-40.9.19-4.86.44-9.21,1.07-17.17.69-8.96.88-11.55,1.07-15.59.13-2.9.13-5.87.06-9.03-.13-5.55-.44-9.97-1.26-19.88-1.14-13.13-1.45-18.87-1.33-26.07.19-9.47,1.45-17.8,4.1-25.69,4.29-12.81,12.18-21.46,23.54-27.08,9.53-4.67,21.08-7.07,36.8-8.33,14.71,0,25.44,1.33,34.71,4.73,11.11,4.1,19.38,11.3,25.06,22.34,3.66,8.96,5.81,18.62,6.94,29.73.88,8.46,1.07,15.27,1.14,30.74v4.92c.06,7.64.19,13,.5,18.37.13,2.08.19,2.97.5,7.95.69,10.73.95,16.28,1.01,22.72.13,18.11-2.15,32.06-8.14,43.99h0Zm19.31-69.11h0c-.06,0-.13-.06-.19-.06-1.14-.38-1.51-.63-1.89-1.07l-1.01.76c.57.76,1.14,1.07,2.4,1.51-.25,2.27-1.33,3.09-3.16,2.9-1.64-.13-3.79-1.14-5.55-2.34-.5-.38-1.01-.63-1.51-.88-.06,0-.13-.06-.19-.06-.25-3.47-.25-4.35-.38-6.19-.06-1.14-.13-2.27-.19-3.41,3.53.06,7.01,1.14,9.66,3.09.95.69,2.08,2.02,2.59,3.16.63,1.07.5,2.02-.57,2.59h0Z"/>
    <g>
      <path class="cls-1" d="m135.01,83.85c.06,3.22.69,6.75.13,10.16-.88,1.64-2.52,1.83-3.98,2.46-2.02-.32-3.72-1.64-4.54-3.53-.5-3.85.13-7.51.32-11.36,0-.13,2.4.06,4.54.69,1.83.57,3.53,1.51,3.53,1.58h0Z"/>
      <path class="cls-1" d="m117.15,84.1c-1.77,6.69,2.34,17.61,9.09,8.65-.5-3.79.06-7.45.25-11.17.06-.32-9.28,2.08-9.34,2.52h0Z"/>
      <path d="m135.77,86.81c-.13-1.89-.19-2.65-.19-3.6v-.44l-.44-.13-7.95-2.46v-.44l-.82.19h-.06v.06l-8.96,2.27-.32.06-.13.32c-1.39,3.35-1.07,8.39.69,11.49,2.02,3.53,5.3,3.6,8.65-.44.95,1.83,2.71,3.09,4.73,3.41h.19l.19-.06c.25-.13.5-.19.95-.38q.06,0,.13-.06c1.83-.63,2.59-1.14,3.22-2.34l.06-.06v-.13c.19-1.14.25-2.34.25-3.66,0-.95-.06-1.83-.19-3.6h0Zm-10.1-2.34c-.06,1.14-.13,1.58-.19,2.21-.13,2.34-.13,4.1.06,5.87-2.97,3.79-5.3,3.79-6.88.95-1.51-2.65-1.83-7.13-.69-10.1l7.95-2.02c-.06.82-.13,1.64-.25,3.09h0Zm8.84,9.34c-.44.76-1.01,1.14-2.52,1.64q-.06,0-.13.06c-.38.13-.63.25-.82.32-1.7-.32-3.16-1.45-3.85-3.03-.19-1.7-.19-3.47-.06-5.81.06-.63.06-1.07.19-2.21.13-1.45.19-2.34.19-3.16l6.88,2.08c0,.82.06,1.58.19,3.22.13,1.7.19,2.59.19,3.6,0,1.2-.06,2.27-.25,3.28h0Z"/>
    </g>
    <g>
      <path class="cls-1" d="m79.16,56.35c5.81,22.59,41.97,16.79,40.58-5.87-1.64-27.14-46.14-21.9-40.58,5.87"/>
      <path d="m120.37,50.42c-.38-6.56-3.28-11.68-8.08-14.89-4.29-2.9-9.97-4.04-15.59-3.35-5.62.76-10.79,3.28-14.2,7.26-3.79,4.42-5.24,10.22-3.91,16.91l.57-.13-.57.13c5.93,23.23,43.17,17.61,41.78-5.93h0Zm-40.65,5.81c-1.26-6.37.13-11.8,3.66-15.9,3.22-3.72,8.08-6.19,13.44-6.88,5.36-.69,10.73.38,14.77,3.16,4.48,3.03,7.2,7.76,7.57,14.01,1.33,22.03-33.83,27.33-39.45,5.62h0Z"/>
      <ellipse cx="89.13" cy="52.63" rx="6.12" ry="6.63"/>
      <ellipse class="cls-1" cx="91.91" cy="54.14" rx="1.45" ry="1.7"/>
    </g>
    <g>
      <path class="cls-1" d="m129.88,52.12c4.48,25.94,46.89,19.06,40.77-7.07-5.49-23.48-42.29-16.98-40.77,7.07"/>
      <path d="m171.22,44.93c-5.62-24.17-43.49-17.55-41.97,7.26v.06c2.08,12.24,13,18.49,25.06,16.47,5.49-.95,10.41-3.6,13.63-7.51,3.53-4.35,4.8-9.97,3.28-16.28h0Zm-4.23,15.53c-3.03,3.66-7.64,6.19-12.88,7.07-11.42,1.89-21.65-3.98-23.67-15.46-1.39-23.35,34.33-29.6,39.64-6.88,1.39,6,.25,11.23-3.09,15.27h0Z"/>
      <ellipse cx="140.29" cy="50.99" rx="6" ry="6.63"/>
      <ellipse class="cls-1" cx="143.07" cy="52.5" rx="1.39" ry="1.7"/>
    </g>
    <g>
      <path class="cls-2" d="m118.45,70.46c-4.99.44-9.03,6.31-6.44,10.98,3.41,6.19,11.04-.57,15.78.06,5.49.13,9.97,5.81,14.33,1.01,4.86-5.3-2.08-10.48-7.57-12.75l-16.09.69h0Z"/>
      <path class="cls-5" d="m142.75,74.69c-1.7-2.15-4.67-4.1-7.89-5.43l-.13-.06h-.13l-16.16.63c-5.62.5-9.66,7.01-6.94,11.93,1.07,1.89,2.52,2.84,4.48,2.97,1.45.06,2.97-.25,5.3-1.07.19-.06.44-.13.76-.25,3.16-1.07,4.42-1.39,5.68-1.2h.06c1.51,0,2.78.44,5.18,1.39,2.65,1.07,3.47,1.39,4.8,1.51,1.83.13,3.41-.5,4.86-2.08,2.46-2.71,2.34-5.62.13-8.33h0Zm-1.07,7.45c-1.2,1.33-2.4,1.77-3.85,1.7-1.14-.06-1.89-.38-4.42-1.39-2.52-1.07-3.91-1.45-5.55-1.51-1.58-.19-2.9.13-6.25,1.26-.32.13-.57.19-.76.25-4.61,1.58-6.82,1.45-8.33-1.33-2.27-4.1,1.2-9.66,5.93-10.1l15.97-.63c3.03,1.26,5.74,3.09,7.32,5.05,1.89,2.27,1.96,4.54-.06,6.69h0Z"/>
      <path d="m135.81,67.75c-1.96-7.2-18.37-6.12-17.99,2.46.82,6.37,19.88,4.67,17.99-2.46h0Z"/>
    </g>
  </g>
</svg>