<?xml version="1.0" encoding="UTF-8"?>
<svg id="Ebene_1" data-name="Ebene 1" xmlns="http://www.w3.org/2000/svg" viewBox="0 0 256 256">
  <defs>
    <style>
      .cls-1 {
        fill: #fdbd00;
      }

      .cls-2 {
        fill: #297aec;
      }

      .cls-3 {
        fill: #27282c;
      }

      .cls-4 {
        fill: #2da94f;
      }

      .cls-5 {
        fill: #ea4335;
      }
    </style>
  </defs>
  <g id="Ebene_2" data-name="Ebene 2">
    <path class="cls-3" d="m45,0h166c24.85,0,45,20.15,45,45v166c0,24.85-20.15,45-45,45H45c-24.85,0-45-20.15-45-45V45C0,20.15,20.15,0,45,0Z"/>
  </g>
  <g>
    <path class="cls-5" d="m204.37,73.06c-13.45-2.72-35.12-6.4-41.18,6.26-18.51,32.06-29.14,65.62-37.14,80.01.84.49,37.71,21.88,40.32,23.14,8.29,4.02,22.13,2.21,28.02-8.42,16.35-29.49,12.2-21.82,29.57-51.91,11.23-19.45-2.81-45.69-19.59-49.08h0Z"/>
    <path class="cls-1" d="m88.04,203.22c-9.03-10.33-15.65-30.99-7.72-42.56,23.17-40.14,41.73-64.44,56.32-88.8,7.74,4.47,38.74,22.05,40.8,23.86,6.93,6.08,12.66,17.68,6.4,28.11-17.37,28.91-24.49,41.99-42.14,72.57-11.23,19.45-42.38,19.73-53.66,6.83Z"/>
    <g>
      <path class="cls-4" d="m171.17,52.59c-18.06-10.55-27.34-9.17-37.06-7.61-8.83,2.21-20.77,8.62-25.8,16.87-12.7,20.8-24.72,41.37-40.3,69.26-4.8,8.59-1.24,19.14,3.19,23.33,3,2.84,25.08,15.02,29.16,16.77,5.76,2.48,14.4.75,19.6-4.61,1.44-1.48,34.38-58.06,43.65-74.75,3.92-7.04,7.44-10.94,13.3-14.7,11.31-5.94,20.14-6.7,33.67-1.75,0,0-29.44-17.07-39.41-22.81h0Z"/>
      <path class="cls-2" d="m54.96,185.37c-18.17-10.36-21.61-19.09-25.12-28.29-2.5-8.75-2.92-22.3,1.71-30.78,11.66-21.39,11.58-21.5,27.94-48.93,5.04-8.45,15.96-10.64,21.8-8.9,3.96,1.18,25.55,14.21,29.1,16.86,5.03,3.75,7.85,12.09,5.81,19.28-.56,1.99-21.2,38.21-31.01,54.58-4.14,6.91-5.75,11.91-6.08,18.86.51,12.76,4.27,20.8,15.32,30.04,0,0-29.5-16.97-39.46-22.73h0Z"/>
    </g>
  </g>
</svg>