<?xml version="1.0" encoding="UTF-8" standalone="no"?>
<!DOCTYPE svg PUBLIC "-//W3C//DTD SVG 1.1//EN" "http://www.w3.org/Graphics/SVG/1.1/DTD/svg11.dtd">
<!-- Created with Vectornator (http://vectornator.io/) -->
<svg height="100%" stroke-miterlimit="10" style="fill-rule:nonzero;clip-rule:evenodd;stroke-linecap:round;stroke-linejoin:round;" version="1.1" viewBox="0 0 512 512" width="100%" xml:space="preserve" xmlns="http://www.w3.org/2000/svg" xmlns:vectornator="http://vectornator.io" xmlns:xlink="http://www.w3.org/1999/xlink">
<defs/>
<g id="Ebene-1" vectornator:layerName="Ebene 1">
<path d="M2.84217e-14 95C2.84217e-14 42.5329 42.5329 0 95 0L417 0C469.467 0 512 42.5329 512 95L512 417C512 469.467 469.467 512 417 512L95 512C42.5329 512 2.84217e-14 469.467 2.84217e-14 417L2.84217e-14 95Z" fill="#242628" fill-rule="nonzero" opacity="1" stroke="none" vectornator:layerName="Rechteck 1"/>
</g>
<g id="Ebene-2" vectornator:layerName="Ebene 2">
<g opacity="1" vectornator:layerName="google-pay-logo-2020.svg">
<path d="M408.74 146.116C381.85 140.675 338.492 133.316 326.379 158.629C289.358 222.752 268.104 289.862 252.106 318.657C253.786 319.627 327.524 362.409 332.74 364.94C349.317 372.984 376.993 369.364 388.783 348.1C421.491 289.11 413.177 304.468 447.929 244.277C470.386 205.38 442.308 152.907 408.74 146.116Z" fill="#ea4335" fill-rule="nonzero" opacity="1" stroke="none" vectornator:layerName="path"/>
<path d="M176.087 406.434C158.031 385.777 144.785 344.451 160.651 321.306C207 241.025 244.104 192.426 273.284 143.712C288.757 152.646 350.755 187.813 354.883 191.437C368.735 203.588 380.21 226.805 367.69 247.648C332.956 305.469 318.705 331.636 283.402 392.784C260.94 431.691 198.644 432.24 176.087 406.434Z" fill="#fdbd00" fill-rule="nonzero" opacity="1" stroke="none" vectornator:layerName="path"/>
<g opacity="1" vectornator:layerName="g">
<path d="M342.334 105.189C306.213 84.0824 287.647 86.8487 268.223 89.9639C250.563 94.3784 226.684 107.212 216.619 123.7C191.226 165.29 167.175 206.446 136.017 262.216C126.421 279.393 133.544 300.497 142.4 308.872C148.402 314.55 192.563 338.915 200.711 342.418C212.236 347.373 229.501 343.926 239.916 333.206C242.792 330.245 308.671 217.089 327.224 183.714C335.055 169.63 342.109 161.836 353.819 154.323C376.443 142.452 394.106 140.921 421.16 150.813C421.16 150.813 362.277 116.683 342.334 105.189Z" fill="#2da94f" fill-rule="nonzero" opacity="1" stroke="none" vectornator:layerName="path"/>
<path d="M109.925 370.748C73.584 350.021 66.6962 332.559 59.6815 314.178C54.6758 296.679 53.8508 269.582 63.0965 252.618C86.421 209.835 86.2533 209.618 118.974 154.749C129.052 137.849 150.891 133.467 162.572 136.948C170.49 139.306 213.67 165.368 220.777 170.674C230.833 178.178 236.479 194.854 232.403 209.234C231.277 213.204 190 285.646 170.375 318.402C162.091 332.225 158.869 342.23 158.219 356.127C159.249 381.656 166.753 397.718 188.849 416.203C188.849 416.203 129.85 382.272 109.925 370.748Z" fill="#297aec" fill-rule="nonzero" opacity="1" stroke="none" vectornator:layerName="path"/>
</g>
</g>
</g>
</svg>
