<?xml version="1.0" encoding="UTF-8"?><svg id="a" xmlns="http://www.w3.org/2000/svg" viewBox="0 0 128 128"><defs><style>.b{fill:#fff;}.c{fill:#7ab852;}</style></defs><rect class="c" x="0" y="0" width="128" height="128" rx="25" ry="25" transform="translate(128 0) rotate(90)"/><path class="b" d="m67.82,97.8c2.35-.34,5.04-1.01,6.39-1.68,1.35-.67,2.35-1.68,2.35-2.35,0,0-.34-.67-.67-1.35-.67-1.01-1.35-2.35-3.03-6.05-.67-1.68-2.19-6.09-2.69-8.07-.51-2.97-.56-6.12,0-9.08.49-1.73,1.16-3.4,2.35-4.71,1.34-1.77,2.91-3.52,5.04-4.37,6.63-2.64,14.46-8.41,18.5-14.8,1.35-2.35,1.99-3.36,2.48-4.71,1.21-3.33,2.28-6.86,2.23-10.43v-.34H26.46v.67c-.06,8.81,5.15,16.76,11.43,22.53,3.36,3.03,7.4,5.38,12.11,7.06,1.68.67,2.35,1.01,3.7,2.35,1.68,2.02,3.03,4.37,3.7,7.06.41,3.89.1,7.99-1.01,11.77l-.67,2.02c-.34,1.35-1.35,3.36-3.03,6.73-1.68,3.36-1.68,3.7-1.68,4.04.67,2.02,4.71,3.36,10.76,4.04,1.35,0,3.36,0,6.05-.34h0Zm-28.25-11.43c2.35-.34,4.37-1.01,5.04-2.02v-.34l-.34-1.01c-2.35-4.37-3.7-8.07-3.7-11.77,0-2.02.34-3.03,1.01-4.71,1.01-1.68,1.35-2.22,3.03-2.9.67-.34,1.48-.47,1.81-.68.88-.26,1.89-.79,1.89-.79,0,0-.6-.13-1.28-.47-2.02-.67-2.75-1.22-4.43-2.22-5.38-3.03-8.74-6.05-12.11-10.43-1.01-1.68-1.53-2.42-2.02-3.1l-.34-.6c-.34-.34-13.79-.34-14.12,0-.23,4.71,2.03,8.86,5.04,12.44,3.52,4.19,6.39,5.38,9.08,6.05,2.35.67,2.69,1.01,3.7,2.35.67,1.68,1.01,2.69,1.01,4.71.34,3.03-.67,6.05-2.69,10.43-.67,1.35-1.35,2.69-1.35,2.69,0,.34.67,1.01,1.35,1.35,1.68,1.01,6.39,1.68,9.42,1.01h0Zm54.82,0c2.69-.34,4.37-1.01,4.71-2.02,0-.34,0-.67-1.01-2.69-2.12-4.18-3.58-9.14-2.35-13.79.7-1.88,1.6-3.84,3.7-4.17,3.36-1.01,6.05-2.56,9.42-5.92,2.02-2.02,3.89-5.42,4.42-7.4.42-1.58.95-3.48.62-5.04-.34-.34-14.12-.34-14.46,0,0,0-.34.34-.67.67-.34,1.01-1.68,3.03-2.69,4.04-1.35,1.68-5.38,5.72-6.73,6.73-2.48,2.54-7.24,4.25-9.75,5.38.34.34,2.02,1.35,3.36,1.68q2.69,1.01,3.7,2.69c.67,1.68,1.01,2.69,1.01,4.71.19,4.67-2.19,8.99-4.04,12.78,2.39,2.69,7.41,2.62,10.76,2.35h0Z"/></svg>