<?xml version="1.0" encoding="UTF-8" standalone="no"?>
<!DOCTYPE svg PUBLIC "-//W3C//DTD SVG 1.1//EN" "http://www.w3.org/Graphics/SVG/1.1/DTD/svg11.dtd">
<!-- Created with Vectornator (http://vectornator.io/) -->
<svg height="100%" stroke-miterlimit="10" style="fill-rule:nonzero;clip-rule:evenodd;stroke-linecap:round;stroke-linejoin:round;" version="1.1" viewBox="0 0 512 512" width="100%" xml:space="preserve" xmlns="http://www.w3.org/2000/svg" xmlns:vectornator="http://vectornator.io" xmlns:xlink="http://www.w3.org/1999/xlink">
<defs/>
<g id="Ebene-1" vectornator:layerName="Ebene 1">
<path d="M2.84217e-14 95C2.84217e-14 42.5329 42.5329 0 95 0L417 0C469.467 0 512 42.5329 512 95L512 417C512 469.467 469.467 512 417 512L95 512C42.5329 512 2.84217e-14 469.467 2.84217e-14 417L2.84217e-14 95Z" fill="#e535ab" fill-rule="nonzero" opacity="1" stroke="none" vectornator:layerName="Rechteck 1"/>
<g opacity="1" vectornator:layerName="g">
<path d="M113.468 358.66L99.092 350.36L259.242 72.98L273.618 81.28L113.468 358.66Z" fill="#ffffff" fill-rule="nonzero" opacity="1" stroke="none" vectornator:layerName="path"/>
<path d="M95.8 328.2L416.1 328.2L416.1 344.8L95.8 344.8L95.8 328.2Z" fill="#ffffff" fill-rule="nonzero" opacity="1" stroke="none" vectornator:layerName="path"/>
<path d="M262.348 430.026L102.138 337.526L110.438 323.15L270.648 415.65L262.348 430.026ZM401.522 188.947L241.312 96.447L249.612 82.071L409.822 174.571L401.522 188.947Z" fill="#ffffff" fill-rule="nonzero" opacity="1" stroke="none" vectornator:layerName="path"/>
<path d="M110.482 188.883L102.182 174.508L262.392 82.008L270.692 96.383L110.482 188.883Z" fill="#ffffff" fill-rule="nonzero" opacity="1" stroke="none" vectornator:layerName="path"/>
<path d="M398.568 358.663L238.418 81.283L252.794 72.983L412.944 350.363L398.568 358.663ZM108.5 163.5L125.1 163.5L125.1 348.5L108.5 348.5L108.5 163.5Z" fill="#ffffff" fill-rule="nonzero" opacity="1" stroke="none" vectornator:layerName="path"/>
<path d="M386.9 163.5L403.5 163.5L403.5 348.5L386.9 348.5L386.9 163.5Z" fill="#ffffff" fill-rule="nonzero" opacity="1" stroke="none" vectornator:layerName="path"/>
<path d="M259.522 423L252.272 410.442L391.612 329.992L398.862 342.549L259.522 423Z" fill="#ffffff" fill-rule="nonzero" opacity="1" stroke="none" vectornator:layerName="path"/>
<path d="M425.5 353.9C415.9 370.6 394.5 376.3 377.8 366.7C361.1 357.1 355.4 335.7 365 319C374.6 302.3 396 296.6 412.7 306.2C429.5 315.9 435.2 337.2 425.5 353.9M146.9 193C137.3 209.7 115.9 215.4 99.2 205.8C82.5 196.2 76.8 174.8 86.4 158.1C96 141.4 117.4 135.7 134.1 145.3C150.8 155 156.5 176.3 146.9 193M86.5 353.9C76.9 337.2 82.6 315.9 99.3 306.2C116 296.6 137.3 302.3 147 319C156.6 335.7 150.9 357 134.2 366.7C117.4 376.3 96.1 370.6 86.5 353.9M365.1 193C355.5 176.3 361.2 155 377.9 145.3C394.6 135.7 415.9 141.4 425.6 158.1C435.2 174.8 429.5 196.1 412.8 205.8C396.1 215.4 374.7 209.7 365.1 193M256 451.8C236.7 451.8 221.1 436.2 221.1 416.9C221.1 397.6 236.7 382 256 382C275.3 382 290.9 397.6 290.9 416.9C290.9 436.1 275.3 451.8 256 451.8M256 130C236.7 130 221.1 114.4 221.1 95.1C221.1 75.8 236.7 60.2 256 60.2C275.3 60.2 290.9 75.8 290.9 95.1C290.9 114.4 275.3 130 256 130" fill="#ffffff" fill-rule="nonzero" opacity="1" stroke="none" vectornator:layerName="path"/>
</g>
</g>
</svg>
