<?xml version="1.0" encoding="UTF-8"?><svg id="a" xmlns="http://www.w3.org/2000/svg" viewBox="0 0 128 128"><defs><style>.b{fill:#fff;fill-rule:evenodd;}.c{fill:#e535ab;}</style></defs><rect class="c" x="0" y="0" width="128" height="128" rx="25" ry="25" transform="translate(128 0) rotate(90)"/><path class="b" d="m72.54,25.46l20.56,11.87c.58-.61,1.26-1.15,2.02-1.6,4.26-2.45,9.7-1,12.18,3.27,2.45,4.26,1,9.7-3.27,12.18-.76.44-1.56.75-2.37.95v23.75c.81.2,1.6.51,2.35.94,4.29,2.48,5.75,7.92,3.27,12.18-2.45,4.26-7.92,5.72-12.18,3.27-.85-.49-1.59-1.1-2.2-1.79l-20.44,11.8c.29.88.45,1.83.45,2.81,0,4.9-3.98,8.91-8.91,8.91s-8.91-3.98-8.91-8.91c0-.88.13-1.72.36-2.52l-20.56-11.87c-.57.6-1.24,1.13-1.99,1.57-4.29,2.45-9.73,1-12.18-3.27-2.45-4.26-1-9.7,3.27-12.18.75-.43,1.54-.74,2.35-.94v-23.75c-.81-.19-1.61-.51-2.37-.95-4.26-2.45-5.72-7.92-3.27-12.18,2.45-4.26,7.92-5.72,12.18-3.27.76.44,1.44.98,2.01,1.59l20.57-11.88c-.24-.8-.36-1.65-.36-2.53,0-4.93,3.98-8.91,8.91-8.91s8.91,3.98,8.91,8.91c0,.89-.13,1.74-.37,2.55Zm-2.14,3.66l20.61,11.9c-.64,2.24-.4,4.72.85,6.89,1.25,2.18,3.3,3.63,5.57,4.19v23.78c-.12.03-.23.06-.34.09l-26.92-46.62c.08-.08.16-.16.24-.24Zm-12.56.24l-26.92,46.62c-.12-.03-.23-.07-.35-.09v-23.79c2.27-.56,4.31-2.01,5.57-4.19,1.25-2.18,1.49-4.67.84-6.91l20.61-11.9c.08.09.17.17.25.25Zm8.65,2.11l26.91,46.61c-.6.57-1.13,1.24-1.57,2-.43.75-.74,1.54-.94,2.35h-53.79c-.2-.8-.51-1.6-.94-2.35-.44-.75-.97-1.42-1.57-1.99l26.92-46.62c.79.23,1.62.35,2.48.35s1.7-.12,2.49-.35Zm4.1,67.61l20.48-11.82c-.06-.19-.12-.39-.16-.58h-53.81c-.03.12-.06.23-.09.34l20.58,11.88c1.62-1.68,3.9-2.73,6.42-2.73s4.96,1.12,6.59,2.91Z"/></svg>