<?xml version="1.0" encoding="UTF-8"?><svg id="a" xmlns="http://www.w3.org/2000/svg" viewBox="0 0 128 128"><defs><style>.b{fill:#fff;}.c{fill:#e05f47;}</style></defs><rect class="c" x="0" y="0" width="128" height="128" rx="25" ry="25" transform="translate(128 0) rotate(90)"/><path class="b" d="m72.6,61.54l21.72-12.22c.72.63,1.56,1.14,2.46,1.5l.02,26.37c-3.13,1.22-5.35,4.27-5.35,7.85,0,.62.07,1.22.19,1.8l-21.75,12.36c-1.46-1.25-3.36-2.01-5.43-2.01s-4.07.8-5.55,2.11l-22.45-13.02c.06-.41.09-.82.09-1.24,0-3.9-2.65-7.19-6.24-8.14l-.04-25.77c3.61-.93,6.28-4.23,6.28-8.15,0-.73-.09-1.43-.26-2.11l21.5-12.34c1.5,1.42,3.52,2.3,5.75,2.3,4.62,0,8.37-3.77,8.37-8.41s-3.75-8.41-8.37-8.41-8.37,3.77-8.37,8.41c0,.5.04,1,.13,1.48l-21.85,12.54c-1.44-1.17-3.27-1.87-5.26-1.87-4.62,0-8.37,3.77-8.37,8.41,0,3.52,2.15,6.53,5.21,7.79l.04,26.46c-3.07,1.24-5.24,4.27-5.24,7.8,0,4.65,3.75,8.41,8.37,8.41,2.31,0,4.4-.94,5.91-2.46l22.18,12.86c-.12.56-.18,1.15-.18,1.75,0,4.65,3.75,8.41,8.37,8.41s8.37-3.77,8.37-8.41c0-.65-.07-1.29-.22-1.9l21.69-12.32c1.47,1.29,3.4,2.08,5.51,2.08,4.62,0,8.37-3.77,8.37-8.41,0-3.87-2.6-7.12-6.13-8.11v-25.84c3.53-.98,6.13-4.24,6.13-8.11,0-4.65-3.75-8.41-8.37-8.41s-8.37,3.77-8.37,8.41c0,.62.07,1.23.19,1.81l-21.82,12.28c-1.45-1.21-3.32-1.94-5.35-1.94-4.62,0-8.37,3.77-8.37,8.41s3.75,8.41,8.37,8.41,8.37-3.77,8.37-8.41c0-.69-.08-1.36-.24-2Z"/></svg>