<?xml version="1.0" encoding="UTF-8"?>
<svg id="Ebene_1" data-name="Ebene 1" xmlns="http://www.w3.org/2000/svg" viewBox="0 0 256 256">
  <defs>
    <style>
      .cls-1 {
        fill: #fff;
      }

      .cls-2 {
        fill: #e535ab;
      }
    </style>
  </defs>
  <g id="Ebene_2" data-name="Ebene 2">
    <path class="cls-2" d="m45,0h166c24.85,0,45,20.15,45,45v166c0,24.85-20.15,45-45,45H45c-24.85,0-45-20.15-45-45V45C0,20.15,20.15,0,45,0Z"/>
  </g>
  <g>
    <path class="cls-1" d="m47.93,185.67l-8.08-4.66L129.82,25.18l8.08,4.66L47.93,185.67Z"/>
    <path class="cls-1" d="m38,168.56h179.94v9.33H38v-9.33Z"/>
    <path class="cls-1" d="m131.57,225.77l-90.01-51.97,4.66-8.08,90.01,51.97-4.66,8.08Zm78.19-135.44l-90.01-51.97,4.66-8.08,90.01,51.97-4.66,8.08Z"/>
    <path class="cls-1" d="m46.25,90.29l-4.66-8.08,90.01-51.97,4.66,8.08-90.01,51.97Z"/>
    <path class="cls-1" d="m208.09,185.68L118.12,29.84l8.08-4.66,89.97,155.83-8.08,4.66ZM45.13,76.03h9.33v103.93h-9.33v-103.93Z"/>
    <path class="cls-1" d="m201.54,76.03h9.33v103.93h-9.33v-103.93Z"/>
    <path class="cls-1" d="m129.98,221.82l-4.07-7.06,78.28-45.2,4.07,7.05-78.28,45.2Z"/>
    <path class="cls-1" d="m223.22,183c-5.39,9.38-17.42,12.58-26.8,7.19-9.38-5.39-12.58-17.42-7.19-26.8s17.42-12.58,26.8-7.19c9.44,5.45,12.64,17.42,7.19,26.8M66.71,92.61c-5.39,9.38-17.42,12.58-26.8,7.19s-12.58-17.42-7.19-26.8c5.39-9.38,17.42-12.58,26.8-7.19,9.38,5.45,12.58,17.42,7.19,26.8m-33.93,90.39c-5.39-9.38-2.19-21.35,7.19-26.8,9.38-5.39,21.35-2.19,26.8,7.19,5.39,9.38,2.19,21.35-7.19,26.8-9.44,5.39-21.4,2.19-26.8-7.19m156.52-90.39c-5.39-9.38-2.19-21.35,7.19-26.8,9.38-5.39,21.35-2.19,26.8,7.19,5.39,9.38,2.19,21.35-7.19,26.8-9.38,5.39-21.4,2.19-26.8-7.19m-61.29,145.39c-10.84,0-19.61-8.76-19.61-19.61s8.76-19.61,19.61-19.61,19.61,8.76,19.61,19.61-8.76,19.61-19.61,19.61m0-180.79c-10.84,0-19.61-8.76-19.61-19.61s8.76-19.61,19.61-19.61,19.61,8.76,19.61,19.61-8.76,19.61-19.61,19.61"/>
  </g>
</svg>