<?xml version="1.0" encoding="UTF-8"?><svg id="a" xmlns="http://www.w3.org/2000/svg" viewBox="0 0 128 128"><defs><style>.b{fill:#fff;}.c{fill:#d34a47;}</style></defs><rect class="c" x="0" y="0" width="128" height="128" rx="25" ry="25" transform="translate(128 0) rotate(90)"/><path class="b" d="m77.45,115.68l1.06-17.59,2.91-4.97s-6.63,2.71-17.74,2.71-17.64-2.66-17.64-2.66l3.27,5.43,1.16,17.08c0,1.83,6.04,3.32,13.49,3.32s13.49-1.48,13.49-3.32"/><path class="b" d="m74.12,33.56l2.22-8.76,12.27-12.91-3.23-2.75-12.99,13.75-2.57,10.46c-1.86-.06-3.81-.1-5.81-.1-13.68,0-24.77,1.56-24.77,3.48s11.09,3.48,24.77,3.48,24.77-1.56,24.77-3.48c0-1.42-6.01-2.63-14.65-3.18"/><path class="b" d="m72.83,38.46s-.48.11-1.89.11c-1.41,0-2.41,0-2.81-.37-.11-.1-.17-.29-.17-.42,0-.25.18-.4.4-.49l.21.34c-.09.03-.15.07-.15.11,0,.19,1.44.32,2.55.31,1.1-.01,2.44-.1,2.44-.29,0-.06-.1-.11-.28-.15l.21-.33c.29.09.54.26.54.56,0,.51-.65.58-1.06.64"/><path class="b" d="m88.58,11.92c.31-.36-.16-1.27-1.05-2.04-.89-.77-1.85-1.1-2.16-.74-.31.36.16,1.27,1.05,2.03.89.77,1.85,1.1,2.16.74"/><path class="b" d="m76.86,72.73c-.29-2.8,6.12-6.85,4.47-6.98-3.54.2-5.3,4.15-7.08,8.28-.65,1.52-2.89,7.98-4.35,7.18-1.46-.79,1.9-6.11,2.84-9.26-1.09.8-5.08,3.9-6.11.99-1.65,1.4-5.19,2.16-4.79-1.52-.88,1.56-2.85,3.73-5.22,2.83-3.11-1.19,1.8-11.1,3.02-10.6,1.22.5-.25,2.76-.63,3.63-.85,1.93-1.82,4.35-1.17,4.85,1.12.85,4.16-3.22,4.23-3.31.57-.75,2.19-5.67,3.5-5.11,1.31.56-3.26,7.06-1.55,8.35.34.26,1.75-.16,2.61-1.09.55-.6.36-1.93,2.21-6.34,1.85-4.41,3.5-9.9,4.76-9.48,1.27.42.22,3.24-.23,4.29-2.13,4.93-5.83,13.08-4.08,12.46,1.74-.62,2.65-.65,4.35-2.65,1.7-1.99,1.63-5.28,2.76-5.21,1.14.07.95,1.12.67,1.93,1.12-1.28,5.3-3.97,6.31-1.31,1.2,3.16-5.98,7.72-4.19,7.49,1.75-.23,4.57-2.02,5.78-3.65l3.32-29.88s-3.34,2.77-24.62,2.77-24.27-2.71-24.27-2.71l2.83,27.27c1.5-4.27,5.07-12.9,10.69-12.61,2.56.13,5.97,5.06,3.05,5.22-1.24.07-1.36-2.46-2.83-2.83-1.06-.27-2.53.59-3.48,1.52-1.9,1.86-5.98,9.18-5.44,12.84.69,4.66,6.43-1.62,7.4-3.48.68-1.31,1.15-5.2,2.64-4.79,1.5.41-.13,4.42-1.21,7.97-1.22,3.98-1.86,8.19-3.39,7.7-1.53-.48.96-5.63.87-6.53-1.44,1.32-4.08,4.68-7.46,3.02l1.76,16.93s4.67,3.69,18.74,3.69,18.91-3.63,18.91-3.63l2.18-19.61c-1.79,1.74-7.43,4.82-7.8,1.35"/></svg>