<?xml version="1.0" encoding="UTF-8"?>
<svg id="Ebene_1" data-name="Ebene 1" xmlns="http://www.w3.org/2000/svg" viewBox="0 0 256 256">
  <defs>
    <style>
      .cls-1 {
        fill: #fff;
      }

      .cls-2 {
        fill: #d34a47;
      }
    </style>
  </defs>
  <g id="Ebene_2" data-name="Ebene 2">
    <path class="cls-2" d="m45,0h166c24.85,0,45,20.15,45,45v166c0,24.85-20.15,45-45,45H45c-24.85,0-45-20.15-45-45V45C0,20.15,20.15,0,45,0Z"/>
  </g>
  <g>
    <path class="cls-1" d="m154.9,231.37l2.11-35.17,5.83-9.95s-13.27,5.43-35.47,5.43-35.27-5.33-35.27-5.33l6.53,10.85,2.31,34.17c0,3.66,12.08,6.63,26.98,6.63s26.98-2.97,26.98-6.63m-6.66-164.25l4.43-17.51,24.53-25.82-6.47-5.51-25.97,27.5-5.14,20.92c-3.87-.13-7.75-.19-11.62-.19-27.36,0-49.53,3.12-49.53,6.96s22.18,6.96,49.53,6.96,49.53-3.12,49.53-6.96c0-2.83-12.03-5.27-29.29-6.36"/>
    <path class="cls-1" d="m145.66,76.93s-.96.22-3.78.23c-2.82.01-4.83-.02-5.63-.75-.21-.2-.33-.58-.33-.85,0-.5.36-.79.81-.98l.43.67c-.19.06-.29.14-.29.22,0,.38,2.89.64,5.1.61,2.21-.03,4.88-.21,4.88-.58,0-.11-.2-.22-.55-.3l.43-.67c.57.18,1.07.52,1.07,1.12,0,1.01-1.29,1.16-2.13,1.28"/>
    <path class="cls-1" d="m177.16,23.84c.62-.71-.32-2.54-2.09-4.07-1.77-1.53-3.71-2.2-4.33-1.49-.62.71.32,2.54,2.09,4.07,1.77,1.53,3.71,2.2,4.33,1.49m-23.44,121.61c-.58-5.59,12.24-13.7,8.95-13.96-7.08.4-10.61,8.3-14.17,16.57-1.31,3.03-5.77,15.95-8.7,14.36-2.93-1.59,3.8-12.22,5.68-18.53-2.18,1.6-10.15,7.79-12.21,1.99-3.31,2.81-10.37,4.33-9.57-3.05-1.76,3.12-5.71,7.46-10.44,5.66-6.22-2.37,3.61-22.19,6.05-21.19,2.44,1-.49,5.51-1.26,7.27-1.69,3.86-3.65,8.71-2.34,9.7,2.24,1.7,8.32-6.44,8.46-6.61,1.14-1.5,4.38-11.34,7-10.21s-6.52,14.12-3.1,16.7c.69.52,3.51-.32,5.22-2.18,1.11-1.2.73-3.86,4.43-12.68,3.7-8.82,6.99-19.8,9.53-18.96,2.54.84.45,6.47-.46,8.57-4.27,9.86-11.65,26.15-8.17,24.92,3.48-1.23,5.29-1.31,8.7-5.29,3.41-3.99,3.25-10.56,5.52-10.42,2.27.14,1.89,2.25,1.34,3.85,2.24-2.56,10.6-7.95,12.62-2.61,2.39,6.32-11.97,15.45-8.39,14.98,3.49-.45,9.15-4.04,11.56-7.29l6.65-59.75s-6.69,5.53-49.24,5.53-48.54-5.42-48.54-5.42l5.66,54.54c3-8.54,10.14-25.8,21.38-25.22,5.11.26,11.94,10.11,6.09,10.44-2.48.14-2.73-4.92-5.66-5.66-2.12-.54-5.06,1.18-6.96,3.05-3.8,3.71-11.96,18.37-10.88,25.68,1.37,9.31,12.85-3.24,14.8-6.96,1.37-2.62,2.29-10.4,5.28-9.59,2.99.82-.26,8.84-2.43,15.94-2.44,7.97-3.72,16.37-6.77,15.41-3.05-.97,1.92-11.25,1.74-13.06-2.87,2.65-8.16,9.35-14.92,6.03l3.51,33.87s9.34,7.38,37.47,7.38,37.82-7.26,37.82-7.26l4.36-39.23c-3.57,3.48-14.87,9.65-15.59,2.69"/>
  </g>
</svg>