<?xml version="1.0" encoding="UTF-8"?>
<svg id="Ebene_1" data-name="Ebene 1" xmlns="http://www.w3.org/2000/svg" viewBox="0 0 256 256">
  <defs>
    <style>
      .cls-1 {
        fill: #fff;
      }

      .cls-2 {
        fill: #6762a5;
      }
    </style>
  </defs>
  <g id="Ebene_2" data-name="Ebene 2">
    <path class="cls-2" d="m45,0h166c24.85,0,45,20.15,45,45v166c0,24.85-20.15,45-45,45H45c-24.85,0-45-20.15-45-45V45C0,20.15,20.15,0,45,0Z"/>
  </g>
  <path class="cls-1" d="m151.27,228v-109.37s7.11-26.17-87.63,10.71c-.17.47-.17-101.15-.17-101.15l30.96-.19v65.1s86.67-34.14,86.67,25.89v109.01h-29.84Zm17.64-160.59h-32.84c11.82-14.45,22.52-39.21,22.52-39.21h33.95s-5.81,16.14-23.63,39.21Zm-104.88,160.41v-62.28l31.14,31.14-31.14,31.14Z"/>
</svg>