<?xml version="1.0" encoding="UTF-8"?><svg id="a" xmlns="http://www.w3.org/2000/svg" viewBox="0 0 128 128"><defs><style>.c{fill:#fff;}.d{fill:#ebebeb;}.e{fill:#e34e26;}</style></defs><rect class="e" x="0" y="0" width="128" height="128" rx="25" ry="25" transform="translate(128 0) rotate(90)"/><g id="b"><polygon class="c" points="24.2 19 28.48 67.06 83.56 67.06 81.72 87.67 63.98 92.47 46.28 87.68 45.09 74.44 29.14 74.44 31.42 99.96 63.98 109 96.57 99.96 100.94 51.17 43.02 51.17 41.56 34.89 102.33 34.89 102.38 34.89 103.8 19 24.2 19"/><polygon class="d" points="64 19 24.2 19 28.48 67.06 64 67.06 64 51.17 43.02 51.17 41.56 34.89 64 34.89 64 19"/><polygon class="d" points="64 92.46 63.98 92.47 46.28 87.68 45.09 74.44 29.14 74.44 31.42 99.96 63.98 109 64 108.99 64 92.46"/></g></svg>