<?xml version="1.0" encoding="UTF-8"?><svg id="a" xmlns="http://www.w3.org/2000/svg" viewBox="0 0 128 128"><defs><style>.e{fill:#ff9a00;}.f{fill:#300;}</style></defs><rect class="f" x="0" y="0" width="128" height="128" rx="25" ry="25" transform="translate(128 0) rotate(90)"/><g id="b"><g id="c"><g id="d"><path class="e" d="m61.16,80.73h-19.61l-4.01,12.39c-.11.47-.53.79-1,.74h-9.91c-.58,0-.74-.32-.58-.95l16.97-48.86c.16-.53.32-1.11.53-1.74.21-1.11.32-2.27.32-3.43-.05-.26.16-.53.42-.58h13.65c.42,0,.63.16.69.42l19.24,54.29c.16.58,0,.84-.53.84h-11.02c-.37.05-.74-.21-.84-.58l-4.32-12.54Zm-16.55-10.7h13.39c-.32-1.11-.74-2.42-1.21-3.79-.47-1.42-.95-2.95-1.42-4.53-.53-1.63-1-3.21-1.53-4.85s-1-3.16-1.42-4.69c-.42-1.48-.79-2.85-1.16-4.11h-.11c-.47,2.27-1.05,4.53-1.79,6.8-.79,2.53-1.58,5.17-2.42,7.8-.74,2.69-1.53,5.17-2.32,7.38h0Z"/><path class="e" d="m89.36,47.32c-1.74.05-3.43-.63-4.69-1.84-1.21-1.32-1.84-3.06-1.79-4.85-.05-1.79.63-3.48,1.9-4.69,1.26-1.21,2.95-1.84,4.69-1.84,2.06,0,3.64.63,4.8,1.84,1.16,1.26,1.79,2.95,1.74,4.69.05,1.79-.58,3.53-1.84,4.85-1.21,1.26-3,1.95-4.8,1.84Zm-5.9,45.75v-40.58c0-.53.21-.74.69-.74h10.44c.47,0,.69.26.69.74v40.58c0,.58-.21.84-.69.84h-10.33c-.53,0-.79-.32-.79-.84Z"/></g></g></g></svg>