<?xml version="1.0" encoding="UTF-8"?>
<svg xmlns="http://www.w3.org/2000/svg" viewBox="0 0 256 256">
  <defs>
    <style>
      .cls-1 {
        fill: #659ad2;
      }

      .cls-2 {
        fill: #fff;
      }

      .cls-3 {
        fill: #004482;
      }

      .cls-4 {
        fill: #4a4a49;
      }

      .cls-5 {
        fill: #00599c;
      }
    </style>
  </defs>
  <g id="Ebene_2" data-name="Ebene 2">
    <rect class="cls-4" width="256" height="256" rx="35" ry="35"/>
  </g>
  <g id="Ebene_1" data-name="Ebene 1">
    <path class="cls-3" d="m227.74,82.17c.08-3.49-.76-6.93-2.44-9.99-1.73-2.96-4.23-5.39-7.24-7.05-26.62-15.37-53.24-30.71-79.87-46.04-7.17-4.15-14.12-4-21.25.21-10.59,6.22-63.64,36.65-79.44,45.82-6.51,3.77-9.67,9.54-9.67,17.05v92.68c-.07,3.41.74,6.79,2.34,9.8,1.73,3.05,4.28,5.56,7.36,7.25,15.81,9.19,68.86,39.58,79.45,45.84,7.13,4.21,14.08,4.36,21.26.21,26.61-15.37,53.23-30.73,79.87-46.06,3.07-1.69,5.62-4.2,7.36-7.25,1.6-3.01,2.41-6.39,2.34-9.8v-92.66h-.07Z"/>
    <path class="cls-5" d="m227.76,174.84c.07,3.41-.74,6.79-2.34,9.8-.39.72-.84,1.41-1.33,2.06l-96.3-58.2,90.28-63.38c3,1.66,5.5,4.09,7.23,7.05,1.68,3.06,2.52,6.51,2.45,9.99.02,30.89.02,92.67.02,92.67h0Z"/>
    <path class="cls-1" d="m225.3,72.17L30.15,184.64c-1.6-3.01-2.4-6.38-2.33-9.79v-92.69c0-7.5,3.17-13.28,9.67-17.05,15.81-9.17,68.86-39.59,79.46-45.84,7.11-4.21,14.07-4.36,21.24-.21,26.61,15.37,53.23,30.73,79.87,46.06,3,1.66,5.5,4.09,7.23,7.05Z"/>
    <path class="cls-2" d="m131.65,165.94c-13.38.02-25.72-7.25-32.18-18.97-.32-.58-.63-1.16-.92-1.77-8.84-18.25-1.21-40.22,17.05-49.06,15.26-7.39,33.6-3.37,44.37,9.73.49.59.92,1.2,1.41,1.84.22.3.44.61.64.92l32.25-18.57c-.78-1.26-1.61-2.49-2.46-3.68-.45-.63-.92-1.24-1.36-1.84-24.75-32.15-70.88-38.15-103.03-13.4-28.25,21.74-36.81,60.62-20.31,92.22.31.59.63,1.17.92,1.75,20.01,35.3,64.85,47.7,100.15,27.69,10.42-5.91,19.24-14.27,25.69-24.36l-31.53-19.06c-6.78,10.34-18.32,16.57-30.68,16.56h0Z"/>
  </g>
</svg>