<?xml version="1.0" encoding="UTF-8"?><svg id="a" xmlns="http://www.w3.org/2000/svg" viewBox="0 0 128 128"><defs><style>.d{fill:#49021f;}.e{fill:#f36;}</style></defs><rect class="d" x="0" y="0" width="128" height="128" rx="25" ry="25" transform="translate(128 0) rotate(90)"/><g id="b"><g id="c"><path class="e" d="m42.86,34.19v63.78c0,.68-.31.99-.87.99h-12.18c-.56,0-.81-.31-.81-.99v-63.78c0-.56.31-.81.87-.81h12.12c.37-.06.75.19.81.62.06.06.06.12.06.19Z"/><path class="e" d="m78.67,99.97c-4.6.06-9.2-.87-13.37-2.8-3.92-1.8-7.15-4.79-9.39-8.45-2.3-3.79-3.42-8.52-3.42-14.17-.06-4.6,1.12-9.14,3.42-13.12,2.36-4.04,5.78-7.4,9.88-9.64,4.35-2.42,9.57-3.61,15.73-3.61.31,0,.75,0,1.31.06.56.06,1.18.06,1.93.12v-19.64c0-.44.19-.68.62-.68h12.62c.31-.06.56.19.62.44v59.31c0,1.12.06,2.36.12,3.73.12,1.31.19,2.55.25,3.61,0,.44-.19.81-.62.99-3.23,1.37-6.65,2.36-10.13,2.98-3.11.56-6.34.87-9.57.87Zm6.09-12.43v-27.35c-.56-.12-1.12-.25-1.68-.31-.68-.06-1.37-.12-2.05-.12-2.42,0-4.85.5-7.02,1.62-2.11,1.06-3.92,2.61-5.28,4.6-1.37,1.99-2.05,4.66-2.05,7.9-.06,2.18.31,4.35,1.06,6.4.62,1.68,1.55,3.17,2.8,4.41,1.18,1.12,2.61,1.99,4.23,2.49,1.68.56,3.42.81,5.16.81.93,0,1.8-.06,2.61-.12.81.06,1.55-.06,2.24-.31Z"/></g></g></svg>