<?xml version="1.0" encoding="UTF-8"?>
<svg id="Ebene_1" data-name="Ebene 1" xmlns="http://www.w3.org/2000/svg" xmlns:xlink="http://www.w3.org/1999/xlink" viewBox="0 0 256 256">
  <defs>
    <style>
      .cls-1 {
        fill: #fff;
      }

      .cls-2 {
        fill: url(#Unbenannter_Verlauf_2);
      }

      .cls-3 {
        fill: url(#Unbenannter_Verlauf_4);
      }

      .cls-4 {
        fill: url(#Unbenannter_Verlauf);
      }

      .cls-5 {
        fill: #27282c;
      }

      .cls-6 {
        fill: url(#Unbenannter_Verlauf_3);
      }
    </style>
    <linearGradient id="Unbenannter_Verlauf" data-name="Unbenannter Verlauf" x1="1.72" y1="2.99" x2="2.51" y2="2.99" gradientTransform="translate(-175.2 -174.4) scale(119.2 106)" gradientUnits="userSpaceOnUse">
      <stop offset=".26" stop-color="#f97a12"/>
      <stop offset=".46" stop-color="#b07b58"/>
      <stop offset=".72" stop-color="#577bae"/>
      <stop offset=".91" stop-color="#1e7ce5"/>
      <stop offset="1" stop-color="#087cfa"/>
    </linearGradient>
    <linearGradient id="Unbenannter_Verlauf_2" data-name="Unbenannter Verlauf 2" x1="1.14" y1="1.44" x2="2.09" y2="1.78" gradientTransform="translate(-84.4 -264) scale(162.4 252)" gradientUnits="userSpaceOnUse">
      <stop offset="0" stop-color="#f97a12"/>
      <stop offset=".07" stop-color="#cb7a3e"/>
      <stop offset=".15" stop-color="#9e7b6a"/>
      <stop offset=".24" stop-color="#757b91"/>
      <stop offset=".33" stop-color="#537bb1"/>
      <stop offset=".43" stop-color="#387ccc"/>
      <stop offset=".54" stop-color="#237ce0"/>
      <stop offset=".66" stop-color="#147cef"/>
      <stop offset=".79" stop-color="#0b7cf7"/>
      <stop offset="1" stop-color="#087cfa"/>
    </linearGradient>
    <linearGradient id="Unbenannter_Verlauf_3" data-name="Unbenannter Verlauf 3" x1="2.15" y1="2.65" x2="1.78" y2="1.83" gradientTransform="translate(-35.6 -264) scale(113.6 156.4)" gradientUnits="userSpaceOnUse">
      <stop offset="0" stop-color="#fe315d"/>
      <stop offset=".08" stop-color="#cb417e"/>
      <stop offset=".16" stop-color="#9e4e9b"/>
      <stop offset=".25" stop-color="#755bb4"/>
      <stop offset=".34" stop-color="#5365ca"/>
      <stop offset=".44" stop-color="#386ddb"/>
      <stop offset=".54" stop-color="#2374e9"/>
      <stop offset=".66" stop-color="#1478f3"/>
      <stop offset=".79" stop-color="#0b7bf8"/>
      <stop offset="1" stop-color="#087cfa"/>
    </linearGradient>
    <linearGradient id="Unbenannter_Verlauf_4" data-name="Unbenannter Verlauf 4" x1="1.21" y1="1.38" x2="1.85" y2="2.22" gradientTransform="translate(-178 -268) scale(196.4 249.6)" gradientUnits="userSpaceOnUse">
      <stop offset="0" stop-color="#fe315d"/>
      <stop offset=".04" stop-color="#f63462"/>
      <stop offset=".1" stop-color="#df3a71"/>
      <stop offset=".17" stop-color="#c24383"/>
      <stop offset=".29" stop-color="#ad4a91"/>
      <stop offset=".55" stop-color="#755bb4"/>
      <stop offset=".92" stop-color="#1d76ed"/>
      <stop offset="1" stop-color="#087cfa"/>
    </linearGradient>
  </defs>
  <g id="Ebene_2" data-name="Ebene 2">
    <rect class="cls-5" width="256" height="256" rx="35" ry="35"/>
  </g>
  <g>
    <polygon class="cls-4" points="78.62 183.94 30.19 145.81 54.25 101.13 123.32 128 78.62 183.94"/>
    <polygon class="cls-2" points="228 81.44 224.25 197.07 147.38 228 101.13 198 168.62 128 139.25 63 165.81 31.13 228 81.44"/>
    <polygon class="cls-6" points="228 81.44 167.07 153.32 139.25 63 165.81 31.13 228 81.44"/>
    <polygon class="cls-3" points="124.25 193.94 44.25 223 57.07 178 73.63 122.37 28 107.07 57.07 28 119.56 35.5 181.44 106.12 124.25 193.94"/>
    <rect x="65.5" y="65.5" width="125" height="125"/>
    <path class="cls-1" d="m77.38,167.07h46.87v7.81h-46.87v-7.81Zm33.44-75.94v-9.38h-25.63v9.38h7.19v32.81h-7.19v9.69h25.63v-9.69h-7.19v-32.81s7.19,0,7.19,0Zm25,43.13c-3.56.16-7.12-.6-10.31-2.19-2.61-1.44-4.94-3.35-6.87-5.63l7.19-8.12c1.3,1.42,2.76,2.68,4.37,3.75,1.51.89,3.24,1.32,5,1.25,1.93.15,3.8-.68,5-2.19,1.45-1.87,2.12-4.21,1.88-6.56v-33.44h11.56v33.75c.12,2.76-.3,5.53-1.25,8.12-.83,2.64-2.34,5.01-4.37,6.87-3.54,2.63-7.78,4.15-12.19,4.37h0Z"/>
  </g>
</svg>