<?xml version="1.0" encoding="UTF-8"?>
<svg id="Ebene_1" data-name="Ebene 1" xmlns="http://www.w3.org/2000/svg" xmlns:xlink="http://www.w3.org/1999/xlink" viewBox="0 0 256 256">
  <defs>
    <style>
      .cls-1 {
        fill: #fff;
      }

      .cls-2 {
        fill: url(#Unbenannter_Verlauf_2);
      }

      .cls-3 {
        fill: url(#Unbenannter_Verlauf_4);
      }

      .cls-4 {
        fill: #27282c;
      }

      .cls-5 {
        fill: url(#Unbenannter_Verlauf_5);
      }

      .cls-6 {
        fill: url(#Unbenannter_Verlauf_3);
      }
    </style>
    <linearGradient id="Unbenannter_Verlauf_5" data-name="Unbenannter Verlauf 5" x1="1.62" y1="252.99" x2="2.5" y2="252.99" gradientTransform="translate(-175.2 26961.6) scale(119.2 -106)" gradientUnits="userSpaceOnUse">
      <stop offset=".26" stop-color="#f97a12"/>
      <stop offset=".46" stop-color="#b07b58"/>
      <stop offset=".72" stop-color="#577bae"/>
      <stop offset=".91" stop-color="#1e7ce5"/>
      <stop offset="1" stop-color="#087cfa"/>
    </linearGradient>
    <linearGradient id="Unbenannter_Verlauf_2" data-name="Unbenannter Verlauf 2" x1="1.12" y1="254.57" x2="2.19" y2="254.19" gradientTransform="translate(-84.4 64248) scale(162.4 -252)" gradientUnits="userSpaceOnUse">
      <stop offset="0" stop-color="#f97a12"/>
      <stop offset=".07" stop-color="#cb7a3e"/>
      <stop offset=".15" stop-color="#9e7b6a"/>
      <stop offset=".24" stop-color="#757b91"/>
      <stop offset=".33" stop-color="#537bb1"/>
      <stop offset=".43" stop-color="#387ccc"/>
      <stop offset=".54" stop-color="#237ce0"/>
      <stop offset=".66" stop-color="#147cef"/>
      <stop offset=".79" stop-color="#0b7cf7"/>
      <stop offset="1" stop-color="#087cfa"/>
    </linearGradient>
    <linearGradient id="Unbenannter_Verlauf_3" data-name="Unbenannter Verlauf 3" x1="2.24" y1="253.33" x2="1.82" y2="254.25" gradientTransform="translate(-35.6 39774.4) scale(113.6 -156.4)" gradientUnits="userSpaceOnUse">
      <stop offset="0" stop-color="#fe315d"/>
      <stop offset=".08" stop-color="#cb417e"/>
      <stop offset=".16" stop-color="#9e4e9b"/>
      <stop offset=".25" stop-color="#755bb4"/>
      <stop offset=".34" stop-color="#5365ca"/>
      <stop offset=".44" stop-color="#386ddb"/>
      <stop offset=".54" stop-color="#2374e9"/>
      <stop offset=".66" stop-color="#1478f3"/>
      <stop offset=".79" stop-color="#0b7bf8"/>
      <stop offset="1" stop-color="#087cfa"/>
    </linearGradient>
    <linearGradient id="Unbenannter_Verlauf_4" data-name="Unbenannter Verlauf 4" x1="1.16" y1="254.65" x2="1.89" y2="253.7" gradientTransform="translate(-178 63629.6) scale(196.4 -249.6)" gradientUnits="userSpaceOnUse">
      <stop offset="0" stop-color="#fe315d"/>
      <stop offset=".04" stop-color="#f63462"/>
      <stop offset=".1" stop-color="#df3a71"/>
      <stop offset=".17" stop-color="#c24383"/>
      <stop offset=".29" stop-color="#ad4a91"/>
      <stop offset=".55" stop-color="#755bb4"/>
      <stop offset=".92" stop-color="#1d76ed"/>
      <stop offset="1" stop-color="#087cfa"/>
    </linearGradient>
  </defs>
  <g id="Ebene_2" data-name="Ebene 2">
    <rect class="cls-4" width="256" height="256" rx="35" ry="35"/>
  </g>
  <g>
    <polygon class="cls-5" points="72.45 190.93 17.96 148.04 45.03 97.77 122.73 128 72.45 190.93"/>
    <polygon class="cls-2" points="240.5 75.62 236.28 205.7 149.8 240.5 97.77 206.75 173.7 128 140.66 54.87 170.54 19.02 240.5 75.62"/>
    <polygon class="cls-6" points="240.5 75.62 171.95 156.48 140.66 54.87 170.54 19.02 240.5 75.62"/>
    <polygon class="cls-3" points="123.78 202.18 33.78 234.88 48.2 184.25 66.83 121.67 15.5 104.45 48.2 15.5 118.51 23.94 188.12 103.39 123.78 202.18"/>
    <rect x="57.69" y="57.69" width="140.62" height="140.62"/>
    <path class="cls-1" d="m71.05,171.95h52.73v8.79h-52.73v-8.79Zm37.62-85.43v-10.55h-28.83v10.55h8.09v36.91h-8.09v10.9h28.83v-10.9h-8.09v-36.91h8.09Zm28.12,48.52c-4.01.18-8.01-.67-11.6-2.46-2.94-1.62-5.56-3.77-7.73-6.33l8.09-9.14c1.46,1.6,3.11,3.02,4.92,4.22,1.7,1,3.65,1.49,5.62,1.41,2.17.17,4.28-.76,5.63-2.46,1.63-2.1,2.38-4.74,2.11-7.38v-37.62h13.01v37.97c.13,3.11-.34,6.22-1.41,9.14-.93,2.97-2.63,5.64-4.92,7.73-3.98,2.96-8.75,4.67-13.71,4.92Z"/>
  </g>
</svg>