<?xml version="1.0" encoding="UTF-8"?><svg id="Ebene_2" xmlns="http://www.w3.org/2000/svg" viewBox="0 0 128 128"><defs><style>.cls-1{fill:#fff;}.cls-2{fill:#3880ff;}</style></defs><rect class="cls-2" x="0" y="0" width="128" height="128" rx="25" ry="25" transform="translate(128 0) rotate(90)"/><path class="cls-1" d="m64.49,42.77c-11.46,0-20.75,9.29-20.75,20.75s9.29,20.75,20.75,20.75,20.75-9.29,20.75-20.75c-.01-11.45-9.29-20.73-20.75-20.75Z"/><circle class="cls-1" cx="94.28" cy="35.16" r="9.45"/><path class="cls-1" d="m105.92,44.66l-.4-.87-.63.72c-1.55,1.76-3.51,3.11-5.7,3.93l-.61.22.25.6c1.89,4.52,2.86,9.37,2.85,14.27,0,20.51-16.68,37.19-37.19,37.19s-37.19-16.68-37.19-37.19,16.68-37.19,37.19-37.19c5.52-.01,10.96,1.22,15.94,3.6l.58.26.25-.59c.93-2.15,2.37-4.04,4.2-5.5l.75-.6-.85-.42c-6.45-3.35-13.61-5.1-20.87-5.08-25.1,0-45.52,20.42-45.52,45.52s20.42,45.52,45.52,45.52,45.52-20.42,45.52-45.52c.01-6.51-1.39-12.94-4.09-18.86Z"/></svg>