<?xml version="1.0" encoding="UTF-8"?>
<svg id="Ebene_1" data-name="Ebene 1" xmlns="http://www.w3.org/2000/svg" viewBox="0 0 256 256">
  <defs>
    <style>
      .cls-1 {
        fill: #fff;
      }

      .cls-2 {
        fill: #5382a1;
      }

      .cls-3 {
        fill: #e76f00;
      }
    </style>
  </defs>
  <g id="Ebene_2" data-name="Ebene 2">
    <path class="cls-2" d="m45,0h166c24.85,0,45,20.15,45,45v166c0,24.85-20.15,45-45,45H45c-24.85,0-45-20.15-45-45V45C0,20.15,20.15,0,45,0Z"/>
  </g>
  <g>
    <path class="cls-3" d="m147.74,18h0s0,0,0,0Zm0,0c5.76,22.68-9.71,34.79-24.83,46.63-7.54,5.9-14.99,11.74-19.68,18.78-9.6,14.42,4.71,29.91,24.22,47.51-1.72-3.9-4.38-7.69-7.08-11.52-9.18-13.08-18.75-26.7,7.09-47.11,41.6-32.84,20.36-54.22,20.29-54.29h0Z"/>
    <path class="cls-3" d="m134.1,138.14s12.54-10.29,2.61-21.72h0c-33.66-38.78,36.81-56.38,36.81-56.38-42.97,24.92-37.21,32.91-27.16,46.87.45.63.91,1.27,1.38,1.92,11.58,16.3-13.63,29.31-13.63,29.31Z"/>
    <g>
      <path class="cls-1" d="m81.84,122.06c-.91,1.15-1.66,2.69-1.66,3.42,0,1.58-1.33,1.71-3.31.31-2.05-1.45-7.31-1.49-7.69-.07-.18.7.59,1.48,2.16,2.18,2.16.96,2.39,1.32,1.96,3.12-.58,2.44.51,3.65,3.83,4.22,2.7.46,6.23-.67,6.23-2,0-.46.65-.83,1.44-.83,2.99,0,4.82-3.96,2.19-4.74-.94-.28-.76-.92,1-3.41,1.85-2.64,1.99-3.15.96-3.67-2.55-1.3-5.38-.71-7.11,1.47Zm56.22,22.34c1.12,4.74-7.47,10.4-15.82,10.44-25.95.11-39.88,22.43-17.24,27.63,2.84.65,7.13,1.67,9.54,2.25,22.02,5.37,51.02,2.04,51.02-5.85,0-3.57-.54-3.81-3.69-1.65-8.48,5.82-48.01,4.22-57.01-2.31-7.36-5.33-.03-12.19,14.87-13.91,10.67-1.23,15.78-2.38,19.44-4.38,3.88-2.11,4.43-1.92,5.37,1.87.32,1.3.04,3.29-.71,5.14-1.45,3.54-.98,3.74,2.38.99,6.56-5.36,5.15-14.51-3.07-20.01-4.3-2.87-5.7-2.94-5.06-.23h0Zm42.22-.11c-.32.8-.04,1.71.74,2.38,1.64,1.42,1.6,1.72-.33,2.11-1.16.24-1.59.85-1.59,2.25,0,1.51.34,1.93,1.59,1.93.88,0,1.59.27,1.59.61,0,1.66,9.69,3.72,11.62,2.47,1.35-.88,1.49-3.17.25-4.14-.65-.51-.2-1.17,1.71-2.5,5.36-3.74.49-6.92-6.52-4.24-1.88.72-2.36.65-4.38-.65-2.83-1.81-4.01-1.86-4.69-.21h0Zm-101.37,17.88c-.52.26-1.34,1.28-1.82,2.26l-.87,1.79-1.59-1.33c-1.77-1.48-4.44-2.18-7.18-1.87-2.92.33-2.7,1.62.72,4.3,2.42,1.89,3.15,2.91,2.97,4.19-.49,3.45,5.56,3.75,9.64.47,2.84-2.28,3.56-4.7,1.39-4.7-.92,0-1.11-.31-.68-1.09,2.02-3.69.76-5.68-2.57-4.02h0Z"/>
      <path class="cls-1" d="m85.85,180.64c-7.99,3.41-9.51,15.41-2.66,21,9.07,7.4,58.3,11.59,83.57,7.12.88-.16,2.26-.3,3.08-.33,3.59-.12,7.68-4.61,7.68-8.45v-3.57l-3.17,2.24c-9.75,6.88-59.21,7.36-77.7.75-9.77-3.49-13.87-13.25-7.81-18.56,1.57-1.37.02-1.47-2.99-.19h0Z"/>
      <path class="cls-1" d="m63.57,203.1c-6.89,6.13-7.76,19.73-1.57,24.39,2.05,1.54,8.9,4.18,14.91,5.96,2.93.86,5.31,1.37,7.64,1.87l.53.11c11.28,2.42,40,3.03,67.64,2.25,30.49-.86,39.29-2.73,43.4-9.23.94-1.49,2.2-6.36,1.64-6.36-.11,0-1.7.67-3.53,1.48-3.99,1.78-10.5,3.57-17.91,4.95-6.19,1.15-39.97,1.37-55.86.36-31.03-1.39-38.48-3.18-48.59-8.27-7.16-5.36-8.71-10.07-5.69-17.27.82-1.96,1.41-3.56,1.31-3.56s-1.87,1.5-3.92,3.32Z"/>
    </g>
  </g>
</svg>