<?xml version="1.0" encoding="UTF-8"?><svg id="a" xmlns="http://www.w3.org/2000/svg" viewBox="0 0 128 128"><defs><style>.b{fill:#fff;}.c{fill:#5382a1;}.d{fill:#e76f00;}</style></defs><rect class="c" x="0" y="0" width="128" height="128" rx="25" ry="25" transform="translate(128 0) rotate(90)"/><path class="b" d="m50.64,87.37s-3.82,2.22,2.72,2.97c7.92.9,11.97.77,20.71-.88,0,0,2.3,1.44,5.5,2.69-19.58,8.39-44.3-.49-28.93-4.78m-2.39-10.95s-4.29,3.17,2.26,3.85c8.46.87,15.15.94,26.72-1.28,0,0,1.6,1.62,4.12,2.51-23.67,6.92-50.03.55-33.09-5.08"/><path class="d" d="m68.41,57.85c4.82,5.55-1.27,10.55-1.27,10.55,0,0,12.25-6.32,6.62-14.24-5.25-7.38-9.28-11.05,12.53-23.7,0,0-34.23,8.55-17.88,27.39"/><path class="b" d="m94.3,95.47s2.83,2.33-3.11,4.13c-11.3,3.42-47.03,4.46-56.96.14-3.57-1.55,3.12-3.71,5.23-4.16,2.19-.48,3.45-.39,3.45-.39-3.97-2.8-25.65,5.49-11.01,7.86,39.91,6.47,72.76-2.91,62.41-7.58m-41.83-30.39s-18.17,4.32-6.44,5.88c4.96.66,14.84.51,24.04-.26,7.52-.63,15.07-1.98,15.07-1.98,0,0-2.65,1.14-4.57,2.45-18.46,4.85-54.11,2.6-43.85-2.37,8.68-4.2,15.74-3.72,15.74-3.72m32.6,18.22c18.76-9.75,10.09-19.12,4.03-17.86-1.48.31-2.15.58-2.15.58,0,0,.55-.86,1.6-1.24,11.98-4.21,21.19,12.42-3.87,19.01,0,0,.29-.26.38-.49"/><path class="d" d="m73.77,10.04s10.39,10.39-9.85,26.38c-16.23,12.82-3.7,20.13,0,28.48-9.48-8.55-16.43-16.08-11.77-23.08,6.85-10.28,25.82-15.27,21.63-31.78"/><path class="b" d="m54.32,109.72c18.01,1.15,45.66-.64,46.32-9.16,0,0-1.26,3.23-14.88,5.8-15.37,2.89-34.33,2.55-45.57.7,0,0,2.3,1.91,14.14,2.66"/></svg>