<?xml version="1.0" encoding="UTF-8" standalone="no"?>
<!DOCTYPE svg PUBLIC "-//W3C//DTD SVG 1.1//EN" "http://www.w3.org/Graphics/SVG/1.1/DTD/svg11.dtd">
<!-- Created with Vectornator (http://vectornator.io/) -->
<svg height="100%" stroke-miterlimit="10" style="fill-rule:nonzero;clip-rule:evenodd;stroke-linecap:round;stroke-linejoin:round;" version="1.1" viewBox="0 0 512 512" width="100%" xml:space="preserve" xmlns="http://www.w3.org/2000/svg" xmlns:vectornator="http://vectornator.io" xmlns:xlink="http://www.w3.org/1999/xlink">
<defs/>
<g id="Ebene-1" vectornator:layerName="Ebene 1">
<path d="M0 95C0 42.5329 42.5329 0 95 0L417 0C469.467 0 512 42.5329 512 95L512 417C512 469.467 469.467 512 417 512L95 512C42.5329 512 0 469.467 0 417L0 95Z" fill="#f0db4f" fill-rule="nonzero" opacity="1" stroke="none" vectornator:layerName="Rechteck 1"/>
<g opacity="1" vectornator:layerName="logo-javascript.svg">
<path d="M81 76L481 76L481 476L81 476L81 76Z" fill="#f0db4f" fill-rule="nonzero" opacity="1" stroke="none" vectornator:layerName="path"/>
<path d="M448.262 380.601C445.335 362.35 433.433 347.027 398.186 332.73C385.943 327.103 372.293 323.073 368.224 313.795C366.779 308.395 366.589 305.354 367.502 302.084C370.125 291.475 382.787 288.167 392.825 291.209C399.289 293.376 405.411 298.358 409.099 306.304C426.361 295.126 426.323 295.202 438.376 287.521C433.966 280.677 431.608 277.521 428.719 274.594C418.338 262.997 404.194 257.027 381.57 257.483C377.654 257.978 373.7 258.51 369.783 259.004C358.491 261.856 347.73 267.787 341.418 275.734C322.483 297.217 327.882 334.821 350.924 350.297C373.624 367.331 406.97 371.21 411.228 387.141C415.373 406.647 396.894 412.958 378.529 410.715C364.992 407.902 357.464 401.019 349.327 388.51C334.346 397.179 334.346 397.179 318.947 406.038C322.597 414.023 326.437 417.635 332.559 424.556C361.533 453.947 434.042 452.502 447.046 408.016C447.578 406.494 451.076 396.304 448.262 380.601ZM298.452 259.84L261.038 259.84C261.038 292.16 260.886 324.251 260.886 356.57C260.886 377.141 261.951 396 258.605 401.779C253.13 413.148 238.947 411.741 232.483 409.536C225.905 406.304 222.559 401.703 218.681 395.202C217.616 393.338 216.818 391.894 216.551 391.779C206.4 397.977 196.285 404.213 186.133 410.411C191.19 420.791 198.643 429.802 208.186 435.657C222.445 444.213 241.608 446.836 261.647 442.235C274.689 438.433 285.943 430.563 291.837 418.586C300.354 402.882 298.529 383.871 298.452 362.844C298.643 328.548 298.452 294.251 298.452 259.84Z" fill="#323330" fill-rule="nonzero" opacity="1" stroke="none" vectornator:layerName="path"/>
</g>
</g>
</svg>
