<?xml version="1.0" encoding="UTF-8"?><svg id="a" xmlns="http://www.w3.org/2000/svg" viewBox="0 0 128 128"><defs><style>.b{fill:#fff;}.c{fill:#5382a1;}.d{fill:#e76f00;}</style></defs><rect class="c" x="0" y="0" width="128" height="128" rx="25" ry="25" transform="translate(128 0) rotate(90)"/><path class="d" d="m72.97,11h0s0,0,0,0Zm0,0c2.62,10.31-4.42,15.81-11.29,21.2-3.43,2.68-6.81,5.34-8.95,8.54-4.37,6.55,2.14,13.6,11.01,21.6-.78-1.77-1.99-3.49-3.22-5.24-4.17-5.94-8.52-12.14,3.22-21.41,18.91-14.93,9.26-24.64,9.22-24.68h0Z"/><path class="d" d="m66.77,65.61s5.7-4.68,1.19-9.87h0c-15.3-17.63,16.73-25.63,16.73-25.63-19.53,11.33-16.92,14.96-12.35,21.3.21.28.41.58.63.87,5.26,7.41-6.2,13.32-6.2,13.32Z"/><path class="b" d="m43.02,58.3c-.41.52-.75,1.22-.75,1.56,0,.72-.6.78-1.5.14-.93-.66-3.32-.68-3.49-.03-.08.32.27.67.98.99.98.44,1.09.6.89,1.42-.26,1.11.23,1.66,1.74,1.92,1.23.21,2.83-.3,2.83-.91,0-.21.29-.38.65-.38,1.36,0,2.19-1.8,1-2.16-.43-.13-.34-.42.45-1.55.84-1.2.9-1.43.44-1.67-1.16-.59-2.45-.32-3.23.67Zm25.56,10.15c.51,2.15-3.39,4.73-7.19,4.74-11.79.05-18.13,10.2-7.84,12.56,1.29.3,3.24.76,4.34,1.02,10.01,2.44,23.19.93,23.19-2.66,0-1.62-.25-1.73-1.68-.75-3.86,2.64-21.82,1.92-25.91-1.05-3.34-2.42-.01-5.54,6.76-6.32,4.85-.56,7.17-1.08,8.84-1.99,1.76-.96,2.02-.87,2.44.85.15.59.02,1.5-.32,2.33-.66,1.61-.45,1.7,1.08.45,2.98-2.44,2.34-6.6-1.4-9.09-1.95-1.31-2.59-1.33-2.3-.1h0Zm19.19-.05c-.15.36-.02.78.34,1.08.75.65.73.78-.15.96-.53.11-.72.39-.72,1.02,0,.69.16.88.72.88.4,0,.72.12.72.28,0,.76,4.4,1.69,5.28,1.12.62-.4.68-1.44.11-1.88-.3-.23-.09-.53.78-1.14,2.44-1.7.22-3.15-2.96-1.93-.85.33-1.07.29-1.99-.29-1.29-.82-1.82-.85-2.13-.09h0Zm-46.08,8.13c-.24.12-.61.58-.83,1.03l-.4.82-.72-.61c-.8-.67-2.02-.99-3.26-.85-1.33.15-1.23.74.33,1.95,1.1.86,1.43,1.32,1.35,1.9-.22,1.57,2.53,1.7,4.38.21,1.29-1.04,1.62-2.14.63-2.14-.42,0-.51-.14-.31-.5.92-1.68.34-2.58-1.17-1.83h0Z"/><path class="b" d="m44.84,84.93c-3.63,1.55-4.32,7.01-1.21,9.54,4.12,3.36,26.5,5.27,37.99,3.24.4-.07,1.03-.14,1.4-.15,1.63-.05,3.49-2.1,3.49-3.84v-1.62l-1.44,1.02c-4.43,3.13-26.91,3.34-35.32.34-4.44-1.59-6.31-6.02-3.55-8.44.71-.62,0-.67-1.36-.09h0Z"/><path class="b" d="m34.71,95.14c-3.13,2.79-3.53,8.97-.72,11.09.93.7,4.04,1.9,6.78,2.71,1.33.39,2.41.62,3.47.85l.24.05c5.13,1.1,18.18,1.38,30.74,1.02,13.86-.39,17.86-1.24,19.73-4.2.43-.68,1-2.89.75-2.89-.05,0-.77.3-1.61.67-1.81.81-4.77,1.62-8.14,2.25-2.81.52-18.17.62-25.39.16-14.1-.63-17.49-1.44-22.09-3.76-3.25-2.44-3.96-4.58-2.59-7.85.37-.89.64-1.62.6-1.62s-.85.68-1.78,1.51Z"/></svg>