<?xml version="1.0" encoding="UTF-8"?><svg id="Ebene_1" xmlns="http://www.w3.org/2000/svg" viewBox="0 0 128 128"><defs><style>.cls-1{fill:#232323;}.cls-2{fill:#f7df1e;}</style></defs><rect class="cls-2" width="128" height="128" rx="25" ry="25"/><path class="cls-1" d="m44.5,107.84l8.71-5.27c1.68,2.98,3.21,5.5,6.87,5.5s5.73-1.37,5.73-6.72v-36.35h10.69v36.5c0,11.07-6.49,16.11-15.96,16.11-8.55,0-13.52-4.43-16.04-9.78"/><path class="cls-1" d="m82.31,106.69l8.71-5.04c2.29,3.74,5.27,6.49,10.54,6.49,4.43,0,7.26-2.21,7.26-5.27,0-3.67-2.9-4.96-7.79-7.1l-2.67-1.15c-7.71-3.28-12.83-7.41-12.83-16.11,0-8.02,6.11-14.13,15.66-14.13,6.8,0,11.68,2.37,15.2,8.55l-8.32,5.35c-1.83-3.28-3.82-4.58-6.87-4.58s-5.12,1.99-5.12,4.58c0,3.21,1.99,4.51,6.57,6.49l2.67,1.15c9.09,3.9,14.21,7.87,14.21,16.8,0,9.62-7.56,14.89-17.72,14.89s-16.34-4.73-19.47-10.92"/></svg>