<?xml version="1.0" encoding="UTF-8" standalone="no"?>
<!DOCTYPE svg PUBLIC "-//W3C//DTD SVG 1.1//EN" "http://www.w3.org/Graphics/SVG/1.1/DTD/svg11.dtd">
<!-- Created with Vectornator (http://vectornator.io/) -->
<svg height="100%" stroke-miterlimit="10" style="fill-rule:nonzero;clip-rule:evenodd;stroke-linecap:round;stroke-linejoin:round;" version="1.1" viewBox="0 0 512 512" width="100%" xml:space="preserve" xmlns="http://www.w3.org/2000/svg" xmlns:vectornator="http://vectornator.io" xmlns:xlink="http://www.w3.org/1999/xlink">
<defs/>
<g id="Ebene-1" vectornator:layerName="Ebene 1">
<path d="M2.84217e-14 95C2.84217e-14 42.5329 42.5329 0 95 0L417 0C469.467 0 512 42.5329 512 95L512 417C512 469.467 469.467 512 417 512L95 512C42.5329 512 2.84217e-14 469.467 2.84217e-14 417L2.84217e-14 95Z" fill="#5382a1" fill-rule="nonzero" opacity="1" stroke="none" vectornator:layerName="Rechteck 1"/>
<g opacity="1" vectornator:layerName="java-14.svg">
<path d="M203.507 365.343C203.507 365.343 188.222 374.232 214.385 377.24C246.082 380.855 262.281 380.338 297.212 373.726C297.212 373.726 306.396 379.484 319.22 384.472C240.917 418.032 142.003 382.528 203.507 365.343M193.938 321.549C193.938 321.549 176.794 334.24 202.978 336.948C236.837 340.441 263.576 340.727 309.846 331.817C309.846 331.817 316.246 338.305 326.309 341.854C231.635 369.538 126.185 344.037 193.938 321.549" fill="#ffffff" fill-rule="nonzero" opacity="1" stroke="none" vectornator:layerName="path"/>
<path d="M274.603 247.261C293.897 269.474 269.534 289.464 269.534 289.464C269.534 289.464 318.524 264.174 296.025 232.503C275.012 202.97 258.896 188.295 346.135 137.7C346.135 137.7 209.199 171.9 274.603 247.26" fill="#ffffff" fill-rule="nonzero" opacity="1" stroke="none" vectornator:layerName="path"/>
<path d="M378.166 397.735C378.166 397.735 389.478 407.055 365.708 414.265C320.51 427.958 177.589 432.093 137.885 414.811C123.614 408.603 150.378 399.987 158.797 398.178C167.577 396.274 172.595 396.629 172.595 396.629C156.722 385.447 70.0032 418.584 128.546 428.073C288.199 453.964 419.578 416.415 378.166 397.735M210.856 276.174C210.856 276.174 138.159 293.442 185.113 299.711C204.938 302.366 244.46 301.766 281.274 298.68C311.36 296.144 341.57 290.747 341.57 290.747C341.57 290.747 330.961 295.291 323.286 300.531C249.462 319.947 106.846 310.915 147.903 291.054C182.625 274.27 210.857 276.174 210.857 276.174M341.27 349.07C416.318 310.073 381.619 272.598 357.399 277.647C351.463 278.882 348.816 279.952 348.816 279.952C348.816 279.952 351.02 276.501 355.229 275.007C403.141 258.162 439.99 324.688 339.762 351.035C339.762 351.037 340.924 349.999 341.27 349.07" fill="#ffffff" fill-rule="nonzero" opacity="1" stroke="none" vectornator:layerName="path"/>
<path d="M296.025 56.0012C296.025 56.0012 337.587 97.5784 256.605 161.509C191.667 212.794 241.797 242.035 256.579 275.444C218.673 241.244 190.854 211.137 209.518 183.116C236.909 141.983 312.794 122.041 296.025 56" fill="#ffffff" fill-rule="nonzero" opacity="1" stroke="none" vectornator:layerName="path"/>
<path d="M218.231 454.742C290.267 459.354 400.884 452.184 403.504 418.099C403.504 418.099 398.468 431.021 343.971 441.282C282.487 452.852 206.657 451.502 161.68 444.086C161.682 444.086 170.888 451.707 218.233 454.742" fill="#ffffff" fill-rule="nonzero" opacity="1" stroke="none" vectornator:layerName="path"/>
</g>
</g>
</svg>
