<?xml version="1.0" encoding="UTF-8"?>
<svg id="Ebene_1" data-name="Ebene 1" xmlns="http://www.w3.org/2000/svg" viewBox="0 0 256 256">
  <defs>
    <style>
      .cls-1 {
        fill: #fff;
      }

      .cls-2 {
        fill: #5382a1;
      }

      .cls-3 {
        fill: #e76f00;
      }
    </style>
  </defs>
  <g id="Ebene_2" data-name="Ebene 2">
    <path class="cls-2" d="m45,0h166c24.85,0,45,20.15,45,45v166c0,24.85-20.15,45-45,45H45c-24.85,0-45-20.15-45-45V45C0,20.15,20.15,0,45,0Z"/>
  </g>
  <g>
    <path class="cls-1" d="m99.13,188.14s-8.41,4.89,5.98,6.54c17.43,1.99,26.34,1.7,45.55-1.93,0,0,5.05,3.17,12.1,5.91-43.07,18.46-97.47-1.07-63.64-10.52m-5.26-24.09s-9.43,6.98,4.97,8.47c18.62,1.92,33.33,2.08,58.78-2.82,0,0,3.52,3.57,9.05,5.52-52.07,15.23-110.07,1.2-72.8-11.17"/>
    <path class="cls-3" d="m138.23,123.19c10.61,12.22-2.79,23.21-2.79,23.21,0,0,26.94-13.91,14.57-31.33-11.56-16.24-20.42-24.31,27.56-52.14,0,0-75.31,18.81-39.34,60.26"/>
    <path class="cls-1" d="m195.19,205.95s6.22,5.13-6.85,9.09c-24.86,7.53-103.47,9.81-125.3.3-7.85-3.41,6.87-8.15,11.5-9.15,4.83-1.05,7.59-.85,7.59-.85-8.73-6.15-56.43,12.08-24.23,17.29,87.81,14.24,160.07-6.41,137.29-16.69m-92.02-66.86s-39.98,9.5-14.16,12.95c10.9,1.46,32.64,1.13,52.89-.57,16.55-1.39,33.16-4.36,33.16-4.36,0,0-5.83,2.5-10.06,5.38-40.6,10.68-119.04,5.71-96.46-5.21,19.1-9.23,34.62-8.18,34.62-8.18m71.73,40.09c41.28-21.45,22.19-42.06,8.87-39.28-3.27.68-4.72,1.27-4.72,1.27,0,0,1.21-1.9,3.53-2.72,26.35-9.26,46.62,27.32-8.51,41.82,0,0,.64-.57.83-1.08"/>
    <path class="cls-3" d="m150.01,18s22.86,22.87-21.68,58.03c-35.72,28.21-8.14,44.29-.01,62.66-20.85-18.81-36.15-35.37-25.88-50.78,15.07-22.62,56.8-33.59,47.58-69.91"/>
    <path class="cls-2" d="m107.23,237.31c39.62,2.54,100.46-1.41,101.9-20.15,0,0-2.77,7.11-32.74,12.75-33.82,6.36-75.52,5.62-100.26,1.54,0,0,5.06,4.19,31.1,5.86"/>
  </g>
</svg>