<?xml version="1.0" encoding="UTF-8" standalone="no"?>
<!DOCTYPE svg PUBLIC "-//W3C//DTD SVG 1.1//EN" "http://www.w3.org/Graphics/SVG/1.1/DTD/svg11.dtd">
<!-- Created with Vectornator (http://vectornator.io/) -->
<svg height="100%" stroke-miterlimit="10" style="fill-rule:nonzero;clip-rule:evenodd;stroke-linecap:round;stroke-linejoin:round;" version="1.1" viewBox="0 0 512 512" width="100%" xml:space="preserve" xmlns="http://www.w3.org/2000/svg" xmlns:vectornator="http://vectornator.io" xmlns:xlink="http://www.w3.org/1999/xlink">
<defs/>
<g id="Ebene-1" vectornator:layerName="Ebene 1">
<path d="M2.84217e-14 95C2.84217e-14 42.5329 42.5329 0 95 0L417 0C469.467 0 512 42.5329 512 95L512 417C512 469.467 469.467 512 417 512L95 512C42.5329 512 2.84217e-14 469.467 2.84217e-14 417L2.84217e-14 95Z" fill="#28334c" fill-rule="nonzero" opacity="1" stroke="none" vectornator:layerName="Rechteck 1"/>
<g opacity="1" vectornator:layerName="jenkins-1.svg">
<path d="M396.34 248.742C396.34 327.966 333.526 392.252 255.999 392.252C178.473 392.252 115.66 327.966 115.66 248.742C115.66 169.517 178.474 105.232 255.999 105.232C333.527 105.232 396.341 169.517 396.341 248.742" fill="#d33833" fill-rule="nonzero" opacity="1" stroke="none" vectornator:layerName="path"/>
<path d="M121.431 284.28C121.431 284.28 111.246 134.66 249.209 130.358L239.589 114.286L164.778 139.412L143.388 163.972L124.714 199.736L114.074 241.385L117.244 269.228" fill="#ef3d3a" fill-rule="nonzero" opacity="1" stroke="none" vectornator:layerName="path"/>
<path d="M159.911 150.843C135.353 176.082 120.073 210.828 120.073 249.308C120.073 287.788 135.353 322.534 159.911 347.772C184.584 373.011 218.425 388.516 255.999 388.516C293.575 388.516 327.415 373.011 352.088 347.773C376.647 322.534 391.926 287.788 391.926 249.308C391.926 210.827 376.647 176.082 352.088 150.843C327.416 125.717 293.575 110.1 255.999 110.1C218.538 110.1 184.585 125.605 159.911 150.843ZM153.687 353.771C127.544 327.061 111.359 290.052 111.359 249.308C111.359 208.564 127.544 171.554 153.687 144.732C179.831 118.022 216.048 101.385 256.001 101.385C295.952 101.385 332.169 118.022 358.313 144.732C384.456 171.441 400.641 208.45 400.641 249.308C400.641 290.051 384.456 327.061 358.313 353.771C332.169 380.593 295.952 397.118 255.999 397.118C216.048 397.118 179.831 380.593 153.687 353.771Z" fill="#231f20" fill-rule="nonzero" opacity="1" stroke="none" vectornator:layerName="path"/>
<path d="M315.079 249.534L293.688 252.703L264.828 255.985L246.154 256.438L227.932 255.872L214.011 251.572L201.674 238.216L192.054 210.94L189.904 205.054L177.115 200.754L169.644 188.418L164.326 170.762L170.211 155.257L184.132 150.39L195.337 155.71L200.655 167.481L207.107 166.462L209.257 163.746L207.107 151.409L206.541 135.903L209.71 114.513L209.597 102.29L219.33 86.6718L236.42 74.3348L266.299 61.5462L299.46 66.4121L328.32 87.2375L341.676 108.628L350.276 124.133L352.427 162.613L345.976 195.774L334.205 225.201L323.115 240.933" fill="#f0d6b7" fill-rule="nonzero" opacity="1" stroke="none" vectornator:layerName="path"/>
<path d="M296.97 342.001L220.575 345.169L220.575 357.958L227.027 402.89L223.857 406.625L170.437 388.403L166.703 381.952L161.383 321.515L148.82 285.298L146.104 276.697L188.885 247.271L202.241 241.951L214.011 256.437L224.197 265.492L235.968 269.227L241.287 270.812L247.738 298.654L252.605 304.539L264.941 300.238L256.339 316.874L302.742 338.831L296.97 341.999" fill="#335061" fill-rule="nonzero" opacity="1" stroke="none" vectornator:layerName="path"/>
<path d="M170.211 155.483L184.132 150.617L195.337 155.936L200.655 167.707L207.107 166.689L208.692 160.237L205.522 147.9L208.691 118.475L205.975 102.403L215.595 91.1989L236.42 74.6747L230.534 66.6391L201.108 81.1249L188.772 90.7461L181.868 105.685L171.23 120.172L168.061 137.262L170.211 155.483" fill="#6d6b6d" fill-rule="nonzero" opacity="1" stroke="none" vectornator:layerName="path"/>
<path d="M192.168 105.232C192.168 105.232 200.203 85.4262 232.232 75.8062C264.261 66.1863 233.818 68.9021 233.818 68.9021L199.07 82.2576L185.717 95.612L179.831 106.251L192.168 105.232M176.097 151.749C176.097 151.749 164.891 114.286 207.673 108.967L206.088 102.516L176.662 109.42L168.061 137.263L170.211 155.483L176.097 151.749" fill="#dcd9d8" fill-rule="nonzero" opacity="1" stroke="none" vectornator:layerName="path"/>
<path d="M193.187 201.434L200.203 194.643C200.203 194.643 203.372 194.983 203.938 198.717C204.504 202.453 206.088 236.18 229.064 254.288C231.214 255.985 211.974 251.571 211.974 251.571L194.883 224.861M291.538 191.247C291.538 191.247 292.782 175.063 297.196 176.309C301.611 177.553 301.611 181.966 301.611 181.966C301.611 181.966 290.972 188.757 291.538 191.247M335.903 131.943C335.903 131.943 327.075 133.753 326.283 141.563C325.491 149.372 335.903 143.147 337.488 142.582M271.279 132.509C271.279 132.509 259.508 134.093 259.508 141.563C259.508 149.032 272.863 148.466 276.598 145.297M198.618 167.254C198.618 167.254 178.361 154.917 176.211 166.689C174.061 178.459 169.307 186.946 179.379 199.283L172.475 197.133L166.025 180.609L163.874 164.537L176.211 151.749L190.131 152.767L198.167 159.219L198.619 167.254M208.239 133.527C208.239 133.527 217.293 86.4448 263.244 77.3906C301.044 69.9206 320.963 78.976 328.433 87.5763C328.433 87.5763 294.706 47.512 262.677 59.7349C230.648 72.0718 207.107 94.4805 207.673 108.855C208.578 133.526 208.238 133.526 208.238 133.526M332.168 92.8961C332.168 92.8961 316.663 92.3304 316.096 106.251C316.096 106.251 316.096 108.402 317.116 110.552C317.116 110.552 329.452 96.6305 336.922 104.1" fill="#f7e4cd" fill-rule="nonzero" opacity="1" stroke="none" vectornator:layerName="path"/>
<path d="M264.375 112.023C264.375 112.023 261.659 90.7461 243.551 103.082C231.78 111.118 232.911 122.322 234.949 124.473C237.099 126.623 236.534 130.923 238.118 127.982C239.702 125.039 239.249 115.419 245.135 112.702C250.907 109.986 260.641 107.044 264.375 112.023" fill="#f7e4cd" fill-rule="nonzero" opacity="1" stroke="none" vectornator:layerName="path"/>
<path d="M214.125 256.438L163.872 278.846C163.872 278.846 184.697 361.692 174.057 387.384L166.589 384.668L166.023 353.091L152.102 293.334L146.216 276.808L198.617 241.497L214.123 256.437M219.217 302.274L226.347 310.989L226.347 343.018L217.859 343.018C217.859 343.018 216.841 320.609 216.841 317.894C216.841 315.177 217.859 305.557 217.859 305.557M219.444 347.885L195.337 348.904L202.241 353.771L219.33 356.488" fill="#49728b" fill-rule="nonzero" opacity="1" stroke="none" vectornator:layerName="path"/>
<path d="M301.725 342.566L321.529 342.001L326.396 391.119L306.138 393.836L301.723 342.565" fill="#335061" fill-rule="nonzero" opacity="1" stroke="none" vectornator:layerName="path"/>
<path d="M307.043 342.566L336.922 340.981C336.922 340.981 349.259 309.971 349.259 308.387C349.259 306.801 359.897 263.455 359.897 263.455L335.79 238.33L330.923 234.03L318.135 246.818L318.135 296.504L307.043 342.566" fill="#335061" fill-rule="nonzero" opacity="1" stroke="none" vectornator:layerName="path"/>
<path d="M320.398 338.831L301.723 342.566L304.44 357.506C311.343 360.675 323.115 352.186 323.115 352.186M320.963 245.234L358.426 273.075L359.444 260.285L331.15 234.142L320.965 245.234" fill="#49728b" fill-rule="nonzero" opacity="1" stroke="none" vectornator:layerName="path"/>
<path d="M270.579 342.457L220.463 345.166L221.354 369.725L226.914 402.91L238 447.822C238 447.822 262.559 453.133 262.559 453.133L303.193 449.996L303.763 441.941L298.88 398.597L301.732 342.457L270.579 342.457Z" fill="#ffffff" fill-rule="nonzero" opacity="1" stroke="none" vectornator:layerName="Kurve 5"/>
<path d="M302.73 338.821L294.817 341.994C294.817 341.994 292.092 397.588 300.128 437.2C300.128 437.2 284.062 447.358 260.634 449.961L305.581 448.392L310.892 445.22L304.441 357.606L302.73 338.821Z" fill="#dcd9d8" fill-rule="nonzero" opacity="1" stroke="none" vectornator:layerName="Kurve 6"/>
<path d="M327.189 386.932L348.013 381.046L387.513 378.896L393.398 360.675L382.759 329.098L370.423 327.514L353.333 332.833L337.035 340.869L328.32 339.284L321.529 342.001" fill="#ffffff" fill-rule="nonzero" opacity="1" stroke="none" vectornator:layerName="path"/>
<path d="M326.849 376.18C326.849 376.18 340.77 369.729 342.92 370.295L337.035 340.869L343.939 338.152C343.939 338.152 348.806 365.995 348.806 369.163C348.806 369.163 378.684 370.748 381.4 370.748C381.4 370.748 387.852 358.411 386.267 345.622L392.153 362.712L392.719 372.332L384.117 385.121L374.497 387.272L358.426 386.706L353.106 379.802L334.432 382.518L328.546 384.669" fill="#dcd9d8" fill-rule="nonzero" opacity="1" stroke="none" vectornator:layerName="path"/>
<path d="M305.798 338.265L294.027 308.387L281.691 290.73C281.691 290.73 284.408 283.261 288.142 283.261L300.479 283.261L312.25 287.561L311.231 307.368L305.798 338.265" fill="#ffffff" fill-rule="nonzero" opacity="1" stroke="none" vectornator:layerName="path"/>
<path d="M308.175 328.079C308.175 328.079 293.235 299.219 293.235 294.918C293.235 294.918 295.952 288.467 299.686 290.052C303.422 291.637 311.457 295.938 311.457 295.938L311.457 285.751L293.235 282.017L280.899 283.601L301.723 332.946L306.024 333.512" fill="#dcd9d8" fill-rule="nonzero" opacity="1" stroke="none" vectornator:layerName="path"/>
<path d="M242.758 257.57L227.932 255.984L214.011 251.684L214.011 256.551L220.801 264.021L242.192 273.641" fill="#ffffff" fill-rule="nonzero" opacity="1" stroke="none" vectornator:layerName="path"/>
<path d="M218.878 259.154C218.878 259.154 235.401 266.058 240.835 264.474L241.399 270.925L226.461 267.755L217.407 261.304L218.878 259.154" fill="#dcd9d8" fill-rule="nonzero" opacity="1" stroke="none" vectornator:layerName="path"/>
<path d="M327.189 285.072C318.135 284.845 309.872 283.714 302.742 281.677C303.195 278.734 302.289 275.905 303.082 273.754C305.119 272.283 308.401 272.283 311.456 271.944C308.853 270.698 305.119 270.132 302.176 270.925C302.062 268.888 301.158 267.642 300.591 266.058C305.685 264.247 317.682 252.364 324.472 256.211C327.755 258.135 329.113 268.774 329.339 274.094C329.565 278.394 328.886 282.695 327.189 285.072" fill="#d33833" fill-rule="nonzero" opacity="1" stroke="none" vectornator:layerName="path"/>
<path d="M327.189 285.072C318.135 284.845 309.872 283.714 302.742 281.677C303.195 278.734 302.289 275.905 303.082 273.754C305.119 272.283 308.401 272.283 311.456 271.944C308.853 270.698 305.119 270.132 302.176 270.925C302.062 268.888 301.158 267.642 300.591 266.058C305.685 264.247 317.682 252.364 324.472 256.211C327.755 258.135 329.113 268.774 329.339 274.094C329.565 278.394 328.886 282.695 327.189 285.072Z" fill="#000000" fill-rule="nonzero" opacity="1" stroke="#d33833" stroke-linecap="butt" stroke-linejoin="miter" stroke-width="2" vectornator:layerName="path"/>
<path d="M283.842 270.245C283.842 270.925 283.842 271.603 283.728 272.283C280.899 274.094 276.371 274.094 273.202 275.678C277.731 275.904 281.352 277.035 284.521 278.507C284.407 280.205 284.407 282.017 284.295 283.714C279.088 287.222 274.335 292.542 268.223 295.937C265.281 297.522 255.208 301.596 252.152 300.804C250.454 300.351 250.228 298.201 249.549 296.164C248.078 291.864 244.682 284.845 244.342 278.281C244.002 270.02 243.098 256.098 252.038 257.796C259.281 259.154 267.657 262.437 273.202 265.492C276.711 267.53 278.635 269.793 283.842 270.245" fill="#d33833" fill-rule="nonzero" opacity="1" stroke="none" vectornator:layerName="path"/>
<path d="M283.842 270.245C283.842 270.925 283.842 271.603 283.728 272.283C280.899 274.094 276.371 274.094 273.202 275.678C277.731 275.904 281.352 277.035 284.521 278.507C284.407 280.205 284.407 282.017 284.295 283.714C279.088 287.222 274.335 292.542 268.223 295.937C265.281 297.522 255.208 301.596 252.152 300.804C250.454 300.351 250.228 298.201 249.549 296.164C248.078 291.864 244.682 284.845 244.342 278.281C244.002 270.02 243.098 256.098 252.038 257.796C259.281 259.154 267.657 262.437 273.202 265.492C276.711 267.53 278.635 269.793 283.842 270.245Z" fill="#000000" fill-rule="nonzero" opacity="1" stroke="#d33833" stroke-linecap="butt" stroke-linejoin="miter" stroke-width="2" vectornator:layerName="path"/>
<path d="M288.935 280.092C288.142 275.564 287.236 274.321 287.576 270.358C299.686 262.323 301.836 284.167 288.934 280.092" fill="#d33833" fill-rule="nonzero" opacity="1" stroke="none" vectornator:layerName="path"/>
<path d="M288.935 280.092C288.142 275.564 287.236 274.321 287.576 270.358C299.686 262.323 301.836 284.167 288.934 280.092L288.935 280.092Z" fill="#000000" fill-rule="nonzero" opacity="1" stroke="#d33833" stroke-linecap="butt" stroke-linejoin="miter" stroke-width="2" vectornator:layerName="path"/>
<path d="M306.363 283.714C306.363 283.714 302.629 278.394 305.345 276.81C308.062 275.225 310.665 276.81 312.249 274.094C313.835 271.377 312.249 269.794 312.815 266.624C313.381 263.455 315.983 262.89 318.7 262.324C321.416 261.757 328.886 260.738 329.905 263.342L326.736 253.721L320.285 251.571L300.026 263.342L299.008 269.228L299.008 280.998M250.228 301.369C249.549 292.994 248.871 284.732 248.191 276.357C247.059 263.908 251.134 266.057 261.998 266.057C263.696 266.057 272.184 267.982 272.751 269.228C275.693 275.225 267.884 273.867 276.145 278.394C283.049 282.129 295.386 276.131 292.556 267.642C290.971 265.718 284.408 267.077 282.031 265.831L269.468 259.381C264.149 256.664 251.925 252.59 246.267 256.438C231.892 266.171 247.172 290.618 252.265 300.804" fill="#ef3d3a" fill-rule="nonzero" opacity="1" stroke="none" vectornator:layerName="path"/>
<path d="M264.375 112.023C249.775 108.628 242.532 118.135 238.118 127.98C234.157 127.076 235.741 121.643 236.761 118.927C239.362 111.797 249.889 102.176 258.489 103.535C262.111 103.988 267.091 107.383 264.375 112.023M335.338 128.546L336.016 128.546C339.299 135.337 342.128 142.582 346.316 148.693C343.487 155.257 325.265 160.916 325.491 149.372C329.452 147.674 336.243 149.032 339.752 146.769C337.715 141.223 334.885 136.469 335.338 128.547M271.732 128.774C274.901 134.546 275.918 140.544 280.332 144.846C282.371 146.769 286.218 149.146 284.295 154.577C283.842 155.823 280.559 158.653 278.635 159.219C271.732 161.256 255.547 159.671 260.979 150.956C266.751 151.183 274.448 154.691 278.749 150.503C275.466 145.297 269.581 134.885 271.732 128.774M332.735 186.946C322.322 193.624 310.664 200.981 293.462 199.283C289.84 196.114 288.369 188.983 291.991 184.344C293.801 187.513 292.669 193.398 297.876 194.303C307.609 196.001 318.926 188.304 325.943 185.703C330.243 178.346 325.605 175.743 321.643 170.989C313.608 161.369 302.969 149.372 303.308 134.999C306.59 132.622 306.816 138.62 307.269 139.639C311.456 149.372 321.983 161.934 329.565 170.31C331.489 172.347 334.545 174.384 334.885 175.743C335.903 179.59 332.282 184.343 332.735 186.947M194.883 179.93C191.601 178.006 190.81 169.857 186.961 169.63C181.415 169.291 182.434 180.27 182.434 186.72C178.7 183.326 178.02 172.686 180.737 167.254C177.568 165.669 176.209 168.952 174.398 170.083C176.775 153.673 198.505 162.5 194.884 179.93M339.299 193.85C334.432 203.131 327.528 213.317 313.268 213.657C312.928 210.714 312.702 206.074 313.268 204.263C324.246 203.131 331.036 197.586 339.299 193.85M270.939 199.849C279.994 204.603 296.744 205.168 309.193 204.829C309.872 207.546 309.872 210.94 309.872 214.223C293.915 214.901 275.126 210.94 270.939 199.849M269.242 208.677C275.579 224.521 297.196 222.711 315.418 222.258C314.626 224.296 312.928 226.785 310.665 227.577C304.779 229.954 288.708 231.765 280.559 227.464C275.466 224.748 272.071 218.523 269.242 214.901C267.996 213.204 261.206 208.79 269.242 208.677" fill="#231f20" fill-rule="nonzero" opacity="1" stroke="none" vectornator:layerName="path"/>
<path d="M331.942 295.937C324.585 308.612 317.456 321.628 308.742 332.719C312.362 321.968 313.946 303.859 314.513 290.052C322.209 286.43 328.773 290.844 331.942 295.938" fill="#81b0c4" fill-rule="nonzero" opacity="1" stroke="none" vectornator:layerName="path"/>
<path d="M371.667 341.435C363.406 343.132 357.633 351.168 349.485 350.602C354.012 344.377 361.707 341.661 371.667 341.435M375.289 354.336C368.499 355.016 360.576 356.148 353.786 355.582C357.067 350.602 369.517 352.412 375.289 354.336M377.666 365.542C370.083 365.655 360.689 365.542 353.446 364.975C357.746 360.335 372.799 363.278 377.666 365.542" fill="#231f20" fill-rule="nonzero" opacity="1" stroke="none" vectornator:layerName="path"/>
<path d="M315.704 396.031C313.476 396.338 310.648 397.519 308.611 397.349C308.271 405.838 309.52 419.425 309.859 428.253C315.518 428.253 317.896 427.008 322.085 425.651C322.537 415.24 318.796 405.609 317.665 396.102C317.099 395.932 316.447 395.928 315.704 396.031Z" fill="#dcd9d8" fill-rule="nonzero" opacity="1" stroke="none" vectornator:layerName="Kurve 7"/>
<path d="M305.459 255.759C301.611 258.248 298.442 261.304 294.706 264.021C286.558 264.474 282.144 263.455 276.259 258.815C276.372 258.475 276.938 258.588 276.938 258.135C285.652 261.984 296.744 256.551 305.459 255.758" fill="#f0d6b7" fill-rule="nonzero" opacity="1" stroke="none" vectornator:layerName="path"/>
<path d="M259.961 314.951C262.338 304.651 271.732 299.219 280.219 293.561C288.934 304.652 294.254 318.912 300.139 332.719C286.218 328.532 272.071 321.855 259.961 314.951" fill="#81b0c4" fill-rule="nonzero" opacity="1" stroke="none" vectornator:layerName="path"/>
<path d="M267.05 56.0191C255.832 56.2246 244.879 58.0844 235.754 61.437C228.964 63.9281 222.398 66.1979 216.399 69.7065C200.44 79.1007 183.44 85.3102 178.687 104.21C167.03 109.416 163.543 124.356 164.109 141.672C164.222 145.067 166.142 149.268 165.463 152.437C165.123 154.021 162.958 156.159 162.505 157.178C156.845 170.419 161.363 187.984 167.816 197.492C171.663 203.15 178.255 208.218 186.743 209.575C187.082 214.669 188.322 219.09 190.7 224.296C192.171 227.579 197.692 233.477 195.654 237.663C194.636 239.814 185.594 244.336 182.537 246.146C172.351 252.257 164.984 256.002 155.59 262.792C149.591 267.206 140.11 267.762 141.582 277.834C142.6 284.625 146.447 293.107 148.71 299.898C151.088 307.254 154.592 313.945 156.517 321.641C160.817 338.618 161.843 354.692 162.861 371.329C163.314 377.78 162.625 384.674 164.323 388.296C166.134 392.03 172.586 393.275 177.226 395.425C190.694 401.762 205.052 411.285 222.708 409.362C226.896 423.509 230.874 438.545 235.968 450.994C254.076 457.559 282.689 456.537 301.589 454.273C307.361 453.594 313.385 450.77 314.742 445.79C314.289 442.734 313.838 439.682 314.065 436.059C319.949 434.928 327.968 433.926 329.214 427.362C331.024 418.308 323.444 405.175 325.934 395.104C329.443 393.971 333.059 393.157 332.493 387.725C338.153 384.67 345.068 384.113 352.311 384.339C353.33 386.151 354.559 387.847 355.804 388.866C365.99 390.903 375.867 391.013 384.355 388.296C393.975 385.241 398.482 365.533 396.332 356.252C394.86 349.574 391.369 338.856 388.312 332.405C380.276 315.089 356.059 325.954 343.044 332.405C349.269 315.768 354.683 298.676 360.117 280.115C361.814 274.569 365.116 266.639 364.323 260.867C363.645 255.434 355.157 249.769 350.743 245.469C348.253 243.092 336.701 234.387 336.022 231.104C335.456 227.936 340.776 220.789 342.473 217.167C344.963 211.96 346.646 205.748 347.891 201.448C356.945 169.531 357.983 125.721 344.968 99.5765C340.101 89.6166 326.409 75.944 317.807 69.4926C305.146 59.9435 285.746 55.6765 267.05 56.0191ZM266.551 64.9301C268.592 64.8383 270.653 64.8569 272.753 64.9658C286.749 65.692 301.635 70.6083 312.033 76.4789C321.654 81.9117 328.668 92.2166 335.344 100.931C325.951 98.1011 317.904 102.853 319.376 110.662C327.298 103.419 340.759 110.688 344.719 118.611C348.567 126.193 348.573 137.484 349.139 148.801C350.497 176.303 344.054 204.627 330.247 224.546C326.512 229.753 323.441 235.608 318.235 239.231C305.672 248.058 286.662 255.998 270.365 250.566C248.861 243.322 239.119 228.944 227.235 212.533C227.575 221.588 233.913 228.941 240.138 235.845C245.571 241.843 252.15 248.628 259.279 251.457C253.395 250.099 244.339 249.666 241.849 254.986C228.042 254.08 215.264 252.723 208.7 243.33C203.607 235.973 198.388 223.401 196.011 213.781C195.445 211.744 194.643 207.571 194.87 206.438C195.663 202.251 203.159 200.419 200.217 194.533C194.785 194.533 193.505 199.534 188.525 199.987C175.624 201.231 166.573 182.883 167.139 171.792C167.591 162.398 175.629 153.331 186.493 154.576C194.19 155.481 196.82 163.857 198.292 171.329C202.705 171.554 209.045 171.237 211.195 167.728C210.856 159.24 206.977 152.548 207.203 144.738C207.77 130.138 215.703 117.014 209.591 102.642C216.156 87.8138 235.394 76.0523 249.655 68.9223C254.621 66.4397 260.425 65.2058 266.551 64.9301ZM228.839 72.2016C229.745 71.9758 230.548 72.5495 231.227 73.3422C231.113 75.8322 228.611 75.8287 226.914 76.6215C224.31 79.7902 220.46 81.3468 217.29 84.8553C214.009 88.4768 210.255 98.2311 205.955 99.3626C203.805 99.9284 201.321 99.0002 199.397 99.1131C194.417 99.453 190.909 101.957 185.816 102.749C192.38 88.3759 212.882 76.7287 228.839 72.2016ZM204.743 104.781C210.403 119.153 200.657 136.135 204.28 151.867C205.412 156.734 209.251 164.193 203.139 164.307C203.254 150.725 186.379 142.014 173.59 150.049C172.798 139.637 171.35 125.173 178.367 117.363C184.818 110.119 193.766 105.685 204.743 104.781ZM329.784 239.481C336.122 244.575 339.862 249.197 345.859 254.629C349.142 257.459 355.482 260.962 356.161 265.715C356.613 268.318 354.908 274.784 354.343 277.727C351.739 290.627 345.85 307.846 340.192 321.427C338.155 326.407 336.243 332.599 333.526 333.617C326.171 336.56 317.118 333.292 310.892 337.253C319.382 322.653 328.543 308.843 336.806 294.016C335.56 291.075 332.507 289.848 331.602 286.567C337.487 275.588 334.773 241.619 319.946 248.748C321.983 245.691 327.408 243.216 329.784 239.481ZM199.504 247.287C200.862 246.721 210.722 259.492 212.193 260.511C220.116 266.169 230.067 270.586 239.461 275.339C240.027 279.527 241.403 285.091 243.667 292.448C246.27 300.485 248.314 312.021 259.065 306.136C258.047 310.777 252.02 313.606 253.719 319.039C254.737 322.434 265.959 326.626 269.581 328.663C276.145 332.398 282.132 334.426 287.224 336.576C264.137 337.254 242.525 339.051 221.247 341.994C218.644 338.032 219.655 332.043 219.429 325.704C219.202 318.914 222.039 303.405 219.322 302.5C216.266 301.481 215.693 307.594 215.579 308.951C215.014 316.196 218.97 331.468 215.009 340.069C210.708 338.823 208.568 335.552 204.494 334.081C202.908 339.061 207.799 339.287 207.345 342.457C206.667 346.644 198.72 343.148 198.72 349.372C203.925 350.165 211.851 347.673 217.397 350.049C218.869 367.026 221.139 383.205 223.742 401.199C201.672 400.067 187.423 389.106 171.238 381.523C170.219 345.646 164.426 308.386 150.279 277.941C165.106 266.398 181.735 254.305 199.504 247.287ZM321.693 255.307C322.68 255.354 323.624 255.596 324.473 256.091C327.754 258.015 329.095 268.777 329.32 273.984C329.546 278.397 328.879 282.7 327.182 284.963C318.128 284.624 309.86 283.614 302.73 281.577C303.295 278.634 302.406 275.814 303.086 273.664C305.123 272.192 308.407 272.186 311.463 271.846C308.86 270.601 305.216 270.02 302.159 270.812C302.047 268.775 301.157 267.549 300.591 265.964C305.047 264.379 314.778 254.974 321.693 255.307ZM305.581 255.77C301.733 258.261 298.439 261.437 294.817 264.04C286.781 264.491 282.351 263.476 276.353 258.835C276.463 258.504 277.002 258.571 277.03 258.158L277.066 258.158C285.663 261.979 296.764 256.562 305.581 255.77ZM219.999 255.984C224.526 259.153 233.247 258.381 239.924 259.513C240.264 261.664 238.57 264.483 238.57 267.426C233.023 267.086 215.359 260.737 219.999 255.984ZM252.043 257.909C259.288 259.266 267.671 262.551 273.216 265.608C276.725 267.532 278.631 269.818 283.838 270.384C283.724 271.064 283.731 271.736 283.731 272.416C280.903 274.226 276.273 274.217 273.216 275.802C277.857 276.028 281.347 277.033 284.515 278.618C284.403 280.315 284.415 282.125 284.302 283.822C279.095 287.445 274.337 292.767 268.226 296.048C265.396 297.634 255.206 301.611 252.15 300.931C250.452 300.479 250.227 298.335 249.548 296.298C248.077 291.883 244.684 284.967 244.344 278.404C244.004 270.142 243.103 256.21 252.043 257.909ZM291.644 268.638C299.992 267.38 300.225 283.68 288.935 280.115C288.144 275.588 287.241 274.346 287.581 270.384C289.095 269.38 290.452 268.817 291.644 268.638ZM298.096 284.286C301.944 284.625 304.996 289.929 310.429 289.703C309.523 303.851 309.97 318.001 306.009 331.015C298.652 317.548 294.236 301.247 284.729 289.703C285.748 288.572 286.669 287.449 287.688 286.317C291.989 288.129 294.813 283.945 298.096 284.286ZM320.017 288.741C325.259 288.694 329.546 292.122 331.922 295.941C324.567 308.617 317.468 321.522 308.754 332.726C312.375 321.975 313.927 303.867 314.492 290.06C316.416 289.155 318.27 288.757 320.017 288.741ZM280.096 293.553C288.811 304.645 294.135 318.919 300.021 332.726C286.214 328.539 272.072 321.88 259.85 314.975C262.34 304.677 271.607 299.211 280.096 293.553ZM372.272 330.231C376.113 330.337 379.891 333.437 381.504 335.899C384.561 340.427 387.298 353.761 388.882 360.778C391.259 371.304 386.03 381.518 377.654 383.555C371.543 385.027 362.267 385.372 358.192 383.448C363.059 380.732 370.319 380.733 375.979 378.921C367.829 375.414 355.95 378.668 346.216 378.102C345.084 366.106 344.161 353.212 341.333 343.705C346.991 337.706 360.684 336.245 368.494 331.265C369.71 330.501 370.992 330.196 372.272 330.231ZM330.318 343.954C331.733 343.883 333.167 343.885 334.525 344.168C339.844 353.222 340.988 368.371 340.762 379.349C337.48 379.915 335.349 381.85 331.388 381.737C330.369 369.174 327.535 356.052 326.291 344.168C327.536 344.168 328.904 344.025 330.318 343.954ZM281.521 344.132C288.271 344.399 294.734 345.09 300.591 346.307C302.741 360.228 301.928 373.924 303.514 387.619C305.551 405.841 304.104 426.569 307.613 443.545C288.259 449.543 261.982 448.974 240.138 442.297C230.292 412.077 224.982 383.545 221.247 349.479C238.394 346.253 261.271 343.332 281.521 344.132ZM317.558 345.166C321.066 357.616 320.85 373.584 322.548 387.619C317.341 388.864 313.591 389.429 307.934 390.221C306.801 375.621 305.925 361.121 306.152 346.521C310.112 345.163 313.596 345.28 317.558 345.166ZM315.704 396.102C316.447 396.013 317.099 396.011 317.665 396.209C318.796 405.716 322.537 415.345 322.085 425.758C317.896 427.116 315.518 428.36 309.859 428.36C309.406 419.42 308.271 405.945 308.611 397.456C310.648 397.541 313.476 396.367 315.704 396.102Z" fill="#231f20" fill-rule="nonzero" opacity="1" stroke="none" vectornator:layerName="Kurve 8"/>
<path d="M256.453 203.81C257.132 202.904 260.979 201.434 266.412 204.037C266.412 204.037 259.961 205.056 260.527 215.808L257.811 215.241C257.925 215.355 255.095 205.621 256.453 203.81" fill="#f7e4cd" fill-rule="nonzero" opacity="1" stroke="none" vectornator:layerName="path"/>
<path d="M303.308 295.711C303.308 297.295 301.95 298.654 300.365 298.654C298.781 298.654 297.422 297.295 297.422 295.711C297.422 294.125 298.781 292.768 300.365 292.768C302.063 292.768 303.308 294.125 303.308 295.711M306.251 309.405C306.251 310.991 304.893 312.348 303.308 312.348C301.723 312.348 300.365 310.991 300.365 309.405C300.365 307.82 301.723 306.462 303.308 306.462C305.006 306.462 306.251 307.708 306.251 309.405" fill="#1d1919" fill-rule="nonzero" opacity="1" stroke="none" vectornator:layerName="path"/>
</g>
</g>
</svg>
