<?xml version="1.0" encoding="UTF-8" standalone="no"?>
<!DOCTYPE svg PUBLIC "-//W3C//DTD SVG 1.1//EN" "http://www.w3.org/Graphics/SVG/1.1/DTD/svg11.dtd">
<!-- Created with Vectornator (http://vectornator.io/) -->
<svg height="100%" stroke-miterlimit="10" style="fill-rule:nonzero;clip-rule:evenodd;stroke-linecap:round;stroke-linejoin:round;" version="1.1" viewBox="0 0 512 512" width="100%" xml:space="preserve" xmlns="http://www.w3.org/2000/svg" xmlns:vectornator="http://vectornator.io" xmlns:xlink="http://www.w3.org/1999/xlink">
<defs/>
<g id="Ebene-1" vectornator:layerName="Ebene 1">
<path d="M2.84217e-14 95C2.84217e-14 42.5329 42.5329 0 95 0L417 0C469.467 0 512 42.5329 512 95L512 417C512 469.467 469.467 512 417 512L95 512C42.5329 512 2.84217e-14 469.467 2.84217e-14 417L2.84217e-14 95Z" fill="#99425b" fill-rule="nonzero" opacity="1" stroke="none" vectornator:layerName="Rechteck 1"/>
<g opacity="1" vectornator:layerName="jest-2.svg">
<path d="M414.417 252.943C414.417 232.381 397.747 215.711 377.185 215.711C375.862 215.711 374.558 215.782 373.271 215.918L424.409 65.0932L207.091 65.0932L258.158 215.787C257.404 215.739 256.65 215.715 255.895 215.713C235.333 215.713 218.663 232.38 218.663 252.944C218.663 269.565 229.556 283.637 244.589 288.424C236.65 302.177 226.658 314.566 215.314 325.269C199.889 339.82 182.235 350.855 163.142 357.653C140.409 345.975 129.675 320.004 139.36 297.232C140.454 294.66 141.571 292.054 142.638 289.459C159.107 285.615 171.38 270.852 171.38 253.211C171.38 232.648 154.71 215.979 134.147 215.979C113.584 215.979 96.9159 232.648 96.9159 253.211C96.9159 265.82 103.189 276.958 112.779 283.693C103.564 304.675 90.0181 326.634 85.7974 352.083C80.7392 382.583 85.7804 414.959 112.16 433.243C173.596 475.823 240.283 406.846 310.597 389.506C336.079 383.224 364.052 384.235 386.503 371.233C403.362 361.469 414.478 345.285 417.631 327.117C420.749 309.169 416.206 291.298 405.757 276.808C411.363 270.12 414.429 261.669 414.417 252.943" fill="#99425b" fill-rule="nonzero" opacity="1" stroke="none" vectornator:layerName="path"/>
<path d="M408.673 325.561C405.935 341.335 396.192 355.112 381.946 363.365C368.665 371.056 352.75 373.352 335.899 375.781C326.873 377.083 317.538 378.43 308.42 380.678C284.309 386.624 260.956 398.224 238.373 409.441C193.176 431.891 154.145 451.276 117.341 425.768C90.3823 407.085 91.6267 372.515 94.7673 353.572C97.6784 336.02 105.548 319.856 113.158 304.225C114.454 301.569 115.74 298.907 117.016 296.24C120.851 297.774 124.876 298.783 128.981 299.242C121.235 324.808 133.418 352.606 158.986 365.742L162.487 367.54L166.192 366.221C186.406 359.021 205.033 347.47 221.554 331.882C232.233 321.806 241.416 310.66 248.963 298.749C251.257 299.095 253.574 299.269 255.895 299.269C279.363 299.269 298.797 281.725 301.804 259.066C311.41 258.714 321.613 258.711 331.275 259.063C334.279 281.725 353.716 299.27 377.184 299.27C386.997 299.27 396.099 296.195 403.598 290.971C408.803 301.627 410.746 313.617 408.673 325.561ZM134.149 225.072C149.665 225.072 162.287 237.696 162.287 253.212C162.287 258.785 160.652 263.982 157.844 268.359C153.167 275.653 145.216 280.653 136.082 281.277C135.443 281.319 134.798 281.351 134.149 281.351C130.691 281.351 127.379 280.72 124.316 279.575C118.148 277.255 112.982 272.856 109.711 267.135C107.282 262.898 106.005 258.097 106.009 253.212C106.009 237.696 118.633 225.072 134.149 225.072ZM227.758 252.944C227.758 238.847 238.179 227.142 251.719 225.118C253.083 224.912 254.477 224.806 255.896 224.806C264.917 224.806 272.949 229.079 278.099 235.701C279.389 237.352 280.491 239.141 281.384 241.037C283.133 244.762 284.038 248.828 284.034 252.944C284.034 255.194 283.762 257.38 283.262 259.478C280.52 270.958 270.731 279.733 258.735 280.941C257.802 281.035 256.856 281.083 255.896 281.083C250.484 281.087 245.186 279.521 240.646 276.574C232.899 271.556 227.758 262.841 227.758 252.944ZM345.199 219.483C339.076 225.328 334.669 232.737 332.457 240.908C321.851 240.517 311.234 240.517 300.628 240.908C298.247 232.075 293.312 224.283 286.672 218.365L315.79 159.489L345.199 219.483ZM219.774 74.1892L411.724 74.1892L366.387 207.901C364.437 208.368 362.519 208.962 360.646 209.68L315.86 118.319L270.947 209.134C268.989 208.462 266.988 207.923 264.958 207.52L219.774 74.1892ZM405.322 252.946C405.322 255.766 404.901 258.49 404.126 261.062C402.287 267.118 398.467 272.381 393.28 276.008C388.565 279.316 382.944 281.089 377.184 281.084C364.192 281.084 353.232 272.231 350.009 260.24C349.369 257.862 349.045 255.409 349.046 252.946C349.046 249.099 349.822 245.431 351.225 242.09C351.949 240.38 352.841 238.746 353.887 237.211C358.951 229.737 367.496 224.807 377.184 224.807C378.073 224.807 378.949 224.853 379.817 224.935C394.103 226.266 405.324 238.317 405.324 252.946L405.322 252.946ZM423.51 252.946C423.51 230.329 407.214 211.458 385.751 207.428L437.093 56L194.408 56L245.829 207.734C225.112 212.344 209.571 230.858 209.571 252.944C209.571 269.529 218.336 284.096 231.471 292.282C225.153 301.695 217.661 310.553 209.075 318.654C195.458 331.499 180.289 341.241 163.935 347.652C147.463 337.304 140.5 317.79 147.73 300.791L148.297 299.459L149.36 296.959C167.453 290.648 180.473 273.428 180.473 253.212C180.473 227.667 159.692 206.886 134.149 206.886C108.605 206.886 87.8213 227.667 87.8213 253.212C87.8213 266.105 93.1219 277.781 101.651 286.188C100.06 289.558 98.4454 292.917 96.8067 296.264C89.0075 312.281 80.1695 330.435 76.8262 350.595C70.1877 390.633 80.8965 422.639 106.981 440.716C122.809 451.686 138.884 456 155.059 456C185.516 456 216.327 440.698 246.463 425.729C268.165 414.95 290.608 403.804 312.775 398.336C321.024 396.302 329.51 395.078 338.496 393.782C356.315 391.211 374.739 388.554 391.06 379.102C409.98 368.144 422.929 349.762 426.591 328.673C429.735 310.567 425.952 292.434 416.726 277.053C421.171 269.798 423.52 261.453 423.51 252.944L423.51 252.946Z" fill="#ffffff" fill-rule="nonzero" opacity="1" stroke="none" vectornator:layerName="path"/>
</g>
</g>
</svg>
