<?xml version="1.0" encoding="UTF-8"?><svg id="Ebene_1" xmlns="http://www.w3.org/2000/svg" viewBox="0 0 128 128"><defs><style>.cls-1{fill:#fff;}.cls-2{fill:#c63d14;}</style></defs><rect class="cls-2" width="128" height="128" rx="25" ry="25"/><path class="cls-2" d="m103.6,63.24c0-5.14-4.17-9.31-9.31-9.31-.33,0-.66.02-.98.05l12.78-37.71h-54.33l12.77,37.67c-.19-.01-.38-.02-.57-.02-5.14,0-9.31,4.17-9.31,9.31,0,4.16,2.72,7.67,6.48,8.87-1.99,3.44-4.48,6.54-7.32,9.21-3.86,3.64-8.27,6.4-13.04,8.1-5.68-2.92-8.37-9.41-5.95-15.11.27-.64.55-1.29.82-1.94,4.12-.96,7.19-4.65,7.19-9.06,0-5.14-4.17-9.31-9.31-9.31s-9.31,4.17-9.31,9.31c0,3.15,1.57,5.94,3.97,7.62-2.3,5.25-5.69,10.74-6.75,17.1-1.26,7.63,0,15.72,6.59,20.29,15.36,10.64,32.03-6.6,49.61-10.93,6.37-1.57,13.36-1.32,18.98-4.57,4.22-2.44,6.99-6.49,7.78-11.03.78-4.49-.36-8.95-2.97-12.58,1.35-1.62,2.16-3.7,2.16-5.97h0Zm-30.32.03s0-.02,0-.03c0-3.38-1.8-6.33-4.49-7.96l10.16-20.55,10.18,20.76c-2.5,1.67-4.15,4.51-4.15,7.75,0,.07,0,.13,0,.2l-11.71-.17h0Z"/><path class="cls-1" d="m105.88,63.24c0-5.65-4.07-10.37-9.44-11.38l12.84-37.86h-60.67l12.85,37.93c-5.18,1.15-9.06,5.78-9.06,11.3,0,4.15,2.19,7.79,5.48,9.83-1.58,2.35-3.45,4.57-5.6,6.59-3.4,3.21-7.2,5.65-11.29,7.25-4.12-2.59-5.86-7.47-4.05-11.72l.14-.33c.09-.21.18-.42.27-.63,4.52-1.58,7.78-5.88,7.78-10.94,0-6.39-5.2-11.58-11.58-11.58s-11.58,5.2-11.58,11.58c0,3.22,1.32,6.14,3.46,8.24-.39.82-.79,1.66-1.21,2.52-1.95,4-4.16,8.54-4.99,13.58-1.66,10.01,1.02,18.01,7.54,22.53,3.96,2.74,7.98,3.82,12.02,3.82,7.61,0,15.32-3.83,22.85-7.57,5.43-2.69,11.04-5.48,16.58-6.85,2.06-.51,4.18-.81,6.43-1.14,4.45-.64,9.06-1.31,13.14-3.67,4.73-2.74,7.97-7.33,8.88-12.61.79-4.53-.16-9.06-2.47-12.9,1.08-1.76,1.7-3.82,1.7-6.03h0Zm-4.55,0c0,3.88-3.16,7.04-7.04,7.04s-7.03-3.16-7.03-7.04,3.16-7.03,7.03-7.03,7.04,3.16,7.04,7.03h0Zm1.6-44.69l-11.33,33.43c-.49.12-.97.27-1.44.44l-11.2-22.84-11.23,22.71c-.49-.17-.98-.3-1.5-.41l-11.3-33.33h47.99Zm-38.96,37.65c3.88,0,7.03,3.16,7.03,7.03s-3.16,7.04-7.03,7.04-7.03-3.16-7.03-7.04,3.16-7.03,7.03-7.03h0Zm-30.44.07c3.88,0,7.04,3.16,7.04,7.03s-3.16,7.04-7.04,7.04-7.03-3.16-7.03-7.04,3.16-7.03,7.03-7.03h0Zm68.63,25.12c-.68,3.94-3.12,7.39-6.68,9.45-3.32,1.92-7.3,2.5-11.51,3.1-2.26.33-4.59.66-6.87,1.22-6.03,1.49-11.87,4.39-17.51,7.19-11.3,5.61-21.06,10.46-30.26,4.08-6.74-4.67-6.43-13.31-5.64-18.05.73-4.39,2.69-8.43,4.6-12.34.33-.68.65-1.34.96-2,.94.38,1.95.63,2.99.75-1.94,6.39,1.11,13.34,7.5,16.63l.87.45.93-.33c5.05-1.8,9.71-4.69,13.84-8.58,2.67-2.52,4.96-5.31,6.85-8.28.57.09,1.14.13,1.73.13,6.39,0,11.58-5.2,11.58-11.58,0-3.43-1.5-6.52-3.89-8.65l7.28-14.72,7.35,15c-2.21,2.11-3.58,5.08-3.58,8.37,0,6.39,5.2,11.58,11.58,11.58,2.45,0,4.73-.77,6.6-2.08,1.3,2.66,1.79,5.66,1.27,8.65h0Z"/></svg>