<?xml version="1.0" encoding="UTF-8"?><svg id="Ebene_2" xmlns="http://www.w3.org/2000/svg" viewBox="0 0 128 128"><defs><style>.cls-1{fill:#1266a9;}.cls-2{fill:#fff;}</style></defs><rect class="cls-1" x="0" y="0" width="128" height="128" rx="25" ry="25" transform="translate(128 0) rotate(90)"/><path class="cls-2" d="m19.38,82.01c.1.22.2.42.32.62.05.12.13.24.2.35.11.22.23.43.34.63l.65,1.1c.12.2.24.4.38.6.23.39.5.78.74,1.17.11.16.21.32.33.49.46.71.88,1.3,1.32,1.88.32.43.63.85.98,1.27.11.16.24.32.35.48l.92,1.12c.11.13.23.28.35.41.41.49.84.97,1.28,1.45,0,0,.01.02.02.03.54.68,1.12,1.28,1.75,1.81l.02.02c.33.34.67.68,1.02,1.01l.42.4c.46.43.93.86,1.41,1.28,0,0,.01,0,.02.01l.24.21c.43.37.85.74,1.29,1.08l.52.44c.35.28.72.55,1.08.83l.57.43c.39.29.8.58,1.2.86.15.1.29.21.44.3l.12.1,1.17.77.5.33c.61.39,1.22.76,1.83,1.13.18.09.35.18.51.28.45.26.92.52,1.37.76.25.14.51.26.77.39.31.18.64.35.97.52.09.03.17.06.24.1l.02-.02c.14.06.27.13.4.2.5.25,1.02.49,1.56.72.1.04.21.08.32.14.6.26,1.2.51,1.82.75.14.04.29.11.44.17.56.21,1.14.43,1.72.63l.21.07c.64.22,1.27.43,1.92.62.15.04.3.1.46.14.66.2,1.3.44,1.98.56,42.8,7.76,55.24-25.61,55.24-25.61-10.45,13.54-29,17.11-46.56,13.14-.65-.15-1.3-.36-1.96-.55-.93-.26-1.85-.55-2.76-.87l.4.12-.26-.1c-.57-.19-1.11-.4-1.67-.62-.14-.06-.27-.11-.41-.16h-.05c-.61-.26-1.21-.51-1.8-.77-.13-.04-.24-.1-.37-.15-.7-.31-1.4-.62-2.08-.96l.58.25c-.15-.07-.3-.14-.44-.22-.39-.18-.78-.39-1.17-.59-.29-.14-.58-.29-.86-.44l.08.04c-.47-.25-.94-.52-1.42-.78-.14-.1-.3-.18-.47-.28-.71-.41-1.4-.84-2.09-1.28l.26.16c-.18-.11-.35-.22-.52-.35l.02.02c-.45-.28-.89-.56-1.32-.87-.14-.09-.27-.19-.42-.29-.45-.31-.89-.62-1.33-.95l.1.07c-.18-.14-.36-.28-.55-.41-.37-.29-.74-.56-1.1-.86l-.49-.39c-.52-.42-1.04-.85-1.54-1.29h0s-1.45-1.32-1.45-1.32l-.42-.39c-.34-.35-.69-.68-1.04-1.02l-.4-.42c-.43-.43-.85-.86-1.26-1.31l-.03-.03-.07-.06c-.44-.48-.88-.97-1.3-1.47-.11-.13-.22-.27-.33-.4l-.95-1.15c-.43-.54-.84-1.08-1.25-1.63l-.17-.23c-9.74-13.23-13.27-31.5-5.47-46.48l-6.88,8.7c-8.85,12.66-7.76,29.13-.99,42.58.15.33.33.64.49.95h0Z"/><path d="m49.21,63.77l-.05-.07-.04-.05.08.12Z"/><path class="cls-2" d="m53.86,69.24l.38.38c.48.46.96.9,1.46,1.35l.06.05c.5.44,1.06.9,1.64,1.35l.09.07c.14.1.26.21.4.3.58.45,1.17.88,1.78,1.31l.06.04c.26.19.53.36.83.54.12.07.25.18.38.25.44.28.88.55,1.32.82.07.03.13.07.2.1.38.23.78.45,1.18.65.14.08.27.15.41.23.28.14.55.28.82.43l.13.06c.56.28,1.14.53,1.7.79.14.05.26.1.38.16.46.2.93.39,1.4.57.21.07.4.15.6.22.43.16.87.3,1.29.45l.58.19c.61.19,1.23.43,1.87.53,33.05,5.44,40.7-19.88,40.7-19.88-6.89,9.86-20.22,14.56-34.42,10.89-.71-.18-1.41-.38-2.11-.6l.24.07c-.2-.05-.38-.12-.57-.18-.43-.15-.88-.3-1.3-.45l-.6-.23c-.47-.19-.94-.36-1.4-.56-.14-.06-.27-.1-.38-.17-.58-.26-1.17-.52-1.74-.8l-.86-.45-.5-.25c-.38-.2-.74-.41-1.1-.62-.09-.04-.18-.09-.27-.15h.01c-.44-.27-.9-.54-1.33-.82-.14-.08-.27-.18-.4-.26l-.87-.56c-.6-.42-1.19-.86-1.78-1.3-.13-.12-.26-.22-.39-.33-6.25-4.89-11.17-11.57-13.51-19.13-2.46-7.86-1.92-16.68,2.33-23.83l-5.23,7.37c-6.42,9.17-6.06,21.43-1.06,31.13.91,1.79,1.84,3.3,2.86,4.75.95,1.36,2,2.95,3.27,4.04.45.51.93,1,1.44,1.5h0Z"/><path d="m23.68,88.87l-.02-.03-.03-.04.05.06Zm17.33-3.1l.04.03h0s-.05-.03-.05-.03Z"/><path class="cls-2" d="m70.47,19.85c-3.79,5.53-4.15,12.4-1.54,18.49,2.77,6.48,8.43,11.56,15.03,13.97.27.1.53.19.81.29l.37.11c.38.12.77.26,1.17.35,18.25,3.5,23.2-9.33,24.53-11.21-4.35,6.21-11.63,7.7-20.58,5.54-.78-.19-1.54-.43-2.29-.71l.14.05c-.93-.32-1.84-.7-2.73-1.13l.16.07c-1.71-.83-3.18-1.73-4.54-2.77-7.99-6.04-12.93-17.55-7.72-26.92l-2.8,3.86Z"/></svg>