<?xml version="1.0" encoding="UTF-8"?><svg id="a" xmlns="http://www.w3.org/2000/svg" viewBox="0 0 128 128"><defs><style>.b{fill:#fff;}.c{fill:#326de6;}</style></defs><rect class="c" x="0" y="0" width="128" height="128" rx="25" ry="25" transform="translate(128 0) rotate(90)"/><path class="c" d="m46.83,108.78c-2.21,0-4.3-.98-5.71-2.76l-21.5-26.72c-1.41-1.78-1.97-4.05-1.41-6.27l7.68-33.35c.49-2.21,1.97-3.99,3.99-4.98l31.08-14.87c.98-.49,2.09-.74,3.19-.74s2.21.25,3.19.74l31.08,14.8c2.03.98,3.5,2.76,3.99,4.98l7.68,33.35c.49,2.21,0,4.48-1.41,6.27l-21.5,26.72c-1.41,1.72-3.5,2.76-5.71,2.76l-34.64.06h0Z"/><path class="b" d="m64.09,20.63c.86,0,1.72.18,2.52.55l31.08,14.8c1.6.8,2.83,2.27,3.19,3.99l7.68,33.35c.43,1.78,0,3.62-1.17,5.04l-21.5,26.72c-1.11,1.41-2.83,2.21-4.61,2.21h-34.46c-1.78,0-3.5-.8-4.61-2.21l-21.5-26.72c-1.11-1.41-1.54-3.26-1.17-5.04l7.68-33.35c.43-1.78,1.6-3.26,3.19-3.99l31.08-14.87c.8-.31,1.72-.49,2.58-.49h0Zm0-2.89h0c-1.29,0-2.58.31-3.81.86l-31.08,14.87c-2.46,1.17-4.18,3.32-4.79,5.96l-7.68,33.35c-.61,2.64,0,5.34,1.72,7.49l21.5,26.72c1.66,2.09,4.18,3.26,6.82,3.26h34.46c2.64,0,5.16-1.17,6.82-3.26l21.5-26.72c1.72-2.09,2.33-4.85,1.72-7.49l-7.68-33.35c-.61-2.64-2.33-4.79-4.79-5.96l-30.96-14.87c-1.17-.55-2.46-.86-3.75-.86h0Z"/><path class="b" d="m95.24,70.7h0q-.06,0,0,0h-.06c-.06,0-.12,0-.12-.06-.12,0-.25-.06-.37-.06-.43-.06-.8-.12-1.17-.12-.18,0-.37,0-.61-.06h-.06c-1.29-.12-2.33-.25-3.32-.55-.43-.18-.55-.43-.68-.68,0-.06-.06-.06-.06-.12h0l-.8-.25c.37-2.83.25-5.77-.43-8.66s-1.84-5.59-3.44-8.05l.61-.55v-.12c0-.31.06-.61.31-.92.74-.68,1.66-1.23,2.76-1.9h0c.18-.12.37-.18.55-.31.37-.18.68-.37,1.04-.61.06-.06.18-.12.31-.25.06-.06.12-.06.12-.12h0c.86-.74,1.04-1.97.43-2.76-.31-.43-.86-.68-1.41-.68-.49,0-.92.18-1.35.49h0l-.12.12c-.12.06-.18.18-.31.25-.31.31-.55.55-.8.86-.12.12-.25.31-.43.43h0c-.86.92-1.66,1.66-2.46,2.21-.18.12-.37.18-.55.18-.12,0-.25,0-.37-.06h-.12l-.74.49c-.8-.86-1.66-1.6-2.52-2.33-3.69-2.89-8.17-4.67-12.84-5.1l-.06-.8-.12-.12c-.18-.18-.43-.37-.49-.8-.06-.98.06-2.09.18-3.32v-.06c0-.18.06-.43.12-.61.06-.37.12-.74.18-1.17v-.55h0c0-1.11-.86-2.03-1.9-2.03-.49,0-.98.25-1.35.61s-.55.86-.55,1.41h0v.49c0,.43.06.8.18,1.17.06.18.06.37.12.61v.06c.12,1.23.31,2.33.18,3.32-.06.43-.31.61-.49.8l-.12.12h0l-.06.8c-1.11.12-2.21.25-3.32.49-4.73,1.04-8.91,3.44-12.16,6.88l-.61-.43h-.12c-.12,0-.25.06-.37.06-.18,0-.37-.06-.55-.18-.8-.55-1.6-1.35-2.46-2.27h0c-.12-.12-.25-.31-.43-.43-.25-.31-.49-.55-.8-.86-.06-.06-.18-.12-.31-.25-.06-.06-.12-.06-.12-.12h0c-.37-.31-.86-.49-1.35-.49-.55,0-1.11.25-1.41.68-.61.8-.43,2.03.43,2.76h0c.06,0,.06.06.12.06.12.06.18.18.31.25.37.25.68.43,1.04.61.18.06.37.18.55.31h0c1.11.68,2.03,1.23,2.76,1.9.31.31.31.61.31.92v.12h0l.61.55c-.12.18-.25.31-.31.49-3.07,4.85-4.24,10.57-3.44,16.22l-.8.25c0,.06-.06.06-.06.12-.12.25-.31.49-.68.68-.92.31-2.03.43-3.32.55h-.06c-.18,0-.43,0-.61.06-.37,0-.74.06-1.17.12-.12,0-.25.06-.37.06-.06,0-.12,0-.18.06h0c-1.11.25-1.78,1.29-1.6,2.27.18.86.98,1.41,1.97,1.41.18,0,.31,0,.49-.06h0c.06,0,.12,0,.12-.06.12,0,.25-.06.37-.06.43-.12.74-.25,1.11-.43.18-.06.37-.18.55-.25h.06c1.17-.43,2.21-.8,3.19-.92h.12c.37,0,.61.18.8.31.06,0,.06.06.12.06h0l.86-.12c1.47,4.55,4.3,8.6,8.05,11.55.86.68,1.72,1.23,2.64,1.78l-.37.8c0,.06.06.06.06.12.12.25.25.55.12.98-.37.92-.92,1.84-1.6,2.89v.06c-.12.18-.25.31-.37.49-.25.31-.43.61-.68.98-.06.06-.12.18-.18.31,0,.06-.06.12-.06.12h0c-.49,1.04-.12,2.21.8,2.64.25.12.49.18.74.18.74,0,1.47-.49,1.84-1.17h0c0-.06.06-.12.06-.12.06-.12.12-.25.18-.31.18-.43.25-.74.37-1.11l.18-.55h0c.43-1.23.74-2.21,1.29-3.07.25-.37.55-.43.8-.55q.06,0,.12-.06h0l.43-.8c2.7,1.04,5.65,1.6,8.6,1.6,1.78,0,3.62-.18,5.34-.61,1.11-.25,2.15-.55,3.19-.92l.37.68q.06,0,.12.06c.31.06.55.18.8.55.49.86.86,1.9,1.29,3.07v.06l.18.55c.12.37.18.74.37,1.11.06.12.12.18.18.31,0,.06.06.12.06.12h0c.37.74,1.11,1.17,1.84,1.17.25,0,.49-.06.74-.18.43-.25.8-.61.92-1.11s.12-1.04-.12-1.54h0c0-.06-.06-.06-.06-.12-.06-.12-.12-.25-.18-.31-.18-.37-.43-.68-.68-.98-.12-.18-.25-.31-.37-.49v-.06c-.68-1.04-1.29-1.97-1.6-2.89-.12-.43,0-.68.06-.98,0-.06.06-.06.06-.12h0l-.31-.74c3.26-1.9,6.02-4.61,8.11-7.92,1.11-1.72,1.97-3.62,2.58-5.53l.74.12c.06,0,.06-.06.12-.06.25-.12.43-.31.8-.31h.12c.98.12,2.03.49,3.19.92h.06c.18.06.37.18.55.25.37.18.68.31,1.11.43.12,0,.25.06.37.06.06,0,.12,0,.18.06h0c.18.06.31.06.49.06.92,0,1.72-.61,1.97-1.41,0-.74-.68-1.72-1.78-2.03h0Zm-28.44-3.01l-2.7,1.29-2.7-1.29-.68-2.89,1.84-2.33h3.01l1.84,2.33-.61,2.89h0Zm16.03-6.39c.49,2.09.61,4.18.43,6.2l-9.4-2.7c-.86-.25-1.35-1.11-1.17-1.97.06-.25.18-.49.37-.68l7.43-6.7c1.04,1.72,1.84,3.69,2.33,5.84h0Zm-5.28-9.52l-8.05,5.71c-.68.43-1.6.31-2.15-.37-.18-.18-.25-.43-.31-.68l-.55-10.01c4.24.49,8.11,2.4,11.06,5.34h0Zm-17.81-5.04c.68-.12,1.29-.25,1.97-.37l-.55,9.83c-.06.86-.74,1.6-1.66,1.6-.25,0-.55-.06-.74-.18l-8.17-5.84c2.52-2.52,5.65-4.24,9.15-5.04h0Zm-12.1,8.72l7.31,6.51c.68.55.74,1.6.18,2.27-.18.25-.43.43-.74.49l-9.52,2.76c-.37-4.18.55-8.42,2.76-12.04h0Zm-1.66,16.65l9.77-1.66c.8-.06,1.54.49,1.72,1.29.06.37.06.68-.06.98h0l-3.75,9.03c-3.44-2.21-6.2-5.59-7.68-9.64h0Zm22.42,12.22c-1.41.31-2.83.49-4.3.49-2.15,0-4.24-.37-6.2-.98l4.85-8.78c.49-.55,1.29-.8,1.97-.43.31.18.55.43.74.68h0l4.73,8.54c-.55.18-1.17.31-1.78.49h0Zm11.98-8.54c-1.54,2.46-3.56,4.42-5.9,5.96l-3.87-9.28c-.18-.74.12-1.54.86-1.9.25-.12.55-.18.86-.18l9.83,1.66c-.37,1.35-.98,2.58-1.78,3.75h0Z"/></svg>