<?xml version="1.0" encoding="UTF-8"?>
<svg id="Ebene_1" data-name="Ebene 1" xmlns="http://www.w3.org/2000/svg" viewBox="0 0 256 256">
  <defs>
    <style>
      .cls-1 {
        fill: #fff;
      }

      .cls-2 {
        fill: #ff2d20;
      }
    </style>
  </defs>
  <g id="Ebene_2" data-name="Ebene 2">
    <path class="cls-2" d="m45,0h166c24.85,0,45,20.15,45,45v166c0,24.85-20.15,45-45,45H45c-24.85,0-45-20.15-45-45V45C0,20.15,20.15,0,45,0Z"/>
  </g>
  <path class="cls-1" d="m234.73,67.77c.08.29.12.6.12.9v47.22c0,1.23-.66,2.37-1.73,2.99l-39.63,22.82v45.23c0,1.23-.65,2.37-1.72,2.99l-82.73,47.63c-.19.11-.4.18-.6.25-.08.03-.15.07-.23.09-.58.15-1.19.15-1.76,0-.09-.03-.18-.08-.27-.11-.19-.07-.39-.13-.57-.23l-82.72-47.63c-1.07-.61-1.73-1.75-1.73-2.99V45.26c0-.31.04-.61.12-.9.03-.1.09-.19.12-.29.06-.18.12-.37.22-.53.06-.11.16-.2.24-.31.1-.14.19-.28.31-.4.1-.1.23-.17.34-.26.12-.1.24-.22.38-.3h0l41.36-23.81c1.07-.61,2.38-.61,3.44,0l41.36,23.81h0c.14.09.25.19.38.29.11.09.24.16.34.26.12.12.21.27.31.4.07.1.17.19.23.31.1.17.15.35.22.53.03.1.09.19.12.29.08.29.12.6.12.9v88.48l34.47-19.85v-45.23c0-.3.04-.61.12-.9.03-.1.09-.19.12-.29.07-.18.13-.37.22-.53.06-.11.16-.2.23-.31.1-.14.19-.28.31-.4.1-.1.22-.17.34-.26.13-.1.24-.22.38-.3h0l41.36-23.81c1.07-.61,2.38-.61,3.44,0l41.36,23.81c.15.09.26.19.39.29.11.09.23.16.33.26.12.12.21.27.31.4.08.1.17.19.23.31.1.17.15.35.22.53.04.1.09.19.12.29h0Zm-6.77,46.13v-39.27l-14.47,8.33-20,11.51v39.27l34.47-19.85h0Zm-41.36,71.04v-39.29l-19.67,11.23-56.17,32.06v39.66l75.83-43.66ZM28.04,51.22v133.71l75.83,43.65v-39.66l-39.61-22.42h-.01s-.02-.02-.02-.02c-.13-.08-.25-.19-.37-.28-.11-.09-.23-.15-.33-.25h0c-.11-.12-.19-.25-.28-.37-.09-.12-.19-.22-.26-.34h0c-.08-.14-.12-.3-.18-.44-.06-.13-.13-.25-.16-.39h0c-.04-.17-.05-.34-.07-.51-.02-.13-.05-.26-.05-.39v-92.46l-19.99-11.52-14.47-8.32h0Zm37.92-25.8l-34.46,19.84,34.45,19.84,34.46-19.84-34.46-19.83h0Zm17.92,123.8l19.99-11.51V51.22l-14.47,8.33-20,11.51v86.49l14.48-8.34Zm106.16-100.39l-34.46,19.84,34.46,19.84,34.45-19.84-34.45-19.83Zm-3.45,45.64l-20-11.51-14.47-8.33v39.27l19.99,11.51,14.48,8.34v-39.27Zm-79.29,88.49l50.54-28.85,25.26-14.42-34.43-19.82-39.64,22.82-36.13,20.8,34.4,19.47Z"/>
</svg>