<?xml version="1.0" encoding="UTF-8"?><svg id="a" xmlns="http://www.w3.org/2000/svg" viewBox="0 0 128 128"><defs><style>.b{fill:#fff;}.c{fill:#ff2d20;}</style></defs><rect class="c" x="0" y="0" width="128" height="128" rx="25" ry="25" transform="translate(128 0) rotate(90)"/><path class="b" d="m113.94,35.82c.04.14.06.28.06.42v22.1c0,.58-.31,1.11-.81,1.4l-18.55,10.68v21.16c0,.58-.31,1.11-.81,1.4l-38.71,22.29c-.09.05-.19.08-.28.12-.04.01-.07.03-.11.04-.27.07-.56.07-.83,0-.04-.01-.08-.04-.13-.05-.09-.03-.18-.06-.27-.11l-38.71-22.29c-.5-.29-.81-.82-.81-1.4V25.28c0-.15.02-.29.06-.42.01-.05.04-.09.06-.13.03-.08.06-.17.1-.25.03-.05.07-.09.11-.14.05-.06.09-.13.14-.19.05-.05.11-.08.16-.12.06-.05.11-.1.18-.14h0l19.35-11.14c.5-.29,1.11-.29,1.61,0l19.35,11.14h0c.06.04.12.09.18.14.05.04.11.08.16.12.06.06.1.12.15.19.03.05.08.09.11.14.05.08.07.17.1.25.02.05.04.09.06.14.04.14.06.28.06.42v41.4l16.13-9.29v-21.17c0-.14.02-.28.06-.42.01-.05.04-.09.06-.14.03-.08.06-.17.1-.25.03-.05.07-.09.11-.14.05-.06.09-.13.15-.19.05-.05.1-.08.16-.12.06-.05.11-.1.18-.14h0l19.36-11.14c.5-.29,1.11-.29,1.61,0l19.35,11.14c.07.04.12.09.18.14.05.04.11.08.16.12.06.06.1.12.15.19.04.05.08.09.11.14.05.08.07.17.1.25.02.05.04.09.06.14h0Zm-3.17,21.59v-18.38l-6.77,3.9-9.36,5.39v18.38l16.13-9.29h0Zm-19.35,33.24v-18.39l-9.2,5.26-26.28,15v18.56l35.49-20.43ZM17.23,28.07v62.57l35.48,20.43v-18.56l-18.54-10.49h0s0,0,0,0c-.06-.04-.11-.09-.17-.13-.05-.04-.11-.07-.15-.12h0c-.05-.06-.09-.12-.13-.18-.04-.05-.09-.1-.12-.16h0c-.04-.07-.06-.14-.08-.21-.03-.06-.06-.12-.08-.18h0c-.02-.08-.02-.16-.03-.24,0-.06-.02-.12-.02-.18v-43.27l-9.35-5.39-6.77-3.89h0Zm17.74-12.07l-16.13,9.28,16.12,9.28,16.12-9.28-16.12-9.28h0Zm8.39,57.93l9.35-5.39V28.07l-6.77,3.9-9.36,5.39v40.47l6.77-3.9Zm49.68-46.98l-16.12,9.28,16.12,9.28,16.12-9.28-16.12-9.28Zm-1.61,21.36l-9.36-5.39-6.77-3.9v18.38l9.35,5.39,6.77,3.9v-18.38Zm-37.1,41.41l23.65-13.5,11.82-6.75-16.11-9.28-18.55,10.68-16.91,9.73,16.1,9.11Z"/></svg>