<?xml version="1.0" encoding="UTF-8"?><svg id="a" xmlns="http://www.w3.org/2000/svg" viewBox="0 0 128 128"><defs><style>.b{fill:#001e36;}.c{fill:#31a8ff;}</style></defs><rect class="b" x="0" y="0" width="128" height="128" rx="25" ry="25" transform="translate(128 0) rotate(90)"/><path class="c" d="m64.25,92.57H29.87c-.6,0-.87-.33-.87-.98v-55.41c-.05-.38.22-.7.6-.76h10.84c.27-.05.6.16.6.43v45.7h25.05c.54,0,.7.27.6.76l-1.57,9.43c0,.27-.16.49-.33.65-.16.11-.33.16-.54.16h0Z"/><path class="c" d="m72.92,49.2h9.49c.54,0,.98.38,1.14.87.22.38.38.81.43,1.25.11.54.22,1.14.27,1.68.05.6.11,1.25.11,1.95,1.63-1.9,3.58-3.47,5.8-4.66,2.49-1.36,5.26-2.01,8.08-1.95.38-.05.7.22.76.6v10.79c0,.43-.27.6-.87.6-3.52-.22-7.05.43-10.25,1.84-1.08.49-2.11,1.14-2.93,2.01v27.65c0,.54-.22.76-.7.76h-10.57c-.43.05-.81-.22-.87-.65v-30.25c0-1.3,0-2.66-.05-4.07s-.05-2.82-.11-4.23c-.05-1.19-.16-2.39-.33-3.58-.05-.27.11-.54.38-.6.05-.05.11-.05.22,0h0Z"/></svg>