<?xml version="1.0" encoding="UTF-8"?>
<svg id="Ebene_1" data-name="Ebene 1" xmlns="http://www.w3.org/2000/svg" viewBox="0 0 256 256">
  <defs>
    <style>
      .cls-1 {
        fill: #fff;
      }

      .cls-2 {
        fill: #069;
      }
    </style>
  </defs>
  <g id="Ebene_2" data-name="Ebene 2">
    <path class="cls-2" d="m45,0h166c24.85,0,45,20.15,45,45v166c0,24.85-20.15,45-45,45H45c-24.85,0-45-20.15-45-45V45C0,20.15,20.15,0,45,0Z"/>
  </g>
  <path class="cls-1" d="m89.89,194.72v-90.04h-29.93v90.04h29.93,0Zm-14.96-102.33c10.43,0,16.93-6.91,16.93-15.55-.2-8.84-6.5-15.56-16.73-15.56s-16.93,6.72-16.93,15.56,6.49,15.55,16.54,15.55h.2Zm31.52,102.33h29.93v-50.28c0-2.69.2-5.38.99-7.3,2.16-5.38,7.09-10.95,15.36-10.95,10.83,0,15.16,8.26,15.16,20.36v48.16h29.93v-51.63c0-27.66-14.76-40.53-34.45-40.53-16.14,0-23.23,9.02-27.17,15.17h.2v-13.05h-29.93c.39,8.45,0,90.04,0,90.04h0Z"/>
</svg>