<?xml version="1.0" encoding="UTF-8" standalone="no"?>
<!DOCTYPE svg PUBLIC "-//W3C//DTD SVG 1.1//EN" "http://www.w3.org/Graphics/SVG/1.1/DTD/svg11.dtd">
<!-- Created with Vectornator (http://vectornator.io/) -->
<svg height="100%" stroke-miterlimit="10" style="fill-rule:nonzero;clip-rule:evenodd;stroke-linecap:round;stroke-linejoin:round;" version="1.1" viewBox="0 0 512 512" width="100%" xml:space="preserve" xmlns="http://www.w3.org/2000/svg" xmlns:vectornator="http://vectornator.io" xmlns:xlink="http://www.w3.org/1999/xlink">
<defs/>
<g id="Ebene-1" vectornator:layerName="Ebene 1">
<path d="M2.84217e-14 95C2.84217e-14 42.5329 42.5329 0 95 0L417 0C469.467 0 512 42.5329 512 95L512 417C512 469.467 469.467 512 417 512L95 512C42.5329 512 2.84217e-14 469.467 2.84217e-14 417L2.84217e-14 95Z" fill="#006699" fill-rule="nonzero" opacity="1" stroke="none" vectornator:layerName="Rechteck 1"/>
<g opacity="1" vectornator:layerName="g">
<path d="M56 84.6535C56 68.8372 69.2408 56 85.5628 56L426.437 56C442.765 56 456 68.8372 456 84.6535L456 427.351C456 443.172 442.765 456 426.437 456L85.5628 456C69.242 456 56 443.174 56 427.356L56 84.6486L56 84.6535Z" fill="#006699" fill-rule="nonzero" opacity="1" stroke="none" vectornator:layerName="path"/>
<path d="M177.557 390.747L177.557 210.665L117.7 210.665L117.7 390.747L177.563 390.747L177.557 390.747ZM147.641 186.083C168.509 186.083 181.502 172.255 181.502 154.973C181.111 137.298 168.509 123.856 148.037 123.856C127.552 123.856 114.172 137.298 114.172 154.972C114.172 172.253 127.159 186.082 147.248 186.082L147.636 186.082L147.641 186.083ZM210.687 390.747L270.539 390.747L270.539 290.192C270.539 284.817 270.93 279.428 272.511 275.589C276.836 264.831 286.685 253.695 303.224 253.695C324.877 253.695 333.544 270.208 333.544 294.419L333.544 390.747L393.393 390.747L393.393 287.494C393.393 232.183 363.869 206.443 324.489 206.443C292.203 206.443 278.024 224.489 270.145 236.78L270.544 236.78L270.544 210.671L210.691 210.671C211.471 227.565 210.686 390.753 210.686 390.753L210.687 390.747Z" fill="#ffffff" fill-rule="nonzero" opacity="1" stroke="none" vectornator:layerName="path"/>
</g>
</g>
</svg>
