<?xml version="1.0" encoding="UTF-8" standalone="no"?>
<!DOCTYPE svg PUBLIC "-//W3C//DTD SVG 1.1//EN" "http://www.w3.org/Graphics/SVG/1.1/DTD/svg11.dtd">
<!-- Created with Vectornator (http://vectornator.io/) -->
<svg height="100%" stroke-miterlimit="10" style="fill-rule:nonzero;clip-rule:evenodd;stroke-linecap:round;stroke-linejoin:round;" version="1.1" viewBox="0 0 512 512" width="100%" xml:space="preserve" xmlns="http://www.w3.org/2000/svg" xmlns:vectornator="http://vectornator.io" xmlns:xlink="http://www.w3.org/1999/xlink">
<defs>
<linearGradient gradientTransform="matrix(1 0 0 1 0 0)" gradientUnits="userSpaceOnUse" id="LinearGradient" x1="257.506" x2="255.859" y1="-0.116183" y2="511.166">
<stop offset="0.000578055" stop-color="#98eec1"/>
<stop offset="1" stop-color="#82a44d"/>
</linearGradient>
<linearGradient gradientTransform="matrix(1.5625 0 0 1.5625 56 76.7031)" gradientUnits="userSpaceOnUse" id="LinearGradient_2" x1="42.5393" x2="170.652" y1="45.7567" y2="153.902">
<stop offset="0" stop-color="#c7f994"/>
<stop offset="1" stop-color="#87cf3e"/>
</linearGradient>
<linearGradient gradientTransform="matrix(1.5625 0 0 1.5625 56 76.7031)" gradientUnits="userSpaceOnUse" id="LinearGradient_3" x1="66.2423" x2="162.813" y1="191.182" y2="100.521">
<stop offset="0" stop-color="#3d3d3d"/>
<stop offset="1" stop-color="#000000" stop-opacity="0.114"/>
</linearGradient>
</defs>
<g id="Ebene-1" vectornator:layerName="Ebene 1">
<path d="M2.84217e-14 95C2.84217e-14 42.5329 42.5329 0 95 0L417 0C469.467 0 512 42.5329 512 95L512 417C512 469.467 469.467 512 417 512L95 512C42.5329 512 2.84217e-14 469.467 2.84217e-14 417L2.84217e-14 95Z" fill="url(#LinearGradient)" fill-rule="nonzero" opacity="1" stroke="none" vectornator:layerName="Rechteck 1"/>
<g opacity="1" vectornator:layerName="linux-mint.svg">
<path d="M103.223 304.595L103.158 227.761L103.158 204.752L56 204.752L56 76.7031L254.863 77.6406L317.07 77.7734C391.519 77.7734 456 134.094 456 208.477L456 435.297L242.153 435.297C167.772 435.297 103.223 378.909 103.223 304.594L103.223 304.595Z" fill="#000000" fill-rule="nonzero" opacity="0.26" stroke="none" vectornator:layerName="path"/>
<path d="M427.433 375.98L427.433 211.072C427.433 155.978 379.117 111.317 319.505 111.317L257.63 111.317L257.63 111.184L90.2906 110.453L90.2906 170.622L115.978 170.622C133.909 170.622 137.077 183 137.077 200.133L137.209 306.506C137.209 361.6 185.525 406.259 245.072 406.259L392.094 406.259C410.941 406.259 427.434 394.323 427.434 375.978L427.433 375.98Z" fill="url(#LinearGradient_2)" fill-rule="nonzero" opacity="1" stroke="none" vectornator:layerName="path"/>
<path d="M412.841 389.911C375.242 364.002 348.614 334.239 326.183 294.839C281.966 213.158 292.305 172.609 182.808 163.048C151.209 163.048 130.177 156.055 96.9156 156.055L96.9156 167.637C96.9156 167.637 110.059 174.309 121.613 174.309C138.841 174.309 141.83 186.259 141.83 202.72L141.939 304.673C141.939 357.609 188.431 400.511 245.644 400.511L386.831 400.511C397.195 400.511 406.505 396.427 412.841 389.911Z" fill="url(#LinearGradient_3)" fill-rule="nonzero" opacity="0.175" stroke="none" vectornator:layerName="path"/>
<path d="M281.989 173.133C268.572 173.133 256.652 178.114 247.073 187.789C237.5 197.461 232.473 209.533 232.473 223.158L232.473 292.03L263.711 292.03L263.711 223.156C263.711 217.934 265.414 213.852 269.144 210.084C272.884 206.306 276.847 204.595 281.989 204.595C287.241 204.595 291.142 206.298 294.892 210.084C298.62 213.85 300.325 217.934 300.325 223.156L300.325 292.028L331.563 292.028L331.563 223.156C331.563 217.934 333.266 213.852 336.995 210.084C340.745 206.297 344.647 204.595 349.898 204.595C355.042 204.595 359.003 206.306 362.744 210.084C366.472 213.85 368.177 217.934 368.177 223.156L368.347 303.628C368.347 320.795 351.998 335.263 330.997 335.263L230.266 334.867C214.059 334.867 200.216 319.091 200.216 298.819L200.216 147.28L170.677 147.28L170.677 304.648C170.677 321.345 176.786 335.988 188.672 347.828C198.831 357.855 211.048 363.789 224.777 365.256L224.777 365.823L336.939 365.823C354.173 365.823 369.316 359.414 381.533 346.978L381.589 346.978C391.978 336.305 398.052 323.514 399.527 309.119L399.414 223.158C399.414 209.533 394.387 197.461 384.814 187.789C375.236 178.114 363.314 173.133 349.898 173.133C336.728 173.133 325.205 178.03 315.888 186.997C306.597 178.044 295.153 173.133 281.989 173.133Z" fill="#000000" fill-opacity="0.08" fill-rule="nonzero" opacity="1" stroke="none" vectornator:layerName="path"/>
<path d="M279.495 173.953C266.078 173.953 254.156 178.934 244.578 188.609C235.005 198.281 229.978 210.353 229.978 223.978L229.978 292.848L261.216 292.848L261.216 223.978C261.216 218.756 262.919 214.673 266.648 210.906C270.389 207.128 274.352 205.417 279.495 205.417C284.745 205.417 288.648 207.12 292.397 210.906C296.127 214.672 297.83 218.756 297.83 223.978L297.83 292.848L329.067 292.848L329.067 223.978C329.067 218.756 330.77 214.673 334.5 210.906C338.25 207.119 342.152 205.417 347.403 205.417C352.547 205.417 356.508 207.128 360.248 210.906C363.978 214.672 365.681 218.756 365.681 223.978L365.852 304.45C365.852 321.617 349.503 336.084 328.502 336.084L227.77 335.688C211.564 335.688 197.722 319.913 197.722 299.641L197.722 148.1L168.181 148.1L168.181 305.469C168.181 322.166 174.291 336.808 186.177 348.647C196.336 358.675 208.555 365.175 222.281 366.644L334.444 366.644C351.678 366.644 366.822 360.234 379.038 347.798L379.094 347.798C389.484 337.123 395.556 324.334 397.033 309.939L396.92 223.978C396.92 210.353 391.894 198.28 382.319 188.609C372.741 178.934 360.819 173.953 347.403 173.953C334.234 173.953 322.711 178.85 313.392 187.817C304.102 178.864 292.658 173.953 279.495 173.953Z" fill="#ffffff" fill-rule="nonzero" opacity="1" stroke="none" vectornator:layerName="path"/>
<path d="M261.125 335.792L261.125 366.644L334.498 366.644C351.733 366.644 366.786 360.216 379.002 347.778L379.106 347.778C389.497 337.105 395.556 324.341 397.033 309.945L397.033 292.436L365.87 292.436L365.87 304.42C365.87 321.588 349.559 336.002 328.558 336.002C328.558 336.002 261.125 335.792 261.125 335.792Z" fill="#52a800" fill-rule="nonzero" opacity="0.3" stroke="none" vectornator:layerName="path"/>
<path d="M244.094 429.097C173.086 429.097 111.467 375.267 111.467 304.325L111.405 218.184L111.405 196.219L66.3844 196.219L66.3844 86.7734L256.223 87.6672L315.608 87.7938C386.678 87.7938 448.233 141.559 448.233 212.566L448.233 429.097L244.094 429.097ZM419.309 371.013L419.309 212.566C419.309 159.631 372.887 116.722 315.609 116.722L256.161 116.722L256.161 116.594L95.3766 115.891L95.3766 167.294L113.388 167.294C125.616 167.294 140.33 178.784 140.33 195.647L140.458 304.261C140.458 357.197 186.88 400.106 244.092 400.106L385.353 400.106C403.463 400.106 419.309 388.638 419.309 371.013Z" fill="#ffffff" fill-rule="nonzero" opacity="1" stroke="none" vectornator:layerName="path"/>
</g>
</g>
</svg>
