<?xml version="1.0" encoding="UTF-8" standalone="no"?>
<!DOCTYPE svg PUBLIC "-//W3C//DTD SVG 1.1//EN" "http://www.w3.org/Graphics/SVG/1.1/DTD/svg11.dtd">
<!-- Created with Vectornator (http://vectornator.io/) -->
<svg height="100%" stroke-miterlimit="10" style="fill-rule:nonzero;clip-rule:evenodd;stroke-linecap:round;stroke-linejoin:round;" version="1.1" viewBox="0 0 512 512" width="100%" xml:space="preserve" xmlns="http://www.w3.org/2000/svg" xmlns:vectornator="http://vectornator.io" xmlns:xlink="http://www.w3.org/1999/xlink">
<defs/>
<g id="Ebene-1" vectornator:layerName="Ebene 1">
<path d="M2.84217e-14 95C2.84217e-14 42.5329 42.5329 0 95 0L417 0C469.467 0 512 42.5329 512 95L512 417C512 469.467 469.467 512 417 512L95 512C42.5329 512 2.84217e-14 469.467 2.84217e-14 417L2.84217e-14 95Z" fill="#242628" fill-rule="nonzero" opacity="1" stroke="none" vectornator:layerName="Rechteck 1"/>
<path d="M145.446 311.64L133.062 311.64L133.062 265.905C133.062 249.065 127.119 240.644 115.231 240.644C112.476 240.644 109.946 241.224 107.635 242.381C105.324 243.54 103.315 245.104 101.609 247.087C99.904 249.069 98.5842 251.324 97.6452 253.853C96.7061 256.383 96.241 259.028 96.241 261.778L96.241 311.64L83.8623 311.64L83.8623 262.935C83.8623 256.331 82.4273 250.963 79.5686 246.837C76.7046 242.71 72.4685 240.644 66.8552 240.644C63.9965 240.644 61.3516 241.276 58.9309 242.543C56.5104 243.811 54.4184 245.517 52.6552 247.661C50.892 249.805 49.5199 252.23 48.5287 254.928C47.5376 257.625 47.0419 260.348 47.0419 263.103L47.0419 311.64L34.6626 311.64L34.6626 252.7C34.6626 249.508 34.6052 246.18 34.4956 242.71C34.3861 239.241 34.2191 235.636 34 231.896L45.0648 231.896L45.0648 244.938L46.2177 244.938C51.8309 235.141 60.0839 230.242 70.9818 230.242C76.2664 230.242 80.8623 231.677 84.7692 234.536C88.6775 237.4 91.4525 241.307 93.1064 246.258L93.435 246.258C96.2932 240.973 99.9562 236.988 104.411 234.291C108.872 231.593 113.958 230.242 119.685 230.242C127.501 230.242 133.745 233.242 138.424 239.241C143.104 245.241 145.441 253.582 145.441 264.255L145.441 311.64L145.446 311.64ZM209.847 311.64L208.694 301.405L208.199 301.405C202.804 309.438 194.77 313.455 184.092 313.455C180.68 313.455 177.54 312.902 174.681 311.806C171.816 310.705 169.339 309.141 167.252 307.101C165.165 305.061 163.511 302.672 162.302 299.917C161.092 297.168 160.486 294.137 160.486 290.835C160.486 281.147 164.503 273.802 172.537 268.794C180.571 263.786 192.24 261.282 207.536 261.282L207.536 259.467C207.536 246.373 201.427 239.821 189.209 239.821C181.614 239.821 174.9 241.745 169.068 245.6L166.094 237.013C173.136 232.501 181.447 230.242 191.025 230.242C210.395 230.242 220.083 240.864 220.083 262.106L220.083 292.656C220.083 296.506 220.166 300.006 220.332 303.142C220.5 306.282 220.802 309.115 221.24 311.644L209.847 311.644L209.847 311.64ZM207.703 270.365L205.225 270.365C183.873 270.365 173.194 276.64 173.194 289.187C173.194 294.143 174.514 297.826 177.159 300.251C179.799 302.672 183.101 303.882 187.066 303.882C189.595 303.882 192.1 303.444 194.578 302.562C197.056 301.681 199.257 300.444 201.182 298.848C203.107 297.252 204.677 295.301 205.888 292.99C207.098 290.679 207.703 288.091 207.703 285.232L207.703 270.365ZM293.728 244.443C288.882 241.798 283.268 240.478 276.888 240.478C272.376 240.478 268.353 241.276 264.832 242.872C261.31 244.468 258.338 246.669 255.917 249.477C253.496 252.283 251.623 255.611 250.303 259.467C248.984 263.316 248.321 267.501 248.321 272.013C248.321 276.635 249.009 280.876 250.387 284.726C251.764 288.576 253.689 291.852 256.166 294.549C258.64 297.246 261.587 299.339 264.999 300.825C268.411 302.311 272.208 303.053 276.393 303.053C282.335 303.053 288.224 301.733 294.062 299.088L296.534 308.661C290.368 311.744 282.888 313.283 274.082 313.283C268.243 313.283 262.964 312.318 258.228 310.392C253.496 308.467 249.422 305.714 246.01 302.139C242.598 298.561 239.985 294.299 238.169 289.343C236.354 284.387 235.446 278.832 235.446 272.666C235.446 266.39 236.463 260.666 238.498 255.492C240.532 250.321 243.37 245.861 247.001 242.121C250.632 238.38 255.009 235.459 260.127 233.373C265.244 231.28 270.884 230.231 277.05 230.231C285.083 230.231 291.688 231.667 296.864 234.525L293.728 244.443ZM403.035 254.844C403.035 263.541 401.851 271.466 399.482 278.617C397.114 285.775 393.76 291.936 389.409 297.111C385.063 302.286 379.83 306.303 373.722 309.161C367.613 312.021 360.815 313.455 353.335 313.455C346.178 313.455 339.63 312.052 333.688 309.246C327.742 306.438 322.623 302.531 318.33 297.523C314.036 292.515 310.709 286.567 308.34 279.692C305.971 272.816 304.792 265.246 304.792 256.989C304.792 248.406 306.029 240.509 308.506 233.299C310.985 226.09 314.423 219.928 318.826 214.806C323.228 209.689 328.482 205.697 334.59 202.839C340.705 199.979 347.393 198.545 354.66 198.545C361.922 198.545 368.552 199.922 374.551 202.671C380.551 205.426 385.642 209.276 389.826 214.232C394.01 219.188 397.254 225.13 399.566 232.063C401.877 238.996 403.035 246.592 403.035 254.844ZM389.66 255.507C389.66 248.903 388.777 242.768 387.014 237.097C385.251 231.431 382.804 226.475 379.668 222.239C376.528 218.004 372.788 214.701 368.442 212.333C364.097 209.969 359.277 208.785 353.997 208.785C348.603 208.785 343.679 209.969 339.218 212.333C334.758 214.701 330.965 217.998 327.825 222.239C324.685 226.475 322.237 231.541 320.474 237.431C318.711 243.32 317.835 249.732 317.835 256.665C317.835 263.159 318.716 269.242 320.474 274.908C322.237 280.579 324.685 285.504 327.825 289.687C330.959 293.871 334.731 297.173 339.135 299.594C343.538 302.015 348.379 303.225 353.663 303.225C359.058 303.225 363.982 302.015 368.442 299.594C372.903 297.173 376.696 293.814 379.836 289.521C382.976 285.227 385.392 280.192 387.103 274.413C388.804 268.633 389.66 262.33 389.66 255.507ZM478 281.758C478 286.489 477.119 290.814 475.355 294.721C473.592 298.628 471.088 301.963 467.842 304.711C464.598 307.466 460.665 309.584 456.038 311.07C451.416 312.558 446.241 313.298 440.518 313.298C429.067 313.298 419.989 310.935 413.276 306.199L416.739 295.796C424.111 300.418 432.311 302.729 441.342 302.729C448.937 302.729 454.827 300.914 459.011 297.283C463.195 293.652 465.287 288.81 465.287 282.754C465.287 277.141 463.659 272.602 460.414 269.134C457.164 265.669 451.802 262.502 444.315 259.639C425.274 252.487 415.753 242.027 415.753 228.27C415.753 223.982 416.604 220.017 418.31 216.386C420.016 212.756 422.41 209.615 425.494 206.976C428.576 204.336 432.234 202.302 436.469 200.866C440.705 199.437 445.302 198.723 450.257 198.723C459.83 198.723 467.645 200.486 473.701 204.006L469.904 214.242C464.509 210.831 457.796 209.125 449.762 209.125C443.376 209.125 438.201 210.721 434.242 213.913C430.277 217.107 428.3 221.342 428.3 226.627C428.3 229.157 428.655 231.416 429.369 233.398C430.084 235.381 431.268 237.249 432.922 239.011C434.57 240.775 436.803 242.455 439.61 244.045C442.417 245.643 445.969 247.322 450.257 249.08C455.208 251.063 459.45 253.181 462.971 255.439C466.492 257.698 469.382 260.145 471.641 262.784C473.9 265.429 475.522 268.32 476.514 271.455C477.505 274.575 478 278.012 478 281.758Z" fill="#ffffff" fill-rule="nonzero" opacity="1" stroke="none" vectornator:layerName="path"/>
</g>
</svg>
