<?xml version="1.0" encoding="UTF-8" standalone="no"?>
<!DOCTYPE svg PUBLIC "-//W3C//DTD SVG 1.1//EN" "http://www.w3.org/Graphics/SVG/1.1/DTD/svg11.dtd">
<!-- Created with Vectornator (http://vectornator.io/) -->
<svg height="100%" stroke-miterlimit="10" style="fill-rule:nonzero;clip-rule:evenodd;stroke-linecap:round;stroke-linejoin:round;" version="1.1" viewBox="0 0 512 512" width="100%" xml:space="preserve" xmlns="http://www.w3.org/2000/svg" xmlns:vectornator="http://vectornator.io" xmlns:xlink="http://www.w3.org/1999/xlink">
<defs>
<linearGradient gradientTransform="matrix(1 0 0 1 0 0)" gradientUnits="userSpaceOnUse" id="LinearGradient" x1="257.506" x2="255.859" y1="-0.116183" y2="511.166">
<stop offset="0.000578055" stop-color="#d5a9ff"/>
<stop offset="1" stop-color="#5ca3c3"/>
</linearGradient>
</defs>
<g id="Ebene-1" vectornator:layerName="Ebene 1">
<path d="M2.84217e-14 95C2.84217e-14 42.5329 42.5329 0 95 0L417 0C469.467 0 512 42.5329 512 95L512 417C512 469.467 469.467 512 417 512L95 512C42.5329 512 2.84217e-14 469.467 2.84217e-14 417L2.84217e-14 95Z" fill="url(#LinearGradient)" fill-rule="nonzero" opacity="1" stroke="none" vectornator:layerName="Rechteck 1"/>
<path d="M156.402 306.126L145.245 306.126L145.245 264.923C145.245 249.752 139.891 242.166 129.181 242.166C126.699 242.166 124.42 242.688 122.338 243.731C120.256 244.775 118.446 246.184 116.909 247.97C115.373 249.756 114.184 251.787 113.338 254.066C112.492 256.345 112.073 258.728 112.073 261.205L112.073 306.126L100.921 306.126L100.921 262.248C100.921 256.298 99.6282 251.462 97.0528 247.745C94.4726 244.027 90.6563 242.166 85.5993 242.166C83.0239 242.166 80.6411 242.735 78.4603 243.877C76.2796 245.019 74.395 246.556 72.8065 248.487C71.218 250.419 69.9819 252.604 69.0889 255.034C68.196 257.464 67.7495 259.917 67.7495 262.399L67.7495 306.126L56.5969 306.126L56.5969 253.027C56.5969 250.151 56.5452 247.153 56.4465 244.027C56.3478 240.902 56.1974 237.654 56 234.285L65.9683 234.285L65.9683 246.034L67.0069 246.034C72.0639 237.208 79.499 232.795 89.3169 232.795C94.0778 232.795 98.2183 234.087 101.738 236.663C105.259 239.243 107.759 242.763 109.249 247.223L109.545 247.223C112.12 242.462 115.42 238.872 119.433 236.442C123.452 234.012 128.034 232.795 133.194 232.795C140.235 232.795 145.86 235.497 150.076 240.902C154.292 246.307 156.397 253.822 156.397 263.437L156.397 306.126L156.402 306.126ZM214.421 306.126L213.382 296.905L212.936 296.905C208.076 304.142 200.838 307.761 191.218 307.761C188.144 307.761 185.315 307.263 182.74 306.276C180.159 305.284 177.927 303.875 176.047 302.037C174.167 300.199 172.677 298.047 171.587 295.565C170.497 293.088 169.951 290.358 169.951 287.383C169.951 278.655 173.57 272.038 180.808 267.526C188.046 263.014 198.559 260.759 212.339 260.759L212.339 259.123C212.339 247.327 206.835 241.424 195.828 241.424C188.986 241.424 182.937 243.158 177.683 246.631L175.004 238.895C181.348 234.83 188.835 232.795 197.464 232.795C214.914 232.795 223.642 242.364 223.642 261.501L223.642 289.023C223.642 292.492 223.717 295.645 223.867 298.47C224.018 301.299 224.29 303.851 224.685 306.13L214.421 306.13L214.421 306.126ZM212.489 268.941L210.257 268.941C191.021 268.941 181.4 274.595 181.4 285.898C181.4 290.363 182.589 293.681 184.972 295.866C187.35 298.047 190.325 299.137 193.897 299.137C196.176 299.137 198.432 298.742 200.665 297.948C202.897 297.154 204.88 296.04 206.614 294.602C208.349 293.164 209.763 291.406 210.854 289.324C211.944 287.242 212.489 284.911 212.489 282.335L212.489 268.941ZM289.989 245.588C285.623 243.205 280.566 242.016 274.818 242.016C270.753 242.016 267.129 242.735 263.957 244.173C260.784 245.611 258.106 247.594 255.925 250.123C253.744 252.651 252.057 255.65 250.868 259.123C249.679 262.591 249.082 266.361 249.082 270.426C249.082 274.59 249.702 278.411 250.943 281.879C252.184 285.348 253.918 288.299 256.15 290.729C258.378 293.159 261.033 295.044 264.107 296.383C267.181 297.722 270.602 298.39 274.372 298.39C279.725 298.39 285.031 297.201 290.29 294.818L292.517 303.442C286.962 306.22 280.223 307.606 272.29 307.606C267.03 307.606 262.274 306.737 258.007 305.002C253.744 303.268 250.074 300.787 247 297.567C243.926 294.343 241.572 290.504 239.936 286.039C238.301 281.574 237.483 276.569 237.483 271.014C237.483 265.36 238.399 260.204 240.232 255.542C242.065 250.884 244.622 246.866 247.893 243.496C251.164 240.126 255.107 237.495 259.718 235.615C264.328 233.73 269.409 232.785 274.964 232.785C282.201 232.785 288.151 234.078 292.814 236.653L289.989 245.588ZM388.464 254.959C388.464 262.794 387.397 269.933 385.263 276.376C383.13 282.824 380.108 288.375 376.188 293.037C372.273 297.699 367.559 301.318 362.056 303.893C356.552 306.469 350.428 307.761 343.689 307.761C337.241 307.761 331.342 306.497 325.989 303.969C320.632 301.44 316.021 297.92 312.153 293.408C308.285 288.896 305.287 283.538 303.153 277.344C301.019 271.15 299.957 264.33 299.957 256.891C299.957 249.159 301.071 242.044 303.303 235.549C305.536 229.054 308.633 223.503 312.6 218.888C316.566 214.278 321.299 210.682 326.802 208.107C332.311 205.531 338.336 204.239 344.883 204.239C351.425 204.239 357.398 205.479 362.803 207.956C368.208 210.438 372.795 213.906 376.564 218.371C380.333 222.836 383.256 228.189 385.339 234.435C387.421 240.681 388.464 247.524 388.464 254.959ZM376.414 255.556C376.414 249.606 375.619 244.079 374.031 238.97C372.442 233.866 370.238 229.401 367.413 225.585C364.584 221.769 361.214 218.794 357.299 216.66C353.385 214.531 349.042 213.464 344.286 213.464C339.426 213.464 334.99 214.531 330.971 216.66C326.953 218.794 323.536 221.764 320.707 225.585C317.878 229.401 315.673 233.965 314.085 239.271C312.496 244.577 311.707 250.353 311.707 256.599C311.707 262.45 312.501 267.93 314.085 273.034C315.673 278.143 317.878 282.58 320.707 286.349C323.531 290.118 326.929 293.093 330.896 295.274C334.863 297.455 339.224 298.545 343.985 298.545C348.845 298.545 353.281 297.455 357.299 295.274C361.318 293.093 364.735 290.067 367.564 286.199C370.393 282.331 372.569 277.795 374.111 272.588C375.643 267.381 376.414 261.703 376.414 255.556ZM456 279.205C456 283.468 455.206 287.364 453.617 290.884C452.029 294.404 449.773 297.408 446.849 299.884C443.926 302.366 440.383 304.274 436.214 305.613C432.05 306.953 427.388 307.62 422.232 307.62C411.916 307.62 403.738 305.491 397.69 301.224L400.81 291.852C407.451 296.016 414.839 298.098 422.975 298.098C429.817 298.098 435.123 296.463 438.893 293.192C442.662 289.921 444.547 285.559 444.547 280.103C444.547 275.046 443.08 270.957 440.157 267.832C437.229 264.711 432.398 261.858 425.653 259.278C408.499 252.835 399.922 243.412 399.922 231.018C399.922 227.155 400.688 223.583 402.225 220.312C403.762 217.041 405.919 214.212 408.697 211.834C411.474 209.456 414.769 207.623 418.585 206.33C422.401 205.042 426.542 204.399 431.006 204.399C439.631 204.399 446.671 205.987 452.127 209.159L448.706 218.38C443.846 215.307 437.798 213.77 430.56 213.77C424.807 213.77 420.145 215.208 416.578 218.084C413.006 220.961 411.225 224.777 411.225 229.538C411.225 231.817 411.545 233.852 412.188 235.638C412.832 237.424 413.899 239.107 415.389 240.695C416.874 242.284 418.886 243.797 421.414 245.23C423.943 246.669 427.143 248.182 431.006 249.766C435.467 251.552 439.288 253.46 442.46 255.495C445.632 257.53 448.236 259.734 450.271 262.112C452.306 264.495 453.768 267.099 454.661 269.923C455.554 272.734 456 275.831 456 279.205Z" fill="#000000" fill-rule="nonzero" opacity="1" stroke="none" vectornator:layerName="path"/>
</g>
</svg>
