<?xml version="1.0" encoding="UTF-8" standalone="no"?>
<!DOCTYPE svg PUBLIC "-//W3C//DTD SVG 1.1//EN" "http://www.w3.org/Graphics/SVG/1.1/DTD/svg11.dtd">
<!-- Created with Vectornator (http://vectornator.io/) -->
<svg height="100%" stroke-miterlimit="10" style="fill-rule:nonzero;clip-rule:evenodd;stroke-linecap:round;stroke-linejoin:round;" version="1.1" viewBox="0 0 512 512" width="100%" xml:space="preserve" xmlns="http://www.w3.org/2000/svg" xmlns:vectornator="http://vectornator.io" xmlns:xlink="http://www.w3.org/1999/xlink">
<defs>
<linearGradient gradientTransform="matrix(1 0 0 1 0 0)" gradientUnits="userSpaceOnUse" id="LinearGradient" x1="246.99" x2="254.91" y1="-0.49038" y2="505.165">
<stop offset="0.000578055" stop-color="#7e8480"/>
<stop offset="1" stop-color="#1e1f1f"/>
</linearGradient>
</defs>
<g id="Ebene-1" vectornator:layerName="Ebene 1">
<path d="M2.84217e-14 95C2.84217e-14 42.5329 42.5329 0 95 0L417 0C469.467 0 512 42.5329 512 95L512 417C512 469.467 469.467 512 417 512L95 512C42.5329 512 2.84217e-14 469.467 2.84217e-14 417L2.84217e-14 95Z" fill="url(#LinearGradient)" fill-rule="nonzero" opacity="1" stroke="none" vectornator:layerName="Rechteck 1"/>
<g opacity="1" vectornator:layerName="g">
<path d="M56 56L56 456L168.5 456L168.5 168.5L312.25 168.5L312.25 56L56 56Z" fill="#35bf5c" fill-rule="nonzero" opacity="1" stroke="none" vectornator:layerName="path"/>
<path d="M199.75 199.75L199.75 456L312.25 456L312.25 199.75L199.75 199.75Z" fill="#35bf5c" fill-rule="nonzero" opacity="1" stroke="none" vectornator:layerName="path"/>
<path d="M343.5 56L343.5 456L456 456L456 56L343.5 56Z" fill="#35bf5c" fill-rule="nonzero" opacity="1" stroke="none" vectornator:layerName="path"/>
</g>
</g>
</svg>
