<?xml version="1.0" encoding="UTF-8"?><svg id="a" xmlns="http://www.w3.org/2000/svg" viewBox="0 0 128 128"><defs><style>.b{fill:#fff;}.c{fill:#1c1c1c;}</style></defs><rect class="c" x="0" y="0" width="128" height="128" rx="25" ry="25" transform="translate(128 0) rotate(90)"/><path class="b" d="m107.11,94.84H21.19c-3.89,0-7.19-3.29-7.19-7.19v-47.31c0-3.89,3.29-7.19,7.19-7.19h85.63c3.89,0,7.19,3.29,7.19,7.19v47.31c0,3.89-2.99,7.19-6.89,7.19h0ZM21.19,37.95c-1.2,0-2.4,1.2-2.4,2.4v47.31c0,1.5,1.2,2.4,2.4,2.4h85.63c1.5,0,2.4-1.2,2.4-2.4v-47.31c0-1.5-1.2-2.4-2.4-2.4.3,0-85.63,0-85.63,0h0Zm7.19,42.51v-32.93h9.58l9.58,11.98,9.58-11.98h9.58v32.93h-9.58v-18.86l-9.58,11.98-9.58-11.98v18.86h-9.58Zm60.18,0l-14.37-15.87h9.58v-17.07h9.58v16.77h9.58l-14.37,16.17h0Z"/></svg>