<?xml version="1.0" encoding="UTF-8" standalone="no"?>
<!DOCTYPE svg PUBLIC "-//W3C//DTD SVG 1.1//EN" "http://www.w3.org/Graphics/SVG/1.1/DTD/svg11.dtd">
<!-- Created with Vectornator (http://vectornator.io/) -->
<svg height="100%" stroke-miterlimit="10" style="fill-rule:nonzero;clip-rule:evenodd;stroke-linecap:round;stroke-linejoin:round;" version="1.1" viewBox="0 0 512 512" width="100%" xml:space="preserve" xmlns="http://www.w3.org/2000/svg" xmlns:vectornator="http://vectornator.io" xmlns:xlink="http://www.w3.org/1999/xlink">
<defs/>
<g id="Ebene-1" vectornator:layerName="Ebene 1">
<path d="M2.84217e-14 95C2.84217e-14 42.5329 42.5329 0 95 0L417 0C469.467 0 512 42.5329 512 95L512 417C512 469.467 469.467 512 417 512L95 512C42.5329 512 2.84217e-14 469.467 2.84217e-14 417L2.84217e-14 95Z" fill="#3088d4" fill-rule="nonzero" opacity="1" stroke="none" vectornator:layerName="Rechteck 1"/>
<g opacity="1" vectornator:layerName="mastodon-2.svg">
<path d="M434.599 295.796C429.115 324.014 385.482 354.895 335.364 360.878C309.232 363.995 283.5 366.862 256.068 365.601C211.198 363.55 175.79 354.895 175.79 354.895C175.79 359.262 176.061 363.42 176.601 367.308C182.435 411.596 220.509 414.248 256.573 415.484C292.977 416.73 325.393 406.508 325.393 406.508L326.889 439.425C326.889 439.425 301.427 453.093 256.068 455.61C231.051 456.986 199.996 454.98 163.823 445.408C85.3715 424.64 71.8778 341.005 69.8164 256.15C69.186 230.954 69.5763 207.198 69.5763 187.325C69.5763 100.554 126.423 75.1224 126.423 75.1224C155.087 61.9539 204.274 56.4203 255.407 56L256.668 56C307.796 56.4203 357.018 61.9539 385.682 75.1224C385.682 75.1224 442.529 100.554 442.529 187.325C442.529 187.325 443.239 251.347 434.599 295.796" fill="#ffffff" fill-rule="nonzero" opacity="1" stroke="none" vectornator:layerName="path"/>
<path d="M375.475 194.06L375.475 299.123L333.848 299.123L333.848 197.147C333.848 175.648 324.807 164.741 306.716 164.741C286.713 164.741 276.691 177.679 276.691 203.276L276.691 259.097L235.309 259.097L235.309 203.276C235.309 177.679 225.283 164.741 205.285 164.741C187.193 164.741 178.147 175.648 178.147 197.147L178.147 299.123L136.525 299.123L136.525 194.06C136.525 172.586 141.993 155.52 152.976 142.897C164.298 130.273 179.128 123.799 197.54 123.799C218.838 123.799 234.969 131.989 245.631 148.365L255.998 165.746L266.369 148.365C277.031 131.989 293.162 123.799 314.461 123.799C332.868 123.799 347.702 130.273 359.025 142.897C370.007 155.52 375.475 172.586 375.475 194.06Z" fill="#3088d4" fill-rule="nonzero" opacity="1" stroke="none" vectornator:layerName="path"/>
</g>
</g>
</svg>
