<?xml version="1.0" encoding="UTF-8"?><svg id="Ebene_2" xmlns="http://www.w3.org/2000/svg" viewBox="0 0 128 128"><defs><style>.cls-1{fill:#fff;}.cls-2{fill:#00b0ff;}</style></defs><rect class="cls-2" x="0" y="0" width="128" height="128" rx="25" ry="25" transform="translate(128 0) rotate(90)"/><path class="cls-1" d="m14.33,70.27V26.97l37.5,21.65v14.43l-25-14.43v28.87l-12.5-7.22Z"/><path class="cls-1" d="m51.83,48.62l37.5-21.65v43.3l-25,14.43-12.5-7.22,25-14.43v-14.43l-25,14.43v-14.43Z"/><path class="cls-1" d="m51.83,77.49v14.43l25,14.43v-14.43l-25-14.43Z"/><path class="cls-1" d="m76.83,106.36l37.5-21.65v-28.87l-12.5,7.22v14.43l-25,14.43v14.43Zm25-57.73v-14.43l12.5-7.22v14.43l-12.5,7.22Z"/></svg>