<?xml version="1.0" encoding="UTF-8"?><svg id="a" xmlns="http://www.w3.org/2000/svg" viewBox="0 0 128 128"><defs><style>.b{fill:#fff;}.c{fill:#f9ac00;}.d{fill:#eaeaea;}</style></defs><rect class="c" x="0" y="0" width="128" height="128" rx="25" ry="25" transform="translate(128 0) rotate(90)"/><path class="b" d="m17.8,43.89h92.39c1.8,0,3.26,1.46,3.26,3.26v33.7c0,1.8-1.46,3.26-3.26,3.26H17.8c-1.8,0-3.26-1.46-3.26-3.26v-33.7c0-1.8,1.46-3.26,3.26-3.26Z"/><path class="d" d="m17.8,43.35h92.39c2.1,0,3.8,1.7,3.8,3.8v33.7c0,2.1-1.7,3.8-3.8,3.8H17.8c-2.1,0-3.8-1.7-3.8-3.8v-33.7c0-2.1,1.7-3.8,3.8-3.8Zm0,1.09c-1.5,0-2.72,1.22-2.72,2.72v33.7c0,1.5,1.22,2.72,2.72,2.72h92.39c1.5,0,2.72-1.22,2.72-2.72v-33.7c0-1.5-1.22-2.72-2.72-2.72H17.8Z"/><polygon points="67.26 51.2 67.26 67.78 73.35 61.69 76.43 64.77 65.17 76.02 53.77 64.62 56.84 61.55 62.91 67.62 62.91 51.2 67.26 51.2"/><polygon points="28.09 75.18 28.09 62.34 35.96 70.2 43.88 62.28 43.88 75.05 48.23 75.05 48.23 51.78 35.96 64.05 23.75 51.84 23.75 75.18 28.09 75.18"/><polygon class="c" points="101.47 50.51 104.54 53.58 95.34 62.79 104.26 71.71 101.19 74.79 92.26 65.86 83.33 74.79 80.26 71.71 89.19 62.79 79.98 53.58 83.05 50.51 92.26 59.71 101.47 50.51"/></svg>