<?xml version="1.0" encoding="UTF-8"?><svg id="a" xmlns="http://www.w3.org/2000/svg" viewBox="0 0 128 128"><defs><style>.b{fill:#fff;}.c{fill:#df4f4f;}</style></defs><rect class="c" x="0" y="0" width="128" height="128" rx="25" ry="25" transform="translate(128 0) rotate(90)"/><path class="b" d="m14,14.97l85.64,90.71s2.92,2.06,5.15-.34c2.23-2.4.51-4.8.51-4.8L14,14.98h0Zm27.12,8.57l65.22,70.31s2.92,2.06,5.15-.34c2.23-2.4.51-4.8.51-4.8L41.12,23.55Zm-19.05,18.35l65.22,70.31s2.92,2.06,5.15-.34c2.23-2.4.51-4.8.51-4.8L22.07,41.9Zm41.97-10.98l45.56,49.12s2.04,1.44,3.6-.24c1.56-1.68.36-3.35.36-3.35l-49.52-45.53h0ZM28.34,63.16l45.56,49.12s2.04,1.44,3.6-.24c1.56-1.68.36-3.35.36-3.35L28.34,63.16Zm59.11-21.61l20.65,22.33s1.01.67,1.78-.11c.77-.79.18-1.57.18-1.57l-22.61-20.65Zm-47.71,44.24l20.65,22.33s1.01.67,1.78-.11c.77-.79.18-1.57.18-1.57l-22.61-20.65Z"/></svg>