<?xml version="1.0" encoding="UTF-8"?><svg id="a" xmlns="http://www.w3.org/2000/svg" viewBox="0 0 128 128"><defs><style>.b{fill:#fff;}.c{fill:#58a958;}</style></defs><rect class="c" x="0" y="0" width="128" height="128" rx="25" ry="25" transform="translate(128 0) rotate(90)"/><path class="b" d="m97.6,77.44c0,9.34-3.32,17.34-9.97,23.98-6.65,6.65-14.62,9.97-23.91,9.97s-17.34-3.32-23.98-9.97c-6.65-6.65-9.97-14.64-9.97-23.98s3.32-17.32,9.97-23.95c6.65-6.62,14.62-9.93,23.91-9.93s17.4,3.31,24.02,9.93c6.62,6.62,9.93,14.6,9.93,23.95h0Zm-5.85,0c0-7.75-2.73-14.36-8.2-19.83-5.47-5.47-12.08-8.2-19.83-8.2s-14.37,2.76-19.86,8.28c-5.49,5.52-8.24,12.1-8.24,19.75s2.75,14.24,8.24,19.79c5.49,5.54,12.11,8.32,19.86,8.32s14.29-2.76,19.79-8.28c5.49-5.52,8.24-12.13,8.24-19.83h0Z"/><path class="b" d="m81.83,50.48c0,9.34-3.32,17.34-9.97,23.98-6.65,6.65-14.62,9.97-23.91,9.97s-17.34-3.32-23.98-9.97c-6.65-6.65-9.97-14.64-9.97-23.98s3.32-17.32,9.97-23.95c6.65-6.62,14.62-9.93,23.91-9.93s17.4,3.31,24.02,9.93c6.62,6.62,9.93,14.6,9.93,23.95h0Zm-5.85,0c0-7.75-2.73-14.36-8.2-19.83-5.47-5.47-12.08-8.2-19.83-8.2s-14.37,2.76-19.86,8.28c-5.49,5.52-8.24,12.1-8.24,19.75s2.75,14.24,8.24,19.79c5.49,5.54,12.11,8.32,19.86,8.32s14.29-2.76,19.79-8.28c5.49-5.52,8.24-12.13,8.24-19.83Z"/><path class="b" d="m114,50.48c0,9.34-3.32,17.34-9.97,23.98-6.65,6.65-14.62,9.97-23.91,9.97s-17.34-3.32-23.98-9.97c-6.65-6.65-9.97-14.64-9.97-23.98s3.32-17.32,9.97-23.95c6.65-6.62,14.62-9.93,23.91-9.93s17.4,3.31,24.02,9.93c6.62,6.62,9.93,14.6,9.93,23.95h0Zm-5.85,0c0-7.75-2.73-14.36-8.2-19.83-5.47-5.47-12.08-8.2-19.83-8.2s-14.37,2.76-19.87,8.28c-5.49,5.52-8.24,12.1-8.24,19.75s2.75,14.24,8.24,19.79c5.49,5.54,12.11,8.32,19.86,8.32s14.29-2.76,19.79-8.28c5.49-5.52,8.24-12.13,8.24-19.83h0Z"/></svg>