<?xml version="1.0" encoding="UTF-8" standalone="no"?>
<!DOCTYPE svg PUBLIC "-//W3C//DTD SVG 1.1//EN" "http://www.w3.org/Graphics/SVG/1.1/DTD/svg11.dtd">
<!-- Created with Vectornator (http://vectornator.io/) -->
<svg height="100%" stroke-miterlimit="10" style="fill-rule:nonzero;clip-rule:evenodd;stroke-linecap:round;stroke-linejoin:round;" version="1.1" viewBox="0 0 512 512" width="100%" xml:space="preserve" xmlns="http://www.w3.org/2000/svg" xmlns:vectornator="http://vectornator.io" xmlns:xlink="http://www.w3.org/1999/xlink">
<defs/>
<g id="Ebene-1" vectornator:layerName="Ebene 1">
<path d="M2.84217e-14 95C2.84217e-14 42.5329 42.5329 0 95 0L417 0C469.467 0 512 42.5329 512 95L512 417C512 469.467 469.467 512 417 512L95 512C42.5329 512 2.84217e-14 469.467 2.84217e-14 417L2.84217e-14 95Z" fill="#00758f" fill-rule="nonzero" opacity="1" stroke="none" vectornator:layerName="Rechteck 1"/>
<g opacity="1" vectornator:layerName="g">
<path d="M219.111 299.759C212.824 333.95 204.536 358.825 194.246 374.28C186.228 386.225 177.445 392.198 167.881 392.198C165.329 392.198 162.189 391.428 158.454 389.899L158.454 381.649C160.275 381.924 162.414 382.062 164.872 382.062C169.333 382.062 172.93 380.83 175.668 378.36C178.946 375.352 180.585 371.975 180.585 368.23C180.585 365.673 179.304 360.42 176.757 352.479L159.818 299.737L174.981 299.737L187.135 339.186C189.869 348.14 191.007 354.393 190.551 357.957C197.205 340.148 201.847 320.745 204.487 299.77L219.105 299.77M152.174 367.966L136.741 367.966C136.197 341.842 134.695 317.286 132.232 294.27L132.105 294.27L108.605 367.966L96.8464 367.966L73.4891 294.27L73.3516 294.27C71.6192 316.368 70.5303 340.924 70.0738 367.966L56 367.966C56.9075 335.089 59.1898 304.279 62.8252 275.516L81.9532 275.516L104.222 343.437L104.359 343.437L126.765 275.516L145.068 275.516C149.072 309.207 151.442 340.027 152.163 367.966" fill="#ffffff" fill-rule="nonzero" opacity="1" stroke="none" vectornator:layerName="path"/>
<path d="M424.58 367.955L380.731 367.955L380.731 275.505L395.487 275.505L395.487 356.571L424.58 356.571L424.58 367.944M314.311 349.448C310.571 343.421 308.707 333.752 308.707 320.415C308.707 297.135 315.768 285.487 329.88 285.487C337.261 285.487 342.678 288.275 346.138 293.841C349.866 299.869 351.736 309.46 351.736 322.61C351.736 346.077 344.675 357.819 330.562 357.819C323.187 357.819 317.765 355.036 314.311 349.459M369.225 370.182L352.275 361.801C353.782 360.558 355.218 359.216 356.51 357.676C363.715 349.19 367.312 336.634 367.312 320.008C367.312 289.419 355.333 274.119 331.382 274.119C319.634 274.119 310.477 277.996 303.922 285.767C296.717 294.259 293.126 306.776 293.126 323.297C293.126 339.549 296.316 351.472 302.684 359.045C308.492 365.893 317.275 369.319 329.039 369.319C333.428 369.319 337.454 368.78 341.111 367.697L363.181 380.577L369.198 370.182M286.702 342.326C286.702 350.169 283.831 356.604 278.101 361.641C272.37 366.652 264.665 369.17 255.024 369.17C246.004 369.17 237.26 366.272 228.79 360.536L232.755 352.594C240.043 356.246 246.637 358.067 252.554 358.067C258.109 358.067 262.454 356.829 265.6 354.382C268.735 351.912 270.621 348.475 270.621 344.114C270.621 338.625 266.799 333.934 259.798 329.996C253.309 326.376 246.845 322.713 240.406 319.008C233.404 313.882 229.89 308.388 229.89 299.335C229.89 291.844 232.508 285.789 237.738 281.186C242.979 276.566 249.744 274.256 258.027 274.256C266.59 274.256 274.372 276.55 281.384 281.12L277.82 289.056C271.825 286.504 265.908 285.223 260.073 285.223C255.343 285.223 251.691 286.367 249.15 288.655C246.593 290.926 245.014 293.852 245.014 297.416C245.014 302.893 248.919 307.645 256.118 311.66C262.663 315.218 275.912 322.791 275.912 322.791C283.116 327.906 286.708 333.356 286.708 342.337M435.085 367.955L437.532 367.955L437.532 358.55L440.727 358.55L440.727 356.626L431.763 356.626L431.763 358.55L435.085 358.55L435.085 367.955ZM453.69 367.955L455.995 367.955L455.995 356.626L452.53 356.626L449.708 364.347L446.634 356.626L443.296 356.626L443.296 367.955L445.479 367.955L445.479 359.331L445.6 359.331L448.817 367.955L450.478 367.955L453.69 359.331L453.69 367.955Z" fill="#f29111" fill-rule="nonzero" opacity="1" stroke="none" vectornator:layerName="path"/>
<path d="M301.936 119.813C298.037 119.758 294.638 121.227 292.884 125.544C289.876 132.809 297.339 139.953 299.907 143.644C301.799 146.212 304.252 149.121 305.583 152.02C306.364 153.917 306.589 155.935 307.37 157.943C309.152 162.86 310.818 168.332 313.161 172.919C314.382 175.267 315.719 177.725 317.281 179.837C318.177 181.075 319.733 181.625 320.069 183.643C318.513 185.87 318.392 189.225 317.506 192.025C313.491 204.646 315.053 220.288 320.734 229.56C322.516 232.348 326.751 238.497 332.438 236.149C337.454 234.141 336.343 227.773 337.784 222.19C338.119 220.838 337.894 219.952 338.565 219.056L338.565 219.287C340.121 222.41 341.688 225.419 343.135 228.559C346.594 234.026 352.605 239.724 357.621 243.518C360.288 245.537 362.406 248.996 365.75 250.228L365.75 249.887L365.53 249.887C364.859 248.886 363.858 248.435 362.967 247.66C360.959 245.647 358.737 243.188 357.176 240.95C352.501 234.702 348.371 227.773 344.702 220.623C342.915 217.153 341.358 213.358 339.906 209.899C339.241 208.562 339.241 206.544 338.125 205.878C336.447 208.331 334 210.46 332.779 213.462C330.661 218.275 330.441 224.192 329.655 230.336C329.215 230.451 329.435 230.336 329.215 230.556C325.651 229.665 324.425 225.98 323.083 222.856C319.739 214.92 319.178 202.177 322.082 193.025C322.852 190.683 326.207 183.313 324.865 181.075C324.194 178.941 321.966 177.72 320.74 176.042C319.187 173.788 317.847 171.395 316.736 168.893C314.063 162.64 312.721 155.71 309.828 149.457C308.492 146.542 306.144 143.534 304.257 140.855C302.134 137.836 299.803 135.713 298.125 132.144C297.575 130.912 296.794 128.899 297.685 127.562C297.9 126.666 298.351 126.33 299.247 126.105C300.682 124.878 304.813 126.435 306.259 127.106C310.384 128.778 313.838 130.351 317.286 132.688C318.843 133.81 320.514 135.933 322.522 136.494L324.865 136.494C328.429 137.275 332.443 136.714 335.787 137.72C341.688 139.618 347.034 142.412 351.83 145.425C366.59 154.863 378.582 168.047 386.583 183.632C387.924 186.2 388.485 188.549 389.706 191.222C392.049 196.71 394.948 202.293 397.285 207.649C399.622 212.901 401.855 218.264 405.205 222.619C406.866 224.962 413.553 226.194 416.562 227.421C418.789 228.422 422.243 229.318 424.25 230.545C428.045 232.887 431.818 235.571 435.387 238.145C437.169 239.487 442.735 242.275 443.07 244.514C434.161 244.294 427.253 245.185 421.456 247.649C419.79 248.314 417.117 248.314 416.892 250.437C417.788 251.328 417.892 252.78 418.679 254.012C420.015 256.25 422.347 259.259 424.47 260.832C426.813 262.619 429.15 264.401 431.603 265.963C435.948 268.658 440.848 270.214 445.078 272.892C447.536 274.454 449.983 276.467 452.436 278.145C453.657 279.036 454.433 280.493 456 281.043L456 280.702C455.214 279.701 454.994 278.249 454.218 277.127C453.107 276.016 451.991 275.01 450.874 273.893C447.61 269.567 443.704 265.765 439.292 262.619C435.723 260.15 427.918 256.795 426.478 252.675L426.252 252.45C428.699 252.224 431.603 251.328 433.946 250.652C437.724 249.645 441.184 249.871 445.083 248.87C446.865 248.419 448.647 247.858 450.44 247.313L450.44 246.296C448.421 244.294 446.98 241.604 444.869 239.707C439.193 234.796 432.945 229.995 426.483 225.963C423.018 223.73 418.563 222.284 414.89 220.381C413.559 219.71 411.331 219.38 410.545 218.258C408.543 215.8 407.421 212.566 405.98 209.657C402.686 203.296 399.639 196.811 396.845 190.215C394.838 185.859 393.611 181.509 391.164 177.483C379.68 158.487 367.207 146.987 348.046 135.702C343.921 133.354 339.021 132.347 333.791 131.121C330.997 131.005 328.22 130.791 325.431 130.681C323.644 129.889 321.856 127.766 320.3 126.759C316.329 124.246 308.443 119.901 301.947 119.802L301.936 119.813ZM329.424 147.427C327.532 147.427 326.201 147.658 324.859 147.988L324.859 148.208L325.074 148.208C325.97 149.996 327.532 151.233 328.638 152.795C329.534 154.582 330.315 156.364 331.206 158.152L331.426 157.932C332.993 156.815 333.774 155.028 333.774 152.344C333.098 151.558 332.993 150.782 332.432 149.996C331.767 148.885 330.315 148.324 329.424 147.427Z" fill="#ffffff" fill-rule="nonzero" opacity="1" stroke="none" vectornator:layerName="path"/>
</g>
</g>
</svg>
