<?xml version="1.0" encoding="UTF-8"?><svg id="a" xmlns="http://www.w3.org/2000/svg" viewBox="0 0 128 128"><defs><style>.b{fill:#e0234e;}.c{fill:#fff;}</style></defs><rect class="b" x="0" y="0" width="128" height="128" rx="25" ry="25" transform="translate(128 0) rotate(90)"/><path class="c" d="m72.88,14.2c-.72,0-1.39.15-2.01.36,1.32.88,2.04,2.04,2.4,3.36.03.18.08.31.1.49.03.15.05.31.05.46.1,2.27-.59,2.56-1.08,3.9-.75,1.73-.54,3.59.36,5.09.08.18.18.39.31.57-.98-6.53,4.47-7.52,5.47-9.56.08-1.78-1.39-2.97-2.56-3.8-1.11-.67-2.12-.88-3.05-.88Zm8.21,1.47c-.1.59-.03.44-.05.75-.03.21-.03.46-.05.67-.05.21-.1.41-.18.62-.05.21-.13.41-.21.62-.1.21-.18.39-.28.59-.08.1-.13.21-.21.31-.05.08-.1.15-.15.23-.13.18-.26.36-.39.52-.15.15-.28.34-.46.46v.03c-.15.13-.31.28-.49.41-.54.41-1.16.72-1.73,1.11-.18.13-.36.23-.52.39-.18.13-.34.26-.49.41-.18.15-.31.31-.46.49-.13.15-.28.34-.39.52-.13.18-.26.36-.36.54-.1.21-.18.39-.28.59-.08.21-.15.39-.21.59-.08.23-.13.44-.18.65-.03.1-.03.23-.05.34-.03.1-.03.21-.05.31,0,.21-.03.44-.03.65,0,.15,0,.31.03.46,0,.21.03.41.08.65.03.21.08.41.13.62.08.21.13.41.21.62.05.13.13.26.18.36l-5.94-2.3c-1.01-.28-1.99-.54-3-.77-.54-.13-1.08-.26-1.63-.39-1.55-.31-3.12-.54-4.7-.7-.05,0-.08-.03-.13-.03-1.55-.15-3.07-.23-4.62-.23-1.14,0-2.27.05-3.38.13-1.58.1-3.15.31-4.73.57-.39.05-.77.13-1.16.21-.8.15-1.58.34-2.32.52-.39.1-.77.21-1.16.31-.39.15-.75.34-1.11.49-.28.13-.57.26-.85.39-.05.03-.1.03-.13.05-.26.13-.49.23-.72.36-.08.03-.13.05-.18.08-.28.13-.57.28-.8.41-.18.08-.36.18-.52.26-.08.05-.18.1-.23.13-.23.13-.46.26-.67.39-.23.13-.44.26-.62.39-.18.13-.36.23-.52.36-.03.03-.05.03-.08.05-.15.1-.34.23-.49.36,0,0-.03.03-.05.05-.13.1-.26.21-.39.31-.05.03-.1.08-.15.1-.13.1-.26.23-.39.34-.03.05-.08.08-.1.1-.15.15-.31.28-.46.44-.03,0-.03.03-.05.05-.15.13-.31.28-.46.44-.03.03-.03.05-.05.05-.13.13-.26.26-.39.41-.05.05-.13.1-.18.15-.13.15-.28.31-.44.46-.03.05-.08.08-.1.13-.21.21-.39.41-.59.62-.03.03-.05.05-.08.08-.41.44-.85.88-1.32,1.27-.46.41-.96.8-1.45,1.14-.52.36-1.01.67-1.55.98-.52.28-1.06.54-1.63.77-.54.23-1.11.44-1.68.62-1.08.23-2.2.67-3.15.75-.21,0-.44.05-.65.08-.23.05-.44.1-.65.15-.21.08-.41.15-.62.23-.21.08-.41.18-.62.28-.18.13-.39.23-.57.36-.18.13-.36.28-.52.44-.18.13-.36.31-.52.46-.15.18-.31.34-.44.52-.13.21-.28.39-.39.59-.13.18-.26.39-.36.59-.1.23-.21.44-.28.67-.08.21-.15.44-.23.67-.05.21-.1.41-.13.62,0,.03-.03.05-.03.08-.05.23-.05.54-.08.7-.03.18-.05.34-.05.52,0,.1,0,.23.03.34.03.18.05.34.1.49.05.15.1.31.18.46v.03c.08.15.18.31.28.46.1.15.21.31.34.46.13.13.28.28.44.41.15.15.31.28.49.41.62.54.77.72,1.58,1.14.13.08.26.13.41.21.03,0,.05.03.08.03,0,.05,0,.08.03.13.03.21.08.41.13.62.05.23.13.44.21.62.08.15.13.31.21.46.03.05.05.1.08.13.1.21.21.39.31.57.13.18.26.36.39.54.13.15.28.34.44.49.15.15.31.28.49.44,0,0,.03.03.05.03.15.13.31.26.46.36.18.13.36.23.57.34.18.1.39.21.59.28.15.08.34.13.52.18.03.03.05.03.1.05.1.03.23.05.34.08-.08,1.39-.1,2.71.1,3.18.23.52,1.37-1.06,2.51-2.87-.15,1.78-.26,3.87,0,4.49.28.65,1.83-1.37,3.18-3.59,18.31-4.24,35.02,8.42,36.78,26.29-.34-2.79-3.77-4.34-5.35-3.95-.77,1.91-2.09,4.36-4.21,5.89.18-1.7.1-3.46-.26-5.17-.57,2.38-1.68,4.6-3.2,6.51-2.45.18-4.91-1.01-6.2-2.79-.1-.08-.13-.23-.21-.34-.08-.18-.15-.36-.21-.54-.08-.18-.13-.36-.15-.54-.03-.18-.03-.36-.03-.57v-.39c.03-.18.08-.36.13-.54.05-.18.1-.36.18-.54.1-.18.18-.36.31-.54.44-1.24.44-2.25-.36-2.84-.15-.1-.31-.18-.49-.26-.1-.03-.23-.08-.34-.1-.08-.03-.13-.05-.21-.08-.18-.05-.36-.1-.54-.13-.18-.05-.36-.08-.54-.08-.18-.03-.39-.05-.57-.05-.13,0-.26.03-.39.03-.21,0-.39.03-.57.08-.18.03-.36.05-.54.1-.18.05-.36.1-.54.18-.18.08-.34.15-.52.23-.15.08-.31.18-.49.26-6.02,3.93-2.43,13.12,1.68,15.78-1.55.28-3.12.62-3.56.96-.03.03-.05.05-.05.05,1.11.67,2.27,1.24,3.49,1.73,1.65.54,3.41,1.03,4.18,1.24v.03c2.14.44,4.31.59,6.51.46,11.44-.8,20.82-9.5,22.52-20.97.05.23.1.44.15.67.08.46.18.96.23,1.45v.03c.05.23.08.46.1.67v.1c.03.23.05.46.05.67.03.28.05.57.05.85v.41c0,.13.03.28.03.41,0,.15-.03.31-.03.46v.36c0,.18-.03.34-.03.52,0,.1,0,.21-.03.34,0,.18-.03.36-.03.57-.03.08-.03.15-.03.23-.03.21-.05.39-.08.59,0,.08,0,.15-.03.23-.03.26-.08.49-.1.75v.05c-.05.23-.1.49-.15.72v.08c-.05.23-.1.46-.15.7,0,.03-.03.08-.03.1-.05.23-.1.46-.18.7v.08c-.08.26-.15.49-.21.72-.03.03-.03.05-.03.05-.08.26-.15.52-.23.77-.1.26-.18.49-.28.75-.1.26-.18.52-.28.75-.1.26-.21.49-.31.75h-.03c-.1.23-.21.49-.34.72h0c-.03.08-.05.13-.08.18-.03.03-.03.05-.05.08-1.68,3.38-4.16,6.35-7.26,8.68-.21.13-.41.28-.62.44h0c-.05.05-.13.08-.18.13-.18.13-.36.26-.57.39l.08.15h.03c.36-.05.72-.1,1.08-.15h.03c.67-.1,1.34-.23,2.01-.36.18-.03.39-.08.57-.13.13-.03.23-.05.36-.08.18-.03.36-.08.54-.1.15-.05.31-.08.46-.13,2.58-.62,5.09-1.47,7.49-2.48-4.11,5.6-9.61,10.12-16.04,13.09,2.97-.21,5.94-.7,8.81-1.52,10.41-3.07,19.16-10.07,24.4-19.5-1.06,5.97-3.43,11.65-6.95,16.61,2.51-1.65,4.8-3.56,6.9-5.73,5.78-6.04,9.58-13.71,10.87-21.95.88,4.08,1.14,8.29.75,12.45,18.65-26.01,1.55-52.97-5.6-60.07-.03-.05-.05-.08-.05-.13t-.03.05s0-.03-.03-.05c0,.31-.03.62-.05.93-.08.59-.15,1.16-.26,1.73-.13.57-.28,1.14-.44,1.7-.18.54-.39,1.11-.62,1.65-.23.52-.49,1.06-.77,1.58-.28.49-.59,1.01-.93,1.47-.34.49-.7.96-1.06,1.39-.39.46-.8.88-1.21,1.29-.26.23-.49.44-.75.65-.21.18-.39.34-.59.52-.46.36-.93.7-1.45,1.01-.49.31-1.01.62-1.52.88-.54.26-1.08.49-1.63.72-.54.21-1.11.39-1.68.54-.57.15-1.16.28-1.73.39-.59.1-1.19.15-1.76.21-.41.03-.83.05-1.24.05-.59,0-1.19-.05-1.76-.1-.59-.05-1.19-.13-1.76-.26-.59-.1-1.16-.26-1.73-.44h-.03c.57-.05,1.14-.1,1.7-.21.59-.1,1.16-.23,1.73-.39.57-.15,1.14-.34,1.68-.54.57-.21,1.11-.46,1.63-.72.54-.26,1.03-.54,1.55-.85.49-.34.98-.67,1.45-1.03.46-.36.9-.75,1.32-1.16.44-.39.83-.83,1.21-1.27.39-.46.75-.93,1.08-1.39.05-.08.1-.18.15-.26.26-.41.52-.83.75-1.24.28-.52.54-1.03.77-1.58.23-.54.44-1.08.62-1.65.18-.54.31-1.11.44-1.68.1-.59.21-1.16.26-1.73.05-.59.1-1.19.1-1.76,0-.41-.03-.83-.05-1.24-.05-.59-.13-1.16-.21-1.73-.1-.59-.23-1.16-.39-1.73-.18-.54-.36-1.11-.57-1.65-.21-.54-.46-1.08-.72-1.6-.28-.52-.57-1.03-.88-1.52-.34-.49-.67-.96-1.03-1.42-.39-.44-.77-.88-1.19-1.32-.21-.21-.44-.44-.67-.65-1.16-.9-2.38-1.76-3.59-2.53-.18-.1-.34-.18-.52-.26-.85-.54-1.65-.83-2.45-1.08h0Z"/></svg>