<?xml version="1.0" encoding="UTF-8"?><svg id="Ebene_1" xmlns="http://www.w3.org/2000/svg" viewBox="0 0 128 128"><defs><style>.cls-1{fill:#fff;}</style></defs><rect width="128" height="128" rx="25" ry="25"/><path class="cls-1" d="m60.73,14.03c-.22.02-.9.09-1.52.14-14.2,1.28-27.51,8.94-35.93,20.72-4.69,6.55-7.69,13.98-8.83,21.84-.4,2.75-.45,3.56-.45,7.28s.05,4.54.45,7.28c2.72,18.78,16.08,34.55,34.2,40.39,3.25,1.05,6.67,1.76,10.56,2.19,1.52.17,8.06.17,9.58,0,6.72-.74,12.4-2.4,18.02-5.27.86-.44,1.03-.56.91-.65-.08-.06-3.74-4.97-8.14-10.92l-8-10.8-10.02-14.83c-5.51-8.15-10.05-14.82-10.09-14.82-.04,0-.08,6.58-.1,14.62-.03,14.08-.04,14.65-.22,14.98-.25.48-.45.67-.86.89-.31.16-.59.19-2.06.19h-1.69l-.45-.28c-.29-.19-.51-.43-.65-.71l-.21-.44.02-19.6.03-19.61.3-.38c.16-.21.49-.47.72-.6.4-.2.56-.22,2.25-.22,1.99,0,2.33.08,2.84.65.15.16,5.57,8.33,12.06,18.17,6.49,9.84,15.37,23.28,19.73,29.88l7.92,11.99.4-.26c3.55-2.31,7.3-5.59,10.27-9.01,6.32-7.26,10.4-16.12,11.77-25.56.4-2.75.45-3.56.45-7.28s-.05-4.54-.45-7.28c-2.72-18.78-16.08-34.55-34.2-40.39-3.2-1.04-6.6-1.75-10.41-2.18-.94-.1-7.4-.21-8.21-.13h0Zm20.47,30.24c.47.23.85.68.99,1.15.08.25.1,5.69.08,17.93l-.03,17.57-3.1-4.75-3.11-4.75v-12.77c0-8.26.04-12.9.1-13.13.16-.55.5-.98.97-1.23.4-.21.55-.22,2.08-.22,1.45,0,1.7.02,2.02.2Z"/></svg>