<?xml version="1.0" encoding="UTF-8"?><svg id="Ebene_1" xmlns="http://www.w3.org/2000/svg" viewBox="0 0 128 128"><defs><style>.cls-1{fill:#fff;}</style></defs><rect width="128" height="128" rx="25" ry="25"/><path class="cls-1" d="m61.05,19.02c-.19.02-.81.08-1.36.12-12.78,1.15-24.76,8.05-32.34,18.65-4.22,5.89-6.92,12.58-7.94,19.66-.36,2.47-.4,3.2-.4,6.55s.04,4.08.4,6.55c2.45,16.9,14.47,31.1,30.78,36.36,2.92.94,6,1.58,9.5,1.97,1.36.15,7.26.15,8.62,0,6.04-.67,11.16-2.16,16.21-4.74.77-.4.92-.5.82-.59-.07-.05-3.37-4.48-7.33-9.83l-7.2-9.72-9.02-13.34c-4.96-7.34-9.04-13.34-9.08-13.34-.04,0-.07,5.92-.09,13.16-.03,12.68-.04,13.19-.19,13.48-.23.43-.4.61-.77.8-.28.14-.53.17-1.86.17h-1.52l-.4-.26c-.26-.17-.46-.39-.59-.64l-.18-.4.02-17.64.03-17.65.27-.34c.14-.18.44-.42.65-.54.36-.18.5-.19,2.02-.19,1.79,0,2.09.07,2.56.58.13.14,5.01,7.49,10.86,16.35,5.84,8.86,13.83,20.95,17.75,26.89l7.13,10.79.36-.24c3.19-2.08,6.57-5.03,9.25-8.11,5.69-6.54,9.36-14.51,10.59-23,.36-2.47.4-3.2.4-6.55s-.04-4.08-.4-6.55c-2.45-16.9-14.47-31.1-30.78-36.36-2.88-.93-5.94-1.57-9.37-1.96-.84-.09-6.66-.18-7.39-.11h0Zm18.42,27.22c.42.21.77.62.89,1.04.07.23.09,5.12.07,16.14l-.03,15.82-2.79-4.28-2.8-4.28v-11.5c0-7.43.04-11.61.09-11.81.14-.49.45-.88.87-1.11.36-.18.49-.2,1.87-.2,1.3,0,1.53.02,1.82.18Z"/></svg>