<?xml version="1.0" encoding="UTF-8" standalone="no"?>
<!DOCTYPE svg PUBLIC "-//W3C//DTD SVG 1.1//EN" "http://www.w3.org/Graphics/SVG/1.1/DTD/svg11.dtd">
<!-- Created with Vectornator (http://vectornator.io/) -->
<svg height="100%" stroke-miterlimit="10" style="fill-rule:nonzero;clip-rule:evenodd;stroke-linecap:round;stroke-linejoin:round;" version="1.1" viewBox="0 0 512 512" width="100%" xml:space="preserve" xmlns="http://www.w3.org/2000/svg" xmlns:vectornator="http://vectornator.io" xmlns:xlink="http://www.w3.org/1999/xlink">
<defs/>
<g id="Ebene-1" vectornator:layerName="Ebene 1">
<path d="M2.84217e-14 95C2.84217e-14 42.5329 42.5329 0 95 0L417 0C469.467 0 512 42.5329 512 95L512 417C512 469.467 469.467 512 417 512L95 512C42.5329 512 2.84217e-14 469.467 2.84217e-14 417L2.84217e-14 95Z" fill="#242628" fill-rule="nonzero" opacity="1" stroke="none" vectornator:layerName="Rechteck 1"/>
</g>
<g id="Ebene-2" vectornator:layerName="Ebene 2">
<g opacity="1" vectornator:layerName="next-js.svg">
<path d="M242.903 56.1076C242.043 56.1858 239.306 56.4595 236.843 56.655C180.039 61.7764 126.83 92.4268 93.1305 139.536C74.3649 165.73 62.3628 195.442 57.8278 226.913C56.2249 237.899 56.0294 241.144 56.0294 256.039C56.0294 270.934 56.2249 274.179 57.8278 285.165C68.6961 360.266 122.139 423.365 194.621 446.744C207.6 450.927 221.284 453.781 236.843 455.502C242.903 456.166 269.097 456.166 275.157 455.502C302.015 452.53 324.768 445.884 347.208 434.429C350.649 432.67 351.313 432.201 350.844 431.81C350.532 431.575 335.871 411.911 318.278 388.141L286.299 344.941L246.226 285.634C224.177 253.029 206.037 226.366 205.88 226.366C205.724 226.327 205.568 252.677 205.489 284.852C205.372 341.188 205.333 343.455 204.629 344.785C203.613 346.7 202.831 347.482 201.189 348.342C199.938 348.968 198.843 349.085 192.94 349.085L186.176 349.085L184.378 347.951C183.205 347.209 182.345 346.231 181.759 345.097L180.938 343.338L181.016 264.953L181.133 186.528L182.345 185.004C182.971 184.183 184.3 183.127 185.238 182.619C186.841 181.837 187.467 181.759 194.23 181.759C202.205 181.759 203.535 182.072 205.607 184.339C206.193 184.965 227.891 217.648 253.85 257.017C279.809 296.385 315.307 350.141 332.743 376.53L364.41 424.499L366.013 423.444C380.205 414.217 395.217 401.081 407.102 387.398C432.396 358.351 448.699 322.931 454.172 285.165C455.775 274.179 455.971 270.934 455.971 256.039C455.971 241.144 455.775 237.899 454.172 226.913C443.304 151.812 389.861 88.7128 317.379 65.334C304.595 61.19 290.99 58.3361 275.743 56.6159C271.99 56.2249 246.148 55.7949 242.903 56.1076ZM324.768 177.067C326.645 178.006 328.169 179.804 328.717 181.681C329.029 182.697 329.108 204.434 329.029 253.42L328.912 323.712L316.519 304.712L304.087 285.712L304.087 234.615C304.087 201.58 304.243 183.01 304.478 182.111C305.103 179.921 306.472 178.201 308.348 177.185C309.951 176.364 310.537 176.285 316.675 176.285C322.461 176.285 323.478 176.364 324.768 177.067Z" fill="#ffffff" fill-rule="nonzero" opacity="1" stroke="none" vectornator:layerName="path"/>
<path d="M362.456 425.359C361.087 426.219 360.657 426.806 361.869 426.141C362.729 425.633 364.137 424.577 363.902 424.538C363.785 424.538 363.12 424.929 362.456 425.359ZM359.758 427.119C359.054 427.666 359.054 427.705 359.914 427.275C360.383 427.04 360.774 426.767 360.774 426.689C360.774 426.376 360.579 426.454 359.758 427.119ZM357.803 428.291C357.1 428.839 357.1 428.878 357.96 428.448C358.429 428.213 358.82 427.94 358.82 427.861C358.82 427.549 358.624 427.627 357.803 428.291ZM355.848 429.464C355.145 430.012 355.145 430.051 356.005 429.621C356.474 429.386 356.865 429.112 356.865 429.034C356.865 428.722 356.669 428.8 355.848 429.464ZM352.877 431.028C351.392 431.81 351.47 432.123 352.955 431.38C353.62 431.028 354.128 430.676 354.128 430.598C354.128 430.324 354.089 430.363 352.877 431.028Z" fill="#ffffff" fill-rule="nonzero" opacity="1" stroke="none" vectornator:layerName="path"/>
</g>
</g>
</svg>
