<?xml version="1.0" encoding="UTF-8"?>
<svg id="Ebene_1" data-name="Ebene 1" xmlns="http://www.w3.org/2000/svg" viewBox="0 0 256 256">
  <defs>
    <style>
      .cls-1 {
        fill: #fff;
      }

      .cls-2 {
        fill: #8cc84b;
      }
    </style>
  </defs>
  <g id="Ebene_2" data-name="Ebene 2">
    <path class="cls-2" d="m45,0h166c24.85,0,45,20.15,45,45v166c0,24.85-20.15,45-45,45H45c-24.85,0-45-20.15-45-45V45C0,20.15,20.15,0,45,0Z"/>
  </g>
  <g>
    <path class="cls-1" d="m119.4,25.24c5.21-2.98,11.99-2.99,17.19,0,26.17,14.79,52.36,29.56,78.52,44.35,4.92,2.77,8.21,8.25,8.16,13.92v88.98c.04,5.91-3.58,11.52-8.77,14.22-26.09,14.71-52.16,29.43-78.24,44.14-5.31,3.04-12.23,2.8-17.38-.48-7.82-4.53-15.66-9.05-23.48-13.57-1.6-.95-3.4-1.71-4.53-3.26,1-1.34,2.78-1.51,4.23-2.1,3.26-1.04,6.26-2.7,9.26-4.32.76-.52,1.68-.32,2.41.14,6.69,3.83,13.32,7.78,20.03,11.58,1.43.83,2.88-.27,4.1-.95,25.6-14.47,51.23-28.88,76.83-43.36.95-.46,1.47-1.46,1.4-2.5.02-29.35,0-58.71,0-88.06.11-1.18-.57-2.26-1.64-2.74-26-14.64-51.98-29.3-77.97-43.95-.92-.63-2.14-.64-3.06,0-25.99,14.65-51.97,29.33-77.96,43.97-1.06.48-1.77,1.55-1.65,2.73,0,29.35,0,58.71,0,88.07-.09,1.04.47,2.02,1.41,2.47,6.94,3.93,13.88,7.84,20.82,11.76,3.91,2.1,8.71,3.36,13.02,1.74,3.8-1.36,6.47-5.24,6.39-9.28.04-29.18-.02-58.37.03-87.54-.09-1.3,1.13-2.37,2.39-2.24,3.33-.02,6.67-.04,10,0,1.39-.03,2.35,1.36,2.18,2.67-.01,29.37.04,58.73-.02,88.1,0,7.83-3.21,16.34-10.45,20.17-8.92,4.62-19.94,3.64-28.75-.79-7.63-3.81-14.91-8.3-22.4-12.38-5.21-2.69-8.81-8.33-8.77-14.23v-88.98c-.05-5.79,3.37-11.37,8.44-14.1,26.08-14.72,52.16-29.45,78.24-44.18Z"/>
    <path class="cls-1" d="m142.16,86.88c11.38-.73,23.55-.43,33.79,5.17,7.93,4.29,12.32,13.31,12.46,22.11-.22,1.19-1.46,1.84-2.6,1.76-3.3,0-6.6.04-9.9-.02-1.4.05-2.21-1.24-2.39-2.47-.95-4.21-3.25-8.39-7.21-10.42-6.09-3.05-13.15-2.89-19.78-2.83-4.85.26-10.06.68-14.16,3.53-3.15,2.16-4.11,6.52-2.98,10.03,1.06,2.52,3.97,3.33,6.35,4.08,13.71,3.59,28.24,3.23,41.68,7.95,5.57,1.92,11.01,5.66,12.92,11.49,2.49,7.81,1.4,17.15-4.16,23.42-4.51,5.16-11.07,7.97-17.62,9.5-8.71,1.94-17.75,1.99-26.6,1.13-8.32-.95-16.97-3.13-23.4-8.8-5.49-4.77-8.17-12.2-7.91-19.37.06-1.21,1.27-2.06,2.43-1.96,3.32-.03,6.65-.04,9.97,0,1.33-.09,2.31,1.05,2.38,2.3.61,4.01,2.12,8.23,5.62,10.61,6.76,4.36,15.23,4.06,22.97,4.18,6.41-.28,13.6-.37,18.83-4.61,2.76-2.42,3.58-6.46,2.83-9.93-.81-2.94-3.88-4.3-6.52-5.2-13.53-4.28-28.22-2.73-41.63-7.57-5.44-1.92-10.7-5.56-12.79-11.15-2.92-7.91-1.58-17.7,4.56-23.76,5.99-6.03,14.63-8.35,22.85-9.18h0Z"/>
  </g>
</svg>