<?xml version="1.0" encoding="UTF-8"?><svg id="Ebene_1" xmlns="http://www.w3.org/2000/svg" viewBox="0 0 128 128"><defs><style>.cls-1{fill:#fff;}.cls-2{fill:#539e43;}</style></defs><rect class="cls-2" width="128" height="128" rx="25" ry="25"/><path class="cls-1" d="m64,114c-1.38,0-2.66-.37-3.86-1.01l-12.22-7.26c-1.84-1.01-.92-1.38-.37-1.56,2.48-.83,2.94-1.01,5.51-2.48.28-.18.64-.09.92.09l9.37,5.6c.37.18.83.18,1.1,0l36.66-21.22c.37-.18.55-.55.55-1.01v-42.35c0-.46-.18-.83-.55-1.01l-36.66-21.13c-.37-.18-.83-.18-1.1,0l-36.66,21.13c-.37.18-.55.64-.55,1.01v42.35c0,.37.18.83.55,1.01l10.01,5.79c5.42,2.76,8.82-.46,8.82-3.67v-41.8c0-.55.46-1.1,1.1-1.1h4.69c.55,0,1.1.46,1.1,1.1v41.8c0,7.26-3.95,11.48-10.84,11.48-2.11,0-3.77,0-8.45-2.3l-9.65-5.51c-2.39-1.38-3.86-3.95-3.86-6.71v-42.35c0-2.76,1.47-5.33,3.86-6.71L60.14,14.96c2.3-1.29,5.42-1.29,7.72,0l36.66,21.22c2.39,1.38,3.86,3.95,3.86,6.71v42.35c0,2.76-1.47,5.33-3.86,6.71l-36.66,21.22c-1.19.55-2.57.83-3.86.83h0Zm11.3-29.12c-16.08,0-19.38-7.35-19.38-13.6,0-.55.46-1.1,1.1-1.1h4.78c.55,0,1.01.37,1.01.92.73,4.87,2.85,7.26,12.59,7.26,7.72,0,11.02-1.75,11.02-5.88,0-2.39-.92-4.13-12.95-5.33-10.01-1.01-16.26-3.22-16.26-11.21,0-7.44,6.25-11.85,16.72-11.85,11.76,0,17.55,4.04,18.28,12.86,0,.28-.09.55-.28.83-.18.18-.46.37-.73.37h-4.78c-.46,0-.92-.37-1.01-.83-1.1-5.05-3.95-6.71-11.48-6.71-8.45,0-9.46,2.94-9.46,5.14,0,2.66,1.19,3.49,12.59,4.96,11.3,1.47,16.63,3.58,16.63,11.48-.09,8.08-6.71,12.68-18.37,12.68h0Z"/></svg>