<?xml version="1.0" encoding="UTF-8" standalone="no"?>
<!DOCTYPE svg PUBLIC "-//W3C//DTD SVG 1.1//EN" "http://www.w3.org/Graphics/SVG/1.1/DTD/svg11.dtd">
<!-- Created with Vectornator (http://vectornator.io/) -->
<svg height="100%" stroke-miterlimit="10" style="fill-rule:nonzero;clip-rule:evenodd;stroke-linecap:round;stroke-linejoin:round;" version="1.1" viewBox="0 0 512 512" width="100%" xml:space="preserve" xmlns="http://www.w3.org/2000/svg" xmlns:vectornator="http://vectornator.io" xmlns:xlink="http://www.w3.org/1999/xlink">
<defs/>
<g id="Ebene-1" vectornator:layerName="Ebene 1">
<path d="M2.84217e-14 95C2.84217e-14 42.5329 42.5329 0 95 0L417 0C469.467 0 512 42.5329 512 95L512 417C512 469.467 469.467 512 417 512L95 512C42.5329 512 2.84217e-14 469.467 2.84217e-14 417L2.84217e-14 95Z" fill="#8cc84b" fill-rule="nonzero" opacity="1" stroke="none" vectornator:layerName="Rechteck 1"/>
<g opacity="1" vectornator:layerName="g">
<path d="M239.623 60.2674C249.541 54.5903 262.459 54.5647 272.369 60.2674C322.223 88.4378 372.093 116.564 421.939 144.751C431.314 150.032 437.586 160.466 437.49 171.269L437.49 340.753C437.56 352.003 430.669 362.686 420.778 367.847C371.088 395.862 321.423 423.912 271.741 451.927C261.617 457.715 248.44 457.269 238.633 451.006C223.735 442.37 208.813 433.777 193.914 425.15C190.87 423.335 187.438 421.89 185.288 418.938C187.188 416.377 190.586 416.058 193.347 414.939C199.565 412.962 205.277 409.788 210.989 406.708C212.434 405.719 214.198 406.098 215.582 406.983C228.321 414.287 240.948 421.803 253.729 429.037C256.456 430.612 259.217 428.522 261.548 427.222C310.309 399.663 359.131 372.208 407.884 344.64C409.69 343.771 410.689 341.854 410.542 339.875C410.576 283.966 410.551 228.047 410.559 172.138C410.766 169.893 409.467 167.829 407.437 166.91C357.918 139.023 308.426 111.093 258.916 83.1994C257.16 81.9924 254.843 81.989 253.084 83.1909C203.574 111.093 154.09 139.049 104.581 166.934C102.558 167.854 101.2 169.884 101.441 172.138C101.449 228.047 101.441 283.966 101.441 339.884C101.265 341.861 102.339 343.739 104.133 344.589C117.345 352.081 130.574 359.52 143.795 366.987C151.243 370.996 160.387 373.378 168.593 370.306C175.834 367.709 180.91 360.32 180.772 352.631C180.84 297.048 180.738 241.457 180.823 185.883C180.642 183.415 182.983 181.377 185.382 181.609C191.73 181.566 198.087 181.523 204.435 181.626C207.085 181.566 208.908 184.223 208.58 186.709C208.555 242.644 208.649 298.58 208.538 354.514C208.555 369.421 202.43 385.642 188.641 392.936C171.654 401.736 150.658 399.87 133.876 391.432C119.348 384.18 105.484 375.623 91.2136 367.854C81.2968 362.722 74.4401 351.996 74.51 340.754L74.51 171.269C74.406 160.243 80.9264 149.619 90.5938 144.415C140.276 116.377 189.949 88.3181 239.623 60.2674Z" fill="#323232" fill-rule="nonzero" opacity="1" stroke="none" vectornator:layerName="path"/>
<path d="M282.965 177.67C304.634 176.275 327.831 176.844 347.329 187.518C362.426 195.698 370.795 212.866 371.062 229.638C370.64 231.901 368.275 233.149 366.116 232.993C359.829 232.985 353.541 233.079 347.254 232.951C344.587 233.053 343.037 230.594 342.702 228.237C340.896 220.212 336.519 212.264 328.966 208.393C317.371 202.588 303.927 202.88 291.283 203.001C282.053 203.491 272.128 204.29 264.308 209.718C258.305 213.829 256.482 222.129 258.624 228.814C260.644 233.613 266.185 235.162 270.718 236.589C296.831 243.419 324.503 242.739 350.117 251.727C360.722 255.391 371.096 262.514 374.726 273.618C379.474 288.499 377.393 306.287 366.805 318.234C358.219 328.065 345.714 333.416 333.241 336.322C316.649 340.022 299.429 340.116 282.579 338.473C266.735 336.667 250.246 332.504 238.014 321.708C227.555 312.626 222.446 298.476 222.953 284.818C223.074 282.511 225.371 280.903 227.58 281.093C233.911 281.041 240.242 281.024 246.573 281.101C249.102 280.92 250.977 283.106 251.107 285.489C252.275 293.135 255.148 301.16 261.815 305.693C274.682 313.994 290.828 313.426 305.561 313.658C317.767 313.116 331.469 312.953 341.43 304.885C346.685 300.284 348.242 292.585 346.822 285.962C345.283 280.37 339.434 277.765 334.411 276.061C308.632 267.906 280.652 270.865 255.123 261.644C244.758 257.981 234.736 251.056 230.754 240.408C225.198 225.339 227.744 206.699 239.442 195.156C250.847 183.673 267.312 179.251 282.965 177.668L282.965 177.67Z" fill="#323232" fill-rule="nonzero" opacity="1" stroke="none" vectornator:layerName="path"/>
</g>
</g>
<g id="Ebene-2" vectornator:layerName="Ebene 2"/>
</svg>
