<?xml version="1.0" encoding="UTF-8"?>
<svg id="Ebene_1" data-name="Ebene 1" xmlns="http://www.w3.org/2000/svg" viewBox="0 0 256 256">
  <defs>
    <style>
      .cls-1 {
        fill: #fff;
        fill-rule: evenodd;
      }

      .cls-2 {
        fill: #27282c;
      }
    </style>
  </defs>
  <g id="Ebene_2" data-name="Ebene 2">
    <path class="cls-2" d="m45,0h166c24.85,0,45,20.15,45,45v166c0,24.85-20.15,45-45,45H45c-24.85,0-45-20.15-45-45V45C0,20.15,20.15,0,45,0Z"/>
  </g>
  <path class="cls-1" d="m65.16,63.06c6.22,5.05,8.55,4.67,20.24,3.89l110.12-6.61c2.34,0,.39-2.33-.39-2.72l-18.29-13.22c-3.5-2.72-8.17-5.84-17.12-5.06l-106.63,7.78c-3.89.39-4.67,2.33-3.12,3.89l15.19,12.05Zm6.61,25.66v115.87c0,6.23,3.11,8.56,10.12,8.17l121.03-7c7.01-.39,7.79-4.67,7.79-9.73v-115.09c0-5.05-1.94-7.77-6.23-7.39l-126.47,7.39c-4.67.39-6.22,2.73-6.22,7.78h0Zm119.48,6.22c.78,3.5,0,7-3.51,7.4l-5.83,1.16v85.54c-5.06,2.72-9.73,4.28-13.62,4.28-6.23,0-7.79-1.95-12.45-7.77l-38.14-59.88v57.94l12.07,2.72s0,7-9.74,7l-26.85,1.56c-.78-1.56,0-5.44,2.72-6.22l7.01-1.94v-76.6l-9.73-.78c-.78-3.5,1.16-8.55,6.61-8.95l28.8-1.94,39.7,60.66v-53.66l-10.12-1.16c-.78-4.28,2.33-7.39,6.22-7.78l26.86-1.56ZM44.13,36.62l110.92-8.17c13.62-1.17,17.13-.39,25.69,5.83l35.41,24.88c5.84,4.28,7.79,5.44,7.79,10.11v136.48c0,8.55-3.12,13.61-14.01,14.39l-128.81,7.78c-8.18.39-12.07-.78-16.35-6.22l-26.07-33.83c-4.67-6.23-6.61-10.89-6.61-16.34V50.23c0-6.99,3.12-12.83,12.06-13.6Z"/>
</svg>