<?xml version="1.0" encoding="UTF-8" standalone="no"?>
<!DOCTYPE svg PUBLIC "-//W3C//DTD SVG 1.1//EN" "http://www.w3.org/Graphics/SVG/1.1/DTD/svg11.dtd">
<!-- Created with Vectornator (http://vectornator.io/) -->
<svg height="100%" stroke-miterlimit="10" style="fill-rule:nonzero;clip-rule:evenodd;stroke-linecap:round;stroke-linejoin:round;" version="1.1" viewBox="0 0 512 512" width="100%" xml:space="preserve" xmlns="http://www.w3.org/2000/svg" xmlns:vectornator="http://vectornator.io" xmlns:xlink="http://www.w3.org/1999/xlink">
<defs/>
<g id="Ebene-1" vectornator:layerName="Ebene 1">
<path d="M2.84217e-14 95C2.84217e-14 42.5329 42.5329 0 95 0L417 0C469.467 0 512 42.5329 512 95L512 417C512 469.467 469.467 512 417 512L95 512C42.5329 512 2.84217e-14 469.467 2.84217e-14 417L2.84217e-14 95Z" fill="#242628" fill-rule="nonzero" opacity="1" stroke="none" vectornator:layerName="Rechteck 1"/>
</g>
<g id="Ebene-2" vectornator:layerName="Ebene 2">
<path d="M151.364 147.882C161.721 156.297 165.606 155.655 185.056 154.357L368.412 143.347C372.301 143.347 369.067 139.468 367.77 138.823L337.319 116.809C331.484 112.279 323.71 107.091 308.811 108.389L131.267 121.338C124.792 121.98 123.499 125.218 126.077 127.813L151.364 147.882ZM162.372 190.613L162.372 383.536C162.372 393.904 167.553 397.783 179.215 397.142L380.723 385.482C392.391 384.84 393.691 377.709 393.691 369.286L393.691 177.658C393.691 169.249 390.456 164.714 383.314 165.361L172.735 177.658C164.964 178.311 162.371 182.198 162.371 190.613L162.372 190.613ZM361.301 200.962C362.593 206.794 361.301 212.621 355.457 213.277L345.749 215.212L345.749 357.64C337.319 362.17 329.545 364.761 323.067 364.761C312.696 364.761 310.099 361.521 302.331 351.816L238.822 252.115L238.822 348.578L258.919 353.113C258.919 353.113 258.919 364.761 242.705 364.761L198.007 367.353C196.709 364.761 198.007 358.292 202.541 356.996L214.205 353.763L214.205 226.221L198.01 224.923C196.711 219.091 199.946 210.681 209.024 210.028L256.974 206.796L323.067 307.795L323.067 218.449L306.216 216.515C304.923 209.384 310.099 204.207 316.579 203.565L361.301 200.962ZM116.36 103.859L301.034 90.2594C323.713 88.3144 329.548 89.6174 343.802 99.9713L402.752 141.405C412.479 148.53 415.721 150.469 415.721 158.236L415.721 385.482C415.721 399.724 410.533 408.146 392.394 409.435L177.931 422.386C164.315 423.035 157.835 421.094 150.704 412.025L107.292 355.7C99.5138 345.332 96.2789 337.576 96.2789 328.501L96.2789 126.51C96.2789 114.864 101.469 105.149 116.36 103.859Z" fill="#f7f7f7" fill-rule="evenodd" opacity="1" stroke="none" vectornator:layerName="path"/>
</g>
</svg>
