<?xml version="1.0" encoding="UTF-8"?><svg id="a" xmlns="http://www.w3.org/2000/svg" viewBox="0 0 128 128"><defs><style>.b{fill:#fff;}.c{fill:#578ae5;}.d{fill:#4dabcf;}</style></defs><rect class="d" x="0" y="0" width="128" height="128" rx="25" ry="25" transform="translate(128 0) rotate(90)"/><path class="b" d="m87.23,82.09l.02,22.12-19.63,9.79v-22.11l19.61-9.8Zm23.56-11.82v22.2l-16.74,8.35v-22.09s16.74-8.46,16.74-8.46Zm-23.59-17.78l.02,21.89-19.6,9.74v-21.89l19.58-9.73Zm23.59-11.73v21.75l-16.76,8.52v-21.93s16.76-8.34,16.76-8.34Zm-46.15-2.57l17.52,8.84-18.18,9.13-17.19-8.63,17.84-9.34Zm-24.37-12.3l16.71,8.43-17.89,9.34-17.16-8.62,18.34-9.15Zm47.77.13l18,9.02-16.1,8.08-17.55-8.85,15.65-8.25Zm-23.95-12.01l16.2,8.12-15.54,8.29-16.69-8.42,16.03-8Z"/><path class="c" d="m60.69,62.21l-13.22-6.65v28.73s-16.17-34.4-17.67-37.49c-.19-.4-.99-.84-1.19-.94-2.9-1.52-11.39-5.83-11.39-5.83v50.76l11.75,6.28v-26.53s16,30.74,16.16,31.08,1.77,3.58,3.48,4.71c2.29,1.51,12.08,7.4,12.08,7.4v-51.52Z"/></svg>