<?xml version="1.0" encoding="UTF-8" standalone="no"?>
<!DOCTYPE svg PUBLIC "-//W3C//DTD SVG 1.1//EN" "http://www.w3.org/Graphics/SVG/1.1/DTD/svg11.dtd">
<!-- Created with Vectornator (http://vectornator.io/) -->
<svg height="100%" stroke-miterlimit="10" style="fill-rule:nonzero;clip-rule:evenodd;stroke-linecap:round;stroke-linejoin:round;" version="1.1" viewBox="0 0 512 512" width="100%" xml:space="preserve" xmlns="http://www.w3.org/2000/svg" xmlns:vectornator="http://vectornator.io" xmlns:xlink="http://www.w3.org/1999/xlink">
<defs/>
<g id="Ebene-1" vectornator:layerName="Ebene 1">
<path d="M2.84217e-14 95C2.84217e-14 42.5329 42.5329 0 95 0L417 0C469.467 0 512 42.5329 512 95L512 417C512 469.467 469.467 512 417 512L95 512C42.5329 512 2.84217e-14 469.467 2.84217e-14 417L2.84217e-14 95Z" fill="#161616" fill-rule="nonzero" opacity="1" stroke="none" vectornator:layerName="Rechteck 1"/>
<g opacity="1" vectornator:layerName="g">
<path d="M177.596 394.442C177.298 393.917 177.033 393.374 176.802 392.817C175.205 389.119 174.715 385.038 175.389 381.067L80.827 381.067L221.358 133.754L267.496 214.861L280.871 191.192L240.652 120.342C236.736 112.969 229.345 108.087 221.027 107.379C212.692 107.758 205.3 112.851 201.977 120.504L59.6082 370.817C55.2868 377.993 54.8182 386.849 58.3582 394.442C62.8246 401.485 70.9031 405.382 79.1957 404.492L198.439 404.492C190.144 405.395 182.059 401.496 177.602 394.442L177.596 394.442Z" fill="#00c492" fill-rule="nonzero" opacity="1" stroke="none" vectornator:layerName="path"/>
<path d="M451.745 370.81L334.752 164.729C330.851 157.277 323.419 152.329 315.039 151.604C306.714 151.965 299.324 157.043 296.002 164.686L280.871 191.186L294.333 214.861L315.164 177.979L430.908 381.06L386.895 381.06C387.458 384.417 387.141 387.862 385.977 391.06C385.731 391.767 385.424 392.451 385.058 393.104L384.683 393.854C379.827 400.713 371.871 404.698 363.471 404.479L432.32 404.479C440.722 404.705 448.682 400.718 453.533 393.854C457.38 386.46 456.686 377.523 451.745 370.81Z" fill="#008776" fill-rule="nonzero" opacity="1" stroke="none" vectornator:layerName="path"/>
<path d="M384.689 393.86L385.064 393.11C385.428 392.457 385.733 391.774 385.977 391.067C387.141 387.869 387.458 384.423 386.895 381.067C386.246 377.446 384.946 373.974 383.058 370.817L294.421 214.861L280.877 191.192L267.414 214.861L178.808 370.817C177.088 374.012 175.932 377.479 175.389 381.067C174.676 385.028 175.125 389.111 176.683 392.823C176.914 393.38 177.179 393.923 177.477 394.448C181.945 401.489 190.023 405.383 198.314 404.492L363.346 404.492C371.787 404.741 379.795 400.754 384.683 393.867L384.689 393.86ZM280.871 238.536L361.889 381.06L199.889 381.06L280.871 238.536Z" fill="#2d4a5d" fill-rule="nonzero" opacity="1" stroke="none" vectornator:layerName="path"/>
</g>
</g>
</svg>
