<?xml version="1.0" encoding="UTF-8"?><svg xmlns="http://www.w3.org/2000/svg" viewBox="0 0 128 128"><defs><style>.c{fill:#fff;}.d{fill:#00dc82;}</style></defs><g id="a"><rect class="d" x="0" y="0" width="128" height="128" rx="25" ry="25" transform="translate(128 0) rotate(90)"/></g><g id="b"><path class="c" d="m70.1,96.62h37.17c1.18,0,2.34-.3,3.36-.87,1.02-.57,1.87-1.4,2.46-2.39.59-.99.9-2.12.9-3.26,0-1.15-.31-2.27-.9-3.26l-24.97-41.94c-.59-.99-1.44-1.82-2.46-2.39s-2.18-.87-3.36-.87-2.34.3-3.36.87c-1.02.57-1.87,1.4-2.46,2.39l-6.38,10.73-12.48-20.99c-.59-.99-1.44-1.82-2.46-2.39-1.02-.57-2.18-.87-3.36-.87s-2.34.3-3.36.87c-1.02.57-1.87,1.4-2.46,2.39l-31.07,52.2c-.59.99-.9,2.12-.9,3.26,0,1.15.31,2.27.9,3.26.59.99,1.44,1.82,2.46,2.39,1.02.57,2.18.87,3.36.87h23.33c9.25,0,16.06-3.94,20.76-11.62l11.39-19.13,6.1-10.24,18.31,30.76h-24.41l-6.1,10.24Zm-26.42-10.25h-16.28s24.41-41.01,24.41-41.01l12.18,20.5-8.16,13.7c-3.12,4.99-6.66,6.8-12.15,6.8Z"/></g></svg>