<?xml version="1.0" encoding="UTF-8"?><svg id="a" xmlns="http://www.w3.org/2000/svg" viewBox="0 0 128 128"><defs><style>.b{fill:#fff;}.c{fill:#48c4e5;}.d{fill:#012f55;}.e{fill:#96d8e9;}</style></defs><rect class="d" x="0" y="0" width="128" height="128" rx="25" ry="25" transform="translate(128 0) rotate(90)"/><path class="b" d="m29.38,32.93l21.86,36.81.02-16.66,12.68,19.83-13.05,20.51-21.64-35.11-.05,36.76h-15.21v-62.13h15.38Zm37.07,17.37l6.33,9.94.08.14c4.14-6.29,11.16-10.08,18.69-10.07,12.21,0,22.13,10.33,22.37,22.49v.41s0,0,0,0v.15c-.02,1.01-.56,1.94-1.43,2.46-.9.54-2.02.56-2.94.04-.89-.49-1.45-1.41-1.51-2.42v-.11s0-.14,0-.14c-.05-1.92-1.11-2.7-2.5-3.28l-.21-.08h0l-.21-.08h0l-.21-.08h0l-1.11-.39h0l-.23-.08h0l-.23-.09h0l-.23-.09s-.08-.03-.11-.05l-.23-.1h0l-.22-.1c-.9-.42-1.75-.98-2.44-1.86l-.08-.11h0l-.08-.11h0l-.12-.17h0l-.16-.25h0l-.5-.81h0l-.18-.28h0l-.14-.22h0l-.1-.14h0l-.16-.22h0l-.11-.15h0l-.11-.14s-.04-.05-.06-.07l-.12-.14c-1.19-1.39-3.05-2.63-6.64-2.63-2.97,0-5.83,1.18-7.93,3.28-2.1,2.1-3.28,4.95-3.28,7.93,0,.42.11.84.29,1.22l.06.11,13.38,21.05h-14.75l-6.53-9.86-6.42,9.86h-14.75l14.08-22.17-14.43-22.6h15.18Zm47.49,26.08c.15,1.05,0,2.12-.43,3.08-.52,1.19-1.24,1.41-1.73,1.4h-.08s-.08-.01-.08-.01h-.07s-.09-.03-.09-.03h0l-.08-.02h0l-.1-.03h0l-.04-.02h0l-.04-.02h0l-.07-.04h0l-.05-.04h0l-.06-.04h0l-.06-.05s-.02-.02-.03-.03l-.06-.06c-.27-.28-.52-.76-.08-1.42.32-.5.76-.77,1.23-1.02l.47-.25c.56-.3,1.1-.66,1.45-1.39Zm-47.46-43.45v15.8l-.03.18h-15.19v-.18s.02-15.8.02-15.8h15.21Z"/><path class="e" d="m89.93,66.13c-3.64-.07-6.93,2.16-8.21,5.57,2.13-3.19,6.19-4.47,9.76-3.08,1.65.67,3.82,1.76,5.54,1.18-1.64-2.3-4.28-3.66-7.1-3.67h0Z"/><path class="c" d="m107.16,73.61c0-1.86-1.01-2.29-3.11-3.06-1.56-.54-3.33-1.15-4.62-2.84-.25-.33-.49-.71-.73-1.1-.56-1.03-1.31-1.94-2.22-2.68-1.23-.9-2.84-1.34-4.92-1.34-4.19,0-7.96,2.53-9.55,6.4,2.02-2.8,5.37-4.31,8.8-3.98s6.43,2.46,7.87,5.6c.72,1.19,2.14,1.76,3.48,1.39,2.05-.44,1.91,1.5,5.01,2.16v-.55Z"/></svg>