<?xml version="1.0" encoding="UTF-8" standalone="no"?>
<!DOCTYPE svg PUBLIC "-//W3C//DTD SVG 1.1//EN" "http://www.w3.org/Graphics/SVG/1.1/DTD/svg11.dtd">
<!-- Created with Vectornator (http://vectornator.io/) -->
<svg height="100%" stroke-miterlimit="10" style="fill-rule:nonzero;clip-rule:evenodd;stroke-linecap:round;stroke-linejoin:round;" version="1.1" viewBox="0 0 512 512" width="100%" xml:space="preserve" xmlns="http://www.w3.org/2000/svg" xmlns:vectornator="http://vectornator.io" xmlns:xlink="http://www.w3.org/1999/xlink">
<defs>
<linearGradient gradientTransform="matrix(1 0 0 1 0 0)" gradientUnits="userSpaceOnUse" id="LinearGradient" x1="246.99" x2="254.91" y1="-0.49038" y2="505.165">
<stop offset="0.000578055" stop-color="#6b6b6b"/>
<stop offset="1" stop-color="#1e1f1f"/>
</linearGradient>
</defs>
<g id="Ebene-1" vectornator:layerName="Ebene 1">
<path d="M2.84217e-14 95C2.84217e-14 42.5329 42.5329 0 95 0L417 0C469.467 0 512 42.5329 512 95L512 417C512 469.467 469.467 512 417 512L95 512C42.5329 512 2.84217e-14 469.467 2.84217e-14 417L2.84217e-14 95Z" fill="url(#LinearGradient)" fill-rule="nonzero" opacity="1" stroke="none" vectornator:layerName="Rechteck 1"/>
<g opacity="1" vectornator:layerName="opensuse.svg">
<path d="M451.731 315.129C451.731 315.433 451.473 315.694 451.153 315.694L450.895 315.694C450.585 315.69 450.334 315.439 450.33 315.129L450.33 310.332L447.623 310.332L447.623 315.129C447.623 315.433 447.349 315.694 447.027 315.694L446.789 315.694C446.478 315.691 446.227 315.44 446.222 315.129L446.222 310.332L444.193 310.332C444.051 310.336 443.913 310.282 443.813 310.181C443.712 310.08 443.657 309.943 443.662 309.8L443.662 309.527C443.662 309.205 443.903 309.011 444.193 309.011L451.295 309.011C451.568 309.011 451.762 309.111 451.858 309.269L453.195 311.282L454.531 309.269C454.644 309.124 454.805 309.011 455.097 309.011L456 309.011L456 315.179C456 315.47 455.726 315.744 455.404 315.744L455.324 315.697L455.066 315.697C454.756 315.693 454.505 315.442 454.501 315.132L454.501 311.106L453.615 312.459C453.506 312.586 453.346 312.657 453.179 312.652L453.081 312.652C452.918 312.652 452.725 312.588 452.631 312.459L451.728 311.106C451.728 311.106 451.731 315.129 451.731 315.129ZM442.229 360.056L442.229 361.362C442.229 364.227 440.053 366.322 437.042 366.322L397.865 366.322C395.013 366.322 392.889 364.18 392.889 361.362L392.889 312.214C392.889 309.38 395.094 307.254 397.96 307.254L397.976 307.303L435.416 307.303C438.427 307.303 440.617 309.38 440.617 312.245L440.617 313.551C440.617 316.415 438.427 318.493 435.416 318.493L404.966 318.493L404.966 331.357L428.461 331.357C431.472 331.357 433.66 333.47 433.66 336.335L433.66 337.625C433.66 340.507 431.472 342.583 428.461 342.583L404.966 342.583L404.966 355.109L437.044 355.109C440.071 355.113 442.229 357.222 442.229 360.056Z" fill="#73ba25" fill-rule="nonzero" opacity="1" stroke="none" vectornator:layerName="path"/>
<path d="M406.657 155.162C419.039 155.598 428.752 166.031 428.332 178.4C428.105 184.39 425.596 189.93 421.214 194.02C416.833 198.126 411.132 200.25 405.111 200.041C392.743 199.591 383.052 189.171 383.454 176.804C383.664 170.814 386.173 165.258 390.572 161.168C394.915 157.096 400.708 154.933 406.657 155.162ZM422.454 177.931C422.746 169.121 415.85 161.716 407.045 161.41C402.815 161.234 398.692 162.772 395.611 165.675C392.5 168.549 390.678 172.554 390.553 176.786C390.261 185.595 397.156 193 405.949 193.324C410.187 193.472 414.311 191.932 417.414 189.041C420.513 186.162 422.329 182.16 422.454 177.931Z" fill="#ffffff" fill-rule="nonzero" opacity="1" stroke="none" vectornator:layerName="path"/>
<path d="M407.045 161.41C415.854 161.714 422.746 169.121 422.454 177.931C422.329 182.16 420.513 186.162 417.414 189.041C414.311 191.932 410.187 193.472 405.949 193.324C397.156 193.002 390.264 185.595 390.553 176.786C390.677 172.554 392.5 168.549 395.611 165.675C398.692 162.772 402.815 161.234 407.045 161.41ZM416.738 174.147C416.738 171.522 413.564 169.414 409.652 169.414C405.741 169.414 402.583 171.524 402.583 174.147C402.583 176.74 405.739 178.867 409.652 178.867C413.565 178.865 416.738 176.74 416.738 174.147Z" fill="#73ba25" fill-rule="nonzero" opacity="1" stroke="none" vectornator:layerName="path"/>
<path d="M409.652 169.413C413.567 169.413 416.738 171.522 416.738 174.145C416.738 176.738 413.564 178.865 409.652 178.865C405.741 178.865 402.583 176.74 402.583 174.145C402.583 171.522 405.739 169.413 409.652 169.413Z" fill="#ffffff" fill-rule="nonzero" opacity="1" stroke="none" vectornator:layerName="path"/>
<path d="M382.567 343.615L382.567 351.489C382.567 360.51 377.189 366.322 368.799 366.322L336.802 366.322C333.791 366.322 331.616 364.211 331.616 361.362L331.616 360.056C331.616 357.204 333.791 355.113 336.802 355.113L367.158 355.113C370.459 355.113 370.554 350.588 370.554 350.09L370.554 345.37C370.554 343.824 369.942 342.005 367.158 342.005L344.918 342.005C338.588 342.005 331.732 336.82 331.732 328.462L331.732 321.169C331.732 315.469 337.11 307.254 346.802 307.254L346.802 307.319L372.923 307.319C375.967 307.319 378.221 309.461 378.221 312.262L378.221 313.567C378.221 316.403 375.981 318.527 373.034 318.527L348.783 318.527C345.596 318.527 343.777 320.09 343.777 322.826L343.777 327.158C343.777 328.929 345.258 331.357 348.561 331.357L370.461 331.357C376.496 331.361 382.567 335.161 382.567 343.615ZM316.078 307.254C318.994 307.254 321.265 309.541 321.265 312.454L321.265 351.148C321.265 360.151 314.194 366.675 304.437 366.675L286.355 366.675C276.595 366.675 269.529 360.151 269.529 351.148L269.529 312.454C269.516 311.074 270.058 309.746 271.033 308.769C272.008 307.791 273.334 307.246 274.714 307.254L276.358 307.254C277.738 307.251 279.063 307.797 280.039 308.773C281.015 309.749 281.562 311.074 281.558 312.454L281.558 349.718C281.558 352.697 283.957 355.096 286.92 355.096L303.844 355.096C306.791 355.096 309.207 352.697 309.207 349.718L309.207 312.456C309.212 309.586 311.537 307.261 314.406 307.256L314.44 307.256L316.078 307.254ZM259.138 343.615L259.138 351.489C259.138 360.51 253.729 366.322 245.37 366.322L213.357 366.322C210.329 366.322 208.156 364.211 208.156 361.362L208.156 360.056C208.156 357.204 210.346 355.113 213.357 355.113L243.711 355.113C246.996 355.113 247.077 350.588 247.077 350.09L247.077 345.37C247.077 343.824 246.498 342.005 243.711 342.005L221.473 342.005C215.112 342.005 208.284 336.82 208.284 328.462L208.284 321.169C208.284 315.469 213.647 307.254 223.357 307.254L223.389 307.319L249.524 307.319C252.552 307.319 254.822 309.461 254.822 312.262L254.822 313.567C254.822 316.403 252.582 318.527 249.621 318.527L225.37 318.527C222.165 318.527 220.346 320.09 220.346 322.826L220.346 327.158C220.346 328.929 221.827 331.357 225.128 331.357L247.012 331.357C253.051 331.361 259.138 335.161 259.138 343.615Z" fill="#73ba25" fill-rule="nonzero" opacity="1" stroke="none" vectornator:layerName="path"/>
<path d="M442.472 208.72L444.116 208.414C444.565 208.769 444.501 209.493 444.356 210.137C444.052 211.635 443.324 214.356 442.826 215.645L442.407 216.707C441.829 218.284 441.246 219.783 440.137 220.685C437.079 223.469 432.184 225.693 424.519 229.042C412.667 234.227 393.456 237.496 375.614 237.384C369.219 237.239 363.036 236.53 357.609 235.918C340.992 234.018 328.98 232.665 326.482 247.77C323.326 266.707 341.137 289.702 341.314 289.91L341.297 290.54L340.719 290.684C340.719 290.684 312.329 277.609 311.635 277.224L310.732 276.581L310.007 275.887C307.865 273.828 303.566 269.206 294.838 259.09C277.914 239.527 258.107 236.949 242.841 240.67C239.122 241.556 234.387 244.277 231.312 247.337C223.342 255.195 224.242 271.024 224.695 276.789C225.226 283.311 225.565 283.796 225.709 284.325L225.611 284.984L225.048 285.048L224.726 284.823L201.441 273.438L200.555 269.639C199.959 267.126 199.267 264.342 197.946 260.847C189.621 238.897 170.909 222.392 150.298 218.833C136.368 216.435 110.974 216.161 97.5264 241.54C91.9081 252.136 92.2462 265.934 98.4137 277.562C104.692 289.464 115.918 297.095 129.203 298.56C142.375 299.995 152.277 296.95 157.832 289.751C163.436 282.488 164.483 272.602 160.505 264.551C156.24 255.905 149.798 251.313 140.843 250.559C134.034 249.947 128.976 252.781 127.156 255.68C126.625 256.585 125.658 258.259 125.644 260.64L125.644 260.722C125.644 267.21 131.584 268.982 132.792 269.065C133.162 269.065 134.95 269.016 137.319 268.42L138.462 268.052L139.249 267.776L139.829 267.665C144.145 266.876 148.299 269.42 149.507 273.623C149.716 274.395 149.829 275.169 149.829 275.939C149.829 278.725 148.412 281.319 146.061 282.895L146.157 282.862L145.9 283.007L145.515 283.247C144.273 284.036 143.132 284.472 141.924 284.841C138.542 285.95 135.547 286.467 132.536 286.467C122.262 286.451 107.947 277.61 107.753 261.008C107.655 251.636 112.359 243.102 120.636 237.611C130.169 231.314 146.641 229.173 161.924 238.545C180.734 250.058 185.644 272.601 180.734 287.981C173.599 310.251 153.534 322.151 127.045 319.784C108.286 318.109 90.8614 308.206 80.4927 293.295C75.8872 286.691 72.4734 279.333 70.6376 271.992C66.4025 255.195 70.6843 237.353 73.8743 229.448C84.0192 204.311 103.439 182.685 131.539 165.147L133.312 164.038C193.083 127.303 235.386 128.785 266.352 129.864C302.875 131.136 341.827 143.729 347.205 145.518C347.223 144.31 347.432 133.423 347.432 133.423L347.595 133.054L348.013 132.941C350.463 133.279 402.939 141.073 425.052 153.956C427.788 155.566 429.14 157.241 430.833 158.98C436.936 165.292 445.021 191.588 445.873 197.015L445.551 197.562C445.23 197.675 444.472 198.239 443.457 198.915C438.304 202.522 426.245 210.96 410.784 209.575C396.888 208.351 378.741 200.38 356.857 185.97C357.825 188.239 362.38 199.028 363.152 200.847L363.443 201.203C366.617 202.846 397.02 218.337 412.108 218.029C424.274 217.786 437.269 211.844 442.472 208.72ZM428.332 178.398C428.752 166.03 419.039 155.596 406.657 155.16C400.708 154.931 394.915 157.094 390.572 161.166C386.177 165.257 383.664 170.812 383.454 176.802C383.052 189.17 392.746 199.588 405.111 200.039C411.132 200.248 416.833 198.124 421.214 194.018C425.594 189.928 428.106 184.389 428.332 178.398ZM178.896 332.649C180.99 331.652 183.599 330.427 187.046 330.427L188.109 330.427C194.13 330.427 198.027 334.016 198.027 339.539L198.027 363.728C198.027 365.191 196.837 366.381 195.402 366.381L194.371 366.381C192.906 366.381 191.747 365.191 191.747 363.728L191.747 340.411C191.747 338.222 189.959 336.433 187.785 336.433L179.04 336.433C176.848 336.439 175.076 338.219 175.078 340.411L175.078 363.728C175.078 365.191 173.888 366.381 172.454 366.381L171.423 366.381C169.958 366.381 168.798 365.191 168.798 363.728L168.798 332.907C168.798 331.588 169.684 330.654 170.908 330.654L171.922 330.654C172.89 330.654 173.597 331.072 173.983 331.894L174.708 333.214C175.012 333.762 175.175 333.792 175.578 333.792C176.481 333.792 177.592 333.245 178.896 332.649ZM161.554 339.203L161.554 346.338C161.554 349.383 159.781 351.187 156.851 351.187L138.542 351.187L138.542 356.565C138.542 359.22 140.04 360.607 142.89 360.607L153.035 360.607C154.547 360.607 155.66 361.654 155.66 363.087L155.66 363.892C155.66 365.341 154.549 366.388 153.035 366.388L140.666 366.388C136.093 366.388 132.23 362.33 132.23 357.565L132.23 339.154C132.23 334.452 136.207 330.654 141.103 330.654L141.119 330.686L152.665 330.686C157.56 330.684 161.554 334.517 161.554 339.203ZM155.209 345.708L155.209 339.992C155.209 337.995 153.663 336.449 151.684 336.449L142.054 336.449C140.058 336.449 138.529 338.027 138.529 339.992L138.529 345.708L155.209 345.708ZM100.348 356.61C100.348 358.121 101.185 359.428 102.423 360.104L100.942 363.372C100.668 363.372 100.364 363.856 100.364 364.306L100.364 379.908C100.364 381.341 99.1882 382.533 97.739 382.533L96.7068 382.533C95.2253 382.533 94.082 381.359 94.082 379.908L94.082 332.907C94.082 331.652 95.0159 330.654 96.1287 330.654L97.3026 330.654C98.301 330.654 99.1061 331.425 99.2832 331.828L100.055 333.357C100.248 333.631 100.586 333.794 100.94 333.794L102.406 336.95C101.122 337.641 100.328 338.988 100.346 340.446L100.346 356.61L100.348 356.61Z" fill="#73ba25" fill-rule="nonzero" opacity="1" stroke="none" vectornator:layerName="path"/>
<path d="M113.422 330.443C119.46 330.443 123.341 334.032 123.341 339.555L123.341 357.496C123.341 363.114 119.542 366.592 113.422 366.592L112.343 366.592C108.882 366.592 106.272 365.402 104.195 364.451C102.906 363.856 101.811 363.372 100.94 363.372L102.422 360.104C102.987 360.407 103.629 360.588 104.307 360.588L113.051 360.588C114.105 360.588 115.115 360.168 115.858 359.422C116.601 358.675 117.017 357.664 117.013 356.61L117.013 340.443C117.013 338.219 115.274 336.481 113.051 336.481L104.307 336.481C103.613 336.481 102.971 336.655 102.406 336.947L100.94 333.791C101.81 333.791 102.906 333.277 104.161 332.665C106.272 331.667 108.863 330.425 112.325 330.425L112.325 330.443L113.422 330.443ZM85.1448 339.154L85.1448 357.707C85.1448 362.473 81.2801 366.354 76.5458 366.354L64.5652 366.354C59.847 366.354 56 362.473 56 357.707L56 339.154C56 334.452 59.9774 330.654 64.8728 330.654L76.2737 330.654C81.1674 330.652 85.1448 334.469 85.1448 339.154ZM78.8324 356.981L78.8324 340.072C78.8324 338.108 77.1738 336.449 75.2254 336.449L65.8856 336.449C63.8916 336.46 62.2803 338.078 62.2786 340.072L62.2786 356.981C62.2786 359.011 63.8244 360.588 65.8051 360.588L75.2254 360.588C77.2221 360.588 78.8324 358.961 78.8324 356.981Z" fill="#73ba25" fill-rule="nonzero" opacity="1" stroke="none" vectornator:layerName="path"/>
</g>
</g>
</svg>
