<?xml version="1.0" encoding="UTF-8" standalone="no"?>
<!DOCTYPE svg PUBLIC "-//W3C//DTD SVG 1.1//EN" "http://www.w3.org/Graphics/SVG/1.1/DTD/svg11.dtd">
<!-- Created with Vectornator (http://vectornator.io/) -->
<svg height="100%" stroke-miterlimit="10" style="fill-rule:nonzero;clip-rule:evenodd;stroke-linecap:round;stroke-linejoin:round;" version="1.1" viewBox="0 0 512 512" width="100%" xml:space="preserve" xmlns="http://www.w3.org/2000/svg" xmlns:vectornator="http://vectornator.io" xmlns:xlink="http://www.w3.org/1999/xlink">
<defs/>
<g id="Ebene-1" vectornator:layerName="Ebene 1">
<path d="M2.84217e-14 95C2.84217e-14 42.5329 42.5329 0 95 0L417 0C469.467 0 512 42.5329 512 95L512 417C512 469.467 469.467 512 417 512L95 512C42.5329 512 2.84217e-14 469.467 2.84217e-14 417L2.84217e-14 95Z" fill="#73ba25" fill-rule="nonzero" opacity="1" stroke="none" vectornator:layerName="Rechteck 1"/>
<g opacity="1" vectornator:layerName="opensuse.svg">
<path d="M403.032 307.25C400.166 307.25 397.938 309.385 397.938 312.219L397.938 361.375C397.938 364.193 400.086 366.312 402.938 366.312L442.095 366.312C445.106 366.312 447.282 364.24 447.282 361.375L447.282 360.062C447.282 357.228 445.122 355.098 442.095 355.094L410.032 355.094L410.032 342.594L433.532 342.594C436.543 342.594 438.72 340.507 438.72 337.625L438.72 336.344C438.72 333.479 436.543 331.344 433.532 331.344L410.032 331.344L410.032 318.5L440.47 318.5C443.481 318.5 445.688 316.426 445.688 313.562L445.688 312.25C445.688 309.385 443.481 307.312 440.47 307.312L403.032 307.312L403.032 307.25Z" fill="#313131" fill-rule="nonzero" opacity="1" stroke="none" vectornator:layerName="Kurve 1"/>
<path d="M411.721 155.162C424.102 155.598 433.816 166.031 433.395 178.4C433.168 184.39 430.659 189.93 426.278 194.02C421.897 198.126 416.196 200.25 410.174 200.041C397.807 199.591 388.115 189.171 388.518 176.804C388.727 170.814 391.236 165.258 395.635 161.168C399.979 157.096 405.772 154.933 411.721 155.162ZM427.518 177.931C427.809 169.121 420.913 161.716 412.109 161.41C407.879 161.234 403.755 162.772 400.674 165.675C397.563 168.549 395.741 172.554 395.616 176.786C395.325 185.595 402.22 193 411.013 193.324C415.25 193.472 419.375 191.932 422.477 189.041C425.577 186.162 427.393 182.16 427.518 177.931Z" fill="#313131" fill-rule="nonzero" opacity="1" stroke="none" vectornator:layerName="path"/>
<path d="M414.716 169.413C418.63 169.413 421.802 171.522 421.802 174.145C421.802 176.738 418.628 178.865 414.716 178.865C410.804 178.865 407.647 176.74 407.647 174.145C407.647 171.522 410.803 169.413 414.716 169.413Z" fill="#313131" fill-rule="nonzero" opacity="1" stroke="none" vectornator:layerName="path"/>
<path d="M387.63 343.615L387.63 351.489C387.63 360.51 382.253 366.322 373.862 366.322L341.865 366.322C338.855 366.322 336.679 364.211 336.679 361.362L336.679 360.056C336.679 357.204 338.855 355.113 341.865 355.113L372.221 355.113C375.523 355.113 375.617 350.588 375.617 350.09L375.617 345.37C375.617 343.824 375.005 342.005 372.221 342.005L349.981 342.005C343.652 342.005 336.796 336.82 336.796 328.462L336.796 321.169C336.796 315.469 342.173 307.254 351.865 307.254L351.865 307.319L377.986 307.319C381.03 307.319 383.284 309.461 383.284 312.262L383.284 313.567C383.284 316.403 381.044 318.527 378.097 318.527L353.846 318.527C350.659 318.527 348.841 320.09 348.841 322.826L348.841 327.158C348.841 328.929 350.322 331.357 353.625 331.357L375.524 331.357C381.559 331.361 387.63 335.161 387.63 343.615ZM321.141 307.254C324.058 307.254 326.328 309.541 326.328 312.454L326.328 351.148C326.328 360.151 319.258 366.675 309.5 366.675L291.418 366.675C281.659 366.675 274.592 360.151 274.592 351.148L274.592 312.454C274.58 311.074 275.121 309.746 276.096 308.769C277.072 307.791 278.398 307.246 279.778 307.254L281.422 307.254C282.802 307.251 284.126 307.797 285.102 308.773C286.078 309.749 286.625 311.074 286.621 312.454L286.621 349.718C286.621 352.697 289.02 355.096 291.984 355.096L308.908 355.096C311.855 355.096 314.27 352.697 314.27 349.718L314.27 312.456C314.275 309.586 316.601 307.261 319.47 307.256L319.504 307.256L321.141 307.254ZM264.202 343.615L264.202 351.489C264.202 360.51 258.793 366.322 250.434 366.322L218.421 366.322C215.393 366.322 213.22 364.211 213.22 361.362L213.22 360.056C213.22 357.204 215.41 355.113 218.421 355.113L248.775 355.113C252.06 355.113 252.141 350.588 252.141 350.09L252.141 345.37C252.141 343.824 251.561 342.005 248.775 342.005L226.537 342.005C220.175 342.005 213.347 336.82 213.347 328.462L213.347 321.169C213.347 315.469 218.71 307.254 228.421 307.254L228.453 307.319L254.588 307.319C257.615 307.319 259.885 309.461 259.885 312.262L259.885 313.567C259.885 316.403 257.645 318.527 254.685 318.527L230.434 318.527C227.228 318.527 225.41 320.09 225.41 322.826L225.41 327.158C225.41 328.929 226.891 331.357 230.191 331.357L252.076 331.357C258.115 331.361 264.202 335.161 264.202 343.615Z" fill="#313131" fill-rule="nonzero" opacity="1" stroke="none" vectornator:layerName="path"/>
<path d="M447.535 208.72L449.179 208.414C449.629 208.769 449.564 209.493 449.419 210.137C449.115 211.635 448.388 214.356 447.889 215.645L447.471 216.707C446.893 218.284 446.309 219.783 445.201 220.685C442.143 223.469 437.248 225.693 429.582 229.042C417.731 234.227 398.519 237.496 380.678 237.384C374.283 237.239 368.1 236.53 362.673 235.918C346.056 234.018 334.043 232.665 331.546 247.77C328.389 266.707 346.201 289.702 346.378 289.91L346.361 290.54L345.783 290.684C345.783 290.684 317.393 277.609 316.698 277.224L315.796 276.581L315.071 275.887C312.928 273.828 308.63 269.206 299.902 259.09C282.977 239.527 263.171 236.949 247.905 240.67C244.186 241.556 239.451 244.277 236.376 247.337C228.406 255.195 229.305 271.024 229.758 276.789C230.29 283.311 230.629 283.796 230.773 284.325L230.674 284.984L230.112 285.048L229.79 284.823L206.505 273.438L205.619 269.639C205.023 267.126 204.331 264.342 203.01 260.847C194.685 238.897 175.972 222.392 155.362 218.833C141.431 216.435 116.038 216.161 102.59 241.54C96.9716 252.136 97.3097 265.934 103.477 277.562C109.755 289.464 120.982 297.095 134.267 298.56C147.439 299.995 157.34 296.95 162.895 289.751C168.5 282.488 169.547 272.602 165.569 264.551C161.304 255.905 154.862 251.313 145.906 250.559C139.097 249.947 134.04 252.781 132.22 255.68C131.689 256.585 130.721 258.259 130.708 260.64L130.708 260.722C130.708 267.21 136.648 268.982 137.856 269.065C138.226 269.065 140.013 269.016 142.382 268.42L143.525 268.052L144.312 267.776L144.893 267.665C149.209 266.876 153.363 269.42 154.571 273.623C154.78 274.395 154.893 275.169 154.893 275.939C154.893 278.725 153.476 281.319 151.125 282.895L151.221 282.862L150.964 283.007L150.578 283.247C149.337 284.036 148.196 284.472 146.988 284.841C143.606 285.95 140.611 286.467 137.6 286.467C127.326 286.451 113.011 277.61 112.817 261.008C112.719 251.636 117.422 243.102 125.7 237.611C135.233 231.314 151.704 229.173 166.988 238.545C185.798 250.058 190.708 272.601 185.798 287.981C178.662 310.251 158.597 322.151 132.108 319.784C113.35 318.109 95.9249 308.206 85.5562 293.295C80.9507 286.691 77.5369 279.333 75.7011 271.992C71.466 255.195 75.7478 237.353 78.9378 229.448C89.0827 204.311 108.502 182.685 136.602 165.147L138.376 164.038C198.147 127.303 240.45 128.785 271.415 129.864C307.938 131.136 346.89 143.729 352.269 145.518C352.287 144.31 352.495 133.423 352.495 133.423L352.659 133.054L353.077 132.941C355.527 133.279 408.003 141.073 430.115 153.956C432.851 155.566 434.203 157.241 435.897 158.98C442 165.292 450.085 191.588 450.937 197.015L450.615 197.562C450.293 197.675 449.535 198.239 448.52 198.915C443.367 202.522 431.308 210.96 415.847 209.575C401.952 208.351 383.804 200.38 361.921 185.97C362.889 188.239 367.443 199.028 368.216 200.847L368.506 201.203C371.681 202.846 402.083 218.337 417.172 218.029C429.337 217.786 442.332 211.844 447.535 208.72ZM433.395 178.398C433.816 166.03 424.102 155.596 411.721 155.16C405.772 154.931 399.979 157.094 395.635 161.166C391.24 165.257 388.727 170.812 388.518 176.802C388.115 189.17 397.809 199.588 410.174 200.039C416.196 200.248 421.897 198.124 426.278 194.018C430.658 189.928 433.169 184.389 433.395 178.398ZM183.959 332.649C186.054 331.652 188.662 330.427 192.109 330.427L193.173 330.427C199.194 330.427 203.09 334.016 203.09 339.539L203.09 363.728C203.09 365.191 201.9 366.381 200.465 366.381L199.435 366.381C197.97 366.381 196.811 365.191 196.811 363.728L196.811 340.411C196.811 338.222 195.023 336.433 192.849 336.433L184.103 336.433C181.912 336.439 180.139 338.219 180.142 340.411L180.142 363.728C180.142 365.191 178.952 366.381 177.518 366.381L176.487 366.381C175.022 366.381 173.862 365.191 173.862 363.728L173.862 332.907C173.862 331.588 174.748 330.654 175.971 330.654L176.986 330.654C177.953 330.654 178.661 331.072 179.047 331.894L179.772 333.214C180.076 333.762 180.239 333.792 180.642 333.792C181.544 333.792 182.656 333.245 183.959 332.649ZM166.618 339.203L166.618 346.338C166.618 349.383 164.845 351.187 161.915 351.187L143.606 351.187L143.606 356.565C143.606 359.22 145.103 360.607 147.953 360.607L158.099 360.607C159.611 360.607 160.724 361.654 160.724 363.087L160.724 363.892C160.724 365.341 159.613 366.388 158.099 366.388L145.73 366.388C141.156 366.388 137.293 362.33 137.293 357.565L137.293 339.154C137.293 334.452 141.27 330.654 146.167 330.654L146.183 330.686L157.728 330.686C162.624 330.684 166.618 334.517 166.618 339.203ZM160.273 345.708L160.273 339.992C160.273 337.995 158.727 336.449 156.748 336.449L147.118 336.449C145.121 336.449 143.593 338.027 143.593 339.992L143.593 345.708L160.273 345.708ZM105.412 356.61C105.412 358.121 106.249 359.428 107.487 360.104L106.005 363.372C105.732 363.372 105.428 363.856 105.428 364.306L105.428 379.908C105.428 381.341 104.252 382.533 102.803 382.533L101.77 382.533C100.289 382.533 99.1455 381.359 99.1455 379.908L99.1455 332.907C99.1455 331.652 100.079 330.654 101.192 330.654L102.366 330.654C103.365 330.654 104.17 331.425 104.347 331.828L105.119 333.357C105.312 333.631 105.65 333.794 106.004 333.794L107.47 336.95C106.186 337.641 105.392 338.988 105.41 340.446L105.41 356.61L105.412 356.61Z" fill="#313131" fill-rule="nonzero" opacity="1" stroke="none" vectornator:layerName="path"/>
<path d="M118.486 330.443C124.523 330.443 128.404 334.032 128.404 339.555L128.404 357.496C128.404 363.114 124.606 366.592 118.486 366.592L117.407 366.592C113.946 366.592 111.336 365.402 109.258 364.451C107.97 363.856 106.875 363.372 106.004 363.372L107.486 360.104C108.05 360.407 108.693 360.588 109.371 360.588L118.115 360.588C119.169 360.588 120.178 360.168 120.922 359.422C121.665 358.675 122.081 357.664 122.077 356.61L122.077 340.443C122.077 338.219 120.338 336.481 118.115 336.481L109.371 336.481C108.677 336.481 108.035 336.655 107.47 336.947L106.004 333.791C106.874 333.791 107.97 333.277 109.225 332.665C111.336 331.667 113.927 330.425 117.389 330.425L117.389 330.443L118.486 330.443ZM90.2083 339.154L90.2083 357.707C90.2083 362.473 86.3436 366.354 81.6093 366.354L69.6287 366.354C64.9105 366.354 61.0635 362.473 61.0635 357.707L61.0635 339.154C61.0635 334.452 65.0409 330.654 69.9363 330.654L81.3372 330.654C86.2309 330.652 90.2083 334.469 90.2083 339.154ZM83.8959 356.981L83.8959 340.072C83.8959 338.108 82.2373 336.449 80.2889 336.449L70.9491 336.449C68.9551 336.46 67.3438 338.078 67.3421 340.072L67.3421 356.981C67.3421 359.011 68.8879 360.588 70.8686 360.588L80.2889 360.588C82.2856 360.588 83.8959 358.961 83.8959 356.981Z" fill="#313131" fill-rule="nonzero" opacity="1" stroke="none" vectornator:layerName="path"/>
</g>
<g opacity="1" vectornator:layerName="Kurve 1">
<path d="M388.625 173C387.964 174.919 387.555 176.86 387.688 178.906C387.847 181.366 388.706 183.722 389.312 186.094C389.952 188.598 390.523 191.103 391.594 193.469C392.939 196.442 395.365 198.871 398.188 200.469C399.545 201.237 401.015 201.676 402.5 202.125C406.112 203.216 409.916 203.243 413.656 203.375C416.029 203.367 417.945 201.436 417.938 199.062C417.93 196.689 415.998 194.774 413.625 194.781C410.729 194.901 407.836 195.007 404.938 195.031C403.001 195.047 401.053 194.865 399.219 194.188C395.464 192.801 393.733 189.151 392.062 185.781C390.922 183.48 389.52 181.213 388.844 178.719C388.331 176.828 388.37 174.921 388.625 173Z" fill="#313131" stroke="none"/>
</g>
<g opacity="1" vectornator:layerName="Kurve 2">
<path d="M409.5 153.438C405.629 153.458 401.074 153.886 397.531 155.562C395.909 156.331 394.698 157.581 393.25 158.594C390.875 160.255 387.936 161.214 386.344 163.812C384.296 167.153 384.949 170.992 384.875 174.688C384.922 177.06 386.877 178.922 389.25 178.875C391.623 178.828 393.516 176.873 393.469 174.5C393.35 172.212 392.902 169.939 393.125 167.656C393.205 167.147 394.062 166.25 394.375 165.969C395.481 164.974 396.61 164.172 397.562 163C398.387 161.986 399.025 160.791 400.062 159.969C402.667 157.906 406.589 156.838 409.781 156.188C412.299 155.675 415.059 155.304 417.625 155.75C419.832 156.134 421.791 157.328 423.781 158.281C421.916 156.929 420.13 155.37 417.938 154.562C415.286 153.586 412.289 153.423 409.5 153.438Z" fill="#313131" stroke="none"/>
</g>
<g opacity="1" vectornator:layerName="Kurve 3">
<path d="M414.906 150.688C412.533 150.708 410.636 152.627 410.656 155C410.677 157.373 412.627 159.302 415 159.281C415.909 159.188 416.833 159.08 417.719 158.844C419.117 158.471 420.436 157.899 421.812 157.469C422.919 157.123 424.738 156.587 425.938 157.031C426.646 157.293 427.123 158.152 427.531 158.719C427.832 159.136 428.151 159.529 428.5 159.906C428.168 158.461 428.341 156.78 427.469 155.5C426.523 154.113 424.803 153.364 423.312 152.75C421.425 151.973 419.481 151.304 417.469 150.938C416.634 150.785 415.75 150.775 414.906 150.688Z" fill="#313131" stroke="none"/>
</g>
<g opacity="1" vectornator:layerName="Kurve 4">
<path d="M421.469 153.062C419.794 153.055 418.201 154.051 417.5 155.688C416.566 157.869 417.6 160.378 419.781 161.312C420.563 161.593 421.335 161.879 422.094 162.219C422.338 162.328 422.531 162.529 422.781 162.625C422.827 162.642 422.677 162.475 422.719 162.5C423.48 162.969 423.946 163.915 424.406 164.625C425.355 166.089 426.353 167.68 427.5 169C428.657 170.331 430.242 170.729 431.625 171.719C434.414 173.716 433.45 178.436 433.531 181.312C434.426 177.992 436.558 173.915 434.719 170.5C434.126 169.398 433.389 168.581 432.531 167.688C432.132 167.272 431.632 166.804 431.5 166.219C431.18 164.807 430.96 163.339 430.594 161.938C430.449 161.384 430.224 160.862 430.062 160.312C429.805 159.435 429.499 158.616 429 157.844C428.362 156.857 427.472 156.035 426.531 155.344C425.478 154.57 424.324 154.013 423.156 153.438C422.611 153.204 422.027 153.065 421.469 153.062Z" fill="#313131" stroke="none"/>
</g>
<g opacity="1" vectornator:layerName="Kurve 5">
<path d="M428.188 160.656C427.811 160.687 427.446 160.826 427.094 161.156C426.9 161.338 426.815 161.487 426.688 161.719C426.554 161.962 426.516 162.417 426.5 162.594C426.432 163.343 427.027 164.215 427.406 164.812C427.877 165.553 428.407 166.239 428.938 166.938C428.226 167.726 427.815 168.761 427.844 169.906C427.907 170.914 427.988 171.91 428.156 172.906C428.282 173.649 428.366 173.989 428.531 174.719C428.621 175.113 428.718 175.513 428.812 175.906C428.841 176.025 428.907 176.344 428.938 176.469C428.974 176.618 429.016 177.142 429.094 176.938C429.102 176.916 429.09 176.977 429.094 177C429.109 177.106 429.125 177.055 429.125 177.062C429.13 177.001 429.148 176.893 429.156 176.844C429.179 176.708 429.128 176.54 429.219 176.438C429.187 176.741 429.151 177.04 429.125 177.344C429.114 177.478 429.137 177.654 429.156 177.781C429.181 177.945 429.083 178.156 429.219 178.25C430.737 179.301 432.123 181.128 433.969 181.125C435.31 181.123 435.924 179.254 436.812 178.25C436.861 178.196 436.878 177.7 436.906 177.281C436.908 177.3 436.906 177.234 436.906 177.219C436.875 176.932 436.787 176.66 436.75 176.375C436.773 176.391 436.79 176.422 436.812 176.438C436.857 176.468 436.894 176.903 436.906 177.062C436.912 176.957 436.937 176.778 436.938 176.75C436.943 175.346 436.671 173.924 436.531 172.531C436.484 172.057 436.429 171.57 436.406 171.094C436.396 170.875 436.493 170.236 436.406 170.438C435.282 173.045 436.42 170.45 436.438 169.688C436.396 168.028 435.364 166.649 433.969 165.969C433.591 165.004 433.187 164.035 432.562 163.25C432.237 162.841 431.718 162.533 431.312 162.219C430.491 161.583 429.318 160.565 428.188 160.656Z" fill="#313131" stroke="none"/>
</g>
<g opacity="1" vectornator:layerName="Kurve 6">
<path d="M433.719 175.062C431.348 174.947 429.334 176.786 429.219 179.156C428.745 181.974 428.188 181.667 428.75 181.969C429.23 182.227 428.845 180.799 429.188 180.375C429.409 180.1 429.184 181.086 429.156 181.438C429.096 182.192 429.009 183.011 428.719 183.719C428.602 184.004 428.36 184.212 428.188 184.469C428.24 184.568 428.281 184.781 428.281 184.781C428.078 184.985 427.913 185.224 427.719 185.438C427.874 184.944 427.99 184.668 428.062 184.625C427.685 185.152 427.325 185.683 426.938 186.188C426.217 187.124 425.604 188.105 425.062 189.156C424.741 189.781 424.447 190.409 424.188 191.062C423.747 191.598 423.394 192.203 422.875 192.688C420.975 194.464 418.821 195.674 416.625 197.031C415.671 197.621 414.491 198.216 414.031 199.312C413.823 199.81 414.033 200.406 414.125 200.938C414.214 201.452 414.997 201.832 415.438 201.906C415.648 201.942 415.981 201.957 416.188 201.875C416.6 201.711 416.65 201.701 416.938 201.531C416.98 201.506 417.021 201.495 417.062 201.469C417.039 201.475 417.093 201.455 417.125 201.438C417.144 201.426 417.204 201.392 417.188 201.406C418.479 201.021 419.689 200.434 421 200.094C422.923 199.594 424.971 199.318 426.656 198.188C428.008 197.281 429.018 195.956 429.875 194.594C430.247 194.002 430.523 193.289 430.969 192.75C432.084 191.401 433.642 190.508 434.75 189.125C436.991 186.33 437.532 183.046 437.812 179.562C437.928 177.192 436.089 175.178 433.719 175.062ZM428.062 184.625C428.102 184.57 428.15 184.524 428.188 184.469C428.166 184.427 428.102 184.602 428.062 184.625Z" fill="#313131" stroke="none"/>
</g>
<g opacity="1" vectornator:layerName="Kurve 7">
<path d="M430.906 165.344C430.351 165.268 429.787 165.38 429.344 165.781C428.264 166.758 429.003 168.159 429.188 169.344C429.252 169.76 429.274 170.204 429.25 170.625C429.173 172.006 428.642 173.465 428.375 174.812C428.093 176.237 428.011 177.641 427.75 179.062C427.449 180.702 427.272 182.355 426.844 183.969C426.719 184.438 426.569 185.063 426.469 185.531C426.4 185.851 425.997 186.662 426.281 186.5C428.785 185.068 426.278 186.501 426.156 187.406C425.935 189.769 427.668 191.841 430.031 192.062C432.394 192.284 434.467 190.55 434.688 188.188C434.395 186.72 434.483 187.285 434.406 186.719C434.516 187.002 434.622 187.284 434.719 187.562C434.779 187.736 434.759 187.183 434.781 187C434.838 186.536 434.934 186.054 435 185.594C435.179 184.341 435.278 183.079 435.25 181.812C435.223 180.599 434.978 179.448 434.844 178.25C434.734 177.272 434.609 176.29 434.5 175.312C434.584 173.904 434.583 172.487 434.375 171.094C434.135 169.489 433.592 167.246 432.406 166.062C432.016 165.673 431.461 165.42 430.906 165.344ZM430 168.719C430.048 168.748 430.078 168.84 430.125 168.875C430.093 168.851 430.054 168.835 430.031 168.812C430.01 168.791 429.974 168.703 430 168.719ZM433.469 181C433.652 182.457 433.375 181.562 433.375 181.562C433.375 181.562 433.015 181.747 432.938 181.781C433.108 181.511 433.295 181.224 433.469 181Z" fill="#313131" stroke="none"/>
</g>
</g>
</svg>
