<?xml version="1.0" encoding="UTF-8"?>
<svg id="Ebene_1" data-name="Ebene 1" xmlns="http://www.w3.org/2000/svg" xmlns:xlink="http://www.w3.org/1999/xlink" viewBox="0 0 256 256">
  <defs>
    <style>
      .cls-1 {
        fill: url(#Unbenannter_Verlauf_19);
      }

      .cls-2 {
        fill: url(#Unbenannter_Verlauf_2);
      }

      .cls-3 {
        fill: #27282c;
      }
    </style>
    <linearGradient id="Unbenannter_Verlauf_19" data-name="Unbenannter Verlauf 19" x1=".14" y1="255.88" x2=".14" y2="255.8" gradientTransform="translate(-178 639732) scale(2083.01 -2500)" gradientUnits="userSpaceOnUse">
      <stop offset=".3" stop-color="#ff1b2d"/>
      <stop offset=".44" stop-color="#fa1a2c"/>
      <stop offset=".59" stop-color="#ed1528"/>
      <stop offset=".76" stop-color="#d60e21"/>
      <stop offset=".93" stop-color="#b70519"/>
      <stop offset="1" stop-color="#a70014"/>
    </linearGradient>
    <linearGradient id="Unbenannter_Verlauf_2" data-name="Unbenannter Verlauf 2" x1="-.3" y1="255.94" x2="-.3" y2="255.85" gradientTransform="translate(660.87 555897.06) scale(1661.13 -2171.88)" gradientUnits="userSpaceOnUse">
      <stop offset="0" stop-color="#9c0000"/>
      <stop offset=".7" stop-color="#ff4b4b"/>
    </linearGradient>
  </defs>
  <g id="Ebene_2" data-name="Ebene 2">
    <path class="cls-3" d="m45,0h166c24.85,0,45,20.15,45,45v166c0,24.85-20.15,45-45,45H45c-24.85,0-45-20.15-45-45V45C0,20.15,20.15,0,45,0Z"/>
  </g>
  <g>
    <path class="cls-1" d="m91.82,189.96c-12.2-14.35-20.02-35.58-20.54-59.38v-5.16c.52-23.8,8.42-45.03,20.54-59.38,15.81-20.45,39.02-29.65,65.23-29.65,16.16,0,31.37,1.12,44.26,9.71-19.34-17.45-44.86-28.02-72.88-28.1h-.43c-60.76,0-110,49.24-110,110s46.41,107.16,104.76,109.91c1.72.09,3.52.09,5.24.09,28.19,0,53.88-10.57,73.3-28.02-12.89,8.59-27.24,8.94-43.4,8.94-26.12.09-50.36-8.42-66.09-28.96h0Z"/>
    <path class="cls-2" d="m91.82,66.04c10.05-11.95,23.12-19.08,37.38-19.08,32.05,0,58.01,36.27,58.01,81.13s-25.95,81.12-58.01,81.12c-14.27,0-27.24-7.22-37.38-19.08,15.81,20.45,39.27,33.52,65.4,33.52,16.07,0,31.2-4.9,44.09-13.49,22.52-20.28,36.7-49.59,36.7-82.16s-14.18-61.88-36.7-81.98c-12.89-8.59-27.93-13.49-44.09-13.49-26.21,0-49.67,12.98-65.4,33.52h0Z"/>
  </g>
</svg>