<?xml version="1.0" encoding="UTF-8" standalone="no"?>
<!DOCTYPE svg PUBLIC "-//W3C//DTD SVG 1.1//EN" "http://www.w3.org/Graphics/SVG/1.1/DTD/svg11.dtd">
<!-- Created with Vectornator (http://vectornator.io/) -->
<svg height="100%" stroke-miterlimit="10" style="fill-rule:nonzero;clip-rule:evenodd;stroke-linecap:round;stroke-linejoin:round;" version="1.1" viewBox="0 0 512 512" width="100%" xml:space="preserve" xmlns="http://www.w3.org/2000/svg" xmlns:vectornator="http://vectornator.io" xmlns:xlink="http://www.w3.org/1999/xlink">
<defs/>
<g id="Ebene-1" vectornator:layerName="Ebene 1">
<path d="M2.84217e-14 95C2.84217e-14 42.5329 42.5329 0 95 0L417 0C469.467 0 512 42.5329 512 95L512 417C512 469.467 469.467 512 417 512L95 512C42.5329 512 2.84217e-14 469.467 2.84217e-14 417L2.84217e-14 95Z" fill="#0072c6" fill-rule="nonzero" opacity="1" stroke="none" vectornator:layerName="Rechteck 1"/>
<path d="M108.531 139.414L281.522 106L280.921 406L108.531 370.226L108.531 139.414ZM169.869 295.205C156.786 279.892 153.14 255.828 159.403 235.84C168.11 208.044 190.201 198.65 208.688 205.085C219.24 208.774 228.634 217.652 233.652 231.25C236.054 237.77 237.341 245.234 237.427 252.826C237.599 266.466 232.88 282.509 223.529 293.704C209.159 310.861 184.796 312.62 169.912 295.205L169.869 295.205ZM183.338 280.664C176.903 271.099 175.145 256.085 178.19 243.604C182.437 226.274 193.289 220.398 202.34 224.43C207.53 226.746 212.12 232.28 214.565 240.773C215.723 244.847 216.366 249.48 216.409 254.241C216.494 262.734 214.178 272.772 209.588 279.763C202.554 290.487 190.63 291.559 183.338 280.707L183.338 280.664ZM292.803 169.226L393.218 169.226C398.837 169.226 403.426 173.815 403.426 179.434L403.426 183.123L324.501 236.354C323.472 237.041 320.942 239.014 318.839 240.344C315.751 242.36 315.536 241.973 312.277 240.129C307.258 237.341 298.594 231.422 292.76 227.39L292.76 169.226L292.803 169.226ZM403.469 206.758L403.469 314.164C403.469 322.743 396.434 329.82 387.813 329.82L292.803 329.82L292.803 250.381C298.508 254.156 306.1 259.131 310.775 262.005C314.55 264.321 315.236 265.394 319.44 262.949C321.37 261.833 323.258 260.375 324.545 259.517L403.469 206.801L403.469 206.758Z" fill="#ffffff" fill-rule="evenodd" opacity="1" stroke="none" vectornator:layerName="path"/>
</g>
</svg>
