<?xml version="1.0" encoding="UTF-8"?>
<svg id="Ebene_1" data-name="Ebene 1" xmlns="http://www.w3.org/2000/svg" viewBox="0 0 256 256">
  <defs>
    <style>
      .cls-1 {
        fill: #fff;
      }

      .cls-2 {
        fill: #0071c5;
      }
    </style>
  </defs>
  <g id="Ebene_2" data-name="Ebene 2">
    <rect class="cls-2" width="256" height="256" rx="45" ry="45"/>
  </g>
  <g>
    <path class="cls-1" d="m132.54,30.3h13.59v45.44c23.54.05,47.05-.07,70.57,0,4.63-.23,10.97,1.11,10.88,6.95.86,28.74.02,57.55.41,86.32.09,5.09-.07,13.11-7,13.18-24.92.86-49.92.07-74.86.34v43.17h-14.09c-34.63-6.29-69.34-12.09-104.01-18.18-.02-53.01-.02-106.01-.02-159,34.85-6.11,69.71-12.02,104.54-18.22h0Z"/>
    <g>
      <path class="cls-2" d="m146.12,82.56c25.17.02,50.33-.07,75.5.05-.43,2.98-1.34,5.91-3.84,7.77-15.04,14.02-29.99,28.11-44.99,42.17-9.02-8.16-17.79-16.59-26.67-24.88v-25.11h0Zm-69.41,8.32c12.81-4.84,27.79,1.95,33.22,14.34,7.41,17.04,6.36,40.35-8.36,53.23-13.56,11.61-36.31,5-42.49-11.5-8.13-19.02-4.18-48.28,17.63-56.07Z"/>
      <path class="cls-1" d="m179.93,134.57c13.66-12.97,27.42-25.86,41.15-38.76.07,26.63,0,53.28.02,79.91h-74.98c0-19.81-.02-39.62.02-59.41,8.47,7.5,16.06,16.04,25.06,22.88,3.7.68,6.2-2.52,8.72-4.61h0Z"/>
    </g>
    <path class="cls-1" d="m78.92,104.53c6.04-2.89,13.61.05,16.45,6.02,4.54,9,4.52,19.97,1.54,29.47-2.11,6.75-9.5,12.31-16.65,9.66-8.93-2.82-11.63-13.41-11.72-21.7-.11-8.59,1.86-19.29,10.38-23.45h0Z"/>
  </g>
</svg>