<?xml version="1.0" encoding="UTF-8" standalone="no"?>
<!DOCTYPE svg PUBLIC "-//W3C//DTD SVG 1.1//EN" "http://www.w3.org/Graphics/SVG/1.1/DTD/svg11.dtd">
<!-- Created with Vectornator (http://vectornator.io/) -->
<svg height="100%" stroke-miterlimit="10" style="fill-rule:nonzero;clip-rule:evenodd;stroke-linecap:round;stroke-linejoin:round;" version="1.1" viewBox="0 0 512 512" width="100%" xml:space="preserve" xmlns="http://www.w3.org/2000/svg" xmlns:vectornator="http://vectornator.io" xmlns:xlink="http://www.w3.org/1999/xlink">
<defs/>
<g id="Ebene-1" vectornator:layerName="Ebene 1">
<path d="M2.84217e-14 95C2.84217e-14 42.5329 42.5329 0 95 0L417 0C469.467 0 512 42.5329 512 95L512 417C512 469.467 469.467 512 417 512L95 512C42.5329 512 2.84217e-14 469.467 2.84217e-14 417L2.84217e-14 95Z" fill="#3a3c5b" fill-rule="nonzero" opacity="1" stroke="none" vectornator:layerName="Rechteck 1"/>
<g opacity="1" vectornator:layerName="perl.svg">
<path d="M481.001 256.001C481.001 380.264 380.265 481 256 481C131.735 481 30.9991 380.264 30.9991 255.999C30.9991 131.734 131.735 31 256 31C380.265 31 481.001 131.736 481.001 256.001" fill="#3a3c5b" fill-rule="nonzero" opacity="1" stroke="none" vectornator:layerName="path"/>
<path d="M412.74 272.642C405.16 224.804 354.972 193.817 317.599 170.447C301.273 160.238 274.803 146.94 271.38 125.468C269.967 116.596 270.019 107.429 269.723 98.4703C269.605 94.9516 269.55 91.4135 269.237 87.9036C268.83 83.3775 264.223 88.9567 261.697 85.0066C255.44 75.2253 257.849 87.9705 258.464 93.113C259.911 105.212 261.611 117.272 261.514 129.484C261.326 152.82 257.566 175.16 251.747 197.646C238.119 250.302 227.369 304.252 240.851 358.135C243.644 369.301 247.279 380.315 252.057 390.794C253.501 393.964 256.266 402.806 260.239 403.866C274.55 407.685 285.37 408.79 296.8 419.435C303.897 426.044 309.218 422.434 317.611 419.075C343.035 408.901 365.068 396.096 383.083 375.144C408.407 345.691 418.854 311.214 412.74 272.642M385.851 320.808C383.597 340.484 371.255 358.109 358.652 372.719C349.516 383.312 337.156 397.058 323.611 401.883C318.735 403.618 324.504 393.863 325.219 392.787C329.411 386.482 334.579 380.921 339.377 375.086C346.474 366.46 352.62 357.404 356.777 346.958C370.57 312.285 367.435 270.257 347.022 239.02C335.909 222.015 320.654 207.64 305.278 194.525C297.85 188.189 290.333 182.198 284.081 174.618C282.637 172.865 269.869 156.152 273.84 153.68C275.122 152.882 303.027 182.235 306.063 184.526C317.602 193.238 329.469 201.295 340.153 211.106C354.612 224.391 369.462 239.228 377.746 257.294C386.825 277.089 388.302 299.404 385.851 320.807" fill="#ffffff" fill-rule="nonzero" opacity="1" stroke="none" vectornator:layerName="path"/>
<path d="M247.712 37.0635C251.902 39.8584 252.832 56.1471 252.832 71.0409C252.832 85.9364 254.228 150.168 249.574 167.39C244.921 184.612 234.215 203.696 222.577 220.453C210.942 237.208 197.444 272.582 197.909 294.455C198.374 316.335 210.942 352.172 220.716 367.066C230.527 382.018 247.184 402.856 243.522 407.563C237.006 415.941 210.477 387.081 196.513 370.328C182.549 353.571 168.585 319.59 168.122 293.062C167.655 266.531 182.549 241.861 193.255 226.967C203.962 212.073 224.906 186.474 230.49 174.838C236.075 163.202 242.128 150.635 243.989 134.343C245.851 118.052 243.989 59.8701 243.989 59.8701C243.989 59.8701 243.522 34.2704 247.712 37.0635" fill="#ffffff" fill-rule="nonzero" opacity="1" stroke="none" vectornator:layerName="path"/>
<path d="M236.541 64.5247C240.729 66.388 241.196 71.5076 241.196 76.6271C241.196 81.7467 239.799 102.692 238.403 123.174C237.006 143.652 220.718 160.874 208.615 172.975C196.513 185.077 161.604 222.779 148.572 241.398C135.539 260.014 129.044 284.538 130.42 305.163C131.815 326.108 136.936 346.588 156.484 368.464C176.033 390.341 189.532 400.58 199.771 405.701C210.012 410.818 220.253 414.542 217.925 419.199C215.596 423.852 205.82 420.594 195.116 416.872C184.41 413.146 148.107 398.255 127.16 374.517C106.217 350.777 95.5125 319.127 96.4424 288.87C97.3705 258.618 105.752 246.051 119.714 226.502C133.678 206.954 172.31 178.096 184.41 170.65C196.513 163.2 212.803 150.635 220.718 140.394C228.629 130.155 232.817 121.775 232.352 107.813C231.887 93.8491 233.285 81.2818 232.818 76.6271C232.352 71.9743 232.352 62.665 236.541 64.5247M237.707 429.371C239.6 429.295 238.405 437.497 235.062 441.567C231.719 445.635 225.98 448.083 225.283 446.445C224.582 444.807 229.426 443.865 232.984 439.906C236.251 436.271 235.386 429.464 237.707 429.371M275.378 429.154C273.486 429.077 274.682 437.278 278.025 441.347C281.365 445.415 287.107 447.864 287.802 446.228C288.503 444.591 283.658 443.648 280.101 439.689C276.834 436.056 277.699 429.246 275.378 429.156M258.633 438.053C258.633 445.216 258.997 451.022 257.435 451.022C255.509 451.022 256.234 445.216 256.234 438.053C256.234 430.891 255.583 425.083 257.434 425.083C259.142 425.083 258.631 430.891 258.631 438.053" fill="#ffffff" fill-rule="nonzero" opacity="1" stroke="none" vectornator:layerName="path"/>
</g>
</g>
</svg>
