<?xml version="1.0" encoding="UTF-8"?><svg id="a" xmlns="http://www.w3.org/2000/svg" viewBox="0 0 128 128"><defs><style>.e{fill:#001e36;}.f{fill:#31a8ff;}</style></defs><rect class="e" x="0" y="0" width="128" height="128" rx="25" ry="25" transform="translate(128 0) rotate(90)"/><g id="b"><g id="c"><g id="d"><path class="f" d="m29,88.53v-49.88c0-.34.15-.53.48-.53.82,0,1.6,0,2.71-.05,1.16-.05,2.38-.05,3.68-.1,1.31-.05,2.71-.05,4.22-.1,1.5-.05,2.96-.05,4.41-.05,3.97,0,7.27.48,9.99,1.5,2.42.82,4.65,2.18,6.5,3.97,1.55,1.55,2.76,3.44,3.54,5.53.73,2.04,1.11,4.12,1.11,6.3,0,4.17-.97,7.61-2.91,10.32s-4.65,4.75-7.8,5.91c-3.3,1.21-6.93,1.65-10.91,1.65-1.16,0-1.94,0-2.42-.05s-1.16-.05-2.08-.05v15.56c.05.34-.19.63-.53.68h-9.4c-.39,0-.58-.19-.58-.63Zm10.57-41.06v16.29c.68.05,1.31.1,1.89.1h2.57c1.89,0,3.78-.29,5.57-.87,1.55-.44,2.91-1.36,3.97-2.57,1.02-1.21,1.5-2.86,1.5-4.99.05-1.5-.34-3.01-1.11-4.31-.82-1.26-1.99-2.23-3.39-2.76-1.79-.73-3.73-1.02-5.72-.97-1.26,0-2.38,0-3.3.05-.97-.05-1.65,0-1.99.05h0Z"/><path class="f" d="m95.89,60.8c-1.45-.78-3.01-1.31-4.65-1.65-1.79-.39-3.59-.63-5.43-.63-.97-.05-1.99.1-2.91.34-.63.15-1.16.48-1.5.97-.24.39-.39.87-.39,1.31s.19.87.48,1.26c.44.53,1.02.97,1.65,1.31,1.11.58,2.28,1.11,3.44,1.6,2.62.87,5.14,2.08,7.46,3.54,1.6,1.02,2.91,2.38,3.83,4.02.78,1.55,1.16,3.25,1.11,4.99.05,2.28-.63,4.56-1.89,6.45-1.36,1.94-3.25,3.44-5.43,4.31-2.38,1.02-5.28,1.55-8.77,1.55-2.23,0-4.41-.19-6.59-.63-1.7-.29-3.39-.82-4.94-1.55-.34-.19-.58-.53-.53-.92v-8.43c0-.15.05-.34.19-.44.15-.1.29-.05.44.05,1.89,1.11,3.88,1.89,6.01,2.38,1.84.48,3.78.73,5.72.73s3.15-.24,4.02-.68c.78-.34,1.31-1.16,1.31-2.04,0-.68-.39-1.31-1.16-1.94-.78-.63-2.38-1.36-4.75-2.28-2.47-.87-4.75-2.04-6.88-3.49-1.5-1.07-2.76-2.47-3.68-4.12-.78-1.55-1.16-3.25-1.11-4.94,0-2.08.58-4.07,1.65-5.87,1.21-1.94,3.01-3.49,5.09-4.46,2.28-1.16,5.14-1.7,8.58-1.7,1.99,0,4.02.15,6.01.44,1.45.19,2.86.58,4.17,1.11.19.05.39.24.48.44.05.19.1.39.1.58v7.9c0,.19-.1.39-.24.48-.44.1-.68.1-.87,0Z"/></g></g></g></svg>