<?xml version="1.0" encoding="UTF-8"?><svg id="a" xmlns="http://www.w3.org/2000/svg" viewBox="0 0 128 128"><defs><style>.b{fill:#8993be;}.c{fill:#fff;fill-rule:evenodd;}.d{fill:#232531;}</style></defs><rect class="b" x="0" y="0" width="128" height="128" rx="25" ry="25" transform="translate(128 0) rotate(90)"/><ellipse class="d" cx="64" cy="64" rx="50" ry="26.03"/><path class="c" d="m28.04,79.41l5.48-27.74h12.67c5.48.34,8.22,3.08,8.22,7.88,0,8.22-6.51,13.01-12.33,12.67h-6.16l-1.37,7.19h-6.51Zm9.25-12.33l1.71-10.27h4.45c2.4,0,4.11,1.03,4.11,3.08-.34,5.82-3.08,6.85-6.16,7.19h-4.11Zm15.85,5.14l5.48-27.74h6.51l-1.37,7.19h6.16c5.48.34,7.53,3.08,6.85,6.51l-2.4,14.04h-6.85l2.4-12.67c.34-1.71.34-2.74-2.05-2.74h-5.14l-3.08,15.41h-6.51Zm20.79,7.19l5.48-27.74h12.67c5.48.34,8.22,3.08,8.22,7.88,0,8.22-6.51,13.01-12.33,12.67h-6.16l-1.37,7.19h-6.51Zm9.25-12.33l1.71-10.27h4.45c2.4,0,4.11,1.03,4.11,3.08-.34,5.82-3.08,6.85-6.16,7.19h-4.11Z"/></svg>