<?xml version="1.0" encoding="UTF-8"?>
<svg id="Ebene_1" data-name="Ebene 1" xmlns="http://www.w3.org/2000/svg" xmlns:xlink="http://www.w3.org/1999/xlink" viewBox="0 0 256 256">
  <defs>
    <style>
      .cls-1 {
        fill: #fff;
      }

      .cls-2 {
        fill: url(#Unbenannter_Verlauf_2);
      }

      .cls-3 {
        fill: url(#Unbenannter_Verlauf);
      }

      .cls-4 {
        fill: #27282c;
      }

      .cls-5 {
        fill: url(#Unbenannter_Verlauf_3);
      }
    </style>
    <linearGradient id="Unbenannter_Verlauf" data-name="Unbenannter Verlauf" x1="1.34" y1="253.42" x2="1.92" y2="254.35" gradientTransform="translate(-178 49908) scale(144.8 -196)" gradientUnits="userSpaceOnUse">
      <stop offset=".02" stop-color="#765af8"/>
      <stop offset=".38" stop-color="#b345f1"/>
      <stop offset=".76" stop-color="#fa3293"/>
      <stop offset=".94" stop-color="#ff318c"/>
    </linearGradient>
    <linearGradient id="Unbenannter_Verlauf_2" data-name="Unbenannter Verlauf 2" x1="1.55" y1="253.37" x2="1.27" y2="254.08" gradientTransform="translate(-97.2 39888) scale(175.2 -156.8)" gradientUnits="userSpaceOnUse">
      <stop offset=".18" stop-color="#765af8"/>
      <stop offset=".24" stop-color="#8655f6"/>
      <stop offset=".34" stop-color="#9f4cf3"/>
      <stop offset=".44" stop-color="#ae47f2"/>
      <stop offset=".52" stop-color="#b345f1"/>
    </linearGradient>
    <linearGradient id="Unbenannter_Verlauf_3" data-name="Unbenannter Verlauf 3" x1="1.65" y1="254.15" x2="1.1" y2="254.51" gradientTransform="translate(-124 61392) scale(202 -240.8)" gradientUnits="userSpaceOnUse">
      <stop offset=".02" stop-color="#765af8"/>
      <stop offset=".38" stop-color="#b345f1"/>
    </linearGradient>
  </defs>
  <g id="Ebene_2" data-name="Ebene 2">
    <rect class="cls-4" width="256" height="256" rx="45" ry="45"/>
  </g>
  <g>
    <path class="cls-3" d="m28,66.44L62.06,28l69.69,15,9.38,28.44-6.87,49.38-27.71-14.18,1.46,39.49v34.37l-60.93.62-19.08-114.69h0Z"/>
    <polygon class="cls-2" points="91.13 145.19 94.87 98 151.44 39.88 202.06 49.25 228 113.94 200.81 140.81 156.75 133.63 128.93 162.37 91.13 145.19"/>
    <polygon class="cls-5" points="151.44 39.88 70.19 112.06 85.81 204.56 153.32 228 228 183.32 151.44 39.88"/>
    <rect x="65.5" y="65.5" width="125" height="125"/>
    <path class="cls-1" d="m77.38,167.07h46.87v7.81h-46.87s0-7.81,0-7.81Zm-.62-85.32h21.25c12.5,0,20,7.19,20,17.81,0,11.88-9.38,18.12-20.93,18.12h-8.75v15.63h-11.56v-51.56h-.01Zm20.62,26.56c5.45,0,9.07-3.75,9.07-8.12,0-5-3.44-7.81-9.38-7.81h-8.75v15.94h9.07-.01Zm23.44,17.81l6.87-8.12c4.68,3.75,9.69,6.25,15.63,6.25,4.68,0,7.5-1.88,7.5-5,0-2.81-1.88-4.37-10.62-6.56-10.62-2.81-17.19-5.63-17.19-15.94v-.31c0-9.38,7.5-15.63,18.12-15.63,7-.03,13.83,2.28,19.38,6.56l-5.94,8.75c-4.68-3.13-9.07-5-13.44-5s-6.56,1.88-6.56,4.68c0,3.44,2.19,4.68,11.25,6.87,10.62,2.81,16.56,6.56,16.56,15.63,0,10.31-7.81,16.25-19.07,16.25-8.29.12-16.33-2.9-22.5-8.44h.01Z"/>
  </g>
</svg>