<?xml version="1.0" encoding="UTF-8" standalone="no"?>
<!DOCTYPE svg PUBLIC "-//W3C//DTD SVG 1.1//EN" "http://www.w3.org/Graphics/SVG/1.1/DTD/svg11.dtd">
<!-- Created with Vectornator (http://vectornator.io/) -->
<svg height="100%" stroke-miterlimit="10" style="fill-rule:nonzero;clip-rule:evenodd;stroke-linecap:round;stroke-linejoin:round;" version="1.1" viewBox="0 0 512 512" width="100%" xml:space="preserve" xmlns="http://www.w3.org/2000/svg" xmlns:vectornator="http://vectornator.io" xmlns:xlink="http://www.w3.org/1999/xlink">
<defs>
<linearGradient gradientTransform="matrix(1 0 0 1 0 0)" gradientUnits="userSpaceOnUse" id="LinearGradient" x1="246.99" x2="254.91" y1="-0.49038" y2="505.165">
<stop offset="0.000578055" stop-color="#949494"/>
<stop offset="0.999404" stop-color="#515195"/>
</linearGradient>
</defs>
<g id="Ebene-1" vectornator:layerName="Ebene 1">
<path d="M2.84217e-14 95C2.84217e-14 42.5329 42.5329 0 95 0L417 0C469.467 0 512 42.5329 512 95L512 417C512 469.467 469.467 512 417 512L95 512C42.5329 512 2.84217e-14 469.467 2.84217e-14 417L2.84217e-14 95Z" fill="url(#LinearGradient)" fill-rule="nonzero" opacity="1" stroke="none" vectornator:layerName="Rechteck 1"/>
<g opacity="1" vectornator:layerName="Pop_OS-Logo-nobg.svg">
<path d="M413.426 274.396C412.693 277.51 411.111 280.27 408.41 282.005C404.165 284.725 398.995 283.936 395.329 280.625C391.895 277.55 390.737 272.346 391.818 267.852C392.937 263.161 396.487 259.021 401.04 257.72C411.188 254.842 415.394 266.117 413.426 274.396ZM407.214 242.385C400.924 239.822 403.085 206.116 408.834 165.195C410.455 153.763 413.233 148.362 416.358 145.602C420.834 141.7 428.976 141.542 434.494 142.37C440.822 143.316 446.88 146.312 451.472 150.846C455.523 154.867 455.986 158.967 454.597 164.289C452.321 172.765 448.423 180.886 444.681 188.81C443.793 190.741 436.037 205.761 434.996 207.614C416.281 241.281 412.538 244.553 407.214 242.385Z" fill="#6cc7d2" fill-rule="nonzero" opacity="1" stroke="none" vectornator:layerName="path"/>
<path d="M280.265 227.207C283.97 243.37 283.584 261.111 280.42 273.883C277.449 285.947 269.384 296.749 256.574 300.375C245.345 303.569 232.264 301.243 224.239 293.358C211.042 280.428 203.325 250.072 206.759 228.035C209.537 210.334 218.875 187.666 239.364 186.681C240.676 186.602 241.988 186.641 243.3 186.76C264.175 188.691 275.558 206.668 280.265 227.207ZM242.528 263.988C243.686 264.186 244.843 264.186 246.001 263.831C249.898 262.687 252.136 258.548 253.178 254.527C254.76 248.416 254.529 241.833 252.484 235.841C251.442 232.805 249.898 229.848 247.545 227.641C239.249 219.875 230.953 227.956 229.525 237.142C228.406 244.317 230.026 252.635 234.425 258.43C236.47 261.111 239.403 263.436 242.528 263.988Z" fill="#bbb5b3" fill-rule="nonzero" opacity="1" stroke="none" vectornator:layerName="path"/>
<path d="M325.45 261.465C325.411 291.308 328.344 314.134 315.495 316.854C305.076 319.022 305.424 309.679 304.613 301.834C301.526 271.439 298.71 220.939 297.513 190.386C298.362 177.259 306.967 169.217 315.919 167.245C329.733 164.21 344.473 165.077 356.704 172.804C380.898 188.1 382.827 216.169 368.164 239.073C360.139 251.57 335.868 260.637 325.45 259.849L325.45 261.465ZM328.537 194.565C327.032 194.802 324.562 195.511 323.868 197.009C322.209 200.518 322.324 222.792 325.218 232.135C325.681 233.672 326.723 235.131 328.228 235.683C333.707 237.733 338.646 230.873 340.884 226.734C344.01 220.978 345.013 214.198 343.045 207.89C341.193 202.016 335.444 193.501 328.537 194.565Z" fill="#99918d" fill-rule="nonzero" opacity="1" stroke="none" vectornator:layerName="path"/>
<path d="M187.08 209.388C178.012 228.981 162.964 244.553 142.127 252.24C148.108 268.207 154.205 283.976 160.147 299.902C163.466 308.496 166.63 317.918 163.736 326.394C160.726 335.067 148.996 337.472 140.468 328.247C124.069 310.428 68.621 197.522 64.5309 189.046C61.0581 181.753 55.849 173.947 56.0034 165.511C56.2735 152.817 75.4893 139.965 84.7114 133.381C97.5991 124.196 112.493 117.928 128.429 117.888C140.854 117.888 151.465 121.358 160.88 127.507C175.311 136.969 185.344 152.068 189.048 169.138C192.289 184.158 191.595 199.532 187.08 209.388M144.828 187.942C141.587 175.918 134.256 164.841 125.034 157.074C123.027 155.379 120.867 153.802 118.358 152.935C101.072 147.14 108.558 176.667 111.374 184.118C115.272 194.565 121.175 207.772 129.085 215.656C130.822 217.391 132.867 218.928 135.221 219.401C138.809 220.15 142.127 217.588 143.941 214.592C145.446 212.108 146.025 209.152 146.372 206.274C147.028 200.163 146.449 193.934 144.828 187.942Z" fill="#48b9c7" fill-rule="nonzero" opacity="1" stroke="none" vectornator:layerName="path"/>
<path d="M393.799 359.459C393.722 376.765 383.381 394.072 360.577 394.072C337.772 394.072 327.161 377.041 327.161 359.656C327.161 337.973 341.94 324.57 361.04 324.57C383.188 324.767 393.992 341.561 393.799 359.459ZM361.04 335.49C346.724 335.49 338.698 345.661 338.621 359.537C338.621 371.601 345.219 382.915 360.77 382.915C376.32 382.915 382.262 370.655 382.262 359.419C382.455 347.75 376.397 335.766 361.04 335.49ZM403.369 385.202C403.369 387.764 403.446 373.02 403.369 370.773L413.864 370.773L414.597 379.801C418.031 381.811 423.356 383.309 427.716 383.309C435.819 383.309 444.27 381.22 444.27 373.138C444 365.806 434.585 364.308 426.983 363.519C414.057 362.179 403.639 358.946 403.639 344.123C403.639 330.917 418.263 324.333 429.144 324.333C437.903 324.136 444.115 325.555 452.026 332.021C452.026 337.343 451.948 340.496 451.948 345.818L441.8 345.818L441.144 337.067C437.054 335.056 432.848 334.504 429.607 334.583C422.623 334.662 415.176 338.013 415.176 344.005C415.176 349.879 419.999 351.495 428.565 352.757C442.533 354.649 456 357.882 456 373.099C455.923 389.735 440.643 394.111 427.523 394.111C417.53 394.15 411.279 392.258 403.369 385.202Z" fill="#554741" fill-rule="nonzero" opacity="1" stroke="none" vectornator:layerName="path"/>
<path d="M313 388.395C313 391.43 310.608 393.875 307.637 393.875L245.629 393.875C242.658 393.875 240.265 391.43 240.265 388.395L240.265 387.922C240.265 384.886 242.658 382.442 245.629 382.442L307.637 382.442C310.608 382.442 313 384.886 313 387.922L313 388.395Z" fill="#faa41a" fill-rule="nonzero" opacity="1" stroke="none" vectornator:layerName="path"/>
</g>
</g>
</svg>
