<?xml version="1.0" encoding="UTF-8" standalone="no"?>
<!DOCTYPE svg PUBLIC "-//W3C//DTD SVG 1.1//EN" "http://www.w3.org/Graphics/SVG/1.1/DTD/svg11.dtd">
<!-- Created with Vectornator (http://vectornator.io/) -->
<svg height="100%" stroke-miterlimit="10" style="fill-rule:nonzero;clip-rule:evenodd;stroke-linecap:round;stroke-linejoin:round;" version="1.1" viewBox="0 0 512 512" width="100%" xml:space="preserve" xmlns="http://www.w3.org/2000/svg" xmlns:vectornator="http://vectornator.io" xmlns:xlink="http://www.w3.org/1999/xlink">
<defs/>
<g id="Ebene-1" vectornator:layerName="Ebene 1">
<path d="M2.84217e-14 95C2.84217e-14 42.5329 42.5329 0 95 0L417 0C469.467 0 512 42.5329 512 95L512 417C512 469.467 469.467 512 417 512L95 512C42.5329 512 2.84217e-14 469.467 2.84217e-14 417L2.84217e-14 95Z" fill="#336791" fill-rule="nonzero" opacity="1" stroke="none" vectornator:layerName="Rechteck 1"/>
<g opacity="1" vectornator:layerName="postgresql.svg">
<path d="M448.963 295.609C446.631 288.546 440.523 283.627 432.623 282.446C428.898 281.89 424.632 282.127 419.584 283.168C410.785 284.983 404.257 285.675 399.493 285.808C417.475 255.447 432.097 220.825 440.515 188.234C454.127 135.535 446.853 111.527 438.353 100.668C415.859 71.9249 383.04 56.4839 343.447 56.0114C322.325 55.7532 303.784 59.9233 294.111 62.9222C285.105 61.3332 275.422 60.4459 265.262 60.2819C246.216 59.978 229.388 64.13 215.008 72.6633C207.048 69.9713 194.272 66.1763 179.517 63.7547C144.816 58.0578 116.848 62.4969 96.3902 76.9489C71.6183 94.4469 60.1348 124.849 62.2586 167.31C62.9331 180.791 70.4744 221.81 82.3484 260.71C89.1725 283.069 96.4495 301.637 103.977 315.902C114.652 336.13 126.075 348.042 138.899 352.32C146.086 354.714 159.145 356.391 172.88 344.952C174.621 347.061 176.944 349.155 180.026 351.102C183.941 353.57 188.728 355.588 193.509 356.783C210.738 361.09 226.876 360.013 240.645 353.976C240.73 356.425 240.795 358.764 240.85 360.785C240.941 364.062 241.032 367.275 241.152 370.28C241.968 390.597 243.35 406.395 247.446 417.449C247.671 418.057 247.973 418.983 248.292 419.966C250.336 426.222 253.752 436.696 262.445 444.898C271.446 453.395 282.334 456 292.306 456C297.307 456 302.079 455.344 306.265 454.447C321.183 451.249 338.126 446.379 350.383 428.927C361.972 412.428 367.605 387.579 368.624 348.425C368.756 347.317 368.878 346.26 368.995 345.253L369.238 343.184L371.968 343.424L372.671 343.471C387.866 344.163 406.446 340.941 417.856 335.641C426.873 331.457 455.766 316.203 448.963 295.609" fill="#000000" fill-rule="nonzero" opacity="1" stroke="none" vectornator:layerName="path"/>
<path d="M422.982 299.613C377.802 308.933 374.695 293.637 374.695 293.637C422.397 222.853 442.34 133.004 425.132 111.014C378.183 51.0285 296.914 79.3978 295.557 80.1331L295.121 80.2121C286.195 78.3587 276.206 77.2558 264.978 77.0719C244.535 76.7377 229.027 82.4316 217.26 91.3554C217.26 91.3554 72.2837 31.63 79.0274 166.47C80.4615 195.155 120.143 383.521 167.472 326.626C184.771 305.821 201.486 288.23 201.486 288.23C209.787 293.745 219.726 296.558 230.144 295.548L230.954 294.861C230.702 297.444 230.817 299.97 231.277 302.962C219.084 316.584 222.668 318.975 198.294 323.993C173.63 329.076 188.119 338.125 197.579 340.492C209.047 343.358 235.578 347.421 253.505 322.325L252.791 325.189C257.567 329.016 260.921 350.078 260.359 369.172C259.797 388.265 259.422 401.375 263.185 411.614C266.951 421.853 270.702 444.892 302.745 438.026C329.517 432.289 343.392 417.42 345.323 392.618C346.692 374.986 349.792 377.593 349.987 361.829L352.474 354.366C355.34 330.465 352.929 322.754 369.423 326.34L373.434 326.693C385.572 327.244 401.463 324.739 410.789 320.405C430.87 311.086 442.78 295.525 422.979 299.613L422.982 299.613" fill="#336791" fill-rule="nonzero" opacity="1" stroke="none" vectornator:layerName="path"/>
<path d="M225.746 179.298C221.675 178.731 217.988 179.256 216.122 180.668C215.074 181.463 214.749 182.384 214.661 183.017C214.427 184.696 215.602 186.552 216.326 187.509C218.37 190.22 221.357 192.082 224.313 192.492C224.742 192.553 225.169 192.58 225.593 192.58C230.522 192.58 235.005 188.741 235.4 185.908C235.894 182.359 230.743 179.994 225.746 179.3M360.626 179.411C360.237 176.629 355.287 175.836 350.59 176.489C345.899 177.142 341.35 179.26 341.73 182.048C342.034 184.216 345.949 187.916 350.582 187.916C350.974 187.916 351.369 187.891 351.767 187.834C354.86 187.406 357.13 185.442 358.209 184.31C359.849 182.584 360.8 180.661 360.626 179.411" fill="#ffffff" fill-rule="nonzero" opacity="1" stroke="none" vectornator:layerName="path"/>
<path d="M438.016 298.554C436.293 293.345 430.748 291.669 421.536 293.571C394.183 299.217 384.387 295.306 381.171 292.938C402.432 260.549 419.923 221.396 429.358 184.867C433.828 167.564 436.296 151.494 436.498 138.395C436.722 124.019 434.273 113.455 429.223 107.001C408.863 80.9854 378.98 67.0301 342.809 66.6473C317.941 66.3677 296.931 72.7316 292.858 74.5212C284.28 72.3883 274.93 71.0787 264.75 70.9116C246.082 70.6093 229.945 75.0788 216.585 84.1893C210.782 82.0291 195.785 76.8805 177.443 73.9257C145.735 68.8212 120.538 72.6891 102.557 85.4275C81.1011 100.628 71.196 127.801 73.1147 166.188C73.7604 179.102 81.1193 218.832 92.732 256.88C108.018 306.959 124.635 335.308 142.118 341.14C144.164 341.822 146.523 342.299 149.126 342.299C155.503 342.299 163.323 339.425 171.458 329.645C181.381 317.741 191.645 306.127 202.238 294.816C209.111 298.504 216.661 300.564 224.383 300.771C224.399 300.973 224.418 301.175 224.437 301.376C223.107 302.961 221.806 304.569 220.532 306.199C215.182 312.991 214.068 314.406 196.845 317.951C191.946 318.963 178.934 321.645 178.742 330.766C178.536 340.732 194.124 344.917 195.9 345.361C202.089 346.91 208.052 347.674 213.738 347.674C227.568 347.674 239.738 343.129 249.464 334.334C249.164 369.862 250.646 404.87 254.911 415.536C258.406 424.269 266.94 445.609 293.9 445.607C297.856 445.607 302.21 445.147 307 444.12C335.137 438.089 347.356 425.653 352.082 398.236C354.611 383.583 358.951 348.595 360.993 329.827C365.302 331.171 370.848 331.787 376.844 331.785C389.35 331.785 403.781 329.128 412.831 324.927C422.997 320.206 441.343 308.621 438.016 298.554ZM371.011 171.733C370.918 177.273 370.156 182.303 369.347 187.553C368.477 193.2 367.577 199.038 367.351 206.125C367.128 213.023 367.989 220.193 368.822 227.128C370.505 241.135 372.232 255.555 365.546 269.784C364.436 267.816 363.446 265.782 362.584 263.694C361.753 261.679 359.948 258.443 357.449 253.965C347.728 236.53 324.963 195.704 336.616 179.044C340.088 174.086 348.898 168.987 371.011 171.733ZM344.206 77.8665C376.617 78.582 402.254 90.7067 420.406 113.902C434.328 131.693 418.997 212.646 374.617 282.484C374.171 281.917 373.722 281.351 373.271 280.787L372.709 280.086C384.178 261.146 381.935 242.407 379.939 225.793C379.119 218.975 378.344 212.535 378.541 206.486C378.745 200.075 379.593 194.575 380.413 189.258C381.42 182.706 382.446 175.926 382.163 167.933C382.374 167.094 382.459 166.104 382.349 164.928C381.627 157.264 372.876 134.326 355.041 113.564C345.285 102.208 331.058 89.5004 311.632 80.9292C319.987 79.1973 331.413 77.5824 344.206 77.8665ZM162.849 322.486C153.885 333.263 147.696 331.197 145.661 330.52C132.398 326.096 117.009 298.064 103.441 253.612C91.7005 215.149 84.8398 176.472 84.296 165.627C82.5823 131.327 90.8968 107.422 109.01 94.576C138.488 73.672 186.954 86.184 206.428 92.5297C206.149 92.8062 205.857 93.0644 205.58 93.3455C173.623 125.619 174.381 180.76 174.46 184.131C174.457 185.431 174.566 187.272 174.715 189.805C175.265 199.079 176.289 216.34 173.554 235.888C171.014 254.053 176.614 271.832 188.915 284.667C190.177 285.982 191.504 287.234 192.891 288.417C187.415 294.281 175.516 307.249 162.849 322.486ZM196.998 276.921C187.084 266.575 182.581 252.186 184.643 237.437C187.529 216.789 186.464 198.804 185.892 189.142C185.811 187.79 185.74 186.605 185.699 185.671C190.367 181.531 212.002 169.94 227.431 173.475C234.471 175.087 238.761 179.881 240.544 188.128C249.775 230.821 241.766 248.616 235.331 262.916C234.004 265.861 232.751 268.646 231.682 271.527L230.852 273.754C228.753 279.384 226.799 284.619 225.588 289.59C215.048 289.559 204.795 285.056 196.998 276.92L196.998 276.921ZM198.616 334.498C195.539 333.73 192.771 332.394 191.147 331.287C192.503 330.649 194.917 329.78 199.104 328.917C219.365 324.747 222.495 321.803 229.328 313.126C230.895 311.136 232.671 308.882 235.13 306.135L235.133 306.132C238.796 302.03 240.472 302.726 243.51 303.987C245.973 305.005 248.371 308.092 249.344 311.489C249.804 313.093 250.32 316.137 248.63 318.507C234.355 338.494 213.555 338.237 198.616 334.498ZM304.654 433.173C279.867 438.484 271.091 425.837 265.307 411.378C261.575 402.045 259.739 359.954 261.041 313.471C261.058 312.853 260.97 312.256 260.8 311.694C260.648 310.584 260.416 309.486 260.107 308.409C258.172 301.646 253.455 295.988 247.796 293.643C245.547 292.712 241.421 291.002 236.462 292.271C237.52 287.914 239.353 282.993 241.342 277.666L242.176 275.425C243.115 272.898 244.294 270.281 245.54 267.51C252.274 252.549 261.497 232.056 251.487 185.762C247.738 168.422 235.217 159.954 216.236 161.922C204.857 163.099 194.446 167.69 189.254 170.323C188.137 170.888 187.116 171.435 186.162 171.967C187.611 154.496 193.087 121.845 213.568 101.188C226.465 88.1833 243.639 81.7602 264.564 82.1065C305.795 82.7811 332.235 103.94 347.157 121.574C360.015 136.767 366.977 152.073 369.756 160.328C348.86 158.203 334.648 162.327 327.444 172.627C311.77 195.032 336.018 238.518 347.672 259.417C349.809 263.247 351.653 266.557 352.234 267.964C356.029 277.161 360.942 283.302 364.528 287.783C365.628 289.157 366.695 290.489 367.506 291.653C361.177 293.477 349.809 297.693 350.845 318.766C350.01 329.339 344.068 378.843 341.049 396.334C337.065 419.441 328.562 428.047 304.654 433.174L304.654 433.173ZM408.117 314.773C401.645 317.777 390.815 320.03 380.527 320.514C369.163 321.046 363.378 319.241 362.017 318.131C361.379 304.999 366.266 303.627 371.439 302.175C372.252 301.947 373.045 301.723 373.811 301.456C374.286 301.843 374.807 302.228 375.378 302.605C384.512 308.633 400.802 309.283 423.801 304.535L424.053 304.485C420.951 307.385 415.643 311.278 408.117 314.773Z" fill="#ffffff" fill-rule="nonzero" opacity="1" stroke="none" vectornator:layerName="path"/>
</g>
</g>
</svg>
