<?xml version="1.0" encoding="UTF-8"?>
<svg id="Ebene_1" data-name="Ebene 1" xmlns="http://www.w3.org/2000/svg" viewBox="0 0 256 256">
  <defs>
    <style>
      .cls-1 {
        fill: #fff;
      }

      .cls-2 {
        fill: #d24625;
      }
    </style>
  </defs>
  <g id="Ebene_2" data-name="Ebene 2">
    <path class="cls-2" d="m45,0h166c24.85,0,45,20.15,45,45v166c0,24.85-20.15,45-45,45H45c-24.85,0-45-20.15-45-45V45C0,20.15,20.15,0,45,0Z"/>
  </g>
  <g>
    <path class="cls-1" d="m133.23,30.3h12.88v20.45c24.29.14,48.6-.25,72.87.11,5.23-.5,9.32,3.57,8.79,8.79.39,42.44-.09,84.91.23,127.37-.23,4.59.45,9.68-2.18,13.75-3.32,2.41-7.63,2.09-11.52,2.27-22.72-.11-45.44-.07-68.19-.07v22.72h-14.13c-34.63-6.32-69.32-12.09-103.97-18.18-.02-53.01,0-106.02,0-159,35.06-6.06,70.11-12.24,105.22-18.22Z"/>
    <path class="cls-2" d="m146.11,57.57h74.98v138.6h-74.98v-18.18h54.53v-9.09h-54.53v-11.36h54.53v-9.09h-54.51c-.02-4.45-.02-8.91-.04-13.36,9,2.79,19.24,2.73,27.29-2.68,8.7-5.16,13.25-15,14-24.81-9.97-.07-19.95-.05-29.9-.05-.02-9.88.11-19.77-.2-29.63-3.73.73-7.45,1.5-11.16,2.29v-22.65h0Z"/>
    <path class="cls-1" d="m162.04,73.17c15.79.73,29.06,14.02,29.9,29.76-9.98.11-19.95.07-29.92.07,0-9.95-.02-19.9.02-29.83h0Z"/>
    <path class="cls-2" d="m64.45,90.33c12.34.59,27.29-4.89,37.51,4.36,9.79,11.88,7.2,33.74-7.32,40.85-5.16,2.63-11.06,2.27-16.68,2.09-.02,8.88-.04,17.77-.02,26.65-4.51-.39-9.01-.77-13.52-1.14-.2-24.27-.25-48.56.02-72.82h0Z"/>
    <path class="cls-1" d="m77.95,102.62c4.48-.21,10.02-1.02,13.04,3.18,2.59,4.45,2.45,10.32.29,14.9-2.59,4.68-8.45,4.23-12.97,4.77-.48-7.61-.43-15.22-.36-22.86h0Z"/>
  </g>
</svg>