<?xml version="1.0" encoding="UTF-8" standalone="no"?>
<!DOCTYPE svg PUBLIC "-//W3C//DTD SVG 1.1//EN" "http://www.w3.org/Graphics/SVG/1.1/DTD/svg11.dtd">
<!-- Created with Vectornator (http://vectornator.io/) -->
<svg height="100%" stroke-miterlimit="10" style="fill-rule:nonzero;clip-rule:evenodd;stroke-linecap:round;stroke-linejoin:round;" version="1.1" viewBox="0 0 512 512" width="100%" xml:space="preserve" xmlns="http://www.w3.org/2000/svg" xmlns:vectornator="http://vectornator.io" xmlns:xlink="http://www.w3.org/1999/xlink">
<defs/>
<g id="Ebene-1" vectornator:layerName="Ebene 1">
<path d="M2.84217e-14 95C2.84217e-14 42.5329 42.5329 0 95 0L417 0C469.467 0 512 42.5329 512 95L512 417C512 469.467 469.467 512 417 512L95 512C42.5329 512 2.84217e-14 469.467 2.84217e-14 417L2.84217e-14 95Z" fill="#232531" fill-rule="nonzero" opacity="1" stroke="none" vectornator:layerName="Rechteck 1"/>
</g>
<g id="Ebene-2" vectornator:layerName="Ebene 2">
<g opacity="1" vectornator:layerName="microsoft-powerpoint-2013.svg">
<path d="M264.708 93.3311L286.156 93.3311L286.156 127.378C326.599 127.605 367.077 126.961 407.48 127.566C416.181 126.734 422.99 133.504 422.122 142.205C422.763 212.872 421.97 283.575 422.5 354.282C422.122 361.923 423.257 370.397 418.868 377.168C413.345 381.178 406.157 380.648 399.687 380.951C361.856 380.763 324.026 380.839 286.156 380.839L286.156 418.669L262.629 418.669C204.976 408.152 147.207 398.543 89.5175 388.405C89.4781 300.148 89.5175 211.888 89.5175 123.668C147.885 113.572 206.259 103.282 264.708 93.3311Z" fill="#d24625" fill-rule="nonzero" opacity="1" stroke="none" vectornator:layerName="path"/>
<path d="M286.156 138.728L410.997 138.728L410.997 369.492L286.156 369.492L286.156 339.228L376.949 339.228L376.949 324.096L286.156 324.096L286.156 305.181L376.949 305.181L376.949 290.049L286.196 290.049C286.156 282.634 286.156 275.219 286.123 267.805C301.104 272.456 318.164 272.344 331.556 263.338C346.046 254.752 353.612 238.37 354.859 222.027C338.253 221.912 321.644 221.951 305.075 221.951C305.038 205.493 305.262 189.039 304.736 172.62C298.532 173.831 292.327 175.117 286.16 176.44L286.16 138.728L286.156 138.728Z" fill="#ffffff" fill-rule="nonzero" opacity="1" stroke="none" vectornator:layerName="path"/>
<path d="M312.677 164.715C338.971 165.926 361.061 188.055 362.462 214.273C345.853 214.464 329.247 214.388 312.638 214.388C312.638 197.818 312.601 181.249 312.677 164.715Z" fill="#d24625" fill-rule="nonzero" opacity="1" stroke="none" vectornator:layerName="path"/>
<path d="M150.194 193.279C170.738 194.262 195.63 185.144 212.654 200.542C228.96 220.329 224.647 256.719 200.472 268.564C191.886 272.949 182.05 272.347 172.705 272.042C172.666 286.835 172.632 301.625 172.666 316.418C165.164 315.766 157.66 315.136 150.155 314.527C149.816 274.121 149.743 233.682 150.194 193.279Z" fill="#ffffff" fill-rule="nonzero" opacity="1" stroke="none" vectornator:layerName="path"/>
<path d="M172.666 213.747C180.12 213.405 189.35 212.046 194.383 219.043C198.696 226.458 198.469 236.218 194.873 243.859C190.561 251.653 180.801 250.896 173.271 251.804C172.475 239.129 172.554 226.455 172.666 213.747Z" fill="#d24625" fill-rule="nonzero" opacity="1" stroke="none" vectornator:layerName="path"/>
</g>
</g>
</svg>
