<?xml version="1.0" encoding="UTF-8"?><svg id="a" xmlns="http://www.w3.org/2000/svg" viewBox="0 0 128 128"><defs><style>.b{fill:#fff;}.c{fill:#673ab8;}</style></defs><rect class="c" x="0" y="0" width="128" height="128" rx="25" ry="25" transform="translate(128 0) rotate(90)"/><polygon class="b" points="64 14 107.3 39 107.3 89 64 114 20.7 89 20.7 39 64 14"/><path class="c" d="m32.49,88.59c5.76,7.37,24.05,1.75,41.32-11.74,17.27-13.49,27.15-29.89,21.39-37.26-5.76-7.37-24.05-1.75-41.32,11.74-17.27,13.49-27.15,29.89-21.39,37.26Zm2.46-1.92c-1.91-2.44-1.08-7.24,2.56-13.28,3.83-6.36,10.33-13.38,18.29-19.6,7.96-6.22,16.34-10.83,23.44-13,6.74-2.07,11.6-1.72,13.5.73,1.91,2.44,1.08,7.24-2.56,13.28-3.83,6.36-10.33,13.38-18.29,19.6-7.96,6.22-16.34,10.83-23.44,13-6.74,2.07-11.6,1.72-13.5-.73Z"/><path class="c" d="m95.2,88.59c5.76-7.37-4.12-23.76-21.39-37.26-17.27-13.49-35.57-19.11-41.32-11.74-5.76,7.37,4.12,23.76,21.39,37.26,17.27,13.49,35.57,19.11,41.32,11.74Zm-2.46-1.92c-1.91,2.44-6.77,2.79-13.5.73-7.1-2.18-15.48-6.79-23.44-13-7.96-6.22-14.46-13.24-18.29-19.6-3.64-6.04-4.47-10.84-2.56-13.28,1.91-2.44,6.77-2.79,13.5-.73,7.1,2.18,15.48,6.79,23.44,13,7.96,6.22,14.46,13.24,18.29,19.6,3.64,6.04,4.47,10.84,2.56,13.28Z"/><path class="c" d="m63.85,70.72c3.66,0,6.63-2.97,6.63-6.63s-2.97-6.63-6.63-6.63-6.63,2.97-6.63,6.63,2.97,6.63,6.63,6.63h0Z"/></svg>