<?xml version="1.0" encoding="UTF-8"?><svg id="a" xmlns="http://www.w3.org/2000/svg" viewBox="0 0 128 128"><defs><style>.b{fill:#99f;}.c{fill:#00005b;}</style></defs><rect class="c" x="0" y="0" width="128" height="128" rx="25" ry="25" transform="translate(128 0) rotate(90)"/><path class="b" d="m29,90.23v-52.27c0-.36.15-.56.51-.56.86,0,1.68,0,2.84-.05,1.22-.05,2.49-.05,3.86-.1s2.84-.05,4.42-.1,3.1-.05,4.62-.05c4.17,0,7.62.51,10.46,1.57,2.54.86,4.88,2.29,6.81,4.17,1.63,1.63,2.9,3.61,3.71,5.79.76,2.13,1.17,4.32,1.17,6.6,0,4.37-1.02,7.98-3.05,10.82s-4.88,4.98-8.18,6.2c-3.45,1.27-7.26,1.73-11.43,1.73-1.22,0-2.03,0-2.54-.05s-1.22-.05-2.18-.05v16.31c.05.36-.2.66-.56.71h-9.85c-.41,0-.61-.2-.61-.66h0Zm11.07-43.03v17.07c.71.05,1.37.1,1.98.1h2.69c1.98,0,3.96-.3,5.84-.91,1.63-.46,3.05-1.42,4.17-2.69,1.07-1.27,1.57-3,1.57-5.23.05-1.57-.36-3.15-1.17-4.52-.86-1.32-2.08-2.34-3.56-2.9-1.88-.76-3.91-1.07-5.99-1.02-1.32,0-2.49,0-3.45.05-1.02-.05-1.73,0-2.08.05h0Z"/><path class="b" d="m74.52,50.15h8.89c.51,0,.91.36,1.07.81.15.41.25.81.3,1.27.1.51.2,1.07.25,1.57.05.56.1,1.17.1,1.83,1.52-1.78,3.35-3.25,5.44-4.37,2.34-1.32,5.03-1.98,7.72-1.98.36-.05.66.2.71.56v10.11c0,.41-.25.56-.81.56-1.83-.05-3.71.1-5.49.51-1.47.3-2.9.76-4.27,1.37-.97.46-1.88,1.07-2.59,1.88v25.91c0,.51-.2.71-.66.71h-10.01c-.41.05-.76-.2-.81-.61v-28.35c0-1.22,0-2.49-.05-3.81s-.05-2.64-.1-3.96c0-1.17-.1-2.29-.2-3.45-.05-.25.1-.51.36-.56,0-.05.1-.05.15,0h0Z"/></svg>