<?xml version="1.0" encoding="UTF-8" standalone="no"?>
<!DOCTYPE svg PUBLIC "-//W3C//DTD SVG 1.1//EN" "http://www.w3.org/Graphics/SVG/1.1/DTD/svg11.dtd">
<!-- Created with Vectornator (http://vectornator.io/) -->
<svg height="100%" stroke-miterlimit="10" style="fill-rule:nonzero;clip-rule:evenodd;stroke-linecap:round;stroke-linejoin:round;" version="1.1" viewBox="0 0 512 512" width="100%" xml:space="preserve" xmlns="http://www.w3.org/2000/svg" xmlns:vectornator="http://vectornator.io" xmlns:xlink="http://www.w3.org/1999/xlink">
<defs>
<linearGradient gradientTransform="matrix(1 0 0 1 0 0)" gradientUnits="userSpaceOnUse" id="LinearGradient" x1="251.634" x2="255.172" y1="0.0448902" y2="515.054">
<stop offset="0" stop-color="#412547"/>
<stop offset="1" stop-color="#180024"/>
</linearGradient>
<radialGradient cx="-183.69" cy="328.972" gradientTransform="matrix(366.667 0 0 355 67546.5 -116628)" gradientUnits="userSpaceOnUse" id="RadialGradient" r="0.76">
<stop offset="0" stop-color="#4b2d4f" stop-opacity="0.98"/>
<stop offset="1" stop-color="#180024"/>
</radialGradient>
</defs>
<g id="Ebene-1" vectornator:layerName="Ebene 1">
<path d="M2.84217e-14 95C2.84217e-14 42.5329 42.5329 0 95 0L417 0C469.467 0 512 42.5329 512 95L512 417C512 469.467 469.467 512 417 512L95 512C42.5329 512 2.84217e-14 469.467 2.84217e-14 417L2.84217e-14 95Z" fill="url(#LinearGradient)" fill-rule="nonzero" opacity="1" stroke="none" vectornator:layerName="Rechteck 1"/>
<g opacity="1" vectornator:layerName="premiere-cc.svg">
<path d="M72.6664 77.6661L439.334 77.6661L439.334 434.333L72.6664 434.333L72.6664 77.6661Z" fill="url(#RadialGradient)" fill-rule="nonzero" opacity="1" stroke="none" vectornator:layerName="path"/>
<path d="M72.6664 77.6661L439.334 77.6661L439.334 434.333L72.6664 434.333L72.6664 77.6661ZM56 451L456 451L456 60.9997L56 60.9997L56 451ZM296 225.666C296 223.666 296 218.833 295.167 209.499C295.167 208.166 295.333 207.833 296.5 207.333C306.667 203.166 330.5 195.833 357.5 195.833C358.833 195.833 359.5 196.166 359.5 197.499L359.5 221.666C359.5 222.999 359 223.333 357.666 223.333C347.166 222.833 332 224.166 326.166 226.666L326.166 331.666C326.166 332.999 325.666 333.666 324.166 333.666L298 333.666C296.667 333.666 295.999 333.166 295.999 331.666L295.999 225.666L296 225.666ZM189.334 240.833C193.166 241.166 196.167 241.166 202.834 241.166C222.334 241.166 240.667 234.333 240.667 207.833C240.667 186.667 227.667 176 205.333 176C198.667 176 192.334 176.333 189.334 176.5L189.334 240.833ZM159.833 152.333C159.833 151.166 160.167 150.332 161.5 150.332C172.167 149.832 187.833 149.499 204.334 149.499C250.5 149.499 270.667 174.832 270.667 207.333C270.667 249.666 240 267.833 202.334 267.833C196 267.833 193.834 267.499 189.334 267.499L189.334 331.5C189.334 332.833 188.834 333.499 187.333 333.499L161.667 333.499C160.333 333.499 159.666 332.999 159.666 331.5L159.666 152.333L159.833 152.333Z" fill="#e579ff" fill-rule="nonzero" opacity="1" stroke="none" vectornator:layerName="path"/>
</g>
</g>
</svg>
