<?xml version="1.0" encoding="UTF-8" standalone="no"?>
<!DOCTYPE svg PUBLIC "-//W3C//DTD SVG 1.1//EN" "http://www.w3.org/Graphics/SVG/1.1/DTD/svg11.dtd">
<!-- Created with Vectornator (http://vectornator.io/) -->
<svg height="100%" stroke-miterlimit="10" style="fill-rule:nonzero;clip-rule:evenodd;stroke-linecap:round;stroke-linejoin:round;" version="1.1" viewBox="0 0 512 512" width="100%" xml:space="preserve" xmlns="http://www.w3.org/2000/svg" xmlns:vectornator="http://vectornator.io" xmlns:xlink="http://www.w3.org/1999/xlink">
<defs>
<radialGradient cx="327.328" cy="264.75" gradientTransform="matrix(1.38608 0 0 1.38608 -103.797 -78.8473)" gradientUnits="userSpaceOnUse" id="RadialGradient" r="32.1719">
<stop offset="0" stop-color="#4b2d4f" stop-opacity="0.98"/>
<stop offset="1" stop-color="#180024"/>
</radialGradient>
<radialGradient cx="215.156" cy="241.5" gradientTransform="matrix(1.38608 0 0 1.38608 -103.797 -78.8473)" gradientUnits="userSpaceOnUse" id="RadialGradient_2" r="55.5">
<stop offset="0" stop-color="#4b2d4f" stop-opacity="0.98"/>
<stop offset="1" stop-color="#180024"/>
</radialGradient>
</defs>
<g id="Ebene-1" vectornator:layerName="Ebene 1">
<path d="M2.84217e-14 95C2.84217e-14 42.5329 42.5329 0 95 0L417 0C469.467 0 512 42.5329 512 95L512 417C512 469.467 469.467 512 417 512L95 512C42.5329 512 2.84217e-14 469.467 2.84217e-14 417L2.84217e-14 95Z" fill="#180024" fill-rule="nonzero" opacity="1" stroke="none" vectornator:layerName="Rechteck 1"/>
<g opacity="1" vectornator:layerName="premiere-cc.svg">
<path d="M391.728 192.608C354.304 192.608 321.269 202.772 307.177 208.548C305.559 209.241 305.314 209.689 305.314 211.537C306.469 224.475 306.484 231.159 306.484 233.931L306.484 380.856C306.484 382.935 307.408 383.628 309.256 383.628L345.511 383.628C347.59 383.628 348.283 382.703 348.283 380.856L348.283 235.317C356.369 231.852 377.391 230.033 391.944 230.726C393.794 230.726 394.5 230.234 394.5 228.387L394.5 194.904C394.5 193.056 393.576 192.608 391.728 192.608Z" fill="url(#RadialGradient)" fill-rule="nonzero" opacity="1" stroke="none"/>
<path d="M179.441 128.372C156.569 128.372 134.841 128.849 120.056 129.542C119.15 129.542 118.585 129.848 118.236 130.321C117.893 130.812 117.76 131.505 117.76 132.314L117.5 132.314L117.5 380.639C117.5 382.717 118.423 383.411 120.272 383.411L155.877 383.411C157.958 383.411 158.649 382.487 158.649 380.639L158.649 291.93C164.887 291.93 167.889 292.406 176.668 292.406C189.72 292.406 202.159 290.833 213.486 287.555C217.283 286.457 220.917 285.101 224.445 283.613C225.265 283.267 226.067 282.898 226.871 282.53C230.348 280.943 233.723 279.236 236.876 277.246C239.936 275.316 242.776 273.114 245.496 270.792C246.282 270.121 247.036 269.417 247.792 268.713C250.417 266.268 252.918 263.722 255.155 260.873C257.426 257.981 259.386 254.79 261.219 251.474C261.677 250.645 262.134 249.816 262.562 248.961C264.283 245.531 265.876 241.957 267.11 238.089C267.114 238.076 267.106 238.059 267.11 238.046C268.354 234.144 269.221 229.923 269.926 225.571C270.086 224.586 270.227 223.591 270.359 222.582C270.94 218.11 271.355 213.5 271.355 208.548C271.355 203.409 270.881 198.448 270.142 193.605C269.669 190.49 269.156 187.389 268.366 184.422C267.694 181.894 266.889 179.422 265.984 177.015C264.175 172.201 261.901 167.629 259.14 163.371C257.553 160.925 255.765 158.59 253.856 156.354C253.309 155.713 252.697 155.114 252.123 154.491C250.714 152.962 249.234 151.488 247.662 150.073C246.833 149.327 245.98 148.62 245.106 147.907C243.489 146.588 241.771 145.34 239.995 144.139C239.223 143.617 238.502 143.035 237.699 142.536C234.995 140.854 232.174 139.309 229.123 137.901C226.136 136.523 222.919 135.316 219.594 134.22C218.382 133.82 217.082 133.497 215.825 133.137C213.638 132.509 211.394 131.91 209.068 131.404C207.583 131.081 206.062 130.81 204.52 130.538C201.694 130.04 198.79 129.603 195.77 129.282C194.843 129.183 193.944 129.06 192.998 128.978C188.662 128.605 184.168 128.372 179.441 128.372ZM180.827 165.103C211.783 165.103 229.773 179.904 229.773 209.241C229.773 245.973 204.39 255.415 177.361 255.415C168.12 255.415 163.961 255.444 158.649 254.982L158.649 165.796C162.808 165.565 171.587 165.103 180.827 165.103Z" fill="url(#RadialGradient_2)" fill-rule="nonzero" opacity="1" stroke="none"/>
<path d="M391.728 192.608C387.05 192.608 382.423 192.752 377.91 193.042C364.373 193.909 351.726 195.965 340.703 198.413C333.354 200.044 326.744 201.845 321.081 203.61C315.417 205.376 310.7 207.104 307.177 208.548C306.368 208.895 305.92 209.155 305.661 209.588C305.401 210.021 305.314 210.613 305.314 211.537C306.469 224.475 306.484 231.159 306.484 233.931L306.484 380.856C306.484 382.935 307.408 383.628 309.256 383.628L345.511 383.628C346.55 383.628 347.243 383.397 347.676 382.935C348.11 382.473 348.283 381.78 348.283 380.856L348.283 235.317C352.326 233.584 359.603 232.263 367.688 231.462C375.773 230.654 384.667 230.379 391.944 230.726C393.794 230.726 394.5 230.234 394.5 228.387L394.5 194.904C394.5 193.98 394.269 193.428 393.807 193.085C393.345 192.742 392.652 192.608 391.728 192.608Z" fill="#e579ff" fill-rule="nonzero" opacity="1" stroke="none"/>
<path d="M179.441 128.372C156.569 128.372 134.841 128.849 120.056 129.542C119.15 129.542 118.585 129.848 118.236 130.321C117.893 130.812 117.76 131.505 117.76 132.314L117.5 132.314L117.5 380.639C117.5 382.717 118.423 383.411 120.272 383.411L155.877 383.411C157.958 383.411 158.649 382.487 158.649 380.639L158.649 291.93C164.887 291.93 167.889 292.406 176.668 292.406C189.72 292.406 202.159 290.833 213.486 287.555C221.981 285.097 229.856 281.676 236.876 277.246C250.906 268.393 261.562 255.472 267.11 238.089C267.114 238.076 267.106 238.059 267.11 238.046C269.883 229.344 271.355 219.55 271.355 208.548C271.355 200.102 270.384 192.005 268.366 184.422C267.694 181.894 266.889 179.422 265.984 177.015C264.175 172.201 261.901 167.629 259.14 163.371C245.327 142.085 219.434 128.372 179.441 128.372ZM180.827 165.103C211.783 165.103 229.773 179.904 229.773 209.241C229.773 245.973 204.39 255.415 177.361 255.415C168.12 255.415 163.961 255.444 158.649 254.982L158.649 165.796C162.808 165.565 171.587 165.103 180.827 165.103Z" fill="#e579ff" fill-rule="nonzero" opacity="1" stroke="none"/>
</g>
</g>
</svg>
