<?xml version="1.0" encoding="UTF-8"?><svg id="a" xmlns="http://www.w3.org/2000/svg" viewBox="0 0 128 128"><defs><style>.b{fill:#fff;fill-rule:evenodd;}.c{fill:#0c344b;}</style></defs><rect class="c" x="0" y="0" width="128" height="128" rx="25" ry="25" transform="translate(128 0) rotate(90)"/><path class="b" d="m100.48,96.25l-49.4,14.61c-1.51.45-2.96-.86-2.64-2.38l17.65-84.51c.33-1.58,2.51-1.83,3.2-.37l32.67,69.38c.62,1.31-.09,2.85-1.49,3.27h0Zm8.47-3.45L71.12,12.47h0c-.96-2.02-2.94-3.34-5.17-3.46-2.3-.13-4.36.98-5.53,2.87L19.39,78.33c-1.27,2.05-1.24,4.65.07,6.67l20.06,31.07c1.2,1.85,3.27,2.93,5.42,2.93.61,0,1.22-.09,1.83-.26l58.22-17.22c1.77-.52,3.23-1.78,4-3.46.76-1.67.75-3.59-.03-5.25h0Z"/></svg>