<?xml version="1.0" encoding="UTF-8" standalone="no"?>
<!DOCTYPE svg PUBLIC "-//W3C//DTD SVG 1.1//EN" "http://www.w3.org/Graphics/SVG/1.1/DTD/svg11.dtd">
<!-- Created with Vectornator (http://vectornator.io/) -->
<svg height="100%" stroke-miterlimit="10" style="fill-rule:nonzero;clip-rule:evenodd;stroke-linecap:round;stroke-linejoin:round;" version="1.1" viewBox="0 0 512 512" width="100%" xml:space="preserve" xmlns="http://www.w3.org/2000/svg" xmlns:vectornator="http://vectornator.io" xmlns:xlink="http://www.w3.org/1999/xlink">
<defs>
<linearGradient gradientTransform="matrix(1 0 0 1 0 0)" gradientUnits="userSpaceOnUse" id="LinearGradient" x1="246.99" x2="254.91" y1="-0.49038" y2="505.165">
<stop offset="0.000578055" stop-color="#bebebe"/>
<stop offset="1" stop-color="#484848"/>
</linearGradient>
<radialGradient cx="189415" cy="225561" gradientTransform="matrix(1.5625 0 0 1.5625 54.5213 56)" gradientUnits="userSpaceOnUse" id="RadialGradient" r="781143">
<stop offset="0" stop-color="#000000" stop-opacity="0.23"/>
<stop offset="1" stop-color="#ffffff" stop-opacity="0"/>
</radialGradient>
<linearGradient gradientTransform="matrix(1.5625 0 0 1.5625 54.5213 56)" gradientUnits="userSpaceOnUse" id="LinearGradient_2" x1="190.054" x2="199.227" y1="-1.93645" y2="40.946">
<stop offset="0" stop-color="#fffdff"/>
<stop offset="1" stop-color="#ffffff" stop-opacity="0"/>
</linearGradient>
<linearGradient gradientTransform="matrix(1.5625 0 0 1.5625 54.5213 56)" gradientUnits="userSpaceOnUse" id="LinearGradient_3" x1="126.493" x2="147.577" y1="22.426" y2="71.5527">
<stop offset="0" stop-color="#ffffff"/>
<stop offset="1" stop-color="#ffffff" stop-opacity="0"/>
</linearGradient>
<linearGradient gradientTransform="matrix(1.5625 0 0 1.5625 54.5213 56)" gradientUnits="userSpaceOnUse" id="LinearGradient_4" x1="51.249" x2="46.4528" y1="48.0197" y2="28.9532">
<stop offset="0" stop-color="#ffffff" stop-opacity="0.009"/>
<stop offset="1" stop-color="#ffffff" stop-opacity="0.784"/>
</linearGradient>
<radialGradient cx="135289" cy="147409" gradientTransform="matrix(1.5625 0 0 1.5625 54.5213 56)" gradientUnits="userSpaceOnUse" id="RadialGradient_2" r="720148">
<stop offset="0" stop-color="#000000" stop-opacity="0"/>
<stop offset="0.6326" stop-color="#ffffff" stop-opacity="0"/>
<stop offset="0.6975" stop-color="#000000" stop-opacity="0.392"/>
<stop offset="0.99699" stop-color="#000000" stop-opacity="0.994"/>
<stop offset="1" stop-color="#000000"/>
</radialGradient>
</defs>
<g id="Ebene-1" vectornator:layerName="Ebene 1">
<path d="M2.84217e-14 95C2.84217e-14 42.5329 42.5329 0 95 0L417 0C469.467 0 512 42.5329 512 95L512 417C512 469.467 469.467 512 417 512L95 512C42.5329 512 2.84217e-14 469.467 2.84217e-14 417L2.84217e-14 95Z" fill="url(#LinearGradient)" fill-rule="nonzero" opacity="1" stroke="none" vectornator:layerName="Rechteck 1"/>
<g opacity="1" vectornator:layerName="g">
<path d="M375.459 66.3125C397.646 67.875 418.115 71.625 427.178 77.875C431.865 82.25 435.303 90.8438 436.865 100.844C438.428 110.063 438.271 120.531 436.553 130.062C434.834 139.438 431.396 148.031 426.24 153.812C422.646 157.875 418.271 160.531 412.803 161.469C400.771 163.344 393.896 151.625 384.209 135.375C375.615 120.844 365.146 103.188 347.49 87.5625C340.459 82.4063 334.209 87.7188 337.959 91.7812C356.709 107.406 367.334 125.375 376.084 140.063C387.646 159.594 395.928 173.656 414.209 170.688C417.959 170.063 421.396 168.813 424.521 167.094C438.584 193.656 446.553 223.969 446.553 256.313C446.553 308.969 425.303 356.469 390.771 391C356.396 425.375 308.74 446.781 256.24 446.781C203.74 446.781 156.084 425.531 121.709 391C87.3338 356.625 65.9276 308.969 65.9276 256.313C65.9276 243.344 67.1776 230.844 69.6776 218.656C68.4276 211.625 67.8026 203.969 67.3338 198.188C65.7713 181.313 64.6776 157.875 66.5526 137.875C67.9588 121.469 71.2401 107.719 77.4901 103.5C77.9588 103.188 78.2713 102.875 78.5838 102.406C80.6151 99.75 92.4901 91.9375 110.771 86.7813C119.99 84.125 130.615 82.4063 142.334 82.4063C144.99 82.4063 147.803 82.5625 150.615 82.7188C167.021 83.9688 184.678 98.0313 196.865 115.063C201.865 122.094 205.928 129.594 208.584 136.938C211.24 144.125 212.49 151 212.021 157.094C211.553 163.5 209.053 168.969 203.896 172.563C194.99 178.969 182.334 175.063 167.959 170.531C145.615 163.5 119.365 155.219 91.2401 176.469C84.2088 181.469 89.1026 187.914 93.3213 186.352C119.571 164.477 144.692 172.578 165.473 179.141C182.192 184.453 195.771 189.027 208.584 179.964C216.084 174.495 220.773 165.289 220.773 157.906C220.773 150.522 219.99 142.414 217.021 134.133C214.053 126.008 209.99 117.563 204.521 109.906C197.021 99.4375 187.49 90.0625 177.334 83.3438C201.396 72.4063 228.115 66.3125 256.24 66.3125C270.459 66.3125 284.209 67.875 297.49 70.8438C303.115 68.5 310.615 67.5625 317.178 66.625C324.678 66 333.584 65.5313 343.271 65.5313C344.678 65.2188 345.928 65.2188 347.334 65.2188C356.553 65.2188 366.084 65.5313 375.459 66.3125Z" fill="url(#RadialGradient)" fill-rule="nonzero" opacity="1" stroke="none" vectornator:layerName="path"/>
<path d="M342.959 66.9375C386.084 66.9375 420.928 80.2188 420.928 96.625C420.928 109.281 400.303 120.063 371.084 124.281C366.865 100.688 337.49 80.8438 297.49 72.4063C310.303 68.9688 326.084 66.9375 342.959 66.9375Z" fill="url(#LinearGradient_2)" fill-rule="nonzero" opacity="1" stroke="none" vectornator:layerName="path"/>
<path d="M254.209 68.0313C319.053 68.0313 371.709 95.8438 371.709 130.219C371.709 164.594 319.053 192.406 254.209 192.406C234.053 192.406 215.146 189.75 198.584 185.062C199.209 184.906 199.678 184.75 200.303 184.75C204.521 183.656 208.74 181.313 212.803 177.25C216.553 172.875 219.209 168.188 220.615 162.875C222.021 157.719 222.021 151.938 220.615 145.688C219.209 139.594 217.178 133.813 214.834 128.344C212.334 122.875 209.521 117.562 206.24 112.406C202.334 106.625 198.115 101.156 193.428 96.3125C188.74 91.4688 183.428 87.0938 177.334 83.3438C197.959 73.8125 224.834 68.0313 254.209 68.0313Z" fill="url(#LinearGradient_3)" fill-rule="nonzero" opacity="1" stroke="none" vectornator:layerName="path"/>
<path d="M346.396 56C325.146 56 306.084 57.7188 297.49 60.2188C297.021 60.375 296.553 60.5313 296.084 60.8438C283.271 58.1875 269.834 56.9375 256.24 56.9375C224.209 56.9375 193.896 64.4375 167.021 77.875C161.865 75.6875 156.553 74.125 151.24 73.8125C135.146 72.5625 120.459 74.75 108.115 78.1875C88.8963 83.6563 75.3026 92.5625 71.5526 96.4688C62.9588 102.875 58.7401 118.813 57.0213 137.406C54.5213 165.688 57.4901 200.844 59.8338 215.063C59.8338 215.688 60.1463 216.156 60.3026 216.625C57.6463 229.438 56.2401 242.875 56.2401 256.469C56.2401 311.625 78.5838 361.469 114.834 397.562C151.084 433.656 200.928 456 256.084 456C311.24 456 361.24 433.656 397.334 397.562C433.428 361.469 455.928 311.625 455.928 256.469C455.928 222.094 447.178 189.75 431.865 161.625L433.115 160.375C439.521 153.188 443.584 143.031 445.615 132.094C447.646 121.469 447.646 109.906 445.928 99.75C443.896 87.5625 439.521 76.9375 433.115 71.1563C432.959 71 432.803 70.8438 432.646 70.8438C422.178 63.3438 399.834 59.125 375.928 57.4063C366.24 56.3125 356.084 56 346.396 56ZM347.334 65.375C356.553 65.375 366.084 65.6875 375.459 66.4688C397.646 68.0313 418.271 71.7813 427.178 78.0313C431.865 82.4063 435.303 91 436.865 101C438.428 110.219 438.271 120.688 436.553 130.219C434.834 139.594 431.396 148.188 426.24 153.969C422.646 158.031 418.271 160.688 412.803 161.625C400.771 163.5 393.896 151.781 384.209 135.531C375.615 121 365.146 103.5 347.49 87.7188C340.459 82.5625 334.209 87.875 337.959 91.9375C356.709 107.406 367.334 125.531 376.084 140.219C387.646 159.75 395.928 173.813 414.209 170.844C417.959 170.219 421.396 168.969 424.521 167.25C438.584 193.813 446.709 224.125 446.709 256.313C446.709 308.813 425.459 356.469 390.928 390.844C356.553 425.219 308.896 446.469 256.24 446.469C203.584 446.469 156.084 425.219 121.553 390.844C87.0213 356.469 65.7713 308.813 65.7713 256.313C65.7713 243.344 67.0213 230.844 69.5213 218.656C68.2713 211.625 67.6463 203.969 67.1776 198.188L67.1776 198.031C65.6151 181.313 64.5213 157.875 66.2401 137.875C67.6463 121.469 70.9276 107.719 77.1776 103.5C77.6463 103.188 77.9588 102.875 78.2713 102.406C80.3026 99.75 92.3338 91.9375 110.615 86.7813C119.834 84.125 130.459 82.4063 142.178 82.4063C144.834 82.4063 147.646 82.5625 150.459 82.7188C167.021 83.9688 184.521 98.0313 196.709 114.906C201.709 121.938 205.771 129.438 208.428 136.625C211.084 143.813 212.334 150.688 211.865 156.781C211.396 163.188 208.896 168.656 203.74 172.25C194.834 178.656 182.178 174.75 167.803 170.219C145.459 163.188 119.053 154.906 91.0838 176.156C84.0526 181.156 89.0526 188.344 93.2713 186.781C119.521 165.063 144.209 172.719 164.99 179.281C181.709 184.594 196.396 189.125 209.209 180.063C216.865 174.594 220.459 166.781 221.24 157.719C221.865 150.219 220.303 142.094 217.334 133.656C214.365 125.531 209.834 117.25 204.365 109.594C196.865 99.125 187.334 89.75 177.178 83.1875C201.24 72.25 227.959 66.1563 256.084 66.1563C270.303 66.1563 284.053 67.7188 297.334 70.6875C302.959 68.3438 310.459 67.4063 317.178 66.4688C324.678 65.8438 333.584 65.375 343.271 65.375L347.334 65.375ZM367.646 166.625C349.209 166.625 334.365 181.469 334.365 199.906C334.365 218.344 349.365 233.188 367.646 233.188C385.928 233.188 400.928 218.344 400.928 199.906C400.928 181.469 386.084 166.625 367.646 166.625ZM159.834 191C123.896 191 94.6776 220.219 94.6776 256C94.6776 291.938 123.896 321 159.834 321C195.771 321 224.99 291.938 224.99 256C224.99 220.063 195.771 191 159.834 191ZM177.803 225.063C194.365 225.063 207.646 238.5 207.646 254.906C207.646 271.313 194.209 284.75 177.803 284.75C161.396 284.75 147.959 271.313 147.959 254.906C147.959 238.344 161.24 225.063 177.803 225.063ZM343.428 251C342.646 251 341.865 251.156 341.084 251.469L248.271 278.344C248.115 278.344 247.959 278.5 247.803 278.5C245.146 279.438 243.271 281.937 243.271 285.062C243.271 287.875 244.99 290.375 247.49 291.469L304.678 323.656L304.678 323.969C304.678 333.813 300.303 342.875 293.115 349.438C285.928 356.156 275.771 360.219 264.521 360.219C257.49 360.219 250.771 358.656 244.834 355.531C239.053 352.562 234.053 348.344 230.459 343.031C230.459 342.875 230.303 342.875 230.303 342.875C229.209 341.156 227.334 340.062 225.146 340.062C221.709 340.062 218.896 342.875 218.896 346.312C218.896 347.719 219.365 348.969 220.146 350.062C224.99 357.094 231.553 362.719 239.209 366.625C246.865 370.531 255.615 372.719 264.521 372.719C278.896 372.719 292.021 367.25 301.553 358.656C308.428 352.406 313.428 344.281 315.771 335.219C325.146 342.875 337.334 347.562 350.771 347.562C365.146 347.562 378.271 342.25 387.803 333.5C397.49 324.594 403.428 312.406 403.428 298.969L403.428 296.938L403.428 296.781C403.428 293.344 400.615 290.531 397.178 290.531C393.74 290.531 390.928 293.344 390.928 296.781L390.928 298.969C390.928 308.813 386.553 317.875 379.365 324.438C372.178 331.156 362.021 335.219 350.771 335.219C339.99 335.219 330.303 331.469 323.115 325.219C321.553 323.969 320.303 322.563 319.053 321L349.678 261.625C350.303 260.531 350.615 259.438 350.615 258.188C350.303 254.125 347.178 251 343.428 251Z" fill="#000000" fill-rule="nonzero" opacity="1" stroke="none" vectornator:layerName="path"/>
<path d="M76.2401 116.938C76.2401 100.542 101.494 87.25 132.646 87.25C163.799 87.25 189.053 100.542 189.053 116.938C189.053 133.333 163.799 146.625 132.646 146.625C101.494 146.625 76.2401 133.333 76.2401 116.938Z" fill="url(#LinearGradient_4)" fill-rule="nonzero" opacity="1" stroke="none" vectornator:layerName="ellipse"/>
<path d="M206.709 190.063C222.49 190.063 228.271 179.125 228.271 165.844C228.271 158.344 223.271 143.344 219.678 138.5L218.885 139.628C220.604 145.878 221.526 152.034 221.057 157.659C220.276 166.878 216.635 174.325 208.979 179.638C201.323 185.263 193.01 186.083 183.948 184.364C191.604 187.177 200.771 190.063 206.709 190.063ZM413.74 174.75C419.678 176.625 424.574 176.569 428.793 175.475C427.543 172.663 426.006 169.709 424.599 167.053C421.474 168.772 418.184 170.094 414.434 170.719C411.778 171.031 409.365 171.313 407.178 171.156C409.365 172.719 411.553 174.125 413.74 174.75Z" fill="#141414" fill-opacity="0.392" fill-rule="nonzero" opacity="1" stroke="none" vectornator:layerName="path"/>
<path d="M427.646 189.438C427.646 296 341.24 382.406 234.678 382.406C162.178 382.406 98.8963 342.406 65.9276 283.188C79.3651 376.469 159.834 448.344 256.865 448.344C363.428 448.344 449.834 361.938 449.834 255.375C449.99 221.313 441.084 189.281 425.615 161.625C426.865 170.688 427.646 179.906 427.646 189.438Z" fill="url(#RadialGradient_2)" fill-rule="nonzero" opacity="1" stroke="none" vectornator:layerName="path"/>
</g>
</g>
</svg>
