<?xml version="1.0" encoding="UTF-8" standalone="no"?>
<!DOCTYPE svg PUBLIC "-//W3C//DTD SVG 1.1//EN" "http://www.w3.org/Graphics/SVG/1.1/DTD/svg11.dtd">
<!-- Created with Vectornator (http://vectornator.io/) -->
<svg height="100%" stroke-miterlimit="10" style="fill-rule:nonzero;clip-rule:evenodd;stroke-linecap:round;stroke-linejoin:round;" version="1.1" viewBox="0 0 512 512" width="100%" xml:space="preserve" xmlns="http://www.w3.org/2000/svg" xmlns:vectornator="http://vectornator.io" xmlns:xlink="http://www.w3.org/1999/xlink">
<defs/>
<g id="Ebene-1" vectornator:layerName="Ebene 1">
<path d="M2.84217e-14 95C2.84217e-14 42.5329 42.5329 0 95 0L417 0C469.467 0 512 42.5329 512 95L512 417C512 469.467 469.467 512 417 512L95 512C42.5329 512 2.84217e-14 469.467 2.84217e-14 417L2.84217e-14 95Z" fill="#28334c" fill-rule="nonzero" opacity="1" stroke="none" vectornator:layerName="Rechteck 1"/>
<g opacity="1" vectornator:layerName="g">
<path d="M159.844 191C155.351 191 150.957 191.444 146.719 192.312C144.6 192.747 142.508 193.302 140.469 193.938C130.284 197.114 121.147 202.74 113.781 210.094C110.832 213.038 108.156 216.26 105.812 219.719C101.125 226.637 97.7382 234.491 96 242.938C95.1309 247.161 94.6875 251.527 94.6875 256C94.6875 260.492 95.1309 264.891 96 269.125C97.7383 277.593 101.125 285.46 105.812 292.375C108.156 295.833 110.832 299.029 113.781 301.969C119.68 307.848 126.707 312.62 134.5 315.906C136.448 316.728 138.43 317.461 140.469 318.094C146.595 319.997 153.095 321 159.844 321C162.09 321 164.312 320.878 166.5 320.656C181.817 319.105 195.553 312.257 205.875 301.969C207.35 300.499 208.765 298.98 210.094 297.375C212.751 294.166 215.117 290.684 217.125 287C218.129 285.158 219.05 283.257 219.875 281.312C220.7 279.368 221.427 277.38 222.062 275.344C223.333 271.271 224.211 267.03 224.656 262.656C224.879 260.469 225 258.246 225 256C225 253.754 224.879 251.531 224.656 249.344C224.211 244.97 223.333 240.729 222.062 236.656C220.792 232.584 219.133 228.684 217.125 225C215.117 221.316 212.751 217.834 210.094 214.625C208.765 213.02 207.35 211.501 205.875 210.031C204.406 208.567 202.884 207.163 201.281 205.844C201.275 205.838 201.256 205.849 201.25 205.844C199.641 204.52 197.983 203.261 196.25 202.094C189.316 197.425 181.445 194.042 172.969 192.312C170.84 191.877 168.698 191.566 166.5 191.344C164.312 191.122 162.09 191 159.844 191ZM177.812 225.062C194.375 225.062 207.656 238.5 207.656 254.906C207.656 271.313 194.218 284.75 177.812 284.75C161.405 284.75 147.969 271.313 147.969 254.906C147.969 238.344 161.25 225.062 177.812 225.062Z" fill="#ffffff" fill-rule="nonzero" opacity="1" stroke="none"/>
<path d="M208.438 136.625C211.094 143.813 212.344 150.688 211.875 156.781C211.406 163.188 208.906 168.656 203.75 172.25C194.844 178.656 182.188 174.75 167.812 170.219C145.469 163.188 119.063 154.906 91.0938 176.156C84.0626 181.156 89.0626 188.344 93.2812 186.781C119.531 165.063 144.219 172.719 165 179.281C171.64 181.391 177.929 183.314 183.938 184.375C185.16 184.607 186.336 184.647 187.531 184.781C180.719 183.987 173.455 181.694 165.469 179.156C144.688 172.593 119.562 164.469 93.3125 186.344C89.0938 187.906 84.2187 181.469 91.25 176.469C119.375 155.219 145.625 163.5 167.969 170.531C182.344 175.063 195 178.969 203.906 172.562C209.063 168.968 211.563 163.5 212.031 157.094C212.5 151 211.25 144.125 208.594 136.938C208.556 136.832 208.476 136.731 208.438 136.625Z" fill="#ffffff" fill-rule="nonzero" opacity="1" stroke="none"/>
<path d="M424.531 167.25C421.406 168.969 417.969 170.219 414.219 170.844C411.831 171.232 409.607 171.293 407.531 171.125C407.426 171.119 407.292 171.164 407.188 171.156C409.375 172.719 411.563 174.125 413.75 174.75C418.939 176.388 423.284 176.496 427.125 175.781C427.617 175.69 428.12 175.619 428.594 175.5C427.988 174.21 427.321 172.961 426.688 171.688C426.683 171.679 426.692 171.665 426.688 171.656C425.958 170.19 425.296 168.694 424.531 167.25Z" fill="#ffffff" fill-rule="nonzero" opacity="1" stroke="none"/>
<path d="M343.438 251C342.655 251 341.874 251.156 341.094 251.469L248.281 278.344C248.125 278.344 247.969 278.5 247.812 278.5C247.148 278.734 246.518 279.054 245.969 279.469C245.245 280.015 244.702 280.759 244.25 281.562C244.134 281.765 244.033 281.971 243.938 282.188C243.56 283.062 243.281 284.015 243.281 285.062C243.281 285.766 243.394 286.447 243.594 287.094C243.994 288.388 244.756 289.542 245.781 290.406C246.294 290.838 246.875 291.195 247.5 291.469L304.688 323.656L304.688 323.969C304.688 328.891 303.586 333.621 301.594 337.938C299.602 342.254 296.719 346.156 293.125 349.438C291.328 351.117 289.326 352.643 287.188 353.969C285.056 355.288 282.757 356.419 280.344 357.344C277.922 358.272 275.365 358.983 272.719 359.469C270.081 359.951 267.333 360.219 264.531 360.219C257.5 360.219 250.781 358.656 244.844 355.531C241.946 354.043 239.239 352.252 236.812 350.156C235.602 349.111 234.471 348.001 233.406 346.812C232.342 345.624 231.367 344.359 230.469 343.031C230.469 342.875 230.312 342.875 230.312 342.875C229.76 342.007 229.015 341.301 228.125 340.812C227.246 340.324 226.25 340.062 225.156 340.062C224.297 340.062 223.466 340.245 222.719 340.562C221.98 340.877 221.313 341.348 220.75 341.906C219.617 343.039 218.906 344.594 218.906 346.312C218.906 347.72 219.375 348.97 220.156 350.062C225 357.095 231.563 362.719 239.219 366.625C243.047 368.578 247.148 370.09 251.406 371.125C253.535 371.643 255.683 372.046 257.875 372.312C260.077 372.581 262.294 372.719 264.531 372.719C271.708 372.719 278.582 371.341 284.844 368.906C287.979 367.686 290.986 366.19 293.781 364.469C296.577 362.748 299.18 360.804 301.562 358.656C308.438 352.406 313.438 344.281 315.781 335.219C317.929 336.973 320.263 338.516 322.688 339.938C324.176 340.795 325.762 341.502 327.344 342.219C327.585 342.331 327.819 342.454 328.062 342.562C328.68 342.866 329.293 343.178 329.938 343.438C329.977 343.453 330.023 343.453 330.062 343.469C332.408 344.38 334.841 345.152 337.344 345.75C340.041 346.394 342.811 346.866 345.656 347.125C347.359 347.28 349.032 347.562 350.781 347.562C365.156 347.562 378.28 342.25 387.812 333.5C392.656 329.047 396.555 323.777 399.25 317.938C400.598 315.018 401.636 311.953 402.344 308.781C403.052 305.61 403.437 302.328 403.438 298.969L403.438 296.938L403.438 296.781C403.438 296.011 403.258 295.277 403 294.594C402.845 294.206 402.604 293.874 402.375 293.531C402.225 293.294 402.086 293.058 401.906 292.844C401.512 292.401 401.069 292.007 400.562 291.688C400.55 291.679 400.543 291.664 400.531 291.656C400.523 291.651 400.508 291.661 400.5 291.656C399.928 291.304 399.296 291.01 398.625 290.844C398.146 290.725 397.701 290.531 397.188 290.531C396.328 290.531 395.497 290.714 394.75 291.031C394.011 291.345 393.344 291.817 392.781 292.375C391.648 293.508 390.937 295.063 390.938 296.781L390.938 298.969C390.938 300.311 390.659 301.598 390.5 302.906C389.495 311.196 385.583 318.769 379.375 324.438C374.906 328.615 369.19 331.589 362.875 333.375C361.109 333.874 359.334 334.315 357.469 334.594C355.295 334.971 353.089 335.219 350.781 335.219C348.097 335.219 345.465 334.977 342.938 334.531C342.927 334.529 342.917 334.533 342.906 334.531C340.37 334.082 337.928 333.422 335.594 332.562C333.252 331.7 331.031 330.642 328.938 329.406C326.85 328.176 324.922 326.781 323.125 325.219C321.563 323.969 320.312 322.563 319.062 321L349.688 261.625C350.313 260.531 350.625 259.437 350.625 258.188C350.469 256.156 349.601 254.352 348.312 253.062C347.023 251.773 345.312 251 343.438 251Z" fill="#ffffff" fill-rule="nonzero" opacity="1" stroke="none"/>
<path d="M367.656 166.625C349.219 166.625 334.375 181.469 334.375 199.906C334.375 218.344 349.375 233.187 367.656 233.188C385.938 233.188 400.938 218.344 400.938 199.906C400.938 181.469 386.094 166.625 367.656 166.625Z" fill="#ffffff" fill-rule="nonzero" opacity="1" stroke="none"/>
<path d="M210.906 120.375C211.41 121.334 211.872 122.283 212.344 123.25C213.196 124.938 214.058 126.625 214.844 128.344C215.923 130.862 216.772 133.553 217.656 136.219C220.042 143.766 220.781 151.15 220.781 157.906C220.781 165.154 216.229 174.124 208.969 179.625C203.404 183.713 197.482 185.243 191.188 185.125C191.166 185.125 191.146 185.125 191.125 185.125C190.959 185.122 190.792 185.13 190.625 185.125C190.447 185.117 190.272 185.104 190.094 185.094C188.111 184.984 186.086 184.766 184.031 184.406C191.669 187.209 200.804 190.062 206.719 190.062C209.82 190.062 212.421 189.529 214.781 188.75C209.203 187.703 203.75 186.522 198.594 185.062C199.219 184.907 199.687 184.75 200.312 184.75C204.531 183.656 208.749 181.313 212.812 177.25C213.11 176.902 213.301 176.516 213.562 176.156C213.58 176.133 213.607 176.117 213.625 176.094C213.63 176.087 213.62 176.069 213.625 176.062C216.753 172.658 218.89 168.695 220.094 164.281C220.096 164.272 220.091 164.26 220.094 164.25C220.109 164.195 220.142 164.149 220.156 164.094C220.309 163.686 220.512 163.302 220.625 162.875C222.031 157.719 222.031 151.937 220.625 145.688C220.546 145.343 220.402 145.027 220.312 144.688C220.431 145.302 220.462 145.89 220.562 146.5C220.18 144.133 219.769 141.752 219.094 139.312C218.575 137.439 218.015 135.565 217.344 133.656C216.308 130.821 214.859 127.965 213.469 125.125C212.643 123.539 211.806 121.952 210.906 120.375Z" fill="#ffffff" fill-rule="nonzero" opacity="1" stroke="none"/>
<path d="M179.469 84.8438C182.629 87.0387 185.684 89.5159 188.656 92.1875C188.945 92.4447 189.245 92.6763 189.531 92.9375C192.532 95.6969 195.419 98.5881 198.125 101.719C196.588 99.8774 195.083 98.0132 193.438 96.3125C189.331 92.0692 184.64 88.2625 179.469 84.8438Z" fill="#ffffff" fill-rule="nonzero" opacity="1" stroke="none"/>
<path d="M342.5 85.625C340.656 85.426 339.17 85.978 338.156 86.8438C356.364 96.7322 368.502 109.789 371.094 124.281C373.055 123.998 374.87 123.622 376.75 123.281C369.445 111.729 360.421 99.2675 347.5 87.7188C345.742 86.4297 344.016 85.7886 342.5 85.625Z" fill="#ffffff" fill-rule="nonzero" opacity="1" stroke="none"/>
<path d="M338.156 86.8438C338.038 86.9447 337.916 87.0458 337.812 87.1562C337.394 87.6257 337.039 88.132 336.938 88.7188C336.931 88.7556 336.88 88.7753 336.875 88.8125C336.873 88.8219 336.877 88.8343 336.875 88.8438C336.821 89.2926 336.843 89.7479 337 90.2188C337.161 90.7948 337.452 91.3782 337.969 91.9375C341.43 94.7928 344.522 97.752 347.469 100.75C348.168 101.462 348.89 102.158 349.562 102.875C350.824 104.219 351.887 105.58 353.062 106.938C355.247 109.466 357.366 111.99 359.281 114.531C360.696 116.403 361.99 118.235 363.281 120.094C364.604 122.004 365.88 123.87 367.094 125.75C368.533 127.973 369.938 130.101 371.25 132.25C371.323 132.369 371.396 132.506 371.469 132.625C371.527 131.821 371.719 131.03 371.719 130.219C371.719 128.217 371.474 126.234 371.125 124.281C371.114 124.283 371.104 124.28 371.094 124.281C370.9 123.196 370.58 122.131 370.281 121.062C370.129 120.518 369.991 119.977 369.812 119.438C369.415 118.24 368.963 117.048 368.438 115.875C368.317 115.605 368.19 115.332 368.062 115.062C364.174 106.879 357.227 99.3273 347.875 92.7812C347.82 92.7429 347.774 92.6946 347.719 92.6562C344.777 90.6074 341.543 88.6833 338.156 86.8438Z" fill="#ffffff" fill-rule="nonzero" opacity="1" stroke="none"/>
<path d="M210.906 120.375C211.41 121.334 211.872 122.283 212.344 123.25C213.196 124.938 214.058 126.625 214.844 128.344C216.39 131.951 217.691 135.746 218.875 139.625L219.094 139.312C218.575 137.439 218.015 135.565 217.344 133.656C215.719 129.21 213.414 124.771 210.906 120.375Z" fill="#ffffff" fill-rule="nonzero" opacity="1" stroke="none"/>
<path d="M346.396 56C325.146 56 306.084 57.7188 297.49 60.2188C297.021 60.375 296.553 60.5313 296.084 60.8438C283.271 58.1875 269.834 56.9375 256.24 56.9375C224.209 56.9375 193.896 64.4375 167.021 77.875C161.865 75.6875 156.553 74.125 151.24 73.8125C135.146 72.5625 120.459 74.75 108.115 78.1875C88.8963 83.6563 75.3026 92.5625 71.5526 96.4688C62.9588 102.875 58.7401 118.813 57.0213 137.406C54.5213 165.688 57.4901 200.844 59.8338 215.063C59.8338 215.688 60.1463 216.156 60.3026 216.625C57.6463 229.438 56.2401 242.875 56.2401 256.469C56.2401 311.625 78.5838 361.469 114.834 397.562C151.084 433.656 200.928 456 256.084 456C311.24 456 361.24 433.656 397.334 397.562C433.428 361.469 455.928 311.625 455.928 256.469C455.928 222.094 447.178 189.75 431.865 161.625L433.115 160.375C439.521 153.188 443.584 143.031 445.615 132.094C447.646 121.469 447.646 109.906 445.928 99.75C443.896 87.5625 439.521 76.9375 433.115 71.1563C432.959 71 432.803 70.8438 432.646 70.8438C422.178 63.3438 399.834 59.125 375.928 57.4063C366.24 56.3125 356.084 56 346.396 56ZM347.334 65.375C356.553 65.375 366.084 65.6875 375.459 66.4688C397.646 68.0313 418.271 71.7813 427.178 78.0313C431.865 82.4063 435.303 91 436.865 101C438.428 110.219 438.271 120.688 436.553 130.219C434.834 139.594 431.396 148.188 426.24 153.969C422.646 158.031 418.271 160.688 412.803 161.625C400.771 163.5 393.896 151.781 384.209 135.531C375.615 121 365.146 103.5 347.49 87.7188C340.459 82.5625 334.209 87.875 337.959 91.9375C356.709 107.406 367.334 125.531 376.084 140.219C387.646 159.75 395.928 173.813 414.209 170.844C417.959 170.219 421.396 168.969 424.521 167.25C438.584 193.813 446.709 224.125 446.709 256.313C446.709 308.813 425.459 356.469 390.928 390.844C356.553 425.219 308.896 446.469 256.24 446.469C203.584 446.469 156.084 425.219 121.553 390.844C87.0213 356.469 65.7713 308.813 65.7713 256.313C65.7713 243.344 67.0213 230.844 69.5213 218.656C68.2713 211.625 67.6463 203.969 67.1776 198.188L67.1776 198.031C65.6151 181.313 64.5213 157.875 66.2401 137.875C67.6463 121.469 70.9276 107.719 77.1776 103.5C77.6463 103.188 77.9588 102.875 78.2713 102.406C80.3026 99.75 92.3338 91.9375 110.615 86.7813C119.834 84.125 130.459 82.4063 142.178 82.4063C144.834 82.4063 147.646 82.5625 150.459 82.7188C167.021 83.9688 184.521 98.0313 196.709 114.906C201.709 121.938 205.771 129.438 208.428 136.625C211.084 143.813 212.334 150.688 211.865 156.781C211.396 163.188 208.896 168.656 203.74 172.25C194.834 178.656 182.178 174.75 167.803 170.219C145.459 163.188 119.053 154.906 91.0838 176.156C84.0526 181.156 89.0526 188.344 93.2713 186.781C119.521 165.063 144.209 172.719 164.99 179.281C181.709 184.594 196.396 189.125 209.209 180.063C216.865 174.594 220.459 166.781 221.24 157.719C221.865 150.219 220.303 142.094 217.334 133.656C214.365 125.531 209.834 117.25 204.365 109.594C196.865 99.125 187.334 89.75 177.178 83.1875C201.24 72.25 227.959 66.1563 256.084 66.1563C270.303 66.1563 284.053 67.7188 297.334 70.6875C302.959 68.3438 310.459 67.4063 317.178 66.4688C324.678 65.8438 333.584 65.375 343.271 65.375L347.334 65.375ZM367.646 166.625C349.209 166.625 334.365 181.469 334.365 199.906C334.365 218.344 349.365 233.188 367.646 233.188C385.928 233.188 400.928 218.344 400.928 199.906C400.928 181.469 386.084 166.625 367.646 166.625ZM159.834 191C123.896 191 94.6776 220.219 94.6776 256C94.6776 291.938 123.896 321 159.834 321C195.771 321 224.99 291.938 224.99 256C224.99 220.063 195.771 191 159.834 191ZM177.803 225.063C194.365 225.063 207.646 238.5 207.646 254.906C207.646 271.313 194.209 284.75 177.803 284.75C161.396 284.75 147.959 271.313 147.959 254.906C147.959 238.344 161.24 225.063 177.803 225.063ZM343.428 251C342.646 251 341.865 251.156 341.084 251.469L248.271 278.344C248.115 278.344 247.959 278.5 247.803 278.5C245.146 279.438 243.271 281.937 243.271 285.062C243.271 287.875 244.99 290.375 247.49 291.469L304.678 323.656L304.678 323.969C304.678 333.813 300.303 342.875 293.115 349.438C285.928 356.156 275.771 360.219 264.521 360.219C257.49 360.219 250.771 358.656 244.834 355.531C239.053 352.562 234.053 348.344 230.459 343.031C230.459 342.875 230.303 342.875 230.303 342.875C229.209 341.156 227.334 340.062 225.146 340.062C221.709 340.062 218.896 342.875 218.896 346.312C218.896 347.719 219.365 348.969 220.146 350.062C224.99 357.094 231.553 362.719 239.209 366.625C246.865 370.531 255.615 372.719 264.521 372.719C278.896 372.719 292.021 367.25 301.553 358.656C308.428 352.406 313.428 344.281 315.771 335.219C325.146 342.875 337.334 347.562 350.771 347.562C365.146 347.562 378.271 342.25 387.803 333.5C397.49 324.594 403.428 312.406 403.428 298.969L403.428 296.938L403.428 296.781C403.428 293.344 400.615 290.531 397.178 290.531C393.74 290.531 390.928 293.344 390.928 296.781L390.928 298.969C390.928 308.813 386.553 317.875 379.365 324.438C372.178 331.156 362.021 335.219 350.771 335.219C339.99 335.219 330.303 331.469 323.115 325.219C321.553 323.969 320.303 322.563 319.053 321L349.678 261.625C350.303 260.531 350.615 259.438 350.615 258.188C350.303 254.125 347.178 251 343.428 251Z" fill="#ffffff" fill-rule="nonzero" opacity="1" stroke="none" vectornator:layerName="path"/>
<path d="M219.094 139.312L218.875 139.625C220.594 145.875 221.532 152.031 221.062 157.656C220.281 166.875 216.625 174.312 208.969 179.625C203.385 183.727 197.443 185.255 191.125 185.125C190.783 185.118 190.438 185.111 190.094 185.094C188.111 184.984 186.086 184.766 184.031 184.406C191.669 187.209 200.804 190.062 206.719 190.062C209.82 190.062 212.421 189.529 214.781 188.75C209.203 187.703 203.75 186.522 198.594 185.062C199.219 184.907 199.687 184.75 200.312 184.75C204.531 183.656 208.75 181.313 212.812 177.25C213.136 176.873 213.325 176.447 213.625 176.062C216.798 172.609 218.963 168.585 220.156 164.094C220.309 163.686 220.512 163.302 220.625 162.875C222.031 157.719 222.031 151.937 220.625 145.688C220.539 145.314 220.403 144.965 220.312 144.594C220.448 145.291 220.482 145.965 220.594 146.656C220.204 144.239 219.784 141.805 219.094 139.312Z" fill="#ffffff" fill-rule="nonzero" opacity="1" stroke="none"/>
<path d="M424.531 167.25C421.406 168.969 417.969 170.219 414.219 170.844C411.831 171.232 409.607 171.293 407.531 171.125C407.426 171.119 407.291 171.164 407.188 171.156C409.375 172.719 411.563 174.125 413.75 174.75C418.939 176.388 423.284 176.496 427.125 175.781C427.617 175.69 428.119 175.619 428.594 175.5C427.984 174.201 427.325 172.938 426.688 171.656C425.958 170.19 425.296 168.694 424.531 167.25Z" fill="#ffffff" fill-rule="nonzero" opacity="1" stroke="none"/>
<path d="M398.625 290.844C396.064 294.974 393.356 298.992 390.5 302.906C389.495 311.196 385.583 318.769 379.375 324.438C374.906 328.615 369.19 331.589 362.875 333.375C357.389 338.265 351.677 342.879 345.656 347.125C347.359 347.28 349.032 347.562 350.781 347.562C365.156 347.562 378.28 342.25 387.812 333.5C392.656 329.047 396.555 323.777 399.25 317.938C400.598 315.018 401.636 311.953 402.344 308.781C403.052 305.61 403.437 302.328 403.438 298.969L403.438 296.938L403.438 296.781C403.438 296.011 403.258 295.277 403 294.594C402.845 294.206 402.604 293.874 402.375 293.531C402.225 293.294 402.086 293.058 401.906 292.844C401.512 292.401 401.069 292.007 400.562 291.688C400.55 291.679 400.543 291.664 400.531 291.656C400.523 291.651 400.508 291.661 400.5 291.656C399.928 291.304 399.296 291.01 398.625 290.844Z" fill="#ffffff" fill-rule="nonzero" opacity="1" stroke="none"/>
<path d="M425.625 161.625C426.081 164.928 426.372 168.273 426.688 171.625C426.692 171.633 426.683 171.648 426.688 171.656C426.692 171.665 426.683 171.679 426.688 171.688C426.816 173.057 427.023 174.402 427.125 175.781C427.617 175.69 428.12 175.619 428.594 175.5C432.696 184.231 436.135 193.353 438.906 202.75C438.928 202.823 438.947 202.896 438.969 202.969C438.99 203.042 439.01 203.114 439.031 203.188C439.062 203.292 439.095 203.396 439.125 203.5C439.168 203.646 439.208 203.792 439.25 203.938C439.277 204.03 439.286 204.127 439.312 204.219C439.322 204.261 439.332 204.303 439.344 204.344C444.062 220.874 446.719 238.274 446.719 256.312C446.719 308.813 425.469 356.469 390.938 390.844C390.911 390.87 390.87 390.88 390.844 390.906C382.252 399.488 372.837 407.244 362.719 414.062C362.568 414.164 362.401 414.242 362.25 414.344C357.982 417.201 353.568 419.863 349.062 422.375C349.034 422.391 348.997 422.391 348.969 422.406C348.956 422.412 348.95 422.431 348.938 422.438C347.342 423.325 345.717 424.157 344.094 425C343.957 425.071 343.824 425.148 343.688 425.219C341.804 426.191 339.858 427.058 337.938 427.969C337.415 428.216 336.9 428.476 336.375 428.719C335.453 429.166 334.533 429.615 333.594 430.031C331.938 430.766 330.305 431.53 328.625 432.219C328.603 432.228 328.584 432.241 328.562 432.25C328 432.48 327.409 432.65 326.844 432.875C325.945 433.19 325.046 433.505 324.156 433.844C320.441 435.279 316.743 436.749 312.906 437.938C312.69 438.004 312.467 438.059 312.25 438.125C307.223 439.663 302.07 440.938 296.875 442.062C296.843 442.07 296.813 442.087 296.781 442.094C296.719 442.107 296.656 442.112 296.594 442.125C294.764 442.518 292.911 442.816 291.062 443.156C287.201 443.867 283.315 444.462 279.375 444.938C277.499 445.164 275.642 445.422 273.75 445.594C273.676 445.601 273.605 445.618 273.531 445.625C267.832 446.135 262.083 446.469 256.25 446.469C250.733 446.469 245.301 446.113 239.906 445.656C237.556 445.457 235.231 445.19 232.906 444.906C232.875 444.902 232.843 444.91 232.812 444.906C232.012 444.808 231.231 444.65 230.438 444.531C228.719 444.299 227.016 444.028 225.312 443.75C218.516 442.641 211.844 441.212 205.312 439.406C203.419 438.883 201.463 438.518 199.594 437.938C193.673 436.101 187.875 433.976 182.219 431.594C176.955 429.377 171.854 426.882 166.844 424.219C166.437 424.003 165.998 423.844 165.594 423.625C160.209 420.712 154.964 417.525 149.906 414.125C149.856 414.091 149.8 414.065 149.75 414.031C146.1 411.572 142.653 408.855 139.188 406.156C137.843 405.109 136.409 404.176 135.094 403.094C132.669 401.1 130.448 398.89 128.125 396.781C125.994 394.846 123.761 393.028 121.719 391C121.709 390.99 121.695 390.982 121.688 390.969C121.683 390.964 121.692 390.943 121.688 390.938C121.677 390.927 121.667 390.917 121.656 390.906C121.63 390.881 121.589 390.87 121.562 390.844C117.842 387.14 114.34 383.22 110.938 379.219C110.885 379.157 110.833 379.093 110.781 379.031C108.817 376.715 107.009 374.285 105.156 371.875C103.972 370.334 102.794 368.797 101.656 367.219C99.3664 364.042 97.187 360.789 95.0938 357.469C94.7384 356.905 94.4122 356.318 94.0625 355.75C81.4349 335.244 72.6103 312.212 68.5312 287.531C67.6721 286.079 66.7593 284.664 65.9375 283.188C79.375 376.468 159.844 448.344 256.875 448.344C363.438 448.344 449.844 361.938 449.844 255.375C450 221.313 441.094 189.281 425.625 161.625Z" fill="#ffffff" fill-rule="nonzero" opacity="1" stroke="none"/>
</g>
</g>
</svg>
