<?xml version="1.0" encoding="UTF-8"?>
<svg id="Ebene_1" data-name="Ebene 1" xmlns="http://www.w3.org/2000/svg" xmlns:xlink="http://www.w3.org/1999/xlink" viewBox="0 0 256 256">
  <defs>
    <style>
      .cls-1 {
        fill: #fff;
      }

      .cls-2 {
        fill: url(#Unbenannter_Verlauf_2);
      }

      .cls-3 {
        fill: url(#Unbenannter_Verlauf_4);
      }

      .cls-4 {
        fill: url(#Unbenannter_Verlauf);
      }

      .cls-5 {
        fill: #27282c;
      }

      .cls-6 {
        fill: url(#Unbenannter_Verlauf_5);
      }

      .cls-7 {
        fill: url(#Unbenannter_Verlauf_3);
      }
    </style>
    <linearGradient id="Unbenannter_Verlauf" data-name="Unbenannter Verlauf" x1="1.2" y1="2.85" x2="2.28" y2="2.85" gradientTransform="translate(-34.8 -227.6) scale(111.2 116.8)" gradientUnits="userSpaceOnUse">
      <stop offset="0" stop-color="#21d789"/>
      <stop offset="1" stop-color="#07c3f2"/>
    </linearGradient>
    <linearGradient id="Unbenannter_Verlauf_2" data-name="Unbenannter Verlauf 2" x1=".82" y1="2.27" x2="2.27" y2="1.39" gradientTransform="translate(-178 -268) scale(167.2 204.8)" gradientUnits="userSpaceOnUse">
      <stop offset="0" stop-color="#fcf84a"/>
      <stop offset=".11" stop-color="#a7eb62"/>
      <stop offset=".21" stop-color="#5fe077"/>
      <stop offset=".27" stop-color="#32da84"/>
      <stop offset=".31" stop-color="#21d789"/>
      <stop offset=".58" stop-color="#21d789"/>
      <stop offset=".6" stop-color="#21d789"/>
      <stop offset=".69" stop-color="#20d68c"/>
      <stop offset=".76" stop-color="#1ed497"/>
      <stop offset=".83" stop-color="#19d1a9"/>
      <stop offset=".9" stop-color="#13ccc2"/>
      <stop offset=".97" stop-color="#0bc6e1"/>
      <stop offset="1" stop-color="#07c3f2"/>
    </linearGradient>
    <linearGradient id="Unbenannter_Verlauf_3" data-name="Unbenannter Verlauf 3" x1="2.09" y1="2.49" x2="2.46" y2="1.76" gradientTransform="translate(-178 -187.2) scale(111.2 175.2)" gradientUnits="userSpaceOnUse">
      <stop offset="0" stop-color="#21d789"/>
      <stop offset=".16" stop-color="#24d788"/>
      <stop offset=".3" stop-color="#2fd886"/>
      <stop offset=".44" stop-color="#41da82"/>
      <stop offset=".56" stop-color="#5adc7d"/>
      <stop offset=".69" stop-color="#7ae077"/>
      <stop offset=".81" stop-color="#a1e36e"/>
      <stop offset=".93" stop-color="#cfe865"/>
      <stop offset="1" stop-color="#f1eb5e"/>
    </linearGradient>
    <linearGradient id="Unbenannter_Verlauf_4" data-name="Unbenannter Verlauf 4" x1="1.97" y1="5.8" x2="2.97" y2="4.1" gradientTransform="translate(-66 -268) scale(88.8 70)" gradientUnits="userSpaceOnUse">
      <stop offset="0" stop-color="#21d789"/>
      <stop offset=".06" stop-color="#24d788"/>
      <stop offset=".11" stop-color="#2fd886"/>
      <stop offset=".16" stop-color="#41da82"/>
      <stop offset=".21" stop-color="#5add7d"/>
      <stop offset=".25" stop-color="#79e077"/>
      <stop offset=".26" stop-color="#7ce076"/>
      <stop offset=".5" stop-color="#8ce173"/>
      <stop offset=".92" stop-color="#b2e56b"/>
    </linearGradient>
    <linearGradient id="Unbenannter_Verlauf_5" data-name="Unbenannter Verlauf 5" x1="1.92" y1="1.87" x2=".93" y2="1.86" gradientTransform="translate(-104 -204) scale(182 191.6)" gradientUnits="userSpaceOnUse">
      <stop offset=".39" stop-color="#fcf84a"/>
      <stop offset=".54" stop-color="#ecf451"/>
      <stop offset=".83" stop-color="#c2e964"/>
      <stop offset=".92" stop-color="#b2e56b"/>
    </linearGradient>
  </defs>
  <g id="Ebene_2" data-name="Ebene 2">
    <rect class="cls-5" width="256" height="256" rx="35" ry="35"/>
  </g>
  <g>
    <polygon class="cls-4" points="168.31 59.56 226.75 108 205.5 150.81 170.5 141.13 139.88 141.13 168.31 59.56"/>
    <polygon class="cls-2" points="109.25 91.13 98 150.81 97.07 171.44 68.31 183.63 28 188 40.19 58.62 113.63 28 158.62 57.69 109.25 91.13"/>
    <polygon class="cls-7" points="109.25 91.13 114.87 206.44 96.44 228 28 188 84.25 103.94 109.25 91.13"/>
    <polygon class="cls-3" points="184.87 82.68 115.5 82.68 176.75 28 184.87 82.68"/>
    <polygon class="cls-6" points="228 206.75 167.07 227.69 85.81 204.87 109.25 91.13 118.62 82.68 168.31 78 163.63 127.69 203 112.37 228 206.75"/>
    <rect x="65.5" y="65.5" width="125" height="125"/>
    <path class="cls-1" d="m77.38,167.07h46.87v7.81h-46.87v-7.81Zm-.31-85.32h21.25c12.5,0,19.69,7.19,19.69,17.81,0,11.88-9.38,18.12-20.93,18.12h-8.75v15.63h-11.25v-51.56h0Zm29.38,18.44c0-5-3.44-7.81-9.38-7.81h-8.75v15.94h9.07c6.14,0,9.07-3.75,9.07-8.12h0Zm15.94,7.81c-.16-7.17,2.62-14.11,7.7-19.18,5.08-5.08,12-7.86,19.18-7.7,9.69,0,15.63,3.13,20.31,8.12l-7.19,8.44c-4.06-3.75-8.12-5.94-13.13-5.94-8.75,0-15,7.19-15,16.25s6.25,16.25,15,16.25c5.94,0,9.69-2.5,13.75-5.94l7.19,7.19c-5.32,5.63-11.25,9.38-21.25,9.38-7.1,0-13.9-2.84-18.9-7.89-4.99-5.05-7.75-11.88-7.67-18.99h0Z"/>
  </g>
</svg>