<?xml version="1.0" encoding="UTF-8"?>
<svg id="Ebene_1" data-name="Ebene 1" xmlns="http://www.w3.org/2000/svg" xmlns:xlink="http://www.w3.org/1999/xlink" viewBox="0 0 256 256">
  <defs>
    <style>
      .cls-1 {
        fill: #fff;
      }

      .cls-2 {
        fill: url(#Unbenannter_Verlauf_2);
      }

      .cls-3 {
        fill: url(#Unbenannter_Verlauf_4);
      }

      .cls-4 {
        fill: #27282c;
      }

      .cls-5 {
        fill: url(#Unbenannter_Verlauf_5);
      }

      .cls-6 {
        fill: url(#Unbenannter_Verlauf_3);
      }

      .cls-7 {
        fill: url(#Unbenannter_Verlauf_11);
      }
    </style>
    <linearGradient id="Unbenannter_Verlauf_11" data-name="Unbenannter Verlauf 11" x1="1.17" y1="253.18" x2="2.38" y2="253.18" gradientTransform="translate(-34.8 29673.2) scale(111.2 -116.8)" gradientUnits="userSpaceOnUse">
      <stop offset="0" stop-color="#21d789"/>
      <stop offset="1" stop-color="#07c3f2"/>
    </linearGradient>
    <linearGradient id="Unbenannter_Verlauf_2" data-name="Unbenannter Verlauf 2" x1=".69" y1="253.69" x2="2.33" y2="254.68" gradientTransform="translate(-178 52160.8) scale(167.2 -204.8)" gradientUnits="userSpaceOnUse">
      <stop offset="0" stop-color="#fcf84a"/>
      <stop offset=".11" stop-color="#a7eb62"/>
      <stop offset=".21" stop-color="#5fe077"/>
      <stop offset=".27" stop-color="#32da84"/>
      <stop offset=".31" stop-color="#21d789"/>
      <stop offset=".58" stop-color="#21d789"/>
      <stop offset=".6" stop-color="#21d789"/>
      <stop offset=".69" stop-color="#20d68c"/>
      <stop offset=".76" stop-color="#1ed497"/>
      <stop offset=".83" stop-color="#19d1a9"/>
      <stop offset=".9" stop-color="#13ccc2"/>
      <stop offset=".97" stop-color="#0bc6e1"/>
      <stop offset="1" stop-color="#07c3f2"/>
    </linearGradient>
    <linearGradient id="Unbenannter_Verlauf_3" data-name="Unbenannter Verlauf 3" x1="2.01" y1="253.42" x2="2.42" y2="254.24" gradientTransform="translate(-178 44664) scale(111.2 -175.2)" gradientUnits="userSpaceOnUse">
      <stop offset="0" stop-color="#21d789"/>
      <stop offset=".16" stop-color="#24d788"/>
      <stop offset=".3" stop-color="#2fd886"/>
      <stop offset=".44" stop-color="#41da82"/>
      <stop offset=".56" stop-color="#5adc7d"/>
      <stop offset=".69" stop-color="#7ae077"/>
      <stop offset=".81" stop-color="#a1e36e"/>
      <stop offset=".93" stop-color="#cfe865"/>
      <stop offset="1" stop-color="#f1eb5e"/>
    </linearGradient>
    <linearGradient id="Unbenannter_Verlauf_4" data-name="Unbenannter Verlauf 4" x1="1.94" y1="250.18" x2="3.07" y2="252.1" gradientTransform="translate(-66 17652) scale(88.8 -70)" gradientUnits="userSpaceOnUse">
      <stop offset="0" stop-color="#21d789"/>
      <stop offset=".06" stop-color="#24d788"/>
      <stop offset=".11" stop-color="#2fd886"/>
      <stop offset=".16" stop-color="#41da82"/>
      <stop offset=".21" stop-color="#5add7d"/>
      <stop offset=".25" stop-color="#79e077"/>
      <stop offset=".26" stop-color="#7ce076"/>
      <stop offset=".5" stop-color="#8ce173"/>
      <stop offset=".92" stop-color="#b2e56b"/>
    </linearGradient>
    <linearGradient id="Unbenannter_Verlauf_5" data-name="Unbenannter Verlauf 5" x1="2" y1="254.12" x2=".89" y2="254.13" gradientTransform="translate(-104 48845.6) scale(182 -191.6)" gradientUnits="userSpaceOnUse">
      <stop offset=".39" stop-color="#fcf84a"/>
      <stop offset=".54" stop-color="#ecf451"/>
      <stop offset=".83" stop-color="#c2e964"/>
      <stop offset=".92" stop-color="#b2e56b"/>
    </linearGradient>
  </defs>
  <g id="Ebene_2" data-name="Ebene 2">
    <rect class="cls-4" width="256" height="256" rx="35" ry="35"/>
  </g>
  <g>
    <polygon class="cls-7" points="173.35 51.01 239.09 105.5 215.19 153.66 175.81 142.77 141.36 142.77 173.35 51.01"/>
    <polygon class="cls-2" points="106.91 86.52 94.25 153.66 93.2 176.87 60.85 190.58 15.5 195.5 29.21 49.95 111.83 15.5 162.45 48.9 106.91 86.52"/>
    <polygon class="cls-6" points="106.91 86.52 113.23 216.24 92.49 240.5 15.5 195.5 78.78 100.93 106.91 86.52"/>
    <polygon class="cls-3" points="191.98 77.02 113.94 77.02 182.84 15.5 191.98 77.02"/>
    <polygon class="cls-5" points="240.5 216.59 171.95 240.15 80.54 214.48 106.91 86.52 117.45 77.02 173.35 71.75 168.08 127.65 212.38 110.42 240.5 216.59"/>
    <rect x="57.69" y="57.69" width="140.62" height="140.62"/>
    <path class="cls-1" d="m71.05,171.95h52.73v8.79h-52.73v-8.79Zm-.35-95.98h23.91c14.06,0,22.15,8.09,22.15,20.04,0,13.36-10.55,20.39-23.55,20.39h-9.84v17.58h-12.66v-58.01h0Zm33.05,20.74c0-5.63-3.87-8.79-10.55-8.79h-9.84v17.93h10.2c6.91,0,10.2-4.22,10.2-9.14Zm17.93,8.79c-.18-8.07,2.95-15.87,8.66-21.58s13.5-8.84,21.58-8.66c10.9,0,17.58,3.52,22.85,9.14l-8.09,9.49c-4.57-4.22-9.14-6.68-14.77-6.68-9.84,0-16.87,8.09-16.87,18.28s7.03,18.28,16.87,18.28c6.68,0,10.9-2.81,15.47-6.68l8.09,8.09c-5.98,6.33-12.66,10.55-23.91,10.55-7.99,0-15.64-3.2-21.26-8.88-5.61-5.68-8.72-13.37-8.63-21.36Z"/>
  </g>
</svg>