<?xml version="1.0" encoding="UTF-8"?><svg id="a" xmlns="http://www.w3.org/2000/svg" xmlns:xlink="http://www.w3.org/1999/xlink" viewBox="0 0 128 128"><defs><style>.d{fill:url(#b);}.e{fill:url(#c);}.f{fill:#366994;}</style><linearGradient id="b" x1="7.32" y1="7.32" x2="120.68" y2="120.68" gradientTransform="translate(0 128) rotate(-90)" gradientUnits="userSpaceOnUse"><stop offset="0" stop-color="#ffd748"/><stop offset="1" stop-color="#366994"/></linearGradient><linearGradient id="c" x1=".68" y1="129.31" x2=".71" y2="129.28" gradientTransform="translate(-1202.39 239716.62) scale(1849.27 -1853.39)" gradientUnits="userSpaceOnUse"><stop offset="0" stop-color="#ffe052"/><stop offset="1" stop-color="#ffc331"/></linearGradient></defs><rect class="d" x="0" y="0" width="128" height="128" rx="25" ry="25" transform="translate(128 0) rotate(90)"/><path class="f" d="m63.14,13.76c-25.39,0-23.8,11.01-23.8,11.01l.03,11.41h24.23v3.42H29.74s-16.24-1.84-16.24,23.77,14.18,24.71,14.18,24.71h8.46v-11.89s-.46-14.18,13.95-14.18h24.03s13.5.22,13.5-13.05v-21.93s2.05-13.27-24.48-13.27Zm-13.36,7.67c2.4,0,4.36,1.95,4.36,4.35,0,0,0,0,0,0,0,2.4-1.95,4.36-4.35,4.36,0,0,0,0,0,0-2.4,0-4.36-1.95-4.36-4.35,0,0,0,0,0,0,0-2.4,1.95-4.36,4.35-4.36,0,0,0,0,0,0Z"/><path class="e" d="m63.86,113.24c25.39,0,23.8-11.01,23.8-11.01l-.03-11.41h-24.23v-3.42h33.85s16.24,1.84,16.24-23.77-14.18-24.71-14.18-24.71h-8.46v11.89s.46,14.18-13.95,14.18h-24.03s-13.5-.22-13.5,13.05v21.93s-2.05,13.27,24.48,13.27h0Zm13.36-7.67c-2.4,0-4.36-1.95-4.36-4.35h0c0-2.41,1.95-4.36,4.35-4.37h0c2.4,0,4.36,1.95,4.36,4.35h0c0,2.41-1.95,4.36-4.35,4.37h0Z"/></svg>