<?xml version="1.0" encoding="UTF-8"?><svg xmlns="http://www.w3.org/2000/svg" xmlns:xlink="http://www.w3.org/1999/xlink" viewBox="0 0 128 128"><defs><style>.e{fill:#2a5a82;}.f{fill:url(#d);}.g{fill:url(#c);}</style><linearGradient id="c" x1="12890.62" y1="27134.57" x2="12896.58" y2="27139.7" gradientTransform="translate(-119307.83 -253604.77) scale(9.26 9.35)" gradientUnits="userSpaceOnUse"><stop offset="0" stop-color="#5ca0d5"/><stop offset="1" stop-color="#316a99"/></linearGradient><linearGradient id="d" x1="12898.89" y1="27142.79" x2="12896.76" y2="27139.78" gradientTransform="translate(-119307.83 -253604.77) scale(9.26 9.35)" gradientUnits="userSpaceOnUse"><stop offset="0" stop-color="#ffd43e"/><stop offset="1" stop-color="#ffe975"/></linearGradient></defs><g id="a"><rect class="e" x="0" y="0" width="128" height="128" rx="25" ry="25" transform="translate(128 0) rotate(90)"/></g><g id="b"><path class="g" d="m63.58,13.84c-4.11,0-8.09.38-11.56,1.03-10.27,1.79-12.07,5.52-12.07,12.59v9.25h24.14v3.08H30.96c-6.94,0-13.09,4.24-15.02,12.2-2.18,9.25-2.31,14.9,0,24.53,1.67,7.19,5.78,12.2,12.84,12.2h8.35v-11.04c0-7.96,6.94-15.02,15.02-15.02h24.01c6.68,0,12.07-5.52,12.07-12.33v-22.99c0-6.55-5.52-11.43-12.07-12.59-4.25-.64-8.48-1.02-12.59-.9Zm-13.1,7.32c2.44,0,4.49,2.05,4.49,4.62s-2.05,4.62-4.49,4.62-4.49-2.05-4.49-4.62,1.93-4.62,4.49-4.62Z"/><path class="f" d="m91.19,39.52v10.66c0,8.35-7.06,15.28-15.15,15.28h-24.01c-6.55,0-12.07,5.65-12.07,12.33v22.99c0,6.55,5.65,10.4,12.07,12.33,7.58,2.31,14.9,2.7,24.14,0,6.03-1.79,12.07-5.27,12.07-12.33v-9.25h-24.15v-3.08h36.22c6.94,0,9.63-4.88,12.07-12.2,2.57-7.58,2.44-14.76,0-24.53-1.67-6.94-5.01-12.2-12.07-12.2h-9.11Zm-13.62,58.17c2.44,0,4.49,2.05,4.49,4.62s-2.05,4.62-4.49,4.62-4.49-2.05-4.49-4.62,2.06-4.62,4.49-4.62Z"/></g></svg>