<?xml version="1.0" encoding="UTF-8"?><svg id="a" xmlns="http://www.w3.org/2000/svg" viewBox="0 0 128 128"><defs><style>.b{fill:#fff;}.c{fill:#ee4c2c;}</style></defs><rect class="c" x="0" y="0" width="128" height="128" rx="25" ry="25" transform="translate(128 0) rotate(90)"/><path class="b" d="m91.72,44.16c15.44,15.44,15.44,40.21,0,55.76-15.12,15.44-39.99,15.44-55.43,0-15.44-15.44-15.44-40.32,0-55.76l27.66-27.66v13.83l-2.57,2.57-18.34,18.34c-11.58,11.37-11.58,30.02,0,41.6,11.37,11.58,30.02,11.58,41.6,0,11.58-11.37,11.58-30.02,0-41.6l7.08-7.08Zm-13.83-1.72c-2.84,0-5.15-2.3-5.15-5.15s2.3-5.15,5.15-5.15,5.15,2.3,5.15,5.15-2.3,5.15-5.15,5.15Z"/></svg>