<?xml version="1.0" encoding="UTF-8"?><svg id="a" xmlns="http://www.w3.org/2000/svg" xmlns:xlink="http://www.w3.org/1999/xlink" viewBox="0 0 128 128"><defs><style>.i{fill:#fff;}.j{fill:url(#h);}.k{fill:url(#f);}.l{fill:url(#g);}.m{fill:url(#e);}.n{fill:url(#d);}.o{fill:url(#b);}.p{fill:url(#c);}.q{fill:#17446b;}</style><linearGradient id="b" x1="-.15" y1="129.53" x2=".05" y2="129.53" gradientTransform="translate(97.94 13293.91) scale(76.29 -102)" gradientUnits="userSpaceOnUse"><stop offset="0" stop-color="#4340c4"/><stop offset=".12" stop-color="#4642c8"/><stop offset="1" stop-color="#594ee4"/></linearGradient><linearGradient id="c" x1=".37" y1="128.76" x2=".45" y2="128.76" gradientTransform="translate(48.87 28808.23) scale(104.06 -223.3)" gradientUnits="userSpaceOnUse"><stop offset="0" stop-color="#4340c4"/><stop offset=".74" stop-color="#534adb"/><stop offset="1" stop-color="#594ee4"/></linearGradient><linearGradient id="d" x1="1.06" y1="128.71" x2="1.42" y2="128.71" gradientTransform="translate(-191.18 15546.64) scale(199.19 -120.51)" gradientUnits="userSpaceOnUse"><stop offset="0" stop-color="#4340c4"/><stop offset=".23" stop-color="#4340c4"/><stop offset=".6" stop-color="#4f48d5"/><stop offset="1" stop-color="#594ee4"/></linearGradient><linearGradient id="e" x1="1.26" y1="128.79" x2="1.37" y2="128.79" gradientTransform="translate(-121.9 29352.99) scale(122.9 -227.47)" gradientUnits="userSpaceOnUse"><stop offset="0" stop-color="#0080ff"/><stop offset="1" stop-color="#00b9ff"/></linearGradient><linearGradient id="f" x1=".87" y1="129.35" x2="1.24" y2="129.35" gradientTransform="translate(-72.49 15316.48) scale(123.36 -117.8)" gradientUnits="userSpaceOnUse"><stop offset="0" stop-color="#0080ff"/><stop offset=".17" stop-color="#008bff"/><stop offset=".47" stop-color="#00a7ff"/><stop offset=".63" stop-color="#00b9ff"/><stop offset="1" stop-color="#00b9ff"/></linearGradient><linearGradient id="g" x1=".6" y1="131.43" x2=".96" y2="131.43" gradientTransform="translate(-17.41 6606.19) scale(120 -49.46)" gradientUnits="userSpaceOnUse"><stop offset="0" stop-color="#00b9ff"/><stop offset=".3" stop-color="#0080ff"/><stop offset=".6" stop-color="#2d67f1"/><stop offset=".86" stop-color="#4d55e8"/><stop offset="1" stop-color="#594ee4"/></linearGradient><linearGradient id="h" x1="-.8" y1="131.23" x2="-.46" y2="131.23" gradientTransform="translate(122.61 7040.49) scale(51.5 -52.86)" xlink:href="#b"/></defs><rect class="q" x="0" y="0" width="128" height="128" rx="25" ry="25" transform="translate(128 0) rotate(90)"/><polygon class="o" points="81.18 100.48 90.37 94.98 108.37 63.24 80.51 95.77 81.18 100.48"/><path class="p" d="m105.75,43.36l-1.8-3.43-.71-1.34-.07.07-9.43-17.17c-2.37-4.34-6.88-7.05-11.85-7.1l-9.16.08,13.22,41.45-8.75,8.52,3.26,31.49,26.93-30.68c3.65-4.23,4.37-10.26,1.8-15.21l-3.46-6.68h0Z"/><path class="n" d="m90.69,40.38l-15.77-25.89-27.21-.49c-4.84-.06-9.34,2.4-11.88,6.52l-16.02,30.63,12.58-12.17,15.79-21.93,35.74,40.95,6.68-6.8c3.07-2.97,2.02-7.14.08-10.82h0Z"/><path class="m" d="m52.97,48.78l-4.84-31.57-26.71,32.14c-4.5,4.36-5.44,11.2-2.34,16.61l15.69,27.28c2.39,4.19,6.85,6.78,11.69,6.84l15.68.18-18.78-42.59,9.61-8.89Z"/><path class="k" d="m80.51,95.75l-37.19-38.29-4.82,4.6c-3.95,3.74-4.06,9.98-.27,13.85l16.06,24.24,25.8.33.41-4.72h0Z"/><polygon class="l" points="54.35 100.13 80.75 95.9 98.17 113.96 54.35 100.13"/><path class="j" d="m80.47,95.96l9.92-1.26,8.8,18.23c.39.75-.63,1.45-1.23.84l-17.49-17.8Z"/><polygon class="i" points="83.97 57.84 48.18 17.14 52.75 48.53 43.25 57.37 80.41 95.84 77.63 64.48 83.97 57.83 83.97 57.84"/></svg>