<?xml version="1.0" encoding="UTF-8" standalone="no"?>
<!DOCTYPE svg PUBLIC "-//W3C//DTD SVG 1.1//EN" "http://www.w3.org/Graphics/SVG/1.1/DTD/svg11.dtd">
<!-- Created with Vectornator (http://vectornator.io/) -->
<svg height="100%" stroke-miterlimit="10" style="fill-rule:nonzero;clip-rule:evenodd;stroke-linecap:round;stroke-linejoin:round;" version="1.1" viewBox="0 0 512 512" width="100%" xml:space="preserve" xmlns="http://www.w3.org/2000/svg" xmlns:vectornator="http://vectornator.io" xmlns:xlink="http://www.w3.org/1999/xlink">
<defs/>
<g id="Ebene-1" vectornator:layerName="Ebene 1">
<path d="M2.84217e-14 95C2.84217e-14 42.5329 42.5329 0 95 0L417 0C469.467 0 512 42.5329 512 95L512 417C512 469.467 469.467 512 417 512L95 512C42.5329 512 2.84217e-14 469.467 2.84217e-14 417L2.84217e-14 95Z" fill="#242628" fill-rule="nonzero" opacity="1" stroke="none" vectornator:layerName="Rechteck 1"/>
<g opacity="1" vectornator:layerName="g">
<path d="M456 256.041C456 229.543 422.816 204.43 371.94 188.858C383.68 137.003 378.462 95.7472 355.47 82.5389C350.17 79.4407 343.974 77.9731 337.207 77.9731L337.207 96.1549C340.957 96.1549 343.974 96.8887 346.501 98.2748C357.59 104.634 362.4 128.85 358.65 159.995C357.753 167.659 356.285 175.731 354.492 183.966C338.511 180.052 321.063 177.035 302.718 175.079C291.711 159.995 280.297 146.298 268.801 134.312C295.38 109.608 320.329 96.0734 337.288 96.0734L337.288 77.8916C314.867 77.8916 285.515 93.872 255.837 121.593C226.159 94.0351 196.807 78.2177 174.386 78.2177L174.386 96.3995C191.263 96.3995 216.294 109.852 242.873 134.394C231.459 146.379 220.044 159.995 209.2 175.079C190.774 177.035 173.326 180.052 157.345 184.047C155.47 175.894 154.084 167.985 153.106 160.403C149.274 129.257 154.002 105.042 165.009 98.6009C167.455 97.1333 170.635 96.481 174.386 96.481L174.386 78.2992C167.537 78.2992 161.34 79.7668 155.959 82.8651C133.049 96.0734 127.912 137.247 139.734 188.939C89.0208 204.594 56 229.624 56 256.041C56 282.539 89.1839 307.651 140.06 323.224C128.32 375.079 133.538 416.334 156.53 429.543C161.83 432.641 168.026 434.108 174.875 434.108C197.296 434.108 226.648 418.128 256.326 390.407C286.004 417.965 315.356 433.782 337.777 433.782C344.626 433.782 350.823 432.315 356.204 429.216C379.115 416.008 384.251 374.834 372.429 323.142C422.979 307.57 456 282.457 456 256.041ZM349.844 201.658C346.828 212.176 343.077 223.02 338.837 233.864C335.494 227.341 331.989 220.819 328.157 214.296C324.406 207.773 320.411 201.414 316.416 195.217C327.993 196.929 339.163 199.049 349.844 201.658ZM312.502 288.491C306.143 299.498 299.62 309.934 292.853 319.636C280.704 320.696 268.393 321.267 256 321.267C243.689 321.267 231.377 320.696 219.31 319.718C212.543 310.015 205.939 299.661 199.579 288.735C193.383 278.055 187.757 267.211 182.62 256.285C187.675 245.36 193.383 234.435 199.498 223.754C205.857 212.747 212.38 202.311 219.147 192.608C231.296 191.548 243.607 190.978 256 190.978C268.311 190.978 280.623 191.548 292.69 192.527C299.457 202.229 306.061 212.584 312.421 223.509C318.617 234.19 324.243 245.034 329.38 255.959C324.243 266.885 318.617 277.81 312.502 288.491ZM338.837 277.892C343.24 288.817 346.991 299.742 350.089 310.342C339.408 312.951 328.157 315.152 316.497 316.864C320.492 310.586 324.488 304.145 328.238 297.541C331.989 291.018 335.494 284.414 338.837 277.892ZM256.163 364.887C248.581 357.06 240.998 348.336 233.497 338.797C240.835 339.123 248.336 339.367 255.918 339.367C263.583 339.367 271.165 339.204 278.585 338.797C271.247 348.336 263.664 357.06 256.163 364.887ZM195.503 316.864C183.925 315.152 172.755 313.032 162.074 310.423C165.091 299.905 168.841 289.062 173.081 278.218C176.424 284.74 179.93 291.263 183.762 297.786C187.594 304.308 191.508 310.668 195.503 316.864ZM255.755 147.194C263.338 155.022 270.921 163.746 278.422 173.285C271.084 172.959 263.583 172.714 256 172.714C248.336 172.714 240.753 172.877 233.334 173.285C240.672 163.746 248.254 155.022 255.755 147.194ZM195.421 195.217C191.426 201.495 187.431 207.936 183.68 214.541C179.93 221.063 176.424 227.586 173.081 234.108C168.678 223.183 164.928 212.258 161.83 201.658C172.51 199.131 183.762 196.929 195.421 195.217ZM121.634 297.296C92.7713 284.985 74.1003 268.841 74.1003 256.041C74.1003 243.24 92.7713 227.015 121.634 214.785C128.646 211.768 136.31 209.078 144.219 206.55C148.866 222.531 154.981 239.163 162.563 256.204C155.062 273.163 149.029 289.714 144.463 305.613C136.391 303.085 128.727 300.313 121.634 297.296ZM165.499 413.807C154.41 407.447 149.6 383.232 153.35 352.086C154.247 344.422 155.715 336.351 157.508 328.116C173.489 332.029 190.937 335.046 209.282 337.003C220.289 352.086 231.703 365.784 243.199 377.769C216.62 402.474 191.671 416.008 174.712 416.008C171.043 415.927 167.945 415.193 165.499 413.807ZM358.894 351.679C362.726 382.824 357.998 407.04 346.991 413.481C344.545 414.948 341.365 415.6 337.614 415.6C320.737 415.6 295.706 402.148 269.127 377.606C280.541 365.621 291.956 352.005 302.8 336.921C321.226 334.965 338.674 331.948 354.655 327.953C356.53 336.188 357.998 344.096 358.894 351.679ZM390.285 297.296C383.273 300.313 375.609 303.004 367.7 305.531C363.053 289.551 356.938 272.918 349.355 255.878C356.856 238.919 362.89 222.368 367.455 206.469C375.527 208.996 383.191 211.768 390.366 214.785C419.229 227.097 437.9 243.24 437.9 256.041C437.818 268.841 419.147 285.066 390.285 297.296Z" fill="#61dafb" fill-rule="nonzero" opacity="1" stroke="none" vectornator:layerName="path"/>
<path d="M218.658 256.041C218.658 235.462 235.34 218.78 255.918 218.78C276.497 218.78 293.179 235.462 293.179 256.041C293.179 276.619 276.497 293.301 255.918 293.301C235.34 293.301 218.658 276.619 218.658 256.041Z" fill="#61dafb" fill-rule="nonzero" opacity="1" stroke="none" vectornator:layerName="circle"/>
</g>
</g>
</svg>
