<?xml version="1.0" encoding="UTF-8"?><svg id="Ebene_1" xmlns="http://www.w3.org/2000/svg" viewBox="0 0 128 128"><defs><style>.cls-1{fill:#fff;}.cls-2{fill:#61dafb;}</style></defs><rect class="cls-2" width="128" height="128" rx="25" ry="25"/><path class="cls-1" d="m119,64.01c0-7.29-9.13-14.19-23.12-18.48,3.23-14.26,1.79-25.61-4.53-29.24-1.46-.85-3.16-1.26-5.02-1.26v5c1.03,0,1.86.2,2.56.58,3.05,1.75,4.37,8.41,3.34,16.97-.25,2.11-.65,4.33-1.14,6.59-4.39-1.08-9.19-1.91-14.24-2.44-3.03-4.15-6.17-7.91-9.33-11.21,7.31-6.79,14.17-10.52,18.83-10.52v-5c-6.17,0-14.24,4.39-22.4,12.02-8.16-7.58-16.23-11.93-22.4-11.93v5c4.64,0,11.52,3.7,18.83,10.45-3.14,3.3-6.28,7.04-9.26,11.19-5.07.54-9.87,1.37-14.26,2.47-.52-2.24-.9-4.42-1.17-6.5-1.05-8.57.25-15.22,3.27-17,.67-.4,1.55-.58,2.58-.58v-5c-1.88,0-3.59.4-5.07,1.26-6.3,3.63-7.71,14.96-4.46,29.17-13.95,4.3-23.03,11.19-23.03,18.45s9.13,14.19,23.12,18.48c-3.23,14.26-1.79,25.61,4.53,29.24,1.46.85,3.16,1.26,5.04,1.26,6.17,0,14.24-4.39,22.4-12.02,8.16,7.58,16.23,11.93,22.4,11.93,1.88,0,3.59-.4,5.07-1.26,6.3-3.63,7.71-14.96,4.46-29.17,13.9-4.28,22.98-11.19,22.98-18.45h0Zm-29.19-14.96c-.83,2.89-1.86,5.87-3.03,8.86-.92-1.79-1.88-3.59-2.94-5.38-1.03-1.79-2.13-3.54-3.23-5.25,3.18.47,6.26,1.05,9.19,1.77h0Zm-10.27,23.88c-1.75,3.03-3.54,5.9-5.4,8.57-3.34.29-6.73.45-10.13.45s-6.77-.16-10.09-.43c-1.86-2.67-3.68-5.52-5.43-8.52-1.7-2.94-3.25-5.92-4.66-8.92,1.39-3,2.96-6.01,4.64-8.95,1.75-3.03,3.54-5.9,5.4-8.57,3.34-.29,6.73-.45,10.13-.45s6.77.16,10.09.43c1.86,2.67,3.68,5.52,5.43,8.52,1.7,2.94,3.25,5.92,4.66,8.92-1.41,3-2.96,6.01-4.64,8.95h0Zm7.24-2.91c1.21,3,2.24,6.01,3.09,8.92-2.94.72-6.03,1.32-9.24,1.79,1.1-1.73,2.2-3.5,3.23-5.31,1.03-1.79,2-3.61,2.91-5.4h0Zm-22.74,23.92c-2.09-2.15-4.17-4.55-6.23-7.17,2.02.09,4.08.16,6.17.16s4.19-.04,6.23-.16c-2.02,2.62-4.1,5.02-6.17,7.17Zm-16.68-13.21c-3.18-.47-6.26-1.05-9.19-1.77.83-2.89,1.86-5.87,3.03-8.86.92,1.79,1.88,3.59,2.94,5.38s2.13,3.54,3.23,5.25Zm16.57-46.66c2.09,2.15,4.17,4.55,6.23,7.17-2.02-.09-4.08-.16-6.17-.16s-4.19.04-6.23.16c2.02-2.62,4.1-5.02,6.17-7.17Zm-16.59,13.21c-1.1,1.73-2.2,3.5-3.23,5.31-1.03,1.79-2,3.59-2.91,5.38-1.21-3-2.24-6.01-3.09-8.92,2.94-.7,6.03-1.3,9.24-1.77h0Zm-20.29,28.07c-7.94-3.39-13.07-7.83-13.07-11.35s5.13-7.98,13.07-11.35c1.93-.83,4.04-1.57,6.21-2.26,1.28,4.39,2.96,8.97,5.04,13.65-2.06,4.66-3.72,9.22-4.98,13.59-2.22-.7-4.33-1.46-6.28-2.29h0Zm12.06,32.04c-3.05-1.75-4.37-8.41-3.34-16.97.25-2.11.65-4.33,1.14-6.59,4.39,1.08,9.19,1.91,14.24,2.44,3.03,4.15,6.17,7.91,9.33,11.21-7.31,6.79-14.17,10.52-18.83,10.52-1.01-.02-1.86-.22-2.53-.61h0Zm53.18-17.09c1.05,8.57-.25,15.22-3.27,17-.67.4-1.55.58-2.58.58-4.64,0-11.52-3.7-18.83-10.45,3.14-3.3,6.28-7.04,9.26-11.19,5.07-.54,9.87-1.37,14.26-2.47.52,2.26.92,4.44,1.17,6.52Zm8.63-14.96c-1.93.83-4.04,1.57-6.21,2.26-1.28-4.39-2.96-8.97-5.04-13.65,2.06-4.66,3.72-9.22,4.98-13.59,2.22.7,4.33,1.46,6.3,2.29,7.94,3.39,13.07,7.83,13.07,11.35-.02,3.52-5.16,7.98-13.09,11.35h0Z"/><circle class="cls-1" cx="63.98" cy="64.01" r="10.25"/></svg>