<?xml version="1.0" encoding="UTF-8"?><svg id="Ebene_1" xmlns="http://www.w3.org/2000/svg" viewBox="0 0 128 128"><defs><style>.cls-1{fill:#fff;}.cls-2{fill:#61dafb;}</style></defs><rect class="cls-2" width="128" height="128" rx="25" ry="25"/><path class="cls-1" d="m114,64.01c0-6.62-8.3-12.9-21.02-16.8,2.94-12.96,1.63-23.28-4.12-26.58-1.32-.77-2.87-1.14-4.57-1.14v4.55c.94,0,1.69.18,2.32.53,2.77,1.59,3.97,7.64,3.04,15.43-.22,1.92-.59,3.93-1.04,5.99-4-.98-8.36-1.73-12.94-2.22-2.75-3.77-5.61-7.2-8.48-10.19,6.64-6.18,12.88-9.56,17.12-9.56v-4.55c-5.61,0-12.94,4-20.36,10.93-7.42-6.89-14.76-10.84-20.36-10.84v4.55c4.22,0,10.48,3.36,17.12,9.5-2.85,3-5.71,6.4-8.42,10.17-4.61.49-8.97,1.24-12.96,2.24-.47-2.04-.82-4.02-1.06-5.91-.96-7.79.22-13.84,2.98-15.45.61-.37,1.41-.53,2.34-.53v-4.55c-1.71,0-3.26.37-4.61,1.14-5.73,3.3-7.01,13.6-4.06,26.52-12.68,3.91-20.93,10.17-20.93,16.78s8.3,12.9,21.02,16.8c-2.94,12.96-1.63,23.28,4.12,26.58,1.32.77,2.87,1.14,4.59,1.14,5.61,0,12.94-4,20.36-10.93,7.42,6.89,14.76,10.84,20.36,10.84,1.71,0,3.26-.37,4.61-1.14,5.73-3.3,7.01-13.6,4.06-26.52,12.64-3.89,20.89-10.17,20.89-16.78h0Zm-26.54-13.6c-.75,2.63-1.69,5.34-2.75,8.05-.84-1.63-1.71-3.26-2.67-4.89-.94-1.63-1.94-3.22-2.94-4.77,2.89.43,5.69.96,8.36,1.61h0Zm-9.34,21.71c-1.59,2.75-3.22,5.36-4.91,7.79-3.04.26-6.11.41-9.21.41s-6.16-.14-9.17-.39c-1.69-2.43-3.34-5.01-4.93-7.75-1.55-2.67-2.96-5.38-4.24-8.11,1.26-2.73,2.69-5.46,4.22-8.13,1.59-2.75,3.22-5.36,4.91-7.79,3.04-.26,6.11-.41,9.21-.41s6.16.14,9.17.39c1.69,2.43,3.34,5.01,4.93,7.75,1.55,2.67,2.96,5.38,4.24,8.11-1.28,2.73-2.69,5.46-4.22,8.13h0Zm6.58-2.65c1.1,2.73,2.04,5.46,2.81,8.11-2.67.65-5.48,1.2-8.4,1.63,1-1.57,2-3.18,2.94-4.83.94-1.63,1.81-3.28,2.65-4.91h0Zm-20.67,21.75c-1.9-1.96-3.79-4.14-5.67-6.52,1.83.08,3.71.14,5.61.14s3.81-.04,5.67-.14c-1.83,2.38-3.73,4.57-5.61,6.52Zm-15.17-12.01c-2.89-.43-5.69-.96-8.36-1.61.75-2.63,1.69-5.34,2.75-8.05.84,1.63,1.71,3.26,2.67,4.89s1.94,3.22,2.94,4.77Zm15.06-42.42c1.9,1.96,3.79,4.14,5.67,6.52-1.83-.08-3.71-.14-5.61-.14s-3.81.04-5.67.14c1.83-2.38,3.73-4.57,5.61-6.52Zm-15.08,12.01c-1,1.57-2,3.18-2.94,4.83-.94,1.63-1.81,3.26-2.65,4.89-1.1-2.73-2.04-5.46-2.81-8.11,2.67-.63,5.48-1.18,8.4-1.61h0Zm-18.45,25.52c-7.22-3.08-11.88-7.11-11.88-10.31s4.67-7.26,11.88-10.31c1.75-.75,3.67-1.43,5.65-2.06,1.16,4,2.69,8.15,4.59,12.41-1.88,4.24-3.38,8.38-4.53,12.35-2.02-.63-3.93-1.32-5.71-2.08h0Zm10.97,29.13c-2.77-1.59-3.97-7.64-3.04-15.43.22-1.92.59-3.93,1.04-5.99,4,.98,8.36,1.73,12.94,2.22,2.75,3.77,5.61,7.2,8.48,10.19-6.64,6.18-12.88,9.56-17.12,9.56-.92-.02-1.69-.2-2.3-.55h0Zm48.35-15.53c.96,7.79-.22,13.84-2.98,15.45-.61.37-1.41.53-2.34.53-4.22,0-10.48-3.36-17.12-9.5,2.85-3,5.71-6.4,8.42-10.17,4.61-.49,8.97-1.24,12.96-2.24.47,2.06.84,4.04,1.06,5.93Zm7.85-13.6c-1.75.75-3.67,1.43-5.65,2.06-1.16-4-2.69-8.15-4.59-12.41,1.88-4.24,3.38-8.38,4.53-12.35,2.02.63,3.93,1.32,5.73,2.08,7.22,3.08,11.88,7.11,11.88,10.31-.02,3.2-4.69,7.26-11.9,10.31h0Z"/><circle class="cls-1" cx="63.98" cy="64.01" r="9.32"/></svg>