<?xml version="1.0" encoding="UTF-8"?><svg id="Ebene_1" xmlns="http://www.w3.org/2000/svg" viewBox="0 0 128 128"><defs><style>.cls-1{fill:#fff;}.cls-2{fill:#61dafb;}</style></defs><rect class="cls-2" width="128" height="128" rx="25" ry="25"/><path class="cls-1" d="m113.33,53.31c0-6.59-8.25-12.84-20.91-16.71,2.92-12.9,1.62-23.16-4.1-26.44-1.32-.77-2.86-1.14-4.54-1.14v4.52c.93,0,1.68.18,2.31.53,2.76,1.58,3.95,7.6,3.02,15.35-.22,1.91-.59,3.91-1.03,5.96-3.97-.97-8.31-1.72-12.88-2.21-2.74-3.75-5.58-7.16-8.44-10.14,6.61-6.14,12.82-9.51,17.03-9.51v-4.52c-5.58,0-12.88,3.97-20.26,10.87-7.38-6.85-14.68-10.79-20.26-10.79v4.52c4.2,0,10.42,3.35,17.03,9.45-2.84,2.98-5.68,6.37-8.38,10.12-4.58.49-8.92,1.24-12.9,2.23-.47-2.03-.81-3.99-1.05-5.88-.95-7.75.22-13.77,2.96-15.37.61-.37,1.4-.53,2.33-.53v-4.52c-1.7,0-3.24.37-4.58,1.14-5.7,3.29-6.98,13.53-4.04,26.38-12.61,3.89-20.83,10.12-20.83,16.69s8.25,12.84,20.91,16.71c-2.92,12.9-1.62,23.16,4.1,26.44,1.32.77,2.86,1.14,4.56,1.14,5.58,0,12.88-3.97,20.26-10.87,7.38,6.85,14.68,10.79,20.26,10.79,1.7,0,3.24-.37,4.58-1.14,5.7-3.29,6.98-13.53,4.04-26.38,12.57-3.87,20.79-10.12,20.79-16.69h0Zm-26.4-13.53c-.75,2.62-1.68,5.31-2.74,8.01-.83-1.62-1.7-3.24-2.66-4.87-.93-1.62-1.93-3.2-2.92-4.74,2.88.43,5.66.95,8.31,1.6h0Zm-9.29,21.6c-1.58,2.74-3.2,5.33-4.89,7.75-3.02.26-6.08.41-9.17.41s-6.12-.14-9.13-.39c-1.68-2.41-3.33-4.99-4.91-7.71-1.54-2.66-2.94-5.35-4.22-8.07,1.26-2.72,2.68-5.43,4.2-8.09,1.58-2.74,3.2-5.33,4.89-7.75,3.02-.26,6.08-.41,9.17-.41s6.12.14,9.13.39c1.68,2.41,3.33,4.99,4.91,7.71,1.54,2.66,2.94,5.35,4.22,8.07-1.28,2.72-2.68,5.43-4.2,8.09Zm6.55-2.64c1.06,2.64,2,5.34,2.8,8.07-2.66.65-5.45,1.2-8.35,1.62.99-1.56,1.99-3.16,2.92-4.81.93-1.62,1.8-3.26,2.64-4.89h0Zm-20.56,21.64c-1.89-1.95-3.77-4.12-5.64-6.49,1.83.08,3.69.14,5.58.14s3.79-.04,5.64-.14c-1.74,2.26-3.6,4.43-5.58,6.49Zm-15.09-11.94c-2.88-.43-5.66-.95-8.31-1.6.75-2.62,1.68-5.31,2.74-8.01.83,1.62,1.7,3.24,2.66,4.87.95,1.62,1.93,3.2,2.92,4.75Zm14.99-42.2c1.89,1.95,3.77,4.12,5.64,6.49-1.83-.08-3.69-.14-5.58-.14s-3.79.04-5.64.14c1.74-2.26,3.6-4.43,5.58-6.49Zm-15.01,11.94c-.99,1.56-1.99,3.16-2.92,4.81-.93,1.62-1.8,3.24-2.64,4.87-1.06-2.64-2-5.34-2.8-8.07,2.66-.63,5.45-1.18,8.35-1.6Zm-18.35,25.39c-7.18-3.06-11.82-7.08-11.82-10.26s4.64-7.22,11.82-10.26c1.74-.75,3.65-1.42,5.62-2.05,1.16,3.97,2.68,8.11,4.56,12.35-1.87,4.22-3.37,8.33-4.5,12.29-2.01-.63-3.91-1.32-5.68-2.07h0Zm10.91,28.98c-2.76-1.58-3.95-7.6-3.02-15.35.22-1.91.59-3.91,1.03-5.96,3.97.97,8.31,1.72,12.88,2.21,2.74,3.75,5.58,7.16,8.44,10.14-6.61,6.14-12.82,9.51-17.03,9.51-.91-.02-1.68-.2-2.29-.55Zm48.1-15.45c.95,7.75-.22,13.77-2.96,15.37-.61.37-1.4.53-2.33.53-4.2,0-10.42-3.35-17.03-9.45,2.84-2.98,5.68-6.37,8.38-10.12,4.58-.49,8.92-1.24,12.9-2.23.47,2.05.83,4.02,1.05,5.9h0Zm7.81-13.53c-1.74.75-3.65,1.42-5.62,2.05-1.16-3.97-2.68-8.11-4.56-12.35,1.87-4.22,3.37-8.33,4.5-12.29,2.01.63,3.91,1.32,5.7,2.07,7.18,3.06,11.82,7.08,11.82,10.26-.02,3.18-4.66,7.22-11.84,10.26h0Z"/><path class="cls-1" d="m63.56,62.58c5.12,0,9.27-4.15,9.27-9.27s-4.15-9.27-9.27-9.27-9.27,4.15-9.27,9.27,4.15,9.27,9.27,9.27Zm-45.21,50.98h-3.06v5.27h-1.73v-13.02h4.31c1.47,0,2.59.33,3.38,1,.79.67,1.19,1.64,1.19,2.92,0,.81-.22,1.52-.66,2.12-.44.6-1.04,1.05-1.82,1.35l3.06,5.53v.11h-1.84l-2.83-5.27Zm-3.06-1.4h2.64c.85,0,1.53-.22,2.03-.66.51-.44.76-1.03.76-1.77,0-.8-.24-1.42-.72-1.85-.48-.43-1.17-.65-2.08-.65h-2.63v4.94Zm13.33,6.85c-1.31,0-2.38-.43-3.2-1.29-.82-.86-1.23-2.02-1.23-3.46v-.3c0-.96.18-1.82.55-2.57.37-.76.88-1.35,1.54-1.77.66-.43,1.38-.64,2.15-.64,1.26,0,2.24.41,2.93,1.24.7.83,1.05,2.02,1.05,3.56v.69h-6.56c.02.95.3,1.73.83,2.32.54.58,1.22.88,2.04.88.58,0,1.08-.12,1.48-.36.41-.24.76-.55,1.06-.95l1.01.79c-.81,1.25-2.03,1.87-3.65,1.87h0Zm-.21-8.68c-.67,0-1.23.24-1.68.73-.45.48-.73,1.16-.84,2.04h4.85v-.13c-.05-.84-.27-1.49-.68-1.95-.41-.46-.95-.7-1.65-.7h0Zm11.88,8.5c-.1-.19-.17-.53-.23-1.02-.77.8-1.69,1.2-2.76,1.2-.95,0-1.74-.27-2.35-.81-.61-.54-.91-1.23-.91-2.06,0-1.01.38-1.79,1.14-2.34.77-.56,1.85-.84,3.24-.84h1.61v-.76c0-.58-.17-1.04-.52-1.38-.35-.35-.86-.52-1.53-.52-.59,0-1.09.15-1.48.45-.4.3-.6.66-.6,1.08h-1.66c0-.48.17-.95.51-1.4.35-.45.81-.81,1.4-1.07.59-.26,1.24-.39,1.94-.39,1.12,0,1.99.28,2.62.84.63.55.96,1.32.98,2.3v4.45c0,.89.11,1.6.34,2.12v.14h-1.74Zm-2.75-1.26c.52,0,1.01-.13,1.48-.4.46-.27.8-.62,1.01-1.05v-1.99h-1.3c-2.03,0-3.04.59-3.04,1.78,0,.52.17.92.52,1.22.35.29.79.44,1.33.44h0Zm10.62.09c.59,0,1.11-.18,1.55-.54s.69-.8.73-1.34h1.57c-.03.55-.22,1.08-.57,1.58s-.82.9-1.41,1.2c-.58.3-1.2.45-1.86.45-1.32,0-2.37-.44-3.15-1.31-.77-.88-1.16-2.09-1.16-3.61v-.28c0-.94.17-1.78.52-2.51.35-.73.84-1.3,1.49-1.71.65-.41,1.42-.61,2.3-.61,1.09,0,1.99.33,2.7.98.72.65,1.11,1.49,1.15,2.53h-1.57c-.05-.63-.29-1.14-.72-1.54-.42-.41-.95-.61-1.57-.61-.84,0-1.49.3-1.96.91-.46.6-.69,1.48-.69,2.62v.31c0,1.12.23,1.97.69,2.58.46.6,1.12.9,1.97.9h0Zm7.95-10.85v2.34h1.81v1.28h-1.81v6c0,.39.08.68.24.88.16.19.44.29.82.29.19,0,.45-.04.79-.11v1.34c-.44.12-.86.18-1.27.18-.74,0-1.3-.22-1.67-.67-.38-.45-.56-1.08-.56-1.91v-6h-1.76v-1.28h1.76v-2.34h1.65Zm18.56,12.02h-1.73l-6.56-10.04v10.04h-1.73v-13.02h1.73l6.57,10.08v-10.08h1.71v13.02Zm8.77,0c-.1-.19-.17-.53-.23-1.02-.77.8-1.69,1.2-2.76,1.2-.95,0-1.74-.27-2.35-.81-.61-.54-.91-1.23-.91-2.06,0-1.01.38-1.79,1.14-2.34.77-.56,1.85-.84,3.24-.84h1.61v-.76c0-.58-.17-1.04-.52-1.38-.35-.35-.86-.52-1.53-.52-.59,0-1.09.15-1.48.45-.4.3-.6.66-.6,1.08h-1.66c0-.48.17-.95.51-1.4.35-.45.81-.81,1.4-1.07.59-.26,1.24-.39,1.94-.39,1.12,0,1.99.28,2.62.84.63.55.96,1.32.98,2.3v4.45c0,.89.11,1.6.34,2.12v.14h-1.74Zm-2.75-1.26c.52,0,1.01-.13,1.48-.4.46-.27.8-.62,1.01-1.05v-1.99h-1.3c-2.03,0-3.04.59-3.04,1.78,0,.52.17.92.52,1.22.35.29.79.44,1.33.44h0Zm8.98-10.76v2.34h1.81v1.28h-1.81v6c0,.39.08.68.24.88.16.19.44.29.82.29.19,0,.45-.04.79-.11v1.34c-.44.12-.86.18-1.27.18-.74,0-1.3-.22-1.67-.67-.38-.45-.56-1.08-.56-1.91v-6h-1.76v-1.28h1.76v-2.34h1.65Zm5.55,12.02h-1.66v-9.68h1.66v9.68Zm-1.79-12.25c0-.27.08-.49.24-.68.17-.19.41-.28.73-.28s.57.09.73.28.25.41.25.68-.08.49-.25.67c-.17.18-.41.27-.73.27s-.57-.09-.73-.27c-.16-.18-.24-.4-.24-.67Zm7.64,10l2.4-7.43h1.69l-3.47,9.68h-1.26l-3.51-9.68h1.69l2.46,7.43Zm9.57,2.42c-1.31,0-2.38-.43-3.2-1.29-.82-.86-1.23-2.02-1.23-3.46v-.3c0-.96.18-1.82.55-2.57.37-.76.88-1.35,1.54-1.77.66-.43,1.38-.64,2.15-.64,1.26,0,2.24.41,2.93,1.24.7.83,1.05,2.02,1.05,3.56v.69h-6.56c.02.95.3,1.73.83,2.32.54.58,1.22.88,2.04.88.58,0,1.08-.12,1.49-.36s.76-.55,1.06-.95l1.01.79c-.81,1.25-2.03,1.87-3.65,1.87h0Zm-.21-8.68c-.67,0-1.23.24-1.68.73-.45.48-.73,1.16-.84,2.04h4.85v-.13c-.05-.84-.27-1.49-.68-1.95-.41-.46-.95-.7-1.65-.7h0Z"/></svg>