<?xml version="1.0" encoding="UTF-8"?>
<svg id="Ebene_1" data-name="Ebene 1" xmlns="http://www.w3.org/2000/svg" viewBox="0 0 256 256">
  <defs>
    <style>
      .cls-1 {
        fill: #fff;
      }

      .cls-2 {
        fill: #61dafb;
      }
    </style>
  </defs>
  <g id="Ebene_2" data-name="Ebene 2">
    <path class="cls-2" d="m45,0h166c24.85,0,45,20.15,45,45v166c0,24.85-20.15,45-45,45H45c-24.85,0-45-20.15-45-45V45C0,20.15,20.15,0,45,0Z"/>
  </g>
  <g>
    <path class="cls-1" d="m238,128.02c0-14.57-18.25-28.39-46.23-36.95,6.46-28.52,3.59-51.21-9.06-58.48-2.91-1.7-6.32-2.51-10.04-2.51v10c2.06,0,3.72.4,5.11,1.17,6.1,3.5,8.74,16.82,6.68,33.95-.49,4.22-1.3,8.65-2.29,13.18-8.79-2.15-18.39-3.81-28.48-4.89-6.05-8.3-12.33-15.83-18.65-22.42,14.62-13.59,28.34-21.03,37.67-21.03v-10c-12.33,0-28.48,8.79-44.8,24.04-16.32-15.16-32.47-23.86-44.8-23.86v10c9.28,0,23.05,7.4,37.67,20.9-6.28,6.59-12.56,14.08-18.52,22.38-10.13,1.08-19.73,2.74-28.52,4.93-1.03-4.48-1.79-8.83-2.33-13-2.11-17.13.49-30.45,6.55-33.99,1.35-.81,3.09-1.17,5.16-1.17v-10c-3.77,0-7.17.81-10.13,2.51-12.6,7.26-15.43,29.91-8.92,58.34-27.89,8.61-46.05,22.38-46.05,36.91s18.25,28.39,46.23,36.95c-6.46,28.52-3.59,51.21,9.06,58.48,2.91,1.7,6.32,2.51,10.09,2.51,12.33,0,28.48-8.79,44.8-24.04,16.32,15.16,32.47,23.86,44.8,23.86,3.77,0,7.17-.81,10.13-2.51,12.6-7.26,15.43-29.91,8.92-58.34,27.8-8.57,45.96-22.38,45.96-36.91h0Zm-58.39-29.91c-1.66,5.78-3.72,11.75-6.05,17.71-1.84-3.59-3.77-7.17-5.87-10.76-2.06-3.59-4.26-7.09-6.46-10.49,6.37.94,12.51,2.11,18.39,3.54h0Zm-20.54,47.76c-3.5,6.05-7.09,11.79-10.81,17.13-6.68.58-13.45.9-20.27.9s-13.54-.31-20.18-.85c-3.72-5.34-7.35-11.03-10.85-17.04-3.41-5.87-6.5-11.84-9.33-17.85,2.78-6.01,5.92-12.02,9.28-17.89,3.5-6.05,7.09-11.79,10.81-17.13,6.68-.58,13.45-.9,20.27-.9s13.54.31,20.18.85c3.72,5.34,7.35,11.03,10.85,17.04,3.41,5.87,6.5,11.84,9.33,17.85-2.83,6.01-5.92,12.02-9.28,17.89h0Zm14.48-5.83c2.42,6.01,4.48,12.02,6.19,17.85-5.87,1.43-12.06,2.65-18.48,3.59,2.2-3.45,4.39-7,6.46-10.63,2.06-3.59,3.99-7.22,5.83-10.81h0Zm-45.47,47.85c-4.17-4.3-8.34-9.1-12.47-14.35,4.04.18,8.16.31,12.33.31s8.39-.09,12.47-.31c-4.04,5.25-8.21,10.04-12.33,14.35Zm-33.36-26.41c-6.37-.94-12.51-2.11-18.39-3.54,1.66-5.78,3.72-11.75,6.05-17.71,1.84,3.59,3.77,7.17,5.87,10.76s4.26,7.09,6.46,10.49Zm33.14-93.32c4.17,4.3,8.34,9.1,12.47,14.35-4.04-.18-8.16-.31-12.33-.31s-8.39.09-12.47.31c4.04-5.25,8.21-10.04,12.33-14.35Zm-33.18,26.41c-2.2,3.45-4.39,7-6.46,10.63-2.06,3.59-3.99,7.17-5.83,10.76-2.42-6.01-4.48-12.02-6.19-17.85,5.87-1.39,12.06-2.6,18.48-3.54h0Zm-40.58,56.14c-15.87-6.77-26.14-15.65-26.14-22.69s10.27-15.96,26.14-22.69c3.86-1.66,8.07-3.14,12.42-4.53,2.56,8.79,5.92,17.94,10.09,27.31-4.13,9.33-7.44,18.43-9.96,27.17-4.44-1.39-8.65-2.91-12.56-4.57h0Zm24.13,64.08c-6.1-3.5-8.74-16.82-6.68-33.95.49-4.22,1.3-8.65,2.29-13.18,8.79,2.15,18.39,3.81,28.48,4.89,6.05,8.3,12.33,15.83,18.65,22.42-14.62,13.59-28.34,21.03-37.67,21.03-2.02-.04-3.72-.45-5.07-1.21h0Zm106.37-34.17c2.11,17.13-.49,30.45-6.55,33.99-1.35.81-3.09,1.17-5.16,1.17-9.28,0-23.05-7.4-37.67-20.9,6.28-6.59,12.56-14.08,18.52-22.38,10.13-1.08,19.73-2.74,28.52-4.93,1.03,4.53,1.84,8.88,2.33,13.05Zm17.26-29.91c-3.86,1.66-8.07,3.14-12.42,4.53-2.56-8.79-5.92-17.94-10.09-27.31,4.13-9.33,7.44-18.43,9.96-27.17,4.44,1.39,8.65,2.91,12.6,4.57,15.87,6.77,26.14,15.65,26.14,22.69-.04,7.04-10.31,15.96-26.19,22.69h0Z"/>
    <circle class="cls-1" cx="127.96" cy="128.02" r="20.49"/>
  </g>
</svg>