<?xml version="1.0" encoding="UTF-8"?>
<svg id="Ebene_1" data-name="Ebene 1" xmlns="http://www.w3.org/2000/svg" viewBox="0 0 256 256">
  <defs>
    <style>
      .cls-1 {
        fill: #621b1c;
      }

      .cls-2 {
        fill: #fff;
      }

      .cls-3 {
        fill: #912626;
      }

      .cls-4 {
        fill: #9a2928;
      }

      .cls-5 {
        fill: #c6302b;
      }

      .cls-6 {
        fill: #27282c;
      }
    </style>
  </defs>
  <g id="Ebene_2" data-name="Ebene 2">
    <path class="cls-6" d="m45,0h166c24.85,0,45,20.15,45,45v166c0,24.85-20.15,45-45,45H45c-24.85,0-45-20.15-45-45V45C0,20.15,20.15,0,45,0Z"/>
  </g>
  <g>
    <path class="cls-3" d="m220.16,174.14c-10.67,5.56-65.96,28.3-77.74,34.43-11.77,6.14-18.31,6.08-27.61,1.63-9.3-4.45-68.14-28.21-78.74-33.28-5.3-2.53-8.08-4.67-8.08-6.69v-20.22s76.6-16.68,88.97-21.11c12.37-4.44,16.66-4.6,27.18-.74,10.53,3.86,73.45,15.21,83.85,19.02v19.93c0,2-2.4,4.19-7.84,7.02"/>
    <path class="cls-5" d="m220.16,154.05c-10.67,5.56-65.96,28.3-77.73,34.43-11.77,6.14-18.31,6.08-27.61,1.63-9.3-4.44-68.14-28.21-78.73-33.28-10.6-5.07-10.82-8.55-.41-12.63,10.41-4.08,68.92-27.04,81.29-31.47,12.37-4.44,16.66-4.6,27.18-.74,10.52,3.85,65.48,25.73,75.88,29.54,10.4,3.81,10.8,6.95.13,12.52"/>
    <path class="cls-3" d="m220.16,141.43c-10.67,5.56-65.96,28.3-77.74,34.44-11.77,6.14-18.31,6.08-27.61,1.63-9.3-4.44-68.14-28.21-78.74-33.28-5.3-2.53-8.08-4.67-8.08-6.69v-20.22s76.6-16.68,88.97-21.11c12.37-4.44,16.66-4.6,27.18-.74,10.53,3.86,73.45,15.21,83.85,19.02v19.93c0,2-2.4,4.19-7.84,7.02"/>
    <path class="cls-5" d="m220.16,121.34c-10.67,5.56-65.96,28.3-77.73,34.43-11.77,6.14-18.31,6.08-27.61,1.63-9.3-4.44-68.14-28.21-78.73-33.28-10.6-5.06-10.82-8.55-.41-12.63,10.41-4.08,68.93-27.03,81.29-31.47,12.37-4.44,16.66-4.6,27.18-.74,10.52,3.85,65.48,25.73,75.88,29.54,10.4,3.81,10.8,6.95.13,12.52"/>
    <path class="cls-3" d="m220.16,107.51c-10.67,5.56-65.96,28.3-77.74,34.44-11.77,6.14-18.31,6.08-27.61,1.63-9.3-4.44-68.14-28.21-78.74-33.28-5.3-2.53-8.08-4.67-8.08-6.69v-20.22s76.6-16.67,88.97-21.11c12.37-4.44,16.66-4.6,27.18-.74,10.53,3.86,73.45,15.21,83.85,19.02v19.93c0,2-2.4,4.19-7.84,7.02"/>
    <path class="cls-5" d="m220.16,87.42c-10.67,5.56-65.96,28.3-77.73,34.43-11.77,6.14-18.31,6.08-27.61,1.63-9.3-4.45-68.14-28.21-78.73-33.28-10.6-5.06-10.82-8.55-.41-12.63,10.41-4.08,68.93-27.03,81.29-31.47,12.37-4.44,16.66-4.6,27.18-.74,10.52,3.86,65.48,25.73,75.88,29.54,10.4,3.81,10.8,6.95.13,12.51"/>
    <path class="cls-2" d="m152.44,67.75l-17.2,1.79-3.85,9.26-6.22-10.34-19.86-1.78,14.82-5.34-4.45-8.2,13.87,5.42,13.08-4.28-3.53,8.48,13.33,4.99m-22.07,44.94l-32.09-13.31,45.98-7.06-13.89,20.37m-44.49-39.79c13.57,0,24.58,4.27,24.58,9.53s-11,9.53-24.58,9.53-24.58-4.27-24.58-9.53,11-9.53,24.58-9.53"/>
    <path class="cls-1" d="m172.76,70.28l27.22,10.75-27.19,10.74-.02-21.5"/>
    <path class="cls-4" d="m142.65,82.19l30.11-11.91.02,21.5-2.95,1.15-27.18-10.74"/>
  </g>
</svg>