<?xml version="1.0" encoding="UTF-8" standalone="no"?>
<!DOCTYPE svg PUBLIC "-//W3C//DTD SVG 1.1//EN" "http://www.w3.org/Graphics/SVG/1.1/DTD/svg11.dtd">
<!-- Created with Vectornator (http://vectornator.io/) -->
<svg height="100%" stroke-miterlimit="10" style="fill-rule:nonzero;clip-rule:evenodd;stroke-linecap:round;stroke-linejoin:round;" version="1.1" viewBox="0 0 512 512" width="100%" xml:space="preserve" xmlns="http://www.w3.org/2000/svg" xmlns:vectornator="http://vectornator.io" xmlns:xlink="http://www.w3.org/1999/xlink">
<defs/>
<g id="Ebene-1" vectornator:layerName="Ebene 1">
<path d="M2.84217e-14 95C2.84217e-14 42.5329 42.5329 0 95 0L417 0C469.467 0 512 42.5329 512 95L512 417C512 469.467 469.467 512 417 512L95 512C42.5329 512 2.84217e-14 469.467 2.84217e-14 417L2.84217e-14 95Z" fill="#28334c" fill-rule="nonzero" opacity="1" stroke="none" vectornator:layerName="Rechteck 1"/>
<g opacity="1" vectornator:layerName="redis.svg">
<path d="M409.453 332.831C391.682 342.094 299.623 379.946 280.024 390.163C260.425 400.382 249.538 400.283 234.055 392.882C218.573 385.48 120.606 345.908 102.958 337.473C94.1386 333.258 89.5 329.699 89.5 326.338L89.5 292.679C89.5 292.679 217.042 264.914 237.632 257.526C258.22 250.139 265.364 249.873 282.886 256.291C300.41 262.711 405.183 281.614 422.5 287.957L422.492 321.14C422.495 324.467 418.499 328.117 409.453 332.831" fill="#912626" fill-rule="nonzero" opacity="1" stroke="none" vectornator:layerName="path"/>
<path d="M409.447 299.371C391.677 308.63 299.62 346.483 280.022 356.699C260.424 366.92 249.536 366.819 234.055 359.418C218.571 352.022 120.608 312.443 102.962 304.013C85.3154 295.577 84.946 289.772 102.28 282.984C119.614 276.194 217.04 237.971 237.633 230.583C258.222 223.199 265.364 222.93 282.886 229.35C300.409 235.768 391.916 272.191 409.231 278.533C426.552 284.882 427.217 290.11 409.447 299.371" fill="#c6302b" fill-rule="nonzero" opacity="1" stroke="none" vectornator:layerName="path"/>
<path d="M409.453 278.369C391.682 287.633 299.623 325.483 280.024 335.705C260.425 345.92 249.538 345.821 234.055 338.419C218.571 331.022 120.606 291.446 102.958 283.01C94.1386 278.796 89.5 275.242 89.5 271.879L89.5 238.216C89.5 238.216 217.042 210.453 237.632 203.065C258.22 195.678 265.364 195.41 282.886 201.83C300.411 208.249 405.184 227.148 422.5 233.492L422.492 266.679C422.495 270.005 418.499 273.655 409.453 278.369" fill="#912626" fill-rule="nonzero" opacity="1" stroke="none" vectornator:layerName="path"/>
<path d="M409.447 244.909C391.677 254.17 299.62 292.021 280.022 302.241C260.424 312.457 249.536 312.357 234.055 304.956C218.571 297.559 120.608 257.982 102.962 249.55C85.3154 241.117 84.946 235.31 102.28 228.52C119.614 221.734 217.042 183.508 237.633 176.122C258.222 168.736 265.364 168.469 282.886 174.888C300.409 181.306 391.916 217.726 409.231 224.07C426.552 230.418 427.217 235.647 409.447 244.909" fill="#c6302b" fill-rule="nonzero" opacity="1" stroke="none" vectornator:layerName="path"/>
<path d="M409.453 221.888C391.682 231.149 299.623 269.002 280.024 279.224C260.425 289.44 249.538 289.34 234.055 281.938C218.571 274.541 120.606 234.963 102.958 226.531C94.1386 222.313 89.5 218.758 89.5 215.399L89.5 181.735C89.5 181.735 217.042 153.973 237.632 146.587C258.22 139.198 265.364 138.933 282.886 145.351C300.411 151.77 405.184 170.669 422.5 177.013L422.492 210.199C422.495 213.522 418.499 217.172 409.453 221.888" fill="#912626" fill-rule="nonzero" opacity="1" stroke="none" vectornator:layerName="path"/>
<path d="M409.447 188.428C391.677 197.689 299.62 235.542 280.022 245.758C260.424 255.975 249.536 255.874 234.055 248.477C218.573 241.076 120.608 201.501 102.963 193.068C85.3154 184.636 84.9473 178.828 102.28 172.039C119.614 165.252 217.042 127.031 237.633 119.642C258.222 112.255 265.364 111.99 282.886 118.409C300.409 124.829 391.916 161.249 409.231 167.593C426.552 173.936 427.217 179.166 409.447 188.428" fill="#c6302b" fill-rule="nonzero" opacity="1" stroke="none" vectornator:layerName="path"/>
<path d="M296.692 155.683L268.062 158.655L261.653 174.077L251.302 156.868L218.242 153.897L242.91 145.001L235.509 131.346L258.604 140.378L280.377 133.25L274.492 147.37L296.692 155.683M259.944 230.501L206.512 208.34L283.076 196.587L259.944 230.501M185.864 164.255C208.466 164.255 226.787 171.358 226.787 180.117C226.787 188.879 208.466 195.98 185.864 195.98C163.263 195.98 144.942 188.878 144.942 180.117C144.942 171.358 163.263 164.255 185.864 164.255" fill="#ffffff" fill-rule="nonzero" opacity="1" stroke="none" vectornator:layerName="path"/>
<path d="M330.528 159.899L375.842 177.806L330.567 195.695L330.528 159.898" fill="#621b1c" fill-rule="nonzero" opacity="1" stroke="none" vectornator:layerName="path"/>
<path d="M280.396 179.729L330.528 159.899L330.567 195.695L325.652 197.618L280.396 179.729" fill="#9a2928" fill-rule="nonzero" opacity="1" stroke="none" vectornator:layerName="path"/>
</g>
</g>
</svg>
