<?xml version="1.0" encoding="UTF-8"?><svg id="Ebene_1" xmlns="http://www.w3.org/2000/svg" viewBox="0 0 128 128"><defs><style>.cls-1{fill:#fff;}.cls-2{fill:#764abc;}</style></defs><rect class="cls-2" width="128" height="128" rx="25" ry="25"/><path class="cls-1" d="m83.29,82.83c3.69-.38,6.49-3.56,6.36-7.38-.13-3.82-3.31-6.87-7.13-6.87h-.25c-3.94.13-7,3.44-6.87,7.38.13,1.91.89,3.56,2.04,4.71-4.33,8.53-10.94,14.76-20.87,19.98-6.74,3.56-13.74,4.84-20.74,3.95-5.73-.76-10.18-3.31-12.98-7.51-4.07-6.24-4.45-12.98-1.02-19.73,2.42-4.84,6.24-8.4,8.65-10.18-.51-1.65-1.27-4.45-1.65-6.49-18.45,13.36-16.54,31.43-10.94,39.96,4.2,6.36,12.73,10.31,22.14,10.31,2.55,0,5.09-.25,7.64-.89,16.29-3.18,28.63-12.85,35.63-27.23Zm22.4-15.78c-9.67-11.33-23.92-17.56-40.21-17.56h-2.04c-1.15-2.29-3.56-3.82-6.24-3.82h-.25c-3.94.13-7,3.44-6.87,7.38.13,3.82,3.31,6.87,7.13,6.87h.25c2.8-.13,5.22-1.91,6.24-4.33h2.29c9.67,0,18.83,2.8,27.11,8.27,6.36,4.2,10.94,9.67,13.49,16.29,2.16,5.34,2.04,10.56-.25,15.02-3.56,6.74-9.54,10.44-17.43,10.44-5.09,0-9.93-1.53-12.47-2.67-1.4,1.27-3.94,3.31-5.73,4.58,5.47,2.55,11.07,3.95,16.42,3.95,12.22,0,21.25-6.74,24.69-13.49,3.69-7.38,3.44-20.11-6.11-30.92Zm-64.65,17.94c.13,3.82,3.31,6.87,7.13,6.87h.25c3.94-.13,7-3.44,6.87-7.38-.13-3.82-3.31-6.87-7.13-6.87h-.25c-.25,0-.64,0-.89.13-5.22-8.65-7.38-18.07-6.62-28.25.51-7.64,3.05-14.25,7.51-19.73,3.69-4.71,10.82-7,15.65-7.13,13.49-.25,19.22,16.54,19.6,23.29,1.65.38,4.45,1.27,6.36,1.91-1.53-20.62-14.25-31.31-26.47-31.31-11.45,0-22.01,8.27-26.21,20.49-5.85,16.29-2.04,31.94,5.09,44.29-.64.89-1.02,2.29-.89,3.69Z"/></svg>