<?xml version="1.0" encoding="UTF-8"?><svg id="Ebene_1" xmlns="http://www.w3.org/2000/svg" viewBox="0 0 128 128"><defs><style>.cls-1{fill:#fff;}.cls-2{fill:#764abc;}</style></defs><rect class="cls-2" width="128" height="128" rx="25" ry="25"/><path class="cls-1" d="m85.22,84.72c4.06-.42,7.14-3.92,7-8.12-.14-4.2-3.64-7.56-7.84-7.56h-.28c-4.34.14-7.7,3.78-7.56,8.12.14,2.1.98,3.92,2.24,5.18-4.76,9.38-12.04,16.24-22.96,21.98-7.42,3.92-15.12,5.32-22.82,4.34-6.3-.84-11.2-3.64-14.28-8.26-4.48-6.86-4.9-14.28-1.12-21.7,2.66-5.32,6.86-9.24,9.52-11.2-.56-1.82-1.4-4.9-1.82-7.14-20.3,14.7-18.2,34.58-12.04,43.96,4.62,7,14,11.34,24.36,11.34,2.8,0,5.6-.28,8.4-.98,17.92-3.5,31.5-14.14,39.19-29.96Zm24.64-17.36c-10.64-12.46-26.32-19.32-44.23-19.32h-2.24c-1.26-2.52-3.92-4.2-6.86-4.2h-.28c-4.34.14-7.7,3.78-7.56,8.12.14,4.2,3.64,7.56,7.84,7.56h.28c3.08-.14,5.74-2.1,6.86-4.76h2.52c10.64,0,20.72,3.08,29.82,9.1,7,4.62,12.04,10.64,14.84,17.92,2.38,5.88,2.24,11.62-.28,16.52-3.92,7.42-10.5,11.48-19.18,11.48-5.6,0-10.92-1.68-13.72-2.94-1.54,1.4-4.34,3.64-6.3,5.04,6.02,2.8,12.18,4.34,18.06,4.34,13.44,0,23.38-7.42,27.16-14.84,4.06-8.12,3.78-22.12-6.72-34.02Zm-71.11,19.74c.14,4.2,3.64,7.56,7.84,7.56h.28c4.34-.14,7.7-3.78,7.56-8.12-.14-4.2-3.64-7.56-7.84-7.56h-.28c-.28,0-.7,0-.98.14-5.74-9.52-8.12-19.88-7.28-31.08.56-8.4,3.36-15.68,8.26-21.7,4.06-5.18,11.9-7.7,17.22-7.84,14.84-.28,21.14,18.2,21.56,25.62,1.82.42,4.9,1.4,7,2.1-1.68-22.68-15.68-34.44-29.12-34.44-12.6,0-24.22,9.1-28.84,22.54-6.44,17.92-2.24,35.14,5.6,48.71-.7.98-1.12,2.52-.98,4.06Z"/></svg>