<?xml version="1.0" encoding="UTF-8"?>
<svg id="Ebene_1" data-name="Ebene 1" xmlns="http://www.w3.org/2000/svg" viewBox="0 0 256 256">
  <defs>
    <style>
      .cls-1 {
        fill: #fff;
      }

      .cls-2 {
        fill: #764abc;
      }
    </style>
  </defs>
  <g id="Ebene_2" data-name="Ebene 2">
    <path class="cls-2" d="m45,0h166c24.85,0,45,20.15,45,45v166c0,24.85-20.15,45-45,45H45c-24.85,0-45-20.15-45-45V45C0,20.15,20.15,0,45,0Z"/>
  </g>
  <path class="cls-1" d="m170.44,169.44c8.12-.84,14.28-7.84,14-16.24-.28-8.4-7.28-15.12-15.68-15.12h-.56c-8.68.28-15.4,7.56-15.12,16.24.28,4.2,1.96,7.84,4.48,10.36-9.52,18.76-24.08,32.48-45.91,43.96-14.84,7.84-30.24,10.64-45.63,8.68-12.6-1.68-22.4-7.28-28.56-16.52-8.96-13.72-9.8-28.56-2.24-43.39,5.32-10.64,13.72-18.48,19.04-22.4-1.12-3.64-2.8-9.8-3.64-14.28-40.59,29.4-36.39,69.15-24.08,87.91,9.24,14,28,22.68,48.71,22.68,5.6,0,11.2-.56,16.8-1.96,35.84-7,62.99-28.28,78.39-59.91h0Zm49.27-34.72c-21.28-24.92-52.63-38.64-88.47-38.64h-4.48c-2.52-5.04-7.84-8.4-13.72-8.4h-.56c-8.68.28-15.4,7.56-15.12,16.24.28,8.4,7.28,15.12,15.68,15.12h.56c6.16-.28,11.48-4.2,13.72-9.52h5.04c21.28,0,41.43,6.16,59.63,18.2,14,9.24,24.08,21.28,29.68,35.84,4.76,11.76,4.48,23.24-.56,33.04-7.84,14.84-21,22.96-38.35,22.96-11.2,0-21.84-3.36-27.44-5.88-3.08,2.8-8.68,7.28-12.6,10.08,12.04,5.6,24.36,8.68,36.12,8.68,26.88,0,46.75-14.84,54.31-29.68,8.12-16.24,7.56-44.24-13.44-68.03h0Zm-142.22,39.47c.28,8.4,7.28,15.12,15.68,15.12h.56c8.68-.28,15.4-7.56,15.12-16.24-.28-8.4-7.28-15.12-15.68-15.12h-.56c-.56,0-1.4,0-1.96.28-11.48-19.04-16.24-39.75-14.56-62.15,1.12-16.8,6.72-31.36,16.52-43.4,8.12-10.36,23.8-15.4,34.44-15.68,29.68-.56,42.27,36.4,43.11,51.23,3.64.84,9.8,2.8,14,4.2-3.36-45.35-31.36-68.87-58.23-68.87-25.2,0-48.43,18.2-57.67,45.08-12.88,35.84-4.48,70.27,11.2,97.43-1.4,1.96-2.24,5.04-1.96,8.12h0Z"/>
</svg>