<?xml version="1.0" encoding="UTF-8"?><svg id="Ebene_1" xmlns="http://www.w3.org/2000/svg" viewBox="0 0 128 128"><defs><style>.cls-1{fill:#fff;}.cls-2{fill:#764abc;}</style></defs><rect class="cls-2" width="128" height="128" rx="25" ry="25"/><path class="cls-1" d="m81.36,80.95c3.32-.34,5.84-3.21,5.73-6.64-.11-3.44-2.98-6.18-6.41-6.18h-.23c-3.55.11-6.3,3.09-6.18,6.64.11,1.72.8,3.21,1.83,4.24-3.89,7.67-9.85,13.29-18.78,17.98-6.07,3.21-12.37,4.35-18.67,3.55-5.15-.69-9.16-2.98-11.68-6.76-3.66-5.61-4.01-11.68-.92-17.75,2.18-4.35,5.61-7.56,7.79-9.16-.46-1.49-1.15-4.01-1.49-5.84-16.61,12.03-14.89,28.29-9.85,35.96,3.78,5.73,11.45,9.28,19.93,9.28,2.29,0,4.58-.23,6.87-.8,14.66-2.86,25.77-11.57,32.07-24.51Zm20.16-14.2c-8.7-10.19-21.53-15.81-36.19-15.81h-1.83c-1.03-2.06-3.21-3.44-5.61-3.44h-.23c-3.55.11-6.3,3.09-6.18,6.64.11,3.44,2.98,6.18,6.41,6.18h.23c2.52-.11,4.7-1.72,5.61-3.89h2.06c8.7,0,16.95,2.52,24.39,7.44,5.73,3.78,9.85,8.7,12.14,14.66,1.95,4.81,1.83,9.51-.23,13.51-3.21,6.07-8.59,9.39-15.69,9.39-4.58,0-8.93-1.37-11.22-2.41-1.26,1.15-3.55,2.98-5.15,4.12,4.92,2.29,9.96,3.55,14.77,3.55,10.99,0,19.13-6.07,22.22-12.14,3.32-6.64,3.09-18.1-5.5-27.83Zm-58.18,16.15c.11,3.44,2.98,6.18,6.41,6.18h.23c3.55-.11,6.3-3.09,6.18-6.64-.11-3.44-2.98-6.18-6.41-6.18h-.23c-.23,0-.57,0-.8.11-4.7-7.79-6.64-16.26-5.96-25.43.46-6.87,2.75-12.83,6.76-17.75,3.32-4.24,9.73-6.3,14.09-6.41,12.14-.23,17.29,14.89,17.64,20.96,1.49.34,4.01,1.15,5.73,1.72-1.37-18.55-12.83-28.18-23.82-28.18-10.31,0-19.81,7.44-23.59,18.44-5.27,14.66-1.83,28.75,4.58,39.86-.57.8-.92,2.06-.8,3.32Z"/></svg>