<?xml version="1.0" encoding="UTF-8"?><svg id="a" xmlns="http://www.w3.org/2000/svg" xmlns:xlink="http://www.w3.org/1999/xlink" viewBox="0 0 128 128"><defs><style>.c{fill:#d33847;}.d{fill:#fff;}.d,.e{fill-rule:evenodd;}.e{fill:url(#b);fill-opacity:.1;}</style><linearGradient id="b" x1="-9.44" y1="71.38" x2="-7.3" y2="73.51" gradientTransform="translate(672.6 547.22) rotate(-45) scale(10.67 -10.67)" gradientUnits="userSpaceOnUse"><stop offset="0" stop-color="#000"/><stop offset="1" stop-color="#fff"/></linearGradient></defs><path class="c" d="m25,128c-13.81,0-25-11.19-25-25V25c0-13.81,11.19-25,25-25h78c13.81,0,25,11.19,25,25v78c0,13.81-11.19,25-25,25H35"/><path class="d" d="m53.62,102.48c1.98,1.98,4.24,3.24,6.72,3.7v7.04c.04.78.59.78,1.38.78h5.51c.78.01,1.29,0,1.28-.78v-7.63c1.17-.54,3.78-2.05,6.43-5.61l.59-4.19c.04-.31.15-.83.25-1.14l.97-3.32.02,3.46c0,.33-.03.86-.08,1.17l-.51,3.6,13.08,6.08c.44.2.96.02,1.16-.42.05-.11.08-.23.08-.35l.4-16.03c0-.19-.05-.37-.16-.52l-8.45-12.14c.3-4.18.32-8.7.04-13.44-1.58-27.32-10.96-40.54-16.41-45.99-1.79-1.79-3-2.56-3.05-2.6-.3-.19-.69-.18-.98.03-.75.53-18.36,13.44-18.37,53.13,0,.05.08,5.29,1.03,11.8l-7.36,13.03c-.09.16-.13.33-.11.51l1.46,15.97c.05.48.47.84.96.79.12-.01.23-.05.34-.1l12.58-6.91-.25-3.53c-.02-.31-.02-.83,0-1.15l.26-3.4.73,3.33c.08.38.14.76.17,1.14,0,0,.26,3.71.26,3.71Zm.4-42.64c0-6.45,3.96-11.67,8.84-11.67,4.89,0,8.85,5.22,8.85,11.67s-3.96,11.67-8.84,11.67c-4.89,0-8.85-5.23-8.85-11.67Z"/><path class="e" d="m54.03,59.9c0-6.45,3.96-11.67,8.84-11.67,4.89,0,8.85,5.22,8.84,11.67,0,6.45-3.96,11.67-8.84,11.67-4.89,0-8.84-5.23-8.84-11.67Z"/></svg>