<?xml version="1.0" encoding="UTF-8"?><svg id="a" xmlns="http://www.w3.org/2000/svg" xmlns:xlink="http://www.w3.org/1999/xlink" viewBox="0 0 128 128"><defs><style>.h{fill:#1b1b1f;}.i{fill:url(#f);}.j{fill:url(#g);isolation:isolate;opacity:.3;}.k{fill:url(#e);}.l{fill:url(#d);}.m{fill:url(#b);}.n{fill:url(#c);}</style><linearGradient id="b" x1="1.08" y1="128.9" x2="1.2" y2="128.88" gradientTransform="translate(-185.76 38268.77) scale(221.38 -296.38)" gradientUnits="userSpaceOnUse"><stop offset="0" stop-color="#ff6533"/><stop offset=".16" stop-color="#ff5633"/><stop offset=".43" stop-color="#ff4333"/><stop offset=".71" stop-color="#ff3733"/><stop offset="1" stop-color="#f33"/></linearGradient><linearGradient id="c" x1="1.07" y1="128.92" x2="1.27" y2="128.8" gradientTransform="translate(-185.76 38268.77) scale(221.38 -296.38)" gradientUnits="userSpaceOnUse"><stop offset="0" stop-color="#bf3338"/><stop offset="1" stop-color="#f33"/></linearGradient><linearGradient id="d" x1="1.13" y1="129.02" x2="1.17" y2="128.99" gradientTransform="translate(-147.55 33774.84) scale(176.67 -261.27)" xlink:href="#b"/><linearGradient id="e" x1="1.23" y1="128.72" x2="1.23" y2="128.83" gradientTransform="translate(-220.96 35435.73) scale(230.75 -274.69)" xlink:href="#b"/><linearGradient id="f" x1="1.22" y1="128.87" x2="1.26" y2="128.85" gradientTransform="translate(-240.48 39913.35) scale(241.65 -309.2)" gradientUnits="userSpaceOnUse"><stop offset="0" stop-color="#fbb040"/><stop offset="1" stop-color="#fb8840"/></linearGradient><linearGradient id="g" x1="1.27" y1="128.99" x2="1.23" y2="128.64" gradientTransform="translate(-236.5 39503.85) scale(237.67 -306.03)" gradientUnits="userSpaceOnUse"><stop offset="0" stop-color="#fff"/><stop offset="1" stop-color="#fff" stop-opacity="0"/></linearGradient></defs><rect class="h" x="0" y="0" width="128" height="128" rx="25" ry="25" transform="translate(128 0) rotate(90)"/><path class="m" d="m100.35,47.78c0-5.59-1.46-10.84-4.04-15.38-6.84-7.04-21.72-8.67-25.42-.03-3.8,8.86,6.38,18.71,10.82,17.93,5.66-1-1-13.98-1-13.98,8.66,16.31,6.66,11.32-8.99,26.3-15.65,14.98-31.63,46.59-33.96,47.92-.1.07-.2.12-.32.17h61.37c1.08,0,1.78-1.15,1.3-2.11l-16.05-31.76c-.35-.68-.1-1.53.57-1.91,9.39-5.39,15.71-15.51,15.71-27.13Z"/><path class="n" d="m100.35,47.78c0-5.59-1.46-10.84-4.04-15.38-6.84-7.04-21.72-8.67-25.42-.03-3.8,8.86,6.38,18.71,10.82,17.93,5.66-1-1-13.98-1-13.98,8.66,16.31,6.66,11.32-8.99,26.3-15.65,14.98-31.63,46.59-33.96,47.92-.1.07-.2.12-.32.17h61.37c1.08,0,1.78-1.15,1.3-2.11l-16.05-31.76c-.35-.68-.1-1.53.57-1.91,9.39-5.39,15.71-15.51,15.71-27.13Z"/><path class="l" d="m37.76,110.53c2.33-1.33,18.31-32.96,33.96-47.94,15.65-14.98,17.64-9.99,8.99-26.3,0,0-33.12,46.44-45.11,69.41"/><path class="k" d="m42.42,68.92c22.37-41.13,25.3-45.28,36.95-45.28,6.13,0,12.3,2.76,16.3,7.67-5.44-8.77-15.08-14.65-26.12-14.81H31.55c-.8,0-1.45.65-1.45,1.45v76.6c2.26-5.84,6.11-14.2,12.32-25.63Z"/><path class="i" d="m71.72,62.59c-15.65,14.98-31.63,46.61-33.96,47.94-2.33,1.33-6.24,1.5-8.32-.83-2.21-2.48-5.66-6.49,12.98-40.78,22.37-41.13,25.3-45.28,36.95-45.28,6.13,0,12.3,2.76,16.3,7.67.22.35.43.72.65,1.08-6.84-7.04-21.72-8.67-25.42-.03-3.8,8.86,6.38,18.71,10.82,17.93,5.66-1-1-13.98-1-13.98,8.64,16.3,6.64,11.3-9.01,26.28Z"/><path class="j" d="m44.25,70.75c22.37-41.13,25.3-45.28,36.95-45.28,5.04,0,10.12,1.88,13.98,5.28-3.99-4.56-9.92-7.11-15.81-7.11-11.65,0-14.58,4.14-36.95,45.28-18.64,34.29-15.2,38.3-12.98,40.78.32.35.68.65,1.07.9-1.95-2.83-2.81-9.4,13.75-39.85Z"/></svg>