<?xml version="1.0" encoding="UTF-8" standalone="no"?>
<!DOCTYPE svg PUBLIC "-//W3C//DTD SVG 1.1//EN" "http://www.w3.org/Graphics/SVG/1.1/DTD/svg11.dtd">
<!-- Created with Vectornator (http://vectornator.io/) -->
<svg height="100%" stroke-miterlimit="10" style="fill-rule:nonzero;clip-rule:evenodd;stroke-linecap:round;stroke-linejoin:round;" version="1.1" viewBox="0 0 512 512" width="100%" xml:space="preserve" xmlns="http://www.w3.org/2000/svg" xmlns:vectornator="http://vectornator.io" xmlns:xlink="http://www.w3.org/1999/xlink">
<defs>
<linearGradient gradientTransform="matrix(1.5625 0 0 1.5625 56 56)" gradientUnits="userSpaceOnUse" id="LinearGradient" x1="181.4" x2="110.96" y1="192.12" y2="26.12">
<stop offset="0.17" stop-color="#ff1f51"/>
<stop offset="0.28" stop-color="#ff3648"/>
<stop offset="0.47" stop-color="#ff593b"/>
<stop offset="0.65" stop-color="#ff7231"/>
<stop offset="0.81" stop-color="#ff812b"/>
<stop offset="0.94" stop-color="#ff8629"/>
</linearGradient>
<linearGradient gradientTransform="matrix(1.5625 0 0 1.5625 56 56)" gradientUnits="userSpaceOnUse" id="LinearGradient_2" x1="122.02" x2="92.18" y1="47.2" y2="122.34">
<stop offset="0.02" stop-color="#9039d0"/>
<stop offset="0.63" stop-color="#ff1f51"/>
</linearGradient>
<linearGradient gradientTransform="matrix(1.5625 0 0 1.5625 56 56)" gradientUnits="userSpaceOnUse" id="LinearGradient_3" x1="0.96" x2="165.5" y1="41.04" y2="250.22">
<stop offset="0.11" stop-color="#9039d0"/>
<stop offset="0.39" stop-color="#ff1f51"/>
<stop offset="0.63" stop-color="#ff1f51"/>
<stop offset="0.66" stop-color="#ff3648"/>
<stop offset="0.71" stop-color="#ff593b"/>
<stop offset="0.77" stop-color="#ff7231"/>
<stop offset="0.81" stop-color="#ff812b"/>
<stop offset="0.85" stop-color="#ff8629"/>
</linearGradient>
</defs>
<g id="Ebene-1" vectornator:layerName="Ebene 1">
<path d="M2.84217e-14 95C2.84217e-14 42.5329 42.5329 0 95 0L417 0C469.467 0 512 42.5329 512 95L512 417C512 469.467 469.467 512 417 512L95 512C42.5329 512 2.84217e-14 469.467 2.84217e-14 417L2.84217e-14 95Z" fill="#232531" fill-rule="nonzero" opacity="1" stroke="none" vectornator:layerName="Rechteck 1"/>
<g opacity="1" vectornator:layerName="g">
<path d="M388 56L274.656 97.3438L184 56L96 278.656L197.344 237.344L196 350.656L413.344 354.656L456 134.656L388 56Z" fill="url(#LinearGradient)" fill-rule="nonzero" opacity="1" stroke="none" vectornator:layerName="polygon"/>
<path d="M346.656 185.344L202.656 90.6562L86.6562 162.656L341.344 261.344L346.656 185.344Z" fill="url(#LinearGradient_2)" fill-rule="nonzero" opacity="1" stroke="none" vectornator:layerName="polygon"/>
<path d="M222.656 445.344L372 425.344L324 333.344L356 296L358.656 272L202.656 90.6562L56 126.656L56 337.344L140 456L222.656 445.344L222.656 445.344L222.656 445.344Z" fill="url(#LinearGradient_3)" fill-rule="nonzero" opacity="1" stroke="none" vectornator:layerName="polygon"/>
<path d="M122.656 122.656L389.313 122.656L389.313 122.656L389.313 389.313L389.313 389.313L122.656 389.313L122.656 389.313L122.656 122.656L122.656 122.656Z" fill="#000000" fill-rule="nonzero" opacity="1" stroke="none" vectornator:layerName="rect"/>
<path d="M253.344 149.344L280 149.344L308 200L337.344 149.344L362.656 149.344L362.656 269.344L338.656 269.344L338.656 190.656L308 242.656L277.344 192L277.344 269.344L253.344 269.344L253.344 149.344ZM149.344 149.344L198.656 149.344C211.99 149.344 222.656 153.344 230.656 161.344C237.312 168 240.031 177.344 240.031 189.469C240.06 197.928 237.757 206.232 233.375 213.469C229.521 219.978 223.311 224.756 216.031 226.812L242.688 269.469L214.562 269.469L192 232L172 232L172 269.344L148 269.344L148 149.344L149.344 149.344ZM197.344 208C202.128 208.317 206.867 206.897 210.688 204C214.013 200.884 215.94 196.557 216.031 192C216.293 186.984 214.34 182.105 210.688 178.656C206.854 175.793 202.117 174.406 197.344 174.75L173.344 174.75L173.344 209.344L197.344 209.344L197.344 208ZM149.344 345.344L249.344 345.344L249.344 361.344L149.344 361.344L149.344 345.344Z" fill="#ffffff" fill-rule="nonzero" opacity="1" stroke="none" vectornator:layerName="path"/>
</g>
</g>
</svg>
