<?xml version="1.0" encoding="UTF-8"?>
<svg id="Ebene_1" data-name="Ebene 1" xmlns="http://www.w3.org/2000/svg" xmlns:xlink="http://www.w3.org/1999/xlink" viewBox="0 0 256 256">
  <defs>
    <style>
      .cls-1 {
        fill: #fff;
      }

      .cls-2 {
        fill: url(#Unbenannter_Verlauf_2);
      }

      .cls-3 {
        fill: #27282c;
      }

      .cls-4 {
        fill: url(#Unbenannter_Verlauf_3);
      }

      .cls-5 {
        fill: url(#Unbenannter_Verlauf_12);
      }
    </style>
    <linearGradient id="Unbenannter_Verlauf_12" data-name="Unbenannter Verlauf 12" x1="1.42" y1="253.63" x2="1.15" y2="254.4" gradientTransform="translate(-152.4 48663.84) scale(230.4 -191.14)" gradientUnits="userSpaceOnUse">
      <stop offset=".17" stop-color="#ff1f51"/>
      <stop offset=".28" stop-color="#ff3648"/>
      <stop offset=".47" stop-color="#ff593b"/>
      <stop offset=".65" stop-color="#ff7231"/>
      <stop offset=".81" stop-color="#ff812b"/>
      <stop offset=".94" stop-color="#ff8629"/>
    </linearGradient>
    <linearGradient id="Unbenannter_Verlauf_2" data-name="Unbenannter Verlauf 2" x1="1.69" y1="253.23" x2="1.53" y2="252.62" gradientTransform="translate(-158.38 27719.62) scale(166.4 -109.24)" gradientUnits="userSpaceOnUse">
      <stop offset=".02" stop-color="#9039d0"/>
      <stop offset=".63" stop-color="#ff1f51"/>
    </linearGradient>
    <linearGradient id="Unbenannter_Verlauf_3" data-name="Unbenannter Verlauf 3" x1=".96" y1="254.73" x2="1.68" y2="253.94" gradientTransform="translate(-178 59612.1) scale(202.24 -233.82)" gradientUnits="userSpaceOnUse">
      <stop offset=".11" stop-color="#9039d0"/>
      <stop offset=".39" stop-color="#ff1f51"/>
      <stop offset=".63" stop-color="#ff1f51"/>
      <stop offset=".66" stop-color="#ff3648"/>
      <stop offset=".71" stop-color="#ff593b"/>
      <stop offset=".77" stop-color="#ff7231"/>
      <stop offset=".81" stop-color="#ff812b"/>
      <stop offset=".85" stop-color="#ff8629"/>
    </linearGradient>
  </defs>
  <g id="Ebene_2" data-name="Ebene 2">
    <rect class="cls-3" width="256" height="256" rx="35" ry="35"/>
  </g>
  <g>
    <polygon class="cls-5" points="202.25 15.5 138.49 38.76 87.5 15.5 38 140.74 95.01 117.51 94.25 181.24 216.51 183.49 240.5 59.74 202.25 15.5"/>
    <polygon class="cls-2" points="178.99 88.26 97.99 34.99 32.74 75.49 176.01 131.01 178.99 88.26"/>
    <polygon class="cls-4" points="109.24 234.51 193.25 223.26 166.25 171.51 184.25 150.5 185.74 137 97.99 34.99 15.5 55.24 15.5 173.76 62.75 240.5 109.24 234.51 109.24 234.51 109.24 234.51"/>
    <rect x="52.99" y="52.99" width="149.99" height="149.99"/>
    <path class="cls-1" d="m126.51,68.01h14.99l15.75,28.49,16.51-28.49h14.24v67.5h-13.5v-44.26l-17.24,29.25-17.24-28.49v43.51h-13.5v-67.5Zm-58.5,0h27.74c7.5,0,13.5,2.25,18,6.75,3.74,3.74,5.27,9,5.27,15.82.02,4.76-1.28,9.43-3.74,13.5-2.17,3.66-5.66,6.35-9.76,7.51l14.99,23.99h-15.82l-12.69-21.08h-11.25v21.01h-13.5v-67.5h.76Zm27,32.99c2.69.18,5.36-.62,7.51-2.25,1.87-1.75,2.95-4.19,3.01-6.75.15-2.82-.95-5.57-3.01-7.51-2.16-1.61-4.82-2.39-7.51-2.2h-13.5v19.46h13.5v-.76Zm-27,77.26h56.25v9h-56.25v-9Z"/>
  </g>
</svg>