<?xml version="1.0" encoding="UTF-8"?><svg id="a" xmlns="http://www.w3.org/2000/svg" viewBox="0 0 128 128"><defs><style>.b{fill:#ce422b;}.c{fill:#fff;}</style></defs><rect class="b" x="0" y="0" width="128" height="128" rx="25" ry="25" transform="translate(128 0) rotate(90)"/><path class="c" d="m113.32,62.77l-4.2-2.6c-.04-.41-.08-.82-.12-1.22l3.61-3.37c.37-.34.53-.85.43-1.34-.1-.49-.44-.9-.91-1.07l-4.61-1.72c-.12-.4-.24-.8-.36-1.19l2.88-4c.47-.65.32-1.55-.33-2.02-.18-.13-.39-.22-.61-.25l-4.86-.79c-.19-.37-.39-.73-.58-1.09l2.04-4.49c.21-.46.17-.99-.11-1.4-.28-.42-.75-.66-1.25-.64l-4.94.17c-.25-.32-.51-.63-.78-.95l1.13-4.81c.12-.49-.03-1-.39-1.35-.35-.35-.87-.5-1.35-.39l-4.81,1.13c-.31-.26-.63-.52-.95-.78l.17-4.94c.02-.5-.22-.97-.64-1.25-.42-.28-.95-.32-1.4-.11l-4.48,2.04c-.36-.2-.73-.39-1.09-.59l-.79-4.86c-.13-.79-.87-1.32-1.66-1.19-.22.04-.43.12-.61.25l-4,2.88c-.39-.12-.79-.25-1.19-.36l-1.72-4.61c-.17-.47-.58-.82-1.07-.91-.49-.1-1,.07-1.34.43l-3.37,3.61c-.41-.05-.81-.09-1.22-.12l-2.6-4.2c-.42-.68-1.31-.89-1.99-.47-.19.12-.35.28-.47.47l-2.6,4.2c-.41.03-.82.07-1.22.12l-3.37-3.61c-.54-.58-1.46-.62-2.04-.07-.16.15-.29.34-.37.55l-1.72,4.61c-.4.11-.79.24-1.19.36l-4-2.88c-.41-.29-.94-.35-1.4-.16-.46.19-.79.61-.87,1.1l-.79,4.86c-.37.19-.73.39-1.09.59l-4.48-2.04c-.46-.21-.99-.17-1.4.11-.42.28-.66.75-.64,1.25l.17,4.94c-.32.26-.64.52-.95.78l-4.81-1.13c-.49-.11-1,.03-1.35.38-.35.35-.5.87-.39,1.35l1.13,4.81c-.26.31-.52.63-.78.95l-4.94-.17c-.5-.02-.97.23-1.25.64-.28.42-.32.95-.11,1.4l2.04,4.49c-.2.36-.4.72-.59,1.09l-4.86.79c-.79.13-1.32.87-1.19,1.66.04.22.12.43.25.61l2.88,4c-.12.39-.25.79-.36,1.19l-4.61,1.72c-.75.28-1.13,1.11-.85,1.86.08.21.2.4.37.55l3.61,3.36c-.04.41-.08.82-.12,1.22l-4.2,2.6c-.43.26-.68.73-.68,1.23,0,.5.26.97.68,1.23l4.2,2.6c.03.41.07.82.12,1.22l-3.61,3.37c-.58.54-.62,1.46-.07,2.04.15.16.34.29.55.37l4.61,1.72c.11.4.24.8.36,1.19l-2.88,4c-.47.65-.32,1.55.33,2.02.18.13.39.22.62.25l4.86.79c.19.37.39.73.59,1.09l-2.04,4.48c-.21.46-.17.99.11,1.4.28.42.75.66,1.25.64l4.93-.17c.26.32.52.64.78.95l-1.13,4.81c-.12.49.03,1,.39,1.35.35.36.87.5,1.35.38l4.81-1.13c.31.27.63.52.95.78l-.17,4.94c-.03.8.59,1.47,1.39,1.49.22,0,.45-.04.65-.13l4.48-2.04c.36.2.73.4,1.09.59l.79,4.86c.08.49.41.91.87,1.1.46.19.99.13,1.4-.16l4-2.88c.39.13.79.25,1.19.36l1.72,4.61c.17.47.58.81,1.07.91.49.1,1-.06,1.34-.43l3.37-3.61c.41.05.81.09,1.22.12l2.6,4.2c.26.42.73.68,1.23.68.5,0,.96-.26,1.23-.68l2.6-4.2c.41-.04.82-.08,1.22-.12l3.37,3.61c.34.37.85.53,1.34.43.49-.1.9-.44,1.07-.91l1.72-4.61c.4-.11.8-.24,1.19-.36l4,2.88c.65.47,1.55.32,2.02-.33.13-.18.22-.39.25-.61l.79-4.86c.37-.19.73-.39,1.09-.59l4.48,2.04c.72.33,1.58.01,1.91-.71.09-.21.14-.43.13-.66l-.17-4.94c.32-.25.64-.51.95-.78l4.81,1.13c.49.11,1-.03,1.35-.38.35-.35.5-.86.39-1.35l-1.13-4.81c.26-.31.52-.63.78-.95l4.94.17c.5.02.97-.22,1.25-.64.28-.42.32-.95.11-1.4l-2.04-4.48c.2-.36.4-.73.58-1.09l4.86-.79c.49-.08.91-.41,1.1-.87.19-.46.13-.99-.16-1.4l-2.88-4c.12-.39.25-.79.36-1.19l4.61-1.72c.47-.17.81-.58.91-1.07.1-.49-.06-1-.43-1.34l-3.61-3.37c.04-.41.08-.81.12-1.22l4.2-2.6c.43-.26.68-.73.68-1.23,0-.5-.26-.97-.68-1.23h0Zm-28.1,34.83c-1.6-.35-2.62-1.93-2.28-3.53.34-1.61,1.92-2.63,3.52-2.28,1.6.34,2.62,1.93,2.28,3.53-.34,1.61-1.92,2.63-3.53,2.29h0Zm-1.43-9.65c-1.46-.31-2.9.62-3.21,2.08,0,0,0,0,0,0l-1.49,6.96c-4.6,2.09-9.71,3.25-15.09,3.25s-10.72-1.22-15.4-3.39l-1.49-6.96c-.31-1.46-1.75-2.4-3.21-2.08l-6.14,1.32c-1.14-1.17-2.2-2.42-3.17-3.74h29.88c.34,0,.56-.06.56-.37v-10.57c0-.31-.23-.37-.56-.37h-8.74v-6.7h9.45c.86,0,4.61.25,5.81,5.04.38,1.47,1.2,6.27,1.76,7.8.56,1.72,2.85,5.16,5.29,5.16h14.89c.17,0,.35-.02.54-.05-1.03,1.4-2.16,2.73-3.39,3.97l-6.28-1.35h0Zm-41.32,9.5c-1.6.35-3.18-.68-3.53-2.28-.34-1.61.68-3.19,2.28-3.53,1.6-.34,3.18.68,3.53,2.29.34,1.61-.68,3.19-2.28,3.53h0Zm-11.33-45.96c.67,1.5-.01,3.26-1.51,3.92-1.5.67-3.25-.01-3.92-1.51-.67-1.5.01-3.26,1.51-3.92,1.5-.66,3.25.01,3.92,1.51h0Zm-3.48,8.26l6.4-2.84c1.37-.61,1.98-2.21,1.38-3.58l-1.32-2.98h5.18v23.35h-10.45c-.93-3.26-1.4-6.64-1.39-10.03,0-1.33.07-2.64.21-3.93h0Zm28.07-2.27v-6.88h12.34c.64,0,4.5.74,4.5,3.62,0,2.4-2.96,3.26-5.4,3.26h-11.44Zm44.84,6.2c0,.91-.03,1.82-.1,2.71h-3.75c-.38,0-.53.25-.53.61v1.72c0,4.05-2.29,4.94-4.29,5.16-1.91.21-4.02-.8-4.28-1.97-1.13-6.33-3-7.68-5.96-10.02,3.68-2.33,7.5-5.78,7.5-10.39,0-4.98-3.41-8.11-5.74-9.65-3.26-2.15-6.87-2.58-7.85-2.58h-38.79c5.26-5.87,12.39-10.03,20.45-11.54l4.57,4.8c1.03,1.08,2.74,1.12,3.82.09,0,0,0,0,0,0l5.12-4.89c10.72,2,19.8,8.67,25.03,17.83l-3.5,7.91c-.6,1.37.01,2.97,1.38,3.58l6.74,3c.12,1.2.18,2.41.18,3.63h0ZM61.79,23.67c1.18-1.13,3.06-1.09,4.2.1,1.13,1.19,1.09,3.07-.1,4.2-1.18,1.14-3.06,1.09-4.2-.1-1.13-1.19-1.09-3.07.1-4.2h0Zm34.76,27.97c.66-1.5,2.41-2.18,3.91-1.51,0,0,0,0,0,0,1.5.66,2.18,2.42,1.51,3.92-.66,1.5-2.41,2.18-3.91,1.52,0,0,0,0,0,0-1.5-.67-2.17-2.42-1.51-3.92h0Z"/></svg>