<?xml version="1.0" encoding="UTF-8"?>
<svg id="Ebene_1" data-name="Ebene 1" xmlns="http://www.w3.org/2000/svg" xmlns:xlink="http://www.w3.org/1999/xlink" viewBox="0 0 256 256">
  <defs>
    <style>
      .cls-1 {
        fill: #fff;
      }

      .cls-2 {
        fill: url(#Unbenannter_Verlauf_3);
        fill-opacity: .2;
      }

      .cls-3 {
        fill: url(#Unbenannter_Verlauf_2);
      }

      .cls-4 {
        fill: #e2e2e2;
      }

      .cls-5 {
        fill: url(#Unbenannter_Verlauf_8);
      }

      .cls-6 {
        fill: #27282c;
      }

      .cls-7 {
        fill: #cd151e;
      }

      .cls-8 {
        fill: #f3f3f3;
      }

      .cls-9 {
        fill: #acacac;
      }

      .cls-10 {
        fill: #eee;
      }

      .cls-11 {
        fill: #fa5153;
      }
    </style>
    <linearGradient id="Unbenannter_Verlauf_8" data-name="Unbenannter Verlauf 8" x1=".11" y1="255.8" x2=".11" y2="255.89" gradientTransform="translate(-138.94 619751.53) scale(2421.88 -2421.88)" gradientUnits="userSpaceOnUse">
      <stop offset=".25" stop-color="#dbdbda"/>
      <stop offset="1" stop-color="#fff"/>
    </linearGradient>
    <radialGradient id="Unbenannter_Verlauf_2" data-name="Unbenannter Verlauf 2" cx=".08" cy="255.88" fx=".08" fy="255.88" r=".05" gradientTransform="translate(-48.12 573342.34) scale(2240.23 -2240.23)" gradientUnits="userSpaceOnUse">
      <stop offset="0" stop-color="#2abce1"/>
      <stop offset=".11" stop-color="#2abbe1"/>
      <stop offset="1" stop-color="#3375f8"/>
    </radialGradient>
    <linearGradient id="Unbenannter_Verlauf_3" data-name="Unbenannter Verlauf 3" x1=".08" y1="255.88" x2=".06" y2="255.85" gradientTransform="translate(-41.49 573341.39) scale(2240.23 -2240.23)" gradientUnits="userSpaceOnUse">
      <stop offset="0" stop-color="#000" stop-opacity="0"/>
      <stop offset="1" stop-color="#000"/>
    </linearGradient>
  </defs>
  <g id="Ebene_2" data-name="Ebene 2">
    <path class="cls-6" d="m45,0h166c24.85,0,45,20.15,45,45v166c0,24.85-20.15,45-45,45H45c-24.85,0-45-20.15-45-45V45C0,20.15,20.15,0,45,0Z"/>
  </g>
  <g>
    <circle class="cls-5" cx="128" cy="128" r="100"/>
    <circle class="cls-3" cx="128" cy="128" r="92.5"/>
    <g>
      <path class="cls-8" d="m128.16,58c-.63,0-1.17-.47-1.17-1.09v-16.33c0-.63.55-1.09,1.17-1.09s1.17.47,1.17,1.09v16.33c-.08.62-.55,1.09-1.17,1.09h0Z"/>
      <path class="cls-1" d="m128.16,58.08c-.7,0-1.25-.55-1.25-1.17v-16.33c0-.63.55-1.17,1.25-1.17s1.25.55,1.25,1.17v16.33c0,.62-.63,1.17-1.25,1.17Zm0-18.52c-.55,0-1.09.47-1.09,1.02v16.33c0,.55.47,1.02,1.09,1.02.55,0,1.09-.47,1.09-1.02v-16.33c-.08-.55-.55-1.02-1.09-1.02Z"/>
      <path class="cls-8" d="m135.97,49.25c-.63-.08-1.09-.55-1.09-1.17l.55-7.27c.08-.62.63-1.09,1.25-1.02s1.09.55,1.09,1.17l-.55,7.27c-.08.62-.63,1.09-1.25,1.02h0Z"/>
      <path class="cls-1" d="m135.97,49.33c-.7-.08-1.17-.62-1.17-1.25l.55-7.27c.08-.62.63-1.17,1.33-1.09.7.08,1.17.63,1.17,1.25l-.55,7.27c-.08.7-.63,1.17-1.33,1.09Zm.7-9.45c-.55,0-1.09.39-1.09.94l-.55,7.27c0,.55.39,1.02,1.02,1.09.55,0,1.09-.39,1.09-.94l.55-7.27c0-.55-.47-1.02-1.02-1.09h0Z"/>
      <path class="cls-8" d="m141.83,59.41c-.63-.16-1.02-.7-.94-1.33l3.2-16.02c.16-.62.7-1.02,1.33-.86.62.16,1.02.7.94,1.33l-3.2,16.02c-.08.55-.7.94-1.33.86h0Z"/>
      <path class="cls-1" d="m141.83,59.48c-.7-.16-1.09-.78-1.02-1.41l3.2-16.02c.16-.62.78-1.09,1.48-.94.7.16,1.09.78,1.02,1.41l-3.2,16.02c-.16.62-.78,1.02-1.48.94Zm3.67-18.2c-.55-.08-1.09.23-1.25.78l-3.2,16.02c-.08.55.23,1.09.86,1.25.55.08,1.09-.24,1.25-.78l3.2-16.02c.08-.62-.31-1.09-.86-1.25Z"/>
      <path class="cls-8" d="m151.2,52.38c-.63-.15-1.01-.78-.86-1.4,0,0,0,0,0,0l1.95-7.03c.16-.62.78-.94,1.41-.78s1.02.78.86,1.41l-1.95,7.03c-.16.62-.78.94-1.41.78h0Z"/>
      <path class="cls-1" d="m151.2,52.45c-.62-.16-1.09-.86-.86-1.48l1.95-7.03c.16-.62.86-1.02,1.48-.86s1.09.86.86,1.48l-1.95,7.03c-.16.62-.78,1.02-1.48.86h0Zm2.58-9.14c-.55-.16-1.17.16-1.33.7l-1.95,7.03c-.16.55.16,1.09.78,1.25.55.16,1.17-.16,1.33-.7l1.95-7.03c.08-.55-.23-1.09-.78-1.25h0Z"/>
      <path class="cls-8" d="m155.03,63.39c-.62-.23-.86-.94-.62-1.48l6.25-15.08c.23-.55.94-.86,1.48-.55.63.23.86.94.63,1.48l-6.25,15.08c-.23.55-.94.86-1.48.55h0Z"/>
      <path class="cls-1" d="m155.03,63.47c-.63-.24-.94-.94-.7-1.56l6.25-15.08c.23-.62.94-.86,1.64-.62.63.24.94.94.7,1.56l-6.25,15.08c-.31.63-1.02.94-1.64.63Zm7.11-17.11c-.55-.23-1.17,0-1.41.55l-6.25,15.08c-.23.55.08,1.09.62,1.33.55.23,1.17,0,1.41-.55l6.25-15.08c.16-.47-.08-1.09-.62-1.33h0Z"/>
      <path class="cls-8" d="m165.58,58.39c-.55-.31-.78-.94-.55-1.48l3.28-6.48c.31-.55.94-.78,1.56-.47.55.31.78.94.55,1.48l-3.28,6.48c-.31.55-.94.78-1.56.47h0Z"/>
      <path class="cls-1" d="m165.58,58.47c-.63-.31-.86-1.02-.55-1.64l3.28-6.48c.31-.63,1.02-.86,1.64-.55.62.31.86,1.02.55,1.64l-3.28,6.48c-.31.62-1.02.86-1.64.55h0Zm4.3-8.52c-.55-.23-1.17-.08-1.41.47l-3.28,6.48c-.23.47,0,1.09.47,1.41.55.23,1.17.08,1.41-.47l3.28-6.48c.23-.47,0-1.09-.47-1.41Z"/>
      <path class="cls-8" d="m167.14,69.95c-.55-.39-.7-1.09-.31-1.56l9.06-13.52c.31-.55,1.02-.62,1.56-.31.55.39.7,1.09.31,1.56l-9.06,13.52c-.31.55-1.02.7-1.56.31Z"/>
      <path class="cls-1" d="m167.14,70.03c-.55-.39-.7-1.17-.39-1.72l9.06-13.52c.39-.55,1.09-.7,1.72-.31.55.39.7,1.17.39,1.72l-9.06,13.52c-.39.55-1.17.7-1.72.31Zm10.31-15.39c-.47-.31-1.17-.23-1.48.23l-9.06,13.52c-.31.47-.16,1.09.31,1.41.47.31,1.17.23,1.48-.23l9.06-13.44c.31-.47.16-1.17-.31-1.48h0Z"/>
      <path class="cls-8" d="m178.55,67.06c-.47-.39-.62-1.09-.23-1.56l4.53-5.7c.39-.47,1.09-.55,1.56-.16.47.39.62,1.09.23,1.56l-4.53,5.7c-.39.47-1.09.55-1.56.16h0Z"/>
      <path class="cls-1" d="m178.47,67.14c-.55-.39-.62-1.17-.23-1.72l4.53-5.7c.39-.55,1.17-.63,1.72-.16.55.39.62,1.17.23,1.72l-4.53,5.7c-.39.55-1.17.63-1.72.16Zm5.86-7.42c-.47-.39-1.09-.31-1.48.16l-4.53,5.7c-.31.47-.23,1.09.23,1.48.47.39,1.09.31,1.48-.16l4.53-5.7c.31-.47.23-1.17-.23-1.48h0Z"/>
      <path class="cls-8" d="m177.77,78.78c-.47-.47-.47-1.17,0-1.56l11.56-11.48c.47-.47,1.17-.39,1.56,0,.39.39.47,1.17,0,1.56l-11.48,11.48c-.47.47-1.17.47-1.64,0Z"/>
      <path class="cls-1" d="m177.69,78.86c-.47-.48-.47-1.24,0-1.72l11.56-11.48c.48-.47,1.24-.47,1.72,0,.47.48.47,1.24,0,1.72l-11.56,11.48c-.48.47-1.24.47-1.72,0h0Zm13.2-13.13c-.39-.39-1.09-.39-1.48,0l-11.56,11.48c-.39.39-.39,1.09,0,1.48.39.39,1.09.39,1.48,0l11.56-11.48c.39-.39.39-1.02,0-1.48h0Z"/>
      <path class="cls-8" d="m189.48,78.16c-.39-.47-.39-1.17.08-1.56l5.55-4.69c.47-.39,1.17-.31,1.56.16.39.47.39,1.17-.08,1.56l-5.55,4.69c-.47.39-1.17.31-1.56-.16Z"/>
      <path class="cls-1" d="m189.41,78.23c-.47-.55-.39-1.33.08-1.72l5.55-4.69c.47-.47,1.25-.39,1.72.16.47.55.39,1.33-.08,1.72l-5.55,4.69c-.47.47-1.25.39-1.72-.16h0Zm7.19-6.17c-.39-.47-1.02-.47-1.48-.16l-5.55,4.69c-.39.39-.47,1.02-.08,1.48s1.02.47,1.48.16l5.55-4.69c.47-.39.47-1.02.08-1.48Z"/>
      <path class="cls-8" d="m186.36,89.41c-.39-.55-.23-1.25.31-1.56l13.59-9.06c.55-.31,1.25-.16,1.56.31.39.55.23,1.25-.31,1.56l-13.59,9.06c-.47.31-1.17.16-1.56-.31Z"/>
      <path class="cls-1" d="m186.28,89.41c-.39-.55-.23-1.33.31-1.72l13.59-9.06c.55-.39,1.33-.23,1.72.39.39.55.23,1.33-.31,1.72l-13.59,9.06c-.55.39-1.33.23-1.72-.39h0Zm15.47-10.23c-.31-.47-.94-.63-1.41-.31l-13.59,9.06c-.47.31-.62.94-.23,1.48.31.47.94.63,1.41.31l13.59-9.06c.47-.39.55-1.02.23-1.48h0Z"/>
      <path class="cls-8" d="m198,91.05c-.31-.55-.16-1.25.39-1.56l6.33-3.59c.55-.31,1.25-.08,1.56.47.31.55.16,1.25-.39,1.56l-6.33,3.59c-.55.31-1.25.08-1.56-.47h0Z"/>
      <path class="cls-1" d="m197.92,91.12c-.31-.63-.16-1.33.39-1.64l6.33-3.59c.55-.31,1.33-.08,1.64.47.31.63.16,1.33-.39,1.64l-6.33,3.59c-.55.31-1.33.08-1.64-.47h0Zm8.28-4.69c-.31-.55-.94-.7-1.41-.39l-6.33,3.59c-.47.31-.62.94-.39,1.41.31.55.94.7,1.41.39l6.33-3.59c.47-.23.62-.86.39-1.41Z"/>
      <path class="cls-8" d="m192.77,101.44c-.23-.63,0-1.25.62-1.48l15.08-6.25c.55-.23,1.25.08,1.48.62.23.63,0,1.25-.62,1.48l-15.08,6.25c-.55.23-1.25,0-1.48-.62Z"/>
      <path class="cls-1" d="m192.69,101.52c-.23-.62,0-1.33.62-1.64l15.08-6.25c.63-.24,1.32.08,1.56.7.23.63,0,1.33-.62,1.64l-15.08,6.25c-.63.24-1.32-.08-1.56-.7h0Zm17.11-7.11c-.23-.55-.86-.78-1.33-.63l-15.08,6.25c-.55.23-.78.86-.55,1.41.23.55.86.78,1.33.63l15.08-6.25c.55-.23.78-.86.55-1.41Z"/>
      <path class="cls-8" d="m203.78,105.34c-.23-.63.08-1.25.7-1.48l6.87-2.27c.55-.23,1.25.16,1.41.7.23.63-.08,1.25-.7,1.48l-6.87,2.27c-.55.23-1.17-.08-1.41-.7h0Z"/>
      <path class="cls-1" d="m203.7,105.42c-.23-.63.08-1.33.78-1.56l6.87-2.27c.62-.23,1.33.16,1.56.78.23.62-.08,1.33-.78,1.56l-6.87,2.27c-.62.16-1.33-.16-1.56-.78Zm9.06-2.97c-.16-.55-.78-.86-1.33-.7l-6.87,2.27c-.55.16-.78.78-.62,1.33.16.55.78.86,1.33.7l6.87-2.27c.55-.23.78-.78.62-1.33h0Z"/>
      <path class="cls-8" d="m196.75,114.64c-.16-.63.23-1.25.86-1.33l16.02-3.12c.62-.16,1.17.31,1.33.94.16.63-.23,1.25-.86,1.33l-16.02,3.12c-.62.08-1.25-.31-1.33-.94h0Z"/>
      <path class="cls-1" d="m196.59,114.64c-.16-.7.31-1.33.94-1.48l16.02-3.12c.62-.16,1.25.31,1.41,1.02.16.7-.31,1.33-.94,1.48l-16.02,3.12c-.62.16-1.25-.31-1.41-1.02h0Zm18.2-3.52c-.08-.55-.62-.94-1.17-.86l-16.02,3.12c-.55.08-.94.7-.78,1.25.08.55.62.94,1.17.86l16.02-3.12c.55-.16.94-.7.78-1.25h0Z"/>
      <path class="cls-8" d="m206.75,120.66c-.08-.63.31-1.17.94-1.25l7.19-.86c.62-.08,1.17.39,1.25,1.02.08.63-.31,1.17-.94,1.25l-7.19.86c-.55.08-1.17-.39-1.25-1.02h0Z"/>
      <path class="cls-1" d="m206.67,120.66c-.08-.7.39-1.33,1.02-1.41l7.19-.86c.62-.08,1.25.39,1.33,1.09s-.39,1.33-1.02,1.41l-7.19.86c-.62.08-1.25-.39-1.33-1.09h0Zm9.45-1.09c-.08-.55-.62-1.02-1.17-.94l-7.19.86c-.55.08-.94.63-.86,1.17s.62,1.02,1.17.94l7.19-.86c.55-.08.94-.63.86-1.17h0Z"/>
      <path class="cls-8" d="m198,128.23c0-.63.47-1.17,1.09-1.17h16.33c.62,0,1.09.55,1.09,1.17s-.47,1.17-1.09,1.17h-16.33c-.62,0-1.09-.55-1.09-1.17Z"/>
      <path class="cls-1" d="m197.92,128.23c0-.7.55-1.25,1.17-1.25h16.33c.62,0,1.17.55,1.17,1.25s-.55,1.25-1.17,1.25h-16.33c-.62,0-1.17-.55-1.17-1.25Zm18.52.08c0-.55-.47-1.09-1.02-1.09h-16.33c-.55,0-1.02.47-1.02,1.09,0,.55.47,1.09,1.02,1.09h16.33c.55-.08,1.02-.55,1.02-1.09h0Z"/>
      <path class="cls-8" d="m206.67,136.13c.08-.63.55-1.09,1.17-1.09l7.27.55c.62.08,1.09.63,1.01,1.25-.08.63-.55,1.09-1.17,1.09l-7.27-.55c-.55-.08-1.02-.63-1.02-1.25h0Z"/>
      <path class="cls-1" d="m206.59,136.13c.08-.7.62-1.17,1.25-1.17l7.27.55c.62.08,1.17.63,1.09,1.33-.08.7-.62,1.17-1.25,1.17l-7.27-.55c-.62-.08-1.09-.7-1.09-1.33h0Zm9.53.7c.08-.55-.39-1.09-.94-1.09l-7.27-.55c-.55,0-1.02.39-1.09,1.02-.08.55.39,1.09.94,1.09l7.27.55c.55,0,1.02-.47,1.09-1.02Z"/>
      <path class="cls-8" d="m196.59,141.83c.16-.62.7-1.02,1.33-.94l16.02,3.2c.62.16,1.02.7.86,1.33s-.7,1.02-1.33.94l-16.02-3.2c-.55-.08-.94-.7-.86-1.33h0Z"/>
      <path class="cls-1" d="m196.52,141.83c.16-.7.78-1.09,1.41-1.02l16.02,3.2c.62.16,1.09.78.94,1.48-.16.7-.78,1.09-1.41,1.02l-16.02-3.2c-.62-.16-1.02-.78-.94-1.48h0Zm18.2,3.67c.08-.55-.23-1.09-.78-1.25l-16.02-3.2c-.55-.08-1.09.23-1.25.86-.08.55.23,1.09.78,1.25l16.02,3.2c.62.08,1.09-.31,1.25-.86Z"/>
      <path class="cls-8" d="m203.63,151.2c.15-.63.78-1.01,1.41-.86,0,0,0,0,0,0l7.03,1.95c.62.16.94.78.78,1.41-.15.63-.78,1.01-1.4.86,0,0,0,0,0,0l-7.03-1.95c-.62-.16-.94-.78-.78-1.41h0Z"/>
      <path class="cls-1" d="m203.55,151.2c.16-.62.86-1.09,1.48-.86l7.03,1.95c.62.16,1.02.86.86,1.48-.16.62-.86,1.09-1.48.86l-7.03-1.95c-.62-.16-1.02-.78-.86-1.48h0Zm9.14,2.58c.16-.55-.16-1.17-.7-1.33l-7.03-1.95c-.55-.16-1.09.16-1.25.78-.16.55.16,1.17.7,1.33l7.03,1.95c.55.08,1.09-.23,1.25-.78Z"/>
      <path class="cls-8" d="m192.61,154.95c.23-.62.94-.86,1.48-.62l15.08,6.25c.55.23.86.94.62,1.48-.23.63-.94.86-1.48.63l-15.08-6.25c-.62-.23-.86-.94-.62-1.48h0Z"/>
      <path class="cls-1" d="m192.53,154.88c.24-.63.94-.94,1.56-.7l15.08,6.25c.62.23.86.94.62,1.64-.24.63-.94.94-1.56.7l-15.08-6.25c-.62-.31-.86-1.02-.62-1.64Zm17.11,7.11c.23-.55,0-1.17-.55-1.41l-15.08-6.25c-.55-.23-1.09.08-1.33.62-.23.55,0,1.17.55,1.41l15.08,6.25c.55.16,1.17-.08,1.33-.62Z"/>
      <path class="cls-8" d="m197.69,165.5c.31-.55.94-.78,1.48-.55l6.48,3.28c.55.23.78.94.47,1.56-.31.55-.94.78-1.48.55l-6.48-3.28c-.55-.31-.78-1.02-.47-1.56Z"/>
      <path class="cls-1" d="m197.61,165.42c.31-.62,1.02-.86,1.64-.55l6.48,3.28c.62.31.86,1.02.55,1.64-.31.62-1.02.86-1.64.55l-6.48-3.28c-.63-.23-.86-1.02-.55-1.64Zm8.44,4.3c.23-.55.08-1.17-.47-1.41l-6.48-3.28c-.47-.23-1.09,0-1.41.47-.23.55-.08,1.17.47,1.41l6.48,3.28c.55.23,1.17.08,1.41-.47h0Z"/>
      <path class="cls-8" d="m186.2,166.98c.39-.55,1.02-.7,1.56-.31l13.59,9.06c.55.31.62,1.02.31,1.56-.39.55-1.02.7-1.56.31l-13.59-9.06c-.55-.39-.7-1.09-.31-1.56Z"/>
      <path class="cls-1" d="m186.12,166.91c.39-.55,1.17-.7,1.72-.39l13.59,9.06c.55.39.7,1.09.31,1.72-.39.55-1.17.7-1.72.39l-13.59-9.06c-.62-.39-.7-1.17-.31-1.72Zm15.39,10.31c.31-.47.23-1.17-.23-1.48l-13.59-9.06c-.47-.31-1.09-.16-1.41.31-.31.47-.23,1.17.23,1.48l13.59,9.06c.47.31,1.09.16,1.41-.31h0Z"/>
      <path class="cls-8" d="m189.09,178.31c.39-.47,1.09-.62,1.56-.23l5.7,4.45c.47.39.55,1.09.16,1.56-.39.47-1.09.62-1.56.23l-5.7-4.45c-.47-.39-.55-1.09-.16-1.56Z"/>
      <path class="cls-1" d="m189.02,178.23c.39-.55,1.17-.62,1.72-.23l5.7,4.45c.55.39.62,1.17.23,1.72-.39.55-1.17.62-1.72.23l-5.7-4.45c-.55-.39-.62-1.17-.23-1.72Zm7.5,5.86c.39-.47.31-1.09-.16-1.48l-5.7-4.45c-.47-.31-1.09-.23-1.48.23-.39.47-.31,1.09.16,1.48l5.7,4.45c.47.31,1.09.23,1.48-.23h0Z"/>
      <path class="cls-8" d="m177.45,177.53c.47-.47,1.17-.47,1.56,0l11.56,11.48c.47.47.39,1.17,0,1.56-.47.47-1.17.47-1.56,0l-11.56-11.48c-.39-.39-.39-1.17,0-1.56h0Z"/>
      <path class="cls-1" d="m177.45,177.45c.48-.47,1.24-.47,1.72,0l11.56,11.48c.47.48.47,1.24,0,1.72-.48.47-1.24.47-1.72,0l-11.56-11.48c-.55-.47-.55-1.25,0-1.72h0Zm13.12,13.05c.39-.39.39-1.09,0-1.48l-11.56-11.48c-.39-.39-1.09-.39-1.48,0-.39.39-.39,1.09,0,1.48l11.56,11.48c.39.47,1.02.47,1.48,0h0Z"/>
      <path class="cls-8" d="m178.16,189.17c.47-.39,1.17-.39,1.56.08l4.77,5.47c.39.47.31,1.17-.16,1.56-.47.39-1.17.39-1.56-.08l-4.77-5.47c-.39-.39-.31-1.09.16-1.56Z"/>
      <path class="cls-1" d="m178.08,189.17c.55-.47,1.25-.39,1.72.08l4.77,5.47c.47.47.39,1.25-.16,1.72-.55.47-1.25.39-1.72-.08l-4.77-5.47c-.39-.55-.39-1.33.16-1.72h0Zm6.25,7.11c.47-.39.47-1.02.16-1.48l-4.77-5.47c-.39-.39-1.02-.47-1.48-.08-.47.39-.47,1.02-.16,1.48l4.77,5.47c.39.47,1.02.47,1.48.08h0Z"/>
      <path class="cls-8" d="m166.91,186.2c.55-.39,1.25-.23,1.56.31l9.06,13.52c.31.55.16,1.25-.31,1.56-.55.39-1.25.23-1.56-.31l-9.06-13.52c-.31-.55-.16-1.25.31-1.56h0Z"/>
      <path class="cls-1" d="m166.91,186.13c.55-.39,1.33-.23,1.72.31l9.06,13.52c.39.55.23,1.33-.39,1.72-.55.39-1.33.23-1.72-.31l-9.06-13.52c-.39-.62-.23-1.33.39-1.72h0Zm10.31,15.39c.47-.31.62-.94.31-1.41l-9.06-13.52c-.31-.47-.94-.55-1.48-.23-.47.31-.63.94-.31,1.41l9.06,13.52c.31.39,1.02.55,1.48.23h0Z"/>
      <path class="cls-8" d="m165.27,197.77c.55-.31,1.25-.16,1.56.39l3.59,6.33c.31.55.08,1.25-.47,1.56-.55.31-1.25.16-1.56-.39l-3.59-6.33c-.23-.55-.08-1.25.47-1.56h0Z"/>
      <path class="cls-1" d="m165.27,197.69c.62-.31,1.33-.16,1.64.39l3.59,6.33c.31.55.16,1.33-.47,1.64-.63.31-1.33.16-1.64-.39l-3.59-6.33c-.31-.55-.16-1.25.47-1.64h0Zm4.69,8.28c.47-.31.7-.94.39-1.41l-3.59-6.33c-.31-.47-.94-.62-1.41-.39-.47.31-.7.94-.39,1.41l3.59,6.33c.23.47.94.7,1.41.39h0Z"/>
      <path class="cls-8" d="m154.87,192.61c.62-.23,1.25,0,1.48.55l6.33,15.08c.23.55-.08,1.25-.62,1.48-.55.23-1.25,0-1.48-.55l-6.33-15.08c-.23-.55.08-1.25.62-1.48h0Z"/>
      <path class="cls-1" d="m154.87,192.53c.62-.23,1.33,0,1.64.62l6.33,15.08c.24.63-.08,1.32-.7,1.56-.62.23-1.33,0-1.64-.62l-6.33-15.08c-.23-.55.08-1.25.7-1.56h0Zm7.11,17.11c.55-.23.78-.86.55-1.33l-6.33-15.08c-.23-.55-.86-.78-1.41-.55-.55.23-.78.86-.55,1.33l6.33,15.08c.31.55.86.78,1.41.55Z"/>
      <path class="cls-8" d="m151.05,203.7c.63-.23,1.25.08,1.48.7l2.27,6.87c.23.55-.16,1.25-.7,1.41-.62.23-1.25-.08-1.48-.7l-2.27-6.87c-.23-.55.08-1.17.7-1.41h0Z"/>
      <path class="cls-1" d="m150.97,203.62c.63-.24,1.32.08,1.56.7l2.27,6.87c.23.62-.16,1.33-.78,1.56-.63.24-1.32-.08-1.56-.7l-2.27-6.87c-.16-.62.16-1.33.78-1.56h0Zm3.05,8.98c.55-.16.86-.78.7-1.33l-2.27-6.87c-.16-.55-.78-.78-1.33-.62-.55.16-.86.78-.7,1.33l2.27,6.87c.16.52.71.82,1.23.66.03-.01.07-.02.1-.04h0Z"/>
      <path class="cls-8" d="m141.83,196.59c.62-.16,1.25.23,1.33.86l3.28,16.02c.16.62-.31,1.17-.94,1.33-.62.16-1.25-.23-1.33-.86l-3.28-16.02c-.08-.55.31-1.17.94-1.33h0Z"/>
      <path class="cls-1" d="m141.83,196.52c.7-.16,1.33.31,1.48.94l3.28,16.02c.16.62-.31,1.33-.94,1.41-.7.16-1.33-.31-1.48-.94l-3.28-16.02c-.16-.62.24-1.25.94-1.41h0Zm3.67,18.2c.55-.08.94-.62.86-1.25l-3.28-16.02c-.08-.55-.7-.94-1.25-.78-.55.08-.94.62-.86,1.25l3.28,16.02c.16.55.7.86,1.25.78h0Z"/>
      <path class="cls-8" d="m135.89,206.75c.63-.08,1.17.31,1.33.94l.94,7.19c.08.62-.39,1.17-1.02,1.25-.62.08-1.17-.31-1.33-.94l-.94-7.19c-.08-.62.39-1.17,1.02-1.25Z"/>
      <path class="cls-1" d="m135.89,206.67c.7-.08,1.33.39,1.41,1.02l.94,7.19c.08.62-.39,1.25-1.09,1.33s-1.33-.39-1.41-1.02l-.94-7.19c-.08-.62.39-1.25,1.09-1.33Zm1.17,9.38c.55-.08,1.02-.62.94-1.17l-.94-7.19c-.08-.55-.63-.94-1.17-.86s-1.02.62-.94,1.17l.94,7.19c.08.55.63.94,1.17.86Z"/>
      <path class="cls-8" d="m127.84,198c.63,0,1.17.47,1.17,1.09v16.33c0,.62-.55,1.09-1.17,1.09s-1.17-.47-1.17-1.09v-16.33c.08-.62.55-1.09,1.17-1.09Z"/>
      <path class="cls-1" d="m127.84,197.92c.7,0,1.25.55,1.25,1.17v16.33c0,.62-.55,1.17-1.25,1.17s-1.25-.55-1.25-1.17v-16.33c0-.62.63-1.17,1.25-1.17Zm0,18.52c.55,0,1.09-.47,1.09-1.02v-16.33c0-.55-.47-1.02-1.09-1.02-.55,0-1.09.47-1.09,1.02v16.33c.08.55.55,1.02,1.09,1.02Z"/>
      <path class="cls-8" d="m120.03,206.75c.63.08,1.09.55,1.09,1.17l-.55,7.27c-.08.62-.63,1.09-1.25,1.02-.63-.08-1.09-.55-1.09-1.17l.55-7.27c.08-.62.63-1.09,1.25-1.02Z"/>
      <path class="cls-1" d="m120.03,206.67c.7.08,1.17.62,1.17,1.25l-.55,7.27c-.08.62-.63,1.17-1.33,1.09-.7-.08-1.17-.62-1.17-1.25l.55-7.27c.08-.7.63-1.17,1.33-1.09Zm-.7,9.45c.55,0,1.09-.39,1.09-.94l.55-7.27c0-.55-.39-1.02-1.02-1.09-.55,0-1.09.39-1.09.94l-.55,7.27c0,.55.47,1.02,1.02,1.09h0Z"/>
      <path class="cls-8" d="m114.17,196.59c.63.16,1.02.7.94,1.33l-3.2,16.02c-.16.62-.7,1.02-1.33.86-.63-.16-1.02-.7-.94-1.33l3.2-16.02c.08-.55.7-.94,1.33-.86Z"/>
      <path class="cls-1" d="m114.17,196.52c.7.16,1.09.78,1.02,1.41l-3.2,16.02c-.16.62-.78,1.09-1.48.94-.7-.16-1.09-.78-1.02-1.41l3.2-16.02c.16-.62.78-1.02,1.48-.94h0Zm-3.67,18.2c.55.08,1.09-.23,1.25-.78l3.2-16.02c.08-.55-.23-1.09-.86-1.25-.55-.08-1.09.23-1.25.78l-3.2,16.01c-.08.62.31,1.09.86,1.25Z"/>
      <path class="cls-8" d="m104.8,203.62c.63.16,1.02.78.86,1.41l-1.95,7.03c-.16.62-.78.94-1.41.78-.63-.15-1.01-.78-.86-1.4h0s1.95-7.03,1.95-7.03c.16-.62.78-.94,1.41-.78h0Z"/>
      <path class="cls-1" d="m104.8,203.55c.63.16,1.09.86.86,1.48l-1.95,7.03c-.16.62-.86,1.02-1.48.86-.63-.16-1.09-.86-.86-1.48l1.95-7.03c.16-.62.78-1.02,1.48-.86h0Zm-2.58,9.14c.55.16,1.17-.16,1.33-.7l1.95-7.03c.16-.55-.16-1.09-.78-1.25-.55-.16-1.17.16-1.33.7l-1.95,7.03c-.08.55.23,1.09.78,1.25Z"/>
      <path class="cls-8" d="m100.97,192.61c.63.23.86.94.63,1.48l-6.25,15.08c-.23.55-.94.86-1.48.55-.55-.31-.86-.94-.63-1.48l6.25-15.08c.23-.55.94-.86,1.48-.55h0Z"/>
      <path class="cls-1" d="m100.97,192.53c.63.24.94.94.7,1.56l-6.25,15.08c-.23.62-.94.86-1.64.62-.62-.24-.94-.94-.7-1.56l6.25-15.08c.31-.62,1.02-.94,1.64-.62Zm-7.11,17.11c.55.23,1.17,0,1.41-.55l6.25-15.08c.23-.55-.08-1.09-.63-1.33-.55-.23-1.17,0-1.41.55l-6.25,15.08c-.16.47.08,1.09.63,1.33Z"/>
      <path class="cls-8" d="m90.42,197.61c.55.31.78.94.55,1.48l-3.28,6.48c-.31.55-.94.78-1.56.47-.55-.31-.78-.94-.55-1.48l3.28-6.48c.31-.55.94-.78,1.56-.47Z"/>
      <path class="cls-1" d="m90.42,197.53c.63.31.86,1.02.55,1.64l-3.28,6.48c-.31.62-1.02.86-1.64.55-.63-.31-.86-1.02-.55-1.64l3.28-6.48c.31-.63,1.02-.86,1.64-.55Zm-4.3,8.52c.55.23,1.17.08,1.41-.47l3.28-6.48c.23-.47,0-1.09-.47-1.41-.55-.23-1.17-.08-1.41.47l-3.28,6.48c-.23.47,0,1.09.47,1.41h0Z"/>
      <path class="cls-8" d="m88.86,186.05c.55.39.7,1.09.31,1.56l-9.06,13.52c-.31.55-1.02.62-1.56.31-.55-.39-.7-1.09-.31-1.56l9.06-13.52c.31-.55,1.02-.7,1.56-.31h0Z"/>
      <path class="cls-1" d="m88.86,185.97c.55.39.7,1.17.39,1.72l-9.06,13.52c-.39.55-1.09.7-1.72.31-.55-.39-.7-1.17-.39-1.72l9.06-13.52c.39-.55,1.17-.7,1.72-.31h0Zm-10.31,15.39c.47.31,1.17.23,1.48-.23l9.06-13.52c.31-.47.16-1.09-.31-1.41-.47-.31-1.17-.23-1.48.23l-9.06,13.44c-.31.47-.16,1.17.31,1.48h0Z"/>
      <path class="cls-8" d="m77.45,188.94c.47.39.63,1.09.23,1.56l-4.53,5.7c-.39.47-1.09.55-1.56.16s-.63-1.09-.23-1.56l4.53-5.7c.39-.47,1.09-.55,1.56-.16Z"/>
      <path class="cls-1" d="m77.53,188.86c.55.39.63,1.17.23,1.72l-4.53,5.7c-.39.55-1.17.62-1.72.16-.55-.39-.63-1.17-.23-1.72l4.53-5.7c.39-.55,1.17-.62,1.72-.16Zm-5.86,7.42c.47.39,1.09.31,1.48-.16l4.53-5.7c.31-.47.23-1.09-.23-1.48-.47-.39-1.09-.31-1.48.16l-4.53,5.7c-.31.47-.23,1.17.23,1.48h0Z"/>
      <path class="cls-8" d="m78.23,177.22c.47.47.47,1.17,0,1.56l-11.56,11.48c-.47.47-1.17.39-1.56,0-.39-.39-.47-1.17,0-1.56l11.48-11.48c.47-.47,1.17-.47,1.64,0Z"/>
      <path class="cls-1" d="m78.31,177.14c.47.48.47,1.24,0,1.72l-11.56,11.49c-.48.47-1.24.47-1.72,0-.47-.48-.47-1.24,0-1.72l11.56-11.48c.48-.47,1.24-.47,1.72,0Zm-13.2,13.12c.39.39,1.09.39,1.48,0l11.56-11.48c.39-.39.39-1.09,0-1.48-.39-.39-1.09-.39-1.48,0l-11.56,11.48c-.39.39-.39,1.02,0,1.48h0Z"/>
      <path class="cls-8" d="m66.52,177.84c.39.47.39,1.17-.08,1.56l-5.55,4.69c-.47.39-1.17.31-1.56-.16-.39-.47-.39-1.17.08-1.56l5.55-4.69c.47-.39,1.17-.31,1.56.16Z"/>
      <path class="cls-1" d="m66.59,177.77c.47.55.39,1.33-.08,1.72l-5.55,4.69c-.47.47-1.25.39-1.72-.16-.47-.55-.39-1.33.08-1.72l5.55-4.69c.47-.47,1.25-.39,1.72.16h0Zm-7.19,6.17c.39.47,1.02.47,1.48.16l5.55-4.69c.39-.39.47-1.02.08-1.48-.39-.47-1.02-.47-1.48-.16l-5.55,4.69c-.47.39-.47,1.02-.08,1.48h0Z"/>
      <path class="cls-8" d="m69.64,166.59c.39.55.23,1.25-.31,1.56l-13.59,9.06c-.55.31-1.25.16-1.56-.31-.39-.55-.23-1.25.31-1.56l13.59-9.06c.47-.31,1.17-.16,1.56.31h0Z"/>
      <path class="cls-1" d="m69.72,166.59c.39.55.23,1.33-.31,1.72l-13.59,9.06c-.55.39-1.33.23-1.72-.39-.39-.55-.23-1.33.31-1.72l13.59-9.06c.55-.39,1.33-.23,1.72.39h0Zm-15.47,10.23c.31.47.94.62,1.41.31l13.59-9.06c.47-.31.63-.94.23-1.48-.31-.47-.94-.62-1.41-.31l-13.59,9.06c-.47.39-.55,1.02-.23,1.48h0Z"/>
      <path class="cls-8" d="m58,164.95c.31.55.16,1.25-.39,1.56l-6.33,3.59c-.55.31-1.25.08-1.56-.47-.31-.55-.16-1.25.39-1.56l6.33-3.59c.55-.31,1.25-.08,1.56.47h0Z"/>
      <path class="cls-1" d="m58.08,164.87c.31.62.16,1.33-.39,1.64l-6.33,3.59c-.55.31-1.33.08-1.64-.47-.31-.62-.16-1.33.39-1.64l6.33-3.59c.55-.31,1.33-.08,1.64.47h0Zm-8.28,4.69c.31.55.94.7,1.41.39l6.33-3.59c.47-.31.62-.94.39-1.41-.31-.55-.94-.7-1.41-.39l-6.33,3.59c-.47.23-.62.86-.39,1.41h0Z"/>
      <path class="cls-8" d="m63.23,154.56c.23.62,0,1.25-.63,1.48l-15.08,6.25c-.55.23-1.25-.08-1.48-.62-.23-.62,0-1.25.62-1.48l15.08-6.25c.55-.23,1.25,0,1.48.62h0Z"/>
      <path class="cls-1" d="m63.31,154.48c.23.62,0,1.33-.63,1.64l-15.08,6.25c-.63.24-1.32-.08-1.56-.7-.23-.62,0-1.33.62-1.64l15.08-6.25c.63-.24,1.32.08,1.56.7h0Zm-17.11,7.11c.23.55.86.78,1.33.62l15.08-6.25c.55-.23.78-.86.55-1.41-.23-.55-.86-.78-1.33-.62l-15.08,6.25c-.55.23-.78.86-.55,1.41h0Z"/>
      <path class="cls-8" d="m52.22,150.66c.23.62-.08,1.25-.7,1.48l-6.87,2.27c-.55.23-1.25-.16-1.41-.7-.23-.62.08-1.25.7-1.48l6.87-2.27c.55-.23,1.17.08,1.41.7Z"/>
      <path class="cls-1" d="m52.3,150.58c.23.62-.08,1.33-.78,1.56l-6.87,2.27c-.62.23-1.33-.16-1.56-.78-.23-.62.08-1.33.78-1.56l6.87-2.27c.62-.16,1.33.16,1.56.78h0Zm-9.06,2.97c.16.55.78.86,1.33.7l6.87-2.27c.55-.16.78-.78.62-1.33s-.78-.86-1.33-.7l-6.87,2.27c-.55.23-.78.78-.62,1.33Z"/>
      <path class="cls-8" d="m59.25,141.36c.16.62-.23,1.25-.86,1.33l-16.02,3.12c-.63.16-1.17-.31-1.33-.94-.16-.62.23-1.25.86-1.33l16.02-3.12c.62-.08,1.25.31,1.33.94h0Z"/>
      <path class="cls-1" d="m59.41,141.36c.16.7-.31,1.33-.94,1.48l-16.02,3.12c-.63.16-1.25-.31-1.41-1.02-.16-.7.31-1.33.94-1.48l16.02-3.12c.62-.16,1.25.31,1.41,1.02Zm-18.2,3.52c.08.55.63.94,1.17.86l16.02-3.12c.55-.08.94-.7.78-1.25-.08-.55-.62-.94-1.17-.86l-16.02,3.12c-.55.16-.94.7-.78,1.25h0Z"/>
      <path class="cls-8" d="m49.25,135.34c.08.62-.31,1.17-.94,1.25l-7.19.86c-.63.08-1.17-.39-1.25-1.02-.08-.62.31-1.17.94-1.25l7.19-.86c.55-.08,1.17.39,1.25,1.02Z"/>
      <path class="cls-1" d="m49.33,135.34c.08.7-.39,1.33-1.02,1.41l-7.19.86c-.63.08-1.25-.39-1.33-1.09-.08-.7.39-1.33,1.02-1.41l7.19-.86c.62-.08,1.25.39,1.33,1.09h0Zm-9.45,1.09c.08.55.63,1.02,1.17.94l7.19-.86c.55-.08.94-.63.86-1.17-.08-.55-.62-1.02-1.17-.94l-7.19.86c-.55.08-.94.63-.86,1.17Z"/>
      <path class="cls-8" d="m58,127.77c0,.63-.47,1.17-1.09,1.17h-16.33c-.63,0-1.09-.55-1.09-1.17s.47-1.17,1.09-1.17h16.33c.62,0,1.09.55,1.09,1.17h0Z"/>
      <path class="cls-1" d="m58.08,127.77c0,.7-.55,1.25-1.17,1.25h-16.33c-.63,0-1.17-.55-1.17-1.25s.55-1.25,1.17-1.25h16.33c.62,0,1.17.55,1.17,1.25h0Zm-18.52-.08c0,.55.47,1.09,1.02,1.09h16.33c.55,0,1.02-.47,1.02-1.09,0-.55-.47-1.09-1.02-1.09h-16.33c-.55.08-1.02.55-1.02,1.09h0Z"/>
      <path class="cls-4" d="m49.33,119.88c-.08.63-.55,1.09-1.17,1.09l-7.27-.55c-.62-.08-1.09-.63-1.02-1.25.08-.63.55-1.09,1.17-1.09l7.27.55c.55.08,1.02.63,1.02,1.25Z"/>
      <path class="cls-1" d="m49.41,119.88c-.08.7-.62,1.17-1.25,1.17l-7.27-.55c-.62-.08-1.17-.63-1.09-1.33.08-.7.63-1.17,1.25-1.17l7.27.55c.62.08,1.09.7,1.09,1.33h0Zm-9.53-.7c-.08.55.39,1.09.94,1.09l7.27.55c.55,0,1.02-.39,1.09-1.02.08-.55-.39-1.09-.94-1.09l-7.27-.55c-.55,0-1.02.47-1.09,1.02h0Z"/>
      <path class="cls-8" d="m59.41,114.17c-.16.63-.7,1.02-1.33.94l-16.02-3.28c-.63-.16-1.02-.7-.86-1.33s.7-1.02,1.33-.94l16.02,3.2c.55.16.94.78.86,1.41h0Z"/>
      <path class="cls-1" d="m59.48,114.17c-.16.7-.78,1.09-1.41,1.02l-16.02-3.2c-.63-.16-1.09-.78-.94-1.48.16-.7.78-1.09,1.41-1.02l16.02,3.2c.62.16,1.02.78.94,1.48h0Zm-18.2-3.67c-.08.55.23,1.09.78,1.25l16.02,3.2c.55.08,1.09-.23,1.25-.86.08-.55-.23-1.09-.78-1.25l-16.01-3.2c-.63-.08-1.09.31-1.25.86h0Z"/>
      <path class="cls-8" d="m52.38,104.8c-.15.63-.78,1.01-1.4.86,0,0,0,0,0,0l-7.03-1.95c-.62-.16-.94-.78-.78-1.41.15-.63.78-1.01,1.4-.86,0,0,0,0,0,0l7.03,1.95c.62.16.94.78.78,1.41h0Z"/>
      <path class="cls-1" d="m52.45,104.8c-.16.62-.86,1.09-1.48.86l-7.03-1.95c-.62-.16-1.02-.86-.86-1.48.16-.63.86-1.09,1.48-.86l7.03,1.95c.62.16,1.02.78.86,1.48h0Zm-9.14-2.58c-.16.55.16,1.17.7,1.33l7.03,1.95c.55.16,1.09-.16,1.25-.78.16-.55-.16-1.17-.7-1.33l-7.03-1.95c-.55-.08-1.09.23-1.25.78h0Z"/>
      <path class="cls-8" d="m63.39,101.05c-.23.62-.94.86-1.48.62l-15.08-6.25c-.55-.23-.86-.94-.62-1.48.23-.63.94-.86,1.48-.63l15.08,6.25c.63.23.86.94.63,1.48h0Z"/>
      <path class="cls-1" d="m63.47,101.13c-.24.63-.94.94-1.56.7l-15.08-6.25c-.62-.23-.86-.94-.62-1.64.24-.63.94-.94,1.56-.7l15.08,6.25c.63.31.86,1.02.63,1.64Zm-17.11-7.11c-.23.55,0,1.17.55,1.41l15.08,6.25c.55.23,1.09-.08,1.33-.63.23-.55,0-1.17-.55-1.41l-15.08-6.25c-.55-.16-1.17.08-1.33.63h0Z"/>
      <path class="cls-8" d="m58.31,90.5c-.31.55-.94.78-1.48.55l-6.48-3.28c-.55-.23-.78-.94-.47-1.56.31-.55.94-.78,1.48-.55l6.48,3.28c.55.31.78,1.02.47,1.56h0Z"/>
      <path class="cls-1" d="m58.39,90.58c-.31.63-1.02.86-1.64.55l-6.48-3.28c-.62-.31-.86-1.02-.55-1.64.31-.63,1.02-.86,1.64-.55l6.48,3.28c.63.23.86,1.02.55,1.64h0Zm-8.44-4.3c-.23.55-.08,1.17.47,1.41l6.48,3.28c.47.23,1.09,0,1.41-.47.23-.55.08-1.17-.47-1.41l-6.56-3.28c-.47-.23-1.09-.08-1.33.47h0Z"/>
      <path class="cls-8" d="m69.8,89.02c-.39.55-1.02.7-1.56.31l-13.52-8.98c-.55-.31-.62-1.02-.31-1.56.31-.55,1.02-.7,1.56-.31l13.59,9.06c.47.31.63,1.02.23,1.48h0Z"/>
      <path class="cls-1" d="m69.87,89.09c-.39.55-1.17.7-1.72.39l-13.52-9.06c-.55-.39-.7-1.09-.31-1.72.39-.55,1.17-.7,1.72-.39l13.52,9.06c.63.39.7,1.17.31,1.72h0Zm-15.39-10.31c-.31.47-.23,1.17.23,1.48l13.59,9.06c.47.31,1.09.16,1.41-.31.31-.47.23-1.17-.23-1.48l-13.6-9.06c-.47-.31-1.09-.16-1.41.31h0Z"/>
      <path class="cls-8" d="m66.91,77.69c-.39.47-1.09.63-1.56.23l-5.7-4.45c-.47-.39-.55-1.09-.16-1.56s1.09-.63,1.56-.23l5.7,4.45c.47.39.55,1.09.16,1.56Z"/>
      <path class="cls-1" d="m66.98,77.77c-.39.55-1.17.63-1.72.23l-5.7-4.45c-.55-.39-.62-1.17-.23-1.72.39-.55,1.17-.63,1.72-.23l5.7,4.45c.55.39.63,1.17.23,1.72h0Zm-7.5-5.86c-.39.47-.31,1.09.16,1.48l5.7,4.45c.47.31,1.09.23,1.48-.23.39-.47.31-1.09-.16-1.48l-5.7-4.45c-.47-.31-1.09-.23-1.48.23h0Z"/>
      <path class="cls-8" d="m78.55,78.47c-.47.47-1.17.47-1.56,0l-11.64-11.48c-.47-.47-.39-1.17,0-1.56.47-.47,1.17-.47,1.56,0l11.56,11.48c.47.39.47,1.17.08,1.56h0Z"/>
      <path class="cls-1" d="m78.55,78.55c-.48.47-1.24.47-1.72,0l-11.56-11.49c-.47-.48-.47-1.24,0-1.72.48-.47,1.24-.47,1.72,0l11.56,11.48c.55.47.55,1.25,0,1.72h0Zm-13.12-13.05c-.39.39-.39,1.09,0,1.48l11.56,11.48c.39.39,1.09.39,1.48,0,.39-.39.39-1.09,0-1.48l-11.56-11.56c-.39-.39-1.02-.39-1.48.08h0Z"/>
      <path class="cls-8" d="m77.84,66.83c-.47.39-1.17.39-1.56-.08l-4.77-5.47c-.39-.47-.31-1.17.16-1.56.47-.39,1.17-.39,1.56.08l4.77,5.47c.39.39.31,1.09-.16,1.56h0Z"/>
      <path class="cls-1" d="m77.92,66.83c-.55.47-1.25.39-1.72-.08l-4.77-5.47c-.47-.47-.39-1.25.16-1.72.55-.47,1.25-.39,1.72.08l4.77,5.47c.39.55.39,1.33-.16,1.72Zm-6.25-7.11c-.47.39-.47,1.02-.16,1.48l4.77,5.47c.39.39,1.02.47,1.48.08.47-.39.47-1.02.16-1.48l-4.77-5.47c-.39-.47-1.02-.47-1.48-.08h0Z"/>
      <path class="cls-8" d="m89.09,69.8c-.55.39-1.25.23-1.56-.31l-9.14-13.52c-.31-.55-.16-1.25.31-1.56.55-.39,1.25-.23,1.56.31l9.06,13.52c.39.55.23,1.25-.23,1.56h0Z"/>
      <path class="cls-1" d="m89.09,69.88c-.55.39-1.33.23-1.72-.31l-9.06-13.52c-.39-.55-.23-1.33.39-1.72.55-.39,1.33-.23,1.72.31l9.06,13.52c.39.63.23,1.33-.39,1.72Zm-10.31-15.39c-.47.31-.63.94-.31,1.41l9.06,13.52c.31.47.94.55,1.48.23.47-.31.63-.94.31-1.41l-9.06-13.44c-.31-.47-1.02-.62-1.48-.31h0Z"/>
      <path class="cls-8" d="m90.73,58.23c-.55.31-1.25.16-1.56-.39l-3.59-6.33c-.31-.55-.08-1.25.47-1.56.55-.31,1.25-.16,1.56.39l3.59,6.33c.23.55.08,1.25-.47,1.56h0Z"/>
      <path class="cls-1" d="m90.73,58.31c-.63.31-1.33.16-1.64-.39l-3.59-6.33c-.31-.55-.16-1.33.47-1.64.63-.31,1.33-.16,1.64.39l3.59,6.33c.31.55.16,1.25-.47,1.64h0Zm-4.69-8.28c-.47.31-.7.94-.39,1.41l3.59,6.33c.31.47.94.62,1.41.39.47-.31.7-.94.39-1.41l-3.59-6.33c-.23-.47-.94-.7-1.41-.39h0Z"/>
      <path class="cls-8" d="m101.12,63.39c-.62.23-1.25,0-1.48-.55l-6.33-15.08c-.23-.55.08-1.25.63-1.48.63-.23,1.25,0,1.48.55l6.33,15.08c.23.55-.08,1.25-.63,1.48h0Z"/>
      <path class="cls-1" d="m101.12,63.47c-.62.23-1.33,0-1.64-.63l-6.33-15.08c-.24-.63.08-1.32.7-1.56.63-.23,1.33,0,1.64.62l6.33,15.08c.23.55-.08,1.25-.7,1.56h0Zm-7.11-17.11c-.55.23-.78.86-.55,1.33l6.33,15.08c.23.55.86.78,1.41.55.55-.23.78-.86.55-1.33l-6.33-15.08c-.31-.55-.86-.78-1.41-.55h0Z"/>
      <path class="cls-8" d="m104.95,52.3c-.63.23-1.25-.08-1.48-.7l-2.27-6.88c-.23-.55.16-1.25.7-1.41.55-.16,1.25.08,1.48.7l2.27,6.88c.23.55-.08,1.17-.7,1.41h0Z"/>
      <path class="cls-1" d="m105.03,52.38c-.63.24-1.32-.08-1.56-.7l-2.27-6.87c-.23-.62.16-1.33.78-1.56.63-.24,1.32.08,1.56.7l2.27,6.87c.16.62-.16,1.33-.78,1.56Zm-3.05-8.98c-.55.16-.86.78-.7,1.33l2.27,6.88c.16.55.78.78,1.33.62.55-.16.86-.78.7-1.33l-2.27-6.88c-.16-.52-.71-.82-1.23-.66-.03.01-.07.02-.1.04h0Z"/>
      <path class="cls-8" d="m114.17,59.41c-.63.16-1.25-.23-1.33-.86l-3.28-16.02c-.16-.62.31-1.17.94-1.33.63-.16,1.25.23,1.33.86l3.28,16.02c.08.55-.31,1.17-.94,1.33Z"/>
      <path class="cls-1" d="m114.17,59.48c-.7.16-1.33-.31-1.48-.94l-3.28-16.02c-.16-.62.31-1.33.94-1.41.7-.16,1.33.31,1.48.94l3.28,16.02c.16.62-.23,1.25-.94,1.41h0Zm-3.67-18.2c-.55.08-.94.62-.86,1.25l3.28,16.02c.08.55.7.94,1.25.78.55-.08.94-.62.86-1.25l-3.28-16.02c-.16-.55-.7-.86-1.25-.78h0Z"/>
      <path class="cls-8" d="m120.11,49.25c-.63.08-1.17-.31-1.33-.94l-.94-7.19c-.08-.63.39-1.17,1.02-1.25.62-.08,1.17.31,1.33.94l.94,7.19c.08.62-.39,1.17-1.02,1.25h0Z"/>
      <path class="cls-1" d="m120.11,49.33c-.7.08-1.33-.39-1.41-1.02l-.94-7.19c-.08-.63.39-1.25,1.09-1.33.7-.08,1.33.39,1.41,1.02l.94,7.19c.08.62-.39,1.25-1.09,1.33Zm-1.17-9.38c-.55.08-1.02.63-.94,1.17l.94,7.19c.08.55.63.94,1.17.86.55-.08,1.02-.62.94-1.17l-.94-7.19c-.08-.55-.63-.94-1.17-.86h0Z"/>
      <circle class="cls-2" cx="128.55" cy="127.92" r="92.5"/>
    </g>
    <path d="m192.61,69.25l-74.61,47.81h-.08v.08l-.08.08-46.56,76.8,68.44-55.08.08-.08v-.08l52.81-69.53h0Z"/>
    <path class="cls-7" d="m191.2,64.8l-73.75,52.42,21.88,21.72,51.87-74.14"/>
    <path class="cls-11" d="m117.53,117.06l11.02,10.86,62.66-63.13-73.67,52.27h0Z"/>
    <path class="cls-9" d="m117.53,117.06l21.88,21.72-73.75,52.42,51.87-74.14h0Z"/>
    <path class="cls-10" d="m65.66,191.2l62.89-63.28-11.02-10.86-51.87,74.14h0Z"/>
  </g>
</svg>