<?xml version="1.0" encoding="UTF-8" standalone="no"?>
<!DOCTYPE svg PUBLIC "-//W3C//DTD SVG 1.1//EN" "http://www.w3.org/Graphics/SVG/1.1/DTD/svg11.dtd">
<!-- Created with Vectornator (http://vectornator.io/) -->
<svg height="100%" stroke-miterlimit="10" style="fill-rule:nonzero;clip-rule:evenodd;stroke-linecap:round;stroke-linejoin:round;" version="1.1" viewBox="0 0 512 512" width="100%" xml:space="preserve" xmlns="http://www.w3.org/2000/svg" xmlns:vectornator="http://vectornator.io" xmlns:xlink="http://www.w3.org/1999/xlink">
<defs/>
<g id="Ebene-1" vectornator:layerName="Ebene 1">
<path d="M2.84217e-14 95C2.84217e-14 42.5329 42.5329 0 95 0L417 0C469.467 0 512 42.5329 512 95L512 417C512 469.467 469.467 512 417 512L95 512C42.5329 512 2.84217e-14 469.467 2.84217e-14 417L2.84217e-14 95Z" fill="#cf649a" fill-rule="nonzero" opacity="1" stroke="none" vectornator:layerName="Rechteck 1"/>
<path d="M418.382 281.038C402.648 281.127 389.024 284.905 377.597 290.532C373.378 282.181 369.159 274.885 368.456 269.436C367.665 263.107 366.698 259.239 367.665 251.681C368.631 244.121 373.026 233.397 373.026 232.518C372.937 231.727 372.058 227.859 363.006 227.771C353.953 227.684 346.129 229.529 345.25 231.903C344.371 234.276 342.613 239.726 341.471 245.351C339.888 253.614 323.364 282.884 313.958 298.266C310.882 292.289 308.245 287.015 307.717 282.795C306.927 276.467 305.959 272.599 306.927 265.04C307.893 257.48 312.288 246.757 312.288 245.878C312.2 245.087 311.321 241.22 302.269 241.132C293.214 241.044 285.392 242.89 284.513 245.263C283.634 247.636 282.667 253.262 280.734 258.712C278.887 264.161 256.912 313.033 251.199 325.778C248.298 332.282 245.75 337.468 243.903 340.984C242.058 344.5 243.816 341.248 243.64 341.6C242.058 344.588 241.179 346.258 241.179 346.258L241.179 346.347C239.948 348.545 238.63 350.653 238.013 350.653C237.574 350.653 236.695 344.764 238.189 336.678C241.441 319.713 249.352 293.257 249.265 292.29C249.265 291.85 250.759 287.191 244.166 284.818C237.75 282.445 235.465 286.4 234.937 286.4C234.41 286.4 233.97 287.807 233.97 287.807C233.97 287.807 241.09 258.01 220.346 258.01C207.337 258.01 189.406 272.162 180.528 285.083C174.902 288.159 162.948 294.663 150.291 301.608C145.456 304.245 140.446 307.057 135.7 309.606L134.734 308.55C109.595 281.741 63.0966 262.755 65.0304 226.717C65.7336 213.62 70.3043 179.076 154.336 137.236C223.16 102.956 278.273 112.361 287.853 133.281C301.477 163.166 258.407 218.718 186.858 226.717C159.61 229.793 145.282 219.245 141.679 215.29C137.899 211.159 137.372 210.983 135.965 211.774C133.68 213.005 135.086 216.696 135.965 218.894C138.075 224.431 146.865 234.276 161.807 239.198C174.903 243.505 206.899 245.878 245.574 230.936C288.908 214.147 322.749 167.561 312.817 128.622C302.708 88.98 236.96 75.9711 174.816 98.0335C137.81 111.218 97.7286 131.786 68.8979 158.771C34.6176 190.766 29.1679 218.718 31.4533 230.32C39.4529 271.721 96.498 298.705 119.352 318.658C118.209 319.273 117.154 319.888 116.187 320.416C104.76 326.041 61.2508 348.807 50.3514 372.891C38.0456 400.139 52.2852 419.741 61.7782 422.378C91.1362 430.553 121.197 415.874 137.459 391.702C153.631 367.53 151.698 336.15 144.227 321.823L143.962 321.295L152.928 316.021C158.73 312.593 164.443 309.429 169.453 306.703C166.641 314.35 164.618 323.404 163.564 336.589C162.334 352.06 168.663 372.1 177.013 380.01C180.705 383.438 185.099 383.526 187.824 383.526C197.493 383.526 201.888 375.527 206.722 365.947C212.7 354.256 217.973 340.72 217.973 340.72C217.973 340.72 211.381 377.373 229.4 377.373C235.993 377.373 242.585 368.847 245.574 364.452L245.574 364.54C245.574 364.54 245.749 364.277 246.101 363.661C246.47 363.116 246.821 362.559 247.156 361.992L247.156 361.816C249.793 357.246 255.682 346.786 264.472 329.47C275.81 307.144 286.71 279.192 286.71 279.192C286.71 279.192 287.765 286.048 291.017 297.299C292.95 303.98 297.169 311.275 300.421 318.395C297.784 322.086 296.202 324.197 296.202 324.197L296.29 324.285C294.181 327.097 291.807 330.087 289.347 333.074C280.381 343.798 269.658 356.017 268.251 359.533C266.581 363.663 266.933 366.74 270.185 369.202C272.558 370.96 276.777 371.31 281.26 370.96C289.347 370.431 294.972 368.41 297.785 367.179C302.18 365.597 307.19 363.224 312.025 359.708C320.814 353.204 326.176 343.975 325.649 331.669C325.385 324.901 323.188 318.221 320.463 311.892C321.254 310.749 322.046 309.606 322.836 308.376C336.724 288.071 347.448 265.745 347.448 265.745C347.448 265.745 348.502 272.601 351.755 283.852C353.424 289.566 356.765 295.807 359.753 301.96C346.744 312.596 338.57 324.902 335.757 332.988C330.571 347.931 334.614 354.699 342.262 356.281C345.689 356.985 350.612 355.402 354.303 353.82C358.874 352.326 364.411 349.776 369.51 345.997C378.3 339.493 386.738 330.439 386.299 318.221C386.035 312.596 384.541 307.058 382.519 301.784C393.594 297.214 407.921 294.577 426.117 296.774C465.231 301.345 472.966 325.781 471.473 335.977C469.979 346.174 461.804 351.799 459.078 353.557C456.354 355.227 455.475 355.843 455.738 357.072C456.09 358.919 457.321 358.83 459.694 358.48C462.946 357.951 480.262 350.129 480.965 331.32C482.02 307.144 459.078 280.775 418.382 281.038ZM116.715 382.736C103.794 396.888 85.5986 402.25 77.8636 397.679C69.5132 392.844 72.7646 372.013 88.6751 356.982C98.3439 347.84 110.913 339.402 119.176 334.216C121.022 333.074 123.834 331.404 127.175 329.382C127.702 329.031 128.053 328.854 128.053 328.854C128.669 328.503 129.372 328.063 130.075 327.624C135.964 349.071 130.339 367.881 116.715 382.736ZM211.205 318.482C206.722 329.47 197.229 357.685 191.516 356.103C186.593 354.784 183.605 333.425 190.548 312.33C194.064 301.693 201.536 289.037 205.931 284.113C213.051 276.203 220.785 273.566 222.72 276.818C225.005 281.038 214.018 311.626 211.205 318.482ZM289.171 355.751C287.237 356.719 285.479 357.421 284.688 356.895C284.073 356.543 285.478 355.225 285.478 355.225C285.478 355.225 295.235 344.765 299.103 339.931C301.3 337.119 303.937 333.866 306.75 330.174L306.75 331.229C306.751 343.885 294.621 352.323 289.171 355.751ZM349.293 342.039C347.886 340.984 348.063 337.732 352.809 327.536C354.655 323.493 358.874 316.724 366.169 310.308C367.048 312.945 367.576 315.493 367.488 317.867C367.401 333.689 356.15 339.578 349.293 342.039Z" fill="#ffffff" fill-rule="nonzero" opacity="1" stroke="none" vectornator:layerName="path"/>
</g>
</svg>
