<?xml version="1.0" encoding="UTF-8"?><svg id="a" xmlns="http://www.w3.org/2000/svg" xmlns:xlink="http://www.w3.org/1999/xlink" viewBox="0 0 128 128"><defs><style>.g,.h{fill:#fff;}.h,.i{fill-rule:evenodd;}.j,.i{fill:#0054a6;}.k{clip-path:url(#e);}.l{fill:none;}</style><clipPath id="e"><circle class="l" cx="61.59" cy="64" r="47.59"/></clipPath></defs><rect class="j" x="0" y="0" width="128" height="128" rx="25" ry="25" transform="translate(128 0) rotate(90)"/><path id="c" class="g" d="m61.59,16.41c-26.28,0-47.59,21.3-47.59,47.59,0,0,0,0,0,0,0,7.89,1.97,15.65,5.71,22.59.27.06.54.17.79.29.92.42,1.79,1.04,2.31,1.91.26.44.42.93.44,1.44.02.5-.11,1.01-.38,1.44,8.93,12.5,23.35,19.92,38.71,19.92,26.28,0,47.59-21.3,47.59-47.59,0-26.28-21.3-47.59-47.59-47.59,0,0,0,0,0,0Z"/><path id="d" class="h" d="m105.59,46.11l2.43-1.13,1.64-4.49,1.72.6-1.48,4.01,4.1,1.41-.62,1.68-4.58-1.6-2.52,1.16"/><g class="k"><path id="f" class="i" d="m79.28,70.25c-3.28-4.48-9.75-7.09-15.31-8.31s-8.94-2.17-11.64-3.63c-3.08-1.67-5.51-6.59-4.56-10.85,1.49-6.69,7.46-11.51,14.29-10.56,3.41.48,6.3,2.29,8.21,4.83l7.56,9.93c4.32,5.56,9.18,7.22,14.46,4.59l2.57-1.22c.21-.1.47-.3.89-.17.42.13.62.49.86.92s.48.81.93.92,1.06.03,1.35-.24c1.96-1.87,5.93-5.67,5.93-5.67,1.07-.92.76-1.76.76-1.76l-1.48-3.37s-.4-.81-1.8-.62l-8.23.76c-.48.07-.91.39-1.09.87-.11.28-.12.58-.04.85l.29.95c.06.2.06.42-.02.62-.1.25-.29.43-.52.52l-2.33.98c-2.68.91-5.2.52-7.05-1.74l-2.11-2.81-6.01-7.98c-2.86-3.79-7.16-6.49-12.25-7.2-10.18-1.43-19.63,5.62-21.11,15.75-.75,5.1-.05,9.42,3.81,13.82,3.85,4.41,11.35,6.09,17.84,7.58.69.16,2.65.65,3.81,1.07,1.07.39,3.53,1.3,5.53,2.93h0c2.39,2.43,3.66,5.91,3.12,9.55-.91,6.21-6.7,10.54-12.95,9.66-3.13-.43-5.77-2.09-7.52-4.42l-7.22-9.58c-1.47-1.95-3.7-3.35-6.33-3.72-2.63-.37-5.17.36-7.14,1.84l-15.08,11.25c.64,1.82,1.45,3.63,3.17,5.09l15.55-11.66c.71-.49,1.6-.71,2.51-.58.98.14,1.8.65,2.35,1.38l7.64,10.26c2.69,3.3,6.6,5.64,11.17,6.28,9.63,1.35,18.56-5.32,19.96-14.9.65-4.46-.44-8.76-2.77-12.22"/></g></svg>