<?xml version="1.0" encoding="UTF-8"?><svg id="a" xmlns="http://www.w3.org/2000/svg" viewBox="0 0 128 128"><defs><style>.b{fill:#fff;}.c{fill:#5e8e3e;}.d{fill:#95bf46;}</style></defs><rect class="d" x="0" y="0" width="128" height="128" rx="25" ry="25" transform="translate(128 0) rotate(90)"/><path class="b" d="m97.05,33.47c-.07-.5-.51-.78-.87-.81-.36-.03-8.05-.6-8.05-.6,0,0-5.34-5.3-5.92-5.89-.59-.59-1.73-.41-2.18-.28-.07.02-1.17.36-2.99.92-1.78-5.13-4.93-9.85-10.47-9.85-.15,0-.31,0-.47.02-1.57-2.08-3.53-2.99-5.21-2.99-12.9,0-19.06,16.12-20.99,24.32-5.01,1.55-8.57,2.66-9.03,2.8-2.8.88-2.89.97-3.25,3.6-.28,2-7.6,58.6-7.6,58.6l57.03,10.69,30.9-6.69s-10.85-73.34-10.92-73.84h0Zm-23.16-5.68c-1.43.44-3.06.95-4.83,1.49,0-.34,0-.67,0-1.04,0-3.19-.44-5.76-1.15-7.79,2.85.36,4.75,3.6,5.98,7.34h0Zm-9.51-6.71c.79,1.99,1.31,4.84,1.31,8.69,0,.2,0,.38,0,.56-3.14.97-6.55,2.03-9.97,3.09,1.92-7.41,5.52-10.98,8.66-12.33h0Zm-3.83-3.63c.56,0,1.12.19,1.65.56-4.13,1.94-8.56,6.84-10.43,16.63-2.73.85-5.41,1.67-7.88,2.44,2.19-7.46,7.4-19.62,16.66-19.62h0Z"/><path class="c" d="m96.18,32.66c-.36-.03-8.05-.6-8.05-.6,0,0-5.34-5.3-5.92-5.89-.22-.22-.51-.33-.82-.38l-4.31,88.2,30.9-6.68s-10.85-73.34-10.92-73.84c-.07-.5-.51-.78-.87-.81"/><path class="d" d="m66.58,49.73l-3.81,11.33s-3.34-1.78-7.43-1.78c-6,0-6.3,3.77-6.3,4.71,0,5.18,13.49,7.16,13.49,19.29,0,9.54-6.05,15.68-14.21,15.68-9.79,0-14.8-6.09-14.8-6.09l2.62-8.66s5.15,4.42,9.49,4.42c2.84,0,3.99-2.23,3.99-3.87,0-6.75-11.07-7.05-11.07-18.15,0-9.34,6.7-18.38,20.23-18.38,5.21,0,7.79,1.49,7.79,1.49"/></svg>