<?xml version="1.0" encoding="UTF-8" standalone="no"?>
<!DOCTYPE svg PUBLIC "-//W3C//DTD SVG 1.1//EN" "http://www.w3.org/Graphics/SVG/1.1/DTD/svg11.dtd">
<!-- Created with Vectornator (http://vectornator.io/) -->
<svg height="100%" stroke-miterlimit="10" style="fill-rule:nonzero;clip-rule:evenodd;stroke-linecap:round;stroke-linejoin:round;" version="1.1" viewBox="0 0 512 512" width="100%" xml:space="preserve" xmlns="http://www.w3.org/2000/svg" xmlns:vectornator="http://vectornator.io" xmlns:xlink="http://www.w3.org/1999/xlink">
<defs/>
<g id="Ebene-1" vectornator:layerName="Ebene 1">
<path d="M2.84217e-14 95C2.84217e-14 42.5329 42.5329 0 95 0L417 0C469.467 0 512 42.5329 512 95L512 417C512 469.467 469.467 512 417 512L95 512C42.5329 512 2.84217e-14 469.467 2.84217e-14 417L2.84217e-14 95Z" fill="#36c5f0" fill-rule="nonzero" opacity="1" stroke="none" vectornator:layerName="Rechteck 1"/>
</g>
<g id="Ebene-2" vectornator:layerName="Ebene 2">
<g opacity="1" vectornator:layerName="g">
<path d="M216.073 106C199.523 106.012 186.128 119.443 186.141 135.994C186.128 152.544 199.535 165.976 216.086 165.988L246.031 165.988L246.031 136.006C246.043 119.456 232.636 106.024 216.073 106C216.086 106 216.086 106 216.073 106M216.073 186L136.245 186C119.694 186.012 106.287 199.443 106.3 215.994C106.275 232.544 119.682 245.976 136.232 246L216.073 246C232.624 245.988 246.031 232.557 246.018 216.006C246.031 199.443 232.624 186.012 216.073 186Z" fill="#323232" fill-rule="evenodd" opacity="1" stroke="none" vectornator:layerName="path"/>
<path d="M405.7 215.994C405.713 199.443 392.306 186.012 375.755 186C359.205 186.012 345.798 199.443 345.81 215.994L345.81 246L375.755 246C392.306 245.988 405.713 232.557 405.7 215.994ZM325.859 215.994L325.859 135.994C325.872 119.456 312.477 106.024 295.927 106C279.376 106.012 265.969 119.443 265.982 135.994L265.982 215.994C265.957 232.544 279.364 245.976 295.914 246C312.465 245.988 325.872 232.557 325.859 215.994Z" fill="#323232" fill-rule="evenodd" opacity="1" stroke="none" vectornator:layerName="path"/>
<path d="M295.914 406C312.465 405.988 325.872 392.557 325.859 376.006C325.872 359.456 312.465 346.024 295.914 346.012L265.969 346.012L265.969 376.006C265.957 392.544 279.364 405.976 295.914 406ZM295.914 325.988L375.755 325.988C392.306 325.976 405.713 312.544 405.7 295.994C405.725 279.443 392.318 266.012 375.768 265.988L295.927 265.988C279.376 266 265.969 279.431 265.982 295.982C265.969 312.544 279.364 325.976 295.914 325.988Z" fill="#323232" fill-rule="evenodd" opacity="1" stroke="none" vectornator:layerName="path"/>
<path d="M106.3 295.994C106.287 312.544 119.694 325.976 136.245 325.988C152.795 325.976 166.202 312.544 166.19 295.994L166.19 266L136.245 266C119.694 266.012 106.287 279.443 106.3 295.994ZM186.141 295.994L186.141 375.994C186.116 392.544 199.523 405.976 216.073 406C232.624 405.988 246.031 392.557 246.018 376.006L246.018 296.018C246.043 279.468 232.636 266.037 216.086 266.012C199.523 266.012 186.128 279.443 186.141 295.994C186.141 295.994 186.141 296.006 186.141 295.994" fill="#323232" fill-rule="evenodd" opacity="1" stroke="none" vectornator:layerName="path"/>
</g>
</g>
</svg>
