<?xml version="1.0" encoding="UTF-8"?><svg id="a" xmlns="http://www.w3.org/2000/svg" viewBox="0 0 128 128"><defs><style>.b{fill:#fff;}.c{fill:#1b1b1d;}</style></defs><rect class="c" x="0" y="0" width="128" height="128" rx="25" ry="25" transform="translate(128 0) rotate(90)"/><path class="b" d="m51.34,15.63c12.94-3.32,27.24-1.38,38.65,5.66,14.37,8.59,23.75,24.85,23.99,41.59.53,16.9-8.28,33.66-22.44,42.85-15.76,10.6-37.55,11.01-53.64.93-16.4-9.79-25.97-29.53-23.51-48.48,1.98-20.03,17.45-37.69,36.95-42.54h0Z"/><path class="c" d="m49.36,23.82c24.45-9.79,54.43,8.28,56.96,34.5,3.94,23.59-15.64,47.55-39.53,48.25-22.73,2.27-44.69-17-45.33-39.82-1.69-18.48,10.48-36.81,27.91-42.92h0Z"/><path class="b" d="m51.81,61.46c10.96-8.95,21.68-18.21,32.87-26.9-5.87,9.02-11.91,17.93-17.78,26.95-5.04.02-10.07.02-15.09-.05h0Z"/><path class="b" d="m61.08,66.45c5.06,0,10.1,0,15.14.07-11.03,8.9-21.7,18.24-32.92,26.9,5.87-9.02,11.91-17.95,17.78-26.98h0Z"/></svg>