<?xml version="1.0" encoding="UTF-8"?><svg id="a" xmlns="http://www.w3.org/2000/svg" xmlns:xlink="http://www.w3.org/1999/xlink" viewBox="0 0 128 128"><defs><style>.g{fill:url(#f);}.h{fill:url(#e);}.i{fill:#76b3e1;}.j{fill:url(#d);}.j,.k,.l{isolation:isolate;opacity:.3;}.k{fill:url(#c);}.m{fill:#518ac8;}.l{fill:url(#b);}</style><linearGradient id="b" x1="0" y1="64" x2="128" y2="64" gradientTransform="translate(0 128) rotate(-90)" gradientUnits="userSpaceOnUse"><stop offset="0" stop-color="#76b3e1"/><stop offset=".5" stop-color="#4377bb"/><stop offset="1" stop-color="#1f3b77"/></linearGradient><linearGradient id="c" x1=".9" y1="128.7" x2="1.28" y2="128.61" gradientTransform="translate(-155.18 12742.95) scale(206.09 -98.77)" gradientUnits="userSpaceOnUse"><stop offset=".1" stop-color="#76b3e1"/><stop offset=".3" stop-color="#dcf2fd"/><stop offset="1" stop-color="#76b3e1"/></linearGradient><linearGradient id="d" x1="1.14" y1="129.01" x2="1.06" y2="128.89" gradientTransform="translate(-140.39 11258.75) scale(184.2 -86.89)" xlink:href="#b"/><linearGradient id="e" x1="1.11" y1="129.23" x2="1.48" y2="129.09" gradientTransform="translate(-215.5 15857.17) scale(216.5 -122.17)" gradientUnits="userSpaceOnUse"><stop offset="0" stop-color="#315aa9"/><stop offset=".5" stop-color="#518ac8"/><stop offset="1" stop-color="#315aa9"/></linearGradient><linearGradient id="f" x1="1.33" y1="129.76" x2="1.15" y2="129.47" gradientTransform="translate(-183.92 11262.11) scale(184.92 -86.12)" gradientUnits="userSpaceOnUse"><stop offset="0" stop-color="#4377bb"/><stop offset=".5" stop-color="#1a336b"/><stop offset="1" stop-color="#1a336b"/></linearGradient></defs><rect class="l" x="0" y="0" width="128" height="128" rx="25" ry="25" transform="translate(128 0) rotate(90)"/><path class="i" d="m114,37.19s-33.33-24.53-59.12-18.87l-1.89.63c-3.77,1.26-6.92,3.14-8.81,5.66l-1.26,1.89-9.43,16.35,16.35,3.14c6.92,4.4,15.72,6.29,23.9,4.4l28.93,5.66,11.32-18.87Z"/><path class="k" d="m114,37.19s-33.33-24.53-59.12-18.87l-1.89.63c-3.77,1.26-6.92,3.14-8.81,5.66l-1.26,1.89-9.43,16.35,16.35,3.14c6.92,4.4,15.72,6.29,23.9,4.4l28.93,5.66,11.32-18.87Z"/><path class="m" d="m44.19,37.19l-2.52.63c-10.69,3.14-13.84,13.21-8.18,22.01,6.29,8.18,19.5,12.58,30.19,9.43l38.99-13.21s-33.33-24.53-58.49-18.87Z"/><path class="j" d="m44.19,37.19l-2.52.63c-10.69,3.14-13.84,13.21-8.18,22.01,6.29,8.18,19.5,12.58,30.19,9.43l38.99-13.21s-33.33-24.53-58.49-18.87Z"/><path class="h" d="m95.76,65.49c-7.2-9-19.14-12.73-30.19-9.43l-38.99,12.58-12.58,22.01,70.44,11.95,12.58-22.64c2.52-4.4,1.89-9.43-1.26-14.47Z"/><path class="g" d="m83.18,87.5c-7.2-9-19.14-12.73-30.19-9.43l-38.99,12.58s33.33,25.16,59.12,18.87l1.89-.63c10.69-3.14,14.47-13.21,8.18-21.38Z"/></svg>