<?xml version="1.0" encoding="UTF-8" standalone="no"?>
<!DOCTYPE svg PUBLIC "-//W3C//DTD SVG 1.1//EN" "http://www.w3.org/Graphics/SVG/1.1/DTD/svg11.dtd">
<!-- Created with Vectornator (http://vectornator.io/) -->
<svg height="100%" stroke-miterlimit="10" style="fill-rule:nonzero;clip-rule:evenodd;stroke-linecap:round;stroke-linejoin:round;" version="1.1" viewBox="0 0 512 512" width="100%" xml:space="preserve" xmlns="http://www.w3.org/2000/svg" xmlns:vectornator="http://vectornator.io" xmlns:xlink="http://www.w3.org/1999/xlink">
<defs/>
<g id="Ebene-1" vectornator:layerName="Ebene 1">
<path d="M2.84217e-14 95C2.84217e-14 42.5329 42.5329 0 95 0L417 0C469.467 0 512 42.5329 512 95L512 417C512 469.467 469.467 512 417 512L95 512C42.5329 512 2.84217e-14 469.467 2.84217e-14 417L2.84217e-14 95Z" fill="#1db954" fill-rule="nonzero" opacity="1" stroke="none" vectornator:layerName="Rechteck 1"/>
</g>
<g id="Ebene-2" vectornator:layerName="Ebene 2">
<path d="M256 67.5C151.891 67.5 67.5 151.891 67.5 256C67.5 360.109 151.891 444.5 256 444.5C360.109 444.5 444.5 360.109 444.5 256C444.5 151.904 360.109 67.5128 256 67.5ZM342.449 339.362C339.066 344.918 331.824 346.655 326.294 343.272C282.034 316.222 226.313 310.113 160.702 325.098C154.373 326.551 148.071 322.59 146.63 316.261C145.177 309.933 149.125 303.63 155.466 302.189C227.265 285.79 288.864 292.851 338.552 323.207C344.082 326.615 345.845 333.831 342.449 339.362ZM365.511 288.053C361.254 294.973 352.199 297.134 345.292 292.889C294.639 261.749 217.387 252.733 157.461 270.921C149.692 273.274 141.485 268.889 139.119 261.132C136.778 253.363 141.164 245.17 148.92 242.803C217.374 222.03 302.485 232.089 360.662 267.846C367.583 272.104 369.769 281.146 365.511 288.053ZM367.492 234.597C306.73 198.518 206.505 195.199 148.496 212.795C139.183 215.624 129.33 210.364 126.513 201.051C123.697 191.738 128.944 181.887 138.269 179.056C204.859 158.85 315.541 162.747 385.487 204.267C393.86 209.244 396.613 220.062 391.648 228.422C386.696 236.809 375.853 239.575 367.492 234.597Z" fill="#272727" fill-rule="nonzero" opacity="1" stroke="none" vectornator:layerName="path"/>
</g>
</svg>
