<?xml version="1.0" encoding="UTF-8"?><svg id="a" xmlns="http://www.w3.org/2000/svg" viewBox="0 0 128 128"><defs><style>.b{fill:#fff;}.c{fill:#77bc1f;}</style></defs><rect class="c" x="0" y="0" width="128" height="128" rx="25" ry="25" transform="translate(128 0) rotate(90)"/><path class="b" d="m104.94,19.19c-1.41,3.36-3.19,6.55-5.34,9.48-9.4-9.4-22.17-14.69-35.46-14.69-27.51,0-50.14,22.66-50.14,50.21,0,13.74,5.63,26.89,15.58,36.37l1.85,1.64c9.04,7.62,20.49,11.81,32.3,11.81,26.15,0,48.13-20.5,50-46.62,1.37-12.79-2.38-28.96-8.78-48.2h0ZM36.7,100.85c-.81,1-2.04,1.59-3.33,1.59-2.36,0-4.28-1.94-4.28-4.3s1.94-4.3,4.28-4.3c.98,0,1.94.34,2.7.96,1.84,1.48,2.12,4.21.64,6.04h0Zm68.03-15.03c-12.37,16.5-38.8,10.94-55.74,11.73,0,0-3.01.18-6.03.68,0,0,1.13-.48,2.6-1.04,11.89-4.14,17.52-4.95,24.74-8.66,13.61-6.93,27.06-22.09,29.86-37.86-5.18,15.17-20.89,28.21-35.2,33.51-9.81,3.62-27.52,7.14-27.52,7.14l-.72-.38c-12.06-5.87-12.42-32.01,9.49-40.45,9.6-3.7,18.78-1.67,29.15-4.14,11.07-2.63,23.87-10.94,29.08-21.78,5.83,17.33,12.85,44.47.27,61.25h0Z"/></svg>