<?xml version="1.0" encoding="UTF-8"?><svg id="a" xmlns="http://www.w3.org/2000/svg" xmlns:xlink="http://www.w3.org/1999/xlink" viewBox="0 0 128 128"><defs><style>.f{fill:#fff;}.g{fill:#ff4785;}.h{mask:url(#c);}</style><mask id="c" x="23.87" y="14" width="80.26" height="100" maskUnits="userSpaceOnUse"><g id="d"><path id="e" class="f" d="m26.97,106.15l-3.1-82.54c-.1-2.73,1.99-5.04,4.71-5.21l70.21-4.39c2.77-.17,5.16,1.93,5.33,4.7,0,.1,0,.21,0,.31v89.94c0,2.78-2.25,5.03-5.03,5.03-.08,0-.15,0-.23,0l-67.11-3.01c-2.61-.12-4.7-2.22-4.8-4.83h0Z"/></g></mask></defs><rect class="g" x="0" y="0" width="128" height="128" rx="25" ry="25" transform="translate(128 0) rotate(90)"/><path id="b" class="f" d="m26.97,106.15l-3.1-82.54c-.1-2.73,1.99-5.04,4.71-5.21l70.21-4.39c2.77-.17,5.16,1.93,5.33,4.7,0,.1,0,.21,0,.31v89.94c0,2.78-2.25,5.03-5.03,5.03-.08,0-.15,0-.23,0l-67.11-3.01c-2.61-.12-4.7-2.22-4.8-4.83h0Z"/><g class="h"><path class="g" d="m83.14,26.29l.48-11.53,9.64-.76.42,11.89c.01.41-.31.76-.72.78-.18,0-.35-.05-.49-.16l-3.72-2.93-4.4,3.34c-.33.25-.8.19-1.05-.14-.11-.14-.16-.31-.15-.48Zm-12.33,25.4c0,1.96,13.18,1.02,14.94-.36,0-13.32-7.15-20.32-20.24-20.32s-20.42,7.11-20.42,17.77c0,18.57,25.06,18.93,25.06,29.06,0,2.84-1.39,4.53-4.46,4.53-3.99,0-5.57-2.04-5.38-8.97,0-1.5-15.22-1.97-15.69,0-1.18,16.8,9.28,21.64,21.26,21.64s20.7-6.18,20.7-17.38c0-19.9-25.43-19.37-25.43-29.23,0-4,2.97-4.53,4.73-4.53,1.86,0,5.2.33,4.92,7.79Z"/></g></svg>