<?xml version="1.0" encoding="UTF-8"?><svg id="a" xmlns="http://www.w3.org/2000/svg" viewBox="0 0 128 128"><defs><style>.b{fill:#fff;}.c{fill:#ff3e00;}</style></defs><rect class="c" x="0" y="0" width="128" height="128" rx="25" ry="25" transform="translate(128 0) rotate(90)"/><path class="b" d="m100.3,27.23c-9.29-13.29-27.63-17.23-40.89-8.78l-23.29,14.84c-6.36,4-10.74,10.5-12.07,17.9-1.11,6.16-.13,12.52,2.77,18.06-1.99,3.02-3.35,6.42-4,9.98-1.34,7.54.41,15.3,4.86,21.53,9.29,13.29,27.63,17.23,40.89,8.78l23.29-14.84c6.36-4,10.74-10.5,12.07-17.9,1.11-6.16.14-12.52-2.77-18.06,1.99-3.02,3.35-6.42,3.99-9.98,1.34-7.54-.41-15.3-4.86-21.53"/><path class="c" d="m57.14,102.03c-7.51,1.95-15.44-.99-19.86-7.36-2.68-3.75-3.73-8.42-2.93-12.95.14-.74.32-1.46.56-2.18l.44-1.34,1.19.88c2.76,2.03,5.84,3.56,9.11,4.55l.87.26-.08.86c-.11,1.23.23,2.46.94,3.46,1.33,1.92,3.72,2.81,5.98,2.22.51-.14.99-.35,1.43-.63l23.3-14.85c1.15-.73,1.95-1.9,2.19-3.24.24-1.37-.08-2.77-.88-3.9-1.33-1.92-3.72-2.81-5.98-2.22-.51.14-.99.35-1.43.63l-8.89,5.67c-1.46.93-3.06,1.63-4.73,2.08-7.51,1.95-15.44-.99-19.86-7.36-2.68-3.75-3.73-8.42-2.93-12.95.8-4.45,3.43-8.36,7.26-10.76l23.29-14.85c1.46-.93,3.06-1.63,4.73-2.08,7.51-1.95,15.44.99,19.86,7.36,2.68,3.75,3.73,8.42,2.93,12.95-.14.74-.32,1.46-.56,2.18l-.44,1.34-1.19-.88c-2.76-2.03-5.84-3.57-9.11-4.55l-.87-.26.08-.86c.1-1.23-.23-2.46-.94-3.46-1.33-1.92-3.72-2.81-5.98-2.22-.51.14-.99.35-1.43.63l-23.3,14.85c-1.15.73-1.95,1.9-2.19,3.24-.24,1.37.07,2.77.88,3.9,1.33,1.92,3.72,2.81,5.98,2.22.51-.14.99-.35,1.43-.63l8.89-5.66c1.46-.93,3.06-1.63,4.73-2.08,7.51-1.95,15.44.99,19.86,7.36,2.68,3.75,3.73,8.42,2.93,12.95-.8,4.45-3.43,8.36-7.26,10.76l-23.29,14.85c-1.46.93-3.06,1.63-4.73,2.08"/></svg>