<?xml version="1.0" encoding="UTF-8"?><svg id="Ebene_1" xmlns="http://www.w3.org/2000/svg" xmlns:xlink="http://www.w3.org/1999/xlink" viewBox="0 0 128 128"><defs><style>.cls-1{fill:#fff;}.cls-2{fill:url(#Unbenannter_Verlauf_3);}</style><linearGradient id="Unbenannter_Verlauf_3" x1="0" y1="64" x2="128" y2="64" gradientUnits="userSpaceOnUse"><stop offset="0" stop-color="#faae42"/><stop offset="1" stop-color="#ef3e31"/></linearGradient></defs><rect class="cls-2" x="0" y="0" width="128" height="128" rx="25" ry="25" transform="translate(128 0) rotate(90)"/><path class="cls-1" d="m75.61,19.34c43.96,29.89,29.74,62.86,29.74,62.86,0,0,12.5,14.11,7.45,26.46,0,0-5.16-8.65-13.8-8.65s-13.23,8.65-30,8.65c-37.34,0-55-31.2-55-31.2,33.64,22.13,56.61,6.46,56.61,6.46-15.16-8.8-47.39-50.88-47.39-50.88,28.07,23.91,40.21,30.21,40.21,30.21-7.24-5.99-27.55-35.26-27.55-35.26,16.25,16.46,48.54,39.43,48.54,39.43,9.17-25.42-8.8-48.07-8.8-48.07Z"/></svg>