<?xml version="1.0" encoding="UTF-8"?><svg id="a" xmlns="http://www.w3.org/2000/svg" viewBox="0 0 128 128"><defs><style>.b{fill:#fff;}.c{fill:#1a171b;}</style></defs><rect class="c" x="0" y="0" width="128" height="128" rx="25" ry="25" transform="translate(128 0) rotate(90)"/><path class="b" d="m98.18,14.01c-7.51.26-14.06,4.4-18.94,10.13-5.4,6.28-9,13.72-11.59,21.32-4.63-3.8-8.21-8.71-15.64-10.85-5.74-1.65-11.78-.97-17.33,3.17-2.63,1.96-4.44,4.93-5.3,7.72-2.23,7.25,2.34,13.7,4.42,16.02l4.54,4.87c.94.95,3.19,3.44,2.09,7.01-1.19,3.88-5.87,6.39-10.67,4.91-2.14-.65-5.22-2.25-4.53-4.5.28-.92.94-1.61,1.3-2.4.32-.68.48-1.2.58-1.5.88-2.86-.32-6.59-3.39-7.53-2.86-.88-5.79-.18-6.92,3.5-1.29,4.18.72,11.78,11.44,15.08,12.57,3.86,23.19-2.98,24.7-11.9.95-5.59-1.57-9.74-6.2-15.08l-3.77-4.17c-2.28-2.28-3.07-6.17-.7-9.15,1.99-2.52,4.83-3.59,9.48-2.33,6.78,1.84,9.81,6.55,14.86,10.35-2.08,6.83-3.45,13.7-4.68,19.85l-.75,4.59c-3.61,18.92-6.36,29.31-13.52,35.28-1.44,1.02-3.5,2.56-6.61,2.67-1.63.05-2.15-1.07-2.18-1.56-.04-1.14.92-1.67,1.56-2.18.96-.52,2.4-1.39,2.3-4.16-.1-3.28-2.82-6.12-6.74-5.99-2.94.1-7.42,2.87-7.25,7.93.18,5.23,5.05,9.14,12.39,8.9,3.93-.13,12.7-1.73,21.34-12.01,10.06-11.78,12.87-25.27,14.99-35.15l2.36-13.04c1.31.16,2.71.26,4.24.3,12.53.26,18.79-6.22,18.89-10.94.06-2.86-1.87-5.67-4.58-5.6-1.94.05-4.38,1.35-4.96,4.03-.57,2.63,3.99,5.01.42,7.32-2.53,1.64-7.07,2.79-13.46,1.85l1.16-6.42c2.37-12.18,5.3-27.15,16.39-27.52.81-.04,3.77.04,3.84,1.99.02.65-.14.82-.91,2.32-.78,1.17-1.07,2.16-1.04,3.3.11,3.11,2.47,5.15,5.89,5.03,4.58-.15,5.89-4.61,5.82-6.89-.18-5.38-5.85-8.78-13.36-8.53h0Z"/></svg>