<?xml version="1.0" encoding="UTF-8"?><svg xmlns="http://www.w3.org/2000/svg" viewBox="0 0 128 128"><defs><style>.c,.d{fill:#e2e8f0;}.d{fill-rule:evenodd;}.e{fill:#0f1729;}</style></defs><g id="a"><rect class="e" x="0" y="0" width="128" height="128" rx="25" ry="25" transform="translate(128 0) rotate(90)"/></g><g id="b"><path class="d" d="m78.23,35.01l9.02-9.37H14v9.37h64.23Z"/><path class="c" d="m77.55,62.7l35-36.01h-12.75s-29.38,29.96-29.38,29.96l7.14,6.05Z"/><path class="c" d="m104.63,76.34c0,9.19-7.45,16.65-16.65,16.65-7.43,0-13.72-4.86-15.87-11.59l-1.31-4.12-7.5,7.5.69,1.63c3.93,9.36,13.19,15.94,23.99,15.94,14.37,0,26.02-11.65,26.02-26.02,0-9.51-5.19-17.75-12.75-22.28l-1.77-1.06-6.87,6.95,3.13,1.65c5.29,2.79,8.89,8.35,8.89,14.73Z"/><path class="d" d="m48.12,100.15v-57.14s-9.37,0-9.37,0v57.14h9.37Z"/></g></svg>