<?xml version="1.0" encoding="UTF-8"?><svg id="a" xmlns="http://www.w3.org/2000/svg" xmlns:xlink="http://www.w3.org/1999/xlink" viewBox="0 0 128 128"><defs><style>.c{fill:#fff;}.d{fill:url(#b);}</style><linearGradient id="b" x1="0" y1="64" x2="128" y2="64" gradientTransform="translate(0 128) rotate(-90)" gradientUnits="userSpaceOnUse"><stop offset="0" stop-color="#2298bd"/><stop offset="1" stop-color="#0ed7b5"/></linearGradient></defs><rect class="d" x="0" y="0" width="128" height="128" rx="25" ry="25" transform="translate(128 0) rotate(90)"/><path class="c" d="m64,34c-13.33,0-21.67,6.67-25,20,5-6.67,10.83-9.17,17.5-7.5,3.8.95,6.52,3.71,9.53,6.76,4.9,4.98,10.58,10.74,22.97,10.74,13.33,0,21.67-6.67,25-20-5,6.67-10.83,9.17-17.5,7.5-3.8-.95-6.52-3.71-9.53-6.76-4.9-4.98-10.58-10.74-22.97-10.74Zm-25,30c-13.33,0-21.67,6.67-25,20,5-6.67,10.83-9.17,17.5-7.5,3.8.95,6.52,3.71,9.53,6.76,4.9,4.98,10.58,10.74,22.97,10.74,13.33,0,21.67-6.67,25-20-5,6.67-10.83,9.17-17.5,7.5-3.8-.95-6.52-3.71-9.53-6.76-4.9-4.98-10.58-10.74-22.97-10.74Z"/></svg>