<?xml version="1.0" encoding="UTF-8" standalone="no"?>
<!DOCTYPE svg PUBLIC "-//W3C//DTD SVG 1.1//EN" "http://www.w3.org/Graphics/SVG/1.1/DTD/svg11.dtd">
<!-- Created with Vectornator (http://vectornator.io/) -->
<svg height="100%" stroke-miterlimit="10" style="fill-rule:nonzero;clip-rule:evenodd;stroke-linecap:round;stroke-linejoin:round;" version="1.1" viewBox="0 0 512 512" width="100%" xml:space="preserve" xmlns="http://www.w3.org/2000/svg" xmlns:vectornator="http://vectornator.io" xmlns:xlink="http://www.w3.org/1999/xlink">
<defs>
<linearGradient gradientTransform="matrix(1 0 0 1 0 0)" gradientUnits="userSpaceOnUse" id="LinearGradient" x1="255.969" x2="256.577" y1="0.699599" y2="513.091">
<stop offset="0" stop-color="#6c6c6c"/>
<stop offset="1" stop-color="#272727"/>
</linearGradient>
<linearGradient gradientTransform="matrix(1.5625 0 0 1.5625 56 136)" gradientUnits="userSpaceOnUse" id="LinearGradient_2" x1="-7.11168" x2="256" y1="49.152" y2="103.766">
<stop offset="0" stop-color="#2298bd"/>
<stop offset="1" stop-color="#0ed7b5"/>
</linearGradient>
</defs>
<g id="Ebene-1" vectornator:layerName="Ebene 1">
<path d="M0 95C0 42.5329 42.5329 0 95 0L417 0C469.467 0 512 42.5329 512 95L512 417C512 469.467 469.467 512 417 512L95 512C42.5329 512 0 469.467 0 417L0 95Z" fill="url(#LinearGradient)" fill-rule="nonzero" opacity="1" stroke="none" vectornator:layerName="Rechteck 1"/>
<path d="M256 136C202.667 136 169.333 162.667 156 216C176 189.333 199.333 179.333 226 186C241.214 189.803 252.089 200.842 264.127 213.059C283.736 232.964 306.43 256 356 256C409.333 256 442.667 229.333 456 176C436 202.667 412.667 212.667 386 206C370.786 202.197 359.911 191.158 347.873 178.941C328.264 159.036 305.57 136 256 136ZM156 256C102.667 256 69.3328 282.667 56 336C76 309.333 99.3328 299.333 126 306C141.214 309.803 152.089 320.842 164.127 333.059C183.736 352.964 206.43 376 256 376C309.333 376 342.667 349.333 356 296C336 322.667 312.667 332.667 286 326C270.786 322.197 259.911 311.158 247.873 298.941C228.264 279.036 205.57 256 156 256Z" fill="url(#LinearGradient_2)" fill-rule="nonzero" opacity="1" stroke="none" vectornator:layerName="path"/>
</g>
</svg>
