<?xml version="1.0" encoding="UTF-8"?>
<svg id="Ebene_1" data-name="Ebene 1" xmlns="http://www.w3.org/2000/svg" viewBox="0 0 256 256">
  <defs>
    <style>
      .cls-1, .cls-2 {
        fill-rule: evenodd;
      }

      .cls-1, .cls-3 {
        fill: #24c8db;
      }

      .cls-2, .cls-4 {
        fill: #ffc131;
      }

      .cls-5 {
        fill: #27282c;
      }
    </style>
  </defs>
  <g id="Ebene_2" data-name="Ebene 2">
    <path class="cls-5" d="m45,0h166c24.85,0,45,20.15,45,45v166c0,24.85-20.15,45-45,45H45c-24.85,0-45-20.15-45-45V45C0,20.15,20.15,0,45,0Z"/>
  </g>
  <g>
    <path class="cls-4" d="m166.52,98.07c0,11.56-9.37,20.93-20.93,20.93s-20.93-9.37-20.93-20.93,9.37-20.93,20.93-20.93,20.93,9.37,20.93,20.93Z"/>
    <circle class="cls-3" cx="110.39" cy="158.01" r="20.93"/>
    <g>
      <path class="cls-2" d="m188.98,165.14c-8.41,5.44-17.77,9.25-27.59,11.23,2.85-8.11,3.79-16.77,2.76-25.31,29.27-10.23,44.7-42.25,34.47-71.51-10.23-29.27-42.25-44.7-71.51-34.47-10.89,3.81-20.35,10.88-27.08,20.26-10.65,1.2-21.01,4.22-30.64,8.94,13.07-42.16,57.84-65.75,100-52.68,42.16,13.07,65.75,57.84,52.68,100-5.56,17.95-17.28,33.37-33.08,43.54h0Zm-118.64-76.31l19.6,2.38c.44-3.78,1.27-7.51,2.47-11.13-7.75,1.8-15.19,4.75-22.07,8.75h0Z"/>
      <path class="cls-1" d="m66.91,90.93c8.46-5.49,17.89-9.34,27.78-11.32-2.99,8.11-4.07,16.81-3.14,25.4-29.21,10.39-44.46,42.49-34.07,71.7,10.39,29.21,42.49,44.46,71.7,34.07,10.77-3.83,20.11-10.86,26.78-20.15,10.64-1.17,21.01-4.16,30.64-8.85-13.11,42.15-57.9,65.69-100.05,52.58-42.15-13.11-65.69-57.9-52.58-100.05,5.56-17.87,17.22-33.23,32.94-43.39h0Zm118.64,76.31l-.38.19.38-.19Z"/>
    </g>
  </g>
</svg>