<?xml version="1.0" encoding="UTF-8"?>
<svg id="Ebene_1" data-name="Ebene 1" xmlns="http://www.w3.org/2000/svg" viewBox="0 0 256 256">
  <defs>
    <style>
      .cls-1 {
        fill: #fff;
      }

      .cls-2 {
        fill: #5558af;
      }
    </style>
  </defs>
  <g id="Ebene_2" data-name="Ebene 2">
    <rect class="cls-2" width="256" height="256" rx="45" ry="45"/>
  </g>
  <g>
    <path class="cls-1" d="m197.28,104.65c1.64,1.64,3.57,2.94,5.7,3.85,4.45,1.86,9.47,1.86,13.92,0,4.3-1.83,7.73-5.25,9.55-9.55,1.86-4.45,1.86-9.47,0-13.92-1.83-4.3-5.25-7.73-9.55-9.55-4.45-1.86-9.47-1.86-13.92,0-4.3,1.83-7.73,5.25-9.55,9.55-1.86,4.45-1.86,9.47,0,13.92.91,2.12,2.22,4.06,3.85,5.7h0Zm-5.24,16.61v53.93h8.99c3.09-.02,6.16-.3,9.2-.87,3.05-.54,5.99-1.56,8.71-3.04,2.57-1.39,4.79-3.36,6.49-5.73,1.79-2.63,2.69-5.76,2.56-8.94v-35.34h-35.95Zm-29.13-22.61c2.39.02,4.75-.46,6.95-1.4,4.3-1.83,7.72-5.25,9.54-9.55,1.86-4.45,1.86-9.47,0-13.92-1.83-4.3-5.25-7.73-9.55-9.55-2.2-.94-4.57-1.42-6.96-1.4-2.38-.02-4.73.46-6.91,1.4-1.63.7-2.14,1.6-4.38,2.7v27.63c2.25,1.1,2.75,2,4.38,2.7,2.19.95,4.55,1.42,6.94,1.4h0Zm-11.32,90.8c2.25.49,3.06.87,4.65,1.08,1.75.25,3.51.38,5.27.39,2.72-.02,5.44-.3,8.1-.87,2.71-.55,5.32-1.56,7.68-3,2.33-1.43,4.28-3.38,5.73-5.69,1.6-2.7,2.38-5.8,2.26-8.94v-62.4h-33.7v79.43h.01Zm-123.59,17.2l116.85,20.22V29.13L28,49.35v157.3h0Z"/>
    <path class="cls-2" d="m113.39,89.8l-53.93,3.28v12.44l20.22-.81v57.67l13.48.79v-58.99l20.22-.9v-13.48h0Z"/>
  </g>
</svg>