<?xml version="1.0" encoding="UTF-8"?><svg id="a" xmlns="http://www.w3.org/2000/svg" viewBox="0 0 128 128"><defs><style>.b{fill:#fff;}.c{fill:#191919;}</style></defs><path class="c" d="m25,128c-13.81,0-25-11.19-25-25V25c0-13.81,11.19-25,25-25h78c13.81,0,25,11.19,25,25v78c0,13.81-11.19,25-25,25H35"/><path class="b" d="m33.84,84.14c1.34,0,2.43-1.09,2.43-2.43s-1.09-2.43-2.43-2.43-2.43,1.09-2.43,2.43,1.09,2.43,2.43,2.43Z"/><path class="b" d="m63.84,96.71c-1.43,0-2.43,1.14-2.43,2.43,0,1.43,1.14,2.43,2.43,2.43,1.43,0,2.43-1.14,2.43-2.43,0-1.43-1.14-2.43-2.43-2.43Z"/><path class="b" d="m63.84,31.71c1.43,0,2.43-1.14,2.43-2.43s-1.14-2.57-2.43-2.57c-1.43,0-2.43,1.14-2.43,2.43s1,2.57,2.43,2.57Z"/><path class="b" d="m93.84,49.14c1.43,0,2.43-1.14,2.43-2.43s-1.14-2.43-2.43-2.43-2.43,1.14-2.43,2.43,1,2.43,2.43,2.43Z"/><path class="b" d="m33.84,49.14c1.43,0,2.43-1.14,2.43-2.43s-1-2.57-2.43-2.57-2.43,1.14-2.43,2.43,1,2.57,2.43,2.57Z"/><path class="b" d="m93.84,84.14c1.34,0,2.43-1.09,2.43-2.43s-1.09-2.43-2.43-2.43-2.43,1.09-2.43,2.43,1.09,2.43,2.43,2.43Z"/><path class="b" d="m63.84,61.71c-1.43,0-2.43,1.14-2.43,2.43s1.14,2.43,2.43,2.43c1.43,0,2.43-1.14,2.43-2.43s-1.14-2.43-2.43-2.43Z"/><path class="b" d="m112.13,62.57h-31.86c-.14-1.71-.57-3.43-1.29-5l9.86-5.71,1.43-.86-1.71-2.86-1.43.86-9.71,5.71c-1.14-1.57-2.57-3-4.29-4.14l.29-.43,16-27.43.86-1.43-2.86-1.71-.86,1.43-16,27.29-.29.43c-1.57-.57-3.14-1-4.86-1.29v-12.57h-3.29v12.57c-1.71.14-3.43.57-4.86,1.29l-.43-.43-15.86-27.29-.86-1.43-2.86,1.71.86,1.43,15.86,27.29.29.43c-1.57,1.14-3,2.57-4.14,4.14l-9.71-5.71-1.43-.86-1.71,2.86,1.43.86,9.86,5.71c-.71,1.57-1.14,3.29-1.29,5H13.84v3.29h33.43c.14,1.71.57,3.43,1.29,5l-9.86,5.71-1.43.86,1.71,2.86,1.43-.86,9.71-5.71c1,1.43,2.14,2.57,3.43,3.57l-.43.57-15.71,27.57-.86,1.43,2.86,1.71.86-1.43,15.86-27.29.29-.57c1.71.86,3.57,1.43,5.71,1.57v12.57h3.29v-12.57c2.14-.14,4-.86,5.86-1.71l.29.43,16,27.43.86,1.43,2.86-1.71-.86-1.43-15.86-27.29-.29-.57c1.29-1,2.43-2.14,3.29-3.43l9.71,5.71,1.43.86,1.71-2.86-1.43-.86-9.86-5.71c.71-1.57,1.14-3.29,1.29-5h33.43v-3.43h-1.71Zm-48.29,14.71c-7.29,0-13.14-5.86-13.14-13.14s5.86-13.14,13.14-13.14,13.14,5.86,13.14,13.14-6,13.14-13.14,13.14Z"/></svg>