<?xml version="1.0" encoding="UTF-8"?>
<svg id="Ebene_1" data-name="Ebene 1" xmlns="http://www.w3.org/2000/svg" viewBox="0 0 256 256">
  <defs>
    <style>
      .cls-1 {
        fill: #fff;
      }

      .cls-2 {
        fill: #abcd03;
      }

      .cls-3 {
        fill: #69685a;
      }

      .cls-4 {
        fill: #8c8a78;
      }

      .cls-5 {
        fill: #7c4698;
      }

      .cls-6 {
        fill: #fffcdb;
      }

      .cls-7 {
        fill: #fefbda;
      }
    </style>
  </defs>
  <g id="Ebene_2" data-name="Ebene 2">
    <path class="cls-5" d="m45,0h166c24.85,0,45,20.15,45,45v166c0,24.85-20.15,45-45,45H45c-24.85,0-45-20.15-45-45V45C0,20.15,20.15,0,45,0Z"/>
  </g>
  <g>
    <path class="cls-2" d="m138.85,84.61l-.06.24.06-.24Zm5.62-.55s.04.01.04.04l-.04-.04Zm-5.62.55c.01-.56,1.41-5.86,1.59-6.57.29-1.13.55-2.21.81-3.26.17-.7.78-2.69.8-3.28-.37.27-1.42,2.58-1.7,3.04-1.41,2.34-4.88,10.55-5.71,13.59-.75,2.71-2.8,9.66-2.6,11.93l1.95,1.43.4.17-.06.1c.71-.01.15-.04.37.16v87.11l.12-.04c-.2-.4-.09-65.02-.09-76.27,0-3.51-.16-7.44.01-10.9l.81.29c.37-.14,2.45.26,3.05.32,3.61-5.59,6.26-9.12,10.09-14.02l2.74-3.32c.19-.25.29-.3.47-.52l8.22-8.98,7.74-7.37c.32-.24.4-.2.5-.6l-3.6,1.37c-2.19.87-3.84,1.62-5.86,2.75-3.53,1.98-6.54,3.88-9.49,6.83-1.43,1.43-2.36,2.29-3.62,3.88-.26.34-.9,1.19-1.14,1.38.12-.56,1.26-2.48,1.62-3.12,1.41-2.53,3.07-4.83,4.72-7.2,1.14-1.65,2.89-3.83,4.14-5.45.34-.44.7-.92,1.08-1.34.19-.21,4.24-4.95,4.33-5.26-.55.36-1.06.73-1.61,1.14l-7.65,6.33c-.46.45-.91.98-1.38,1.37-1.16.92-4.27,4.48-5.39,5.86-2.59,3.2-3.42,4.74-5.33,8.01-.1.16.01,0-.12.2-.09.11-.15.17-.21.25h0Z"/>
    <path class="cls-2" d="m142.05,71.49h.11l-.09-.12-.02.12Z"/>
    <path class="cls-7" d="m134.83,189c2.24-4.29,2.82-11.45,2.86-16.83.06-7.32-2.53-14.12-2.33-17.31,1.46,6.2,3.79,11.01,4.01,18.08.09,3-.39,7.33-.82,10.3-.51,3.46-1.9,5.51-3.55,7.43v.12c.87-.5,1.75-1.36,2.35-2.02,2.28-2.51,3.53-5.42,4.29-8.93.92-4.32,1.92-11.63,1.46-16.14-.24-2.33-.96-5.08-1.57-7.22-2.13-7.37-4.5-7.15-5.39-12.26-.41-2.4-.31-5.92-.24-8.44.31,2.4.46,5.15.9,7.54.45,2.46,1.69,3.89,2.72,5.77,5.01,9.21,6.08,17.32,4.23,27.9-.41,2.38-.91,4.64-1.7,6.77-1.36,3.58-1.78,3.4-2.9,5.49,1.38-1.19,3.37-4.96,4.21-7.27,1.54-4.24,3.19-14.72,3.48-19.41.26-4.09-.12-6.76-.81-10.59-1.26-6.94-3.48-11.24-6.26-16.7-1.61-3.16-2.55-4.07-3.19-8.29-.46-3.09-.91-7.54-.85-10.68.14.29.11.31.14.71l.45,4.29c.19,1.57.4,3.17.67,4.7.76,4.21,1.24,4.19,3.1,7.71,2.3,4.38,5.33,9.59,6.62,14.99,1.43,5.98,1.97,13.51,1.06,19.8-.46,3.16-2.5,11.91-3.83,15.14-.25.61-.63,1.27-.82,1.84.73-.61,1.97-2.71,2.53-3.77.85-1.57,1.19-2.61,1.63-4.55,2.35-10.63,3.26-23.13,1.75-33.88-2.68-19.17-11.15-20.08-11.76-31.45-.11-2.02.19-5.28.12-6.01l-.02-2.84-1.83-.9-.81-.29c-.19,3.46-.01,7.39-.01,10.9.02,11.24-.1,75.86.1,76.26h0Zm-.52-32.44c-.58,1.22-.31,1.94-1.73,4.14-2.43,3.77-5.01,6.22-5.29,12.11-.17,3.77.9,6.42,2.16,9.39,1.05,2.44,2.89,5.71,4.86,6.67v-32.31Z"/>
    <path class="cls-1" d="m189.46,140.52v49.84c0,1.83,2.12,3.42,4.19,3.42h25.03c1.56,0,2.59-.67,3.33-1.52.96-1.07.86-2.16.86-4.11v-39.25c0-2.07.05-2.74.65-4.21.41-1.02,1.27-2.2,2.12-2.85,2.95-2.28,5.86-2.58,9.59-2.64,1.52-.02,2.61-.71,2.65-2.31.01-.87.11-1.46.11-2.43v-23.83c0-2.34-.72-4.08-2.6-5-.57-.27-1.33-.51-2.14-.51-8.5,0-13.89-.31-21.61,3.09-5.16,2.26-8.29,4.72-11.99,8.41-2.21,2.21-5.24,6.43-6.53,9.34-1.22,2.75-1.57,3.63-2.44,6.61-.6,1.93-1.22,5.46-1.22,7.94h0Zm-52.03-34.66c.25,1.43-.04,2.85.68,6.3.86,4.08,2.09,6.57,4.34,9.78.96,1.36,1.83,2.87,2.7,4.37,1.74,2.99,3.22,6.15,4.22,9.89.97,3.61,1.98,7.79,2.51,11.6,1.18,8.41,1.08,17.97-.58,26.17-1.26,6.22-2.69,10.14-6.37,14.79-1.64,2.08-3.09,2.95-3.57,3.52,4.32-.36,11.63-2.97,15.03-4.74,2.38-1.23,4.22-2.21,6.16-3.66.5-.36.96-.73,1.42-1.12l2.5-2.34c.37-.35.71-.81,1.13-1.29,6.93-7.76,9.51-19.87,6.93-30.3-3.27-13.24-12.02-19.56-22.81-26.36-1.02-.65-2-1.21-3.11-1.85-2.77-1.63-5.47-4.59-6.93-7.74-1.33-2.9-1.58-4.77-1.01-8.19l-3.27-1.65.02,2.84h0Z"/>
    <path class="cls-1" d="m18,79.33v24.26c0,1.97,1.72,3.89,3.09,4.52,1.69.78,4.89.55,7.05.55h11.47c1.87,0,4.29-.15,5.33,2.28.54,1.24.3,9.46.3,11.17v61.19c0,1.92-.22,5.93.17,7.43.5,1.82,2.19,3.27,4.45,3.27h26.35c2.33,0,4.01-1.33,4.62-2.99.5-1.36.24-5.57.24-7.49v-68.9c0-1.32.02-2.56.42-3.43,1.41-3.12,5.56-2.51,8.95-2.51h11.58c1.34,0,2.28-.19,3.15-.71.54-.31.63-.41,1.08-.78,1.07-.91,1.83-2.48,1.83-4.02v-23.28c0-3.1-2.5-5.62-5.4-5.62H23.29c-2.79,0-5.29,2.59-5.29,5.08h0Z"/>
    <path class="cls-6" d="m134.33,101.76l.06-.1-.4-.17-7.58-3.06c.86,1.61,2.46,4.9,2.92,6.82.6,2.41.73,6.35-.29,8.51-1.82,3.86-6.42,7.29-9.98,9.43-4.09,2.45-5.13,3.28-8.51,6.05l-5.23,4.45c-1.65,1.65-2,1.83-3.55,3.75-.35.42-.7.87-1.05,1.38-.57.8-1.36,2-1.84,3.01-4.62,9.57-4.7,22.23.95,31.4,3.52,5.72,8.86,11.41,14.91,14.21,1.74.81,5.01,2.41,7.02,2.71-1.69-1.49-2.99-.36-8.39-6.97-2.16-2.64-4.19-5.77-6.03-9.18-1.84-3.42-3.21-6.84-4.14-11.07-1.11-5.01.22-8.29,2.08-12.29,1.92-4.13,3.72-5.89,6.47-8.86,1.78-1.92,8.63-6.68,11-8.07,5.2-3.09,5.97-4.22,8.12-10.85l1.75-5.86c-.87,4.53-1.38,8.8-3.47,12.63-1.19,2.18-2.29,2.71-4.12,4.04-5.7,4.16-11.24,6.91-15.7,12.87-1.74,2.33-3.2,5.06-4.19,7.94-.9,2.58-1.32,3.94-.88,6.94,1.16,7.96,6.06,15.83,10.9,21.75l3.37,3.79c1.11,1.22,3.99,2.55,6,3.15,1.61.49,4.79,1.51,6.33,1.64-.82-.14-3.35-1.31-4.19-1.69-3.81-1.73-7.38-4.68-9.88-7.86-3.15-4.01-5.91-11.62-4.44-18.3,1.36-6.18,6.15-10.8,10.41-13.3,1.34-.78,2.56-1.38,3.71-2.24,3.58-2.69,5.16-6.62,6.58-11.01-.05,1.13-.83,3.63-1.21,4.7-2.5,7.1-6.71,7.24-11.84,11.87-2.75,2.48-5.89,7.13-6.66,11.09-1.16,5.91,2.91,12.91,6.11,17.17,3.55,4.73,6.86,6.72,12.6,8.24.4.1,1.87.6,2.24.4-.17-.31-.09-.17-.5-.39-2.6-1.39-4.33-4.19-5.46-6.89-1.63-3.88-2.49-5.96-2.12-10.8.8-10.29,5.44-10.34,7.63-15.54.51-1.22.44-1.31.44-2.76v-26.35c.04-8.71-.16-17.62.04-26.3h0Z"/>
    <path d="m138.59,189.91c.19-.31.05-.24.46-.49l-.46.49Zm-.17,4.64h-2.21c-1.88-.02-3.76-.09-5.18-.11l-5.03-.5c-1.65-.24-3.1-.52-4.62-.9-4.77-1.19-9.31-3.23-13.24-5.95-1.74-1.21-4.58-3.51-6-5.04-2.71-2.94-3.81-4.53-5.76-7.91-4.45-7.69-5.24-19.1-2.95-27.43,1.63-5.97,3.91-8.96,7.3-13.31.72-.92,2.53-2.66,3.35-3.5,2.29-2.29,6.63-5.33,9.31-7.12,1.13-.76,2.18-1.46,3.31-2.2.57-.39,1.07-.72,1.65-1.11,2.43-1.62,6.21-3.6,7.55-6.12,3.86-7.23-1.99-15.83-2.28-17.06.15-.21.35-.32.6-.5.29-.21.37-.32.61-.49.62.32,1.19.76,1.8,1.17l3.57,2.38c.61.41,1.19.83,1.82,1.19l1.95,1.43-7.58-3.06c.86,1.61,2.46,4.9,2.92,6.82.6,2.41.73,6.35-.29,8.51-1.82,3.86-6.42,7.29-9.98,9.43-4.09,2.45-5.13,3.28-8.51,6.05l-5.21,4.45c-1.65,1.65-2,1.83-3.55,3.75-.35.42-.7.87-1.05,1.38-.57.8-1.36,2-1.84,3.01-4.62,9.57-4.7,22.23.95,31.4,3.52,5.72,8.86,11.41,14.91,14.21,1.74.81,5.01,2.41,7.02,2.71-1.69-1.49-2.99-.36-8.39-6.97-2.16-2.64-4.19-5.77-6.03-9.18-1.84-3.42-3.21-6.84-4.14-11.07-1.11-5.01.22-8.29,2.08-12.29,1.92-4.13,3.72-5.89,6.47-8.86,1.78-1.92,8.63-6.68,11-8.07,5.2-3.09,5.97-4.22,8.12-10.85l1.75-5.86c-.87,4.53-1.38,8.8-3.47,12.63-1.19,2.18-2.29,2.71-4.12,4.04-5.7,4.16-11.24,6.91-15.7,12.87-1.74,2.33-3.2,5.06-4.19,7.94-.9,2.58-1.32,3.94-.88,6.94,1.16,7.96,6.06,15.83,10.9,21.75l3.37,3.79c1.11,1.22,3.99,2.55,6,3.15,1.61.49,4.79,1.51,6.33,1.64-.82-.14-3.35-1.31-4.19-1.69-3.81-1.73-7.38-4.68-9.88-7.86-3.15-4.01-5.91-11.62-4.44-18.3,1.36-6.18,6.15-10.8,10.41-13.3,1.34-.78,2.56-1.38,3.71-2.24,3.58-2.69,5.16-6.62,6.58-11.01-.05,1.13-.83,3.63-1.21,4.7-2.5,7.1-6.71,7.24-11.84,11.87-2.75,2.48-5.89,7.13-6.66,11.09-1.16,5.91,2.91,12.91,6.11,17.17,3.55,4.73,6.86,6.72,12.6,8.24.4.1,1.87.6,2.24.4-.17-.31-.09-.17-.5-.39-2.6-1.39-4.33-4.19-5.46-6.89-1.63-3.88-2.49-5.96-2.12-10.8.8-10.29,5.44-10.34,7.63-15.54.51-1.22.44-1.31.44-2.76v-26.35c0-8.71-.19-17.62.01-26.29.71-.01.15-.04.37.16v87.11l.12-.04c2.24-4.29,2.82-11.45,2.86-16.83.06-7.32-2.53-14.12-2.33-17.31,1.46,6.2,3.79,11.01,4.01,18.08.09,3-.39,7.33-.82,10.3-.51,3.46-1.9,5.51-3.55,7.43-.27.14-.22.02-.34.34.34-.1.24-.12.32-.21.88-.5,1.77-1.36,2.36-2.02,2.28-2.51,3.53-5.42,4.29-8.93.92-4.32,1.92-11.63,1.46-16.14-.24-2.33-.96-5.08-1.57-7.22-2.13-7.37-4.5-7.15-5.39-12.26-.41-2.4-.31-5.92-.24-8.44.31,2.4.46,5.15.9,7.54.45,2.46,1.69,3.89,2.72,5.77,5.01,9.21,6.08,17.32,4.23,27.9-.41,2.38-.91,4.64-1.7,6.77-1.36,3.58-1.78,3.4-2.9,5.49,1.38-1.19,3.37-4.96,4.21-7.27,1.54-4.24,3.19-14.72,3.48-19.41.26-4.09-.12-6.76-.81-10.59-1.26-6.94-3.48-11.24-6.26-16.7-1.61-3.16-2.55-4.07-3.19-8.29-.46-3.09-.91-7.54-.85-10.68.14.29.11.31.14.71l.45,4.29c.19,1.57.4,3.17.67,4.7.76,4.21,1.24,4.19,3.1,7.71,2.3,4.38,5.33,9.59,6.62,14.99,1.43,5.98,1.97,13.51,1.06,19.8-.46,3.16-2.5,11.91-3.83,15.14-.25.61-.63,1.27-.82,1.84.73-.61,1.97-2.71,2.53-3.77.85-1.57,1.19-2.61,1.63-4.55,2.35-10.63,3.26-23.13,1.75-33.88-2.68-19.17-11.15-20.08-11.76-31.45-.11-2.02.19-5.28.12-6.01.25,1.43-.04,2.85.68,6.3.86,4.08,2.09,6.57,4.34,9.78.96,1.36,1.83,2.87,2.7,4.37,1.74,2.99,3.22,6.15,4.22,9.89.97,3.61,1.98,7.79,2.51,11.6,1.18,8.41,1.08,17.97-.58,26.17-1.26,6.22-2.69,10.14-6.37,14.79-1.64,2.08-3.09,2.95-3.57,3.52,4.32-.36,11.63-2.97,15.03-4.74,2.38-1.23,4.22-2.21,6.16-3.66.5-.36.96-.73,1.42-1.12l2.5-2.34c.37-.35.71-.81,1.13-1.29,6.93-7.76,9.51-19.87,6.93-30.3-3.27-13.24-12.02-19.56-22.81-26.36-1.02-.65-2-1.21-3.11-1.85-2.77-1.63-5.47-4.59-6.93-7.74-1.33-2.9-1.58-4.77-1.01-8.19l-3.22-1.67-1.83-.9c.37-.14,2.45.26,3.05.32l5.4.7c0,.52-.12.8-.21,1.22-.86,4.03.85,8.44,3.55,11.1,2.71,2.69,2.92,2.74,6.3,4.63,4.22,2.35,6.99,4.18,10.82,7.04l3.62,3.22c.51.51.82.93,1.32,1.43.31.3.39.46.66.77,3.31,3.72,5.72,8.49,7.29,13.21,2.07,6.21,2.25,13.19.88,19.38-.35,1.56-.75,2.95-1.24,4.27-.5,1.34-.97,2.56-1.59,3.81-.51,1.01-1.88,3.5-2.55,4.4-1.57,2.15-2.44,3.36-4.34,5.25-1.46,1.46-1.42,1.34-2.81,2.59-3.48,3.12-10.29,6.21-14.66,7.28-2.45.61-4.4,1.07-6.93,1.34l-2.5.25c-.88.14-2,.19-3.21.21h0Zm-4.11-37.99l.02,32.31c-1.98-.96-3.83-4.23-4.86-6.67-1.27-2.96-2.34-5.62-2.16-9.39.27-5.9,2.86-8.34,5.29-12.11,1.41-2.2,1.13-2.92,1.72-4.14h0Z"/>
    <path class="cls-3" d="m135,190.78v-.12c-.26.14-.21.02-.32.34.32-.09.24-.11.32-.21h0Z"/>
    <path class="cls-4" d="m139.05,189.43c-.41.25-.27.17-.46.49l.46-.49Z"/>
  </g>
</svg>