<?xml version="1.0" encoding="UTF-8"?><svg id="a" xmlns="http://www.w3.org/2000/svg" viewBox="0 0 128 128"><defs><style>.b{fill:#fff;}.c{fill:#398ccb;}</style></defs><rect class="c" x="0" y="0" width="128" height="128" rx="25" ry="25" transform="translate(128 0) rotate(90)"/><path class="b" d="m93.88,61.29l19.7,11.37v22.75l-19.7,11.37-8.74-5.06-21.26,12.27-21.13-12.2-8.62,4.99-19.7-11.39v-22.73l19.7-11.37,19.7,11.37v22.73l-5.96,3.45,16.02,9.25,16.14-9.32-5.84-3.38v-22.73l19.7-11.37Zm-14.58,17.3v13.88l12.02,6.94v-13.88l-12.02-6.94Zm29.15-.02l-12.02,6.94v13.9l12.02-6.96v-13.88Zm-88.91,0v13.88l12.02,6.94v-13.88l-12.02-6.94Zm29.15,0l-12.02,6.94v13.88l12.02-6.94v-13.88Zm45.18-11.35l-12.02,6.94,12.02,6.94,12.02-6.94-12.02-6.94Zm-59.76-.02l-12.02,6.96,12.02,6.92,12.02-6.92-12.02-6.96Zm9.8-35.27v5.91l-18.22,10.53v17.79l-5.12,2.96v-23.71l23.34-13.48Zm19.7-17.92l19.71,11.37v6.25l23.85,13.78v23.56l-5.12-2.96v-17.65l-18.74-10.82v10.58l-19.7,11.37-19.7-11.37v-22.74l19.68-11.37Zm-14.56,17.28v13.88l12,6.94v-13.87l-12-6.94Zm29.14,0l-12,6.94v13.87l12-6.93v-13.88Zm-14.58-11.36l-12,6.94,12,6.94,12.02-6.94-12.02-6.94Z"/></svg>