<?xml version="1.0" encoding="UTF-8"?><svg id="a" xmlns="http://www.w3.org/2000/svg" xmlns:xlink="http://www.w3.org/1999/xlink" viewBox="0 0 128 128"><defs><style>.h{fill:#fff;}.i{fill:url(#f);}.j{fill:url(#g);}.k{fill:url(#e);}.l{fill:url(#d);}.m{fill:url(#b);}.n{fill:url(#c);}</style><linearGradient id="b" x1="1.48" y1="128.71" x2="1.48" y2="126.52" gradientTransform="translate(-102.41 5869.64) scale(103.41 -45.49)" gradientUnits="userSpaceOnUse"><stop offset="0" stop-color="#1e90ff"/><stop offset="1" stop-color="#ff1e56"/></linearGradient><linearGradient id="c" x1=".66" y1="128.81" x2=".66" y2="127.19" gradientTransform="translate(24.96 7973.65) scale(93.32 -61.79)" xlink:href="#b"/><linearGradient id="d" x1="-.97" y1="129.48" x2="-.97" y2="128.41" gradientTransform="translate(156.11 12097.4) scale(50.44 -93.32)" xlink:href="#b"/><linearGradient id="e" x1="-.97" y1="130.65" x2="-.97" y2="129.57" gradientTransform="translate(156.11 12205.8) scale(50.44 -93.32)" xlink:href="#b"/><linearGradient id="f" x1=".66" y1="132.91" x2=".66" y2="131.3" gradientTransform="translate(24.96 8227.14) scale(93.32 -61.79)" xlink:href="#b"/><linearGradient id="g" y1="134.7" y2="132.51" gradientTransform="translate(-102.41 6142.02) scale(103.41 -45.49)" xlink:href="#b"/></defs><rect x="0" y="0" width="128" height="128" rx="25" ry="25" transform="translate(128 0) rotate(90)"/><path class="m" d="m67.27,14.03c-11.5-.4-23,3.17-32.52,10.71l6.35,3.57c7.54-5.55,17.05-7.93,26.18-7.54v-6.74Z"/><path class="n" d="m100.98,29.1c-7.93-8.33-18.24-13.48-29.35-14.67v6.74c9.52,1.59,17.85,5.95,24.59,12.69l4.76-4.76Z"/><path class="l" d="m115.25,61.62c-.4-10.31-4.36-20.62-11.1-29.35l-4.76,4.76c5.55,7.54,8.73,15.86,9.12,24.59h6.74Z"/><path class="k" d="m104.15,95.73c6.74-8.72,10.71-19.04,11.1-29.35h-6.74c-.4,8.72-3.57,17.05-9.12,24.59l4.76,4.76Z"/><path class="i" d="m71.63,113.57c10.71-1.19,21.42-6.35,29.35-14.67l-4.76-4.76c-6.74,7.14-15.47,11.5-24.59,12.69v6.74Z"/><path class="j" d="m34.75,103.26c9.52,7.54,21.02,11.1,32.52,10.71v-6.74c-9.12.4-18.24-1.98-26.18-7.54l-6.35,3.57Z"/><path class="h" d="m65.46,36.44c4.24,0,8.15.72,11.74,2.17,3.59,1.4,6.66,3.35,9.22,5.87,2.61,2.52,4.63,5.47,6.08,8.87,1.44,3.35,2.17,6.99,2.17,10.9s-.72,7.57-2.17,10.97c-1.44,3.35-3.47,6.29-6.08,8.8-2.56,2.52-5.64,4.49-9.22,5.94-3.59,1.4-7.5,2.1-11.74,2.1s-8.22-.7-11.81-2.1c-3.54-1.44-6.59-3.42-9.15-5.94-2.56-2.52-4.56-5.45-6.01-8.8-1.44-3.4-2.17-7.06-2.17-10.97s.72-7.55,2.17-10.9c1.44-3.4,3.45-6.36,6.01-8.87,2.56-2.52,5.61-4.47,9.15-5.87,3.59-1.44,7.52-2.17,11.81-2.17Zm0,13.27c-2,0-3.91.37-5.73,1.12-1.77.7-3.33,1.7-4.68,3-1.35,1.3-2.42,2.84-3.21,4.61s-1.19,3.7-1.19,5.8.4,4.03,1.19,5.8,1.86,3.31,3.21,4.61c1.35,1.3,2.91,2.33,4.68,3.07,1.82.7,3.73,1.05,5.73,1.05s3.89-.35,5.66-1.05c1.82-.75,3.4-1.77,4.75-3.07,1.4-1.3,2.49-2.84,3.28-4.61.79-1.77,1.19-3.7,1.19-5.8s-.4-4.03-1.19-5.8c-.79-1.77-1.89-3.31-3.28-4.61-1.35-1.3-2.93-2.31-4.75-3-1.77-.75-3.66-1.12-5.66-1.12Z"/></svg>