<?xml version="1.0" encoding="UTF-8"?><svg id="a" xmlns="http://www.w3.org/2000/svg" xmlns:xlink="http://www.w3.org/1999/xlink" viewBox="0 0 128 128"><defs><style>.c{fill:#fff;}.d{fill:url(#b);}.e{fill:#1e1e1e;}</style><linearGradient id="b" x1="0" y1="64" x2="128" y2="64" gradientTransform="translate(0 128) rotate(-90)" gradientUnits="userSpaceOnUse"><stop offset="0" stop-color="#0096ff"/><stop offset="1" stop-color="#ff1e56"/></linearGradient></defs><rect class="d" x="0" width="128" height="128" rx="25" ry="25" transform="translate(128 128) rotate(180)"/><path class="c" d="m64,14l-27.97,15.98.05,12.56,27.92-15.95,32.81,18.75,10.94,6.25v-12.6l-43.75-25Zm-4.92,84.59l-27.89-15.94v-37.28h-.01s-.06-12.58-.06-12.58l-10.87,6.21v50l27.92,15.95,10.91-6.36Zm37.73-15.94v-31.64l10.94,6.25v31.73l-43.75,25-10.9-6.23,10.9-6.35v-.02l32.81-18.75Z"/><polygon class="e" points="36.11 51.04 36.11 79.79 64 95.73 64 66.98 36.11 51.04"/><polygon class="e" points="64 32.27 38.59 46.78 66.48 62.73 91.89 48.2 64 32.27"/></svg>