<?xml version="1.0" encoding="UTF-8" standalone="no"?>
<!DOCTYPE svg PUBLIC "-//W3C//DTD SVG 1.1//EN" "http://www.w3.org/Graphics/SVG/1.1/DTD/svg11.dtd">
<!-- Created with Vectornator (http://vectornator.io/) -->
<svg height="100%" stroke-miterlimit="10" style="fill-rule:nonzero;clip-rule:evenodd;stroke-linecap:round;stroke-linejoin:round;" version="1.1" viewBox="0 0 512 512" width="100%" xml:space="preserve" xmlns="http://www.w3.org/2000/svg" xmlns:vectornator="http://vectornator.io" xmlns:xlink="http://www.w3.org/1999/xlink">
<defs>
<linearGradient gradientTransform="matrix(1 0 0 1 0 0)" gradientUnits="userSpaceOnUse" id="LinearGradient" x1="257.506" x2="255.859" y1="-0.116183" y2="511.166">
<stop offset="0.000578055" stop-color="#898989"/>
<stop offset="1" stop-color="#252525"/>
</linearGradient>
<linearGradient gradientTransform="matrix(1.42845 0 0 1.42845 88.0364 54.8113)" gradientUnits="userSpaceOnUse" id="LinearGradient_2" x1="188.435" x2="189.308" y1="225.234" y2="157.183">
<stop offset="0" stop-color="#ffeed7"/>
<stop offset="1" stop-color="#bdbfc2"/>
</linearGradient>
<linearGradient gradientTransform="matrix(1.42845 0 0 1.42845 88.0364 54.8113)" gradientUnits="userSpaceOnUse" id="LinearGradient_3" x1="129.823" x2="124.869" y1="4.93887" y2="45.2839">
<stop offset="0" stop-color="#ffffff" stop-opacity="0.8"/>
<stop offset="1" stop-color="#ffffff" stop-opacity="0"/>
</linearGradient>
<linearGradient gradientTransform="matrix(1.42845 0 0 1.42845 88.0364 54.8113)" gradientUnits="userSpaceOnUse" id="LinearGradient_4" x1="108.245" x2="107.492" y1="66.8238" y2="43.5993">
<stop offset="0" stop-color="#ffeed7"/>
<stop offset="1" stop-color="#bdbfc2"/>
</linearGradient>
<linearGradient gradientTransform="matrix(1.42845 0 0 1.42845 88.0364 54.8113)" gradientUnits="userSpaceOnUse" id="LinearGradient_5" x1="140.418" x2="140.418" y1="67.424" y2="42.8019">
<stop offset="0" stop-color="#ffeed7"/>
<stop offset="1" stop-color="#bdbfc2"/>
</linearGradient>
<linearGradient gradientTransform="matrix(1.42845 0 0 1.42845 88.0364 54.8113)" gradientUnits="userSpaceOnUse" id="LinearGradient_6" x1="138.378" x2="137.81" y1="50.1292" y2="59.653">
<stop offset="0" stop-color="#ffffff" stop-opacity="0.65"/>
<stop offset="1" stop-color="#ffffff" stop-opacity="0"/>
</linearGradient>
<linearGradient gradientTransform="matrix(1.42845 0 0 1.42845 88.0364 54.8113)" gradientUnits="userSpaceOnUse" id="LinearGradient_7" x1="107.051" x2="107.551" y1="51.8478" y2="59.6312">
<stop offset="0" stop-color="#ffffff" stop-opacity="0.65"/>
<stop offset="1" stop-color="#ffffff" stop-opacity="0"/>
</linearGradient>
<linearGradient gradientTransform="matrix(1.42845 0 0 1.42845 88.0364 54.8113)" gradientUnits="userSpaceOnUse" id="LinearGradient_8" x1="130.325" x2="130.325" y1="224.565" y2="140.294">
<stop offset="0" stop-color="#ffeed7"/>
<stop offset="1" stop-color="#bdbfc2"/>
</linearGradient>
<linearGradient gradientTransform="matrix(1.42845 0 0 1.42845 88.0364 54.8113)" gradientUnits="userSpaceOnUse" id="LinearGradient_9" x1="85.5024" x2="80.2271" y1="225.759" y2="147.669">
<stop offset="0" stop-color="#ffeed7"/>
<stop offset="1" stop-color="#bdbfc2"/>
</linearGradient>
<linearGradient gradientTransform="matrix(1.42845 0 0 1.42845 88.0364 54.8113)" gradientUnits="userSpaceOnUse" id="LinearGradient_10" x1="125.665" x2="125.99" y1="130.751" y2="184.675">
<stop offset="0" stop-color="#ffffff" stop-opacity="0.8"/>
<stop offset="1" stop-color="#ffffff" stop-opacity="0"/>
</linearGradient>
<linearGradient gradientTransform="matrix(1.42845 0 0 1.42845 88.0364 54.8113)" gradientUnits="userSpaceOnUse" id="LinearGradient_11" x1="126.906" x2="127.305" y1="96.936" y2="118.375">
<stop offset="0" stop-color="#ffffff" stop-opacity="0.65"/>
<stop offset="1" stop-color="#ffffff" stop-opacity="0"/>
</linearGradient>
<linearGradient gradientTransform="matrix(1.42845 0 0 1.42845 88.0364 54.8113)" gradientUnits="userSpaceOnUse" id="LinearGradient_12" x1="69.0002" x2="69.0002" y1="110.17" y2="188.855">
<stop offset="0" stop-color="#ffffff" stop-opacity="0.65"/>
<stop offset="1" stop-color="#ffffff" stop-opacity="0"/>
</linearGradient>
<linearGradient gradientTransform="matrix(1.42845 0 0 1.42845 88.0364 54.8113)" gradientUnits="userSpaceOnUse" id="LinearGradient_13" x1="199.565" x2="199.562" y1="102.484" y2="173.58">
<stop offset="0" stop-color="#ffffff" stop-opacity="0.65"/>
<stop offset="1" stop-color="#ffffff" stop-opacity="0"/>
</linearGradient>
<linearGradient gradientTransform="matrix(1.42845 0 0 1.42845 88.0364 54.8113)" gradientUnits="userSpaceOnUse" id="LinearGradient_14" x1="64.9147" x2="52.7072" y1="222.589" y2="262.941">
<stop offset="0" stop-color="#ffa63f"/>
<stop offset="1" stop-color="#ffff00"/>
</linearGradient>
<linearGradient gradientTransform="matrix(1.42845 0 0 1.42845 88.0364 54.8113)" gradientUnits="userSpaceOnUse" id="LinearGradient_15" x1="194.994" x2="193.183" y1="217.966" y2="142.723">
<stop offset="0" stop-color="#ffeed7"/>
<stop offset="1" stop-color="#bdbfc2"/>
</linearGradient>
<linearGradient gradientTransform="matrix(1.42845 0 0 1.42845 88.0364 54.8113)" gradientUnits="userSpaceOnUse" id="LinearGradient_16" x1="183.425" x2="211.198" y1="210.343" y2="258.179">
<stop offset="0" stop-color="#ffa63f"/>
<stop offset="1" stop-color="#ffff00"/>
</linearGradient>
<linearGradient gradientTransform="matrix(1.42845 0 0 1.42845 88.0364 54.8113)" gradientUnits="userSpaceOnUse" id="LinearGradient_17" x1="192.378" x2="187.559" y1="175.309" y2="229.699">
<stop offset="0" stop-color="#ffffff" stop-opacity="0.65"/>
<stop offset="1" stop-color="#ffffff" stop-opacity="0"/>
</linearGradient>
<linearGradient gradientTransform="matrix(1.42845 0 0 1.42845 88.0364 54.8113)" gradientUnits="userSpaceOnUse" id="LinearGradient_18" x1="62.3625" x2="64.4018" y1="188.412" y2="248.056">
<stop offset="0" stop-color="#ffffff" stop-opacity="0.65"/>
<stop offset="1" stop-color="#ffffff" stop-opacity="0"/>
</linearGradient>
<linearGradient gradientTransform="matrix(1.42845 0 0 1.42845 88.0364 54.8113)" gradientUnits="userSpaceOnUse" id="LinearGradient_19" x1="190.348" x2="193.326" y1="174.344" y2="192.124">
<stop offset="0" stop-color="#ffffff" stop-opacity="0.65"/>
<stop offset="1" stop-color="#ffffff" stop-opacity="0"/>
</linearGradient>
<linearGradient gradientTransform="matrix(1.42845 0 0 1.42845 88.0364 54.8113)" gradientUnits="userSpaceOnUse" id="LinearGradient_20" x1="125.71" x2="126.188" y1="65.3513" y2="96.7303">
<stop offset="0" stop-color="#ffa63f"/>
<stop offset="1" stop-color="#ffff00"/>
</linearGradient>
<linearGradient gradientTransform="matrix(1.42845 0 0 1.42845 88.0364 54.8113)" gradientUnits="userSpaceOnUse" id="LinearGradient_21" x1="122.143" x2="122.003" y1="62.3835" y2="78.9763">
<stop offset="0" stop-color="#ffffff" stop-opacity="0.65"/>
<stop offset="1" stop-color="#ffffff" stop-opacity="0"/>
</linearGradient>
</defs>
<g id="Ebene-1" vectornator:layerName="Ebene 1">
<path d="M2.84217e-14 95C2.84217e-14 42.5329 42.5329 0 95 0L417 0C469.467 0 512 42.5329 512 95L512 417C512 469.467 469.467 512 417 512L95 512C42.5329 512 2.84217e-14 469.467 2.84217e-14 417L2.84217e-14 95Z" fill="url(#LinearGradient)" fill-rule="nonzero" opacity="1" stroke="none" vectornator:layerName="Rechteck 1"/>
<g opacity="1" vectornator:layerName="g">
<path d="M423.901 411.008C423.901 435.799 348.74 456 256.001 456C163.261 456 88.0993 435.93 88.0993 411.008C88.0993 386.216 163.261 366.015 255.999 366.015C348.74 366.015 423.771 386.216 423.901 411.008Z" fill="#000000" fill-opacity="0.2" fill-rule="nonzero" opacity="1" stroke="none" vectornator:layerName="path"/>
<path d="M164.049 362.605C147.783 339.256 144.634 263.176 182.543 216.346C201.301 193.918 206.155 178.308 207.598 157.188C208.646 133.183 190.676 61.695 258.361 56.3169C326.965 50.8074 323.161 118.492 322.766 154.303C322.505 184.472 344.936 201.656 360.413 225.268C388.878 268.555 386.517 343.06 355.035 383.462C315.159 433.963 281.054 412.057 258.361 413.894C215.861 416.386 214.419 438.949 164.049 362.605Z" fill="#000000" fill-rule="nonzero" opacity="1" stroke="none" vectornator:layerName="path"/>
<path d="M329.587 229.726C341.393 240.614 371.957 289.278 323.554 319.712C306.502 330.336 338.771 370.737 354.248 351.193C381.664 316.039 364.219 259.897 347.69 239.827C336.671 225.661 319.62 220.152 329.589 229.728L329.587 229.726Z" fill="url(#LinearGradient_2)" fill-rule="nonzero" opacity="1" stroke="none" vectornator:layerName="path"/>
<path d="M326.309 223.168C345.722 238.91 381.007 294.001 329.457 329.942C312.536 341.093 344.41 376.378 362.382 358.407C424.688 295.707 360.808 223.693 338.769 198.9C319.094 177.258 301.648 203.886 326.309 223.168Z" fill="#000000" fill-rule="nonzero" opacity="1" stroke="#000000" stroke-linecap="butt" stroke-linejoin="miter" stroke-width="0.977" vectornator:layerName="path"/>
<path d="M298.369 90.5511C297.713 108.522 277.906 124.134 254.164 125.577C230.421 127.019 211.796 113.378 212.45 95.4064C213.107 77.4351 232.914 61.825 256.656 60.3822C280.397 59.0709 299.024 72.5812 298.369 90.5511Z" fill="url(#LinearGradient_3)" fill-rule="nonzero" opacity="1" stroke="none" vectornator:layerName="path"/>
<path d="M241.571 133.315C242.228 144.989 236.718 154.827 229.11 155.22C221.502 155.614 214.811 146.563 214.156 134.889C213.5 123.214 219.01 113.376 226.618 112.983C234.225 112.589 240.916 121.64 241.571 133.315Z" fill="url(#LinearGradient_4)" fill-rule="nonzero" opacity="1" stroke="none" vectornator:layerName="path"/>
<path d="M255.344 134.233C255.606 147.743 264.396 158.5 274.889 158.238C285.382 157.975 293.646 146.825 293.385 133.183C293.122 119.673 284.334 108.917 273.839 109.18C263.346 109.441 254.951 120.721 255.344 134.233Z" fill="url(#LinearGradient_5)" fill-rule="nonzero" opacity="1" stroke="none" vectornator:layerName="path"/>
<path d="M264.001 137.25C263.87 144.726 267.544 150.76 272.396 150.76C277.119 150.76 281.186 144.726 281.317 137.381C281.447 129.905 277.775 123.87 272.921 123.87C268.068 123.87 264.133 129.905 264.001 137.25ZM233.701 137.381C234.357 143.547 231.996 148.793 228.584 149.318C225.175 149.712 221.895 145.121 221.239 138.956C220.582 132.79 222.945 127.542 226.355 127.018C229.766 126.625 233.046 131.216 233.701 137.381Z" fill="#000000" fill-rule="nonzero" opacity="1" stroke="none" vectornator:layerName="path"/>
<path d="M265.97 133.052C265.576 137.25 267.544 140.66 270.298 140.923C273.052 141.185 275.676 137.906 276.069 133.839C276.463 129.642 274.495 126.231 271.741 125.968C268.987 125.707 266.363 128.986 265.97 133.053L265.97 133.052Z" fill="url(#LinearGradient_6)" fill-rule="nonzero" opacity="1" stroke="none" vectornator:layerName="path"/>
<path d="M230.814 134.102C231.209 137.513 229.766 140.53 227.667 140.791C225.568 141.054 223.601 138.43 223.206 134.889C222.814 131.478 224.256 128.461 226.355 128.199C228.454 127.936 230.421 130.691 230.814 134.102Z" fill="url(#LinearGradient_7)" fill-rule="nonzero" opacity="1" stroke="none" vectornator:layerName="path"/>
<path d="M189.495 262.914C198.808 241.794 218.615 204.673 219.01 175.945C219.01 153.121 287.351 147.612 292.86 170.437C298.369 193.261 312.273 227.365 321.192 243.894C330.113 260.29 355.954 312.628 328.407 358.275C303.615 398.678 228.454 430.684 188.315 352.767C174.673 325.745 177.165 292.297 189.495 262.914Z" fill="url(#LinearGradient_8)" fill-rule="nonzero" opacity="1" stroke="none" vectornator:layerName="path"/>
<path d="M181.1 247.172C173.099 262.256 156.571 301.872 196.973 323.516C240.391 346.602 240.259 393.955 188.052 371.393C140.306 351.062 161.424 268.685 174.805 249.009C183.461 235.236 196.579 218.315 181.1 247.172Z" fill="url(#LinearGradient_9)" fill-rule="nonzero" opacity="1" stroke="none" vectornator:layerName="path"/>
<path d="M187.921 230.121C175.198 250.846 144.766 299.642 185.561 325.09C240.391 358.801 224.912 392.381 174.805 362.079C104.234 319.843 166.277 234.58 194.48 202.05C226.749 165.583 200.645 208.74 187.921 230.119L187.921 230.121Z" fill="#000000" fill-rule="nonzero" opacity="1" stroke="#000000" stroke-linecap="butt" stroke-linejoin="miter" stroke-width="1.25" vectornator:layerName="path"/>
<path d="M311.486 270.914C311.486 294.001 289.318 323.91 251.277 323.647C212.057 323.908 195.399 294.001 195.399 270.914C195.399 247.829 221.371 229.071 253.377 229.071C285.514 229.202 311.486 247.829 311.486 270.914Z" fill="url(#LinearGradient_10)" fill-rule="nonzero" opacity="1" stroke="none" vectornator:layerName="path"/>
<path d="M290.762 198.376C290.368 222.25 274.758 227.891 255.082 227.891C235.405 227.891 221.108 224.348 219.402 198.376C219.402 182.11 235.405 172.667 255.082 172.667C274.758 172.536 290.761 181.98 290.761 198.376L290.762 198.376Z" fill="url(#LinearGradient_11)" fill-rule="nonzero" opacity="1" stroke="none" vectornator:layerName="path"/>
<path d="M171.786 235.105C184.643 215.56 211.794 185.522 176.903 239.303C148.57 283.639 166.41 312.104 175.592 319.973C202.088 343.585 201.038 359.455 180.183 346.995C135.452 320.367 144.766 275.505 171.786 235.105Z" fill="url(#LinearGradient_12)" fill-rule="nonzero" opacity="1" stroke="none" vectornator:layerName="path"/>
<path d="M357.922 243.107C346.772 220.152 311.355 161.911 359.626 229.595C403.57 290.853 372.744 333.485 367.234 337.682C361.726 341.88 343.23 350.406 348.607 335.583C354.118 320.76 381.401 292.69 357.921 243.105L357.922 243.107Z" fill="url(#LinearGradient_13)" fill-rule="nonzero" opacity="1" stroke="none" vectornator:layerName="path"/>
<path d="M162.08 424.126C132.697 408.515 90.0663 427.142 105.545 384.905C108.693 375.328 100.954 360.9 105.938 351.586C111.842 340.174 124.565 342.667 132.173 335.059C139.649 327.188 144.372 313.546 158.408 315.646C172.312 317.743 181.626 334.796 191.332 355.784C198.546 370.737 223.993 391.857 222.289 408.647C220.189 434.356 190.938 439.21 162.08 424.126Z" fill="url(#LinearGradient_14)" fill-rule="nonzero" opacity="1" stroke="#e68c3f" stroke-linecap="butt" stroke-linejoin="miter" stroke-width="6.25" vectornator:layerName="path"/>
<path d="M376.023 324.958C371.564 333.353 352.937 346.864 340.475 343.322C327.883 339.911 322.111 320.76 324.603 306.2C326.965 289.936 340.475 289.016 357.529 297.149C375.892 306.2 381.401 313.808 376.023 324.958Z" fill="url(#LinearGradient_15)" fill-rule="nonzero" opacity="1" stroke="none" vectornator:layerName="path"/>
<path d="M365.791 416.909C387.304 390.807 435.183 396.185 402.914 360.375C396.093 352.636 398.191 336.107 389.796 329.025C379.959 320.367 369.071 327.451 359.102 322.991C349.133 318.137 338.639 308.824 326.44 315.382C314.241 322.073 312.929 339.387 311.749 362.211C310.699 378.608 295.746 406.023 303.747 421.107C315.29 444.457 345.329 441.308 365.791 416.91L365.791 416.909Z" fill="url(#LinearGradient_16)" fill-rule="nonzero" opacity="1" stroke="#e68c3f" stroke-linecap="butt" stroke-linejoin="miter" stroke-width="6.251" vectornator:layerName="path"/>
<path d="M356.478 382.018C389.796 332.829 365.006 333.222 356.609 329.418C348.214 325.483 339.425 317.743 329.589 323.121C319.75 328.631 319.225 342.798 318.962 361.424C318.57 374.804 307.421 397.235 314.11 409.695C322.242 424.256 341.918 403.137 356.478 382.018Z" fill="url(#LinearGradient_17)" fill-rule="nonzero" opacity="1" stroke="none" vectornator:layerName="path"/>
<path d="M155.259 389.101C105.414 356.833 128.762 345.815 136.239 340.698C145.29 334.14 145.422 321.547 156.571 322.728C167.721 323.908 174.279 337.682 181.756 354.734C187.265 366.933 206.416 383.199 204.974 397.235C203.138 413.762 176.772 402.875 155.259 389.101Z" fill="url(#LinearGradient_18)" fill-rule="nonzero" opacity="1" stroke="none" vectornator:layerName="path"/>
<path d="M373.138 324.564C369.203 331.386 353.2 342.143 342.575 339.256C331.687 336.502 326.702 321.154 328.933 309.611C330.9 296.494 342.575 295.838 357.265 302.397C372.875 309.48 377.729 315.513 373.138 324.564Z" fill="#000000" fill-rule="nonzero" opacity="1" stroke="none" vectornator:layerName="path"/>
<path d="M362.382 320.76C359.889 325.483 349.396 332.959 342.049 330.992C334.704 329.025 331.031 318.4 332.211 310.398C333.261 301.347 341.131 300.822 351.1 305.283C361.856 310.268 365.267 314.465 362.382 320.76Z" fill="url(#LinearGradient_19)" fill-rule="nonzero" opacity="1" stroke="none" vectornator:layerName="path"/>
<path d="M226.749 149.58C231.996 144.726 244.719 129.905 268.855 145.382C273.315 148.268 276.987 148.53 285.514 152.203C302.698 159.288 294.565 176.34 276.2 182.11C268.33 184.603 261.247 194.179 247.08 193.261C234.881 192.604 231.733 184.605 224.256 180.275C211.007 172.798 209.04 162.698 216.254 157.32C223.469 151.942 226.225 149.973 226.749 149.58Z" fill="url(#LinearGradient_20)" fill-rule="nonzero" opacity="1" stroke="#e68c3f" stroke-linecap="butt" stroke-linejoin="miter" stroke-width="3.75" vectornator:layerName="path"/>
<path d="M285.777 163.353C278.563 163.746 262.952 179.356 246.556 179.356C230.159 179.356 220.321 164.141 217.83 164.141" fill="none" opacity="1" stroke="#e68c3f" stroke-linecap="butt" stroke-linejoin="miter" stroke-width="2.5" vectornator:layerName="path"/>
<path d="M234.881 148.269C237.505 145.908 245.769 139.48 256.656 146.038C259.018 147.351 261.379 148.793 264.789 150.76C271.741 154.827 268.331 160.731 259.935 164.402C256.131 165.976 249.836 169.387 245.113 169.124C239.866 168.6 236.324 165.189 232.914 162.959C226.486 158.762 226.88 155.22 229.897 152.466C232.126 150.366 234.618 148.399 234.883 148.269L234.881 148.269Z" fill="url(#LinearGradient_21)" fill-rule="nonzero" opacity="1" stroke="none" vectornator:layerName="path"/>
</g>
</g>
</svg>
