<?xml version="1.0" encoding="UTF-8"?><svg id="Ebene_1" xmlns="http://www.w3.org/2000/svg" viewBox="0 0 128 128"><defs><style>.cls-1{fill:#fff;}.cls-2{fill:#007acc;}</style></defs><rect class="cls-2" width="128" height="128" rx="25" ry="25"/><path class="cls-1" d="m35.26,65.76l-.04,4.97h15.79v44.86h11.17v-44.86h15.79v-4.87c0-2.7-.06-4.95-.13-5.01-.06-.08-9.67-.12-21.31-.1l-21.2.06-.06,4.95Z"/><path class="cls-1" d="m106.32,60.67c3.08.77,5.43,2.14,7.59,4.37,1.12,1.19,2.77,3.37,2.91,3.89.04.15-5.24,3.7-8.43,5.68-.12.08-.58-.42-1.1-1.19-1.56-2.27-3.2-3.25-5.7-3.43-3.68-.25-6.05,1.68-6.03,4.89,0,.94.13,1.5.52,2.27.81,1.68,2.31,2.68,7.03,4.72,8.68,3.74,12.4,6.2,14.71,9.7,2.58,3.91,3.16,10.15,1.41,14.79-1.93,5.04-6.7,8.47-13.42,9.61-2.08.37-7.01.31-9.24-.1-4.87-.87-9.49-3.27-12.34-6.43-1.12-1.23-3.29-4.45-3.16-4.68.06-.08.56-.39,1.12-.71.54-.31,2.58-1.48,4.51-2.6l3.49-2.02.73,1.08c1.02,1.56,3.25,3.7,4.6,4.41,3.87,2.04,9.18,1.75,11.8-.6,1.12-1.02,1.58-2.08,1.58-3.64,0-1.41-.17-2.02-.9-3.08-.94-1.35-2.87-2.48-8.34-4.85-6.26-2.7-8.95-4.37-11.42-7.03-1.42-1.54-2.77-4-3.33-6.07-.46-1.71-.58-6.01-.21-7.74,1.29-6.05,5.85-10.26,12.44-11.51,2.14-.4,7.1-.25,9.2.27Z"/></svg>