<?xml version="1.0" encoding="UTF-8" standalone="no"?>
<!DOCTYPE svg PUBLIC "-//W3C//DTD SVG 1.1//EN" "http://www.w3.org/Graphics/SVG/1.1/DTD/svg11.dtd">
<!-- Created with Vectornator (http://vectornator.io/) -->
<svg height="100%" stroke-miterlimit="10" style="fill-rule:nonzero;clip-rule:evenodd;stroke-linecap:round;stroke-linejoin:round;" version="1.1" viewBox="0 0 512 512" width="100%" xml:space="preserve" xmlns="http://www.w3.org/2000/svg" xmlns:vectornator="http://vectornator.io" xmlns:xlink="http://www.w3.org/1999/xlink">
<defs/>
<g id="Ebene-1" vectornator:layerName="Ebene 1">
<path d="M0 95C0 42.5329 42.5329 0 95 0L417 0C469.467 0 512 42.5329 512 95L512 417C512 469.467 469.467 512 417 512L95 512C42.5329 512 0 469.467 0 417L0 95Z" fill="#017acb" fill-rule="nonzero" opacity="1" stroke="none" vectornator:layerName="Rechteck 1"/>
<g opacity="1" vectornator:layerName="typescript-2.svg">
<path d="M84 84L484 84L484 484L84 484L84 84Z" fill="#017acb" fill-rule="nonzero" opacity="1" stroke="none" vectornator:layerName="path"/>
<path d="M276.062 232.125L295.25 232.125L295.25 265.25L243.375 265.25L243.375 412.625L242 413C240.125 413.5 215.438 413.5 210.125 412.938L205.875 412.562L205.875 265.25L154 265.25L154 232.125L170.438 231.938C179.438 231.812 202.562 231.812 221.812 231.938C241.062 232.062 265.438 232.125 276.062 232.125ZM422.5 397C414.875 405.062 406.688 409.562 393.062 413.25C387.125 414.875 386.125 414.938 372.75 414.875C359.375 414.812 358.312 414.812 351.812 413.125C335 408.812 321.438 400.375 312.188 388.438C309.562 385.062 305.25 378.062 305.25 377.188C305.25 376.938 305.875 376.375 306.688 376C307.5 375.625 309.188 374.563 310.562 373.75C311.938 372.938 314.438 371.438 316.125 370.562C317.812 369.688 322.688 366.812 326.938 364.25C331.188 361.688 335.062 359.625 335.5 359.625C335.938 359.625 336.75 360.5 337.375 361.562C341.125 367.875 349.875 375.938 356.062 378.688C359.875 380.312 368.312 382.125 372.375 382.125C376.125 382.125 383 380.5 386.687 378.812C390.625 377 392.625 375.188 395 371.562C396.625 369 396.812 368.312 396.75 363.438C396.75 358.938 396.5 357.688 395.25 355.625C391.75 349.875 387 346.875 367.75 338.375C347.875 329.562 338.938 324.312 331.688 317.25C326.312 312 325.25 310.562 321.875 304C317.5 295.562 316.938 292.812 316.875 280.25C316.812 271.437 317 268.562 317.938 265.562C319.25 261.062 323.5 252.375 325.438 250.187C329.438 245.5 330.875 244.062 333.688 241.75C342.188 234.75 355.438 230.125 368.125 229.687C369.562 229.687 374.312 229.937 378.75 230.25C391.5 231.312 400.188 234.438 408.562 241.125C414.875 246.125 424.438 257.875 423.5 259.438C422.875 260.375 397.938 277 396.312 277.5C395.312 277.812 394.625 277.437 393.25 275.812C384.75 265.625 381.312 263.437 373.063 262.937C367.188 262.562 364.063 263.25 360.125 265.875C356 268.625 354 272.812 354 278.625C354.063 287.125 357.313 291.125 369.313 297.062C377.062 300.875 383.688 304 384.188 304C384.938 304 401 312 405.188 314.5C424.688 325.938 432.625 337.688 434.688 357.937C436.188 373.187 431.875 387.125 422.5 397Z" fill="#ffffff" fill-rule="nonzero" opacity="1" stroke="none" vectornator:layerName="path"/>
</g>
</g>
</svg>
