<?xml version="1.0" encoding="UTF-8"?><svg id="Ebene_1" xmlns="http://www.w3.org/2000/svg" viewBox="0 0 128 128"><defs><style>.cls-1{fill:#fff;}.cls-2{fill:#007acc;}</style></defs><rect class="cls-2" width="128" height="128" rx="25" ry="25"/><path class="cls-1" d="m39.04,69.22l-.04,4.68h14.86v42.22h10.51v-42.22h14.86v-4.58c0-2.54-.05-4.66-.13-4.71-.05-.07-9.1-.11-20.06-.09l-19.95.05-.05,4.66Z"/><path class="cls-1" d="m105.91,64.43c2.9.72,5.11,2.01,7.14,4.11,1.05,1.12,2.61,3.17,2.74,3.66.04.14-4.93,3.48-7.94,5.35-.11.07-.54-.4-1.03-1.12-1.47-2.14-3.01-3.06-5.36-3.23-3.46-.24-5.69,1.58-5.67,4.6,0,.89.13,1.41.49,2.14.76,1.58,2.17,2.52,6.61,4.44,8.17,3.52,11.67,5.84,13.85,9.13,2.43,3.68,2.97,9.55,1.32,13.92-1.81,4.75-6.31,7.97-12.63,9.04-1.96.34-6.6.29-8.7-.09-4.58-.82-8.93-3.08-11.62-6.05-1.05-1.16-3.1-4.19-2.97-4.4.05-.07.53-.36,1.05-.67.51-.29,2.43-1.4,4.24-2.45l3.28-1.9.69,1.01c.96,1.47,3.06,3.48,4.33,4.15,3.64,1.92,8.64,1.65,11.11-.56,1.05-.96,1.49-1.96,1.49-3.43,0-1.32-.16-1.9-.85-2.9-.89-1.27-2.7-2.34-7.85-4.57-5.89-2.54-8.43-4.11-10.75-6.61-1.34-1.45-2.61-3.77-3.14-5.71-.43-1.61-.54-5.65-.2-7.28,1.21-5.69,5.51-9.66,11.71-10.84,2.01-.38,6.69-.24,8.66.25Z"/></svg>