<?xml version="1.0" encoding="UTF-8"?><svg id="Ebene_1" xmlns="http://www.w3.org/2000/svg" viewBox="0 0 128 128"><defs><style>.cls-1{fill:#fff;}.cls-2{fill:#007acc;}</style></defs><rect class="cls-2" width="128" height="128" rx="25" ry="25"/><path class="cls-1" d="m49.03,75.86l-.03,4.09h13v36.95h9.2v-36.95h13v-4.01c0-2.22-.05-4.08-.11-4.12-.05-.06-7.96-.1-17.55-.08l-17.46.05-.05,4.08Z"/><path class="cls-1" d="m107.55,71.67c2.54.63,4.47,1.76,6.25,3.6.92.98,2.28,2.77,2.39,3.2.03.13-4.31,3.04-6.95,4.68-.1.06-.48-.35-.9-.98-1.28-1.87-2.63-2.68-4.69-2.82-3.03-.21-4.98,1.38-4.96,4.03,0,.78.11,1.24.43,1.87.67,1.38,1.9,2.2,5.79,3.88,7.15,3.08,10.21,5.11,12.11,7.99,2.12,3.22,2.6,8.36,1.16,12.18-1.59,4.15-5.52,6.98-11.05,7.91-1.71.3-5.77.25-7.61-.08-4.01-.71-7.82-2.7-10.16-5.3-.92-1.01-2.71-3.66-2.6-3.85.05-.06.46-.32.92-.59.44-.25,2.12-1.22,3.71-2.14l2.87-1.66.6.89c.84,1.28,2.68,3.04,3.79,3.63,3.19,1.68,7.56,1.44,9.72-.49.92-.84,1.3-1.71,1.3-3,0-1.16-.14-1.66-.75-2.54-.78-1.11-2.36-2.05-6.87-4-5.15-2.22-7.37-3.6-9.4-5.79-1.17-1.27-2.28-3.3-2.74-4.99-.38-1.41-.48-4.95-.17-6.37,1.06-4.98,4.82-8.45,10.24-9.48,1.76-.33,5.85-.21,7.58.22Z"/></svg>