<?xml version="1.0" encoding="UTF-8" standalone="no"?>
<!DOCTYPE svg PUBLIC "-//W3C//DTD SVG 1.1//EN" "http://www.w3.org/Graphics/SVG/1.1/DTD/svg11.dtd">
<!-- Created with Vectornator (http://vectornator.io/) -->
<svg height="100%" stroke-miterlimit="10" style="fill-rule:nonzero;clip-rule:evenodd;stroke-linecap:round;stroke-linejoin:round;" version="1.1" viewBox="0 0 512 512" width="100%" xml:space="preserve" xmlns="http://www.w3.org/2000/svg" xmlns:vectornator="http://vectornator.io" xmlns:xlink="http://www.w3.org/1999/xlink">
<defs>
<linearGradient gradientTransform="matrix(1 0 0 1 0 0)" gradientUnits="userSpaceOnUse" id="LinearGradient" x1="252.584" x2="260.864" y1="-1.33648" y2="511.229">
<stop offset="0.000578055" stop-color="#eec098"/>
<stop offset="1" stop-color="#8a6e58"/>
</linearGradient>
</defs>
<g id="Ebene-1" vectornator:layerName="Ebene 1">
<path d="M2.84217e-14 95C2.84217e-14 42.5329 42.5329 0 95 0L417 0C469.467 0 512 42.5329 512 95L512 417C512 469.467 469.467 512 417 512L95 512C42.5329 512 2.84217e-14 469.467 2.84217e-14 417L2.84217e-14 95Z" fill="url(#LinearGradient)" fill-rule="nonzero" opacity="1" stroke="none" vectornator:layerName="Rechteck 1"/>
<g opacity="1" vectornator:layerName="ubuntu-4.svg">
<path d="M456 256.002C456 366.454 366.458 455.997 256.001 455.997C145.54 455.997 56 366.454 56 256.002C56 145.545 145.543 56.0031 256.001 56.0031C366.46 56.0031 456 145.545 456 256.002Z" fill="#dd4814" fill-rule="nonzero" opacity="1" stroke="none" vectornator:layerName="path"/>
<path d="M120.007 229.296C105.253 229.296 93.3 241.249 93.3 256.002C93.3 270.748 105.253 282.703 120.007 282.703C134.754 282.703 146.707 270.748 146.707 256.002C146.707 241.249 134.754 229.296 120.007 229.296ZM310.658 350.655C297.887 358.033 293.506 374.354 300.884 387.119C308.253 399.891 324.575 404.269 337.347 396.893C350.118 389.523 354.497 373.202 347.121 360.428C339.752 347.665 323.421 343.287 310.658 350.655ZM178.008 256.002C178.008 229.615 191.115 206.301 211.17 192.185L191.648 159.489C168.287 175.105 150.903 198.968 143.679 226.916C152.11 233.793 157.504 244.264 157.504 256.001C157.504 267.731 152.11 278.203 143.679 285.08C150.894 313.036 168.278 336.901 191.648 352.518L211.17 319.812C191.115 305.703 178.008 282.391 178.008 256.002ZM256.001 178.002C296.747 178.002 330.176 209.241 333.685 249.084L371.732 248.523C369.862 219.11 357.011 192.704 337.269 173.287C327.116 177.123 315.387 176.536 305.252 170.693C295.097 164.833 288.73 154.948 286.99 144.218C276.896 141.425 266.472 140.008 255.999 140.005C238.167 139.986 220.573 144.095 204.592 152.008L223.146 185.257C233.436 180.468 244.651 177.991 256.001 178.002ZM256.001 333.997C244.651 334.007 233.437 331.53 223.148 326.741L204.594 359.988C220.572 367.909 238.168 372.022 256.002 372.003C266.475 372.001 276.9 370.58 286.991 367.779C288.732 357.049 295.101 347.173 305.252 341.304C315.396 335.45 327.117 334.874 337.269 338.71C357.013 319.293 369.862 292.887 371.735 263.474L333.677 262.913C330.176 302.766 296.748 333.995 256.001 333.995L256.001 333.997ZM310.648 161.334C323.421 168.708 339.744 164.341 347.112 151.569C354.49 138.797 350.119 122.474 337.347 115.096C324.575 107.728 308.253 112.104 300.874 124.877C293.508 137.642 297.886 153.964 310.648 161.334Z" fill="#ffffff" fill-rule="nonzero" opacity="1" stroke="none" vectornator:layerName="path"/>
</g>
</g>
</svg>
