<?xml version="1.0" encoding="UTF-8" standalone="no"?>
<!DOCTYPE svg PUBLIC "-//W3C//DTD SVG 1.1//EN" "http://www.w3.org/Graphics/SVG/1.1/DTD/svg11.dtd">
<!-- Created with Vectornator (http://vectornator.io/) -->
<svg height="100%" stroke-miterlimit="10" style="fill-rule:nonzero;clip-rule:evenodd;stroke-linecap:round;stroke-linejoin:round;" version="1.1" viewBox="0 0 512 512" width="100%" xml:space="preserve" xmlns="http://www.w3.org/2000/svg" xmlns:vectornator="http://vectornator.io" xmlns:xlink="http://www.w3.org/1999/xlink">
<defs/>
<g id="Ebene-1" vectornator:layerName="Ebene 1">
<path d="M2.84217e-14 95C2.84217e-14 42.5329 42.5329 0 95 0L417 0C469.467 0 512 42.5329 512 95L512 417C512 469.467 469.467 512 417 512L95 512C42.5329 512 2.84217e-14 469.467 2.84217e-14 417L2.84217e-14 95Z" fill="#363636" fill-rule="nonzero" opacity="1" stroke="none" vectornator:layerName="Rechteck 1"/>
<g opacity="1" vectornator:layerName="ubuntu-4.svg">
<path d="M444.5 256.002C444.5 360.103 360.107 444.497 256.001 444.497C151.891 444.497 67.5 360.103 67.5 256.002C67.5 151.896 151.894 67.5029 256.001 67.5029C360.109 67.5029 444.5 151.896 444.5 256.002Z" fill="#dd4814" fill-rule="nonzero" opacity="1" stroke="none" vectornator:layerName="path"/>
<path d="M127.827 230.831C113.921 230.831 102.655 242.097 102.655 256.002C102.655 269.9 113.921 281.168 127.827 281.168C141.726 281.168 152.991 269.9 152.991 256.002C152.991 242.097 141.726 230.831 127.827 230.831ZM307.515 345.212C295.478 352.166 291.349 367.549 298.303 379.58C305.248 391.617 320.632 395.743 332.67 388.792C344.706 381.845 348.833 366.463 341.882 354.423C334.936 342.394 319.544 338.268 307.515 345.212ZM182.493 256.002C182.493 231.132 194.846 209.159 213.748 195.854L195.348 165.038C173.33 179.756 156.946 202.247 150.137 228.588C158.084 235.07 163.168 244.939 163.168 256.001C163.168 267.056 158.084 276.926 150.137 283.408C156.938 309.756 173.322 332.249 195.348 346.968L213.748 316.143C194.846 302.845 182.493 280.873 182.493 256.002ZM256.001 182.487C294.404 182.487 325.911 211.93 329.218 249.482L365.077 248.953C363.315 221.231 351.203 196.343 332.596 178.043C323.027 181.658 311.972 181.105 302.42 175.598C292.849 170.075 286.848 160.758 285.208 150.645C275.694 148.013 265.87 146.677 255.999 146.675C239.192 146.657 222.61 150.529 207.548 157.987L225.035 189.325C234.733 184.811 245.304 182.476 256.001 182.487ZM256.001 329.512C245.304 329.522 234.734 327.187 225.037 322.673L207.55 354.009C222.609 361.474 239.193 365.351 256.002 365.333C265.873 365.331 275.698 363.992 285.209 361.352C286.85 351.239 292.853 341.931 302.42 336.399C311.981 330.882 323.028 330.339 332.596 333.954C351.205 315.654 363.315 290.766 365.08 263.044L329.211 262.515C325.911 300.077 294.405 329.51 256.001 329.51L256.001 329.512ZM307.506 166.777C319.544 173.727 334.929 169.611 341.873 157.574C348.827 145.536 344.707 130.152 332.67 123.198C320.632 116.254 305.248 120.378 298.294 132.417C291.351 144.448 295.478 159.831 307.506 166.777Z" fill="#ffffff" fill-rule="nonzero" opacity="1" stroke="none" vectornator:layerName="path"/>
</g>
</g>
</svg>
