<?xml version="1.0" encoding="UTF-8"?><svg id="a" xmlns="http://www.w3.org/2000/svg" viewBox="0 0 128 128"><defs><style>.b{fill:#fff;}.c{fill:#3f89ec;}.d{fill:#4d4d4d;}.e{fill:#9a9a9a;}</style></defs><rect class="c" x="0" y="0" width="128" height="128" rx="25" ry="25" transform="translate(128 0) rotate(90)"/><path class="e" d="m9,26.55l13.52,25.29,8.08-.05v-18.06l-21.6-7.17Z"/><path class="e" d="m97.11,33.72l-.82,18.06h8.79l13.81-24.97-21.78,6.91Z"/><path class="d" d="m90.31,26.81l-17.53,30.28-18.59.27-17.27-30.81H9.03l8.77,16.47h7.44l14.61,25.77,23.38,43.3,22.84-41.17,15.67-27.89h8.23l9.03-16.2h-28.69Zm-26.96,55.25c-5.5,0-9.96-4.46-9.96-9.96s4.46-9.96,9.96-9.96,9.96,4.46,9.96,9.96-4.46,9.96-9.96,9.96h0Z"/><path class="b" d="m81.61,51.84c2.77-3.74,4.41-8.38,4.41-13.39,0-12.44-10.09-22.53-22.53-22.53s-22.53,10.09-22.53,22.53c0,5.01,1.64,9.65,4.41,13.39-5.51,4.96-8.97,12.14-8.97,20.14,0,14.96,12.13,27.09,27.09,27.09s27.09-12.13,27.09-27.09c0-7.99-3.46-15.18-8.97-20.14h0Zm-17.99-18.92c3.01,0,5.45,2.44,5.45,5.45s-2.44,5.45-5.45,5.45-5.45-2.44-5.45-5.45,2.44-5.45,5.45-5.45h0Zm-.13,46.75c-4.25,0-7.7-3.45-7.7-7.7s3.45-7.7,7.7-7.7,7.7,3.45,7.7,7.7-3.45,7.7-7.7,7.7h0Z"/></svg>