<?xml version="1.0" encoding="UTF-8"?><svg id="a" xmlns="http://www.w3.org/2000/svg" viewBox="0 0 128 128"><defs><style>.b{fill:#fff;}.c{fill:#00b4f0;}</style></defs><rect class="c" x="0" y="0" width="128" height="128" rx="25" ry="25" transform="translate(128 0) rotate(90)"/><path class="b" d="m107.86,70.3l-34.89,11.78v.74c0,3.83-2.99,5.76-5.76,5.76s-5.76-1.93-5.76-5.76v-4.56c0-2.44,1.58-4.52,3.55-5.32l30.53-9.02-30.57-9.04c-1.83-.82-3.51-2.81-3.51-5.3v-4.56c0-3.83,2.99-5.76,5.76-5.76s5.76,1.93,5.76,5.76v.74l34.89,11.78c1.89.81,3.52,2.27,3.52,6.38s-1.63,5.59-3.52,6.41h0Zm-78.29,27.11v-22.12c0-10.07,7.74-10.84,11.61-11.17-3.87-.55-11.61-1.33-11.61-11.39v-22.13c0-4.65-2.1-6.64-5.2-6.64h-2.77c-2.88,0-4.98-1.55-4.98-4.98,0-3.21,2.1-4.98,4.98-4.98h8.19c9.62,0,14.38,4.54,14.38,14.71v22.57c0,6.75,2.87,7.41,5.64,7.41,3.65,0,5.31,2.65,5.31,5.31s-1.66,5.31-5.31,5.31c-2.77,0-5.64.66-5.64,7.41v22.57c0,10.18-4.76,14.71-14.38,14.71h-8.19c-2.88,0-4.98-1.77-4.98-4.98,0-3.43,2.1-4.98,4.98-4.98h2.77c3.1,0,5.2-1.99,5.2-6.64h0Z"/></svg>