<?xml version="1.0" encoding="UTF-8" standalone="no"?>
<!DOCTYPE svg PUBLIC "-//W3C//DTD SVG 1.1//EN" "http://www.w3.org/Graphics/SVG/1.1/DTD/svg11.dtd">
<!-- Created with Vectornator (http://vectornator.io/) -->
<svg height="100%" stroke-miterlimit="10" style="fill-rule:nonzero;clip-rule:evenodd;stroke-linecap:round;stroke-linejoin:round;" version="1.1" viewBox="0 0 512 512" width="100%" xml:space="preserve" xmlns="http://www.w3.org/2000/svg" xmlns:vectornator="http://vectornator.io" xmlns:xlink="http://www.w3.org/1999/xlink">
<defs/>
<g id="Ebene-1" vectornator:layerName="Ebene 1">
<path d="M2.84217e-14 95C2.84217e-14 42.5329 42.5329 0 95 0L417 0C469.467 0 512 42.5329 512 95L512 417C512 469.467 469.467 512 417 512L95 512C42.5329 512 2.84217e-14 469.467 2.84217e-14 417L2.84217e-14 95Z" fill="#232531" fill-rule="nonzero" opacity="1" stroke="none" vectornator:layerName="Rechteck 1"/>
<g opacity="1" vectornator:layerName="vim.svg">
<path d="M256.372 92.0357L92.2488 255.628L256.372 419.977L419.741 255.628L256.372 92.0357" fill="#019833" fill-rule="nonzero" opacity="1" stroke="none" vectornator:layerName="path"/>
<path d="M256.343 107.058L256.343 93.2477L93.3257 255.658L107.294 255.658L256.343 107.058" fill="#66fe98" fill-rule="nonzero" opacity="1" stroke="none" vectornator:layerName="path"/>
<path d="M256.343 107.058L256.343 93.2477L419.867 255.658L404.751 255.658L256.343 107.058" fill="#45fe02" fill-rule="nonzero" opacity="1" stroke="none" vectornator:layerName="path"/>
<path d="M256.343 404.955L256.343 420.244L93.3257 255.658L107.294 255.658L256.343 404.955" fill="#017d17" fill-rule="nonzero" opacity="1" stroke="none" vectornator:layerName="path"/>
<path d="M256.343 404.955L256.343 420.244L419.867 255.658L404.751 255.658L256.343 404.955" fill="#005d04" fill-rule="nonzero" opacity="1" stroke="none" vectornator:layerName="path"/>
<path d="M174.454 389.048L142.853 389.048L130.512 377.022L130.512 147.372L120.717 147.372L112.332 138.975L112.332 113.305L121.019 103.883L231.535 103.883L241.471 113.831L241.471 138.196L233.215 148.26L224.864 148.26L224.864 225.888L303.44 148.26L299.053 148.26L289.914 138.404L289.914 112.568L298.893 104.326L410.445 104.326L419.273 113.166L419.273 137.601L174.454 389.048" fill="#000000" fill-rule="nonzero" opacity="1" stroke="none" vectornator:layerName="path"/>
<path d="M256.343 422.5L89.7221 255.658L256.343 89.5L422.278 255.658L256.343 422.5ZM94.8261 255.658L256.343 417.392L417.171 255.658L256.343 94.6117L94.8261 255.658Z" fill="#000000" fill-rule="nonzero" opacity="1" stroke="none" vectornator:layerName="path"/>
<path d="M230.117 119.043L235.026 115.872L230.01 110.665L123.7 110.665L118.299 116.075L118.299 136.535L124.287 142.531L127.144 136.535L123.387 132.771L123.387 118.348L126.205 115.839L226.574 115.963L230.117 119.043" fill="#fefefe" fill-rule="nonzero" opacity="1" stroke="none" vectornator:layerName="path"/>
<path d="M143.578 136.049L143.578 375.507L146.945 378.713L144.247 383.812L137.166 376.837L137.166 142.257L143.578 136.049" fill="#fefefe" fill-rule="nonzero" opacity="1" stroke="none" vectornator:layerName="path"/>
<path d="M126.402 136.049L124.287 142.531L137.13 142.531L144.559 136.049L126.402 136.049" fill="#808080" fill-rule="nonzero" opacity="1" stroke="none" vectornator:layerName="path"/>
<path d="M306.054 136.132L301.563 132.96L301.563 120.104L306.26 115.4L404.272 115.4L408.03 120.417L413.378 116.197L407.873 111.167L302.502 111.167L297.256 116.419L297.256 137.036L302.78 142.035M217.543 241.165L207.308 266.034L322.855 150.017L322.29 135.982L217.543 241.165" fill="#fefefe" fill-rule="nonzero" opacity="1" stroke="none" vectornator:layerName="path"/>
<path d="M229.885 118.951L235.026 115.872L235.026 136.049L229.158 141.924L217.755 141.924L217.543 241.165L207.347 265.977L207.347 136.049L226.39 136.049L229.932 133.166L229.885 118.951M407.682 119.017L413.378 116.197L413.378 134.621L170.793 383.812L144.247 383.812L146.837 378.914L167.226 378.916L407.717 130.263L407.682 119.017M322.29 135.982L316.382 141.918L302.78 142.035L306.102 136.072L322.29 135.982" fill="#808080" fill-rule="nonzero" opacity="1" stroke="none" vectornator:layerName="path"/>
<path d="M305.329 115.208L301.574 118.966L301.574 132.767L304.862 136.059L322.233 136.059L322.233 149.394L207.32 266.026L207.32 136.224L226.417 136.224L230.335 132.301L230.335 118.335L226.718 115.537L126.216 115.537L122.928 118.83L122.928 133.096L126.271 136.444L143.752 136.444L143.752 375.471L147.04 378.762L166.905 378.762L407.721 129.941L407.721 118.966L403.967 115.208L305.329 115.208" fill="#cccccc" fill-rule="nonzero" opacity="1" stroke="none" vectornator:layerName="path"/>
<path d="M167.04 379.081L146.909 379.081L143.435 375.602L143.435 136.761L126.14 136.761L122.611 133.227L122.611 118.697L126.085 115.22L226.827 115.22L230.653 118.179L230.653 132.432L226.549 136.541L207.637 136.541L207.637 265.252L321.916 149.263L321.916 136.377L304.731 136.377L301.257 132.899L301.257 118.835L305.196 114.89L404.098 114.89L408.038 118.835L408.038 130.069L407.949 130.161L167.04 379.081ZM147.172 378.445L166.771 378.445L407.404 129.813L407.404 119.097L403.835 115.525L305.46 115.525L301.891 119.097L301.891 132.636L304.994 135.742L322.551 135.742L322.551 149.524L322.46 149.616L207.003 266.8L207.003 135.907L226.286 135.907L230.018 132.168L230.018 118.491L226.61 115.854L126.347 115.854L123.245 118.961L123.245 132.965L126.403 136.127L144.069 136.127L144.069 375.338L147.172 378.445Z" fill="#808080" fill-rule="nonzero" opacity="1" stroke="none" vectornator:layerName="path"/>
<path d="M264.53 276.327C264.346 276.366 264.176 276.451 264.036 276.574L259.379 280.579C259.24 280.706 259.136 280.867 259.077 281.046L254.419 294.106C254.279 294.498 254.375 294.934 254.666 295.231L258.228 298.797C258.434 298.995 258.71 299.104 258.996 299.1L273.38 299.1C273.665 299.104 273.941 298.995 274.146 298.797L277.901 295.012C278.031 294.882 278.124 294.721 278.175 294.545L282.176 280.799C282.286 280.419 282.181 280.009 281.902 279.73L278.805 276.629C278.599 276.431 278.324 276.322 278.038 276.327L264.749 276.327C264.676 276.32 264.603 276.32 264.53 276.327ZM238.172 313.146C237.768 313.233 237.449 313.542 237.35 313.943L235.569 321.021C235.488 321.343 235.56 321.684 235.763 321.946C235.966 322.208 236.278 322.363 236.609 322.366L245.076 322.366L224.088 382.369C223.977 382.697 224.03 383.059 224.231 383.341C224.432 383.623 224.756 383.793 225.102 383.796L255.652 383.796C256.124 383.802 256.545 383.502 256.694 383.054L258.694 376.607C258.795 376.278 258.732 375.921 258.527 375.645C258.321 375.368 257.997 375.207 257.652 375.208L250.748 375.208L271.517 314.574C271.628 314.246 271.574 313.884 271.374 313.602C271.173 313.319 270.849 313.15 270.503 313.146L238.39 313.146C238.318 313.14 238.244 313.14 238.172 313.146ZM335.386 313.366C335.151 313.415 334.938 313.54 334.782 313.723L328.426 320.911L318.315 320.911L311.574 313.915C311.374 313.707 311.098 313.588 310.808 313.585L286.669 313.585C286.215 313.586 285.809 313.871 285.655 314.299L283.436 320.939C283.326 321.267 283.38 321.628 283.58 321.91C283.781 322.192 284.103 322.361 284.449 322.366L290.916 322.366L270.804 381.71C270.694 382.038 270.748 382.399 270.949 382.681C271.149 382.963 271.472 383.133 271.818 383.138L297.519 383.138C297.973 383.136 298.378 382.852 298.533 382.424L300.505 376.635C300.615 376.307 300.562 375.946 300.362 375.664C300.161 375.382 299.838 375.212 299.492 375.208L294.999 375.208L307.822 334.794L331.029 334.794L316.398 381.739C316.296 382.068 316.358 382.425 316.563 382.702C316.769 382.978 317.094 383.14 317.438 383.138L342.235 383.138C342.665 383.134 343.053 382.875 343.222 382.479L345.441 377.156C345.572 376.826 345.533 376.452 345.336 376.156C345.139 375.861 344.81 375.681 344.455 375.675L339.961 375.675L353.004 334.574L375.087 334.574L360.237 381.739C360.136 382.068 360.198 382.426 360.403 382.702C360.609 382.978 360.934 383.14 361.279 383.138L388.513 383.138C388.96 383.14 389.363 382.868 389.528 382.452L391.746 376.662C391.868 376.331 391.82 375.961 391.618 375.672C391.416 375.382 391.086 375.209 390.733 375.208L385.334 375.208L401.748 321.845C401.857 321.508 401.796 321.139 401.583 320.856L396.487 313.997C396.276 313.729 395.951 313.577 395.61 313.585L376.129 313.585C375.83 313.58 375.542 313.7 375.334 313.915L369.196 320.664L358.456 320.664L352.1 313.696C351.892 313.48 351.604 313.361 351.304 313.366L335.604 313.366C335.532 313.359 335.459 313.359 335.386 313.366Z" fill="#cccccc" fill-rule="nonzero" opacity="1" stroke="none" vectornator:layerName="path"/>
<path d="M256.466 300.626C257.146 301.281 258.034 301.639 258.936 301.639L258.996 301.638L273.336 301.638C274.3 301.668 275.212 301.296 275.951 300.586L279.696 296.807C280.13 296.373 280.448 295.831 280.613 295.255L284.613 281.511C284.984 280.241 284.633 278.87 283.697 277.936L280.568 274.801C279.894 274.138 278.983 273.773 278.038 273.788L264.84 273.788C264.651 273.777 264.462 273.782 264.274 273.801L264.007 273.842C263.397 273.971 262.826 274.255 262.381 274.648L257.723 278.654L257.669 278.702C257.216 279.115 256.874 279.637 256.677 280.218L252.029 293.249C251.564 294.565 251.89 296.031 252.869 297.025L256.466 300.626ZM277.451 278.866L279.497 280.914L275.839 293.484L272.791 296.56L259.583 296.561L257.118 294.093L261.349 282.233L265.265 278.866L277.451 278.866ZM403.621 319.341L398.525 312.483L398.479 312.424C397.782 311.542 396.714 311.033 395.589 311.047L376.171 311.047C375.169 311.026 374.204 311.426 373.509 312.149L368.074 318.126L359.577 318.126L353.975 311.985L353.923 311.929C353.234 311.224 352.29 310.827 351.304 310.828L335.695 310.828C335.506 310.817 335.317 310.821 335.129 310.841L334.866 310.881C334.096 311.041 333.398 311.448 332.88 312.041L327.281 318.372L319.395 318.372L313.4 312.15C312.718 311.45 311.785 311.053 310.808 311.047L286.661 311.047C285.143 311.055 283.789 312.007 283.268 313.433L281.029 320.13C280.661 321.233 280.844 322.445 281.521 323.389C282.198 324.334 283.287 324.897 284.449 324.904L287.375 324.904L268.395 380.906C267.766 382.801 268.786 384.849 270.678 385.489C271.038 385.608 271.412 385.672 271.818 385.676L297.527 385.676C299.062 385.664 300.426 384.691 300.937 383.243L302.914 377.441C303.28 376.339 303.097 375.127 302.419 374.183C301.742 373.238 300.654 372.675 299.492 372.669L298.467 372.669L309.679 337.333L327.577 337.333L313.969 380.995C313.387 382.906 314.46 384.927 316.368 385.516C316.716 385.617 317.076 385.671 317.438 385.676L342.257 385.676C343.704 385.663 345.005 384.79 345.565 383.456L347.802 378.091C348.242 376.979 348.104 375.721 347.435 374.73C346.765 373.74 345.65 373.143 344.455 373.135L343.431 373.135L354.861 337.114L371.625 337.114L357.808 380.998C357.476 382.094 357.681 383.281 358.36 384.202C359.04 385.124 360.114 385.67 361.259 385.676L388.496 385.676C389.998 385.675 391.347 384.757 391.898 383.36L394.131 377.534C394.535 376.423 394.373 375.186 393.696 374.218C393.02 373.25 391.914 372.672 390.733 372.669L388.772 372.669L404.161 322.632C404.527 321.513 404.325 320.285 403.621 319.341ZM381.897 377.747L388.612 377.747L387.518 380.598L363.257 380.598L378.549 332.036L351.145 332.036L336.491 378.214L342.249 378.214L341.255 380.598L319.412 380.598L334.479 332.255L305.963 332.255L291.529 377.747L297.445 377.747L296.473 380.598L273.862 380.598L294.457 319.826L286.485 319.826L287.721 316.125L310.178 316.125L317.236 323.45L329.57 323.45L336.241 315.905L350.678 315.904L357.335 323.204L370.32 323.204L376.757 316.125L394.904 316.125L399.108 321.784L381.897 377.747ZM258.723 372.828C258.375 372.726 258.015 372.672 257.652 372.669L254.301 372.669L273.924 315.382C274.292 314.279 274.109 313.067 273.431 312.122C272.754 311.177 271.665 310.614 270.503 310.608L238.481 310.608C238.292 310.597 238.102 310.602 237.913 310.621L237.637 310.665C236.286 310.95 235.217 311.983 234.887 313.323L233.104 320.408C232.625 322.35 233.807 324.313 235.747 324.799C236.022 324.866 236.306 324.903 236.609 324.904L241.497 324.904L221.681 381.562C221.313 382.665 221.497 383.876 222.174 384.821C222.851 385.765 223.94 386.328 225.102 386.335L255.669 386.335C257.233 386.335 258.608 385.343 259.119 383.807L261.122 377.349C261.704 375.439 260.631 373.417 258.723 372.828ZM227.166 381.257L248.654 319.826L238.488 319.826L239.529 315.686L268.451 315.686L247.194 377.747L255.682 377.747L254.593 381.257C254.593 381.257 227.166 381.257 227.166 381.257Z" fill="#000000" fill-rule="nonzero" opacity="1" stroke="none" vectornator:layerName="path"/>
</g>
</g>
</svg>
