<?xml version="1.0" encoding="UTF-8"?><svg id="a" xmlns="http://www.w3.org/2000/svg" xmlns:xlink="http://www.w3.org/1999/xlink" viewBox="0 0 128 128"><defs><style>.d{fill:#fff;}.e{fill:url(#b);}.f{fill:url(#c);}</style><linearGradient id="b" x1="0" y1="64" x2="128" y2="64" gradientTransform="translate(0 128) rotate(-90)" gradientUnits="userSpaceOnUse"><stop offset="0" stop-color="#41d1ff"/><stop offset="1" stop-color="#bd34fe"/></linearGradient><linearGradient id="c" x1=".84" y1="128.93" x2=".86" y2="128.59" gradientTransform="translate(-28.06 27606.95) scale(117.39 -214)" gradientUnits="userSpaceOnUse"><stop offset="0" stop-color="#ffea83"/><stop offset=".08" stop-color="#ffdd35"/><stop offset="1" stop-color="#ffa800"/></linearGradient></defs><rect class="e" x="0" y="0" width="128" height="128" rx="25" ry="25" transform="translate(128 0) rotate(90)"/><path class="d" d="m113.61,28.8l-46.92,83.89c-.97,1.73-3.46,1.74-4.44.02L14.4,28.81c-1.07-1.88.54-4.15,2.66-3.77l46.97,8.39c.3.05.61.05.91,0l45.98-8.38c2.12-.39,3.74,1.87,2.68,3.75Z"/><path class="f" d="m86.41,14.02l-34.72,6.8c-.57.11-.99.6-1.03,1.18l-2.14,36.07c-.05.85.73,1.51,1.56,1.32l9.67-2.23c.9-.21,1.72.59,1.54,1.5l-2.87,14.06c-.19.95.7,1.76,1.62,1.48l5.97-1.81c.93-.28,1.81.53,1.62,1.48l-4.56,22.09c-.29,1.38,1.55,2.14,2.32.95l.51-.79,28.29-56.46c.47-.95-.34-2.02-1.38-1.82l-9.95,1.92c-.94.18-1.73-.69-1.47-1.61l6.49-22.51c.26-.92-.53-1.79-1.47-1.6Z"/></svg>