<?xml version="1.0" encoding="UTF-8"?><svg id="a" xmlns="http://www.w3.org/2000/svg" viewBox="0 0 128 128"><defs><style>.b{fill:#fff;}.c{fill:rgba(114,155,27,.5);}.d{fill:#fcc72b;}.e{fill:#729b1b;}</style></defs><rect class="d" x="0" y="0" width="128" height="128" rx="25" ry="25" transform="translate(128 0) rotate(90)"/><path class="b" d="m89.04,46.05l-23.91,34.57c-.25.37-.62.64-1.04.78-.42.14-.88.14-1.31,0-.42-.14-.79-.42-1.04-.79-.25-.37-.38-.81-.35-1.25l.96-19.08-15.45-3.28c-.33-.07-.64-.22-.9-.44-.26-.22-.46-.49-.58-.81-.12-.31-.17-.65-.13-.98.04-.33.16-.65.35-.93l23.91-34.57c.25-.37.62-.64,1.04-.78.42-.14.88-.14,1.31,0,.42.14.79.42,1.04.79.25.37.38.81.35,1.25l-.96,19.08,15.45,3.28c.33.07.64.22.9.44.26.22.46.49.58.81.13.31.17.65.13.98-.04.33-.16.65-.35.93h0Z"/><path class="e" d="m64.01,109.61c-.64,0-1.27-.12-1.85-.37-.59-.24-1.12-.6-1.57-1.05l-22.59-22.59c-.9-.91-1.41-2.14-1.41-3.42,0-1.28.51-2.51,1.42-3.42.91-.91,2.13-1.42,3.42-1.42,1.28,0,2.51.5,3.42,1.41l19.17,19.16,41.75-41.75c.91-.9,2.14-1.4,3.41-1.39,1.28,0,2.5.51,3.4,1.42.9.9,1.41,2.13,1.42,3.4,0,1.28-.49,2.5-1.39,3.41l-45.18,45.18c-.45.45-.98.81-1.57,1.05-.59.24-1.22.37-1.85.37Z"/><path class="c" d="m63.99,109.61c.64,0,1.27-.12,1.85-.37.59-.24,1.12-.6,1.57-1.05l22.59-22.59c.9-.91,1.41-2.14,1.41-3.42,0-1.28-.51-2.51-1.42-3.42-.91-.91-2.13-1.42-3.42-1.42-1.28,0-2.51.5-3.42,1.41l-19.17,19.16L22.24,56.17c-.91-.9-2.14-1.4-3.41-1.39-1.28,0-2.5.51-3.4,1.42-.9.9-1.41,2.13-1.42,3.4,0,1.28.49,2.5,1.39,3.41l45.18,45.18c.45.45.98.81,1.57,1.05.59.24,1.22.37,1.85.37Z"/></svg>