<?xml version="1.0" encoding="UTF-8"?>
<svg id="Ebene_1" data-name="Ebene 1" xmlns="http://www.w3.org/2000/svg" viewBox="0 0 256 256">
  <defs>
    <style>
      .cls-1 {
        fill: #fff;
      }

      .cls-2 {
        fill: #ef3939;
      }

      .cls-3 {
        fill: none;
      }
    </style>
  </defs>
  <g id="Ebene_2" data-name="Ebene 2">
    <path class="cls-2" d="m45,0h166c24.85,0,45,20.15,45,45v166c0,24.85-20.15,45-45,45H45c-24.85,0-45-20.15-45-45V45C0,20.15,20.15,0,45,0Z"/>
  </g>
  <g>
    <rect id="b-2" class="cls-3" x="18" y="18" width="220" height="220" rx="7.48" ry="7.48"/>
    <path class="cls-1" d="m170.69,84.75c-6.33-12.69.4-26.89,14.18-29.93,11.22-2.49,22.84,5.73,24.31,17.13.65,4.99-.32,9.55-2.82,13.87-20.45,35.47-40.92,70.9-61.32,106.37-3.79,6.59-9.33,10.57-16.88,11.12-8.48.6-15.14-2.94-19.41-10.3-12.95-22.22-25.74-44.52-38.58-66.79-7.8-13.55-15.67-27.08-23.44-40.65-7.85-13.69,1-30.32,16.76-31.15,8.3-.42,14.73,3.42,18.96,10.62,5.76,9.86,11.43,19.78,17.13,29.66,4.11,7.14,8.16,14.31,12.4,21.35,6.12,10.25,15.14,16.01,27.11,16.74,16.98,1,32.75-11.27,34.79-29.28.15-1.34.26-2.69.29-3.4-.08-5.83-1.17-10.75-3.49-15.36h0Z"/>
  </g>
</svg>