<?xml version="1.0" encoding="UTF-8"?><svg id="a" xmlns="http://www.w3.org/2000/svg" viewBox="0 0 128 128"><defs><style>.b{fill:#fff;}.c{fill:#1c78c0;}.d{fill:#8ed6fb;}</style></defs><rect class="c" x="0" y="0" width="128" height="128" rx="25" ry="25" transform="translate(128 0) rotate(90)"/><polygon class="b" points="64 14 108.19 39 108.19 89 64 114 19.81 89 19.81 39 64 14"/><path class="d" d="m100.3,87.27l-34.83,19.73v-15.34l21.71-11.96,13.12,7.57Zm2.38-2.15v-41.22l-12.74,7.35v26.51l12.74,7.35Zm-75.12,2.15l34.83,19.71v-15.34l-21.71-11.94-13.12,7.57h0Zm-2.38-2.15v-41.22l12.74,7.35v26.51l-12.74,7.35h0Zm1.48-43.89l35.73-20.21v14.84l-22.89,12.59-.18.1-12.66-7.32h0Zm74.52,0l-35.72-20.21v14.84l22.88,12.61.18.1,12.66-7.34h0Z"/><path class="c" d="m62.4,88.15l-21.41-11.79v-23.33l21.41,12.36v22.76h0Zm3.07,0l21.41-11.77v-23.35l-21.41,12.36v22.76Zm-23.04-37.82l21.51-11.82,21.49,11.82-21.49,12.41-21.51-12.41h0Z"/></svg>