<?xml version="1.0" encoding="UTF-8"?>
<svg id="Ebene_1" data-name="Ebene 1" xmlns="http://www.w3.org/2000/svg" xmlns:xlink="http://www.w3.org/1999/xlink" viewBox="0 0 256 256">
  <defs>
    <style>
      .cls-1 {
        fill: #fff;
      }

      .cls-2 {
        fill: url(#Unbenannter_Verlauf_2);
      }

      .cls-3 {
        fill: #27282c;
      }

      .cls-4 {
        fill: url(#Unbenannter_Verlauf_3);
      }

      .cls-5 {
        fill: url(#Unbenannter_Verlauf_3-2);
      }
    </style>
    <linearGradient id="Unbenannter_Verlauf_3" data-name="Unbenannter Verlauf 3" x1="1.25" y1="254.87" x2="1.51" y2="254.05" gradientTransform="translate(-178 65166) scale(219.6 -255.6)" gradientUnits="userSpaceOnUse">
      <stop offset=".28" stop-color="#00cdd7"/>
      <stop offset=".94" stop-color="#2086d7"/>
    </linearGradient>
    <linearGradient id="Unbenannter_Verlauf_2" data-name="Unbenannter Verlauf 2" x1="1.19" y1="254.67" x2="1.73" y2="254.05" gradientTransform="translate(-107.6 60148) scale(185.6 -236)" gradientUnits="userSpaceOnUse">
      <stop offset=".14" stop-color="#fff045"/>
      <stop offset=".37" stop-color="#00cdd7"/>
    </linearGradient>
    <linearGradient id="Unbenannter_Verlauf_3-2" data-name="Unbenannter Verlauf 3" x1="149.17" y1="463.02" x2="155.64" y2="472.41" gradientTransform="translate(26.8 20248) scale(51.2 -80)" xlink:href="#Unbenannter_Verlauf_3"/>
  </defs>
  <g id="Ebene_2" data-name="Ebene 2">
    <rect class="cls-3" width="256" height="256" rx="35" ry="35"/>
  </g>
  <g>
    <polygon class="cls-4" points="45.73 218.7 15.5 39.05 71.75 15.85 107.26 36.95 140.3 19.37 208.51 45.73 170.19 240.5 45.73 218.7"/>
    <polygon class="cls-2" points="240.5 91.79 211.32 20.07 158.94 15.5 77.38 93.55 99.17 194.45 140.3 222.92 240.5 163.51 215.89 117.45 240.5 91.79"/>
    <polygon class="cls-5" points="195.5 80.89 215.89 117.45 240.5 91.79 222.57 47.14 195.5 80.89"/>
    <rect x="57.69" y="57.69" width="140.62" height="140.62"/>
    <path class="cls-1" d="m71.05,171.95h52.73v8.79h-52.73v-8.79Zm68.91-46.05l7.38-9.14c5.27,4.22,10.55,7.03,17.23,7.03,5.27,0,8.44-2.11,8.44-5.62,0-3.16-2.11-4.92-11.6-7.38-11.6-3.16-18.98-6.33-18.98-17.93v-.35c0-10.55,8.44-17.58,20.04-17.58,7.78-.03,15.34,2.57,21.45,7.38l-6.68,9.84c-4.24-3.32-9.39-5.28-14.77-5.62-4.57,0-7.38,2.11-7.38,5.27,0,3.87,2.46,5.27,12.3,7.73,11.6,3.16,18.28,7.38,18.28,17.58,0,11.6-8.79,18.28-21.09,18.28-9.03-.33-17.69-3.67-24.61-9.49Zm-11.25-49.92l-8.79,33.75-9.84-33.75h-9.84l-9.84,33.75-8.79-33.75h-13.71l16.88,58.36h10.9l9.49-33.75,9.49,33.75h10.9l16.87-58.36h-13.71Z"/>
  </g>
</svg>