<?xml version="1.0" encoding="UTF-8" standalone="no"?>
<!DOCTYPE svg PUBLIC "-//W3C//DTD SVG 1.1//EN" "http://www.w3.org/Graphics/SVG/1.1/DTD/svg11.dtd">
<!-- Created with Vectornator (http://vectornator.io/) -->
<svg height="100%" stroke-miterlimit="10" style="fill-rule:nonzero;clip-rule:evenodd;stroke-linecap:round;stroke-linejoin:round;" version="1.1" viewBox="0 0 512 512" width="100%" xml:space="preserve" xmlns="http://www.w3.org/2000/svg" xmlns:vectornator="http://vectornator.io" xmlns:xlink="http://www.w3.org/1999/xlink">
<defs>
<linearGradient gradientTransform="matrix(1.5625 0 0 1.5625 56 56)" gradientUnits="userSpaceOnUse" id="LinearGradient" x1="91.58" x2="157.84" y1="5.32" y2="243.82">
<stop offset="0.28" stop-color="#00cdd7"/>
<stop offset="0.94" stop-color="#2086d7"/>
</linearGradient>
<linearGradient gradientTransform="matrix(1.5625 0 0 1.5625 56 56)" gradientUnits="userSpaceOnUse" id="LinearGradient_2" x1="112.14" x2="224.22" y1="35.7" y2="200.04">
<stop offset="0.14" stop-color="#fff045"/>
<stop offset="0.37" stop-color="#00cdd7"/>
</linearGradient>
<linearGradient gradientTransform="matrix(1.5625 0 0 1.5625 56 56)" gradientUnits="userSpaceOnUse" id="LinearGradient_3" x1="5924.35" x2="6301.18" y1="-22117.4" y2="-22971.7">
<stop offset="0.28" stop-color="#00cdd7"/>
<stop offset="0.94" stop-color="#2086d7"/>
</linearGradient>
</defs>
<g id="Ebene-1" vectornator:layerName="Ebene 1">
<path d="M2.84217e-14 95C2.84217e-14 42.5329 42.5329 0 95 0L417 0C469.467 0 512 42.5329 512 95L512 417C512 469.467 469.467 512 417 512L95 512C42.5329 512 2.84217e-14 469.467 2.84217e-14 417L2.84217e-14 95Z" fill="#232531" fill-rule="nonzero" opacity="1" stroke="none" vectornator:layerName="Rechteck 1"/>
<g opacity="1" vectornator:layerName="g">
<path d="M109.75 417.25L56 97.875L156 56.625L219.125 94.125L277.875 62.875L399.125 109.75L331 456L109.75 417.25Z" fill="url(#LinearGradient)" fill-rule="nonzero" opacity="1" stroke="none" vectornator:layerName="polygon"/>
<path d="M456 191.625L404.125 64.125L311 56L166 194.75L204.75 374.125L277.875 424.75L456 319.125L412.25 237.25L456 191.625Z" fill="url(#LinearGradient_2)" fill-rule="nonzero" opacity="1" stroke="none" vectornator:layerName="polygon"/>
<path d="M376 172.25L412.25 237.25L456 191.625L424.125 112.25L376 172.25Z" fill="url(#LinearGradient_3)" fill-rule="nonzero" opacity="1" stroke="none" vectornator:layerName="polygon"/>
<path d="M131 131L381 131L381 131L381 381L381 381L131 381L131 381L131 131L131 131Z" fill="#000000" fill-rule="nonzero" opacity="1" stroke="none" vectornator:layerName="rect"/>
<path d="M154.75 334.125L248.5 334.125L248.5 349.75L154.75 349.75L154.75 334.125ZM277.25 252.25L290.375 236C299.75 243.5 309.125 248.5 321 248.5C330.375 248.5 336 244.75 336 238.5C336 232.875 332.25 229.75 315.375 225.375C294.75 219.75 281.625 214.125 281.625 193.5L281.625 192.875C281.625 174.125 296.625 161.625 317.25 161.625C331.076 161.567 344.515 166.193 355.375 174.75L343.5 192.25C335.954 186.353 326.806 182.868 317.25 182.25C309.125 182.25 304.125 186 304.125 191.625C304.125 198.5 308.5 201 326 205.375C346.625 211 358.5 218.5 358.5 236.625C358.5 257.25 342.875 269.125 321 269.125C304.943 268.535 289.544 262.595 277.25 252.25ZM257.25 163.5L241.625 223.5L224.125 163.5L206.625 163.5L189.125 223.5L173.5 163.5L149.125 163.5L179.125 267.25L198.5 267.25L215.375 207.25L232.25 267.25L251.625 267.25L281.625 163.5L257.25 163.5Z" fill="#ffffff" fill-rule="nonzero" opacity="1" stroke="none" vectornator:layerName="path"/>
</g>
</g>
</svg>
