<?xml version="1.0" encoding="UTF-8"?>
<svg id="Ebene_1" data-name="Ebene 1" xmlns="http://www.w3.org/2000/svg" viewBox="0 0 256 256">
  <defs>
    <style>
      .cls-1 {
        fill: #fff;
      }

      .cls-2 {
        fill: #2a5699;
      }
    </style>
  </defs>
  <g id="Ebene_2" data-name="Ebene 2">
    <path class="cls-2" d="m45,0h166c24.85,0,45,20.15,45,45v166c0,24.85-20.15,45-45,45H45c-24.85,0-45-20.15-45-45V45C0,20.15,20.15,0,45,0Z"/>
  </g>
  <g>
    <path class="cls-1" d="m132.52,30.3h13.59v18.18c24.31.14,48.6-.25,72.89.14,5.18-.52,9.25,3.5,8.77,8.68.39,44.76-.09,89.54.23,134.3-.23,4.59.45,9.68-2.2,13.75-3.32,2.36-7.61,2.07-11.47,2.25-22.75-.11-45.47-.07-68.21-.07v18.18h-14.2c-34.58-6.32-69.25-12.11-103.9-18.18-.02-53.01,0-106.02,0-159,34.83-6.09,69.68-12.02,104.52-18.22h0Z"/>
    <path class="cls-2" d="m146.11,55.29h74.98v145.41h-74.98v-18.18h59.07v-9.09h-59.07v-11.36h59.07v-9.09h-59.07v-11.36h59.07v-9.09h-59.07v-11.36h59.07v-9.09h-59.07v-11.36h59.07v-9.09h-59.07v-11.36h59.07v-9.09h-59.07v-15.9Zm-71.16,40.15c4.32-.25,8.63-.43,12.95-.66,3.02,15.34,6.11,30.65,9.38,45.92,2.57-15.77,5.41-31.49,8.16-47.24,4.54-.16,9.09-.41,13.61-.68-5.13,22.02-9.63,44.21-15.25,66.09-3.8,1.98-9.48-.09-13.97.23-3.02-15.04-6.54-29.99-9.25-45.1-2.66,14.68-6.11,29.22-9.16,43.81-4.36-.23-8.75-.5-13.13-.8-3.77-19.99-8.2-39.85-11.72-59.89,3.88-.18,7.79-.34,11.68-.48,2.34,14.47,5,28.88,7.04,43.37,3.21-14.86,6.48-29.72,9.66-44.58h0Z"/>
  </g>
</svg>