<?xml version="1.0" encoding="UTF-8"?><svg id="a" xmlns="http://www.w3.org/2000/svg" viewBox="0 0 128 128"><defs><style>.b{fill:#fff;}.c{fill:#464342;}</style></defs><rect class="c" x="0" y="0" width="128" height="128" rx="25" ry="25" transform="translate(128 0) rotate(90)"/><path class="b" d="m21.11,64c0,16.98,9.87,31.65,24.17,38.6l-20.46-56.06c-2.38,5.33-3.71,11.24-3.71,17.46h0Zm71.85-2.16c0-5.3-1.9-8.97-3.54-11.83-2.17-3.53-4.21-6.53-4.21-10.06,0-3.94,2.99-7.61,7.2-7.61.19,0,.37.02.56.03-7.63-6.99-17.8-11.26-28.96-11.26-14.98,0-28.17,7.69-35.84,19.33,1.01.03,1.95.05,2.76.05,4.49,0,11.43-.54,11.43-.54,2.31-.14,2.58,3.26.28,3.53,0,0-2.32.27-4.91.41l15.62,46.46,9.39-28.15-6.68-18.31c-2.31-.14-4.5-.41-4.5-.41-2.31-.14-2.04-3.67.27-3.53,0,0,7.08.54,11.3.54,4.49,0,11.43-.54,11.43-.54,2.31-.14,2.59,3.26.28,3.53,0,0-2.33.27-4.91.41l15.5,46.11,4.28-14.3c1.85-5.93,3.27-10.19,3.27-13.87h0Zm-28.2,5.92l-12.87,37.4c3.84,1.13,7.91,1.75,12.12,1.75,4.99,0,9.78-.86,14.24-2.43-.12-.18-.22-.38-.31-.59l-13.19-36.12h0Zm36.88-24.33c.18,1.37.29,2.83.29,4.41,0,4.35-.81,9.25-3.26,15.36l-13.1,37.88c12.75-7.44,21.33-21.25,21.33-37.07,0-7.46-1.9-14.47-5.25-20.58h0ZM64,14c-27.57,0-50,22.43-50,50s22.43,50,50,50,50-22.43,50-50c0-27.57-22.43-50-50-50h0Zm0,97.7c-26.3,0-47.71-21.4-47.71-47.71S37.69,16.29,64,16.29s47.7,21.4,47.7,47.7-21.4,47.71-47.7,47.71h0Z"/></svg>