<?xml version="1.0" encoding="UTF-8" standalone="no"?>
<!DOCTYPE svg PUBLIC "-//W3C//DTD SVG 1.1//EN" "http://www.w3.org/Graphics/SVG/1.1/DTD/svg11.dtd">
<!-- Created with Vectornator (http://vectornator.io/) -->
<svg height="100%" stroke-miterlimit="10" style="fill-rule:nonzero;clip-rule:evenodd;stroke-linecap:round;stroke-linejoin:round;" version="1.1" viewBox="0 0 512 512" width="100%" xml:space="preserve" xmlns="http://www.w3.org/2000/svg" xmlns:vectornator="http://vectornator.io" xmlns:xlink="http://www.w3.org/1999/xlink">
<defs/>
<g id="Ebene-1" vectornator:layerName="Ebene 1">
<path d="M2.84217e-14 95C2.84217e-14 42.5329 42.5329 0 95 0L417 0C469.467 0 512 42.5329 512 95L512 417C512 469.467 469.467 512 417 512L95 512C42.5329 512 2.84217e-14 469.467 2.84217e-14 417L2.84217e-14 95Z" fill="#232531" fill-rule="nonzero" opacity="1" stroke="none" vectornator:layerName="Rechteck 1"/>
</g>
<g id="Ebene-2" vectornator:layerName="Ebene 2">
<g opacity="1" vectornator:layerName="microsoft-word-2013-logo.svg">
<path d="M263.534 93.3296L286.156 93.3296L286.156 123.594C326.635 123.821 367.077 123.176 407.519 123.821C416.145 122.949 422.915 129.647 422.122 138.272C422.763 212.798 421.97 287.36 422.5 361.886C422.122 369.527 423.257 378.001 418.829 384.771C413.306 388.706 406.154 388.215 399.726 388.515C361.853 388.33 324.023 388.406 286.156 388.406L286.156 418.67L262.514 418.67C204.939 408.154 147.207 398.508 89.5175 388.406C89.4781 300.15 89.5175 211.89 89.5175 123.67C147.507 113.531 205.542 103.659 263.537 93.3296L263.534 93.3296Z" fill="#2a5699" fill-rule="nonzero" opacity="1" stroke="none" vectornator:layerName="path"/>
<path d="M286.156 134.943L410.997 134.943L410.997 377.057L286.156 377.057L286.156 346.793L384.515 346.793L384.515 331.661L286.156 331.661L286.156 312.745L384.515 312.745L384.515 297.613L286.156 297.613L286.156 278.698L384.515 278.698L384.515 263.566L286.156 263.566L286.156 244.651L384.515 244.651L384.515 229.519L286.156 229.519L286.156 210.604L384.515 210.604L384.515 195.471L286.156 195.471L286.156 176.556L384.515 176.556L384.515 161.424L286.156 161.424L286.156 134.943ZM167.672 201.788C174.86 201.373 182.047 201.07 189.235 200.692C194.265 226.229 199.41 251.724 204.858 277.146C209.134 250.891 213.864 224.713 218.437 198.498C226.003 198.235 233.569 197.817 241.099 197.363C232.549 234.019 225.059 270.981 215.713 307.41C209.394 310.703 199.937 307.259 192.446 307.788C187.413 282.748 181.551 257.852 177.048 232.697C172.623 257.135 166.873 281.346 161.804 305.636C154.54 305.258 147.241 304.804 139.935 304.311C133.658 271.02 126.279 237.956 120.417 204.59C126.885 204.287 133.392 204.021 139.862 203.794C143.757 227.891 148.185 251.878 151.589 276.011C156.931 251.273 162.376 226.532 167.672 201.788Z" fill="#ffffff" fill-rule="nonzero" opacity="1" stroke="none" vectornator:layerName="path"/>
</g>
</g>
</svg>
