<?xml version="1.0" encoding="UTF-8"?><svg id="a" xmlns="http://www.w3.org/2000/svg" viewBox="0 0 128 128"><defs><style>.b{fill:#fff;fill-rule:evenodd;}.c{fill:#fb7a24;}</style></defs><rect class="c" x="0" y="0" width="128" height="128" rx="25" ry="25" transform="translate(128 0) rotate(90)"/><path class="b" d="m64.03,83.48c-.39,2.37-.66,4.52-1.51,6.5-3.99,9.27-10.8,14.92-21,16.04-12.06,1.33-23.2-6.12-26.55-17.68-1.21-4.19-1.09-8.46-.65-12.73.47-4.56,1.81-8.88,3.91-12.95.3-.58.29-1.02-.08-1.59-3.22-4.84-4.47-10.19-4.01-15.96.24-3.08.99-6.04,2.39-8.8,4.1-8.1,13.1-14.97,25.15-13.83,10.6,1,20.42,10.15,21.95,20.43.08.52.22,1.02.39,1.78.25-1.38.44-2.52.67-3.64,1.97-9.34,11.12-19.12,24.08-19.24,13.14-.12,22.87,10.18,24.7,19.75.78,4.04.64,8.08,0,12.12-.63,4.02-1.83,7.93-3.56,11.61-.38.82-.34,1.4.15,2.16,2.83,4.38,4.08,9.2,3.92,14.43-.33,10.91-8.05,20.69-18.66,23.25-14.82,3.57-26.18-5.29-30-16.01-.62-1.75-.92-3.57-1.28-5.65h0Zm26.92-19.16c.16-.62.64-.99.98-1.44,3.72-4.94,5.67-10.45,5.23-16.66-.32-4.53-4.05-7.72-8.56-7.56-4.52.17-7.92,3.65-7.98,8.17,0,.37.02.74,0,1.11-.31,4.82-2.97,7.45-6.99,7.75-.74.05-1.47.12-2.21.12-5.23.01-10.45,0-15.68,0-2.28,0-4.54.25-6.72.92-10.14,3.13-16.06,10.07-18.02,20.41-.39,2.05-.74,4.17-.07,6.27.96,3.01,2.76,5.26,5.93,6.01,3.29.78,6.16-.08,8.44-2.67,1.47-1.67,1.94-3.66,2.05-5.84.28-5.61,3.34-8.41,8.43-8.37,7.81.07,15.62.01,23.43.02,1.39,0,1.4.02,1.41,1.39.01,2.53-.06,5.07.03,7.6.16,4.13,3.79,7.56,8.01,7.68,4.34.12,8.22-3.09,8.5-7.28.24-3.63.23-7.28,0-10.92-.18-2.81-1.71-4.82-4.28-5.98-.62-.28-1.27-.49-1.91-.73h0Zm-48.96-8.52c1.68,0,3.05-.02,4.42,0,.68.01.93-.28.93-.95-.02-2.64.11-5.28-.05-7.91-.22-3.46-2.06-5.97-5.29-7.23-3.31-1.3-6.33-.56-8.89,1.89-2.57,2.45-2.91,5.46-2.01,8.74.83,3.02,2.78,4.73,5.85,5.25,1.78.3,3.58.16,5.05.2Z"/></svg>