<?xml version="1.0" encoding="UTF-8"?><svg id="a" xmlns="http://www.w3.org/2000/svg" viewBox="0 0 128 128"><defs><style>.b{fill:#ff61f6;}.c{fill:#470137;}</style></defs><rect class="c" x="0" y="0" width="128" height="128" rx="25" ry="25" transform="translate(128 0) rotate(90)"/><path class="b" d="m66.54,44.4l-12.34,20.37,13.17,21.6c.08.16.12.33.08.49s-.21.04-.45.08h-9.42c-.66,0-1.11-.04-1.4-.45-.86-1.73-1.77-3.41-2.63-5.14-.86-1.69-1.81-3.41-2.8-5.18s-1.97-3.54-2.96-5.35h-.08c-.86,1.77-1.81,3.54-2.76,5.31s-1.89,3.54-2.8,5.27c-.95,1.73-1.89,3.5-2.84,5.18-.16.41-.49.45-.95.45h-9.05c-.16,0-.29.08-.29-.12-.04-.16,0-.33.08-.45l12.8-20.98-12.47-21.11c-.12-.16-.16-.33-.08-.41.08-.12.25-.16.41-.16h9.34c.21,0,.41.04.58.08.16.08.29.21.41.37.78,1.77,1.69,3.54,2.63,5.31.99,1.77,1.93,3.5,2.96,5.23.99,1.73,1.89,3.46,2.76,5.23h.08c.86-1.81,1.77-3.58,2.67-5.31s1.85-3.46,2.8-5.18,1.85-3.5,2.76-5.18c.04-.16.12-.33.25-.41.16-.08.33-.12.53-.08h8.68c.21-.04.41.08.45.29.04.04-.04.21-.12.29h0Z"/><path class="b" d="m85.55,87.8c-3.04.04-6.09-.58-8.85-1.85-2.59-1.19-4.73-3.17-6.21-5.6-1.52-2.51-2.26-5.64-2.26-9.38-.04-3.04.74-6.05,2.26-8.68,1.56-2.67,3.83-4.9,6.54-6.38,2.88-1.6,6.34-2.39,10.41-2.39.21,0,.49,0,.86.04s.78.04,1.28.08v-13c0-.29.12-.45.41-.45h8.35c.21-.04.37.12.41.29v39.25c0,.74.04,1.56.08,2.47.08.86.12,1.69.16,2.39,0,.29-.12.53-.41.66-2.14.91-4.4,1.56-6.71,1.97-2.1.37-4.2.58-6.34.58Zm4.03-8.23v-18.1c-.37-.08-.74-.16-1.11-.21-.45-.04-.91-.08-1.36-.08-1.6,0-3.21.33-4.65,1.07-1.4.7-2.59,1.73-3.5,3.04s-1.36,3.09-1.36,5.23c-.04,1.44.21,2.88.7,4.24.41,1.11,1.03,2.1,1.85,2.92.78.74,1.73,1.32,2.8,1.65,1.11.37,2.26.53,3.41.53.62,0,1.19-.04,1.73-.08.53.04.99-.04,1.48-.21h0Z"/></svg>