<?xml version="1.0" encoding="UTF-8"?>
<svg id="Ebene_1" data-name="Ebene 1" xmlns="http://www.w3.org/2000/svg" viewBox="0 0 256 256">
  <defs>
    <style>
      .cls-1 {
        fill: #d4d600;
      }

      .cls-2 {
        fill: #005a5f;
      }
    </style>
  </defs>
  <g id="Ebene_2" data-name="Ebene 2">
    <path class="cls-2" d="m45,0h166c24.85,0,45,20.15,45,45v166c0,24.85-20.15,45-45,45H45c-24.85,0-45-20.15-45-45V45C0,20.15,20.15,0,45,0Z"/>
  </g>
  <g>
    <path class="cls-1" d="m58.4,67.5c-1.74,0-3.2.61-3.93,1.8-.76,1.23-.64,2.82.17,4.42l19.5,33.76c.03.06.03.1,0,.16l-30.65,54.08c-.8,1.59-.76,3.19,0,4.43.74,1.19,2.03,1.97,3.77,1.97h28.84c4.31,0,6.39-2.91,7.87-5.57,0,0,29.97-53.01,31.14-55.07-.12-.19-19.83-34.58-19.83-34.58-1.44-2.56-3.61-5.41-8.03-5.41h-28.85,0Z"/>
    <path class="cls-1" d="m179.58,28c-4.31,0-6.18,2.71-7.72,5.49,0,0-62.14,110.2-64.19,113.82.11.2,40.98,75.19,40.98,75.19,1.43,2.56,3.64,5.49,8.06,5.49h28.81c1.74,0,3.1-.65,3.83-1.84.77-1.23.75-2.86-.06-4.46l-40.66-74.3c-.04-.06-.04-.13,0-.19l63.86-112.92c.8-1.59.82-3.22.06-4.45-.74-1.19-2.1-1.84-3.84-1.84h-29.14s0,0,0,0h0Z"/>
  </g>
</svg>