<?xml version="1.0" encoding="UTF-8"?>
<svg id="Ebene_1" data-name="Ebene 1" xmlns="http://www.w3.org/2000/svg" viewBox="0 0 256 256">
  <defs>
    <style>
      .cls-1 {
        fill: #fff;
      }

      .cls-2 {
        fill: #cd201f;
      }

      .cls-3 {
        fill: #e8e0e0;
      }
    </style>
  </defs>
  <g id="Ebene_2" data-name="Ebene 2">
    <path class="cls-2" d="m45,0h166c24.85,0,45,20.15,45,45v166c0,24.85-20.15,45-45,45H45c-24.85,0-45-20.15-45-45V45C0,20.15,20.15,0,45,0Z"/>
  </g>
  <g>
    <path class="cls-1" d="m185.77,128.14c-32.59-17.42-63.79-33.43-95.69-50.14v100c33.56-18.25,68.94-34.96,95.83-49.86h-.14Z"/>
    <path class="cls-3" d="m185.77,128.14c-32.59-17.42-95.69-50.14-95.69-50.14l84.13,56.54s-15.32,8.5,11.56-6.4h0Z"/>
  </g>
</svg>